<?xml version="1.0" encoding="UTF-8" standalone="no"?>
<!-- Created with Inkscape (http://www.inkscape.org/) -->

<svg
   width="165mm"
   height="67mm"
   viewBox="0 0 165 67"
   version="1.1"
   id="svg5"
   inkscape:version="1.1.1 (1:1.1+202109281943+c3084ef5ed)"
   sodipodi:docname="public.svg"
   xmlns:inkscape="http://www.inkscape.org/namespaces/inkscape"
   xmlns:sodipodi="http://sodipodi.sourceforge.net/DTD/sodipodi-0.dtd"
   xmlns="http://www.w3.org/2000/svg"
   xmlns:svg="http://www.w3.org/2000/svg">
  <sodipodi:namedview
     id="namedview7"
     pagecolor="#505050"
     bordercolor="#eeeeee"
     borderopacity="1"
     inkscape:pageshadow="0"
     inkscape:pageopacity="0"
     inkscape:pagecheckerboard="0"
     inkscape:document-units="mm"
     showgrid="false"
     inkscape:zoom="0.54888463"
     inkscape:cx="194.94078"
     inkscape:cy="252.32989"
     inkscape:window-width="1854"
     inkscape:window-height="1098"
     inkscape:window-x="66"
     inkscape:window-y="29"
     inkscape:window-maximized="1"
     inkscape:current-layer="layer1" />
  <defs
     id="defs2">
    <clipPath
       clipPathUnits="userSpaceOnUse"
       id="clipPath1203">
      <rect
         style="fill:#0a66c2;stroke-width:2.2"
         id="rect1205"
         width="34.801373"
         height="32.771526"
         x="28.263504"
         y="62.399708" />
    </clipPath>
  </defs>
  <g
     inkscape:label="Calque 1"
     inkscape:groupmode="layer"
     id="layer1">
    <g
       id="g46573">
      <g
         id="g46486"
         transform="translate(-40.371519,-22.208972)">
        <g
           id="g46480">
          <path
             style="fill:#f2ebd1;fill-opacity:1;stroke-width:0.352778"
             d="m 134.52866,61.703452 c 0,-0.166388 -0.97594,-0.40453 -2.16876,-0.529202 -1.19281,-0.124675 -2.40784,-0.425104 -2.70005,-0.667618 -0.29221,-0.242517 -0.58627,-0.401249 -0.65346,-0.352742 -0.0672,0.04851 -1.53142,0.08819 -3.25384,0.08819 h -3.13167 l 0.16669,-1.67569 c 0.0917,-0.921633 0.72538,-4.029344 1.40821,-6.906024 l 1.24151,-5.230331 0.6351,1.044328 c 0.70585,1.160682 2.58474,2.685798 3.74006,3.035859 0.41352,0.125294 1.1125,0.540595 1.55329,0.92289 0.44078,0.382295 1.25339,0.695082 1.80579,0.695082 0.97551,0 1.00456,0.05318 1.01145,1.852083 0.007,1.737946 0.40924,4.852164 0.91209,7.055557 0.1395,0.61129 0.0757,0.970139 -0.1725,0.970139 -0.21665,0 -0.39391,-0.136133 -0.39391,-0.302521 z m -21.72084,-1.494261 c -0.9839,-0.125084 -2.14974,-0.420543 -2.59076,-0.656576 -0.69564,-0.37229 -0.7756,-0.623781 -0.60357,-1.898311 0.48676,-3.606342 0.66807,-4.484586 0.96355,-4.667195 0.17353,-0.10725 0.31278,-0.463443 0.30943,-0.79154 -0.003,-0.328098 0.43023,-1.747478 0.96348,-3.154181 0.90654,-2.391452 1.51875,-3.050222 2.04433,-2.199819 0.41867,0.677432 2.9695,1.758848 4.14873,1.758848 0.64975,0 1.48951,0.233076 1.86614,0.517948 0.37663,0.28487 1.04047,0.522995 1.47518,0.529165 0.7809,0.01108 0.78812,0.05674 0.60088,3.803581 -0.10424,2.085799 -0.26928,4.454237 -0.36677,5.263195 l -0.17725,1.470833 -2.54029,0.223111 c -2.55748,0.224624 -2.83069,0.215695 -6.09308,-0.199059 z m -9.14721,-0.230043 c -5.258027,-0.107498 -5.952184,-0.243572 -5.505003,-1.079136 0.182256,-0.340547 0.373627,-1.566958 0.425277,-2.725358 0.107911,-2.420412 1.039619,-5.888396 2.281266,-8.491343 0.472,-0.989478 0.85818,-1.981667 0.85818,-2.204862 0,-0.223196 0.15875,-0.405811 0.35278,-0.405811 0.19402,0 0.35277,-0.256197 0.35277,-0.569327 0,-0.737038 1.3642,-3.237488 2.38125,-4.36463 0.43657,-0.483817 0.79375,-0.993078 0.79375,-1.131694 0,-0.138616 0.73752,-0.815161 1.63892,-1.503434 1.71284,-1.307848 2.59442,-1.245621 2.59442,0.183129 0,0.352847 0.12481,0.718678 0.27736,0.812959 0.30183,0.18654 0.28426,1.494149 -0.0314,2.339665 -0.10867,0.291042 -0.28633,1.561042 -0.39481,2.822222 -0.72213,8.395357 -1.56799,16.404054 -1.73258,16.404139 -0.0324,1.4e-5 -1.96382,-0.03892 -4.29216,-0.08652 z m 25.51664,-10.98595 c -1.96052,-0.944249 -3.8386,-4.137424 -2.80804,-4.774343 0.16896,-0.104427 0.40312,-0.669416 0.52034,-1.255533 0.19208,-0.960419 1.07278,-3.182316 2.04225,-5.152352 0.19901,-0.404403 0.72823,-1.194783 1.17605,-1.7564 0.74204,-0.93061 0.8899,-0.980607 1.6682,-0.564075 1.50076,0.803181 2.11912,3.178871 2.31046,8.876588 l 0.17178,5.115278 h -2.0327 c -1.11799,0 -2.48974,-0.220124 -3.04834,-0.489163 z M 116.9868,47.21106 c -1.33015,-0.329478 -2.88394,-1.283143 -3.12836,-1.920079 -0.26681,-0.695303 2.88757,-6.01625 4.30365,-7.259587 1.1957,-1.049836 1.30871,-1.081016 1.91838,-0.529269 0.9467,0.85675 1.74547,3.489489 1.98618,6.546408 l 0.21104,2.680059 -1.19465,0.227971 c -2.63578,0.502978 -3.00138,0.525694 -4.09624,0.254497 z"
             id="path42571" />
          <path
             style="fill:#000000;stroke-width:0.352778"
             d="m 116.21732,78.570039 -1.5875,-0.225358 1.66954,-0.164684 c 0.91825,-0.09058 1.83205,-0.110511 2.03067,-0.04431 0.38872,0.129575 0.12367,0.800746 -0.28145,0.712689 -0.13407,-0.02914 -0.95813,-0.154397 -1.83126,-0.278342 z m 7.18297,-0.280176 c -1.22237,-0.08645 -2.01362,-0.350044 -2.42922,-0.809279 -0.59229,-0.65447 -0.56189,-0.753724 0.77807,-2.540565 0.76694,-1.022717 1.491,-2.119256 1.60902,-2.436752 0.11802,-0.317493 -0.48789,-2.767094 -1.34646,-5.443552 -0.85858,-2.676462 -1.56105,-5.06585 -1.56105,-5.309757 0,-0.322887 -1.06586,-0.473432 -3.91996,-0.553671 l -3.91996,-0.110201 0.23004,1.763889 c 0.73064,5.602426 0.73678,5.472462 -0.29712,6.296858 l -0.95694,0.763041 0.86511,2.996438 c 0.85882,2.97465 0.87297,2.995619 1.94521,2.883475 1.18723,-0.124171 3.58418,0.851175 3.58418,1.45844 0,0.253333 -0.14342,0.239716 -0.42333,-0.0402 -0.52711,-0.52711 -3.25888,-0.554305 -4.21619,-0.04197 -0.87006,0.465645 -0.88873,0.44783 -1.13919,-1.086916 -0.22041,-1.350648 -0.63745,-2.814546 -1.23326,-4.329035 l -0.38461,-0.977642 -1.93482,1.284651 -1.93483,1.284651 1.48798,0.751325 c 1.90029,0.95952 2.21189,2.16251 0.64905,2.505766 -1.68156,0.369334 -3.5708,-1.172513 -3.5708,-2.914209 0,-0.446352 0.838,-1.234221 2.45976,-2.312624 1.86456,-1.239845 2.41236,-1.785899 2.26384,-2.256617 -0.10776,-0.341546 -0.85746,-2.40422 -1.66601,-4.583723 l -1.47009,-3.962739 -3.0868,-0.006 -3.08681,-0.006 -0.009,0.970139 c -0.0213,2.38276 -2.262115,7.294294 -5.001755,10.963102 -0.77175,1.033491 -1.34918,1.914828 -1.28318,1.958531 0.066,0.0437 1.01561,0.351744 2.11024,0.68454 2.3902,0.726676 2.98592,1.298621 2.43156,2.334472 -0.45334,0.847065 -1.6085,0.967793 -1.90354,0.198938 -0.1305,-0.340081 0.007,-0.529166 0.38559,-0.529166 1.02988,0 -0.0581,-0.737408 -1.35732,-0.919943 -0.88952,-0.124978 -1.05889,-0.07545 -0.66458,0.194321 0.41955,0.287045 0.32165,0.36316 -0.47262,0.367443 -0.89915,0.0048 -2.30339,-1.096116 -2.33787,-1.832956 -0.006,-0.137968 0.66802,-1.090468 1.49883,-2.116667 2.47792,-3.060661 4.0879,-5.960935 5.0503,-9.097754 0.81818,-2.66675 0.70142,-3.078057 -0.95308,-3.357584 -1.4052,-0.237409 -1.44083,-0.277205 -1.21202,-1.353922 0.12965,-0.610129 0.31616,-1.903077 0.41446,-2.873216 0.27647,-2.728659 1.44403,-7.023309 2.56805,-9.446082 0.560225,-1.207572 1.119355,-2.536935 1.242485,-2.954141 0.12314,-0.417205 0.85131,-1.729306 1.61817,-2.915779 1.33757,-2.069488 1.355,-2.132901 0.42837,-1.559161 -2.25528,1.396397 -3.257185,2.724423 -4.465635,5.919173 -0.66468,1.757183 -1.30464,3.914424 -1.42214,4.79387 -0.2781,2.081479 -1.3642,3.869064 -2.35077,3.869064 -0.68959,0 -0.74055,-0.142589 -0.57521,-1.609467 0.11226,-0.995934 0.48635,-1.934063 0.98137,-2.460983 0.43998,-0.468335 1.40177,-2.446422 2.13731,-4.395749 0.73555,-1.949327 1.69718,-3.977197 2.13696,-4.506377 0.732975,-0.881991 5.712485,-4.373389 7.636735,-5.354532 l 0.8112,-0.413615 -1.09941,-1.252162 c -1.67122,-1.903407 -1.86965,-2.724825 -1.20804,-5.000683 0.70942,-2.44032 2.7316,-4.639766 4.26582,-4.639766 1.51816,0 3.36877,1.451039 4.49897,3.527582 0.91835,1.687326 0.96866,1.961398 0.59124,3.221125 -0.50349,1.680503 -2.22747,3.71075 -3.69946,4.356676 -0.60003,0.263301 -0.89252,0.491679 -0.64999,0.507506 0.24254,0.01583 0.44097,0.454069 0.44097,0.97387 0,0.519801 0.18608,1.459663 0.41349,2.088582 l 0.41349,1.14349 2.06395,-1.4016 c 1.13517,-0.770879 2.83019,-1.786463 3.76672,-2.256851 1.47136,-0.739024 1.82871,-0.796428 2.62953,-0.4224 0.50972,0.23807 1.09474,0.829728 1.30005,1.314798 0.20531,0.485069 0.65897,1.255946 1.00815,1.713059 l 0.63486,0.831115 1.02863,-0.96498 c 0.56575,-0.530739 2.10019,-1.835435 3.40988,-2.899324 1.30969,-1.063888 2.38125,-2.012608 2.38125,-2.108264 0,-0.09566 -0.39687,-0.645581 -0.88194,-1.222053 -0.69288,-0.823433 -0.88195,-1.440731 -0.88195,-2.879451 0,-3.179863 2.00708,-5.160455 5.23724,-5.168135 1.89312,-0.0045 4.13466,2.308986 4.5164,4.661381 0.35771,2.204322 -1.54965,4.57905 -4.08516,5.086151 -0.75316,0.150632 -0.99213,0.341954 -0.76753,0.61448 0.17939,0.217659 0.76014,1.745118 1.29055,3.394354 1.11058,3.453142 2.63182,5.889704 3.98195,6.377831 0.51648,0.186729 1.25655,0.486091 1.64461,0.665249 0.38805,0.179159 1.50512,0.424246 2.48237,0.544639 1.51338,0.186443 1.87454,0.110917 2.43593,-0.509411 0.48872,-0.540035 1.08978,-0.728308 2.32512,-0.728308 2.00763,0 2.73633,0.622177 2.03812,1.740187 -0.65839,1.054251 -1.17576,1.131941 -4.89732,0.735401 -5.49851,-0.585877 -7.35934,-1.364126 -8.87154,-3.71031 l -0.68213,-1.058333 0.15013,8.290278 c 0.13971,7.71458 0.20347,8.384032 0.91826,9.640355 0.42247,0.742541 0.72502,1.537769 0.67234,1.76717 -0.0527,0.229401 0.56772,1.764993 1.37867,3.412423 1.68948,3.432175 2.40437,5.463589 2.76116,7.846024 0.23346,1.558989 0.32265,1.675695 1.28055,1.675695 1.20342,0 3.2752,0.800178 3.65253,1.410698 0.1485,0.240284 -0.0312,0.717857 -0.41436,1.100988 -0.58935,0.58934 -0.83379,0.623976 -1.8949,0.268474 -2.00451,-0.671568 -3.51051,-1.9829 -3.51737,-3.062696 -0.0123,-1.938839 -1.36196,-6.076858 -2.98769,-9.160235 l -1.67391,-3.175356 -2.16044,-0.244425 c -1.18824,-0.134433 -2.32076,-0.373207 -2.51671,-0.530603 -0.19595,-0.157395 -1.18971,-0.398222 -2.20835,-0.535171 l -1.85209,-0.248994 0.006,3.825466 c 0.005,3.45876 -0.0844,3.998518 -0.93194,5.630732 -0.96481,1.857936 -0.97655,2.855824 -0.0485,4.124576 0.3876,0.529925 0.63345,0.574802 1.44939,0.264583 1.39041,-0.52863 3.24541,-0.463165 3.73932,0.131971 0.63957,0.770632 -0.62594,1.821868 -2.53849,2.108672 -0.8841,0.132578 -1.87211,0.546344 -2.21846,0.929065 -0.34347,0.379519 -0.71893,0.660669 -0.83438,0.624777 -0.11545,-0.03589 -1.0257,-0.12295 -2.02277,-0.193467 z m 1.63648,-0.754521 c 0,-0.34121 -2.8106,-0.879867 -3.09693,-0.593535 -0.24829,0.248296 1.33253,0.851518 2.30318,0.878862 0.43656,0.01231 0.79375,-0.1161 0.79375,-0.285327 z m 19.40277,-0.927033 c -0.48507,-0.27729 -1.19944,-0.502631 -1.5875,-0.500754 -0.53695,0.0025 -0.45265,0.119211 0.35278,0.488015 1.40522,0.643439 2.35516,0.653239 1.23472,0.01274 z m -19.67242,-1.842343 -0.63496,-1.418234 -0.97941,1.362541 c -0.53868,0.749395 -0.77171,1.285353 -0.51784,1.191009 0.25387,-0.09434 0.93783,-0.03656 1.51991,0.128401 0.58208,0.164959 1.10084,0.267208 1.1528,0.22722 0.052,-0.03999 -0.19127,-0.71091 -0.5405,-1.490937 z m 5.00635,0.997292 c 1.24263,-0.486795 -0.22892,-0.643244 -1.5617,-0.166035 l -1.23473,0.442098 1.05834,-0.0049 c 0.58208,-0.0028 1.36422,-0.124714 1.73809,-0.271177 z m -21.47288,-0.577279 c -0.37663,-0.284871 -0.93226,-0.5129 -1.23472,-0.50673 -0.43966,0.009 -0.41261,0.115087 0.13485,0.529167 0.37663,0.284872 0.93226,0.5129 1.23472,0.50673 0.43966,-0.009 0.41261,-0.115087 -0.13485,-0.529167 z m 17.43248,-10.604292 0.009,-3.559954 -2.11666,0.02875 c -1.16417,0.0158 -2.11667,0.171933 -2.11667,0.346921 0,0.605723 1.57184,5.832708 2.71765,9.037289 0.12706,0.35535 0.40402,0.06566 0.84319,-0.881945 0.49766,-1.073799 0.6562,-2.262081 0.66324,-4.971065 z m -13.80112,-0.301833 c -0.44331,-3.303167 -0.50056,-3.449669 -1.50894,-3.861128 -0.89684,-0.36595 -1.13792,-0.337905 -1.67011,0.194278 -0.5941,0.594103 -0.59025,0.69765 0.0859,2.311411 0.38933,0.929199 0.8327,1.927574 0.98525,2.218616 0.15256,0.291042 0.49763,1.283709 0.76682,2.205927 0.47716,1.634726 0.50588,1.660309 1.14564,1.020547 0.61615,-0.616155 0.62808,-0.865773 0.19542,-4.089651 z m 23.12588,-4.163906 c -0.57649,-1.627851 -0.72699,-2.788113 -0.80078,-6.173612 -0.0478,-2.193935 -0.0532,-2.204861 -1.08558,-2.204861 -0.57063,0 -1.14129,-0.167926 -1.26814,-0.373168 -0.12685,-0.205243 -1.04903,-0.766431 -2.04929,-1.247086 -2.34462,-1.126655 -2.81517,-1.498751 -3.66734,-2.900043 l -0.70327,-1.156431 -0.62423,2.397392 c -0.34333,1.318565 -0.74945,3.032392 -0.9025,3.808503 -0.15304,0.776111 -0.43212,2.046111 -0.62016,2.822222 -0.18804,0.776111 -0.41854,2.165174 -0.51222,3.086806 l -0.17033,1.675694 3.13167,0.0441 c 3.22187,0.04537 3.29564,0.05236 4.18999,0.397345 0.60676,0.234043 4.54992,1.202841 5.18783,1.274603 0.31271,0.03517 0.28474,-0.349123 -0.10565,-1.451461 z m -15.43165,-0.136762 c 2.14222,-0.257372 2.06883,-0.06216 2.43552,-6.477822 l 0.23188,-4.056945 -1.36243,-0.46063 c -0.74934,-0.253347 -2.23556,-0.668105 -3.30272,-0.921686 -2.22552,-0.528836 -3.88055,-1.242327 -3.88055,-1.672921 0,-0.562877 -0.97669,-0.294084 -1.16715,0.32121 -0.1051,0.339548 -0.62538,1.807986 -1.15617,3.263194 -0.98008,2.686982 -1.46109,4.643385 -1.79237,7.289998 -0.15862,1.267206 -0.0737,1.528159 0.61797,1.898311 1.54021,0.824297 6.0475,1.217189 9.37602,0.817291 z m -10.85709,-6.654211 c 0.21371,-1.940278 0.64163,-5.670903 0.95095,-8.290278 0.30931,-2.619375 0.5667,-5.357696 0.57196,-6.085158 0.009,-1.297511 -0.83865,-3.087064 -1.46292,-3.087064 -0.17403,0 -1.28815,0.971725 -2.47581,2.159389 -2.05872,2.058714 -3.09367,3.823099 -5.76907,9.835055 -1.031105,2.317048 -2.005765,6.24669 -2.005765,8.08692 0,1.010486 -0.16224,2.140405 -0.36055,2.510934 -0.48092,0.898607 0.12613,1.024284 5.475825,1.133655 l 4.23333,0.08655 0.22675,-1.411111 c 0.12471,-0.776111 0.40159,-2.998611 0.6153,-4.938889 z M 96.098185,50.855531 c 0,-0.194028 -0.15388,-0.114653 -0.34197,0.176389 -0.18809,0.291041 -0.34197,0.687916 -0.34197,0.881944 0,0.194028 0.15388,0.114653 0.34197,-0.176389 0.18809,-0.291042 0.34197,-0.687917 0.34197,-0.881944 z m 37.833365,-0.242159 c -0.2302,-0.230201 -0.77789,-0.466242 -1.21708,-0.524537 -0.77603,-0.103003 -0.77923,-0.09121 -0.11375,0.418547 0.85062,0.651566 1.96517,0.740328 1.33083,0.10599 z m -10.12073,-7.564306 c -0.51163,-0.945194 -0.84196,-1.427739 -0.73409,-1.072322 0.10788,0.355418 0.20677,2.339793 0.21975,4.409722 l 0.0236,3.763509 0.71048,-2.691186 0.71048,-2.691187 -0.93024,-1.718536 z m -12.02845,3.092763 c 0.48763,-0.942978 0.51257,-1.341275 0.15807,-2.524489 -0.74308,-2.48016 -0.94985,-1.930203 -1.52772,4.063191 -0.20307,2.106197 -0.20162,2.110395 0.29329,0.848794 0.27356,-0.69733 0.75792,-1.771703 1.07636,-2.387496 z m 22.33724,-2.165465 c -0.18929,-5.636704 -0.81397,-8.075693 -2.26761,-8.853661 -0.68684,-0.367582 -0.92402,-0.331982 -1.54752,0.23228 -0.405,0.366518 -1.05021,1.384706 -1.4338,2.262639 -0.38359,0.877933 -0.84251,1.913742 -1.01982,2.301797 -0.66224,1.449339 -1.75541,4.602928 -1.75558,5.064512 -2.8e-4,0.758036 1.99982,3.081406 3.11508,3.618547 0.5586,0.26904 1.93035,0.489164 3.04833,0.489164 h 2.0327 z m -12.08146,3.880555 c 0.12996,-0.210279 -0.25349,-0.338573 -0.94931,-0.317612 -1.09753,0.03306 -1.1146,0.05206 -0.28541,0.317612 0.48507,0.155347 0.91226,0.298273 0.94932,0.317613 0.0371,0.01934 0.16549,-0.123585 0.2854,-0.317613 z m -0.97013,-1.283265 c 1.13544,-0.218033 1.14652,-0.239823 1.14652,-2.253511 0,-2.43087 -1.13279,-6.332551 -2.09008,-7.198888 -0.66232,-0.599389 -0.73682,-0.573471 -2.11481,0.735666 -1.54854,1.471168 -4.38909,6.337138 -4.11553,7.050038 0.24212,0.63096 1.8011,1.585257 3.12579,1.913382 1.09116,0.270282 1.47899,0.246648 4.04811,-0.246687 z m 27.40562,-0.443658 c 0.27409,-0.443482 -0.64252,-0.733104 -1.56045,-0.49306 -0.58052,0.151811 -0.65383,0.274466 -0.29861,0.499636 0.62044,0.393292 1.6141,0.389777 1.85906,-0.0066 z M 126.98405,39.47485 c 0.34791,-0.826596 0.56803,-1.563981 0.48916,-1.638634 -0.0789,-0.07465 -0.92475,0.554892 -1.87975,1.398986 l -1.73636,1.534717 0.65662,1.456124 0.65662,1.456124 0.59058,-1.352207 c 0.32481,-0.743714 0.87522,-2.028513 1.22313,-2.85511 z m -13.3848,3.002208 c 0.13844,-0.436562 0.63742,-1.404967 1.10885,-2.152009 l 0.85714,-1.35826 -1.61424,1.110624 c -0.88783,0.610843 -1.61207,1.22206 -1.60942,1.35826 0.0133,0.681856 0.46456,1.835135 0.71811,1.835135 0.15833,0 0.40113,-0.357187 0.53956,-0.79375 z m -1.18528,-8.965937 c 1.27917,-1.137305 2.02365,-3.228423 1.59766,-4.487568 -0.64682,-1.911864 -1.64209,-3.000715 -3.15795,-3.454878 -1.43546,-0.430074 -1.45707,-0.422835 -2.56558,0.859519 -1.26938,1.468458 -1.98793,3.952799 -1.51458,5.236588 0.17162,0.465467 0.7395,1.296757 1.26195,1.84731 0.80745,0.850886 1.15241,0.974408 2.30021,0.823647 0.74266,-0.09755 1.67789,-0.468626 2.07829,-0.824618 z m 22.77737,-0.732487 c 2.32279,-1.074294 2.83933,-3.209035 1.31814,-5.447659 -1.02598,-1.509865 -2.31576,-1.912126 -4.36321,-1.360807 -1.52212,0.409867 -2.87617,2.063847 -2.87617,3.513271 0,1.223142 0.99613,2.823798 2.22081,3.56857 1.16627,0.709257 1.65367,0.673249 3.70043,-0.273375 z m -17.02945,1.218408 c -1.0938,-1.093794 -1.23901,-1.450462 -1.23901,-3.043126 0,-1.842649 1.12364,-4.249874 1.98814,-4.259297 0.22036,-0.0024 0.85536,-0.241514 1.41111,-0.53136 1.05553,-0.550495 3.57756,-0.707979 4.18547,-0.261355 1.1696,0.859294 2.48523,5.183633 1.97728,6.499135 -0.68492,1.773827 -2.01705,2.548708 -4.636,2.696692 -2.40379,0.135826 -2.47034,0.115959 -3.68699,-1.100689 z m 6.18729,-0.494356 c 0.55483,-0.327745 1.05911,-0.923058 1.12063,-1.322917 0.3222,-2.094393 -1.00732,-5.168667 -2.34931,-5.432349 -0.33372,-0.06557 -1.33462,0.09318 -2.22422,0.352777 -1.92658,0.56221 -2.91179,1.906934 -2.91375,3.977041 -0.002,2.111338 1.0357,3.021348 3.44533,3.021348 1.16191,0 2.30847,-0.233879 2.92132,-0.5959 z"
             id="path46378" />
        </g>
        <path
           style="fill:#7ab892;fill-opacity:1;stroke-width:0.352778"
           d="m 106.17293,85.04114 c -0.12936,-0.12935 -0.23519,-1.08185 -0.23519,-2.11666 0,-1.74485 -0.36131,-2.37112 -0.88194,-1.52871 -0.4133,0.66873 -1.4645,0.34936 -2.903,-0.88194 -0.79337,-0.6791 -1.53632,-1.23472 -1.651,-1.23472 -0.11468,0 -0.2085,1.18125 -0.2085,2.62501 0,2.46251 -0.393697,3.52987 -1.030824,2.79467 -0.324577,-0.37454 0.0478,-7.7317 0.409547,-8.09203 0.14336,-0.1428 1.126047,0.55881 2.183737,1.55914 1.05769,1.00032 2.09473,1.81876 2.30454,1.81876 0.37737,0 0.52358,-0.2723 1.59618,-2.97287 0.32163,-0.8098 0.67638,-1.2495 0.85386,-1.05834 0.16699,0.17988 0.41365,2.35111 0.54813,4.82496 0.2039,3.75103 0.1619,4.49792 -0.25293,4.49792 -0.27359,0 -0.60326,-0.10583 -0.73261,-0.23519 z M 86.279893,84.22762 C 85.007445,83.45178 84.586962,82.3145 84.8876,80.46188 c 0.378572,-2.33286 3.229063,-5.03987 4.786502,-4.54556 0.837325,0.26576 1.607937,1.93187 1.119463,2.42034 -0.246588,0.24659 -0.59049,0.15395 -1.082971,-0.29175 -0.707979,-0.64071 -0.744577,-0.63084 -1.93293,0.52095 -0.666206,0.64571 -1.369232,1.62711 -1.562279,2.18089 -0.296062,0.84928 -0.229504,1.12078 0.425287,1.73476 0.641449,0.60146 1.143021,0.70825 2.887754,0.61483 1.782795,-0.0955 2.130009,-0.0171 2.230533,0.50327 0.260791,1.35008 -3.573932,1.78962 -5.479066,0.62801 z m 7.575233,0.31489 c -0.880894,-0.51308 -1.676231,-2.21097 -1.672361,-3.57019 0.002,-0.6438 0.478017,-1.99179 1.065464,-3.01613 1.018454,-1.77588 1.123544,-1.85199 2.554315,-1.84985 1.295894,0.002 1.573351,0.1449 2.109518,1.08692 0.858587,1.50854 0.797067,4.07978 -0.134167,5.60739 -1.242614,2.0384 -2.474508,2.5854 -3.922769,1.74186 z m 2.012668,-1.60199 c 0.668357,-0.25647 1.607601,-1.93641 1.593491,-2.85014 -0.005,-0.34919 -0.462727,-1.07901 -1.016324,-1.62182 -0.929254,-0.91117 -1.050564,-0.94291 -1.580001,-0.41347 -1.339931,1.33994 -1.787538,3.53204 -0.931774,4.56319 0.482127,0.58093 1.024894,0.67134 1.934608,0.32224 z m 27.356056,-0.45756 c 0,-3.20291 -0.16164,-3.55663 -1.62524,-3.55663 -0.9618,0 -1.19698,-0.13863 -1.19698,-0.70556 0,-0.75486 0.31003,-0.8232 3.175,-0.69995 2.94101,0.12652 3.35023,0.22302 3.46545,0.81724 0.0914,0.47156 -0.17103,0.58827 -1.32292,0.58827 h -1.43698 v 2.99861 c 0,2.43025 -0.1003,2.99861 -0.52916,2.99861 -0.41938,0 -0.52917,-0.50636 -0.52917,-2.44059 z m 4.71802,1.92272 c -0.1093,-0.28484 -0.14401,-2.11646 -0.0771,-4.07028 0.0916,-2.67544 0.25223,-3.63485 0.65077,-3.88644 0.29104,-0.18373 1.59514,-0.33648 2.89801,-0.33945 1.95561,-0.004 2.43037,0.10958 2.72161,0.65377 0.5077,0.94865 0.17735,1.10472 -2.3384,1.10472 -2.00619,0 -2.27708,0.0846 -2.54068,0.79375 -0.49031,1.31904 -0.10046,1.74877 1.36229,1.50164 0.96558,-0.16313 1.42573,-0.0737 1.77287,0.3446 0.62692,0.75538 0.078,1.2824 -1.62393,1.55904 -2.15431,0.35017 -1.88156,1.04105 0.45896,1.16253 1.82088,0.0945 2.06446,0.19581 2.1645,0.90024 0.10842,0.76342 0.0103,0.79375 -2.56871,0.79375 -2.03209,0 -2.72957,-0.12541 -2.88017,-0.51787 z m 7.05291,-0.007 c -0.11075,-0.28862 -0.0264,-1.02668 0.18746,-1.64014 0.21386,-0.61347 0.39126,-2.24264 0.39423,-3.62039 0.006,-2.79958 0.38368,-3.84453 1.12242,-3.10578 0.24841,0.2484 1.08846,1.74542 1.86678,3.3267 0.77832,1.58129 1.59335,2.93102 1.81118,2.99942 0.49748,0.1562 0.7728,-0.84619 1.06382,-3.87325 0.15369,-1.59856 0.37938,-2.38125 0.68663,-2.38125 0.25173,0 0.53081,0.11906 0.62018,0.26458 0.33107,0.53906 -0.44212,6.08876 -1.01709,7.30044 -0.96966,2.04339 -1.51306,1.71833 -3.80031,-2.27336 l -1.11179,-1.94027 -0.20499,2.30839 c -0.11274,1.26962 -0.32336,2.49993 -0.46804,2.73403 -0.35966,0.58194 -0.90723,0.53477 -1.15048,-0.0991 z m 10.37474,-0.0252 c -2.63303,-1.42889 -2.1845,-5.10035 0.92159,-7.54356 1.84008,-1.44739 2.48809,-1.39317 3.37094,0.28204 0.62982,1.19508 -0.0613,1.81637 -1.03762,0.9328 -0.70797,-0.64071 -0.74457,-0.63085 -1.93293,0.52094 -0.6662,0.64572 -1.36923,1.62712 -1.56228,2.18089 -0.29606,0.84929 -0.2295,1.12079 0.42529,1.73476 0.64145,0.60147 1.14302,0.70826 2.88776,0.61483 1.78279,-0.0955 2.13001,-0.0171 2.23053,0.50327 0.24071,1.24611 -3.44272,1.78372 -5.30328,0.77403 z m 5.95896,0.31473 c -0.36586,-0.36586 -0.27656,-6.66563 0.10886,-7.67935 0.32704,-0.86019 0.47462,-0.90491 2.9862,-0.90491 2.21912,0 2.69863,0.10554 2.99493,0.65917 0.5077,0.94865 0.17735,1.10472 -2.3384,1.10472 -2.00619,0 -2.27709,0.0846 -2.54068,0.79375 -0.49032,1.31904 -0.10047,1.74877 1.36229,1.50164 0.96558,-0.16313 1.42573,-0.0737 1.77287,0.3446 0.62691,0.75538 0.078,1.28241 -1.62393,1.55904 -2.15431,0.35017 -1.88156,1.04105 0.45896,1.16253 1.82088,0.0945 2.06445,0.19582 2.1645,0.90024 0.1082,0.76183 0.008,0.79375 -2.49884,0.79375 -1.43637,0 -2.71741,-0.10583 -2.84676,-0.23518 z m 8.20434,-0.79601 c -0.56716,-0.56716 -1.03119,-1.27217 -1.03119,-1.56669 0,-0.96736 0.72064,-1.00587 1.45087,-0.0775 0.50758,0.64529 1.0444,0.90827 1.83792,0.90037 l 1.12093,-0.0111 -0.94737,-0.78261 c -0.52105,-0.43043 -1.59261,-1.21765 -2.38125,-1.74939 -1.69837,-1.14511 -1.92172,-2.5142 -0.64013,-3.92391 1.28907,-1.41795 2.22533,-1.4931 3.44214,-0.2763 0.58067,0.58068 1.05577,1.29675 1.05577,1.59127 0,1.01522 -0.78557,1.01754 -1.60285,0.005 -0.67845,-0.84076 -0.92925,-0.94803 -1.46023,-0.62453 -1.04406,0.63611 -0.95877,1.45851 0.21416,2.06505 4.18589,2.16461 4.84009,5.48186 1.08109,5.48186 -0.75499,0 -1.43762,-0.32895 -2.13986,-1.03119 z M 108.28,83.9731 c -0.36159,-0.36159 -0.25978,-6.4405 0.11974,-7.14964 0.45808,-0.85594 2.0997,-1.40374 3.09894,-1.03409 0.43714,0.1617 0.97744,0.69487 1.20068,1.18482 0.5261,1.15468 -0.30912,2.15501 -2.23153,2.67266 l -1.35509,0.36489 v 1.90586 c 0,1.79025 -0.31657,2.57167 -0.83274,2.0555 z m 2.59663,-6.49915 c 0,-0.17139 -0.3175,-0.31163 -0.70556,-0.31163 -0.38805,0 -0.70555,0.22326 -0.70555,0.49614 0,0.32246 0.24699,0.43155 0.70555,0.31163 0.38806,-0.10148 0.70556,-0.32474 0.70556,-0.49614 z m 3.23368,6.12656 c -0.17541,-0.33954 -0.40178,-2.01011 -0.50305,-3.71237 -0.16339,-2.74627 -0.11159,-3.13384 0.4597,-3.43958 0.79608,-0.42605 3.51656,-0.44289 4.175,-0.0258 0.79961,0.50645 0.0925,1.09236 -1.31838,1.09236 -1.36654,0 -2.1664,0.4919 -2.1664,1.33231 0,0.33341 0.36097,0.45454 1.15161,0.38642 2.32887,-0.20064 2.90146,1.30752 0.63406,1.67009 -1.45065,0.23197 -2.16943,1.07217 -1.22671,1.43393 0.30089,0.11546 1.40732,0.12114 2.45874,0.0126 2.20002,-0.22706 2.80081,0.23486 1.58546,1.21899 -1.11445,0.90242 -4.78866,0.92416 -5.25003,0.0311 z m 61.28359,-1.5429 c -1.54641,-1.64198 -1.73155,-2.24989 -0.59466,-1.95259 0.42646,0.11153 0.98593,0.0281 1.24325,-0.18551 0.65092,-0.54022 1.00372,-0.072 0.44921,0.59612 -0.34915,0.4207 -0.3626,0.75076 -0.0578,1.41964 0.42259,0.92749 1.08478,1.11614 1.71294,0.48798 0.45457,-0.45457 0.99266,0.16493 0.63954,0.73629 -0.51062,0.82622 -2.04632,0.32739 -3.39245,-1.10193 z m 2.74858,-2.16843 -1.22328,-1.1537 1.02177,-1.02176 c 1.08334,-1.08334 1.81197,-0.98006 1.10233,0.15625 -0.50679,0.8115 -0.24181,1.65067 0.67638,2.14207 0.63993,0.34249 0.60849,1.03084 -0.0471,1.03084 -0.16876,0 -0.85732,-0.51917 -1.53012,-1.1537 z m 3.15666,-1.97341 c -0.90862,-1.00401 -0.62323,-2.54753 0.59383,-3.21177 0.9518,-0.51946 1.01786,-0.50244 1.71365,0.44155 0.56105,0.7612 0.83059,0.89311 1.19944,0.58699 0.67257,-0.55818 1.37321,-0.0712 0.83339,0.57924 -0.22721,0.27377 -0.59415,0.49776 -0.81542,0.49776 -0.22127,0 -0.55902,0.35719 -0.75055,0.79375 -0.46054,1.04972 -1.95483,1.21803 -2.77434,0.31248 z m 1.82782,-1.41286 c -0.12163,-1.04542 -1.13887,-1.43711 -1.47274,-0.56707 -0.31373,0.81757 0.37834,1.95025 1.03715,1.69744 0.34147,-0.13103 0.50307,-0.55038 0.43559,-1.13037 z m 1.87699,-2.64659 -1.15275,-1.18934 0.85941,-0.92733 c 1.06462,-1.14873 1.33904,-1.15224 2.66788,-0.0341 0.86459,0.72751 1.11507,0.80026 1.34998,0.3921 0.15864,-0.27562 0.59465,-0.55851 0.9689,-0.62865 1.09573,-0.20534 0.48901,-0.77582 -0.85685,-0.80568 -1.06883,-0.0237 -1.24942,-0.15456 -1.34406,-0.97381 -0.11326,-0.98031 0.98766,-1.96132 1.70413,-1.51852 0.55676,0.3441 0.40181,0.74245 -0.44827,1.15243 -0.7287,0.35144 -0.68741,0.38477 0.50397,0.40668 1.65173,0.0304 2.55693,0.84743 2.02989,1.8322 -0.20633,0.38554 -0.64258,0.78578 -0.96943,0.88943 -0.32686,0.10365 -0.9534,0.36066 -1.39232,0.57114 -0.6786,0.32542 -0.95421,0.23306 -1.84166,-0.61717 -0.9192,-0.88065 -1.07143,-0.92741 -1.27682,-0.39218 -0.12825,0.33422 -0.019,1.03411 0.24284,1.55532 0.26182,0.5212 0.53404,1.0667 0.60494,1.21222 0.32855,0.67433 -0.60955,0.1485 -1.64978,-0.92475 z m -69.54121,-0.32896 c 0,-0.45621 0.51032,-1.30737 1.16332,-1.94028 1.33675,-1.29563 1.50027,-1.3442 1.8098,-0.53759 0.15284,0.39829 -0.20196,1.0286 -1.09219,1.94027 -1.52495,1.56169 -1.88093,1.66344 -1.88093,0.5376 z m 75.2155,-4.57913 c -1.04737,-1.08063 -1.46195,-2.01647 -0.89328,-2.01647 0.13139,0 0.6824,0.51594 1.22446,1.14653 0.81325,0.94607 1.04569,1.0558 1.32943,0.62758 0.47032,-0.70981 0.9782,-0.12185 0.52093,0.60307 -0.59224,0.93889 -0.98482,0.87398 -2.18154,-0.36071 z m 1.58526,-1.94314 c -1.36821,-1.40118 -1.7369,-2.43071 -0.73244,-2.04526 0.31564,0.12112 0.79572,0.0361 1.06686,-0.18892 0.71248,-0.5913 1.05773,-0.0508 0.51879,0.81221 -0.39719,0.63599 -0.36206,0.83346 0.2587,1.45422 0.60435,0.60435 0.80665,0.64498 1.27523,0.25609 0.65402,-0.54279 1.06875,-0.27108 0.77092,0.50506 -0.37011,0.96449 -1.7898,0.60781 -3.15806,-0.7934 z m -13.30076,0.7181 c 0,-0.14681 0.14437,-0.77034 0.32084,-1.38563 0.40211,-1.40208 -0.38879,-1.89905 -0.97493,-0.6126 -0.59727,1.31087 -1.23785,1.07421 -1.00338,-0.37069 0.18949,-1.16767 0.13825,-1.24151 -1.10036,-1.58553 -0.71452,-0.19845 -1.40785,-0.36171 -1.54074,-0.36278 -0.13289,-10e-4 -0.68851,-0.18512 -1.23472,-0.40896 -1.14711,-0.47009 -1.3179,-0.5107 -3.33512,-0.79285 -0.82615,-0.11556 -1.6611,-0.36911 -1.85545,-0.56346 -0.19766,-0.19767 -2.26532,-0.35337 -4.69253,-0.35337 -4.10398,0 -4.33917,-0.0382 -4.33917,-0.70556 0,-0.63881 0.22526,-0.70274 2.38125,-0.67578 4.10179,0.0513 9.71589,1.07561 14.18847,2.58879 l 2.41549,0.81722 0.70857,-0.70858 c 0.44606,-0.44606 0.93508,-0.62165 1.31997,-0.47396 0.55861,0.21437 0.54427,0.30606 -0.16615,1.06227 -0.72765,0.77454 -0.7367,0.84364 -0.14104,1.07691 0.47754,0.18702 0.99366,-0.15412 2.0667,-1.36602 0.7866,-0.88841 1.54067,-1.61529 1.67569,-1.61529 0.62213,0 0.13549,1.34862 -0.87619,2.42816 l -1.11842,1.19344 1.20825,0.9896 c 0.96188,0.78782 1.11928,1.07942 0.77194,1.43009 -0.34828,0.35162 -0.61153,0.27585 -1.30496,-0.37559 -0.97568,-0.91661 -1.92442,-0.77377 -2.21393,0.3333 -0.17147,0.6557 -1.16008,1.02799 -1.16008,0.43687 z m 9.87778,-1.49698 c 0,-0.19403 0.15875,-0.35278 0.35277,-0.35278 0.19403,0 0.35278,0.15875 0.35278,0.35278 0,0.19403 -0.15875,0.35278 -0.35278,0.35278 -0.19402,0 -0.35277,-0.15875 -0.35277,-0.35278 z m 5.72046,-1.3693 c -1.39409,-1.73475 -1.03302,-2.18781 0.53353,-0.66945 0.91302,0.88493 1.25245,1.0397 1.47841,0.67409 0.21352,-0.34548 0.36152,-0.36415 0.54415,-0.0687 0.29045,0.46996 -0.401,1.43332 -1.02876,1.43332 -0.23482,0 -0.92211,-0.61618 -1.52733,-1.3693 z m 2.04065,-1.45292 c -0.87883,-0.87883 -0.90102,-1.83043 -0.0604,-2.59116 0.85882,-0.77723 2.02262,-0.7383 2.85646,0.0955 0.68803,0.68804 0.65992,1.8299 -0.068,2.76021 -0.52123,0.66619 -1.93436,0.52913 -2.72807,-0.26458 z m 2.1026,-0.51222 c 0.67633,-0.81493 0.30127,-1.78084 -0.69149,-1.78084 -0.55915,0 -0.91614,0.22771 -0.99444,0.63431 -0.12215,0.63427 0.49204,1.65875 0.99444,1.65875 0.14651,0 0.45768,-0.2305 0.69149,-0.51222 z m -5.63038,-0.54612 c 0,-0.19402 0.15875,-0.35277 0.35278,-0.35277 0.19402,0 0.35277,0.15875 0.35277,0.35277 0,0.19403 -0.15875,0.35278 -0.35277,0.35278 -0.19403,0 -0.35278,-0.15875 -0.35278,-0.35278 z m 6.63982,-1.6387 -1.24878,-1.24878 1.00336,-1.09853 1.00335,-1.09853 0.97543,0.79126 c 0.53649,0.43519 1.25324,0.88335 1.59279,0.99592 0.67194,0.22275 0.80553,0.66999 0.29445,0.98585 -0.17759,0.10976 -0.82217,-0.22054 -1.43239,-0.73401 -1.52292,-1.28146 -2.16373,-0.67449 -1.13274,1.07292 0.99725,1.6902 0.46819,1.85757 -1.05547,0.3339 z M 68.547225,56.46614 c 0.0022,-0.9378 0.102282,-2.3004 0.222547,-3.02801 0.201728,-1.22044 0.309767,-1.32291 1.394817,-1.32291 0.801774,0 1.292394,0.2172 1.541341,0.68236 0.851579,1.59119 0.07805,2.84542 -1.754872,2.84542 -0.637042,0 -0.737359,0.17491 -0.640553,1.11685 0.06877,0.66912 -0.062,1.17589 -0.32619,1.26412 -0.312593,0.10439 -0.439842,-0.34914 -0.43709,-1.55783 z m 2.699865,-2.43436 c 0.319935,-0.83373 -0.430718,-1.42717 -1.101296,-0.87064 -0.299265,0.24837 -0.544118,0.67027 -0.544118,0.93755 0,0.67052 1.384033,0.61424 1.645414,-0.0669 z m 2.076726,1.17024 c -0.07495,-0.24253 -0.210252,-1.09062 -0.300673,-1.88463 l -0.164402,-1.44366 1.546467,-0.0585 c 0.850557,-0.0322 1.546467,0.10153 1.546467,0.29713 0,0.19559 -0.226786,0.35563 -0.503967,0.35563 -0.952145,0 -1.664351,1.0784 -1.426725,2.1603 0.219769,1.00061 -0.406091,1.51564 -0.697167,0.57372 z m 3.615528,-0.45518 c -0.643911,-1.41323 -0.0025,-2.7824 1.366061,-2.91603 1.850217,-0.18066 2.929188,2.0139 1.587242,3.22834 -1.001095,0.90598 -2.468939,0.75076 -2.953303,-0.31231 z m 2.338521,-0.36377 c 0.686125,-0.68612 0.696006,-1.00557 0.04775,-1.54358 -0.664884,-0.55181 -1.962827,0.10498 -1.962827,0.99323 0,1.20627 0.978083,1.48735 1.915079,0.55035 z m 9.139975,-1.4084 c -0.116435,-0.30342 -0.03207,-0.94589 0.187459,-1.42771 0.583455,-1.28055 0.499939,-1.54841 -0.482791,-1.54841 -0.656114,0 -0.881944,0.1866 -0.881944,0.72875 0,0.99303 -0.663907,2.16085 -1.081666,1.90267 -0.187389,-0.11582 -0.282124,-0.7422 -0.21052,-1.39196 l 0.130189,-1.18139 -3.328286,-0.24953 c -1.830553,-0.13724 -5.642253,-0.18999 -8.470443,-0.11723 -3.636259,0.0936 -5.182312,0.0147 -5.279264,-0.26945 -0.268485,-0.78674 7.945335,-1.13079 14.75081,-0.61786 2.549659,0.19216 2.694601,0.16341 2.887108,-0.57273 0.231666,-0.8859 1.18732,-0.76534 1.027578,0.12963 -0.07182,0.40241 0.144865,0.57797 0.705556,0.57167 0.589481,-0.007 0.976852,-0.37329 1.426577,-1.3503 0.339548,-0.73766 0.617361,-1.50787 0.617361,-1.71159 0,-0.53778 0.969532,-1.25887 1.364438,-1.0148 0.369853,0.22858 -0.253993,2.33359 -0.810447,2.73466 -0.629503,0.45372 -0.508106,1.35113 0.182778,1.35113 0.370889,0 0.674342,0.23812 0.674342,0.52916 0,0.3234 -0.329269,0.52917 -0.846759,0.52917 -0.724503,0 -0.907852,0.25467 -1.269908,1.76389 -0.427002,1.77995 -0.90297,2.22647 -1.292168,1.21223 z M 50.202782,47.29392 c 0.0021,-0.9378 0.102281,-2.3004 0.222547,-3.02801 0.201727,-1.22045 0.309766,-1.32291 1.394816,-1.32291 0.801774,0 1.292395,0.2172 1.541342,0.68236 0.851579,1.59119 0.07805,2.84541 -1.754873,2.84541 -0.637042,0 -0.737359,0.17491 -0.640553,1.11686 0.06877,0.66912 -0.062,1.17589 -0.32619,1.26412 -0.312592,0.10439 -0.439842,-0.34914 -0.437089,-1.55783 z m 2.699865,-2.43436 c 0.319934,-0.83374 -0.430719,-1.42717 -1.101297,-0.87064 -0.299265,0.24837 -0.544118,0.67026 -0.544118,0.93755 0,0.67052 1.384033,0.61424 1.645415,-0.0669 z m -9.951728,1.45086 c -1.060017,-1.06002 -1.08241,-1.58593 -0.119645,-2.80988 0.83151,-1.0571 1.945989,-1.1077 2.567293,-0.11657 0.534411,0.85251 -0.119174,1.82024 -1.326647,1.96428 -1.226349,0.1463 -0.835526,0.76975 0.482535,0.76975 1.156572,0 1.685232,0.52487 0.851065,0.84497 -0.995449,0.38199 -1.573815,0.22824 -2.454601,-0.65255 z m 1.956313,-2.30909 c 0,-0.19403 -0.3175,-0.35278 -0.705555,-0.35278 -0.388056,0 -0.705556,0.15875 -0.705556,0.35278 0,0.19403 0.3175,0.35278 0.705556,0.35278 0.388055,0 0.705555,-0.15875 0.705555,-0.35278 z m 1.411112,2.72433 c 0,-0.24787 0.243079,-0.79772 0.540175,-1.22188 0.441409,-0.6302 0.459976,-0.89963 0.101549,-1.47357 -0.503603,-0.80639 -0.129783,-1.42194 0.488227,-0.80393 0.314998,0.315 0.564545,0.27516 1.054617,-0.16835 0.899351,-0.8139 1.250875,-0.27484 0.56158,0.86118 -0.530324,0.87402 -0.530589,1.02271 -0.0034,1.91516 0.732473,1.23998 0.306413,1.70047 -0.570899,0.61704 l -0.668021,-0.82497 -0.483993,0.77499 c -0.53796,0.86144 -1.019813,1.01468 -1.019813,0.32433 z m 18.857574,-0.41524 c -1.060017,-1.06002 -1.08241,-1.58593 -0.119645,-2.80988 0.83151,-1.0571 1.94599,-1.1077 2.567293,-0.11657 0.534411,0.85251 -0.119174,1.82024 -1.326647,1.96428 -1.226349,0.1463 -0.835526,0.76975 0.482535,0.76975 1.156573,0 1.685232,0.52487 0.851065,0.84497 -0.995449,0.38199 -1.573814,0.22824 -2.454601,-0.65255 z m 1.956314,-2.30909 c 0,-0.19403 -0.3175,-0.35278 -0.705556,-0.35278 -0.388055,0 -0.705555,0.15875 -0.705555,0.35278 0,0.19403 0.3175,0.35278 0.705555,0.35278 0.388056,0 0.705556,-0.15875 0.705556,-0.35278 z m 10.39091,2.30909 c -1.06002,-1.06002 -1.082414,-1.58593 -0.119649,-2.80988 0.831512,-1.0571 1.94599,-1.1077 2.567295,-0.11657 0.534409,0.85251 -0.119176,1.82024 -1.326649,1.96428 -1.226347,0.1463 -0.835526,0.76975 0.482536,0.76975 1.156572,0 1.685234,0.52487 0.851066,0.84497 -0.995451,0.38199 -1.573816,0.22824 -2.454599,-0.65255 z m 1.956311,-2.30909 c 0,-0.19403 -0.3175,-0.35278 -0.705556,-0.35278 -0.388055,0 -0.705555,0.15875 -0.705555,0.35278 0,0.19403 0.3175,0.35278 0.705555,0.35278 0.388056,0 0.705556,-0.15875 0.705556,-0.35278 z m -24.490078,2.14758 c -0.831719,-0.91904 -0.491651,-2.38459 0.676865,-2.917 0.655201,-0.29853 0.991109,-0.2853 1.401378,0.0552 0.85349,0.70834 0.634545,1.41258 -0.606914,1.95217 l -1.146528,0.49833 1.175926,0.0138 c 0.778461,0.009 1.126984,0.16286 1.031128,0.45478 -0.245325,0.74712 -1.836463,0.71112 -2.531855,-0.0573 z m 3.870553,-0.11911 c -0.07495,-0.24253 -0.210252,-1.09062 -0.300673,-1.88463 l -0.164402,-1.44366 1.546467,-0.0585 c 0.850557,-0.0322 1.546467,0.10154 1.546467,0.29714 0,0.19559 -0.226785,0.35562 -0.503968,0.35562 -0.952144,0 -1.66435,1.07841 -1.426724,2.16031 0.219769,1.0006 -0.406091,1.51564 -0.697167,0.57372 z m 3.583481,0.22067 c -0.457857,-0.45786 -0.291066,-3.73272 0.182078,-3.575 0.274596,0.0915 0.392795,0.68904 0.324211,1.63892 -0.08551,1.18428 0.0031,1.47198 0.426666,1.38466 0.29403,-0.0606 0.584697,0.0485 0.645928,0.24256 0.13039,0.41317 -1.211973,0.67577 -1.578883,0.30886 z m 6.041137,-1.01442 c -0.03234,-0.6791 -0.07203,-1.49121 -0.08819,-1.8047 -0.02109,-0.40898 0.343389,-0.60344 1.290288,-0.6884 1.459156,-0.13094 2.031703,0.46569 2.031703,2.11713 0,0.49783 0.15875,0.90514 0.352777,0.90514 0.194028,0 0.352778,0.15875 0.352778,0.35278 0,0.19402 -0.3175,0.35277 -0.705555,0.35277 -0.59008,0 -0.705556,-0.23518 -0.705556,-1.43698 0,-1.17824 -0.111159,-1.41576 -0.617361,-1.31917 -0.377568,0.0721 -0.744296,0.6302 -0.944162,1.43698 -0.411063,1.6593 -0.889734,1.70112 -0.966718,0.0845 z m 4.731591,0.82752 c -0.657079,-0.65708 -0.530766,-1.97094 0.266094,-2.7678 0.902173,-0.90217 1.834166,-0.89688 2.659496,0.0151 0.648579,0.71667 0.6443,0.71939 -0.775405,0.49237 -1.161653,-0.18576 -1.471241,-0.11452 -1.661926,0.3824 -0.311842,0.81264 0.397568,1.61415 1.325168,1.4972 0.410146,-0.0517 0.825097,0.0647 0.922111,0.25877 0.261546,0.52309 -2.223607,0.63389 -2.735538,0.12196 z M 55.715044,42.31525 c -0.111503,-0.18042 0.172501,-0.68054 0.631122,-1.11139 0.45862,-0.43086 0.925084,-0.63576 1.036587,-0.45534 0.111504,0.18041 -0.172501,0.68054 -0.631121,1.11139 -0.458621,0.43085 -0.925085,0.63576 -1.036588,0.45534 z m 6.831077,-0.78337 c 0,-0.19402 0.15875,-0.35277 0.352777,-0.35277 0.194028,0 0.352778,0.15875 0.352778,0.35277 0,0.19403 -0.15875,0.35278 -0.352778,0.35278 -0.194027,0 -0.352777,-0.15875 -0.352777,-0.35278 z"
           id="path37904" />
      </g>
    </g>
  </g>
</svg>
