<?xml version="1.0" encoding="UTF-8" standalone="no"?>
<!-- Created with Inkscape (http://www.inkscape.org/) -->

<svg
   width="106mm"
   height="59mm"
   viewBox="0 0 106 59"
   version="1.1"
   id="svg5"
   inkscape:version="1.1.1 (1:1.1+202109281943+c3084ef5ed)"
   sodipodi:docname="etoileSinscrire.svg"
   xmlns:inkscape="http://www.inkscape.org/namespaces/inkscape"
   xmlns:sodipodi="http://sodipodi.sourceforge.net/DTD/sodipodi-0.dtd"
   xmlns="http://www.w3.org/2000/svg"
   xmlns:svg="http://www.w3.org/2000/svg">
  <sodipodi:namedview
     id="namedview7"
     pagecolor="#505050"
     bordercolor="#eeeeee"
     borderopacity="1"
     inkscape:pageshadow="0"
     inkscape:pageopacity="0"
     inkscape:pagecheckerboard="0"
     inkscape:document-units="mm"
     showgrid="false"
     inkscape:zoom="0.64052329"
     inkscape:cx="396.55076"
     inkscape:cy="561.25984"
     inkscape:window-width="1854"
     inkscape:window-height="1098"
     inkscape:window-x="66"
     inkscape:window-y="29"
     inkscape:window-maximized="1"
     inkscape:current-layer="layer1" />
  <defs
     id="defs2">
    <clipPath
       clipPathUnits="userSpaceOnUse"
       id="clipPath1203">
      <rect
         style="fill:#0a66c2;stroke-width:2.2"
         id="rect1205"
         width="34.801373"
         height="32.771526"
         x="28.263504"
         y="62.399708" />
    </clipPath>
  </defs>
  <g
     inkscape:label="Calque 1"
     inkscape:groupmode="layer"
     id="layer1">
    <path
       style="fill:#7ab892;fill-opacity:1;stroke-width:0.352778"
       d="m 50.874504,52.34856 c -4.41682,-7.19525 -9.57324,-11.02401 -15.28069,-11.34626 -3.16203,-0.17853 -4.73881,0.25586 -7.68663,2.11757 -1.69821,1.07252 -2.75733,2.12829 -4.39175,4.37786 -2.24091,3.08432 -3.1299,3.65718 -3.1299,2.01688 0,-1.52374 -1.07848,-5.43706 -2.00804,-7.2863 -1.3399,-2.66556 -3.41387,-4.66404 -6.234,-6.0071 -3.2782605,-1.56124 -3.8173795,-1.7104 -6.0840645,-1.68333 -2.441554,0.0292 -2.513025,-0.62626 -0.159443,-1.46218 2.049922,-0.72807 3.799338,-2.58268 5.3931875,-5.71747 1.67274,-3.28999 1.31766,-5.51404 -1.4285285,-8.94768 -1.291652,-1.61499 -7.254637,-6.75389 -7.836951,-6.75389 -0.186663,0 -0.339387,-0.23813 -0.339387,-0.52917 0,-0.839951 1.023078,-0.634911 5.644445,1.13121 4.7759615,1.8252 12.1756115,2.48415 14.6595215,1.30546 2.45031,-1.16275 5.00012,-5.3270708 5.83569,-9.5308008 0.52581,-2.64534 1.16559,-2.91963 1.76143,-0.75517 1.69321,6.15074 3.87526,9.8421608 6.9936,11.8312208 1.56176,0.99618 2.76888,0.83276 4.60798,-0.62384 1.41584,-1.12136 2.91604,-3.87706 3.32847,-6.1140108 0.35239,-1.91134 1.43872,-1.67302 2.91398,0.63927 2.13319,3.3435208 3.45112,4.7495408 5.45119,5.8155708 2.4148,1.28707 2.95607,1.31121 4.58485,0.20442 1.22515,-0.83251 1.78807,-1.79606 2.22884,-3.81513 0.32929,-1.5084408 1.29671,-1.205971 3.96291,1.23905 3.6619,3.35812 4.72188,4.06291 7.00891,4.66027 2.70469,0.70646 5.31502,0.24379 7.00725,-1.24201 1.60809,-1.41192 3.38115,-4.89578 4.30034,-8.4496708 1.11664,-4.31731 1.5492,-4.23456 4.11573,0.78739 2.74429,5.3697808 5.02037,7.8972008 8.83204,9.8073408 3.03004,1.51843 4.22679,1.64701 7.956416,0.8548 1.02863,-0.21849 1.1648,-0.1663 1.05491,0.40431 -0.0708,0.36784 -0.58883,0.78922 -1.18109,0.9608 -1.60562,0.46517 -4.095136,1.73222 -5.157696,2.62503 -1.39153,1.16924 -3.42012,4.37852 -4.19943,6.64362 -0.78437,2.27982 -0.99317,5.38063 -0.57206,8.49537 l 0.29474,2.18006 -2.63395,-0.1992 c -2.09207,-0.15822 -3.14164,-0.045 -5.1018,0.55038 -4.82096,1.46432 -7.10831,3.83295 -7.42836,7.69231 -0.19057,2.29813 -0.78769,2.45534 -2.52353,0.66441 -1.34677,-1.38952 -6.06677,-3.43291 -9.31783,-4.0339 -2.35399,-0.43516 -4.64294,-0.0631 -6.43829,1.04647 -2.71905,1.68047 -5.42531,5.88479 -5.42531,8.42852 0,2.47266 -1.00498,1.8828 -3.3777,-1.98248 z"
       id="path5611" />
  </g>
</svg>
