<?xml version="1.0" encoding="UTF-8" standalone="no"?>
<!-- Created with Inkscape (http://www.inkscape.org/) -->

<svg
   width="119mm"
   height="80mm"
   viewBox="0 0 119 80"
   version="1.1"
   id="svg5"
   inkscape:version="1.1.1 (1:1.1+202109281943+c3084ef5ed)"
   sodipodi:docname="etoilePourLaPremiereSession.svg"
   xmlns:inkscape="http://www.inkscape.org/namespaces/inkscape"
   xmlns:sodipodi="http://sodipodi.sourceforge.net/DTD/sodipodi-0.dtd"
   xmlns="http://www.w3.org/2000/svg"
   xmlns:svg="http://www.w3.org/2000/svg">
  <sodipodi:namedview
     id="namedview7"
     pagecolor="#505050"
     bordercolor="#eeeeee"
     borderopacity="1"
     inkscape:pageshadow="0"
     inkscape:pageopacity="0"
     inkscape:pagecheckerboard="0"
     inkscape:document-units="mm"
     showgrid="false"
     inkscape:zoom="0.64052329"
     inkscape:cx="396.55076"
     inkscape:cy="561.25984"
     inkscape:window-width="1854"
     inkscape:window-height="1098"
     inkscape:window-x="66"
     inkscape:window-y="29"
     inkscape:window-maximized="1"
     inkscape:current-layer="layer1" />
  <defs
     id="defs2">
    <clipPath
       clipPathUnits="userSpaceOnUse"
       id="clipPath1203">
      <rect
         style="fill:#0a66c2;stroke-width:2.2"
         id="rect1205"
         width="34.801373"
         height="32.771526"
         x="28.263504"
         y="62.399708" />
    </clipPath>
  </defs>
  <g
     inkscape:label="Calque 1"
     inkscape:groupmode="layer"
     id="layer1">
    <path
       style="fill:#7ab892;fill-opacity:1;stroke-width:0.352778"
       d="m 92.281635,77.472337 c -2.1638,-3.0323 -5.8235,-6.46476 -7.79273,-7.30887 -4.32439,-1.85365 -10.66858,-2.37269 -14.111733,-1.15453 -1.82181,0.64454 -5.48203,3.91971 -5.48203,4.90531 0,0.89998 -1.41089,3.29852 -1.94028,3.29852 -0.28315,0 -0.85188,-0.66068 -1.26383,-1.46817 -0.41196,-0.8075 -1.70603,-2.72291 -2.875721,-4.25647 -3.802147,-4.98491 -9.972494,-7.73716 -13.779767,-6.14638 -1.456147,0.60842 -5.540403,3.67651 -5.540403,4.16195 0,0.16541 -0.213522,0.30074 -0.47449,0.30074 -0.260971,0 -0.761823,0.3175 -1.11301,0.70555 -1.399688,1.54664 -1.700734,1.03927 -2.774191,-4.67556 -1.2533,-6.67226 -2.311256,-9.11073 -4.907171,-11.31047 -2.722728,-2.3072 -3.948436,-2.83312 -6.670949,-2.8623 -2.109206,-0.0226 -2.464679,0.077 -3.370693,0.94486 -1.359309,1.30202 -2.092879,1.24812 -2.400349,-0.17639 -0.136109,-0.63059 -0.542788,-1.73 -0.903729,-2.44314 -0.755265,-1.49224 -4.069314,-4.52362 -6.136805,-5.61337 -1.9953702,-1.05173 -6.0216752,-2.07269 -8.2020832,-2.0798 -2.246612,-0.007 -2.409507,-0.53763 -0.61367,-1.99775 1.958854,-1.59267 5.259086,-5.76152 6.274156,-7.92551 1.720164,-3.66715 2.1140032,-7.32088 1.107524,-10.27473 -0.512962,-1.50547 -0.713163,-1.68885 -2.822222,-2.58522 -3.335844,-1.41775 -3.042034,-2.04902 1.102457,-2.3687 2.301579,-0.17753 4.9436802,-1.50703 6.1102902,-3.07469 0.506049,-0.68002 1.022116,-1.31577 1.146816,-1.41278 0.333328,-0.25933 1.693438,-2.54707 1.940041,-3.2631994 0.23114,-0.6712196 0.851513,-0.8045896 1.382663,-0.29724 0.588934,0.5625597 6.398273,2.4582394 9.392616,3.0649694 5.479598,1.11031 10.474557,-0.16178 12.880882,-3.280419 1.09964,-1.42516 2.586535,-4.60163 3.310392,-7.0720301 0.62466,-2.13184995 1.399417,-1.97057995 2.542135,0.52917 1.111108,2.4305901 3.077167,7.5274994 3.077167,7.9773991 0,0.17632 0.667089,1.68806 1.482422,3.35944 2.095729,4.29609 5.838408,8.06971 9.081215,9.15628 2.910737,0.97531 3.888297,0.95845 5.983327,-0.10318 1.50084,-0.76054 4.24322,-3.76952 4.27641,-4.69215 0.005,-0.14507 0.45869,-0.80543 1.00771,-1.46746 0.66476,-0.8016 1.18749,-1.13107 1.56478,-0.98629 0.55043,0.21122 2.527873,3.76222 3.085813,5.54137 1.56404,4.98733 3.64343,8.40567 6.10854,10.04191 2.34788,1.55844 4.61489,2.56307 6.44359,2.85549 2.29968,0.36773 6.75099,-0.97393 12.015655,-3.62163 3.84277,-1.9326 4.94939,-2.67241 6.31533,-4.22198 0.91087,-1.03333 1.94955,-1.87879 2.30817,-1.87879 0.80354,0 0.81299,0.27451 0.0613,1.78126 -0.85114,1.70615 -2.20141,10.19925 -2.21265,13.91735 -0.0182,6.01421 1.79995,11.86907 4.99253,16.07725 0.65161,0.8589 1.52816,2.12192 1.94788,2.8067 0.49331,0.80483 1.23771,1.41265 2.1054,1.71907 1.67704,0.59226 2.57699,1.36259 2.57699,2.20583 0,1.10555 -1.88771,0.83025 -3.39864,-0.49565 -1.10297,-0.9679 -1.56132,-1.13862 -2.94193,-1.09573 -3.35251,0.10411 -9.74016,3.10566 -11.94866,5.61465 -2.539515,2.88505 -3.183945,4.1455 -4.362575,8.5329 -0.66531,2.47658 -1.34129,4.32098 -1.58383,4.32153 -0.23274,3.5e-4 -1.13277,-0.99349 -2.00009,-2.20892 z"
       id="path1987" />
  </g>
</svg>
