<?xml version="1.0" encoding="UTF-8" standalone="no"?>
<!-- Created with Inkscape (http://www.inkscape.org/) -->

<svg
   width="190mm"
   height="110mm"
   viewBox="0 0 190 110"
   version="1.1"
   id="svg5"
   inkscape:version="1.1.1 (1:1.1+202109281943+c3084ef5ed)"
   sodipodi:docname="indivCollectif.svg"
   xmlns:inkscape="http://www.inkscape.org/namespaces/inkscape"
   xmlns:sodipodi="http://sodipodi.sourceforge.net/DTD/sodipodi-0.dtd"
   xmlns="http://www.w3.org/2000/svg"
   xmlns:svg="http://www.w3.org/2000/svg">
  <sodipodi:namedview
     id="namedview7"
     pagecolor="#505050"
     bordercolor="#eeeeee"
     borderopacity="1"
     inkscape:pageshadow="0"
     inkscape:pageopacity="0"
     inkscape:pagecheckerboard="0"
     inkscape:document-units="mm"
     showgrid="false"
     inkscape:zoom="0.64052329"
     inkscape:cx="245.11209"
     inkscape:cy="286.48451"
     inkscape:window-width="1854"
     inkscape:window-height="1098"
     inkscape:window-x="66"
     inkscape:window-y="29"
     inkscape:window-maximized="1"
     inkscape:current-layer="layer1" />
  <defs
     id="defs2">
    <clipPath
       clipPathUnits="userSpaceOnUse"
       id="clipPath1203">
      <rect
         style="fill:#0a66c2;stroke-width:2.2"
         id="rect1205"
         width="34.801373"
         height="32.771526"
         x="28.263504"
         y="62.399708" />
    </clipPath>
  </defs>
  <g
     inkscape:label="Calque 1"
     inkscape:groupmode="layer"
     id="layer1">
    <g
       id="g26484"
       transform="translate(40.113885,19.898056)">
      <path
         style="fill:#f3ebd1;fill-opacity:0.890196;stroke-width:0.352778"
         d="m 44.48579,76.050085 c 0,-0.793527 8.914567,-26.650883 10.245802,-29.718692 1.010345,-2.328333 2.828731,-6.693958 4.040854,-9.701389 1.212123,-3.00743 3.39562,-8.325555 4.852215,-11.818055 1.456594,-3.4925 3.398227,-8.731251 4.314733,-11.641667 0.916509,-2.910417 1.783256,-5.4504166 1.926099,-5.6444446 0.142847,-0.194028 0.801162,-1.819689 1.462924,-3.61258 1.115056,-3.02098402 2.085149,-4.21674802 2.085149,-2.570214 0,0.634834 -1.451416,4.63373 -2.628201,7.241128 -0.262707,0.582083 -1.1465,3.2014576 -1.963977,5.8208326 -0.817482,2.619375 -2.678921,7.62 -4.136538,11.1125 -1.457614,3.492501 -3.643831,8.810625 -4.858258,11.818056 -1.214427,3.00743 -3.151269,7.690556 -4.3041,10.406944 -1.152829,2.71639 -3.822481,10.217327 -5.932562,16.668751 -3.149222,9.628537 -3.950052,11.729861 -4.470325,11.729861 -0.348598,0 -0.633815,-0.04096 -0.633815,-0.09103 z"
         id="path19306" />
      <g
         id="g26318"
         transform="translate(169.90909,-59.247727)">
        <path
           style="fill:#000000;stroke-width:0.352778"
           d="m -75.458168,145.48414 c -0.816373,-10.78513 -3.085705,-17.37431 -5.983756,-17.37431 -2.78408,0 -6.481911,6.74736 -7.781808,14.19931 -0.180527,1.03491 -0.391862,1.32291 -0.970767,1.32291 -0.717938,0 -0.732815,-0.10431 -0.499018,-3.49889 0.171672,-2.49254 0.08319,-4.49649 -0.307637,-6.96736 -1.343952,-8.49671 -2.246764,-10.78329 -4.338041,-10.98708 -1.525079,-0.14861 -2.555928,1.00851 -4.498142,5.04917 -1.796373,3.73724 -2.553593,6.54057 -2.866583,10.61256 -0.17697,2.30225 -0.34709,2.96938 -0.7572,2.96938 -0.44664,0 -0.49728,-0.50785 -0.32543,-3.26319 0.246,-3.94406 0.99715,-7.00459 2.54768,-10.38037 1.606077,-3.49672 3.191951,-5.70619 4.294265,-5.98285 0.886304,-0.22245 0.892256,-0.24177 0.191124,-0.62035 -1.541423,-0.83228 -2.338373,-2.35264 -2.491182,-4.75249 -0.26301,-4.13049 1.354296,-5.62967 5.652762,-5.2399 3.745403,0.33962 5.579061,2.66544 4.485548,5.68948 -0.6898,1.90762 -2.168115,3.31491 -3.995663,3.8037 -1.817673,0.48616 -1.949838,0.67333 -0.827091,1.17134 1.914243,0.8491 2.610608,2.83816 3.950621,11.28435 0.610619,3.84877 0.828696,4.6637 0.988007,3.69212 0.228642,-1.39439 3.493509,-7.31634 4.431368,-8.0378 0.33255,-0.25582 0.810479,-0.58377 1.062059,-0.72878 0.35379,-0.20393 0.254846,-0.61806 -0.436721,-1.82793 -1.271108,-2.22376 -1.289259,-5.61945 -0.03673,-6.87197 0.765489,-0.7655 1.172881,-0.86592 3.512922,-0.86592 2.588003,0 2.678804,0.0302 4.072978,1.35649 0.97772,0.93008 1.425967,1.65532 1.425967,2.30711 0,1.41321 -1.220421,3.54481 -2.778435,4.85284 l -1.377795,1.15673 0.872987,1.14454 c 0.988237,1.29565 2.395961,5.19209 2.765062,7.65341 0.244411,1.62986 0.867763,2.62324 0.874405,1.39346 0.0047,-0.87337 1.537773,-4.09749 2.627976,-5.52682 0.492061,-0.64513 1.444858,-1.46926 2.117326,-1.83141 l 1.222668,-0.65845 -1.106692,-0.92391 c -0.966124,-0.80655 -1.12606,-1.19171 -1.259202,-3.03235 -0.148949,-2.0592 -0.122505,-2.1348 1.13187,-3.23616 1.129538,-0.99174 1.531574,-1.1277 3.334794,-1.1277 1.449338,0 2.256833,0.18098 2.754567,0.61736 1.690264,1.48192 1.965392,3.45216 0.733181,5.25046 -0.927124,1.35305 -1.935025,1.87693 -3.727227,1.93731 -1.143798,0.0385 -1.078343,0.0773 0.526097,0.31185 4.11074,0.60085 7.688739,4.47689 8.433816,9.13634 0.336645,2.10528 0.693533,1.2601 1.177858,-2.78943 0.280144,-2.34233 0.717274,-4.0311 1.451846,-5.60893 0.578062,-1.24165 1.008581,-2.27878 0.956709,-2.30474 -1.882867,-0.94231 -2.242834,-1.28733 -2.969394,-2.84605 -1.348296,-2.89257 -1.074064,-4.06951 1.35885,-5.8319 1.169981,-0.84754 1.802232,-1.04727 3.315099,-1.04727 1.722497,0 1.943526,0.0972 2.812796,1.23687 0.831666,1.09037 0.923797,1.47331 0.77786,3.23312 -0.144734,1.74532 -0.326936,2.14416 -1.449436,3.17286 -1.095813,1.00423 -1.177897,1.1766 -0.560324,1.1766 1.697019,0 3.680668,1.92267 5.21614,5.05579 1.34724,2.74904 1.447331,2.17753 0.995218,-5.6827 -0.410323,-7.1337 -0.193961,-8.64814 1.473782,-10.31588 l 0.947084,-0.94708 -1.49855,0.1689 c -1.349474,0.15211 -1.622326,0.0451 -2.742798,-1.07534 -1.067015,-1.06701 -1.24425,-1.4779 -1.24425,-2.88455 0,-4.14692 3.521367,-6.58326 6.971276,-4.82325 1.892829,0.96565 2.553723,1.96773 2.553723,3.87208 0,1.36615 -0.187526,1.74294 -1.541081,3.0965 l -1.541082,1.54108 h 1.278827 c 3.566897,0 6.146499,2.116 7.796907,6.39564 0.961891,2.49427 2.473095,8.39221 2.473095,9.65202 0,0.84206 -1.027207,0.61991 -1.206196,-0.26085 -2.05559,-10.11517 -4.213691,-13.98138 -8.132357,-14.56902 -2.261143,-0.33908 -3.242264,0.18698 -4.141925,2.22082 -0.712297,1.61026 -0.725321,1.90202 -0.358256,8.02384 0.466841,7.78581 0.265049,11.46811 -0.628459,11.46811 -0.398131,0 -0.687448,-0.36696 -0.822766,-1.04356 -0.114794,-0.57396 -0.766953,-2.21993 -1.449243,-3.65772 -1.47688,-3.11223 -3.531147,-5.1765 -5.151423,-5.1765 -0.989422,0 -1.169212,0.20296 -2.265631,2.55764 -1.003007,2.15407 -1.306495,3.44828 -1.923362,8.20208 -0.40284,3.10445 -0.732225,6.47789 -0.731964,7.49653 3.49e-4,1.36529 -0.131244,1.85208 -0.500662,1.85208 -0.561926,0 -0.766389,-0.82695 -1.090285,-4.40972 -0.511482,-5.6577 -1.656708,-8.72921 -4.066437,-10.90626 -2.652473,-2.39635 -4.60538,-2.83819 -6.75078,-1.52735 -3.34626,2.04457 -5.211575,6.89347 -5.224127,13.58014 -0.0048,2.57508 -0.111365,3.26319 -0.505192,3.26319 -0.369507,0 -0.552792,-0.70977 -0.706018,-2.73402 z m 10.768615,-18.3643 c 3.10357,-2.77304 -1.084572,-6.40031 -4.282757,-3.70921 -0.993768,0.8362 -1.102289,1.10233 -0.940724,2.30689 0.256134,1.90962 0.77604,2.39231 2.576749,2.39231 1.1877,0 1.791507,-0.22585 2.646732,-0.98999 z m -14.925871,-0.91677 c 1.31845,-0.68599 2.407288,-1.92249 3.052321,-3.46628 l 0.545878,-1.30647 -1.246354,-1.24635 c -1.122634,-1.12264 -1.437795,-1.24636 -3.174872,-1.24636 -2.440524,0 -3.339631,0.76359 -3.339631,2.83628 0,2.2399 1.448685,4.52702 3.104324,4.90095 0.05814,0.0131 0.534392,-0.19916 1.058334,-0.47177 z m 27.16472,-0.35018 c 2.315068,-1.19717 3.086523,-3.4486 1.855784,-5.41598 -0.909035,-1.45312 -2.447583,-1.54451 -4.341072,-0.25785 -1.979277,1.34496 -2.19541,1.98924 -1.326363,3.95387 1.032986,2.33524 1.881462,2.7181 3.811651,1.71996 z m -40.522312,-7.12375 c 1.105024,-0.44214 1.590351,-0.93784 2.287062,-2.33596 0.807604,-1.62065 0.840761,-1.85909 0.381903,-2.74642 -0.543846,-1.05169 -2.725966,-2.11836 -4.329087,-2.11617 -1.359454,0.002 -3.195221,1.22097 -3.466568,2.3021 -0.336521,1.34081 0.04123,3.50862 0.790607,4.53709 0.782772,1.0743 2.246168,1.19559 4.336083,0.35936 z m 50.176326,-4.74096 c 1.455053,-0.40414 3.468606,-2.46026 3.468606,-3.54193 0,-1.12524 -0.964272,-2.29518 -2.440302,-2.96078 -1.187397,-0.53544 -1.49668,-0.55356 -2.360319,-0.13827 -1.289399,0.62001 -2.607712,2.59599 -2.607712,3.9086 0,0.6717 0.360867,1.39417 1.031197,2.0645 1.163588,1.16359 1.141811,1.15859 2.90853,0.66788 z m -101.98607,12.10063 c -3.30642,-0.62203 -4.91521,-4.56993 -4.2484,-10.4254 0.26526,-2.32931 0.65226,-3.55718 1.96818,-6.24469 0.90091,-1.8399 1.85274,-3.95388 2.11518,-4.69772 0.45102,-1.27834 0.43012,-1.39951 -0.38135,-2.21098 -1.01104,-1.01104 -0.98883,-1.00874 -3.21578,-0.33317 -5.11029,1.55026 -7.6621,-0.67096 -5.17167,-4.50167 2.06451,-3.17557 3.03044,-2.66724 1.15626,0.60849 l -1.10067,1.92378 0.72202,0.72202 c 0.86064,0.86064 1.54586,0.89793 3.54424,0.19286 3.07017,-1.08322 5.37207,-0.45572 5.82066,1.58672 0.28866,1.31424 -0.19934,2.86953 -2.10336,6.70356 -1.79782,3.62018 -2.33764,5.66209 -2.34782,8.8807 -0.0121,3.81719 1.2323,5.87007 4.04758,6.67748 0.94307,0.27047 1.19005,0.16055 2.31718,-1.03131 1.5525,-1.64166 2.6498,-3.81416 3.39432,-6.72032 0.49059,-1.91494 0.5103,-2.73159 0.14566,-6.03363 -0.5651,-5.1173 -0.35804,-8.7418 0.53678,-9.3961 0.85693,-0.62661 3.13379,-0.60422 4.94595,0.0486 1.94721,0.70151 2.20378,0.66253 3.37967,-0.51335 0.90029,-0.9003 0.98617,-1.1538 0.67137,-1.9818 -0.19854,-0.5222 -0.67531,-1.34905 -1.05948,-1.83745 -1.52277,-1.93589 -0.39481,-3.95595 2.88117,-5.15989 0.90167,-0.33137 2.14841,-1.08892 2.77053,-1.68346 0.95011,-0.90797 1.0962,-1.25567 0.91282,-2.17258 -0.27848,-1.39235 -1.40056,-2.58636 -2.89363,-3.07912 -1.47552,-0.48697 -2.95886,-2.21963 -2.95643,-3.45334 0.002,-0.95848 0.49752,-1.87541 2.15934,-3.99482 2.34874,-2.99548 2.12095,-6.54314 -0.47929,-7.46451 -0.33613,-0.1191 -1.2689,0.0155 -2.07282,0.29916 -1.90959,0.67374 -4.69567,0.67039 -5.37253,-0.006 -0.2872,-0.2872 -0.63481,-1.20001 -0.77247,-2.02847 -0.36437,-2.19279 -1.83894,-4.85769 -2.68791,-4.85769 -0.35832,0 -2.41784,2.11547 -2.41784,2.48353 0,0.54276 -1.84448,0.69214 -4.0991,0.33196 -3.04434,-0.48633 -4.44163,-0.0584 -5.22928,1.60142 -0.54229,1.1428 -0.53446,1.28494 0.14413,2.61507 0.83656,1.6398 0.93323,3.82989 0.21216,4.80685 -0.7634,1.03433 -1.43621,0.22615 -0.86161,-1.03496 0.36732,-0.80618 0.31241,-1.23038 -0.37342,-2.88508 -0.94327,-2.27579 -0.7965,-3.86551 0.49483,-5.35976 0.83041,-0.9609 0.88173,-0.97062 4.69198,-0.88861 l 3.85237,0.0829 1.12976,-1.40583 c 0.89993,-1.11984 1.35962,-1.40355 2.25966,-1.39461 0.62145,0.006 1.38452,0.20515 1.69571,0.44217 0.822,0.62607 1.95729,3.0214 2.24172,4.72977 0.39899,2.39643 1.21657,2.63854 5.0117,1.48407 2.18427,-0.66445 4.23268,0.0175 4.90812,1.63407 1.07053,2.56214 0.33719,5.9698 -1.79186,8.32641 -1.37944,1.52687 -1.61888,3.04125 -0.61673,3.90077 0.33955,0.29122 1.36188,0.88099 2.27185,1.3106 1.25896,0.59437 1.82823,1.14001 2.38125,2.28239 0.39971,0.82571 0.72676,1.84804 0.72676,2.27185 0,1.12057 -2.45502,3.39845 -4.45071,4.12956 -0.9476,0.34715 -2.07978,0.967 -2.51596,1.37744 l -0.79306,0.74627 0.91995,1.35383 c 1.36636,2.01077 1.48613,3.69986 0.35747,5.0412 -1.3648,1.62196 -2.81317,2.12073 -4.21593,1.4518 -1.54374,-0.73616 -3.26113,-1.07802 -4.09155,-0.81445 -1.04501,0.33168 -1.24637,2.68808 -0.7143,8.35937 0.44712,4.76589 0.43673,5.01178 -0.32047,7.58549 -0.85662,2.91164 -2.59548,5.91832 -4.11317,7.11214 -0.94614,0.74423 -1.55996,0.83796 -3.31973,0.5069 z m -27.69272,-9.68816 c 0.017,-5.75858 0.15408,-8.92962 0.38944,-9.00807 0.50919,-0.16973 0.81963,3.33626 0.81601,9.21553 -0.004,5.76798 -0.28527,8.67949 -0.83982,8.67951 -0.27759,10e-6 -0.3842,-2.59122 -0.36563,-8.88697 z m -13.60815,5.08238 c 0,-2.65812 1.38196,-12.2106 2.07797,-14.36348 0.18819,-0.58208 0.69963,-2.24896 1.13655,-3.70416 0.88882,-2.9603 1.93302,-4.73994 3.31189,-5.64447 l 0.92706,-0.60814 -1.38062,-0.22077 c -2.05922,-0.32928 -3.15538,-1.38067 -3.81883,-3.66285 -1.29774,-4.46406 0.66692,-9.06874 4.77591,-11.19358 0.56275,-0.29101 1.90999,-0.63334 2.99385,-0.76072 1.68443,-0.19797 1.97066,-0.1477 1.97066,0.34612 0,0.38524 -0.32324,0.59126 -0.97014,0.61831 -0.83662,0.035 -0.79596,0.0746 0.29544,0.28792 0.69606,0.13605 1.74126,0.58608 2.32267,1.00007 1.19873,0.85358 3.29092,4.52266 3.29092,5.77131 0,2.05457 -3.30761,6.76546 -5.05875,7.20496 l -0.79777,0.20023 0.99117,2.00789 c 1.24387,2.51983 2.5186,6.90587 2.05224,7.06133 -0.67207,0.22402 -0.89554,-0.14779 -1.82394,-3.03477 -1.18404,-3.68192 -1.81379,-4.66451 -2.98957,-4.66451 -2.23083,0 -3.79788,1.8745 -5.01357,5.99722 -0.42911,1.45521 -0.94335,3.15477 -1.14277,3.77681 -0.67229,2.09709 -1.75809,9.07354 -1.97901,12.71555 -0.16324,2.69119 -0.34108,3.61597 -0.69535,3.61597 -0.35873,0 -0.47601,-0.67661 -0.47601,-2.74624 z m 11.46527,-26.20895 c 1.44616,-0.68425 2.68854,-2.20247 3.75915,-4.59375 0.60168,-1.34389 0.59864,-1.36729 -0.44919,-3.4642 -1.05792,-2.11707 -2.69046,-3.5563 -4.03396,-3.5563 -0.3524,0 -1.33414,0.33567 -2.18164,0.74594 -1.7238,0.83448 -2.24548,0.66401 -1.52224,-0.4974 0.45808,-0.73561 0.44841,-0.74906 -0.17864,-0.24854 -2.41735,1.92959 -2.7694,2.4454 -3.68892,5.40482 -0.78031,2.51138 0.56647,5.91621 2.5917,6.55214 2.55847,0.80336 3.3867,0.7536 5.70374,-0.34271 z m 106.362499,23.83111 c 0,-0.29588 0.546496,-1.62317 1.214438,-2.94952 2.423925,-4.81328 2.771238,-6.3451 2.808651,-12.38751 0.02148,-3.47095 -0.127699,-5.99905 -0.408475,-6.92191 l -0.442334,-1.45386 -2.440382,-0.24046 c -1.34221,-0.13226 -3.78533,-0.59962 -5.429151,-1.03858 l -2.988769,-0.79811 -0.628261,1.08132 c -0.863752,1.48664 -5.556571,6.30509 -7.913494,8.12535 -4.253081,3.28466 -8.113888,4.73292 -8.113888,3.04366 0,-0.41655 0.569983,-1.00864 1.499305,-1.55747 0.824618,-0.48699 1.998889,-1.41489 2.60949,-2.06199 1.798017,-1.90551 4.750809,-5.96632 5.857667,-8.05572 l 1.027857,-1.94028 -2.763132,-0.22338 c -5.213448,-0.42148 -8.40166,-1.73211 -10.488192,-4.31158 l -1.094384,-1.35292 v -4.64079 c 0,-4.41403 0.05047,-4.74419 1.032997,-6.75744 1.818217,-3.72563 6.610314,-7.85841 11.137836,-9.60545 2.783572,-1.0741 3.954434,-1.39133 8.113888,-2.19835 16.476489,-3.19679 33.492806,-2.10019 43.507245,2.80377 4.527236,2.21694 7.641756,4.57858 9.298965,7.0511 1.141723,1.70343 1.312873,2.24592 1.448678,4.59188 0.184192,3.18182 -0.52626,5.04078 -2.806714,7.34403 -1.441051,1.45546 -1.971703,1.75477 -7.022401,3.96098 l -2.670062,1.16631 0.987975,1.79148 c 0.835688,1.51533 0.98896,2.20478 0.994364,4.47286 0.0035,1.47475 -0.173771,3.221 -0.393971,3.88055 -0.57947,1.73562 -3.845719,5.96167 -4.607684,5.96167 -0.350019,0 -0.636396,-0.0991 -0.636396,-0.22015 0,-0.12108 0.649978,-1.51014 1.444395,-3.0868 1.325199,-2.63009 1.427861,-3.03101 1.243993,-4.85819 -0.237751,-2.36266 -0.743126,-3.65955 -1.938997,-4.97583 -1.025034,-1.12824 -1.436401,-1.18132 -2.971771,-0.38342 -0.620956,0.32269 -2.954634,1.05553 -5.185953,1.62851 -3.43256,0.88146 -4.952803,1.06869 -9.877778,1.21656 l -5.820833,0.17475 -0.02314,4.9877 c -0.02699,5.81568 -0.526362,8.15575 -2.641173,12.37689 -2.642161,5.27369 -4.920407,8.21866 -4.920407,6.36034 z m 6.440989,-16.30542 c 0.316261,-3.10799 0.307258,-4.43381 -0.04158,-6.12269 -0.244885,-1.18562 -0.374407,-2.22652 -0.287828,-2.3131 0.08658,-0.0866 2.834707,-0.19986 6.106946,-0.25174 5.102712,-0.0809 6.501176,-0.23184 9.825323,-1.06044 2.131691,-0.53136 4.572808,-1.27443 5.424706,-1.65126 2.239729,-0.99074 3.583298,-0.89186 4.861461,0.35778 1.238832,1.21119 2.23151,3.97761 2.266996,6.31771 0.03655,2.41038 0.624377,0.78289 0.655962,-1.81612 0.02558,-2.10548 -1.028189,-4.86814 -2.240739,-5.87446 -0.797034,-0.66148 -0.71404,-1.78673 0.13178,-1.78673 0.378658,0 2.005845,-0.56381 3.615972,-1.25292 1.610127,-0.68911 3.284407,-1.39995 3.720617,-1.57965 1.402076,-0.57759 3.883896,-3.14808 4.685023,-4.8524 1.678135,-3.57008 0.122202,-7.6736 -4.124403,-10.87744 -10.040009,-7.57465 -28.053953,-9.8794 -47.744007,-6.10849 -7.942685,1.52113 -11.884596,3.34618 -15.898649,7.36084 -2.944135,2.94458 -3.96337,5.34813 -4.124082,9.72534 -0.108631,2.95863 -0.02155,3.72697 0.539729,4.7625 1.004005,1.85231 3.975393,3.69742 7.038199,4.37042 3.21765,0.70702 4.705395,0.71627 6.325605,0.0393 0.696563,-0.29104 1.405837,-0.52917 1.576168,-0.52917 0.515631,0 0.346615,1.06631 -0.202406,1.27699 -0.281658,0.10808 -0.696147,0.77779 -0.921092,1.48824 -0.721879,2.27994 -3.824891,6.99667 -6.629738,10.07753 -1.129701,1.24087 -0.517039,0.93019 2.065711,-1.04748 2.305861,-1.76565 6.538147,-6.13631 7.767898,-8.02186 0.999561,-1.53261 1.122811,-1.53896 5.637657,-0.29067 1.455208,0.40234 3.784769,0.83601 5.176802,0.96369 l 2.530972,0.23216 0.594946,2.42774 c 0.460198,1.87787 0.565019,3.5852 0.462805,7.5381 -0.118124,4.56823 -0.08272,4.97006 0.333714,3.78782 0.256219,-0.72739 0.647506,-3.10769 0.869527,-5.28954 z m -82.483878,-5.71989 c -0.86282,-0.34944 -2.87341,-2.57106 -3.42759,-3.78735 -0.30808,-0.67616 -0.28864,-0.92863 0.0895,-1.16234 0.34725,-0.21462 0.75114,0.12413 1.43646,1.20477 1.11082,1.75158 2.98602,3.02814 4.43198,3.01712 2.57516,-0.0196 5.5869,-2.4772 7.38549,-6.02655 1.59751,-3.15254 1.12859,-8.68457 -1.11567,-13.16213 -1.19691,-2.38796 -1.72063,-2.91607 -3.15951,-3.18601 -0.77417,-0.14523 -1.21167,-0.42889 -1.21167,-0.78558 0,-0.82452 2.78071,-0.31083 3.75261,0.69323 2.25224,2.32681 3.77887,7.20869 3.77379,12.06785 -0.003,2.75673 -0.12997,3.42317 -0.96471,5.0589 -1.19639,2.34442 -3.46611,4.84147 -5.20886,5.73055 -1.38545,0.70681 -4.43104,0.88461 -5.78183,0.33754 z m -10.38748,-2.52749 c -2.75737,-1.09951 -3.3131,-3.58663 -1.24852,-5.58769 1.17276,-1.13669 2.30667,-3.0375 2.30667,-3.86676 0,-0.21755 -0.63447,-1.08385 -1.40992,-1.92513 -1.8191,-1.97348 -2.11812,-3.32061 -1.00391,-4.52277 0.90109,-0.97222 3.94232,-2.23289 4.52214,-1.87454 0.70967,0.43859 0.33119,0.80787 -1.75553,1.71285 -2.62222,1.13723 -2.76045,1.90051 -0.70524,3.89424 2.14774,2.0835 1.95814,4.02004 -0.69353,7.08381 -0.80245,0.92717 -1.41132,1.94467 -1.35304,2.26112 0.0583,0.31645 0.92758,0.99201 1.93176,1.50124 1.35288,0.68607 1.72295,1.02872 1.42875,1.32292 -0.47094,0.47095 -0.84004,0.47108 -2.01963,7.1e-4 z m 5.84295,-6.93964 c -0.28295,-3.99106 0.0442,-7.92886 0.64218,-7.72965 0.54992,0.18319 0.54926,10.89757 -7.1e-4,11.08118 -0.26268,0.0877 -0.47707,-1.03239 -0.64149,-3.35153 z m -41.5954,-0.7175 c -0.32111,-0.35483 -0.58384,-1.15251 -0.58384,-1.77262 0,-0.88568 0.19407,-1.20127 0.90491,-1.47153 1.36599,-0.51935 1.70045,-0.4257 2.18189,0.61098 0.58854,1.26726 0.55576,2.05479 -0.11339,2.72394 -0.73657,0.73657 -1.67303,0.70099 -2.38957,-0.0908 z m 1.53283,-1.2574 c 0,-0.27028 -0.23813,-0.5828 -0.52917,-0.69448 -0.53042,-0.20354 -0.7472,0.4975 -0.29398,0.95072 0.39554,0.39554 0.82315,0.26243 0.82315,-0.25624 z m -9.87778,-6.21135 c -1.70075,-1.70075 -0.26037,-3.98576 2.77568,-4.40332 2.77198,-0.38125 3.5932,0.65161 2.19923,2.76597 -0.82992,1.25881 -2.43173,2.33752 -3.47561,2.34058 -0.43656,0.001 -1.11125,-0.31518 -1.4993,-0.70323 z m 3.30328,-1.63561 c 1.38976,-1.38976 1.22407,-1.8512 -0.54835,-1.52709 -1.68356,0.30786 -2.621,1.23921 -2.0002,1.98723 0.6033,0.72693 1.52853,0.55988 2.54855,-0.46014 z m 47.51907,0.42783 c -1.1153,-1.34387 2.38938,-5.26623 5.64489,-6.31764 2.34384,-0.75697 4.56331,-0.78582 4.56331,-0.0593 0,0.3481 -0.34828,0.52917 -1.01782,0.52917 -0.55981,0 -1.86822,0.27465 -2.9076,0.61033 -2.18043,0.7042 -5.2468,3.39003 -5.2468,4.59566 0,0.96094 -0.50927,1.27643 -1.03598,0.64179 z m -28.4721,-4.09782 c -1.89622,-0.37529 -4.66308,-1.792 -5.72635,-2.93205 l -0.83861,-0.89915 -1.00434,1.00435 c -1.20217,1.20217 -3.75341,2.13522 -5.83832,2.13522 -2.1256,0 -5.14042,-1.52023 -6.83689,-3.44753 -0.7701,-0.87488 -1.40019,-1.70383 -1.40019,-1.84212 0,-0.13829 -0.82834,-0.0366 -1.84077,0.22605 -2.62831,0.68178 -3.71222,0.59813 -5.45064,-0.42065 -2.12336,-1.24437 -3.29375,-3.58986 -3.28672,-6.58666 0.007,-3.01921 0.47015,-3.78022 3.08328,-5.0672 l 2.20654,-1.08672 -1.04308,-0.92939 c -1.35211,-1.20473 -1.91968,-3.33578 -1.65444,-6.21199 0.38466,-4.17128 2.26294,-5.73929 7.14709,-5.96645 3.05869,-0.14225 6.01599,0.31696 7.71386,1.19783 0.93843,0.48686 1.08285,0.48645 1.44158,-0.004 0.56839,-0.77732 2.73591,-1.61103 4.18844,-1.61103 1.73976,0 3.92625,0.95452 4.62326,2.0183 l 0.5898,0.90013 0.65866,-1.04029 c 1.69411,-2.67566 7.31377,-3.63801 11.17085,-1.91296 3.1805,1.42245 4.66527,3.7935 4.66977,7.45723 0.002,2.08024 -0.87574,5.41512 -1.91665,7.27751 l -0.82442,1.47506 1.0307,0.42693 c 1.40731,0.58293 2.32667,1.84931 2.98396,4.11032 0.45973,1.58142 0.4821,2.20127 0.1321,3.66025 -0.35165,1.46583 -0.50522,1.68682 -0.92823,1.33576 -0.35577,-0.29526 -0.43209,-0.74568 -0.25604,-1.51098 0.78404,-3.40824 -1.37456,-6.91115 -4.25888,-6.91115 -1.19164,0 -1.15344,-0.75008 0.10215,-2.00567 0.55089,-0.55088 1.33739,-1.89905 1.74778,-2.99593 2.09582,-5.60159 1.02289,-9.39349 -3.18222,-11.24641 -2.40897,-1.06147 -5.18739,-1.07866 -7.20674,-0.0446 -1.52533,0.7811 -2.94377,2.28012 -2.94377,3.11101 0,0.93182 -1.32959,0.46771 -2.15938,-0.75376 -1.82817,-2.69109 -5.92422,-2.87436 -7.42414,-0.33217 -0.81319,1.37824 -1.44484,1.52958 -2.15462,0.51622 -1.16633,-1.66517 -6.76837,-2.66387 -9.94834,-1.77353 -5.05848,1.41628 -5.39261,9.28087 -0.48075,11.31543 1.54721,0.64087 1.16174,1.50657 -0.79549,1.78654 -2.17636,0.31131 -4.32336,1.45981 -4.8372,2.58756 -1.18429,2.59924 0.21999,6.55059 2.81784,7.92874 1.50145,0.79652 1.56659,0.80066 3.7585,0.23912 3.06743,-0.78584 3.42887,-0.741 3.93815,0.48851 0.81142,1.95895 4.74044,4.58449 6.86049,4.58449 2.50883,0 5.83883,-2.14 5.83883,-3.75227 0,-1.23977 0.74762,-0.97646 1.95069,0.68702 2.11731,2.92761 7.14522,4.64393 11.06001,3.77543 2.82691,-0.62715 3.77731,-1.21181 5.20882,-3.20438 1.01421,-1.4117 1.36037,-1.67854 1.75385,-1.35198 0.40814,0.33873 0.29803,0.67395 -0.65753,2.00182 -0.63128,0.87723 -1.54991,1.89448 -2.04139,2.26057 -1.91868,1.42914 -6.25731,2.0232 -9.74086,1.33375 z"
           id="path26216" />
        <path
           style="fill:#7ab892;fill-opacity:1;stroke-width:0.352778"
           d="m -178.02131,108.51343 c 0,-0.36463 0.451,-0.62895 1.32291,-0.77532 0.72761,-0.12215 1.87854,-0.39073 2.55764,-0.59686 2.37426,-0.72065 13.61401,-6.73474 17.28611,-9.249318 4.14692,-2.839725 12.78309,-9.533585 14.06328,-10.900375 l 0.83411,-0.89054 -3.47994,-3.58799 c -6.88062,-7.09423 -15.74688,-13.12431 -24.73481,-16.82251 l -1.85208,-0.76206 v 1.03878 c 0,0.63736 -0.18422,1.03879 -0.4767,1.03879 -0.26218,0 -2.11808,-0.89207 -4.12422,-1.98236 -5.14269,-2.79495 -5.51492,-3.26769 -3.13446,-3.9809 0.99155,-0.29707 2.57684,-0.35412 5.11528,-0.18408 3.88578,0.26029 3.99622,0.32668 3.3539,2.01609 -0.30779,0.80955 -0.185,0.91351 2.38125,2.01587 5.90104,2.53488 11.95316,6.09657 16.99328,10.0006 3.17728,2.46109 11.64455,10.83532 11.6285,11.50073 -0.007,0.30029 -0.55931,0.94287 -1.22682,1.42794 -0.66751,0.48506 -3.40002,2.61711 -6.07225,4.73788 -7.15629,5.679445 -11.54324,8.557523 -18.44054,12.098013 -6.52362,3.34867 -7.63512,3.79843 -10.31875,4.17544 -1.3868,0.19483 -1.67569,0.14003 -1.67569,-0.31782 z M -71.708547,88.552737 c -0.60942,-0.3716 -1.21968,-0.85628 -1.35613,-1.07706 -0.47055,-0.76137 0.18318,-2.10797 1.43693,-2.95992 0.69152,-0.4699 1.09836,-0.95259 0.9041,-1.07265 -0.19426,-0.12006 -1.9129,-0.0385 -3.8192,0.18135 -1.9063,0.21981 -5.48382,0.42027 -7.95005,0.44547 -3.72511,0.0381 -4.5821,-0.052 -5.06334,-0.5322 -0.91052,-0.90854 -0.33035,-1.90506 1.59009,-2.73122 3.98019,-1.71223 4.72691,-1.80617 26.9057,-3.3848 7.00061,-0.49829 9.31712,-0.76181 14.3891,-1.63683 2.71693,-0.46873 6.70278,-2.24365 6.70278,-2.98477 0,-1.90964 -8.55352,-1.52244 -27.34028,1.23761 -4.73941,0.69629 -11.14807,0.96437 -12.31836,0.51528 -0.74083,-0.28428 -0.7096,-1.3138 0.0593,-1.95603 0.99651,-0.8323 2.24484,-1.25435 6.12813,-2.07183 3.71622,-0.78232 5.60173,-1.49491 5.60173,-2.11706 0,-0.57601 -6.22065,-0.37346 -11.1125,0.36184 -5.54299,0.83316 -5.11528,0.81785 -5.11528,0.18311 0,-0.60616 0.30661,-0.68621 5.39054,-1.40747 3.80119,-0.53927 10.63713,-0.72955 11.69033,-0.3254 0.30691,0.11777 0.55802,0.5825 0.55802,1.03273 0,1.57563 -2.15546,2.60328 -7.65318,3.64877 -1.20181,0.22855 -2.78931,0.68896 -3.52778,1.02315 l -1.34265,0.60761 2.88002,0.10197 c 1.85074,0.0655 5.50701,-0.27789 10.23056,-0.9609 11.59849,-1.6771 17.11718,-2.20712 21.66073,-2.08032 3.78069,0.10552 4.27017,0.19432 4.97814,0.90316 1.26524,1.2668 0.59038,2.49616 -2.11011,3.84391 -1.21475,0.60625 -2.79867,1.20671 -3.51982,1.33436 -6.55553,1.16037 -10.09143,1.50071 -27.94591,2.68983 -8.54416,0.56904 -13.36319,1.49406 -15.34924,2.9463 -1.12071,0.81948 2.29081,0.96779 8.82285,0.38355 6.23553,-0.55772 8.55612,-0.45028 8.88679,0.41143 0.2142,0.55819 -0.81973,1.89198 -1.46662,1.89198 -0.51618,0 -1.95212,1.32082 -1.95212,1.79563 0,0.59888 2.34702,1.37937 4.14789,1.37937 0.9356,0 2.64727,-0.24785 3.80369,-0.55079 1.15643,-0.30293 4.56322,-0.77709 7.57065,-1.05369 7.06738,-0.65 10.93611,-1.21994 10.93611,-1.6111 0,-0.17171 -0.15875,-0.31219 -0.35278,-0.31219 -0.19403,0 -0.35278,-0.26252 -0.35278,-0.58339 0,-0.5226 0.43185,-0.55942 4.14514,-0.35341 4.78179,0.26528 6.21704,0.57881 6.37379,1.39235 0.23399,1.21443 -1.14771,2.01999 -4.77501,2.78391 -4.0908,0.86154 -5.39114,0.71511 -5.39114,-0.60707 0,-0.72766 -0.13886,-0.85347 -0.79375,-0.71916 -1.85941,0.38133 -3.65504,0.59792 -9.09697,1.09726 -3.16914,0.2908 -6.55525,0.76427 -7.52471,1.05217 -2.61,0.77509 -7.17371,0.69258 -8.56344,-0.15484 z"
           id="path23659" />
      </g>
    </g>
  </g>
</svg>
