<?xml version="1.0" encoding="UTF-8" standalone="no"?>
<!-- Created with Inkscape (http://www.inkscape.org/) -->

<svg
   width="114mm"
   height="78mm"
   viewBox="0 0 114 78"
   version="1.1"
   id="svg5"
   inkscape:version="1.1.1 (1:1.1+202109281943+c3084ef5ed)"
   sodipodi:docname="experiencielTheorie.svg"
   xmlns:inkscape="http://www.inkscape.org/namespaces/inkscape"
   xmlns:sodipodi="http://sodipodi.sourceforge.net/DTD/sodipodi-0.dtd"
   xmlns="http://www.w3.org/2000/svg"
   xmlns:svg="http://www.w3.org/2000/svg">
  <sodipodi:namedview
     id="namedview7"
     pagecolor="#505050"
     bordercolor="#eeeeee"
     borderopacity="1"
     inkscape:pageshadow="0"
     inkscape:pageopacity="0"
     inkscape:pagecheckerboard="0"
     inkscape:document-units="mm"
     showgrid="false"
     inkscape:zoom="0.64052329"
     inkscape:cx="128.02033"
     inkscape:cy="458.21909"
     inkscape:window-width="1854"
     inkscape:window-height="1098"
     inkscape:window-x="66"
     inkscape:window-y="29"
     inkscape:window-maximized="1"
     inkscape:current-layer="layer1" />
  <defs
     id="defs2">
    <clipPath
       clipPathUnits="userSpaceOnUse"
       id="clipPath1203">
      <rect
         style="fill:#0a66c2;stroke-width:2.2"
         id="rect1205"
         width="34.801373"
         height="32.771526"
         x="28.263504"
         y="62.399708" />
    </clipPath>
  </defs>
  <g
     inkscape:label="Calque 1"
     inkscape:groupmode="layer"
     id="layer1">
    <g
       id="g19150"
       transform="translate(-44.252387,-65.735964)">
      <path
         style="fill:#f2ebd1;fill-opacity:1;stroke-width:0.352778"
         d="m 88.44769,142.4415 c 0,-0.22931 1.285293,-3.68212 2.856205,-7.67292 1.570913,-3.9908 3.339328,-8.526 3.929811,-10.07822 2.406255,-6.3254 5.704994,-13.6953 11.125634,-24.856297 2.88068,-5.931287 5.86605,-13.023288 6.80001,-16.15403 0.31599,-1.059254 0.63795,-1.499291 1.09698,-1.499291 0.35734,0 0.64971,0.10276 0.64971,0.22836 0,0.301217 -1.37252,4.245926 -1.94584,5.592437 -0.24784,0.582087 -0.93373,2.276768 -1.52421,3.765979 -0.59048,1.489201 -2.4092,5.45793 -4.04161,8.819392 -6.64383,13.68104 -9.56551,20.4141 -13.138144,30.27706 -0.527117,1.45521 -1.161927,3.12209 -1.410691,3.70417 -0.248762,0.58208 -0.719674,1.77271 -1.046466,2.64583 -0.326792,0.87313 -0.81346,2.06375 -1.081483,2.64584 -0.268019,0.58208 -0.646342,1.49489 -0.840712,2.02847 -0.346999,0.95257 -1.429194,1.37147 -1.429194,0.55322 z"
         id="path15070" />
      <path
         style="fill:#000000;stroke-width:0.352778"
         d="m 130.52021,137.76241 c -3.63177,-0.41002 -10.12526,-1.70515 -11.73308,-2.34017 -0.89532,-0.35361 -1.39821,-0.81097 -1.54802,-1.40784 -0.3663,-1.45946 0.12801,-29.92942 0.59889,-34.493174 0.42161,-4.08621 0.41034,-4.28788 -0.31955,-5.71859 -0.89442,-1.7532 -0.94196,-2.21667 -0.22741,-2.21667 0.29105,0 0.52917,-0.29728 0.52917,-0.66063 0,-1.09019 2.89626,-3.46213 4.99358,-4.08957 2.37134,-0.70943 12.8046,-1.22857 24.90434,-1.2392 7.82351,-0.007 8.90764,0.0589 8.90764,0.54038 0,0.48198 -1.09715,0.54616 -9.08403,0.53138 -17.51751,-0.0324 -25.96754,0.81795 -26.69545,2.6865 -0.10332,0.26524 0.5619,0.16466 1.84577,-0.27906 1.10403,-0.38156 3.59482,-0.84059 5.5351,-1.02006 10.36379,-0.95862 28.04583,-0.54422 28.04583,0.65728 0,0.43573 -0.663,0.46534 -4.49792,0.20083 -9.17913,-0.63311 -24.9507,-0.0178 -27.8161,1.08528 l -1.37626,0.52979 1.41111,-0.1653 c 0.77611,-0.0909 6.25299,-0.25176 12.17084,-0.35743 5.91784,-0.10567 12.78378,-0.2512 15.25764,-0.32341 3.58673,-0.10469 4.49791,-0.0357 4.49791,0.34081 0,0.7318 -1.34221,0.81789 -15.875,1.01834 -16.38801,0.22603 -21.61288,0.77921 -8.02569,0.84971 5.7894,0.03 9.08402,0.17508 9.08402,0.39992 0,0.50951 0.97223,0.43472 1.14653,-0.0882 0.109,-0.32701 1.93992,-0.47343 7.08495,-0.56658 5.96859,-0.10806 6.93797,-0.0521 6.93797,0.40023 0,0.44979 -1.6455,0.56279 -11.37708,0.78125 -6.2574,0.14048 -14.36782,0.1985 -18.02316,0.12894 -6.63028,-0.12618 -6.64285,-0.12496 -5.29166,0.51095 1.26384,0.59481 2.49251,0.62629 18.37593,0.4708 l 17.02153,-0.16664 -0.002,1.29309 c -0.001,0.71121 -0.3218,4.4681 -0.71238,8.348674 -0.39058,3.88056 -0.8645,11.81806 -1.05315,17.6389 -0.47269,14.58438 -0.60973,16.02175 -1.54682,16.22382 -3.80862,0.82128 -17.63644,1.11742 -23.14376,0.49565 z m 18.01628,-1.07226 4.82397,-0.40417 0.38976,-6.56319 c 0.21437,-3.60975 0.47136,-9.65881 0.5711,-13.44235 0.0997,-3.78355 0.50029,-9.96791 0.89011,-13.74303 0.38983,-3.775134 0.70878,-7.038114 0.70878,-7.251084 0,-0.27605 -4.93678,-0.38172 -17.19792,-0.36809 -15.70925,0.0175 -17.30185,-0.0343 -18.39864,-0.59824 -0.6604,-0.33955 -1.21603,-0.61736 -1.23472,-0.61736 -0.0187,0 -0.0385,1.30968 -0.0441,2.91041 -0.006,1.60073 -0.20316,5.926684 -0.43916,9.613224 -0.236,3.68653 -0.42991,11.26066 -0.43091,16.83139 -0.002,9.694 0.0286,10.15698 0.70761,10.78956 1.01442,0.94507 6.495,2.13143 13.93086,3.01556 2.49536,0.29669 11.2717,0.20034 15.72322,-0.17263 z M 47.891804,137.1293 c -2.805713,-1.31077 -3.372378,-2.63882 -2.043448,-4.78908 0.856543,-1.38591 5.504096,-5.60874 8.04225,-7.30728 3.190205,-2.1349 7.528019,-6.04626 8.230576,-7.42141 1.367074,-2.67584 1.649264,-10.82091 0.644998,-18.617234 -0.579357,-4.49765 -0.672451,-4.82626 -1.752201,-6.18495 -1.938748,-2.4396 -0.976064,-3.24276 1.014239,-0.84618 1.079271,1.29959 1.22996,1.78029 1.739773,5.54989 0.711782,5.263044 0.767154,16.387304 0.09517,19.120154 -0.408686,1.66206 -0.808475,2.25816 -2.788053,4.15709 -1.271026,1.21924 -3.191779,2.88611 -4.26834,3.70416 -1.07656,0.81805 -2.010299,1.60643 -2.074975,1.75195 -0.06468,0.14552 -0.342489,0.26458 -0.617361,0.26458 -0.274873,0 -0.499769,0.15875 -0.499769,0.35278 0,0.19403 -0.198437,0.35323 -0.440972,0.35378 -0.648116,10e-4 -6.614584,5.8271 -6.614584,6.45845 0,1.11991 0.476906,1.67633 2.022953,2.36022 1.845551,0.81637 5.490702,0.93089 11.206215,0.35207 1.940277,-0.1965 5.39279,-0.45117 7.672253,-0.56593 2.279463,-0.11477 4.061087,-0.3436 3.959162,-0.50851 -0.19957,-0.32291 -11.455027,-61.556454 -11.455027,-62.319264 0,-0.87945 1.003782,-0.45118 1.198888,0.51152 0.108138,0.53358 1.392682,7.55826 2.854543,15.61042 4.759971,26.218654 5.882874,31.971204 5.646735,28.927794 -0.578178,-7.45169 -0.895717,-20.691964 -0.532557,-22.205794 0.492312,-2.05219 1.578419,-3.89978 2.292484,-3.89978 0.780087,0 0.658745,0.74891 -0.435786,2.68959 l -0.970139,1.72013 0.08961,6.702794 c 0.100908,7.54779 0.646521,15.28841 1.201931,17.05179 0.640983,2.03508 2.186249,3.39573 5.493689,4.83733 1.7009,0.74137 3.568799,1.69302 4.150882,2.11478 0.582084,0.42177 1.862057,1.17386 2.844381,1.67132 2.41887,1.22494 2.681993,1.62054 2.554908,3.84129 -0.100778,1.76111 -0.18615,1.91819 -1.342344,2.46988 -1.368129,0.65282 -5.457758,1.11771 -14.993056,1.70434 -3.492501,0.21486 -7.710128,0.54079 -9.372504,0.72428 -4.960794,0.54755 -11.214865,0.38232 -12.754518,-0.33697 z m 31.508741,-2.18926 c 4.66518,-0.50752 5.964115,-1.03427 5.964115,-2.41861 0,-0.75985 -0.314195,-1.27529 -1.179827,-1.93554 -0.648906,-0.49494 -1.278548,-0.8999 -1.399208,-0.8999 -0.120661,0 -1.155834,-0.60526 -2.300387,-1.34502 -1.144552,-0.73976 -2.85647,-1.63768 -3.804264,-1.99538 -3.797141,-1.43307 -6.48576,-3.79459 -6.48576,-5.69671 0,-0.33302 -0.09467,-0.51081 -0.210382,-0.3951 -0.115708,0.11571 0.392564,3.55529 1.129492,7.64352 l 1.339875,7.43314 h 1.678894 c 0.923392,0 3.293745,-0.17568 5.267452,-0.3904 z M 52.956344,79.077416 c -0.653115,-0.23645 -1.724678,-0.90967 -2.38125,-1.49603 -1.051519,-0.93907 -1.193769,-1.27376 -1.193769,-2.80876 0,-2.66814 1.281224,-4.38434 4.394285,-5.88616 3.382266,-1.63169 5.728501,-2.12844 8.972433,-1.89967 3.697616,0.26077 6.327804,1.31717 8.119809,3.26126 1.161987,1.26061 1.444029,1.82841 1.444029,2.90709 0,0.73727 -0.239829,1.6829 -0.532948,2.10139 -0.337348,0.48163 -0.402086,0.84177 -0.176389,0.98126 0.557057,0.34428 0.418077,1.58984 -0.177394,1.58984 -0.293674,0 -0.888986,0.18353 -1.322917,0.40785 -1.770049,0.91503 -2.071677,1.00326 -3.430009,1.00326 -1.013482,0 -1.415899,-0.14807 -1.415899,-0.52096 0,-0.67482 3.392347,-3.3596 4.245007,-3.3596 0.745152,0 1.752216,-1.26106 1.752216,-2.19414 0,-1.14208 -2.410898,-3.3777 -4.475565,-4.15019 -4.072601,-1.52376 -7.595421,-1.29848 -12.000398,0.76741 -4.357671,2.04371 -5.61301,5.28184 -2.850814,7.35365 0.997558,0.74822 1.514454,0.86407 3.716359,0.83293 2.891921,-0.0409 3.459081,0.53636 1.193793,1.21506 -1.62102,0.48567 -2.298641,0.46725 -3.880579,-0.10549 z"
         id="path18967" />
      <path
         style="fill:#7ab892;fill-opacity:1;stroke-width:0.352778"
         d="m 75.872767,133.5289 c 0,-0.29104 0.238125,-0.52917 0.529167,-0.52917 0.291041,0 0.529166,0.23813 0.529166,0.52917 0,0.29104 -0.238125,0.52916 -0.529166,0.52916 -0.291042,0 -0.529167,-0.23812 -0.529167,-0.52916 z m -24.694445,-0.35278 c 0,-0.29104 0.238125,-0.52917 0.529166,-0.52917 0.291042,0 0.529167,0.23813 0.529167,0.52917 0,0.29104 -0.238125,0.52917 -0.529167,0.52917 -0.291041,0 -0.529166,-0.23813 -0.529166,-0.52917 z m 7.055555,-0.35278 c 0,-0.29104 0.238125,-0.52916 0.529167,-0.52916 0.291042,0 0.529167,0.23812 0.529167,0.52916 0,0.29104 -0.238125,0.52917 -0.529167,0.52917 -0.291042,0 -0.529167,-0.23813 -0.529167,-0.52917 z m 6.702778,-0.70555 c 0,-0.29104 0.238125,-0.52917 0.529167,-0.52917 0.291042,0 0.529167,0.23813 0.529167,0.52917 0,0.29104 -0.238125,0.52916 -0.529167,0.52916 -0.291042,0 -0.529167,-0.23812 -0.529167,-0.52916 z m 15.522224,-1.41111 c 0,-0.29105 0.238125,-0.52917 0.529166,-0.52917 0.291042,0 0.529167,0.23812 0.529167,0.52917 0,0.29104 -0.238125,0.52916 -0.529167,0.52916 -0.291041,0 -0.529166,-0.23812 -0.529166,-0.52916 z m -6.350001,-0.70556 c 0,-0.29104 0.238125,-0.52917 0.529167,-0.52917 0.291041,0 0.529166,0.23813 0.529166,0.52917 0,0.29104 -0.238125,0.52917 -0.529166,0.52917 -0.291042,0 -0.529167,-0.23813 -0.529167,-0.52917 z m -20.81389,-0.35278 c 0,-0.29104 0.238125,-0.52916 0.529167,-0.52916 0.291042,0 0.529167,0.23812 0.529167,0.52916 0,0.29104 -0.238125,0.52917 -0.529167,0.52917 -0.291042,0 -0.529167,-0.23813 -0.529167,-0.52917 z m 8.466667,0 c 0,-0.29104 0.238125,-0.52916 0.529167,-0.52916 0.291042,0 0.529167,0.23812 0.529167,0.52916 0,0.29104 -0.238125,0.52917 -0.529167,0.52917 -0.291042,0 -0.529167,-0.23813 -0.529167,-0.52917 z m -4.938889,-1.76389 c 0,-0.29104 0.238125,-0.52916 0.529167,-0.52916 0.291042,0 0.529167,0.23812 0.529167,0.52916 0,0.29105 -0.238125,0.52917 -0.529167,0.52917 -0.291042,0 -0.529167,-0.23812 -0.529167,-0.52917 z m 6.35,-0.70555 c 0,-0.29104 0.238125,-0.52917 0.529167,-0.52917 0.291042,0 0.529167,0.23813 0.529167,0.52917 0,0.29104 -0.238125,0.52916 -0.529167,0.52916 -0.291042,0 -0.529167,-0.23812 -0.529167,-0.52916 z m 4.233334,-0.35278 c 0,-0.29104 0.238125,-0.52917 0.529167,-0.52917 0.291041,0 0.529166,0.23813 0.529166,0.52917 0,0.29104 -0.238125,0.52917 -0.529166,0.52917 -0.291042,0 -0.529167,-0.23813 -0.529167,-0.52917 z m 6.35,0 c 0,-0.29104 0.238125,-0.52917 0.529167,-0.52917 0.291042,0 0.529167,0.23813 0.529167,0.52917 0,0.29104 -0.238125,0.52917 -0.529167,0.52917 -0.291042,0 -0.529167,-0.23813 -0.529167,-0.52917 z m -14.816667,-1.41111 c 0,-0.29104 0.238125,-0.52917 0.529167,-0.52917 0.291041,0 0.529166,0.23813 0.529166,0.52917 0,0.29104 -0.238125,0.52917 -0.529166,0.52917 -0.291042,0 -0.529167,-0.23813 -0.529167,-0.52917 z m 79.480907,-3.13839 c -1.1254,-1.6291 -2.22346,-3.25629 -2.44013,-3.61597 -0.38008,-0.63096 -0.44835,-0.62655 -1.94028,0.12538 -0.85048,0.42864 -2.69498,1.42083 -4.09889,2.20486 -1.4039,0.78403 -2.79297,1.42551 -3.0868,1.42551 -1.3002,0 -0.11042,-2.21785 4.27227,-7.96385 l 0.87514,-1.14737 -0.91252,-0.64786 c -0.50189,-0.35633 -1.58183,-1.13631 -2.39986,-1.73329 -0.81803,-0.59698 -2.00327,-1.31042 -2.63386,-1.58542 -1.14747,-0.50041 -1.61482,-1.73888 -0.6562,-1.73888 0.62456,0 6.91914,1.29421 7.62688,1.56814 0.38946,0.15074 1.04667,-0.70518 2.44687,-3.18672 2.82529,-5.00717 3.33093,-4.92351 3.72746,0.61673 0.13687,1.91232 0.38861,3.56331 0.55941,3.66887 0.23651,0.14618 6.96382,0.82124 8.52058,0.85502 0.58374,0.0127 0.23913,1.41774 -0.35278,1.43833 -0.33955,0.0118 -2.20486,0.54331 -4.14514,1.18111 l -3.52778,1.15964 0.11259,1.20014 c 0.0619,0.66007 0.3391,2.62888 0.61594,4.37513 0.27685,1.74625 0.504,3.53219 0.50478,3.96875 0.003,1.51504 -1.02503,0.78863 -3.06768,-2.16825 z m -75.247574,-0.38939 c 0,-0.29104 0.238125,-0.52917 0.529167,-0.52917 0.291042,0 0.529167,0.23813 0.529167,0.52917 0,0.29104 -0.238125,0.52917 -0.529167,0.52917 -0.291042,0 -0.529167,-0.23813 -0.529167,-0.52917 z m 1.763889,-5.29167 c 0,-0.29104 0.238125,-0.52916 0.529167,-0.52916 0.291042,0 0.529167,0.23812 0.529167,0.52916 0,0.29105 -0.238125,0.52917 -0.529167,0.52917 -0.291042,0 -0.529167,-0.23812 -0.529167,-0.52917 z m 0,-5.64444 c 0,-0.29104 0.238125,-0.52917 0.529167,-0.52917 0.291042,0 0.529167,0.23813 0.529167,0.52917 0,0.29104 -0.238125,0.52917 -0.529167,0.52917 -0.291042,0 -0.529167,-0.23813 -0.529167,-0.52917 z m 76.552785,-4.23333 c 0,-0.29105 0.23812,-0.52917 0.52916,-0.52917 0.29105,0 0.52917,0.23812 0.52917,0.52917 0,0.29104 -0.23812,0.52916 -0.52917,0.52916 -0.29104,0 -0.52916,-0.23812 -0.52916,-0.52916 z m -74.788896,-2.11667 c 0,-0.29104 0.238125,-0.52917 0.529167,-0.52917 0.291042,0 0.529167,0.23813 0.529167,0.52917 0,0.29104 -0.238125,0.52917 -0.529167,0.52917 -0.291042,0 -0.529167,-0.23813 -0.529167,-0.52917 z m 75.141666,-5.997218 c 0,-0.29104 0.23813,-0.52917 0.52917,-0.52917 0.29104,0 0.52917,0.23813 0.52917,0.52917 0,0.29104 -0.23813,0.52916 -0.52917,0.52916 -0.29104,0 -0.52917,-0.23812 -0.52917,-0.52916 z m -75.141666,-1.05834 c 0,-0.29104 0.238125,-0.52916 0.529167,-0.52916 0.291042,0 0.529167,0.23812 0.529167,0.52916 0,0.29105 -0.238125,0.52917 -0.529167,0.52917 -0.291042,0 -0.529167,-0.23812 -0.529167,-0.52917 z m -0.705555,-5.29166 c 0,-0.29104 0.238125,-0.52917 0.529166,-0.52917 0.291042,0 0.529167,0.23813 0.529167,0.52917 0,0.29104 -0.238125,0.52916 -0.529167,0.52916 -0.291041,0 -0.529166,-0.23812 -0.529166,-0.52916 z m 75.141671,0 c 0,-0.29104 0.23812,-0.52917 0.52917,-0.52917 0.29104,0 0.52916,0.23813 0.52916,0.52917 0,0.29104 -0.23812,0.52916 -0.52916,0.52916 -0.29105,0 -0.52917,-0.23812 -0.52917,-0.52916 z m -2.46945,-5.29167 c 0,-0.29104 0.23813,-0.52917 0.52917,-0.52917 0.29104,0 0.52917,0.23813 0.52917,0.52917 0,0.29104 -0.23813,0.52917 -0.52917,0.52917 -0.29104,0 -0.52917,-0.23813 -0.52917,-0.52917 z m -70.202777,-0.35278 c 0,-0.29104 0.238125,-0.52916 0.529167,-0.52916 0.291042,0 0.529167,0.23812 0.529167,0.52916 0,0.29104 -0.238125,0.52917 -0.529167,0.52917 -0.291042,0 -0.529167,-0.23813 -0.529167,-0.52917 z m 5.291667,-5.29166 c 0,-0.29105 0.238125,-0.52917 0.529167,-0.52917 0.291042,0 0.529167,0.23812 0.529167,0.52917 0,0.29104 -0.238125,0.52916 -0.529167,0.52916 -0.291042,0 -0.529167,-0.23812 -0.529167,-0.52916 z m 60.325,-1.05834 c 0,-0.29104 0.23813,-0.52916 0.52917,-0.52916 0.29104,0 0.52917,0.23812 0.52917,0.52916 0,0.29104 -0.23813,0.52917 -0.52917,0.52917 -0.29104,0 -0.52917,-0.23813 -0.52917,-0.52917 z m -41.413559,-1.4993 c -0.342106,-0.72761 -0.851997,-1.68099 -1.133087,-2.11863 -0.494972,-0.77064 -0.541348,-0.7767 -1.4718,-0.19242 -0.528394,0.33181 -1.697125,1.20582 -2.597178,1.94224 -0.900053,0.73642 -1.812865,1.33895 -2.028472,1.33895 -1.035216,0 0.0032,-2.14261 2.15682,-4.45068 l 1.025772,-1.09928 -1.52272,-0.87362 c -0.837494,-0.48049 -1.800532,-0.97302 -2.140081,-1.0945 -0.339548,-0.12149 -0.617361,-0.48586 -0.617361,-0.8097 0,-0.50351 0.271004,-0.55696 1.870703,-0.36895 1.028887,0.12093 2.338575,0.30615 2.910417,0.4116 0.955566,0.17621 1.134262,0.0339 2.207938,-1.75879 1.301577,-2.17318 2.183165,-2.54273 2.183165,-0.91516 0,1.53747 0.603493,2.84492 1.314185,2.84715 1.550554,0.005 3.271926,0.74768 3.271926,1.4119 0,0.53916 -0.413896,0.76063 -2.05498,1.09959 l -2.054976,0.42445 0.160027,2.76438 c 0.130115,2.24767 0.06486,2.76438 -0.349127,2.76438 -0.280035,0 -0.789061,-0.59531 -1.131171,-1.32291 z m 34.710779,-1.6757 c 0,-0.29104 0.23813,-0.52916 0.52917,-0.52916 0.29104,0 0.52917,0.23812 0.52917,0.52916 0,0.29104 -0.23813,0.52917 -0.52917,0.52917 -0.29104,0 -0.52917,-0.23813 -0.52917,-0.52917 z m -47.977775,-0.35278 c 0,-0.29104 0.238125,-0.52916 0.529167,-0.52916 0.291042,0 0.529167,0.23812 0.529167,0.52916 0,0.29105 -0.238125,0.52917 -0.529167,0.52917 -0.291042,0 -0.529167,-0.23812 -0.529167,-0.52917 z m 40.922225,-2.82222 c 0,-0.29104 0.23812,-0.52916 0.52917,-0.52916 0.29104,0 0.52916,0.23812 0.52916,0.52916 0,0.29104 -0.23812,0.52917 -0.52916,0.52917 -0.29105,0 -0.52917,-0.23813 -0.52917,-0.52917 z m -9.87778,-1.76389 c 0,-0.29104 0.23813,-0.52916 0.52917,-0.52916 0.29104,0 0.52916,0.23812 0.52916,0.52916 0,0.29105 -0.23812,0.52917 -0.52916,0.52917 -0.29104,0 -0.52917,-0.23812 -0.52917,-0.52917 z m -9.17222,-0.35277 c 0,-0.29105 0.23812,-0.52917 0.52916,-0.52917 0.29105,0 0.52917,0.23812 0.52917,0.52917 0,0.29104 -0.23812,0.52916 -0.52917,0.52916 -0.29104,0 -0.52916,-0.23812 -0.52916,-0.52916 z"
         id="path12263" />
    </g>
  </g>
</svg>
