<?xml version="1.0" encoding="UTF-8" standalone="no"?>
<!-- Created with Inkscape (http://www.inkscape.org/) -->

<svg
   width="157mm"
   height="121mm"
   viewBox="0 0 157 121"
   version="1.1"
   id="svg5"
   inkscape:version="1.1.1 (1:1.1+202109281943+c3084ef5ed)"
   sodipodi:docname="teteCoeurCorps.svg"
   xmlns:inkscape="http://www.inkscape.org/namespaces/inkscape"
   xmlns:sodipodi="http://sodipodi.sourceforge.net/DTD/sodipodi-0.dtd"
   xmlns="http://www.w3.org/2000/svg"
   xmlns:svg="http://www.w3.org/2000/svg">
  <sodipodi:namedview
     id="namedview7"
     pagecolor="#505050"
     bordercolor="#eeeeee"
     borderopacity="1"
     inkscape:pageshadow="0"
     inkscape:pageopacity="0"
     inkscape:pagecheckerboard="0"
     inkscape:document-units="mm"
     showgrid="false"
     inkscape:zoom="0.56209192"
     inkscape:cx="370.04623"
     inkscape:cy="173.45917"
     inkscape:window-width="1854"
     inkscape:window-height="1098"
     inkscape:window-x="66"
     inkscape:window-y="29"
     inkscape:window-maximized="1"
     inkscape:current-layer="layer1" />
  <defs
     id="defs2">
    <clipPath
       clipPathUnits="userSpaceOnUse"
       id="clipPath1203">
      <rect
         style="fill:#0a66c2;stroke-width:2.2"
         id="rect1205"
         width="34.801373"
         height="32.771526"
         x="28.263504"
         y="62.399708" />
    </clipPath>
  </defs>
  <g
     inkscape:label="Calque 1"
     inkscape:groupmode="layer"
     id="layer1">
    <g
       id="g49304"
       transform="translate(-87.83857,55.637486)">
      <path
         style="fill:#7ab892;fill-opacity:1;stroke-width:0.352778"
         d="m 213.68596,57.975606 c -0.22265,-1.018646 -0.50789,-2.764896 -0.63388,-3.880556 -0.18956,-1.678604 -0.13677,-2.028472 0.30605,-2.028472 0.38943,0 0.65259,0.696352 0.96659,2.557639 0.80688,4.782965 0.8292,5.203472 0.27613,5.203472 -0.32875,0 -0.654,-0.658413 -0.91489,-1.852083 z m -27.57692,-9.916043 c 0,-0.468383 6.86297,-4.735865 8.16293,-5.075813 0.42879,-0.11213 0.65652,0.01542 0.65652,0.367753 0,0.300324 -1.27433,1.295898 -2.87487,2.246006 -1.58118,0.938615 -3.28774,1.972779 -3.79236,2.298146 -1.12847,0.727608 -2.15222,0.805572 -2.15222,0.163908 z m 25.75278,-14.39455 c -1.45521,-0.175102 -3.95589,-0.273569 -5.55707,-0.218818 -2.4283,0.08304 -2.91111,0.0095 -2.91042,-0.443159 0.001,-0.644673 1.19481,-4.120257 1.53062,-4.456063 0.12875,-0.128753 0.23409,-0.50165 0.23409,-0.828657 0,-0.327008 0.86981,-2.366854 1.93291,-4.532987 1.0631,-2.166133 2.28909,-4.769312 2.72441,-5.784839 1.50439,-3.509479 5.21459,-8.4522346 6.69793,-8.9230276 1.68598,-0.535107 3.97591,2.8269226 3.86804,5.6789576 -0.17692,4.677424 -4.40299,19.998326 -5.48163,19.872723 -0.21618,-0.02515 -1.58367,-0.189033 -3.03888,-0.36413 z m 20.02095,-2.550474 c -3.14675,-1.649085 -4.26685,-2.684071 -2.90482,-2.684071 1.00728,0 7.57832,3.520503 7.57832,4.060162 0,0.841604 -1.00822,0.544738 -4.6735,-1.376091 z m -72.80196,-1.713932 c 0.55436,-2.839261 1.76162,-6.261805 2.20879,-6.261805 0.616,0 0.60534,0.895935 -0.0339,2.847572 -0.28141,0.859183 -0.6844,2.236837 -0.89554,3.061455 -0.24902,0.972524 -0.58054,1.499306 -0.94357,1.499306 -0.44215,0 -0.51266,-0.240739 -0.33581,-1.146528 z m 13.91322,-4.242879 c -0.71332,-0.625341 -2.10238,-1.824687 -3.0868,-2.665215 -1.68848,-1.44168 -2.2853,-2.528711 -1.38833,-2.528711 0.22083,0 1.07827,0.595312 1.90543,1.322916 0.82714,0.727604 2.23396,1.929307 3.12625,2.670447 1.56255,1.297862 2.10069,2.36699 1.18138,2.34709 -0.24254,-0.0053 -1.0246,-0.521187 -1.73793,-1.146527 z m -31.32745,-4.929343 c 0.004,-0.242535 1.07571,-0.805349 2.38125,-1.250696 3.56984,-1.21775 3.96121,-1.287124 3.96121,-0.702127 0,0.571208 -0.84928,1.076294 -3.13116,1.862163 -1.87766,0.646662 -3.22145,0.6846 -3.2113,0.09066 z m 17.9295,-2.748883 c -1.38124,-1.451984 -1.73212,-2.767729 -0.91551,-3.433004 0.24253,-0.197587 1.3141,-0.359248 2.38125,-0.359248 2.20085,0 2.82222,0.34689 2.82222,1.575552 0,1.275711 -1.4656,3.63674 -2.25948,3.63995 -0.3696,0.0014 -1.28241,-0.638969 -2.02848,-1.42325 z m 39.66795,-6.142281 c -0.23483,-0.267222 -2.57639,-1.9546296 -5.20347,-3.7497916 -4.41213,-3.0149408 -5.60932,-4.2041828 -4.23229,-4.2041828 0.29933,0 1.37089,0.604745 2.38125,1.343878 1.01036,0.7391328 3.30546,2.3439828 5.10022,3.5663328 2.1815,1.485745 3.26319,2.4435516 3.26319,2.8894556 0,0.774802 -0.69194,0.856375 -1.3089,0.154308 z m 29.94623,-0.419262 c 0.13903,-0.705969 6.50229,-4.3465646 7.61059,-4.3542276 0.47281,-0.0032 0.79375,0.208474 0.79375,0.523681 0,0.291042 -0.18476,0.529167 -0.41057,0.529167 -0.22582,0 -1.97375,0.873125 -3.88429,1.940278 -3.72129,2.0785706 -4.28772,2.2661776 -4.10948,1.3611016 z M 151.11543,9.9489304 c -2.92417,-1.554801 -4.5175,-2.690043 -4.5175,-3.218719 0,-0.537546 1.25792,-0.748284 1.46991,-0.24625 0.14779,0.350016 3.6418,2.492774 4.75471,2.915899 0.88502,0.336486 1.15367,1.3917196 0.35431,1.3917196 -0.26214,0 -1.18978,-0.379192 -2.06143,-0.8426496 z m -61.667472,0.0013 c 0,-0.611702 7.303383,-7.2725768 7.974087,-7.2725768 0.861007,0 0.532057,0.943547 -0.653964,1.875818 -0.630587,0.495674 -2.319063,2.0226408 -3.752173,3.3932598 -2.53397,2.4234736 -3.56795,3.0040836 -3.56795,2.003499 z m 81.844412,-1.427723 c 0,-0.867795 4.18286,-3.3754098 5.63039,-3.3754098 0.975,0 0.91656,0.9320988 -0.0741,1.1823418 -0.43656,0.110275 -1.72579,0.762483 -2.86496,1.449356 -2.28656,1.378705 -2.69129,1.490549 -2.69129,0.743712 z M 97.358445,-10.118509 c -3.071037,-1.952428 -6.499367,-4.646457 -6.499377,-5.107309 -10e-6,-0.892079 1.13394,-0.38851 3.97196,1.763889 1.598953,1.212674 3.502504,2.518774 4.230098,2.902444 1.380494,0.7279497 1.768614,1.6012264 0.705557,1.5875034 -0.339547,-0.0044 -1.423251,-0.5203187 -2.408238,-1.1465274 z m 19.253365,-3.370361 c 0,-0.354366 0.79375,-2.747518 1.76389,-5.318122 0.97014,-2.570599 1.76389,-4.90004 1.76389,-5.17653 0,-0.276493 0.23813,-0.502712 0.52917,-0.502712 0.31205,0 0.53129,0.325678 0.53433,0.79375 0.008,1.258383 -3.66012,10.845465 -4.1503,10.846756 -0.24254,7.05e-4 -0.44098,-0.288774 -0.44098,-0.643142 z m 5.74327,-14.864948 c 0.0996,-0.380922 -0.0406,-0.87661 -0.31163,-1.10153 -0.63264,-0.525042 -0.6196,-1.819503 0.0402,-3.994592 1.03541,-3.413139 0.52423,-6.362099 -1.66607,-9.611399 -1.08163,-1.60462 -1.55577,-3.95724 -1.19022,-5.9058 0.68898,-3.67258 5.79181,-6.04904 9.9927,-4.65373 3.24262,1.07703 6.08894,4.99852 6.08894,8.38899 0,1.45666 -0.18213,1.8952 -1.30176,3.1345 -0.71596,0.79249 -2.21007,1.8994 -3.32023,2.45981 -1.72447,0.87051 -2.15322,1.29434 -2.94357,2.90975 -0.51254,1.04758 -0.8258,2.149572 -0.70245,2.471026 0.12416,0.323561 -0.0215,0.824321 -0.32923,1.132087 -0.36157,0.361559 -0.48328,0.894889 -0.35296,1.546507 0.16394,0.819713 0.0596,1.031053 -0.59317,1.201764 -0.43565,0.113925 -1.28443,0.113584 -1.88617,-7.77e-4 l -1.09407,-0.207895 0.79375,0.867304 c 0.93529,1.021963 1.00261,1.548138 0.23573,1.842419 -1.09948,0.421907 -1.64824,0.24205 -1.45983,-0.478452 z m 1.66507,-3.321164 c 0,-0.07326 -0.23813,-0.33082 -0.52917,-0.572363 -0.43339,-0.359682 -0.52917,-0.335574 -0.52917,0.133193 0,0.3148 0.23813,0.572363 0.52917,0.572363 0.29104,0 0.52917,-0.05994 0.52917,-0.133193 z m 1.02893,-2.436076 c -0.0808,-0.0549 -0.4248,-0.312467 -0.76435,-0.572363 -0.52845,-0.404487 -0.61736,-0.390111 -0.61736,0.09982 0,0.351853 0.29447,0.572362 0.76435,0.572362 0.42039,0 0.69821,-0.04492 0.61736,-0.09982 z m 1.25541,-2.810591 c 0.78754,-1.97763 1.42128,-2.63707 3.53649,-3.67997 2.17574,-1.07273 4.41264,-3.45383 4.40198,-4.68572 -0.0115,-1.33015 -1.16289,-3.62512 -2.63762,-5.25748 -2.39537,-2.65138 -5.72248,-3.07302 -8.88894,-1.12647 -2.65513,1.63222 -3.21792,4.97117 -1.31394,7.79549 1.46924,2.17944 2.26491,4.31672 2.26491,6.08388 0,1.20048 0.1571,1.57451 0.79375,1.88982 1.19651,0.592598 1.20274,0.589153 1.84337,-1.01955 z"
         id="path46819" />
      <path
         style="fill:#000000;stroke-width:0.352778"
         d="m 192.78473,62.416399 c -0.17225,-0.33955 -0.61305,-1.47021 -0.97956,-2.51259 -0.79472,-2.2602 -1.32097,-1.70443 5.32853,-5.62746 2.52439,-1.48933 5.3422,-3.23143 6.26181,-3.87134 1.59328,-1.10869 1.67188,-1.24159 1.66921,-2.82223 -0.001,-0.91231 -0.42579,-3.56374 -0.94277,-5.89208 -0.51699,-2.32833 -0.9523,-4.90802 -0.96734,-5.73264 -0.0151,-0.82461 -0.14643,-1.4993 -0.29195,-1.4993 -0.75346,0 0.3326,-5.65367 1.26521,-6.58627 0.12875,-0.12876 0.23409,-0.50165 0.23409,-0.82866 0,-0.32701 0.86981,-2.36685 1.93291,-4.53299 1.0631,-2.16613 2.28435,-4.76931 2.71388,-5.78484 0.42954,-1.01552 1.4601,-2.86968 2.29014,-4.12036 0.83004,-1.25067 1.45546,-2.32764 1.38984,-2.39327 -0.2457,-0.2456898 -6.05617,2.66201 -6.59137,3.29849 -0.57484,0.6836 -2.75435,4.4502 -5.07474,8.77008 -1.28944,2.40055 -1.31246,2.50822 -0.91541,4.2824 0.59336,2.6514 -0.0293,4.72042 -1.42048,4.72042 -0.75695,0 -1.19595,-0.72714 -1.51821,-2.51473 -0.20223,-1.12176 0.0809,-1.88506 2.29002,-6.17362 4.08267,-7.92569 5.73355,-10.47302 7.2723,-11.22125 2.28165,-1.10948 8.70324,-3.7908298 9.53047,-3.9794698 0.75622,-0.17245 0.74376,-0.20879 -0.32003,-0.93338 -1.73619,-1.18259 -3.14901,-3.1703 -3.35734,-4.72349 -0.22997,-1.71456997 1.184,-5.14782 2.73019,-6.62917 1.13758,-1.08986 3.38297,-1.47746 6.15282,-1.06209 1.88672,0.28292 3.90784,1.85785 4.6434,3.61828 0.61302,1.46718003 0.60992,4.04197 -0.007,5.51764 -0.66242,1.58537 -3.24535,3.71119 -5.06636,4.16973 -1.40492,0.35376 -1.89833,0.7852 -1.21202,1.05979 0.66259,0.26509 2.88331,4.9563798 4.10283,8.6672498 0.71641,2.17995 1.56803,4.27853 1.89249,4.66351 0.32446,0.38498 1.93931,1.19811 3.58854,1.80696 2.65344,0.97956 3.58743,1.134 8.11389,1.34164 2.8134,0.12906 5.31372,0.35951 5.55625,0.51212 0.24254,0.15261 0.44097,0.66498 0.44097,1.1386 0,0.82841 -0.091,0.86112 -2.39485,0.86112 -1.6323,0 -2.80183,-0.20748 -3.67299,-0.65163 -0.70297,-0.35839 -2.29061,-0.74617 -3.52807,-0.86173 -2.74832,-0.25664 -8.03804,-2.1173 -9.03419,-3.17778 -0.40138,-0.4273 -1.28184,-2.44379 -1.95657,-4.48108 -0.87826,-2.65183 -1.23513,-3.38952 -1.25617,-2.59661 -0.0538,2.02916 -1.12484,6.96142 -2.36402,10.88689 -0.67375,2.1343 -1.54143,4.89465 -1.92818,6.1341 l -0.70317,2.25355 0.71213,1.80339 c 0.39167,0.99187 1.41408,3.54965 2.27204,5.68396 0.85794,2.1343 2.23026,5.9443 3.04958,8.46667 0.81932,2.52236 1.55232,4.69498 1.62889,4.82805 0.0766,0.13307 1.00432,-0.15412 2.06167,-0.63818 2.418,-1.107 4.88412,-1.07434 5.04731,0.0668 0.11675,0.81649 -1.94187,2.11688 -4.98889,3.15137 -1.8323,0.62208 -2.70007,0.51619 -2.70007,-0.3295 0,-0.29055 -0.22957,-1.04959 -0.51016,-1.68676 -0.28059,-0.63718 -1.17245,-3.22225 -1.9819,-5.74461 -0.80946,-2.52236 -1.76647,-5.22111 -2.12668,-5.99722 -0.60962,-1.31345 -2.97235,-7.39447 -3.37597,-8.68884 -0.21499,-0.68944 -1.60848,-0.92912 -7.21181,-1.24044 l -4.09403,-0.22746 -0.2383,0.94945 c -0.13106,0.5222 -0.14751,1.09635 -0.0366,1.27588 0.52762,0.85371 1.93123,8.91749 1.93371,11.10921 l 0.003,2.47225 -2.20486,1.46695 c -1.21267,0.80683 -4.03048,2.54084 -6.2618,3.85337 -2.23132,1.31252 -4.12509,2.43906 -4.20837,2.50342 -0.0833,0.0644 0.11516,0.67603 0.44098,1.35927 0.32581,0.68324 0.59239,1.7925 0.59239,2.46502 0,0.98026 -0.13746,1.22275 -0.69315,1.22275 -0.38123,0 -0.83407,-0.27781 -1.00631,-0.61736 z m 35.56612,-6.26181 c 0.87313,-0.46753 1.34938,-0.85375 1.05834,-0.85825 -0.62202,-0.01 -3.52778,1.26424 -3.52778,1.54656 0,0.39584 0.92765,0.13728 2.46944,-0.68831 z m -12.25567,-23.54791 c 2.34811,-6.51734 4.41478,-14.88649 4.5484,-18.41919 0.10788,-2.85204 -2.18206,-6.2140698 -3.86803,-5.6789598 -1.48334,0.47079 -5.19355,5.4135498 -6.69794,8.9230298 -0.43532,1.01553 -1.6613,3.61871 -2.7244,5.78484 -1.06311,2.16613 -1.93291,4.20598 -1.93291,4.53298 0,0.32701 -0.10535,0.69991 -0.2341,0.82866 -0.33581,0.33581 -1.52964,3.81139 -1.53062,4.45606 -7e-4,0.45269 0.48213,0.5262 2.91042,0.44316 1.60118,-0.0548 4.10187,0.0437 5.55707,0.21882 1.45521,0.1751 2.82271,0.33896 3.03888,0.36413 0.21618,0.0252 0.63613,-0.62892 0.93323,-1.45353 z m -16.95697,-5.12348 c -0.1201,-0.62828 -0.24095,-0.72676 -0.46262,-0.37702 -0.36818,0.58091 -0.40137,1.8528 -0.0573,2.19685 0.36826,0.36826 0.70974,-0.82696 0.51995,-1.81983 z m 42.00755,-1.36973 c -0.23884,-0.0966 -0.71509,-0.10251 -1.05833,-0.0131 -0.34325,0.0894 -0.14783,0.16851 0.43426,0.1757 0.58208,0.007 0.86291,-0.066 0.62407,-0.16263 z M 222.68973,5.1900792 c 2.41736,-1.72131 3.279,-3.95943 2.4691,-6.41346 -0.88675,-2.68686 -3.53993,-4.15455 -6.73548,-3.72593 -1.72189,0.23095 -2.37961,0.79223 -3.63823,3.10472 -1.27523,2.34302003 -1.29146,3.73201 -0.0624,5.34334 2.31669,3.03733 5.21321,3.65223 7.96705,1.69133 z M 170.4071,61.722749 c -0.53358,-0.0808 -0.97014,-0.2007 -0.97014,-0.26637 0,-1.27553 -2.46582,-20.59979 -2.83725,-22.23512 -0.45869,-2.01954 -0.41118,-2.99861 0.14552,-2.99861 0.72744,0 1.41573,4.12588 3.05285,18.30002 0.36694,3.17703 0.74764,5.85689 0.84599,5.95523 0.0984,0.0984 1.31657,0.26022 2.70716,0.35972 2.0625,0.14757 2.49672,0.0903 2.35673,-0.31079 -0.12737,-0.36494 -0.77585,-0.47177 -2.51575,-0.41441 -1.78666,0.0589 -2.34414,-0.0376 -2.34414,-0.40579 0,-0.28617 0.69844,-0.65061 1.71359,-0.89414 2.26868,-0.54425 3.99403,-0.1093 4.42474,1.11543 0.61168,1.73929 0.16137,2.0529 -2.86406,1.99465 -1.50981,-0.0291 -3.18166,-0.11899 -3.71524,-0.19982 z m -26.57732,-0.43269 c -1.49623,-0.3577 -1.90949,-0.66093 -1.90949,-1.40111 0,-0.52497 0.40862,-0.67231 2.38125,-0.85862 1.30969,-0.12369 3.05594,-0.22602 3.88056,-0.2274 1.31778,-0.002 1.49976,-0.0986 1.50308,-0.79626 0.007,-1.47273 1.01936,-10.28396 1.74509,-15.18879 0.39632,-2.67852 0.72058,-5.47867 0.72058,-6.22254 0,-1.24691 0.0895,-1.36917 1.14653,-1.56603 0.63059,-0.11744 3.74535,-0.20716 6.92169,-0.19938 3.17633,0.008 5.84063,-0.0513 5.92065,-0.13134 0.08,-0.08 -0.017,-1.95266 -0.21566,-4.16141 -0.19864,-2.20876 -0.45625,-5.40498 -0.57247,-7.10273 l -0.2113,-3.0868 h -1.01952 c -0.56074,0 -1.65848,0.25565 -2.43941,0.56812 -0.92018,0.36819 -1.85199,0.48706 -2.64774,0.33777 -0.67533,-0.12669 -1.84504,-0.0642 -2.59937,0.13896 -1.57796,0.4249 -1.53967,0.29972 -2.16212,7.06904 -0.50462,5.48789 -0.68471,6.35 -1.32655,6.35 -0.43872,0 -0.4955,-0.30887 -0.30807,-1.6757 0.12638,-0.92163 0.39461,-3.58069 0.59609,-5.90903 0.20146,-2.32833 0.43943,-4.45071 0.5288,-4.7164 0.12207,-0.36286 -0.0802,-0.42911 -0.81272,-0.26622 -0.53637,0.11927 -2.04678,0.31999 -3.35647,0.44604 -2.21888,0.21356 -2.38125,0.18132 -2.38125,-0.47285 0,-0.38612 0.33735,-1.00446 0.74966,-1.37408 0.41231,-0.36963 1.71177,-1.86267 2.88769,-3.31787 1.17592,-1.45521 2.86264,-3.47057 3.74826,-4.47857 2.98115,-3.3931098 3.74203,-4.4534198 3.30121,-4.6003598 -2.07891,-0.69298 -4.114,-3.14434 -4.47271,-5.38761 -0.36384,-2.27528997 0.27062,-3.93016997 2.1979,-5.73292 2.09096,-1.95584 3.2719,-2.5884 5.43917,-2.9134 1.38903,-0.2083 1.67104,-0.15722 1.67104,0.30265 0,0.3629 -0.45513,0.63298 -1.32291,0.78503 -1.82166,0.31919 -3.9578,1.60511 -5.49756,3.30945 -1.09122,1.20784003 -1.29341,1.68329003 -1.29341,3.04132 0,2.36438 1.08072,4.03197 3.35138,5.1713 1.92422,0.96549 3.55118,1.07052 5.01445,0.3237 1.69787,-0.86655 2.36484,-1.61371 3.27281,-3.66632 0.6839,-1.54607 0.69508,-1.73145 0.17895,-2.96672997 -0.93119,-2.22866003 -2.18731,-3.59693003 -3.53404,-3.84958003 -0.76267,-0.14308 -1.228,-0.43362 -1.228,-0.76673 0,-0.81803 2.68331,-0.34018 3.78553,0.67416 1.11638,1.02734 2.55644,4.02702003 2.56102,5.33463 0.007,1.94696 -2.04926,5.11714 -3.9653,6.11394 -0.53358,0.27759 -0.97014,0.62427 -0.97014,0.7704 0,0.41455 5.40087,1.7495498 9.87535,2.4410198 3.07842,0.47572 4.0797,0.76039 4.15916,1.18247 0.12888,0.68453 -2.36801,2.27993 -7.03755,4.49664 -2.86218,1.35874 -3.44056,1.77173 -3.60038,2.57081 -0.17251,0.86255 0.0117,4.3115 0.69991,13.10233 l 0.24164,3.08681 -2.61004,0.0472 c -1.43552,0.026 -4.59441,0.0657 -7.01975,0.0882 l -4.40973,0.041 -0.10015,1.23472 c -0.0551,0.6791 -0.48985,4.01285 -0.96613,7.40833 -0.47629,3.39549 -1.02787,8.07862 -1.22574,10.40695 -0.19787,2.32833 -0.44499,4.74927 -0.54916,5.37986 l -0.1894,1.14653 -2.71804,-0.0361 c -1.49492,-0.0199 -3.20815,-0.15328 -3.80717,-0.29648 z m 5.49885,-1.07852 c 0,-0.19403 -0.78438,-0.35278 -1.74307,-0.35278 -0.95869,0 -1.84118,0.15875 -1.9611,0.35278 -0.13536,0.21902 0.52551,0.35277 1.74307,0.35277 1.0786,0 1.9611,-0.15875 1.9611,-0.35277 z m 2.74184,-39.01142 c 0.82892,-0.13177 1.59093,-0.37519 1.69336,-0.54093 0.10243,-0.16573 0.32314,-1.13706 0.49046,-2.15852 0.16733,-1.02145 0.40848,-2.33344 0.53589,-2.91552 l 0.23166,-1.05833 -1.17091,1.40669 c -0.644,0.77368 -2.02805,2.42403 -3.07567,3.66743 -1.61861,1.92113 -1.77759,2.22905 -1.05833,2.04976 0.46553,-0.11604 1.52463,-0.3188 2.35354,-0.45058 z m 7.49693,-1.92678 c 0.69844,-0.3497 1.64912,-0.54467 2.17014,-0.44507 0.71946,0.13753 0.97983,0.0114 1.16209,-0.5628 0.13179,-0.41523 0.53412,-0.74004 0.91666,-0.74004 0.82628,0 0.84097,-0.39554 0.13067,-3.5185 -0.7274,-3.19814 -1.79125,-4.4106398 -3.61657,-4.1219398 -1.65026,0.2610098 -3.38735,2.2230798 -3.94239,4.4529998 -0.21904,0.87997 -0.54762,2.17398 -0.7302,2.87559 -0.18257,0.70161 -0.33195,1.69567 -0.33195,2.20903 0,0.89901 0.0552,0.9249 1.49931,0.70322 0.82461,-0.1266 2.05862,-0.51021 2.74224,-0.85249 z m 10.9279,-3.77824 c 2.23131,-1.11464 4.05694,-2.18537 4.05694,-2.3794 0,-0.19402 -1.79866,-0.61949 -3.99702,-0.94548 -2.19836,-0.32599 -4.46055,-0.75429 -5.02708,-0.95179 -0.56654,-0.19749 -1.03007,-0.29781 -1.03007,-0.22293 0,0.11733 0.21055,1.08543 1.24757,5.73618 0.0973,0.43656 0.29302,0.79291 0.43485,0.79189 0.14182,-10e-4 2.08349,-0.91383 4.31481,-2.02847 z m -52.07957,45.01748 c -0.16936,-0.26259 -0.27441,-5.51546 -0.23344,-11.67304 0.071,-10.67006 0.0431,-11.21242 -0.59417,-11.55348 -0.36776,-0.19682 -2.70316,-0.35539 -5.18977,-0.35237 l -4.52111,0.005 -1.82879,5.90354 c -2.16052,6.97442 -2.99586,10.07385 -3.87301,14.37021 l -0.6482,3.175 -1.41111,0.10111 c -0.776113,0.0556 -2.284238,-0.0254 -3.351391,-0.18004 -1.59239,-0.23073 -1.959337,-0.41401 -2.046575,-1.02215 -0.08773,-0.61156 0.127952,-0.77971 1.234722,-0.9626 0.737561,-0.12188 2.149033,-0.22335 3.136604,-0.22549 l 1.79558,-0.004 0.44934,-2.55764 c 0.51862,-2.95204 2.25515,-9.21954 4.14739,-14.96888 0.89648,-2.72383 1.486,-4.00178 1.8548,-4.02078 0.36366,-0.0187 0.3961,-0.0862 0.0991,-0.20597 -0.24284,-0.098 -0.53827,-0.78307 -0.6565,-1.52246 l -0.21496,-1.34433 -1.24482,0.84475 c -1.81583,1.23226 -3.26302,1.04807 -3.26302,-0.4153 0,-0.96845 0.92069,-1.56217 2.42248,-1.56217 0.70241,0 1.12439,-0.20993 1.25609,-0.62488 0.37827,-1.19182 -1.65342,-7.12641 -3.91403,-11.43292 -0.68032,-1.29604 -1.18334,-2.63475 -1.11783,-2.97493 0.11009,-0.57168 1.21951,-1.5825 6.32064,-5.7589 1.0515,-0.86089 2.59401,-2.4086998 3.4278,-3.4395898 1.4235,-1.75999 1.61251,-1.87433 3.09822,-1.87433 1.50238,0 1.71078,0.13172 4.12847,2.60939 4.13078,4.2332698 9.42539,8.5372498 9.42539,7.6618898 0,-0.21626 -0.22549,-1.78232 -0.50108,-3.48016 -0.2756,-1.69782 -0.59235,-6.6985198 -0.7039,-11.1126498 -0.17634,-6.97797 -0.13395,-8.02569 0.32469,-8.02569 0.34834,0 0.52751,0.35167 0.52751,1.03536 0,1.41868 0.58727,2.84519 1.17131,2.84519 1.73855,0 2.24367,3.3649 0.71746,4.77935 -0.51341,0.4758 -1.06903,0.8651 -1.23473,0.8651 -0.47889,0 -0.32587,5.90117 0.23327,8.9958298 0.28045,1.55222 0.51304,3.57628 0.51686,4.49792 0.0108,2.59879 -0.58132,2.36694 -6.31138,-2.4715 -1.43778,-1.21406 -2.65906,-2.16247 -2.71395,-2.10758 -0.0549,0.0549 0.0477,1.60373 0.22803,3.44187 0.90304,9.2061 1.09391,13.96346 0.70023,17.45318 -0.57742,5.11846 -1.12288,19.27707 -0.87208,22.63655 l 0.21508,2.88101 2.61662,-0.1979 2.61661,-0.19789 v 0.90909 c 0,1.0499 -0.28943,1.17148 -3.57262,1.50068 -1.78057,0.17854 -2.41131,0.12061 -2.64583,-0.243 z m -18.38108,-1.238 c -0.238845,-0.0966 -0.715095,-0.10251 -1.058336,-0.0131 -0.343242,0.0894 -0.147825,0.16851 0.434258,0.1757 0.582083,0.007 0.862918,-0.066 0.624078,-0.16263 z m 17.89676,-23.75749 c 0,-0.19403 0.21534,-0.35278 0.47855,-0.35278 0.71234,0 1.00697,-5.28876 0.58957,-10.58333 -0.94708,-12.01346 -1.28605,-13.63302 -3.3036,-15.7841898 -1.27179,-1.35601 -2.07897,-1.67214 -3.00463,-1.17674 -3.38991,1.81423 -6.51521,18.4158798 -4.94175,26.2507098 l 0.40148,1.99911 h 4.89019 c 3.02494,0 4.89019,-0.13456 4.89019,-0.35278 z m -10.77594,-17.10972 c 0.31637,-1.74625 0.7965,-3.92378 1.06697,-4.83896 l 0.49175,-1.66397 -2.18237,1.72773 c -1.2003,0.95026 -2.73205,2.19262 -3.4039,2.76083 l -1.22154,1.03308 1.81915,3.87832 c 1.00053,2.13307 1.94413,4.33823 2.09688,4.90036 0.22319,0.82136 0.32487,0.46786 0.51779,-1.80017 0.13203,-1.55222 0.4989,-4.25097 0.81527,-5.99722 z M 128.14791,1.1381892 c 0.50426,-0.60759997 0.20009,-1.81032997 -0.52855,-2.08992997 -0.39907,-0.15314003 -0.51573,0.11879 -0.51573,1.20213 0,1.46698997 0.33044,1.74791997 1.04428,0.88779997 z m -19.97866,4.02946 c -2.7683,-1.29841 -3.70467,-3.4629 -2.92912,-6.77089 0.51374,-2.19129 0.76956,-2.55792 2.58404,-3.70335 2.53742,-1.6018 3.90595,-1.90281 6.61612,-1.45524 2.28845,0.37793 3.14318,1.01125 1.99181,1.47584 -0.24254,0.0979 -0.0919,0.19047 0.33482,0.20579 2.00273,0.0719 3.36709,4.23411003 1.95824,5.97397003 -0.33955,0.41931997 -1.09362,1.37240997 -1.6757,2.11796997 -2.03564,2.60735 -5.91149,3.54832 -8.88021,2.15591 z m 4.91398,-0.85833 c 0.67937,-0.28386 1.71719,-0.92166 2.30627,-1.41733 1.43386,-1.20652 2.99101,-3.9101 2.72846,-4.73729 -0.38052,-1.19892 -1.43897,-2.08697 -2.78935,-2.34031 -1.11397,-0.20898 -1.30579,-0.36869 -1.15148,-0.95875 0.17303,-0.66168 0.059,-0.69497 -1.74295,-0.50899 -1.2352,0.12748 -2.52721,0.56547 -3.59529,1.21879 -1.4454,0.88412 -1.75286,1.28707 -2.31101,3.0287 -0.62321,1.94467003 -0.62321,2.05103003 0,3.32635 0.44785,0.91644 1.12699,1.55269 2.2313,2.09036 1.90184,0.92598 2.69173,0.9805 4.32405,0.29847 z"
         id="path46719" />
    </g>
  </g>
</svg>
