<?xml version="1.0" encoding="UTF-8" standalone="no"?>
<!-- Created with Inkscape (http://www.inkscape.org/) -->

<svg
   width="83mm"
   height="96mm"
   viewBox="0 0 83 96"
   version="1.1"
   id="svg5"
   inkscape:version="1.1.1 (1:1.1+202109281943+c3084ef5ed)"
   sodipodi:docname="lieu.svg"
   xmlns:inkscape="http://www.inkscape.org/namespaces/inkscape"
   xmlns:sodipodi="http://sodipodi.sourceforge.net/DTD/sodipodi-0.dtd"
   xmlns="http://www.w3.org/2000/svg"
   xmlns:svg="http://www.w3.org/2000/svg">
  <sodipodi:namedview
     id="namedview7"
     pagecolor="#505050"
     bordercolor="#eeeeee"
     borderopacity="1"
     inkscape:pageshadow="0"
     inkscape:pageopacity="0"
     inkscape:pagecheckerboard="0"
     inkscape:document-units="mm"
     showgrid="false"
     inkscape:zoom="0.64052329"
     inkscape:cx="245.11209"
     inkscape:cy="286.48451"
     inkscape:window-width="1854"
     inkscape:window-height="1098"
     inkscape:window-x="66"
     inkscape:window-y="29"
     inkscape:window-maximized="1"
     inkscape:current-layer="layer1" />
  <defs
     id="defs2">
    <clipPath
       clipPathUnits="userSpaceOnUse"
       id="clipPath1203">
      <rect
         style="fill:#0a66c2;stroke-width:2.2"
         id="rect1205"
         width="34.801373"
         height="32.771526"
         x="28.263504"
         y="62.399708" />
    </clipPath>
  </defs>
  <g
     inkscape:label="Calque 1"
     inkscape:groupmode="layer"
     id="layer1">
    <g
       id="g32718"
       transform="translate(-99.934555,-12.398048)">
      <path
         style="fill:#7ab892;fill-opacity:1;stroke-width:0.352778"
         d="m 133.0931,64.178728 c -1.1239,-5.000508 -4.81197,-10.39122 -9.144,-13.365454 -2.041,-1.401287 -6.88354,-1.994778 -9.69563,-1.188279 -1.64618,0.472115 -2.23936,0.222183 -2.93503,-1.236648 -0.3229,-0.67713 -0.73364,-1.231146 -0.91275,-1.231146 -0.1791,0 -0.60028,-0.873133 -0.93594,-1.940295 -0.67593,-2.148938 -0.58038,-5.8643 0.18221,-7.085405 0.46112,-0.738361 2.92595,-1.910411 4.01762,-1.910411 0.74837,0 0.73293,-0.332439 -0.32875,-7.07485 -0.55669,-3.535366 -0.58279,-4.406776 -0.19668,-6.56729 0.37492,-2.097941 0.66244,-2.724044 1.82192,-3.967477 1.16064,-1.244676 1.84523,-1.612244 4.36134,-2.341689 3.30029,-0.956788 5.68145,-1.186939 7.75432,-0.749492 1.33483,0.281695 1.36444,0.26639 1.19545,-0.617674 l -0.1733,-0.906527 h 22.53993 c 21.14242,0 22.55442,0.03828 22.77354,0.617361 0.12849,0.339549 0.7343,1.331736 1.34624,2.204861 1.31541,1.876833 2.10745,4.519813 1.76427,5.887184 -0.13486,0.537315 -1.03464,2.318221 -1.9995,3.95757 -2.05771,3.496138 -2.1587,4.645603 -0.43877,4.994384 2.52495,0.51203 5.58016,3.768817 6.43958,6.864451 0.46317,1.668334 0.51842,5.569687 0.0911,6.435225 -1.17463,2.379421 -1.74481,3.236999 -2.91615,4.385988 -2.28466,2.241094 -5.02969,3.297075 -9.56964,3.681341 -2.75647,0.23331 -3.14318,0.494482 -2.24066,1.513301 1.08557,1.225461 1.97608,3.297286 1.97608,4.597481 0,1.063085 -0.24517,1.618406 -1.08547,2.458716 -0.5999,0.599902 -1.45854,1.085469 -1.91946,1.085469 -0.4587,0 -0.9321,0.15875 -1.05202,0.352778 -0.31196,0.504761 -2.89295,0.437165 -7.76111,-0.203271 -6.62198,-0.87116 -5.931,-0.408905 -5.65197,-3.781068 0.13175,-1.592157 0.37545,-3.371078 0.54157,-3.953161 1.23808,-4.338277 2.11498,-7.236427 2.50841,-8.290277 0.56208,-1.505622 4.35317,-6.926797 8.50668,-12.164391 1.69536,-2.137849 3.08442,-4.085436 3.08681,-4.32797 0.0147,-1.497107 -3.77192,0.47512 -8.3127,4.32956 -3.16903,2.690032 -3.69619,3.225282 -6.11438,6.208242 l -1.32152,1.630165 -0.43157,-3.049189 c -0.23736,-1.677054 -0.5663,-3.267198 -0.73098,-3.533654 -0.53152,-0.860013 -1.32284,-0.130508 -1.56224,1.440203 -0.5918,3.882804 -1.4235,7.703145 -1.67699,7.703145 -0.15356,0 -0.45819,-0.674688 -0.67695,-1.499306 -0.67909,-2.559772 -4.60615,-9.833864 -5.24349,-9.712521 -0.95424,0.181677 -0.83044,1.462204 0.68139,7.047535 2.49139,9.204304 3.79256,14.819775 4.05069,17.481652 0.23123,2.384517 0.20151,2.557639 -0.43914,2.557639 -0.37794,0 -1.14811,0.227394 -1.7115,0.505323 -1.77252,0.874408 -7.98586,3.72801 -8.11725,3.72801 -0.0691,0 -0.22371,-0.436562 -0.34364,-0.970139 z"
         id="path29300" />
      <path
         style="fill:#f2ebd1;fill-opacity:1;stroke-width:0.352778"
         d="m 163.6061,104.55908 c -1.55222,-0.22999 -4.04149,-0.78714 -5.53172,-1.23811 -2.2205,-0.67197 -2.77584,-0.98708 -3.0771,-1.74598 -0.60475,-1.52342 -3.16036,-11.853316 -3.42378,-13.839056 -0.2276,-1.71576 -0.19808,-1.82528 0.42597,-1.58002 0.36879,0.14493 2.89302,0.4198 5.60941,0.61081 4.32116,0.30385 17.01525,2.20488 17.41898,2.60862 0.081,0.081 -0.34278,1.6982 -0.94173,3.59377 -0.59895,1.89558 -1.40605,4.63713 -1.79356,6.09234 -1.17377,4.407876 -1.61743,5.205786 -3.12774,5.625216 -1.55088,0.4307 -1.83475,0.42418 -5.55873,-0.12759 z m 10.341,-0.85065 c -1.29519,-0.46219 -1.58827,-0.70549 -1.35266,-1.12291 0.16543,-0.29309 0.70228,-2.11872 1.19299,-4.056946 1.02461,-4.04702 1.71871,-6.1699 2.01733,-6.1699 0.11438,0 0.46497,1.38907 0.77908,3.08681 0.31413,1.69774 0.76657,3.98284 1.00545,5.077986 0.38239,1.75309 0.3623,2.10111 -0.16798,2.91042 -0.69089,1.05443 -1.18028,1.0931 -3.47421,0.27454 z m -49.40574,-5.437726 c -0.13504,-0.33791 -1.0051,-1.59644 -1.93345,-2.79675 -1.56964,-2.02945 -3.34057,-3.85039 -10.98823,-11.29854 -8.2688,-8.05309 -10.97379,-15.782116 -7.8948,-22.558056 1.65291,-3.63758 3.49497,-5.942764 7.04308,-8.813852 2.33419,-1.888797 8.42153,-2.490929 11.38675,-1.126325 2.01268,0.926243 5.55668,4.295493 7.16828,6.814831 1.91254,2.989781 2.73828,5.458805 2.95719,8.842237 0.30486,4.711695 -0.70223,8.985205 -4.02669,17.086925 -1.78203,4.34279 -2.78458,8.13271 -3.21957,12.17084 -0.15289,1.41926 -0.34058,2.05894 -0.49256,1.67869 z m -4.41939,-30.880349 c 0.84429,-0.844289 1.06702,-1.420739 1.22588,-3.172622 0.16122,-1.777933 0.0687,-2.343828 -0.54578,-3.338061 -1.07959,-1.746815 -2.11194,-2.180915 -4.51492,-1.898492 -3.42795,0.40289 -5.42133,2.090114 -5.42133,4.588687 0,1.18976 0.23084,1.614268 1.58157,2.90849 2.61527,2.505879 5.71263,2.873947 7.67458,0.911998 z"
         id="path26741" />
      <path
         style="fill:#000000;stroke-width:0.352778"
         d="m 125.30948,102.71154 c -1.21053,-2.57382 -2.63825,-5.153509 -3.17271,-5.732639 -0.53445,-0.57913 -1.31508,-1.54142 -1.73472,-2.13842 -0.41964,-0.597 -2.15417,-2.42263 -3.85452,-4.05695 -9.10532,-8.75174 -11.43364,-11.50179 -13.44298,-15.87789 -2.27449,-4.95358 -2.46131,-9.91832 -0.53173,-14.13075 1.70174,-3.71503 4.40311,-7.0277 7.41167,-9.08886 1.14363,-0.7835 1.14384,-0.78424 0.56315,-1.90806 -0.31951,-0.61834 -0.7862,-1.28301 -1.03708,-1.47704 -1.46284,-1.13132 -2.10437,-7.90173 -0.97437,-10.28303 0.60428,-1.27342 2.65673,-2.59335 4.03258,-2.59335 0.6521,0 0.72301,-0.13539 0.50817,-0.97014 -0.57572,-2.23693 -1.23532,-7.12025 -1.23657,-9.15486 -0.002,-3.78876 0.55472,-5.5097 2.40579,-7.43243 1.44794,-1.504 2.0117,-1.81572 4.6073,-2.5475 2.06567,-0.58237 3.92728,-0.84157 6.17361,-0.85958 3.10019,-0.0248 3.22029,0.004 3.33162,0.78909 0.1091,0.76969 0.0407,0.79904 -1.23472,0.52948 -2.05382,-0.43409 -4.44359,-0.20148 -7.7358,0.75296 -2.51611,0.72945 -3.20069,1.09702 -4.36133,2.34169 -1.15949,1.24343 -1.447,1.86954 -1.82192,3.96748 -0.38611,2.16051 -0.36001,3.03192 0.19667,6.56729 1.06168,6.74241 1.07713,7.07485 0.32875,7.07485 -1.09167,0 -3.5565,1.17205 -4.01761,1.91041 -0.76259,1.22111 -0.85814,4.93647 -0.18222,7.0854 0.33566,1.06717 0.75684,1.9403 0.93595,1.9403 0.17911,0 0.58984,0.55402 0.91274,1.23115 0.69567,1.45883 1.28886,1.70876 2.93503,1.23664 2.8121,-0.8065 7.65463,-0.213 9.69563,1.18828 2.05479,1.41075 4.51314,3.95544 6.0106,6.22171 1.46322,2.21443 2.97896,5.61178 2.99046,6.70278 0.0176,1.66466 1.15212,1.35913 8.60384,-2.3169 0.56338,-0.27793 1.33356,-0.50533 1.7115,-0.50533 0.64064,0 0.67037,-0.17312 0.43913,-2.55764 -0.25813,-2.66187 -1.55929,-8.27734 -4.05069,-17.48165 -1.51182,-5.58533 -1.63563,-6.86586 -0.68139,-7.04753 0.63735,-0.12135 4.5644,7.15275 5.24349,9.71252 0.21877,0.82462 0.5234,1.4993 0.67696,1.4993 0.25349,0 1.08519,-3.82034 1.67699,-7.70314 0.2394,-1.57071 1.03072,-2.30022 1.56224,-1.4402 0.16467,0.26645 0.49361,1.8566 0.73098,3.53365 l 0.43156,3.04919 1.32153,-1.63017 c 2.41819,-2.98296 2.94535,-3.51821 6.11438,-6.20824 4.54078,-3.85444 8.32742,-5.82666 8.31269,-4.32956 -0.002,0.24254 -1.39144,2.19012 -3.0868,4.32797 -4.15351,5.2376 -7.9446,10.65877 -8.50669,12.16439 -0.39343,1.05385 -1.27032,3.952 -2.5084,8.29028 -0.16612,0.58208 -0.40983,2.361 -0.54157,3.95316 -0.27904,3.37216 -0.97002,2.90991 5.65197,3.78107 4.86816,0.64044 7.44915,0.70803 7.76111,0.20327 0.11992,-0.19403 0.59332,-0.35278 1.05202,-0.35278 0.46091,0 1.31955,-0.48557 1.91946,-1.08547 0.8403,-0.84031 1.08547,-1.39563 1.08547,-2.45871 0,-1.3002 -0.89051,-3.37202 -1.97608,-4.59748 -0.90252,-1.01882 -0.51581,-1.28 2.24066,-1.5133 4.53995,-0.38427 7.28498,-1.44025 9.56964,-3.68135 1.17133,-1.14899 1.74152,-2.00656 2.91615,-4.38598 0.42728,-0.86554 0.37203,-4.7669 -0.0911,-6.43523 -0.85942,-3.09563 -3.91463,-6.35242 -6.43959,-6.86445 -1.71992,-0.34878 -1.61893,-1.49825 0.43878,-4.99438 0.96486,-1.63935 1.86464,-3.42026 1.99949,-3.95757 0.34319,-1.36738 -0.44885,-4.01035 -1.76426,-5.88719 -1.50413,-2.1461 -1.73809,-2.82331 -0.97356,-2.81804 0.82098,0.006 3.03007,3.31003 3.59212,5.37312 0.54082,1.98514 0.32914,4.96571 -0.41382,5.82697 -0.29122,0.33758 -0.98905,1.48691 -1.55075,2.55406 -0.56169,1.06716 -1.14032,1.9932 -1.28585,2.05787 -0.57085,0.25371 -0.22219,0.76436 0.52189,0.76436 1.2753,0 4.08883,2.15081 5.42111,4.14418 1.53766,2.30068 2.30576,5.65502 2.01295,8.79069 -0.11477,1.22901 -0.34446,2.23457 -0.51043,2.23457 -0.16597,0 -0.30177,0.39687 -0.30177,0.88194 0,0.48507 -0.15875,0.88195 -0.35277,0.88195 -0.19403,0 -0.35278,0.21065 -0.35278,0.46812 0,0.25747 -0.8524,1.24966 -1.89422,2.20486 -2.70759,2.48248 -4.91542,3.43927 -8.9537,3.88019 -1.21267,0.13241 -2.20486,0.29478 -2.20486,0.36083 0,0.066 0.3175,0.68537 0.70556,1.37628 0.5034,0.89627 0.70555,1.91009 0.70555,3.5385 0,1.25528 -0.14023,2.28233 -0.31163,2.28233 -0.1714,0 -0.39466,0.3175 -0.49614,0.70555 -0.10148,0.38806 -0.43749,0.70556 -0.7467,0.70556 -0.30921,0 -0.56219,0.15875 -0.56219,0.35278 0,0.19403 -0.47625,0.35278 -1.05834,0.35278 -0.58208,0 -1.05833,0.1381 -1.05833,0.30689 0,0.59092 -3.33612,0.67503 -6.68019,0.16841 -1.85569,-0.28113 -4.40585,-0.54276 -5.66703,-0.58142 l -2.29306,-0.0703 -0.10581,7.05555 c -0.0923,6.1576 0.26034,11.48961 0.86402,13.06278 0.2567,0.66895 1.98552,1.19611 4.77199,1.45508 l 2.4073,0.22374 v -1.99094 c 0,-1.72316 0.0905,-1.99094 0.67253,-1.99094 0.49885,0 0.62488,-0.18221 0.48802,-0.70555 -0.22652,-0.86623 0.43074,-0.91087 2.80477,-0.19048 0.91975,0.2791 2.62631,0.61538 3.79236,0.74731 1.75065,0.19806 2.1201,0.35487 2.1201,0.89985 0,0.36299 -0.14902,0.65998 -0.33116,0.65998 -0.18214,0 -0.43829,0.71438 -0.56923,1.5875 -0.13093,0.87313 -0.41847,1.60237 -0.63897,1.62055 -0.2205,0.0182 1.64312,0.40848 4.14139,0.86734 2.49826,0.45887 4.69775,0.88611 4.88773,0.94944 0.52467,0.17489 1.2527,2.46767 2.26908,7.14601 1.23563,5.687479 1.37805,7.584269 0.67196,8.949699 -0.75782,1.46546 -1.85769,1.67445 -4.26215,0.80986 -1.93433,-0.69555 -2.002,-0.69705 -2.64039,-0.0587 -0.36035,0.36035 -1.40512,0.76764 -2.3217,0.90509 -2.03566,0.30527 -7.73005,-0.34858 -10.87939,-1.24922 -1.93824,-0.55428 -2.32162,-0.58065 -2.32162,-0.15965 0,1.17546 -1.03246,0.36341 -1.71363,-1.34782 -1.10657,-2.7799 -3.44799,-12.454899 -4.45294,-18.400069 -0.75716,-4.47923 -0.88844,-6.36251 -0.88534,-12.7 0.006,-13.0024 0.67691,-17.75725 3.63144,-25.75054 0.50544,-1.36742 7.54318,-11.39364 8.85629,-12.61699 0.37755,-0.35174 0.5978,-0.72818 0.48945,-0.83652 -0.27368,-0.27369 -5.09521,3.65363 -7.6444,6.22665 -1.16103,1.1719 -2.63827,2.90824 -3.28273,3.85854 -1.88472,2.77916 -2.42904,2.41993 -2.96707,-1.95815 l -0.26012,-2.11667 -0.80858,3.99395 c -0.44473,2.19667 -0.90863,4.30913 -1.0309,4.69437 -0.4002,1.26093 -1.28546,0.52634 -2.18021,-1.80915 -0.97044,-2.53307 -3.36171,-7.7913 -3.48577,-7.66496 -0.0433,0.0441 0.31119,1.50899 0.78783,3.25524 3.36146,12.31536 3.72633,14.20677 3.91974,20.3189 0.38545,12.18045 -1.90859,26.0192 -5.21786,31.47674 -0.37386,0.61657 -0.84077,1.5179 -1.03757,2.00297 -0.88578,2.18325 -3.01565,5.916439 -3.93431,6.895959 -0.55457,0.59132 -1.00832,1.2446 -1.00832,1.45173 0,0.61757 -1.42283,2.23564 -1.96588,2.23564 -1.10383,0 -0.28591,-1.80676 1.99628,-4.40972 0.86383,-0.98524 3.03499,-4.860729 3.8539,-6.879169 0.1968,-0.48507 0.66371,-1.3864 1.03756,-2.00296 2.13171,-3.51553 3.9303,-10.81966 4.76238,-19.34009 0.58564,-5.99692 0.71372,-10.75972 0.28935,-10.75972 -0.30995,0 -4.2829,1.82368 -7.68053,3.52555 l -2.46944,1.23695 -0.23599,3.175 c -0.31836,4.28339 -1.27519,7.99179 -3.36782,13.05277 -3.07605,7.43935 -3.78148,10.22907 -3.7603,14.87068 0.0136,2.975179 0.0991,3.363429 1.08818,4.938889 1.12861,1.79776 1.53696,4.35571 0.69533,4.35571 -0.2441,0 -1.43426,-2.10585 -2.64479,-4.67967 z m 43.77022,1.83821 c 1.51032,-0.41943 1.95397,-1.21733 3.12774,-5.625209 0.38751,-1.4552 1.19461,-4.19676 1.79356,-6.09233 0.59895,-1.89558 1.02273,-3.51278 0.94173,-3.59378 -0.40373,-0.40373 -13.09782,-2.30476 -17.41898,-2.60862 -2.71639,-0.19101 -5.24062,-0.46587 -5.60941,-0.61081 -0.62404,-0.24525 -0.65357,-0.13574 -0.42597,1.58003 0.26342,1.98573 2.81903,12.31563 3.42378,13.839039 0.30126,0.75891 0.8566,1.07402 3.0771,1.74598 2.37701,0.71933 6.98195,1.58092 9.0595,1.69503 0.38806,0.0213 1.30198,-0.12688 2.03095,-0.32933 z m 8.25648,-1.25277 c 0.53028,-0.80931 0.55037,-1.15733 0.16798,-2.91042 -0.23888,-1.095149 -0.69132,-3.380249 -1.00544,-5.077989 -0.31412,-1.69774 -0.66471,-3.0868 -0.77909,-3.0868 -0.29862,0 -0.99272,2.12287 -2.01733,6.16989 -0.49071,1.938229 -1.02756,3.763859 -1.19299,4.056939 -0.23561,0.41743 0.0575,0.66073 1.35266,1.12291 2.29393,0.81857 2.78332,0.7799 3.47421,-0.27453 z M 125.81353,91.339821 c 0.33974,-1.55222 1.39942,-4.72722 2.35483,-7.05555 2.17344,-5.29669 2.89394,-7.51035 3.6353,-11.16911 0.74468,-3.67516 0.51322,-8.13033 -0.56523,-10.8795 -1.68281,-4.2898 -5.84139,-9.16116 -9.09548,-10.65444 -2.11416,-0.97016 -4.66915,-1.13439 -7.57851,-0.48712 -2.50673,0.5577 -3.19789,0.9362 -5.82878,3.19206 -3.11909,2.67446 -6.04149,8.07132 -6.33604,11.7009 -0.44569,5.49189 2.77616,11.85855 9.13493,18.05144 7.64766,7.44815 9.41859,9.2691 10.98823,11.29854 0.92835,1.20031 1.79841,2.45885 1.93345,2.79675 0.15198,0.38025 0.33967,-0.25943 0.49256,-1.67869 0.13585,-1.26118 0.52499,-3.56306 0.86474,-5.11528 z m -10.71724,-23.13296 c -0.63386,-0.19251 -1.86417,-1.03194 -2.73403,-1.86541 -1.35073,-1.29423 -1.58156,-1.71873 -1.58156,-2.90849 0,-2.49858 1.99337,-4.1858 5.42132,-4.58869 2.40298,-0.28242 3.43533,0.15168 4.51492,1.89849 0.61447,0.99423 0.707,1.56013 0.54578,3.33806 -0.15885,1.75189 -0.38159,2.32833 -1.22588,3.17262 -1.16139,1.16139 -3.05351,1.52653 -4.94055,0.95342 z m 3.96734,-1.87484 c 1.18775,-1.18775 1.50436,-3.20168 0.72954,-4.64045 -0.69004,-1.28132 -2.26776,-2.21125 -2.66396,-1.57017 -0.13951,0.22572 -0.62194,0.29588 -1.14017,0.16581 -1.16412,-0.29217 -3.69912,1.25831 -3.99686,2.4446 -0.44686,1.78045 2.4321,4.38388 4.88997,4.42198 0.95973,0.0149 1.57757,-0.21787 2.18148,-0.82177 z m 46.5553,18.95955 c 0.3133,-1.24832 0.0534,-1.43293 -2.62712,-1.86612 -3.71805,-0.60086 -3.88056,-0.56557 -3.88056,0.84283 0,1.32278 0.21647,1.4232 3.70417,1.71827 0.77611,0.0657 1.67171,0.14607 1.99023,0.17869 0.35756,0.0366 0.6687,-0.29763 0.81328,-0.87367 z m -4.48655,-3.5135 c -0.11723,-0.11722 -0.4215,-0.12975 -0.67616,-0.0278 -0.28142,0.11261 -0.19783,0.19621 0.21313,0.21313 0.37189,0.0153 0.58025,-0.0681 0.46303,-0.18528 z"
         id="path26641" />
    </g>
  </g>
</svg>
