<?xml version="1.0" encoding="UTF-8" standalone="no"?>
<!-- Created with Inkscape (http://www.inkscape.org/) -->

<svg
   width="224mm"
   height="43mm"
   viewBox="0 0 224 43"
   version="1.1"
   id="svg5"
   inkscape:version="1.1.1 (1:1.1+202109281943+c3084ef5ed)"
   sodipodi:docname="portrait.svg"
   xmlns:inkscape="http://www.inkscape.org/namespaces/inkscape"
   xmlns:sodipodi="http://sodipodi.sourceforge.net/DTD/sodipodi-0.dtd"
   xmlns="http://www.w3.org/2000/svg"
   xmlns:svg="http://www.w3.org/2000/svg">
  <sodipodi:namedview
     id="namedview7"
     pagecolor="#505050"
     bordercolor="#eeeeee"
     borderopacity="1"
     inkscape:pageshadow="0"
     inkscape:pageopacity="0"
     inkscape:pagecheckerboard="0"
     inkscape:document-units="mm"
     showgrid="false"
     inkscape:zoom="0.64052329"
     inkscape:cx="245.11209"
     inkscape:cy="286.48451"
     inkscape:window-width="1854"
     inkscape:window-height="1098"
     inkscape:window-x="66"
     inkscape:window-y="29"
     inkscape:window-maximized="1"
     inkscape:current-layer="layer1" />
  <defs
     id="defs2">
    <clipPath
       clipPathUnits="userSpaceOnUse"
       id="clipPath1203">
      <rect
         style="fill:#0a66c2;stroke-width:2.2"
         id="rect1205"
         width="34.801373"
         height="32.771526"
         x="28.263504"
         y="62.399708" />
    </clipPath>
  </defs>
  <g
     inkscape:label="Calque 1"
     inkscape:groupmode="layer"
     id="layer1">
    <path
       style="fill:#000000;stroke-width:0.352778"
       d="m 90.714267,41.049843 c -0.436563,-0.36419 -0.79375,-0.83516 -0.79375,-1.0466 0,-0.21143 -0.40246,-0.38442 -0.894355,-0.38442 -1.187221,0 -2.633423,-0.97953 -2.633423,-1.78364 0,-0.35429 -0.15875,-0.74228 -0.352778,-0.86219 -0.194028,-0.11992 -0.352778,-0.49244 -0.352778,-0.82784 0,-0.33539 -0.79375,-1.39161 -1.763889,-2.34716 -0.970139,-0.95556 -1.763889,-1.94177 -1.763889,-2.1916 0,-0.24983 -0.146138,-0.45424 -0.324746,-0.45424 -0.178611,0 -0.429352,-0.47625 -0.557198,-1.05833 -0.127847,-0.58208 -0.358296,-1.05833 -0.51211,-1.05833 -0.153811,0 -0.386786,-0.66993 -0.517716,-1.48874 -0.130933,-0.8188 -0.429034,-1.60676 -0.662449,-1.75102 -0.613548,-0.37919 -0.59823,-12.42613 0.01658,-13.04094 0.242535,-0.24253 0.440972,-0.87758 0.440972,-1.41122 0,-0.53363 0.258512,-1.11492 0.574471,-1.29173 0.392761,-0.2198097 0.448553,-0.3993097 0.176389,-0.5675197 -0.218945,-0.13532 -0.398082,-0.62795 -0.398082,-1.09474 0,-0.90713 0.890859,-1.57909 2.093475,-1.57909 0.412592,0 0.728748,-0.22957 0.728748,-0.52917 0,-0.29104 0.261461,-0.52917 0.581028,-0.52917 0.884464,0 3.652305,-2.42402 3.652305,-3.19861 0,-0.51949 0.247163,-0.68194 1.037513,-0.68194 0.570632,0 1.135627,0.15875 1.255543,0.35278 0.119916,0.19402 1.657858,0.35277 3.417648,0.35277 3.161196,0 3.216028,0.0148 4.566306,1.23473 0.751678,0.67909 1.651985,1.23472 2.000674,1.23472 0.908324,0 1.480654,0.69803 1.480654,1.80585 0,0.52756 0.26499,1.488 0.58886,2.13431 0.32387,0.64631 0.71277,1.4380097 0.86422,1.7593197 0.15146,0.32132 0.38502,1.79417 0.51903,3.273 0.13401,1.47883 0.38011,2.77312 0.54688,2.8762 0.40614,0.251 0.39063,8.164 -0.0165,8.41561 -0.17585,0.10869 -0.43175,1.03087 -0.56866,2.0493 -0.13692,1.01842 -0.36922,2.01044 -0.51622,2.20446 -0.147,0.19403 -0.37155,0.93214 -0.499,1.64025 -0.12745,0.70811 -0.46565,1.48161 -0.75156,1.71889 -0.2859,0.23728 -0.51983,0.58757 -0.51983,0.77842 0,0.19086 -0.39688,0.65919 -0.881946,1.04075 -0.667946,0.5254 -0.881945,1.02335 -0.881945,2.05217 0,1.51846 -1.507144,3.70325 -2.335385,3.38543 -0.261843,-0.10048 -0.648808,0.14006 -0.859928,0.53454 -0.29053,0.54287 -0.673188,0.69231 -1.573957,0.61471 -0.654562,-0.0564 -1.304456,0.0118 -1.444216,0.15157 -0.437021,0.43702 -1.339458,0.25714 -2.164986,-0.43154 z m 5.792068,-8.05316 c 0.819094,-1.78612 0.593037,-2.21854 -0.776591,-1.48554 -0.453189,0.24254 -1.151907,0.35523 -1.552712,0.25041 -0.400805,-0.10481 -0.728737,-0.0467 -0.728737,0.12919 0,0.17586 -1.190625,0.31975 -2.645834,0.31975 -2.770328,0 -2.856572,0.0596 -2.423481,1.67569 0.203027,0.7576 0.375518,0.79341 3.787543,0.78619 l 3.574828,-0.008 0.764984,-1.66813 z m 4.372735,-4.36206 c 0.15743,-0.31749 0.39644,-1.55136 0.53113,-2.74192 0.1347,-1.19057 0.38275,-2.24986 0.55123,-2.35398 0.41814,-0.25843 0.39067,-5.08657 -0.0289,-5.08657 -0.1844,0 -0.44303,-0.9525 -0.57474,-2.11666 -0.13171,-1.16417 -0.3651,-2.11667 -0.51865,-2.11667 -0.15355,0 -0.38024,-0.46011 -0.50376,-1.02246 -0.27045,-1.23136 -0.897871,-1.45252 -4.302064,-1.51644 -1.830204,-0.0344 -2.778453,0.11508 -3.427173,0.54014 -0.974968,0.63882 -3.72582,0.79075 -4.718844,0.26062 -0.933033,-0.4981 -1.929578,-0.80632 -2.919321,-0.90292 -1.04793,-0.10227 -1.657445,0.89643 -1.988643,3.25842 -0.11563,0.82462 -0.347405,1.49931 -0.51506,1.49931 -0.167657,0 -0.304828,0.71437 -0.304828,1.5875 0,1.37256 -0.09933,1.5875 -0.733633,1.5875 -0.694965,0 -0.720598,0.12552 -0.486322,2.38125 0.136024,1.30968 0.368455,2.54 0.516509,2.73402 0.148058,0.19403 0.379473,0.86852 0.514252,1.49886 0.449424,2.10186 2.301183,5.38031 3.038951,5.38031 0.426124,0 0.678021,-0.24408 0.678021,-0.65698 0,-0.60483 0.320555,-0.65383 4.039006,-0.61736 2.807113,0.0275 4.173598,-0.0949 4.480278,-0.40135 0.259595,-0.25942 1.3563,-0.44098 2.663773,-0.44098 h 2.2225 l 0.0049,1.49931 0.0049,1.49931 0.745155,-1.5875 c 0.409833,-0.87313 0.873963,-1.84727 1.031393,-2.16476 z M 86.392739,8.7715833 c 0,-0.37234 -0.67702,-0.52878 -0.878389,-0.20296 -0.12187,0.19719 0.02591,0.35853 0.328401,0.35853 0.302493,0 0.549988,-0.07 0.549988,-0.15557 z m 1.411111,-2.51108 c 0,-0.30249 -0.15875,-0.45187 -0.352778,-0.33196 -0.194028,0.11992 -0.352778,0.36741 -0.352778,0.54999 0,0.18258 0.15875,0.33196 0.352778,0.33196 0.194028,0 0.352778,-0.2475 0.352778,-0.54999 z M 8.7270257,37.413963 c -1.018646,-1.01865 -2.001092,-1.85208 -2.183212,-1.85208 -0.182121,0 -0.507181,-0.31688 -0.722355,-0.70417 -0.215174,-0.38729 -0.827788,-1.28326 -1.361365,-1.99104 -0.533576,-0.70778 -0.970139,-1.7006 -0.970139,-2.20625 0,-0.50566 -0.147327,-0.91938 -0.327393,-0.91938 -0.180066,0 -0.439668,-0.91281 -0.576893,-2.02847 -0.137225,-1.11566 -0.412417,-2.13306 -0.611538,-2.2609 -0.558372,-0.35848 -0.543017,-12.48931 0.01652,-13.0493 0.242535,-0.24273 0.440972,-0.89533 0.440972,-1.45022 0,-1.4385297 3.111292,-4.6394197 5.632407,-5.7946197 1.073774,-0.49202 2.2660283,-1.05952 2.6494543,-1.26112 0.383426,-0.2016 1.772489,-0.44349 3.086806,-0.53752 2.046023,-0.1464 2.389668,-0.0881 2.389668,0.40558 0,0.42111 0.325099,0.57657 1.205738,0.57657 1.029846,0 2.803235,0.74439 5.495692,2.30683 1.205258,0.69942 1.765236,1.31055 1.765236,1.92651 0,0.34054 0.238126,0.81679 0.529167,1.05833 0.359421,0.29829 0.529167,1.0976097 0.529167,2.4918197 0,1.12896 0.15875,2.15076 0.352778,2.27068 0.448959,0.27747 0.462738,4.5713 0.01729,5.38465 -0.184524,0.33691 -0.434072,1.52538 -0.554553,2.64104 -0.12048,1.11566 -0.347888,2.02848 -0.50535,2.02848 -0.157463,0 -0.396621,1.0302 -0.531464,2.28934 -0.134842,1.25914 -0.373464,2.36863 -0.530271,2.46555 -0.156809,0.0969 -0.395845,0.77327 -0.531195,1.50301 -0.13535,0.72975 -0.629595,1.83216 -1.098328,2.44981 -0.468728,0.61764 -0.852233,1.26119 -0.852233,1.4301 0,0.41923 -1.944857,2.16953 -3.938228,3.54426 -1.496109,1.03179 -1.886147,1.13459 -4.304732,1.13459 H 10.57911 Z m 6.9337633,-5.90903 c 0.119917,-0.19403 0.777516,-0.35278 1.46133,-0.35278 1.793049,0 1.370707,-0.89046 -0.755774,-1.59345 -1.007392,-0.33304 -4.762972,-0.39789 -4.762715,-0.0822 1.18e-4,0.14552 -0.39666,0.26458 -0.88173,0.26458 -0.646759,0 -0.8819443,0.18815 -0.8819443,0.70556 0,0.46322 0.2351853,0.70555 0.6847353,0.70555 0.376605,0 0.782849,0.15875 0.902765,0.35278 0.119916,0.19403 1.072416,0.35278 2.116667,0.35278 1.04425,0 1.99675,-0.15875 2.116666,-0.35278 z m -8.5849003,-3.52778 c 0.197848,0 0.76336,-0.3175 1.256693,-0.70555 0.58156,-0.45746 1.431143,-0.70556 2.4160743,-0.70556 0.835507,0 1.617217,-0.15875 1.737133,-0.35278 0.266588,-0.43134 4.646087,-0.47376 4.909503,-0.0475 0.103752,0.16787 0.76781,0.39921 1.475684,0.51408 0.707877,0.11488 1.581877,0.47568 1.942229,0.8018 0.954793,0.86407 1.612445,0.14869 1.911978,-2.07983 0.135604,-1.00889 0.391795,-2.0145 0.569309,-2.23469 0.177518,-0.22019 0.421301,-1.45561 0.54174,-2.74539 0.120442,-1.28977 0.354301,-2.42867 0.519687,-2.53089 0.395849,-0.24464 0.388465,-2.16499 -0.0093,-2.4108 -0.170483,-0.10536 -0.379963,-1.15922 -0.465511,-2.34191 -0.08555,-1.18268 -0.330352,-2.25837 -0.544005,-2.39042 -0.213656,-0.13205 -0.497635,-0.67506 -0.631066,-1.2066897 -0.133417,-0.53163 -0.408835,-0.9666 -0.612021,-0.9666 -0.203185,0 -0.892979,-0.39934 -1.532876,-0.88741 -0.639896,-0.48807 -1.289879,-0.85931 -1.444409,-0.82498 -0.154531,0.0343 -0.757213,-0.14435 -1.339297,-0.39708 -0.582083,-0.25274 -1.574574,-0.42493 -2.205538,-0.38266 -0.76913,0.0515 -1.217235,-0.10564 -1.359697,-0.47689 -0.218059,-0.56825 -1.632464,-0.45784 -2.464446,0.19238 -0.21188,0.16559 -0.480553,0.20575 -0.59705,0.0893 -0.116498,-0.1165 -0.736891,0.16207 -1.3786533,0.61905 -0.641761,0.45697 -1.223068,0.772 -1.291794,0.70006 -0.251789,-0.26357 -3.226434,2.47772 -3.226434,2.9733197 0,0.28139 -0.146136,0.51161 -0.324748,0.51161 -0.178611,0 -0.435067,0.51594 -0.569902,1.14653 -0.134836,0.63059 -0.404022,1.34377 -0.598192,1.58485 -0.464436,0.57663 -0.479605,10.16728 -0.01701,10.75417 0.194725,0.24705 0.449004,1.16355 0.565064,2.03667 0.11606,0.87313 0.409607,2.0029 0.652328,2.5106 l 0.441309,0.9231 0.656736,-0.8349 c 0.361202,-0.4592 0.818609,-0.83491 1.016457,-0.83491 z m 0.6474,-5.27117 c -0.291042,-0.15993 -1.005417,-0.43065 -1.5875,-0.60159 -0.582084,-0.17095 -1.21504,-0.66576 -1.40657,-1.09958 -0.191531,-0.43382 -0.469343,-0.78877 -0.617362,-0.78877 -0.148018,0 -0.269124,-0.47625 -0.269124,-1.05833 0,-0.58208 0.121106,-1.05833 0.269124,-1.05833 0.148019,0 0.425831,-0.35719 0.617362,-0.79375 0.322015,-0.73399 0.607229,-0.80136 3.78782,-0.89472 2.2029653,-0.0647 3.4395843,0.0305 3.4395843,0.26458 0,0.47143 3.76615,0.48329 4.056944,0.0128 0.120347,-0.19472 1.704619,-0.35277 3.536185,-0.35277 3.730452,0 4.048538,0.20818 4.048538,2.64977 0,0.94995 -0.268905,1.55396 -1.031198,2.31625 -0.915253,0.91526 -1.274127,1.0312 -3.191845,1.0312 -1.88334,0 -2.271677,-0.11981 -3.025747,-0.93346 -0.607162,-0.65514 -0.865099,-1.33883 -0.865099,-2.29305 0,-1.31865 -0.0372,-1.3596 -1.234723,-1.3596 -1.197527,0 -1.234722,0.0409 -1.234722,1.3596 0,2.54677 -3.2207803,4.73779 -5.2916673,3.59978 z m 2.033259,-0.7003 c 0.3369163,-0.17986 0.8917603,-0.41353 1.2329883,-0.51926 0.911169,-0.28234 1.444352,-1.73092 1.171816,-3.18366 l -0.2367,-1.26172 H 8.5892477 c -2.729618,0 -3.335404,0.0961 -3.335404,0.52917 0,0.29104 -0.15875,0.52917 -0.352777,0.52917 -0.194028,0 -0.352778,0.40449 -0.352778,0.89886 0,1.06847 1.588972,2.60155 2.713208,2.61777 0.425112,0.006 0.871043,0.16989 0.990959,0.36392 0.271715,0.43965 0.714599,0.44723 1.504092,0.0257 z m 12.4342793,-1.26377 c 0.560345,-0.50711 0.710607,-1.00635 0.630579,-2.09511 l -0.10506,-1.42937 -2.767472,-0.10363 c -3.200248,-0.11985 -3.758918,0.17311 -3.758918,1.97113 0,1.99845 0.847408,2.64228 3.249112,2.46856 1.319999,-0.0955 2.270115,-0.3757 2.751759,-0.81158 z m 25.516383,15.7371 c -2.422405,-0.62117 -3.421476,-1.51993 -4.76697,-4.28837 -0.954338,-1.96361 -1.418894,-3.54054 -1.763889,-5.98748 l -0.468338,-3.32182 -1.234722,-0.36251 c -2.25709,-0.66268 -2.238294,-0.61773 -1.97322,-4.71773 0.132426,-2.04835 0.378245,-3.89076 0.546262,-4.09424 0.168018,-0.20349 0.416737,-0.9653 0.552704,-1.6929 0.135971,-0.7276 0.375691,-1.32292 0.532709,-1.32292 0.157018,0 0.384461,-0.45063 0.505432,-1.0013997 0.272736,-1.24177 4.203718,-5.3486 5.119575,-5.3486 0.369668,0 0.770233,-0.15875 0.89015,-0.35277 0.305629,-0.49452 6.286236,-0.45183 6.786506,0.0485 0.24886,0.24885 1.549492,0.37591 3.424908,0.33458 2.328962,-0.0513 3.286429,0.0776 4.167248,0.56132 1.473948,0.80938 4.847728,4.01065 4.847728,4.59984 0,0.24917 0.146138,0.45303 0.324746,0.45303 0.178611,0 0.429352,0.4762497 0.557198,1.0583297 0.127847,0.58208 0.360561,1.05833 0.517141,1.05833 0.15658,0 0.39182,0.71438 0.522753,1.5875 0.130934,0.87313 0.369059,1.5875 0.529167,1.5875 0.160108,0 0.398233,0.71438 0.529167,1.5875 0.130933,0.87313 0.394931,1.5875 0.586662,1.5875 0.191731,0 0.347352,0.75407 0.345825,1.6757 -0.0014,0.92163 0.0071,2.07257 0.01915,2.55764 0.01206,0.48507 0.008,1.19944 -0.009,1.5875 -0.01704,0.38805 0.0062,1.26118 0.05159,1.94027 0.06538,0.97762 -0.07868,1.30551 -0.691836,1.57464 -0.425926,0.18695 -0.874857,0.74257 -0.997624,1.23472 -0.348065,1.39532 -1.215517,2.12953 -2.515976,2.12953 -0.888164,0 -1.18037,-0.1527 -1.181365,-0.61736 -7.05e-4,-0.41287 -0.230709,-0.24114 -0.693882,0.5185 -1.076935,1.76626 -3.301312,3.14773 -7.009176,4.35312 -3.64224,1.18405 -6.25728,1.53246 -8.050594,1.0726 z m 7.5184,-2.20773 c 3.878489,-1.23631 5.671267,-2.45742 6.835942,-4.65617 0.479305,-0.90486 1.124165,-1.72567 1.433025,-1.82403 1.517185,-0.48315 3.069668,-3.59151 2.584715,-5.17507 -0.14956,-0.48837 -0.406322,-0.35181 -1.393998,0.74143 -1.309416,1.44937 -4.19971,3.17182 -4.618916,2.75262 -0.142134,-0.14214 0.0066,-0.81425 0.330574,-1.49358 0.638895,-1.33977 1.225963,-4.39088 0.7617,-3.9587 -0.156774,0.14595 -0.564367,0.0126 -0.905753,-0.29638 -0.824142,-0.74583 -1.707688,-0.40309 -2.78794,1.0815 -1.77577,2.44044 -4.927431,2.61331 -6.971898,0.38241 -1.337035,-1.45896 -2.568738,-1.6436 -3.08681,-0.46274 -0.458145,1.04426 -2.478757,2.02724 -4.16863,2.02792 -1.284799,5.3e-4 -1.341589,0.048 -1.159888,0.97069 0.105082,0.53358 0.299558,1.76389 0.432171,2.73403 0.132612,0.97014 0.759379,2.90338 1.392812,4.29609 1.226651,2.697 2.199849,3.51835 4.742798,4.00273 1.604109,0.30556 2.669575,0.12376 6.580096,-1.12275 z m 9.646829,-5.41321 c -0.266164,-0.32071 -0.116141,-0.60149 0.55705,-1.04258 0.99373,-0.65111 2.807089,-4.18717 2.446483,-4.77064 -0.120862,-0.19556 -0.552482,-0.53364 -0.95915,-0.75128 -0.633441,-0.33901 -0.706505,-0.30999 -0.509835,0.20252 0.462065,1.20412 -0.186958,3.32245 -1.400919,4.57243 -0.93671,0.9645 -1.1886,1.51272 -1.179372,2.56684 l 0.01175,1.3404 0.699131,-0.83939 c 0.499202,-0.59935 0.594967,-0.96491 0.334875,-1.2783 z m 1.181552,1.41577 c 0.289045,-0.28905 0.630498,-1.00342 0.758783,-1.5875 0.128284,-0.58408 0.439321,-1.06196 0.691187,-1.06196 0.775511,0 1.342834,-0.99276 1.106173,-1.9357 -0.276207,-1.1005 -0.771031,-1.14445 -1.044628,-0.0928 -0.113573,0.43657 -0.659267,1.27204 -1.212659,1.85662 -0.553389,0.58458 -0.943628,1.25046 -0.867202,1.47975 0.07643,0.22928 -0.03567,0.74318 -0.249107,1.14199 -0.456618,0.8532 0.04207,0.97495 0.817453,0.19958 z m -2.261249,-6.41646 c 1.707815,-1.46182 1.915632,-2.36183 0.46319,-2.00598 -0.533577,0.13073 -1.020082,0.36295 -1.08112,0.51605 -0.24651,0.61831 -2.182075,2.8593 -2.182075,2.52641 0,-0.19695 0.248592,-0.56441 0.552429,-0.81657 0.516354,-0.42853 1.564238,-2.17631 1.564238,-2.60901 0,-0.10665 -0.28514,-0.1939 -0.633645,-0.1939 -0.456996,0 -0.791994,0.51603 -1.20166,1.85106 -0.312413,1.01809 -0.503365,1.95569 -0.424339,2.08355 0.272813,0.44143 1.514394,-0.12879 2.942982,-1.35161 z m -18.123928,-1.38232 c 2.033164,-0.9648 2.054239,-2.87135 0.03979,-3.59978 -1.693606,-0.61242 -2.820971,-0.52216 -3.699348,0.29617 -0.860792,0.80195 -1.03329,2.54157 -0.331104,3.33912 0.592554,0.67302 2.533936,0.65575 3.990662,-0.0355 z m 11.16734,-0.81879 c 1.052625,-1.17809 1.251123,-2.19452 0.540611,-2.76826 -1.326007,-1.07075 -5.966217,-0.69688 -7.08295,0.57069 -0.707947,0.80357 -0.198342,1.9823 1.249924,2.89111 1.701733,1.06787 3.986061,0.76853 5.292415,-0.69354 z m 11.504331,0.24084 c -0.364331,-0.66148 -0.660136,-0.80332 -1.329595,-0.63758 -0.855528,0.2118 -0.853341,0.21802 0.343517,0.97581 1.413775,0.89514 1.625417,0.82255 0.986078,-0.33823 z m -29.572749,-3.24775 c 0,-1.63778 0.15875,-3.0759 0.352777,-3.19582 0.194028,-0.11991 0.352778,-0.59249 0.352778,-1.05017 0,-1.29595 1.604233,-4.17522 3.234786,-5.8057697 2.132979,-2.13298 3.868653,-2.89291 7.097984,-3.10771 1.801802,-0.11985 2.703104,-0.31874 2.61752,-0.57762 -0.171817,-0.51975 -5.52618,-0.72811 -6.020019,-0.23427 -0.202731,0.20273 -0.750983,0.3686 -1.21834,0.3686 -1.056012,0 -4.506461,3.34787 -4.846408,4.70233 -0.130052,0.5181597 -0.368268,0.9421097 -0.529375,0.9421097 -0.161103,0 -0.402043,0.75407 -0.535421,1.6757 -0.133379,0.92163 -0.384179,1.85426 -0.557333,2.07251 -0.513235,0.64689 -0.836224,7.1879 -0.354933,7.1879 0.274062,0 0.405984,-0.96761 0.405984,-2.97779 z m 2.189183,1.93809 c 0.08393,-0.57183 0.02258,-0.95934 -0.136348,-0.86112 -0.282843,0.1748 -0.421407,1.90082 -0.152598,1.90082 0.07499,0 0.205017,-0.46786 0.288946,-1.0397 z m 23.210818,0.33415 c 0,-0.19403 -0.15875,-0.35278 -0.352777,-0.35278 -0.194028,0 -0.352778,0.15875 -0.352778,0.35278 0,0.19403 0.15875,0.35278 0.352778,0.35278 0.194027,0 0.352777,-0.15875 0.352777,-0.35278 z m -2.221459,-1.69057 c -0.718474,-0.73579 -1.306319,-1.52954 -1.306319,-1.76389 0,-0.23435 -0.146138,-0.4261 -0.324746,-0.4261 -0.178611,0 -0.430378,-0.48092 -0.559477,-1.0687 -0.255725,-1.16432 -2.050817,-4.89248 -2.525462,-5.24506 -0.823892,-0.61199 -1.949535,-2.1528997 -1.572712,-2.1528997 0.545881,0 2.861786,2.4960297 2.864044,3.0867997 0.0011,0.24254 0.147825,0.44097 0.326433,0.44097 0.178611,0 0.429351,0.47625 0.557198,1.05834 0.127847,0.58208 0.358295,1.05833 0.51211,1.05833 0.153811,0 0.381201,0.635 0.505305,1.41111 0.124103,0.77611 0.38252,1.41111 0.574255,1.41111 0.191735,0 0.353649,0.19844 0.359809,0.44097 0.01429,0.56248 2.377549,2.93232 2.651245,2.65862 0.112931,-0.11293 -0.268073,-1.09247 -0.846678,-2.17675 -0.578608,-1.08428 -1.157097,-2.44987 -1.285532,-3.03463 -0.128436,-0.58476 -0.379656,-1.06321 -0.558268,-1.06321 -0.178608,0 -0.324746,-0.31807 -0.324746,-0.70683 0,-1.65141 -1.573149,-3.6225897 -3.527778,-4.4203597 -0.291042,-0.11879 -0.786606,-0.35176 -1.101256,-0.51772 -0.350262,-0.18474 -0.726433,-0.1474 -0.970139,0.0963 -0.556225,0.55622 -0.502027,0.89541 0.307506,1.9245597 0.388056,0.49333 0.705556,1.27244 0.705556,1.73134 0,0.4589 0.138299,0.83437 0.307329,0.83437 0.16903,0 0.412623,0.79375 0.541316,1.76389 0.128694,0.97014 0.368756,1.76389 0.533471,1.76389 0.164716,0 0.399909,0.27781 0.522655,0.61736 0.695882,1.92502 2.614714,3.5476 4.252242,3.59572 0.568399,0.0167 0.460372,-0.21384 -0.617361,-1.31754 z m 4.995386,0.72043 c -0.727851,-0.88034 -2.068371,-3.76334 -2.068371,-4.44836 0,-0.3183 -0.15875,-0.57872 -0.352778,-0.57872 -0.194028,0 -0.352778,-0.31262 -0.352778,-0.6947 0,-0.85566 -1.364375,-3.53864 -1.799509,-3.53864 -0.174438,0 -0.317157,-0.22341 -0.317157,-0.49647 0,-0.2730597 -0.793888,-1.2102497 -1.764196,-2.0826397 -1.525669,-1.37171 -2.014566,-1.60562 -3.615973,-1.73001 -2.159829,-0.16778 -2.733721,-0.0329 -2.733721,0.6427 0,0.34006 0.445047,0.49142 1.444876,0.49142 1.998726,0 5.257902,1.89685 5.257902,3.0601097 0,0.25722 0.151557,0.46767 0.336794,0.46767 0.185233,0 0.446257,0.59531 0.580051,1.32292 0.133795,0.7276 0.339425,1.40229 0.456957,1.4993 0.317161,0.26179 1.364615,2.51563 1.639503,3.52778 0.325963,1.2002 2.258963,3.175 3.107796,3.175 0.617386,0 0.636633,-0.0658 0.180604,-0.61736 z m -17.118017,-0.59285 c 1.126543,-1.12654 3.468141,-1.736 5.499563,-1.4314 1.964291,0.29454 2.847305,0.73469 2.847305,1.4193 0,0.28422 0.15875,0.51675 0.352777,0.51675 0.541091,0 0.439809,-0.30968 -0.715172,-2.18677 -0.587375,-0.9546 -1.164576,-2.4406 -1.282675,-3.30221 -0.118096,-0.86161 -0.351893,-1.56657 -0.519547,-1.56657 -0.167657,0 -0.304828,-0.37547 -0.304828,-0.83437 0,-0.4589 -0.277812,-1.21479 -0.617361,-1.67974 -0.339549,-0.4649597 -0.794385,-1.1610597 -1.010747,-1.5468897 -0.326292,-0.58185 -0.685557,-0.67991 -2.106429,-0.57494 -0.942175,0.0696 -2.052282,0.25555 -2.466909,0.41319 -1.058619,0.40248 -5.087444,4.1956897 -5.087444,4.7899097 0,0.27015 -0.140236,0.49117 -0.311633,0.49117 -0.171397,0 -0.412111,0.27782 -0.534917,0.61736 -0.122805,0.33955 -0.687846,1.41111 -1.255642,2.38125 -1.253899,2.14242 -1.311861,2.50051 -0.288756,1.7839 0.431225,-0.30205 1.230077,-0.54917 1.775217,-0.54917 1.320303,0 3.396326,0.89214 3.657046,1.57157 0.30915,0.80564 1.395314,0.6625 2.370152,-0.31234 z m 18.224646,0.1922 c 0,-0.17185 -0.237148,-0.76716 -0.526993,-1.32291 -0.289846,-0.55576 -0.527971,-1.35829 -0.529167,-1.7834 -0.0011,-0.42511 -0.142928,-0.85992 -0.31496,-0.96624 -0.172032,-0.10632 -0.414927,-0.73778 -0.539768,-1.40324 -0.53152,-2.83324 -3.058654,-6.4918197 -5.579438,-8.0774497 -1.024813,-0.64462 -4.905122,-1.31734 -5.978907,-1.03654 -1.222191,0.31961 -0.631849,0.61505 1.369953,0.68559 1.879551,0.0662 4.338169,0.97124 4.338169,1.59687 0,0.1499 0.238125,0.27255 0.529166,0.27255 0.291042,0 0.533577,0.19844 0.538967,0.44097 0.0054,0.24254 0.486467,0.90883 1.069061,1.48064 0.582595,0.5718197 1.151019,1.4052497 1.263167,1.8520797 0.112148,0.44683 0.343567,0.81242 0.514269,0.81242 0.170702,0 0.411907,0.635 0.536011,1.41111 0.124103,0.77612 0.364105,1.41112 0.533336,1.41112 0.169228,0 0.30769,0.24795 0.30769,0.55101 0,0.79447 1.754402,4.38787 2.142285,4.38787 0.179938,0 0.327159,-0.1406 0.327159,-0.31245 z m -28.331822,-3.12713 c -0.08873,-0.33955 -0.161335,-0.0617 -0.161335,0.61736 0,0.6791 0.0726,0.95691 0.161335,0.61736 0.08873,-0.33955 0.08873,-0.89517 0,-1.23472 z m 2.056349,-0.11766 c 0.124288,-0.56588 0.372114,-1.02887 0.550725,-1.02887 0.178608,0 0.324746,-0.2431 0.324746,-0.54023 0,-0.29714 0.223799,-0.62612 0.497329,-0.73109 0.273533,-0.10496 0.594057,-0.57623 0.712276,-1.04726 0.118223,-0.47103 0.370674,-0.85642 0.561005,-0.85642 0.190331,0 0.346057,-0.23812 0.346057,-0.52916 0,-0.29104 0.230237,-0.52917 0.511637,-0.52917 0.281401,0 0.638588,-0.20406 0.79375,-0.45347 0.155163,-0.2494 1.01284,-1.0431497 1.905946,-1.7638797 1.289156,-1.04034 1.925359,-1.31043 3.086806,-1.31043 0.850212,0 1.462973,-0.16656 1.462973,-0.39766 0,-0.64357 -3.265717,-0.16295 -4.986222,0.73383 -1.893012,0.98669 -4.782337,3.8683397 -5.084078,5.0705597 -0.123162,0.49072 -0.447728,0.9781 -0.721261,1.08306 -0.27353,0.10497 -0.497329,0.5927 -0.497329,1.08386 0,0.49116 -0.15875,0.89302 -0.352778,0.89302 -0.601256,0 -0.388581,-1.4307 0.352778,-2.37318 0.388056,-0.49334 0.705556,-1.07859 0.705556,-1.30056 0,-0.56387 4.19093,-4.5472097 5.434609,-5.1654197 0.805261,-0.40028 0.891057,-0.53557 0.400371,-0.63133 -1.273412,-0.24852 -5.482202,2.60652 -5.482202,3.7188597 0,0.25298 -0.147613,0.45996 -0.328031,0.45996 -0.180414,0 -0.676928,0.69861 -1.103358,1.55245 -0.645217,1.29193 -0.734332,1.88062 -0.531012,3.50792 0.269321,2.15559 1.024202,2.44638 1.439707,0.55461 z M 52.349681,6.1049333 c -0.119916,-0.19403 -1.002411,-0.35278 -1.961099,-0.35278 -0.958688,0 -1.743068,0.15875 -1.743068,0.35278 0,0.19403 0.882495,0.35278 1.961099,0.35278 1.217563,0 1.878432,-0.13375 1.743068,-0.35278 z M 181.08366,36.313123 c -1.17538,-0.53117 -2.61591,-2.13667 -2.61591,-2.91549 0,-0.67944 -0.28044,-0.60518 -1.45876,0.38632 -2.01064,1.69184 -5.76201,1.65629 -9.14146,-0.0866 l -2.09978,-1.08294 v 0.86157 c 0,1.66867 -3.20451,2.841 -5.05028,1.84759 -0.4238,-0.2281 -1.33835,-0.38204 -2.03232,-0.34209 -1.69684,0.0977 -3.22892,-1.08048 -3.07925,-2.3679 0.15381,-1.32297 1.25736,-1.44819 1.40514,-0.15945 0.0884,0.77083 0.31926,1.01495 1.03872,1.09839 1.41165,0.1637 1.50652,-0.77074 0.30893,-3.04268 -0.58085,-1.10192 -1.05644,-2.2813 -1.05685,-2.62085 -7.1e-4,-0.46596 -0.29297,-0.61736 -1.19229,-0.61736 -0.65533,0 -1.38054,-0.22776 -1.61157,-0.50613 -0.58022,-0.69912 -0.32381,-2.69379 0.40493,-3.14998 0.82313,-0.51529 1.17979,-0.0461 0.72453,0.95308 -0.23664,0.51937 -0.25532,1.01275 -0.0501,1.3244 0.2669,0.40539 0.45537,0.34361 1.02539,-0.33615 0.83485,-0.99555 0.88382,-2.09743 0.16923,-3.80769 -0.97135,-2.32477 -0.57222,-5.79262 0.75705,-6.5777 0.2968,-0.17529 0.47767,-0.92707 0.47767,-1.98539 0,-3.11632 1.44338,-5.1578797 4.49791,-6.3619697 0.83887,-0.33068 1.14653,-0.67384 1.14653,-1.27883 0,-1.40919 1.90302,-3.19924 3.91404,-3.68167 2.26971,-0.5445 5.57409,-0.29657 6.1271,0.45972 0.33925,0.46395 0.6767,0.50142 1.9465,0.21612 1.98484,-0.44597 3.46397,-0.11796 4.71261,1.04507 1.39357,1.29802 1.99698,2.59271 1.99698,4.28482 0,1.29515 0.12005,1.49858 1.14652,1.94271 3.33377,1.4424497 5.20348,3.8494397 5.20348,6.6987497 0,1.00815 0.25561,2.34539 0.56804,2.97165 0.72837,1.46007 0.44535,2.93092 -0.93489,4.85855 -0.90834,1.26859 -1.02662,1.68201 -0.83107,2.90488 0.16359,1.02309 0.0683,1.66958 -0.33756,2.28892 -0.512,0.78142 -0.51432,0.98571 -0.0245,2.15798 0.73752,1.76516 0.52849,3.29935 -0.55668,4.08561 -1.20742,0.87484 -4.11883,1.15803 -5.49798,0.53477 z m -5.0022,-3.51434 c 0.54801,-0.40516 1.55505,-1.45374 2.23788,-2.33017 3.31591,-4.25612 4.65147,-9.61875 3.57383,-14.34993 -0.67753,-2.97456 -1.97984,-5.97162 -3.2516,-7.4830297 -1.1318,-1.34506 -3.5966,-2.85455 -5.28168,-3.2346 -1.44088,-0.32497 -1.94164,0.10757 -2.85692,2.46777 -0.73981,1.9077 -2.6698,4.6618897 -3.76559,5.3736597 -0.43628,0.28339 -1.66637,0.79916 -2.73352,1.14614 -2.32871,0.75718 -2.01334,0.53041 -2.29428,1.64975 -0.18536,0.73854 -0.0902,0.9821 0.45095,1.15385 0.49859,0.15824 1.07345,-0.16986 2.10506,-1.20146 1.20838,-1.20839 1.64013,-1.41916 2.90704,-1.41916 1.20828,0 1.70336,0.21546 2.63443,1.14653 0.90154,0.90154 1.4405,1.14652 2.52236,1.14652 0.90126,0 1.53532,-0.21364 1.83822,-0.61937 0.65117,-0.87226 2.32357,-1.67392 3.48884,-1.67236 1.26204,0.002 3.14938,1.14579 3.44938,2.091 0.12741,0.40145 0.35454,0.7299 0.50473,0.7299 0.1502,0 0.16009,0.74455 0.022,1.65455 -0.74179,4.8879 -7.92732,4.80921 -7.92732,-0.0868 0,-1.40116 -0.0926,-1.57075 -0.96153,-1.76161 -1.3013,-0.28581 -1.6843,0.0267 -1.6843,1.37454 0,0.73916 -0.35802,1.56783 -1.01978,2.36043 -0.9208,1.10286 -1.18172,1.2153 -2.68832,1.1585 -1.92873,-0.0727 -3.43306,-1.23361 -4.05994,-3.13309 -0.49035,-1.48577 -1.67197,-1.85161 -1.98263,-0.61385 -0.41503,1.65364 0.12037,6.36818 0.90796,7.99512 1.28476,2.65395 5.08083,5.98402 8.13715,7.13824 1.61575,0.61019 4.43443,0.27502 5.7276,-0.68106 z m 3.25117,-10.96537 c 1.37126,-0.57295 1.95734,-1.46785 1.95734,-2.98869 0,-1.6164 -0.64574,-2.70281 -1.98656,-3.3422 -2.3979,-1.14348 -4.46236,-0.36155 -5.07758,1.92318 -0.54255,2.01488 -0.15028,3.40929 1.18878,4.22579 1.32632,0.80874 2.30866,0.85435 3.91802,0.18192 z m -9.42149,-1.21341 c 0.85002,-1.00149 1.04705,-2.80253 0.43226,-3.95128 -0.4802,-0.89727 -2.1666,-1.74434 -3.47273,-1.74434 -0.61362,0 -1.49914,0.37895 -2.13419,0.9133 -0.85916,0.72294 -1.0854,1.19098 -1.0854,2.24548 0,3.31469 4.16669,5.00321 6.26006,2.53684 z m -44.18367,14.10265 c -3.39497,-1.57705 -6.87917,-5.52245 -6.87917,-7.78978 0,-0.39578 -0.15875,-0.71961 -0.35278,-0.71961 -0.19402,0 -0.35277,-0.21738 -0.35277,-0.48307 0,-0.33983 -0.52814,-0.49498 -1.78103,-0.52321 -1.08637,-0.0245 -1.69742,0.0952 -1.56668,0.30669 0.11789,0.19075 0.60185,0.34682 1.07547,0.34682 1.2469,0 1.0759,0.9551 -0.22203,1.24017 -1.42792,0.31363 -2.06573,-0.52078 -2.08063,-2.72195 -0.008,-1.17376 0.1566,-1.75208 0.56326,-1.97965 0.39276,-0.2198 0.44855,-0.39931 0.17638,-0.56752 -0.575,-0.35537 -0.48896,-2.03431 0.15109,-2.94811 0.5108,-0.72927 0.50149,-0.78405 -0.13319,-0.78405 -1.27359,0 -1.55558,-0.82834 -1.2862,-3.77819 0.2929,-3.20733 0.54847,-3.82568 1.70071,-4.11488 0.467,-0.11721 0.93258,-0.5323397 1.03461,-0.9225197 0.14244,-0.54468 0.4799,-0.70941 1.45326,-0.70941 1.17009,0 1.26775,-0.0806 1.26775,-1.04593 0,-0.68486 0.24356,-1.17626 0.70556,-1.42352 0.38806,-0.20768 0.70556,-0.66491 0.70556,-1.01607 0,-1.09991 2.76944,-2.86448 4.49572,-2.86448 1.08365,0 1.85428,1.03318 1.85428,2.48604 0,0.37893 0.17573,0.68896 0.39052,0.68896 0.21478,0 0.2943,-0.25074 0.1767,-0.5572 -0.38361,-0.99967 0.18862,-2.23844 1.28717,-2.78647 1.40929,-0.70304 3.64911,-0.70746 3.91763,-0.008 0.11168,0.29104 0.5061,0.52917 0.87649,0.52917 0.37038,0 0.86681,0.233 1.10316,0.51779 0.3111,0.37485 0.84404,0.461 1.93061,0.31207 2.17797,-0.29853 3.12716,0.30497 2.94423,1.87194 -0.14013,1.20029 -0.13032,1.21108 0.4281,0.47076 0.43086,-0.5712 0.86998,-0.72926 1.78415,-0.64221 1.18689,0.11303 1.21397,0.15142 1.27598,1.80906 0.0519,1.38745 0.23998,1.83382 1.0405,2.46944 0.53743,0.42673 1.46142,0.8552397 2.05331,0.9522597 1.32766,0.21761 1.60386,1.33661 0.56253,2.279 -1.04317,0.94406 -0.96518,2.30711 0.13201,2.30711 1.36136,0 1.96913,0.37097 1.96913,1.20191 0,0.88323 -0.61249,1.62031 -1.34642,1.62031 -0.32599,0 -0.43564,-0.2452 -0.31534,-0.70521 0.19827,-0.75822 -0.23563,-1.23584 -0.80376,-0.88472 -0.21869,0.13516 -0.16841,0.50492 0.13476,0.99096 0.26599,0.42645 0.58219,1.91943 0.70268,3.31775 0.21093,2.448 0.183,2.57611 -0.75212,3.45061 -1.06458,0.99555 -2.26406,1.42749 -3.08707,1.11167 -0.32506,-0.12474 -0.52995,-4.6e-4 -0.52995,0.32145 0,0.38834 0.2373,0.46526 0.9125,0.2958 0.80882,-0.20301 0.899,-0.13363 0.79375,0.61064 -0.0926,0.65451 -0.3664,0.86365 -1.24184,0.94846 -1.25543,0.12162 -2.07892,-0.8525 -1.70817,-2.02063 0.13069,-0.41175 -6e-5,-0.7297 -0.3563,-0.8664 -0.44096,-0.16921 -0.51235,-0.0571 -0.32985,0.51784 0.31004,0.97685 -1.49146,4.574 -3.39207,6.77313 -0.80357,0.92978 -2.31919,2.23947 -3.36805,2.91042 -2.47382,1.58248 -4.6246,1.63944 -7.71414,0.20428 z m 6.74351,-1.12435 c 1.83511,-1.04995 3.31489,-2.58448 5.20576,-5.39839 0.50438,-0.7506 0.83881,-1.49134 0.74318,-1.64608 -0.0956,-0.15475 -0.0142,-0.70144 0.18104,-1.21488 0.23608,-0.62095 0.2398,-2.24545 0.0111,-4.85166 -0.53713,-6.12087 -1.49908,-8.23248 -4.41792,-9.69788 -2.66355,-1.3372297 -3.87297,-1.5862097 -5.53328,-1.1391397 -0.83725,0.22545 -1.56413,0.3892097 -1.61529,0.3639197 -0.24561,-0.1214197 -3.545,1.90435 -4.37234,2.68455 -0.51568,0.48628 -1.38822,1.86067 -1.93898,3.0542 -0.81824,1.77316 -0.98758,2.58781 -0.92592,4.45427 0.0501,1.51745 -0.097,2.54743 -0.4383,3.06832 -0.5106,0.77925 -0.3809,1.8794 0.22156,1.8794 0.17327,0 0.31504,0.46024 0.31504,1.02275 0,1.274 2.20397,4.61561 3.88055,5.8836 1.70652,1.29064 4.56024,2.57396 5.77789,2.59833 0.55847,0.0112 1.86612,-0.46641 2.9059,-1.06131 z M 115.6733,12.061013 c 0,-0.80566 -0.89802,-0.88548 -1.19698,-0.10639 -0.35766,0.93205 -0.24643,1.14826 0.49143,0.95531 0.39049,-0.10212 0.70555,-0.4812 0.70555,-0.84892 z m 25.57639,-5.6032997 c 0.11992,-0.19403 -0.0294,-0.35278 -0.33195,-0.35278 -0.3025,0 -0.54999,0.15875 -0.54999,0.35278 0,0.19403 0.14938,0.35278 0.33195,0.35278 0.18258,0 0.43008,-0.15875 0.54999,-0.35278 z m -19.45159,-1.23472 c -0.11169,-0.29104 -0.26545,-0.52917 -0.34171,-0.52917 -0.0763,0 -0.13864,0.23813 -0.13864,0.52917 0,0.29104 0.15377,0.52916 0.3417,0.52916 0.18794,0 0.25033,-0.23812 0.13865,-0.52916 z m 9.31652,-1.87395 c 0.0768,-0.23031 -0.11859,-0.51781 -0.43414,-0.63889 -0.73592,-0.2824 -0.97215,-0.0362 -0.68452,0.71337 0.24711,0.64395 0.89353,0.60091 1.11866,-0.0745 z M 208.3906,35.062673 c -4.05569,-1.12826 -6.96864,-5.64363 -7.87095,-12.20079 -0.29369,-2.13431 -0.78997,-4.64093 -1.10285,-5.57027 -0.73645,-2.18744 -0.55279,-8.0231497 0.30209,-9.5991797 0.87763,-1.61796 3.43563,-4.05694 4.25492,-4.05694 0.40173,0 1.11016,-0.35719 1.5743,-0.79375 0.75248,-0.70778 1.27206,-0.80639 4.79685,-0.91042 3.79638,-0.11205 3.98744,-0.0825 4.8233,0.74613 0.47868,0.47454 1.2672,0.98203 1.75227,1.12775 1.43019,0.42966 3.09627,1.86336 4.0433,3.47935 1.15703,1.97432 1.74897,6.0585097 1.25534,8.6614197 -0.19786,1.04331 -0.35975,3.66629 -0.35975,5.82884 0,2.16255 -0.20687,4.72057 -0.45972,5.68449 -1.00947,3.84835 -5.27717,7.56401 -9.10857,7.93032 -1.28365,0.12273 -2.71549,0.003 -3.90053,-0.32695 z m 5.80723,-6.15488 c 1.47918,-0.62607 2.51613,-1.80468 2.2342,-2.53939 -0.18627,-0.4854 -0.55791,-0.53763 -2.34744,-0.32993 -1.32642,0.15395 -2.9877,0.0755 -4.41667,-0.20852 -2.0533,-0.40813 -2.35183,-0.39399 -2.88238,0.13656 -0.55394,0.55394 -0.5456,0.65422 0.13031,1.56583 1.26329,1.70383 4.88838,2.38855 7.28198,1.37545 z m 5.19492,-7.10759 c 0.24002,-0.2892 0.65508,-0.52582 0.92236,-0.52582 1.04588,0 0.34744,-7.61188 -1.07329,-11.6971997 -1.01154,-2.9087 -1.91002,-4.00793 -4.02623,-4.92588 -2.63827,-1.14439 -8.42261,-0.57579 -10.7158,1.05338 -3.00536,2.13511 -4.30996,7.1251197 -3.42231,13.0900997 l 0.49722,3.34124 1.48097,0.29187 c 0.99806,0.19669 1.55222,0.51635 1.69947,0.98029 0.23708,0.74697 0.70624,0.89653 1.05289,0.33564 0.29817,-0.48244 3.22347,-0.44606 4.15346,0.0516 0.57307,0.3067 1.42715,0.29539 3.53418,-0.0468 2.60829,-0.42358 2.83573,-0.40849 3.71279,0.24634 l 0.93431,0.69756 0.40679,-1.18328 c 0.22374,-0.65081 0.60317,-1.41991 0.84319,-1.70911 z m -16.58333,-5.74544 c 0,-0.16601 0.40653,-0.68376 0.90341,-1.15055 1.04631,-0.98296 3.39864,-1.12064 4.2694,-0.24988 0.4639,0.4639 0.31508,0.50421 -1.2916,0.34983 -1.48409,-0.1426 -2.00462,-0.035 -2.84856,0.58898 -0.56796,0.41991 -1.03265,0.62764 -1.03265,0.46162 z m 14.9925,-0.66083 c -0.51286,-0.38634 -1.25788,-0.48374 -2.73362,-0.35737 -2.23934,0.19176 -2.38957,-0.22271 -0.3069,-0.8467 1.10146,-0.33 1.53297,-0.30088 2.43226,0.16416 1.05498,0.54555 1.69471,1.18955 1.43734,1.44693 -0.0682,0.0682 -0.44133,-0.11492 -0.82908,-0.40702 z"
       id="path32918" />
  </g>
</svg>
