<?xml version="1.0" encoding="UTF-8" standalone="no"?>
<!-- Created with Inkscape (http://www.inkscape.org/) -->

<svg
   width="104mm"
   height="95mm"
   viewBox="0 0 104 95"
   version="1.1"
   id="svg5"
   inkscape:version="1.1.1 (1:1.1+202109281943+c3084ef5ed)"
   sodipodi:docname="programme.svg"
   xmlns:inkscape="http://www.inkscape.org/namespaces/inkscape"
   xmlns:sodipodi="http://sodipodi.sourceforge.net/DTD/sodipodi-0.dtd"
   xmlns="http://www.w3.org/2000/svg"
   xmlns:svg="http://www.w3.org/2000/svg">
  <sodipodi:namedview
     id="namedview7"
     pagecolor="#505050"
     bordercolor="#eeeeee"
     borderopacity="1"
     inkscape:pageshadow="0"
     inkscape:pageopacity="0"
     inkscape:pagecheckerboard="0"
     inkscape:document-units="mm"
     showgrid="false"
     inkscape:zoom="0.66474058"
     inkscape:cx="191.05197"
     inkscape:cy="336.22139"
     inkscape:window-width="1854"
     inkscape:window-height="1098"
     inkscape:window-x="66"
     inkscape:window-y="29"
     inkscape:window-maximized="1"
     inkscape:current-layer="layer1" />
  <defs
     id="defs2">
    <clipPath
       clipPathUnits="userSpaceOnUse"
       id="clipPath1203">
      <rect
         style="fill:#0a66c2;stroke-width:2.2"
         id="rect1205"
         width="34.801373"
         height="32.771526"
         x="28.263504"
         y="62.399708" />
    </clipPath>
  </defs>
  <g
     inkscape:label="Calque 1"
     inkscape:groupmode="layer"
     id="layer1">
    <g
       id="g37536">
      <path
         style="fill:#7ab892;fill-opacity:1;stroke-width:0.352778"
         d="m 47.432074,61.005453 -5.909027,-0.09672 v -4.401192 -4.401192 h 6.702777 6.702777 v 1.763889 c 0,0.970139 0.153395,1.763889 0.340879,1.763889 0.187487,0 0.01171,0.557918 -0.390628,1.239812 -0.402328,0.681899 -0.912911,1.912211 -1.134628,2.734028 l -0.403123,1.494215 z M 14.240845,49.59826 c -0.289289,-2.409328 -0.301503,-7.137288 -0.02033,-7.870007 0.176879,-0.460939 0.873676,-0.55802 4.005195,-0.55802 2.085085,0 4.74342,0.09954 5.907412,0.221202 l 2.116349,0.221202 0.232608,4.595943 c 0.127935,2.527766 0.188935,4.639614 0.135557,4.692992 -0.05338,0.05338 -2.808618,0.209836 -6.122756,0.347688 l -6.025704,0.250638 z M 56.39072,35.57317 c 0.07088,-2.906057 0.236686,-5.391556 0.368455,-5.523325 0.131774,-0.131774 2.861226,-0.326183 6.065449,-0.432025 l 5.82587,-0.192438 0.10641,5.431451 c 0.0585,2.987301 0.10642,5.449814 0.10642,5.47225 0,0.02244 -2.835333,0.150379 -6.300739,0.284315 l -6.300734,0.243519 z"
         id="path33349" />
      <path
         style="fill:#f2ebd1;fill-opacity:1;stroke-width:0.352778"
         d="m 3.647359,20.130664 c -0.123387,-0.90021 -0.22434,-3.26005 -0.22434,-5.24409 0,-4.15955 0.480987,-5.1748499 2.750074,-5.8050499 2.370378,-0.65834 2.89437,-0.51544 2.89437,0.78933 0,2.3306299 1.56221,3.7826599 4.069694,3.7826599 1.909136,0 2.985861,-0.67789 2.985861,-1.87986 0,-0.80581 -0.67637,-0.73999 -1.633231,0.15893 -1.197959,1.12543 -3.045802,0.68801 -3.799027,-0.89929 C 9.543431,8.6154741 9.791194,8.5112441 17.269545,8.2657541 l 3.439583,-0.11291 v 1.49265 c 0,1.7775799 0.50716,3.2495499 1.336786,3.8798599 0.331921,0.25217 1.397242,0.46281 2.367381,0.46808 1.486801,0.008 1.943995,-0.15921 2.910416,-1.06499 0.688966,-0.64573 1.146528,-1.41942 1.146528,-1.93865 0,-1.0454899 -0.913719,-1.1698899 -1.231802,-0.16771 -0.327955,1.0333 -1.897682,2.12587 -3.054291,2.12587 -1.26598,0 -2.413424,-1.6927 -2.415366,-3.5631399 l -0.0013,-1.27009 3.229195,-0.22922 c 1.776057,-0.12607 4.077932,-0.22921 5.115277,-0.22921 h 1.886082 v 1.24605 c 0,3.8966699 3.344877,6.0468899 5.970154,3.8378599 1.127565,-0.94878 1.462069,-2.26169 0.576237,-2.26169 -0.280038,0 -0.716601,0.29004 -0.970139,0.64454 -0.761283,1.06445 -1.725157,1.44358 -2.626246,1.03301 -1.352413,-0.6162 -2.459479,-3.7544299 -1.527613,-4.3303599 0.200233,-0.12375 2.502108,-0.1117 5.115278,0.0268 4.708411,0.24952 4.751217,0.2594 4.751217,1.09746 0,1.2807999 0.884428,3.1306299 1.805118,3.7755099 1.333906,0.9343 2.981209,0.73121 4.377895,-0.53975 1.256566,-1.14344 1.629328,-2.4127599 0.708564,-2.4127599 -0.284215,0 -0.674641,0.2950199 -0.867618,0.6555999 -0.192976,0.36058 -0.754542,0.9201 -1.247923,1.24337 -0.805677,0.5279 -1.000439,0.53432 -1.911854,0.063 -1.132135,-0.58545 -1.453071,-1.181 -1.453071,-2.6963799 v -1.02949 h 4.20448 c 2.312465,0 4.45559,-0.0964 4.762499,-0.21413 0.442539,-0.16982 0.558021,0.0383 0.558021,1.00569 0,2.9598299 1.419288,4.5001099 4.146609,4.5001099 1.074604,0 1.595667,-0.24374 2.486963,-1.16332 1.145269,-1.18162 1.515431,-2.7172299 0.654999,-2.7172299 -0.259898,0 -0.649545,0.38847 -0.865882,0.8632799 -0.216337,0.47481 -0.807286,1.13452 -1.313222,1.46602 -0.858746,0.56267 -1.001032,0.56404 -2.140747,0.0206 -1.33452,-0.63639 -2.06834,-2.0252799 -1.746843,-3.3062199 0.199133,-0.79341 0.289013,-0.80752 5.141563,-0.80752 h 4.938888 l -0.216651,0.86321 c -0.119158,0.47476 -0.03769,1.40546 0.181039,2.0682099 0.46749,1.41652 2.589205,2.58932 4.03008,2.22768 1.116495,-0.28022 3.047647,-1.89263 3.047647,-2.54463 0,-0.6550999 -1.279405,-0.6443099 -1.531606,0.0129 -0.107791,0.28089 -0.654078,0.74761 -1.213975,1.03714 -0.930903,0.48139 -1.115314,0.46724 -2.155663,-0.16544 -1.000157,-0.60823 -1.124497,-0.85086 -1.028633,-2.0072799 l 0.109044,-1.31542 4.36633,-0.0994 c 3.297957,-0.0751 4.552089,0.0223 5.125508,0.39802 1.254838,0.82221 2.060102,4.0922699 2.250313,9.1381999 l 0.169552,4.49792 H 41.265012 3.871698 Z"
         id="path35674" />
      <path
         style="fill:#000000;stroke-width:0.352778"
         d="m 73.370051,92.986198 c -4.69421,-0.386464 -7.34645,-1.315991 -10.99141,-3.852132 -4.89905,-3.408729 -8.0679,-8.365793 -9.39128,-14.690884 -0.26919,-1.286612 -0.67917,-2.456554 -0.91105,-2.599866 -1.32076,-0.816268 -13.73097,-1.156388 -23.07688,-0.632449 -4.65666,0.261055 -10.92729,0.469448 -13.93472,0.463095 -8.5982701,-0.01817 -8.8696701,-0.325103 -9.7273801,-11.001234 -0.29278,-3.644361 -0.67816,-9.483605 -0.85639,-12.976105 -0.32985,-6.463528 -0.77697,-12.159372 -1.3909,-17.718487 -0.62739,-5.680996 -0.8805,-18.626035 -0.38747,-19.816336 0.55694,-1.3445619 2.84209,-2.5007919 4.977,-2.5182389 1.48697,-0.01215 1.59919,-0.08625 2.26986,-1.498799 0.9428401,-1.985764 2.6309801,-3.074528 4.7671001,-3.074528 2.07448,0 3.40473,0.950146 3.72571,2.661119 0.20345,1.084457 0.35133,1.218953 1.33604,1.215069 0.87705,-0.0035 1.27478,-0.262936 1.91296,-1.247994 0.91891,-1.418387 1.97357,-1.922639 4.02127,-1.922639 1.19756,0 1.65874,0.229086 2.84076,1.411111 1.09004,1.090033 1.68261,1.411111 2.60433,1.411111 0.65627,0 1.19322,-0.146538 1.19322,-0.325641 0,-0.179102 0.48846,-0.814102 1.08547,-1.411111 0.90421,-0.90421 1.36238,-1.08547 2.74373,-1.08547 1.9282,0 2.95189,0.602361 3.57331,2.102617 0.40867,0.986608 0.58132,1.072383 2.15857,1.072383 1.53732,0 1.73737,-0.09166 1.93712,-0.887524 0.3566,-1.420796 1.76094,-2.287476 3.70654,-2.287476 1.40297,0 1.92436,0.193443 2.95104,1.094879 0.68585,0.602183 1.247,1.301451 1.247,1.553931 0,0.332229 0.39143,0.406551 1.41682,0.269016 1.02586,-0.137597 1.79318,-0.566392 2.78072,-1.553931 1.25056,-1.25056 1.52409,-1.363895 3.2917,-1.363895 2.0302,0 2.94307,0.492915 3.75668,2.028472 0.61484,1.160399 2.69444,1.105974 3.63932,-0.09524 0.93842,-1.193016 2.45245,-1.93323 3.95423,-1.93323 1.01736,0 1.43591,0.249247 2.36961,1.411111 0.96358,1.199042 1.33513,1.411111 2.47233,1.411111 2.75884,0 3.67765,2.370775 4.23836,10.9361119 0.37583,5.741011 0.21735,23.316374 -0.22584,25.047338 -0.21699,0.847478 -0.1089,0.914329 2.75696,1.705088 1.78915,0.49367 4.65764,1.725958 7.16804,3.079351 3.4442,1.856822 4.62247,2.716414 6.65467,4.854833 3.05297,3.212525 4.908459,6.655117 6.022829,11.174501 1.42712,5.787725 -0.70225,17.6455 -3.757639,20.925077 -0.36829,0.395312 -0.76151,1.00826 -0.87381,1.362114 -0.11231,0.35385 -0.32677,0.643364 -0.47658,0.643364 -0.14981,0 -0.44804,0.385537 -0.66274,0.856749 -0.57787,1.268293 -3.84139,3.48711 -6.19229,4.210047 -2.43158,0.747744 -10.10873,1.998772 -11.87504,1.935095 -0.6791,-0.02448 -2.85794,-0.178145 -4.84188,-0.341482 z m 11.01549,-1.584106 c 6.90068,-1.126352 9.13735,-2.382082 12.08297,-6.783747 1.12445,-1.680281 2.23312,-3.451931 2.46369,-3.937 1.136279,-2.390412 2.569759,-9.529675 2.550009,-12.7 -0.0308,-4.949374 -2.527189,-10.802698 -6.336949,-14.858489 -1.85804,-1.978032 -3.08098,-2.866019 -6.44636,-4.680743 -2.28432,-1.231784 -5.43323,-2.604047 -6.99758,-3.049475 l -2.84428,-0.809872 -4.11796,0.753195 c -6.69703,1.224922 -11.9292,3.8036 -15.60233,7.68962 -6.91402,7.314728 -7.47182,21.171176 -1.20563,29.948819 1.80346,2.526274 2.23584,2.964625 4.75489,4.820568 3.87961,2.858343 6.21835,3.69752 11.58567,4.157122 3.7259,0.319049 5.32103,0.232304 10.11386,-0.549998 z m -7.40515,-19.309429 c -0.29823,-0.455168 -0.97658,-1.018519 -1.50743,-1.251896 -2.21689,-0.974598 -8.54992,-5.501089 -8.54992,-6.110996 0,-0.843241 0.76219,-0.794258 1.79811,0.115559 1.25287,1.100374 4.62643,3.360702 6.51298,4.363794 1.60708,0.854492 1.6809,0.861734 2.71448,0.26627 l 1.06247,-0.612105 -0.23217,-9.084028 c -0.1936,-7.574971 -0.15177,-9.084027 0.25177,-9.084027 0.56854,0 0.94514,5.443943 0.94514,13.662529 0,4.049709 0.10774,5.192833 0.52916,5.614257 1.23371,1.23371 0.19802,2.948214 -1.78095,2.948214 -0.87115,0 -1.35045,-0.227486 -1.74364,-0.827571 z m -48.33373,-2.012611 c 6.85872,-0.377377 16.34466,-0.267156 21.60763,0.251068 l 2.20486,0.217103 0.021,-2.606358 c 0.0116,-1.433494 0.14409,-3.353438 0.2945,-4.26654 l 0.27347,-1.660186 -10.61325,0.01012 c -10.27059,0.0098 -24.66306,0.478036 -26.85231,0.873602 l -1.06963,0.193262 -0.66676,-5.581082 c -0.48356,-4.047726 -0.70046,-8.6709 -0.78946,-16.827282 l -0.1227,-11.246193 1.08871,0.217741 c 0.59879,0.119759 3.97538,-0.01614 7.50353,-0.302005 4.0861,-0.331068 10.70505,-0.509477 18.23288,-0.491455 6.49993,0.01556 15.90586,-0.09005 20.90208,-0.234696 l 9.08402,-0.262988 0.0882,5.256505 c 0.0485,2.891078 0.0753,6.657083 0.0595,8.368902 -0.0273,2.962215 0.006,3.103344 0.68857,2.924821 0.39451,-0.103167 2.2583,-0.457288 4.14177,-0.786942 l 3.42449,-0.59937 0.21084,-1.267117 c 0.43969,-2.642496 0.61457,-18.437633 0.2648,-23.916422 -0.39937,-6.255595 -1.13179,-9.3921169 -2.38492,-10.2132019 -0.57342,-0.375719 -1.82755,-0.473108 -5.12551,-0.39802 l -4.36633,0.09941 -0.10904,1.315423 c -0.0959,1.1564189 0.0285,1.3990519 1.02863,2.0072839 1.04035,0.632673 1.22476,0.646827 2.15566,0.165437 0.5599,-0.289533 1.10619,-0.756248 1.21398,-1.037145 0.2522,-0.6572279 1.5316,-0.6680159 1.5316,-0.01291 0,0.651995 -1.93115,2.264412 -3.04764,2.544634 -1.44088,0.361637 -3.56259,-0.811169 -4.03008,-2.227683 -0.21873,-0.6627529 -0.3002,-1.5934499 -0.18104,-2.0682149 l 0.21665,-0.863209 h -4.93889 c -4.85255,0 -4.94243,0.01411 -5.14156,0.80752 -0.3215,1.280945 0.41232,2.6698279 1.74684,3.3062169 1.13972,0.543492 1.282,0.542127 2.14075,-0.02055 0.50593,-0.331503 1.09688,-0.991211 1.31322,-1.466018 0.21634,-0.4748059 0.60598,-0.8632839 0.86588,-0.8632839 0.86044,0 0.49027,1.5356179 -0.655,2.7172329 -0.89129,0.919585 -1.41236,1.163322 -2.48696,1.163322 -2.72732,0 -4.1466,-1.540282 -4.1466,-4.5001079 0,-0.967383 -0.11548,-1.175508 -0.55802,-1.005691 -0.30691,0.117773 -2.45004,0.214133 -4.7625,0.214133 h -4.20448 v 1.02948 c 0,1.5153889 0.32093,2.1109349 1.45307,2.6963839 0.91141,0.471312 1.10618,0.464894 1.91185,-0.06301 0.49338,-0.323277 1.05495,-0.882794 1.24793,-1.243372 0.19297,-0.360578 0.5834,-0.6555969 0.86761,-0.6555969 0.92077,0 0.54801,1.2693129 -0.70856,2.4127609 -1.39669,1.270955 -3.04399,1.474049 -4.3779,0.539745 -0.92069,-0.644876 -1.80511,-2.494713 -1.80511,-3.7755139 0,-0.83805 -0.0428,-0.847938 -4.75122,-1.097457 -2.61317,-0.138483 -4.91505,-0.150537 -5.11528,-0.02679 -0.93186,0.575927 0.1752,3.7141599 1.52761,4.3303609 0.90109,0.410563 1.86497,0.03143 2.62625,-1.03301 0.25354,-0.354498 0.6901,-0.644543 0.97014,-0.644543 0.88583,0 0.55133,1.312914 -0.57624,2.261696 -2.62527,2.209027 -5.97015,0.0588 -5.97015,-3.8378649 v -1.246053 h -1.88608 c -1.03735,0 -3.33922,0.103146 -5.11528,0.229215 l -3.2292,0.229214 0.001,1.270091 c 0.002,1.8704379 1.1494,3.5631459 2.41538,3.5631459 1.15661,0 2.72634,-1.092572 3.05429,-2.125868 0.31809,-1.0021879 1.23181,-0.8777849 1.23181,0.16771 0,0.519229 -0.45757,1.292913 -1.14653,1.938645 -0.96642,0.905777 -1.42362,1.073076 -2.91042,1.064995 -0.97014,-0.0053 -2.03546,-0.215913 -2.36738,-0.468089 -0.82962,-0.630309 -1.33678,-2.102276 -1.33678,-3.8798579 v -1.492644 l -3.43959,0.112909 c -7.4783501,0.245488 -7.7261101,0.349716 -6.57878,2.7675319 0.75322,1.587304 2.60107,2.024721 3.79902,0.899297 0.95687,-0.898924 1.63324,-0.964743 1.63324,-0.158934 0,1.201969 -1.07673,1.879861 -2.98587,1.879861 -2.50748,0 -4.0696901,-1.452029 -4.0696901,-3.7826619 0,-0.964448 -0.13166,-1.155901 -0.79375,-1.154259 -1.582,0.0039 -3.42382,0.748383 -4.17092,1.6858779 -0.74621,0.936392 -0.75816,1.124993 -0.53005,8.366321 0.12836,4.074583 0.38132,8.678333 0.56213,10.230555 0.54839,4.707763 1.09153,11.668051 1.40397,17.991667 0.55327,11.197985 1.38085,19.583488 2.09122,21.189389 0.64832,1.465633 1.0234,1.7076 3.7304601,2.40652 0.87204,0.225149 7.52872,0.02995 17.28611,-0.506924 z m -2.01057,-8.98494 c 0.21268,-0.175482 0.24032,-8.582914 0.0289,-8.794634 -0.11977,-0.119948 -2.8979,-0.09364 -6.17361,0.05847 l -5.95585,0.27656 0.49716,4.509643 0.49715,4.50964 5.50007,-0.236068 c 3.02504,-0.129837 5.54781,-0.275463 5.60617,-0.323614 z m 13.82862,-4.402656 v -4.586111 l -6.26181,7.05e-4 -6.2618,7.06e-4 -0.0373,4.400811 -0.0373,4.400807 5.85815,0.105622 c 3.22199,0.05809 6.05659,0.141203 6.29913,0.18469 0.33421,0.05974 0.44097,-1.031357 0.44097,-4.50723 z m 14.41414,0.181479 c 0.40233,-0.681894 0.57811,-1.239812 0.39063,-1.239812 -0.18749,0 -0.34088,-0.79375 -0.34088,-1.763889 v -1.763889 h -6.70278 -6.70278 v 4.401192 4.401192 l 5.90903,0.09673 5.90903,0.09672 0.40312,-1.494215 c 0.22172,-0.821817 0.7323,-2.052129 1.13463,-2.734028 z m 2.5002,-3.801342 c 1.10471,-1.19857 1.14728,-1.319026 0.46617,-1.319026 -1.01834,0 -1.85829,0.914971 -1.85829,2.024274 0,0.503548 0.0397,0.847644 0.0882,0.76466 0.0485,-0.08299 0.63528,-0.744446 1.30393,-1.469908 z m -30.76142,-2.17102 c 0.0534,-0.05338 -0.008,-2.165226 -0.13556,-4.692992 l -0.2326,-4.595943 -2.11635,-0.221203 c -1.16399,-0.121662 -3.82233,-0.221202 -5.90741,-0.221202 -3.13152,0 -3.82832,0.09708 -4.0052,0.558021 -0.28117,0.732719 -0.26896,5.460679 0.0203,7.870007 l 0.22833,1.901638 6.0257,-0.250638 c 3.31414,-0.137852 6.06938,-0.294309 6.12276,-0.347688 z m 13.84708,-4.559536 v -4.705975 l -6.52639,-0.04296 -6.52639,-0.04296 v 1.519742 c 0,0.835857 0.10315,2.972876 0.22922,4.748936 l 0.22921,3.229193 h 6.29718 6.29717 z m 14.81666,0.119863 v -4.586111 l -5.55624,-0.0039 c -3.05594,-0.0021 -6.15157,-0.102282 -6.87917,-0.222547 l -1.32292,-0.218662 v 4.808658 4.808657 h 6.87917 6.87916 v -4.586111 z m 4.94006,3.702759 c 0.6432,-0.77501 4.09793,-2.769845 6.43703,-3.716877 1.93458,-0.783258 2.02869,-0.879496 2.03328,-2.079269 0.003,-0.691903 0.10055,-1.61519 0.21754,-2.051752 0.20318,-0.758151 0.11843,-0.79375 -1.88971,-0.79375 -1.15633,0 -4.03235,0.10377 -6.39114,0.230604 l -4.28872,0.2306 v 4.355511 4.355508 h 1.72069 c 1.10116,0 1.87924,-0.191033 2.16103,-0.530575 z m -21.87339,-9.695445 1.94028,-0.0051 0.0449,-4.389391 c 0.0247,-2.414164 0.14602,-4.792204 0.26958,-5.284527 l 0.22467,-0.895135 -6.97236,0.08134 -6.97236,0.08135 0.0176,1.322917 c 0.01,0.727604 0.0494,3.063967 0.0882,5.191919 l 0.0706,3.869002 3.96875,0.118784 c 2.18281,0.06533 4.28625,0.0727 4.6743,0.01637 0.38806,-0.05633 1.57868,-0.104705 2.64584,-0.107509 z m 16.93815,-4.326064 c 0.003,-2.570868 0.0908,-4.994409 0.19599,-5.385643 0.18644,-0.693762 0.0207,-0.713148 -6.7076,-0.784539 -3.79432,-0.04026 -6.90442,-0.03766 -6.91134,0.0058 -0.30155,1.892508 -0.58796,7.564159 -0.44356,8.783408 0.1963,1.657424 0.20533,1.667274 1.64968,1.79929 0.79876,0.07301 3.87323,0.160475 6.83215,0.194374 l 5.37986,0.06163 0.005,-4.674306 z m 13.57713,4.185934 c 0,-0.02244 -0.0479,-2.484949 -0.10642,-5.47225 l -0.10641,-5.431452 -5.82587,0.192439 c -3.20422,0.105841 -5.93368,0.300251 -6.06545,0.432024 -0.13177,0.13177 -0.29757,2.617269 -0.36845,5.523325 l -0.12887,5.283747 6.30073,-0.243519 c 3.46541,-0.133935 6.30074,-0.261874 6.30074,-0.284314 z M 25.998311,37.73065 c -0.001,-1.503715 -0.10542,-3.823938 -0.23121,-5.156048 l -0.2287,-2.422021 -2.6792,0.212644 c -1.47357,0.116956 -4.06827,0.315884 -5.76602,0.442062 l -3.0868,0.229419 0.003,2.685513 c 0.002,1.477032 0.10267,3.514725 0.22441,4.528203 l 0.22135,1.842692 4.97906,0.108077 c 2.73848,0.05944 5.33624,0.143045 5.77281,0.185784 0.76174,0.07457 0.79364,-0.03256 0.79124,-2.656325 z M 14.602641,7.3035671 h 3.008 l -0.22967,-0.970139 c -0.34902,-1.474232 -1.53907,-2.308802 -2.96278,-2.077765 -1.59916,0.259508 -2.74718,1.059775 -3.43873,2.397095 -0.53283,1.030376 -0.53135,1.090775 0.0215,0.878622 0.32652,-0.125297 1.94727,-0.227813 3.60167,-0.227813 z m 11.92084,-0.648267 1.75738,-0.233677 -1.0112,-0.79375 c -0.55617,-0.436563 -1.31519,-0.79375 -1.68671,-0.79375 -0.941,0 -2.62985,0.923366 -2.87969,1.574452 -0.23231,0.605371 0.67994,0.664287 3.82022,0.246725 z m 23.19608,-0.773185 c -0.69373,-0.631047 -1.53971,-1.047992 -2.12637,-1.047992 -1.14641,0 -2.54237,0.882645 -2.54237,1.607503 0,0.40339 0.60461,0.507015 2.91042,0.498822 l 2.91041,-0.01034 z m -11.22561,0.234514 c -0.21444,-0.558826 -1.66204,-1.282506 -2.56543,-1.282506 -0.55664,0 -2.16659,1.189852 -2.16659,1.601242 0,0.08946 1.10627,0.162646 2.45838,0.162646 1.93182,0 2.4188,-0.103104 2.27364,-0.481382 z m 22.78465,-0.400562 c -1.10092,-1.171875 -2.80088,-1.176469 -4.12547,-0.01115 l -0.98981,0.870797 2.97191,0.01115 2.97191,0.01115 z m 10.93611,0.537299 c 0,-0.189555 -0.39782,-0.605301 -0.88403,-0.923881 -0.74181,-0.486054 -1.05206,-0.509632 -1.92858,-0.146567 -0.5745,0.237967 -1.22801,0.653714 -1.45223,0.923881 -0.34139,0.411355 -0.0279,0.491212 1.92859,0.491212 1.28556,0 2.33625,-0.154998 2.33625,-0.344645 z"
         id="path33249" />
    </g>
  </g>
</svg>
