<?xml version="1.0" encoding="UTF-8" standalone="no"?>
<!-- Created with Inkscape (http://www.inkscape.org/) -->

<svg
   width="84mm"
   height="65mm"
   viewBox="0 0 84 65"
   version="1.1"
   id="svg5"
   inkscape:version="1.1.1 (1:1.1+202109281943+c3084ef5ed)"
   sodipodi:docname="lettre.svg"
   xmlns:inkscape="http://www.inkscape.org/namespaces/inkscape"
   xmlns:sodipodi="http://sodipodi.sourceforge.net/DTD/sodipodi-0.dtd"
   xmlns="http://www.w3.org/2000/svg"
   xmlns:svg="http://www.w3.org/2000/svg">
  <sodipodi:namedview
     id="namedview7"
     pagecolor="#505050"
     bordercolor="#eeeeee"
     borderopacity="1"
     inkscape:pageshadow="0"
     inkscape:pageopacity="0"
     inkscape:pagecheckerboard="0"
     inkscape:document-units="mm"
     showgrid="false"
     inkscape:zoom="0.64052329"
     inkscape:cx="396.55076"
     inkscape:cy="561.25984"
     inkscape:window-width="1920"
     inkscape:window-height="1176"
     inkscape:window-x="1920"
     inkscape:window-y="0"
     inkscape:window-maximized="1"
     inkscape:current-layer="layer1" />
  <defs
     id="defs2" />
  <g
     inkscape:label="Calque 1"
     inkscape:groupmode="layer"
     id="layer1">
    <g
       id="g2984"
       transform="translate(-105.14269,-15.891425)">
      <path
         id="path886"
         style="fill:#7ab892;fill-opacity:1;stroke-width:1.33333"
         d="m 518.82812,71.074219 c -0.14679,-0.0013 -0.29388,0.01302 -0.44335,0.04297 -2.81228,0.563478 -2.80097,3.122546 0.0781,17.066406 4.48929,21.742255 6.22852,32.303085 6.22852,37.804685 0,3.16289 0.4213,6.17131 0.93554,6.68555 0.51425,0.51434 1.86426,0.75851 3,0.54297 2.70029,-0.51248 3.40343,-11.56663 1.40039,-22.02344 -0.80874,-4.22194 -2.3498,-12.968352 -3.42382,-19.435547 -2.34748,-14.135377 -4.79051,-20.65649 -7.7754,-20.683593 z M 414.99414,128.75781 c -1.43769,0.0425 -2.30273,0.91411 -2.30273,2.62696 0,2.66347 8.35427,9.08952 27.14453,20.8789 8.69567,5.45585 17.07205,11.58843 18.61523,13.62891 3.18131,4.20656 6.71435,4.28187 7.30664,0.15625 0.54308,-3.7828 -6.39927,-9.79845 -24.39843,-21.14453 -8.06669,-5.08496 -16.92906,-10.9864 -19.69336,-13.11524 -2.67684,-2.06145 -5.0425,-3.07939 -6.67188,-3.03125 z m 51.13672,96.05664 c -1.93233,-0.0315 -5.53235,1.07147 -12.37305,3.66407 -6.81932,2.5845 -14.79909,5.12057 -17.73242,5.63476 -6.27216,1.09942 -28.80508,8.5961 -30.50977,10.15039 -0.64743,0.59029 -0.81599,2.01279 -0.375,3.16211 1.07566,2.80309 4.78189,2.63151 13.20313,-0.61133 3.85788,-1.48562 12.71495,-4.14504 19.68164,-5.91015 22.54738,-5.7128 33.70266,-11.55321 29.70313,-15.55274 -0.33923,-0.33922 -0.84153,-0.52476 -1.59766,-0.53711 z"
         transform="scale(0.26458333)" />
      <path
         style="fill:#000000;stroke-width:0.352778"
         d="m 135.22395,77.817348 c -0.82685,-0.67432 -0.86042,-0.89287 -1.10444,-7.18845 -0.13841,-3.57114 -0.11867,-7.92173 0.0439,-9.66799 0.17866,-1.91934 0.15409,-4.50041 -0.0621,-6.52638 -0.19672,-1.84327 -0.30896,-4.54046 -0.24942,-5.99377 0.0994,-2.42613 0.18042,-2.67543 0.99019,-3.04645 1.01649,-0.46572 25.9126,-1.2018 40.4107,-1.19479 6.67213,0.003 9.30584,0.12043 9.61319,0.42778 0.27488,0.27488 0.42553,1.72854 0.42961,4.14514 0.007,3.93272 0.21097,6.1573 1.42753,15.53987 0.4151,3.20146 0.83539,7.25534 0.93397,9.00864 0.15479,2.7531 0.0944,3.25823 -0.44316,3.70417 -0.52675,0.43701 -2.60614,0.49988 -13.53253,0.40915 -11.63546,-0.0966 -22.81064,0.18294 -33.72403,0.84362 -3.53903,0.21424 -3.95561,0.17371 -4.73333,-0.46054 z m 15.66945,-1.88061 c 4.85069,-0.19889 14.69319,-0.32794 21.87222,-0.28677 l 13.05278,0.0749 -0.0108,-2.09029 c -0.006,-1.14966 -0.37892,-4.94779 -0.8288,-8.44029 -1.27097,-9.86663 -1.41405,-11.38801 -1.4344,-15.25198 l -0.019,-3.61031 -1.38709,0.72299 c -0.76289,0.39764 -1.5809,0.95653 -1.8178,1.24197 -0.2369,0.28545 -1.71615,1.38396 -3.28722,2.44115 -1.57108,1.05718 -4.76151,3.27034 -7.08984,4.91813 -2.32833,1.64778 -5.26521,3.49551 -6.52639,4.10606 -2.09749,1.01541 -2.50654,1.09397 -4.79622,0.92111 -2.03224,-0.15342 -3.02779,-0.46389 -5.29167,-1.65024 -4.00349,-2.09796 -7.11337,-3.91835 -9.1385,-5.34927 -2.90003,-2.04911 -8.36469,-5.28973 -8.57144,-5.08298 -0.10594,0.10593 -0.008,2.37465 0.21756,5.0416 0.23808,2.81457 0.30047,6.10707 0.14869,7.8476 -0.14381,1.64924 -0.18022,5.58526 -0.0809,8.74671 0.14286,4.54744 0.29024,5.82233 0.70556,6.1035 0.30375,0.20564 1.56559,0.2717 2.99442,0.15675 1.35819,-0.10927 6.43819,-0.3614 11.28889,-0.5603 z m 11.914,-17.98228 c 1.20841,-0.5864 4.10211,-2.41437 6.43044,-4.06215 2.32834,-1.64779 5.51876,-3.86095 7.08984,-4.91813 5.03763,-3.38985 5.88921,-3.15448 -10.44123,-2.88595 -7.85812,0.12922 -17.58945,0.33896 -21.62517,0.46608 l -7.33767,0.23115 1.69323,1.06586 c 0.93127,0.58623 3.20135,2.05604 5.04461,3.26624 1.84327,1.2102 4.38327,2.78776 5.64445,3.50569 8.57985,4.88407 9.72116,5.16566 13.5015,3.33121 z"
         id="path836" />
    </g>
  </g>
</svg>
