<?xml version="1.0" encoding="UTF-8" standalone="no"?>
<!-- Created with Inkscape (http://www.inkscape.org/) -->
<svg width="42mm" height="99mm" viewBox="0 0 42 99" version="1.1" id="svg5" inkscape:version="1.1.1 (1:1.1+202109281943+c3084ef5ed)" sodipodi:docname="flèche2.svg" xmlns:inkscape="http://www.inkscape.org/namespaces/inkscape" xmlns:sodipodi="http://sodipodi.sourceforge.net/DTD/sodipodi-0.dtd" xmlns="http://www.w3.org/2000/svg" xmlns:svg="http://www.w3.org/2000/svg">
  <sodipodi:namedview id="namedview7" pagecolor="#505050" bordercolor="#eeeeee" borderopacity="1" inkscape:pageshadow="0" inkscape:pageopacity="0" inkscape:pagecheckerboard="0" inkscape:document-units="mm" showgrid="false" inkscape:zoom="0.32026164" inkscape:cx="131.14277" inkscape:cy="607.31593" inkscape:window-width="1854" inkscape:window-height="978" inkscape:window-x="66" inkscape:window-y="149" inkscape:window-maximized="1" inkscape:current-layer="layer1"/>
  <defs id="defs2"/>
  <g inkscape:label="Calque 1" inkscape:groupmode="layer" id="layer1">
    <path style="fill:#000000;stroke-width:0.352778" id="path41716" d=""/>
    <path style="fill:#7ab892;fill-opacity:1;stroke-width:0.352778" d="m 23.83036,92.121603 c -3.23307,-4.81239 -5.99945,-9.52363 -6.24028,-10.6274 -0.34126,-1.5641 0.072,-1.79587 3.21409,-1.80261 2.94373,-0.006 2.8328,0.15499 3.15735,-4.59151 0.2643,-3.86526 -0.47535,-7.68263 -2.20114,-11.36023 -1.39381,-2.97016 -3.10403,-5.48795 -8.94076,-13.16264 -4.6191403,-6.07367 -6.8564703,-9.77599 -8.0981503,-13.40074 -2.54026,-7.41559 -3.48267,-16.30209 -2.31385,-21.81864 0.65624,-3.09732 3.64833,-11.8919497 4.2713,-12.5545797 0.37477,-0.39864 2.11303,-0.54455 8.1591603,-0.68491 11.26917,-0.2616 17.60738,-0.23562 20.29473,0.0832 2.0871,0.2476 2.38125,0.37325 2.38125,1.01717 0,0.75669 -1.27918,3.16536 -2.67131,5.03 -1.61546,2.1637997 -5.80367,11.2756297 -6.32394,13.7583297 -0.65793,3.13957 -0.6718,9.3127 -0.0264,11.73723 0.27224,1.0227 1.55679,4.03895 2.85454,6.70278 1.29774,2.66383 2.49161,5.16083 2.65302,5.54888 0.16141,0.38806 0.63626,1.49931 1.05522,2.46944 2.21721,5.13413 2.7787,7.48436 3.04619,12.75045 0.31859,6.27183 -0.61916,16.11329 -1.83559,19.26414 -0.19878,0.51488 -0.0359,0.61736 0.98148,0.61736 1.58171,0 3.44177,0.65442 3.44177,1.21092 0,0.23999 -0.43931,0.81977 -0.97624,1.2884 -1.93877,1.69217 -5.2301,4.40713 -6.78487,5.59673 -1.62,1.23951 -1.91302,1.48246 -4.45248,3.69184 -2.1358,1.85818 -2.97661,1.71996 -4.64511,-0.76359 z" id="path44973"/>
  </g>
</svg>