<?xml version="1.0" encoding="UTF-8" standalone="no"?>
<!-- Created with Inkscape (http://www.inkscape.org/) -->
<svg width="42mm" height="99mm" viewBox="0 0 42 99" version="1.1" id="svg5" inkscape:version="1.1.1 (1:1.1+202109281943+c3084ef5ed)" sodipodi:docname="flèche4.svg" xmlns:inkscape="http://www.inkscape.org/namespaces/inkscape" xmlns:sodipodi="http://sodipodi.sourceforge.net/DTD/sodipodi-0.dtd" xmlns="http://www.w3.org/2000/svg" xmlns:svg="http://www.w3.org/2000/svg">
  <sodipodi:namedview id="namedview7" pagecolor="#505050" bordercolor="#eeeeee" borderopacity="1" inkscape:pageshadow="0" inkscape:pageopacity="0" inkscape:pagecheckerboard="0" inkscape:document-units="mm" showgrid="false" inkscape:zoom="0.32026164" inkscape:cx="131.14277" inkscape:cy="607.31593" inkscape:window-width="1854" inkscape:window-height="978" inkscape:window-x="66" inkscape:window-y="149" inkscape:window-maximized="1" inkscape:current-layer="layer1"/>
  <defs id="defs2"/>
  <g inkscape:label="Calque 1" inkscape:groupmode="layer" id="layer1">
    <path style="fill:#000000;stroke-width:0.352778" id="path41716" d=""/>
    <path style="fill:#7ab892;stroke-width:0.352778;fill-opacity:1" d="m 22.065937,95.516976 c 0,-0.37047 -10.92424,-11.31294 -11.29409,-11.31294 -0.13081,0 -0.69909,-0.40806 -1.2628497,-0.9068 -0.56375,-0.49875 -1.94711,-1.54284 -3.07412,-2.32022 -1.34446,-0.92736 -2.01042,-1.61637 -1.93662,-2.00361 0.14192,-0.74461 2.58202,-1.25027 8.6346197,-1.78935 2.4611,-0.2192 4.5476,-0.47141 4.63665,-0.56047 0.21446,-0.21445 -0.4718,-6.3073 -1.56728,-13.9149 -0.77088,-5.35342 -2.9848,-16.23924 -5.42178,-26.65882 -0.40842,-1.74625 -1.2066997,-5.31812 -1.7739697,-7.9375 -1.12661,-5.20218 -2.09719,-9.5632 -4.02594,-18.08941 -1.17315,-5.1859803 -1.45874,-6.9578103 -1.12151,-6.9578103 0.0756,0 1.68063,0.3175 3.56661,0.70555 4.2684697,0.87827 6.0265897,0.87827 16.5805497,0 4.65667,-0.38751 9.458857,-0.70479 10.671531,-0.70506 l 2.204861,-4.9e-4 -0.0083,1.14653 c -0.0084,1.16275 -0.488209,3.11834 -2.401799,9.7895803 -1.209203,4.21556 -2.2961,9.83878 -2.897978,14.99306 -0.226572,1.94027 -0.945674,6.38527 -1.598002,9.87777 -1.278435,6.84458 -2.09924,15.54659 -2.429101,25.75278 -0.112878,3.4925 -0.298133,7.79333 -0.411681,9.5574 l -0.206449,3.20738 3.830129,0.42025 c 5.631251,0.61787 6.123171,0.72182 6.123171,1.29396 0,0.28177 -1.003727,1.5111 -2.230508,2.73185 -2.042746,2.03272 -3.865114,4.34381 -9.030547,11.45236 -1.417707,1.95102 -2.059767,2.55764 -2.707057,2.55764 -0.46671,0 -0.84855,-0.14793 -0.84855,-0.32873 z" id="path51269"/>
  </g>
</svg>