<?xml version="1.0" encoding="UTF-8" standalone="no"?>
<!-- Created with Inkscape (http://www.inkscape.org/) -->
<svg width="42mm" height="99mm" viewBox="0 0 42 99" version="1.1" id="svg5" inkscape:version="1.1.1 (1:1.1+202109281943+c3084ef5ed)" sodipodi:docname="flèche1.svg" xmlns:inkscape="http://www.inkscape.org/namespaces/inkscape" xmlns:sodipodi="http://sodipodi.sourceforge.net/DTD/sodipodi-0.dtd" xmlns="http://www.w3.org/2000/svg" xmlns:svg="http://www.w3.org/2000/svg">
  <sodipodi:namedview id="namedview7" pagecolor="#505050" bordercolor="#eeeeee" borderopacity="1" inkscape:pageshadow="0" inkscape:pageopacity="0" inkscape:pagecheckerboard="0" inkscape:document-units="mm" showgrid="false" inkscape:zoom="0.32026164" inkscape:cx="131.14277" inkscape:cy="607.31593" inkscape:window-width="1854" inkscape:window-height="978" inkscape:window-x="66" inkscape:window-y="149" inkscape:window-maximized="1" inkscape:current-layer="layer1"/>
  <defs id="defs2"/>
  <g inkscape:label="Calque 1" inkscape:groupmode="layer" id="layer1">
    <path style="fill:#7ab892;fill-opacity:1;stroke-width:0.352778" d="m 19.771481,93.332365 c -0.97535,-1.018646 -2.948094,-3.105062 -4.383879,-4.636481 -1.435785,-1.531418 -2.90105,-3.039543 -3.25613,-3.351388 -0.35509,-0.311845 -1.00399,-0.884492 -1.44201,-1.272547 -0.43801,-0.388056 -1.8829099,-1.658056 -3.2108999,-2.822222 -3.72337,-3.26407 -4.75207,-4.466368 -4.75396,-5.55625 -0.002,-0.969112 0.001,-0.970142 2.55595,-0.971963 4.50785,-0.0032 9.4963889,-0.44318 9.6066029,-0.847256 0.35055,-1.285215 1.310277,-10.746217 1.557681,-15.355653 0.368021,-6.856681 -0.13208,-25.160392 -0.82166,-30.072809 C 14.584672,21.04773 11.532972,10.361544 9.2527621,6.1384275 7.3769921,2.6643496 7.6552121,2.1633116 10.836802,3.2858416 c 1.08334,0.3822219 3.03043,0.5312599 7.011719,0.5367029 7.158753,0.0098 20.4957,0.900735 20.999068,1.402799 0.554189,0.552756 0.697537,9.8260615 0.237229,15.3466095 -0.664436,7.968702 -4.186361,28.049024 -5.276994,30.08689 -0.196286,0.366766 -0.769846,2.796004 -1.274576,5.398311 -1.298804,6.696396 -1.907205,9.246573 -3.022462,12.668962 -0.53744,1.649236 -1.127277,3.832049 -1.310746,4.850694 l -0.333583,1.852084 h 4.901801 c 5.401165,0 5.72655,0.137858 4.755878,2.014929 -0.290184,0.561153 -1.252174,1.688161 -2.137759,2.504464 -2.752012,2.536716 -6.642015,6.843084 -8.833079,9.77852 -1.154331,1.546493 -2.198162,2.891183 -2.319623,2.988197 -0.121462,0.09701 -0.520926,0.692324 -0.887695,1.322914 -0.366769,0.63059 -0.922069,1.14653 -1.233999,1.14653 -0.311929,0 -1.365155,-0.83344 -2.3405,-1.852083 z" id="path41754"/>
    <path style="fill:#000000;stroke-width:0.352778" id="path41716" d=""/>
  </g>
</svg>