<?xml version="1.0" encoding="UTF-8" standalone="no"?>
<!-- Created with Inkscape (http://www.inkscape.org/) -->
<svg width="42mm" height="99mm" viewBox="0 0 42 99" version="1.1" id="svg5" inkscape:version="1.1.1 (1:1.1+202109281943+c3084ef5ed)" sodipodi:docname="flèche3.svg" xmlns:inkscape="http://www.inkscape.org/namespaces/inkscape" xmlns:sodipodi="http://sodipodi.sourceforge.net/DTD/sodipodi-0.dtd" xmlns="http://www.w3.org/2000/svg" xmlns:svg="http://www.w3.org/2000/svg">
  <sodipodi:namedview id="namedview7" pagecolor="#505050" bordercolor="#eeeeee" borderopacity="1" inkscape:pageshadow="0" inkscape:pageopacity="0" inkscape:pagecheckerboard="0" inkscape:document-units="mm" showgrid="false" inkscape:zoom="0.32026164" inkscape:cx="131.14277" inkscape:cy="607.31593" inkscape:window-width="1854" inkscape:window-height="978" inkscape:window-x="66" inkscape:window-y="149" inkscape:window-maximized="1" inkscape:current-layer="layer1"/>
  <defs id="defs2"/>
  <g inkscape:label="Calque 1" inkscape:groupmode="layer" id="layer1">
    <path style="fill:#000000;stroke-width:0.352778" id="path41716" d=""/>
    <path style="fill:#7ab892;stroke-width:0.352778;fill-opacity:1" d="m 19.25168,93.841911 c -0.975349,-1.01865 -2.948093,-3.10507 -4.383878,-4.63648 -1.435787,-1.53142 -2.901047,-3.03955 -3.256137,-3.35139 -0.35509,-0.31185 -1.00399,-0.88449 -1.442,-1.27255 -0.4380103,-0.38806 -1.8829203,-1.65806 -3.2109003,-2.82222 -3.72338,-3.26407 -4.75207,-4.46637 -4.75396,-5.55625 -0.002,-0.96912 10e-4,-0.97015 2.55595,-0.97197 4.50785,-0.003 9.4963903,-0.44318 9.6065993,-0.84725 0.350551,-1.28522 1.310277,-10.74622 1.557681,-15.35566 0.368022,-6.85668 -0.132079,-25.16039 -0.821659,-30.07281 -1.038501,-7.39807 -4.090201,-18.08425 -6.3704113,-22.3073705 -1.87578,-3.47408 -1.59755,-3.97511 1.5840403,-2.85258 1.08333,0.38222 3.03042,0.53126 7.011715,0.5367 7.158754,0.01 20.495701,0.90073 20.999069,1.4028 0.554189,0.55275 0.697537,9.8260605 0.237229,15.3466105 -0.664436,7.9687 -4.186361,28.04902 -5.276994,30.08689 -0.196286,0.36677 -0.769846,2.796 -1.274576,5.39831 -1.298804,6.6964 -1.907205,9.24658 -3.022462,12.66897 -0.53744,1.64923 -1.127277,3.83204 -1.310746,4.85069 l -0.333583,1.85208 h 4.901801 c 5.401165,0 5.72655,0.13786 4.755878,2.01493 -0.290184,0.56116 -1.252174,1.68816 -2.137759,2.50447 -2.752012,2.53671 -6.642015,6.84308 -8.833079,9.77852 -1.154331,1.54649 -2.198162,2.89118 -2.319623,2.9882 -0.121462,0.097 -0.520926,0.69232 -0.887695,1.32291 -0.366769,0.63059 -0.922069,1.14653 -1.233999,1.14653 -0.31193,0 -1.365155,-0.83344 -2.340501,-1.85208 z" id="path48744"/>
  </g>
</svg>