<?xml version="1.0" encoding="UTF-8" standalone="no"?>
<!-- Created with Inkscape (http://www.inkscape.org/) -->

<svg
   width="96mm"
   height="20mm"
   viewBox="0 0 96 20"
   version="1.1"
   id="svg1029"
   inkscape:version="1.1.1 (1:1.1+202109281943+c3084ef5ed)"
   sodipodi:docname="lien4.svg"
   xmlns:inkscape="http://www.inkscape.org/namespaces/inkscape"
   xmlns:sodipodi="http://sodipodi.sourceforge.net/DTD/sodipodi-0.dtd"
   xmlns="http://www.w3.org/2000/svg"
   xmlns:svg="http://www.w3.org/2000/svg">
  <sodipodi:namedview
     id="namedview1031"
     pagecolor="#505050"
     bordercolor="#eeeeee"
     borderopacity="1"
     inkscape:pageshadow="0"
     inkscape:pageopacity="0"
     inkscape:pagecheckerboard="0"
     inkscape:document-units="mm"
     showgrid="false"
     inkscape:zoom="0.64052329"
     inkscape:cx="396.55076"
     inkscape:cy="561.25984"
     inkscape:window-width="1854"
     inkscape:window-height="1098"
     inkscape:window-x="66"
     inkscape:window-y="29"
     inkscape:window-maximized="1"
     inkscape:current-layer="layer1" />
  <defs
     id="defs1026" />
  <g
     inkscape:label="Calque 1"
     inkscape:groupmode="layer"
     id="layer1">
    <path
       style="fill:#e77364;fill-opacity:1;stroke:none;stroke-width:0.352777;stroke-opacity:1"
       d="m 92.932322,2.4775326 c -0.45736,0 -1.08107,0.24958 -1.38596,0.55448 -0.62074,0.62074 -0.74572,2.64065 -0.19741,3.18897 0.53682,0.53682 -1.39809,3.23456 -4.18837,5.8394404 -1.56324,1.45936 -3.48745,2.78654 -5.54334,3.82302 -3.08267,1.55416 -3.21937,1.58689 -6.50037,1.57458 -2.78691,-0.0104 -3.96775,-0.20751 -7.01146,-1.17049 -2.01312,-0.6369 -4.55329,-1.56091 -5.64462,-2.05361 -6.36842,-2.87523 -14.8791,-5.2475404 -21.73976,-6.0595704 -7.59236,-0.89866 -20.41024,-0.78071 -31.0441003,0.28578 -2.63449,0.26418 -2.90594,0.22733 -4.07623,-0.55658 -2.3595,-1.58046 -4.21422,-0.79267 -4.21422,1.79009 0,1.7441304 0.47607,2.3131504 1.92288,2.2980404 1.23416,-0.0129 2.31046,-0.70318 2.31046,-1.48156 0,-0.6085204 0.93181,-0.7411304 9.7012103,-1.3802804 7.37399,-0.53739 20.28077,-0.51665 24.5184,0.0393 7.35688,0.9651504 15.58003,3.2625804 21.91598,6.1231504 1.73416,0.78296 7.63718,2.72304 9.65729,3.17397 1.44765,0.32313 6.74658,0.17026 7.9375,-0.22892 0.6791,-0.22765 2.51538,-1.09111 4.08037,-1.91876 3.19428,-1.68928 7.3408,-5.53654 8.67234,-8.0465304 0.56941,-1.07334 1.07811,-1.55755 1.78335,-1.6986 0.88055,-0.17611 0.98651,-0.34724 0.98651,-1.59216 0,-1.588 -0.70968,-2.50372 -1.94045,-2.50372 z"
       id="path964" />
  </g>
</svg>
