<?xml version="1.0" encoding="UTF-8" standalone="no"?>
<!-- Created with Inkscape (http://www.inkscape.org/) -->

<svg
   width="55mm"
   height="26mm"
   viewBox="0 0 55 26"
   version="1.1"
   id="svg1029"
   inkscape:version="1.1.1 (1:1.1+202109281943+c3084ef5ed)"
   sodipodi:docname="lien2.svg"
   xmlns:inkscape="http://www.inkscape.org/namespaces/inkscape"
   xmlns:sodipodi="http://sodipodi.sourceforge.net/DTD/sodipodi-0.dtd"
   xmlns="http://www.w3.org/2000/svg"
   xmlns:svg="http://www.w3.org/2000/svg">
  <sodipodi:namedview
     id="namedview1031"
     pagecolor="#505050"
     bordercolor="#eeeeee"
     borderopacity="1"
     inkscape:pageshadow="0"
     inkscape:pageopacity="0"
     inkscape:pagecheckerboard="0"
     inkscape:document-units="mm"
     showgrid="false"
     inkscape:zoom="0.64052329"
     inkscape:cx="396.55076"
     inkscape:cy="561.25984"
     inkscape:window-width="1854"
     inkscape:window-height="1098"
     inkscape:window-x="66"
     inkscape:window-y="29"
     inkscape:window-maximized="1"
     inkscape:current-layer="layer1" />
  <defs
     id="defs1026" />
  <g
     inkscape:label="Calque 1"
     inkscape:groupmode="layer"
     id="layer1">
    <path
       style="fill:#e77364;fill-opacity:1;stroke:none;stroke-width:0.352777;stroke-opacity:1"
       d="m 51.914816,1.9180833 c -0.20075,0 -3.7057,2.80932 -4.02766,3.22823 -0.39359,0.51211 -4.2762,1.35277 -7.76129,1.68051 -2.03729,0.19161 -6.32354,0.44566 -9.525,0.56432 -9.51342,0.35256 -14.54383,1.5962599 -18.8066,4.6498497 -2.2109595,1.58379 -5.6122295,5.2938 -6.2378595,6.80423 -0.37761,0.91162 -0.62781,1.06453 -1.73892,1.06453 -2.04525,0 -2.61073,0.97136 -1.70325,2.92539 0.3167,0.68196 0.70631,0.95041 1.38234,0.95242 1.50828,0.004 2.05638,-0.35719 2.06138,-1.35808 0.006,-1.22235 1.9173,-4.54713 3.72483,-6.47764 3.1659795,-3.38137 6.5730495,-5.31246 11.0210395,-6.2476798 4.51802,-0.94991 5.50492,-1.05167 14.00121,-1.4407399 8.81813,-0.40378 12.86796,-1.00639 14.40739,-2.14455 0.8458,-0.62534 1.17211,-0.69694 1.69395,-0.37105 0.71272,0.44511 1.70945,0.51885 2.56729,0.18965 0.84053,-0.32253 0.73673,-2.65078 -0.15193,-3.41167 -0.39027,-0.33417 -0.79843,-0.60772 -0.90692,-0.60772 z"
       id="path962" />
  </g>
</svg>
