<?xml version="1.0" encoding="UTF-8" standalone="no"?>
<!-- Created with Inkscape (http://www.inkscape.org/) -->

<svg
   width="87mm"
   height="36mm"
   viewBox="0 0 87 36"
   version="1.1"
   id="svg1029"
   inkscape:version="1.1.1 (1:1.1+202109281943+c3084ef5ed)"
   sodipodi:docname="lien1.svg"
   xmlns:inkscape="http://www.inkscape.org/namespaces/inkscape"
   xmlns:sodipodi="http://sodipodi.sourceforge.net/DTD/sodipodi-0.dtd"
   xmlns="http://www.w3.org/2000/svg"
   xmlns:svg="http://www.w3.org/2000/svg">
  <sodipodi:namedview
     id="namedview1031"
     pagecolor="#505050"
     bordercolor="#eeeeee"
     borderopacity="1"
     inkscape:pageshadow="0"
     inkscape:pageopacity="0"
     inkscape:pagecheckerboard="0"
     inkscape:document-units="mm"
     showgrid="false"
     inkscape:zoom="0.64052329"
     inkscape:cx="396.55076"
     inkscape:cy="561.25984"
     inkscape:window-width="1854"
     inkscape:window-height="1098"
     inkscape:window-x="66"
     inkscape:window-y="29"
     inkscape:window-maximized="1"
     inkscape:current-layer="layer1" />
  <defs
     id="defs1026" />
  <g
     inkscape:label="Calque 1"
     inkscape:groupmode="layer"
     id="layer1">
    <path
       style="fill:#e77364;fill-opacity:1;stroke:none;stroke-width:0.352777;stroke-opacity:1"
       d="m 2.6184309,1.5424237 c -0.51822,0.0122 -0.97611,0.19431 -1.10898,0.54054 -0.38168,0.99465 -0.22854,1.78927 0.46613,2.41795 0.75315,0.68159 2.14198,0.47395 2.14198,-0.32041 0,-0.26101 0.27639,-0.41807 0.61754,-0.35087 2.98198,0.58749 7.4372901,1.68307 7.9328501,1.95078 0.33691,0.182 0.85452,0.33073 1.15031,0.33073 0.29579,0 1.29017,0.33856 2.20969,0.75189 0.91951,0.41333 2.3069,1.02232 3.08301,1.35393 4.25814,1.8193193 5.40481,2.3529593 6.52622,3.0354493 0.6791,0.41331 2.42518,1.38594 3.88038,2.16165 4.63392,2.47012 6.84009,4.00619 13.47153,9.37977 3.43334,2.78212 5.65948,4.27691 8.27547,5.55625 1.96833,0.96261 3.73312,1.7503 3.92172,1.7503 0.34358,0 2.75441,0.89995 5.72885,2.13889 0.87312,0.36367 2.30187,0.83156 3.175,1.03971 0.87312,0.20817 1.90483,0.51413 2.29288,0.68008 0.38806,0.16592 1.49948,0.45503 2.46962,0.64233 0.97014,0.1873 3.70232,0.36243 6.07198,0.38912 3.54528,0.04 4.62323,-0.0753 6.08542,-0.65164 0.97732,-0.38526 1.77715,-0.54414 1.77715,-0.35295 0,0.19121 0.6296,0.34779 1.39888,0.34779 1.46486,0 2.12907,-0.63643 2.12907,-2.03917 0,-1.89971 -3.59617,-2.59884 -3.81165,-0.74102 -0.15572,1.3425 -2.27876,2.11897 -6.39341,2.33887 -3.15068,0.16838 -7.41285,-0.29917 -9.02167,-0.99013 -0.38806,-0.16666 -1.41976,-0.47344 -2.29289,-0.68162 -0.87312,-0.20814 -2.30187,-0.67603 -3.175,-1.0397 -2.97444,-1.23892 -5.38527,-2.1389 -5.72884,-2.1389 -0.1886,0 -1.95339,-0.78829 -3.92173,-1.75183 -3.27827,-1.60478 -10.46108,-6.80201 -12.2468,-8.86097 -0.66407,-0.76568 -8.07528,-5.41608 -12.02045,-7.54269 -2.19676,-1.1841393 -5.26202,-2.6067593 -10.70839,-4.9702293 -1.85084,-0.80319 -4.12124,-1.4737 -8.2904498,-2.44842 -2.2313203,-0.52168 -4.3073503,-1.17256 -4.6136703,-1.44593 -0.37456,-0.33424 -0.95353,-0.4918 -1.47175,-0.47955 z"
       id="path2192-6" />
  </g>
</svg>
