<?xml version="1.0" encoding="UTF-8" standalone="no"?>
<!-- Created with Inkscape (http://www.inkscape.org/) -->

<svg
   width="83mm"
   height="33mm"
   viewBox="0 0 83 33"
   version="1.1"
   id="svg1029"
   inkscape:version="1.1.1 (1:1.1+202109281943+c3084ef5ed)"
   sodipodi:docname="lien3.svg"
   xmlns:inkscape="http://www.inkscape.org/namespaces/inkscape"
   xmlns:sodipodi="http://sodipodi.sourceforge.net/DTD/sodipodi-0.dtd"
   xmlns="http://www.w3.org/2000/svg"
   xmlns:svg="http://www.w3.org/2000/svg">
  <sodipodi:namedview
     id="namedview1031"
     pagecolor="#505050"
     bordercolor="#eeeeee"
     borderopacity="1"
     inkscape:pageshadow="0"
     inkscape:pageopacity="0"
     inkscape:pagecheckerboard="0"
     inkscape:document-units="mm"
     showgrid="false"
     inkscape:zoom="0.64052329"
     inkscape:cx="396.55076"
     inkscape:cy="561.25984"
     inkscape:window-width="1854"
     inkscape:window-height="1098"
     inkscape:window-x="66"
     inkscape:window-y="29"
     inkscape:window-maximized="1"
     inkscape:current-layer="layer1" />
  <defs
     id="defs1026" />
  <g
     inkscape:label="Calque 1"
     inkscape:groupmode="layer"
     id="layer1">
    <path
       style="fill:#e77364;fill-opacity:1;stroke:none;stroke-width:0.352777;stroke-opacity:1"
       d="m 3.9453967,1.8703714 c -0.83931,0.0171 -1.9203,0.62997 -1.9203,1.29087 0,1.60602 3.03655,2.52857 3.42563,1.04077 0.1113,-0.42564 0.48289,-0.70699 0.9369,-0.70901 0.41393,-0.002 2.59039,-0.16518 4.8363903,-0.36224 3.41212,-0.2994 4.48516,-0.26508 6.52622,0.2067 3.70322,0.85598 6.37207,2.30259 9.40356,5.09841 3.03829,2.8020996 8.08898,8.3812296 9.44335,10.4308796 0.48507,0.73406 2.23115,2.75146 3.88039,4.48294 2.60633,2.7363 3.42171,3.35053 6.23114,4.6953 1.77775,0.85095 4.31793,1.84959 5.64462,2.21951 2.67713,0.74644 8.98715,0.97888 11.51609,0.42426 0.81352,-0.17841 2.43148,-0.50131 3.59564,-0.71779 2.05516,-0.38211 3.30269,-0.65135 6.79132,-1.46553 0.92163,-0.21508 2.22742,-0.63608 2.90163,-0.93586 0.67423,-0.29979 1.90101,-0.51956 2.72645,-0.48834 1.31689,0.0498 1.52701,-0.0483 1.71566,-0.79996 0.37666,-1.50072 0.061,-2.14715 -1.04852,-2.14715 -0.85587,0 -1.49137,0.52157 -1.82831,1.50069 -0.067,0.1946 -5.27294,1.90841 -6.63525,2.18435 -0.79639,0.16131 -2.79701,0.558 -4.44624,0.88161 -1.64924,0.32359 -3.66424,0.73832 -4.47776,0.92139 -4.46304,1.00425 -10.16717,0.0438 -15.7732,-2.65618 -2.73122,-1.3154 -3.62895,-1.98631 -6.03116,-4.5067 -1.55222,-1.62859 -3.21909,-3.56214 -3.70416,-4.29689 -2.96638,-4.49328 -11.45204,-12.7913796 -14.6327,-14.3092196 -3.94314,-1.88166 -6.57777,-2.25348 -12.5858,-1.77506 -4.1068703,0.32694 -5.3824603,0.32594 -5.7820703,-0.006 -0.17709,-0.14698 -0.42975,-0.20775 -0.70952,-0.20206 z"
       id="path966" />
  </g>
</svg>
