<?xml version="1.0" encoding="UTF-8" standalone="no"?>
<!-- Created with Inkscape (http://www.inkscape.org/) -->

<svg
   width="518"
   height="645"
   viewBox="0 0 137.05387 170.6562"
   version="1.1"
   id="svg5"
   inkscape:version="1.1.1 (1:1.1+202109281943+c3084ef5ed)"
   sodipodi:docname="ardoise.svg"
   xmlns:inkscape="http://www.inkscape.org/namespaces/inkscape"
   xmlns:sodipodi="http://sodipodi.sourceforge.net/DTD/sodipodi-0.dtd"
   xmlns="http://www.w3.org/2000/svg"
   xmlns:svg="http://www.w3.org/2000/svg">
  <sodipodi:namedview
     id="namedview7"
     pagecolor="#505050"
     bordercolor="#eeeeee"
     borderopacity="1"
     inkscape:pageshadow="0"
     inkscape:pageopacity="0"
     inkscape:pagecheckerboard="0"
     inkscape:document-units="mm"
     showgrid="false"
     units="px"
     inkscape:zoom="0.69054878"
     inkscape:cx="269.35099"
     inkscape:cy="335.24062"
     inkscape:window-width="1854"
     inkscape:window-height="978"
     inkscape:window-x="66"
     inkscape:window-y="149"
     inkscape:window-maximized="1"
     inkscape:current-layer="layer1" />
  <defs
     id="defs2" />
  <g
     inkscape:label="Calque 1"
     inkscape:groupmode="layer"
     id="layer1">
    <g
       id="g20856"
       transform="translate(-29.576925,-21.095068)">
      <path
         style="fill:#ffffff;fill-opacity:1;stroke:none;stroke-width:0.352778;stroke-opacity:1"
         d="m 158.27564,184.51604 c 0.37844,-0.20254 0.83923,-0.76581 1.02397,-1.25171 0.2085,-0.54839 0.33589,-26.9403 0.33589,-69.58485 0,-56.714011 -0.0821,-68.813686 -0.47064,-69.34502 -0.27443,-0.375314 -1.19362,-0.76233 -2.20487,-0.928343 -0.95382,-0.156587 -10.81965,-0.294167 -21.92406,-0.305733 l -20.18984,-0.02103 -0.24115,0.97014 c -0.13264,0.533577 -0.57222,1.428067 -0.97686,1.987754 l -0.73571,1.017613 -9.988,-0.203674 c -9.241492,-0.188452 -12.995149,-0.04836 -20.855615,0.778389 -2.2817,0.239983 -3.365735,0.196515 -4.656191,-0.18671 -1.870265,-0.555409 -3.129426,-1.942683 -3.129426,-3.44783 V 43.079355 H 56.424639 c -11.093303,0 -18.085169,0.132013 -18.490848,0.349126 -0.398074,0.213043 -0.801556,1.044854 -1.035143,2.134034 -0.454434,2.118953 -0.511746,134.588895 -0.05942,137.341465 0.154724,0.94154 0.447564,1.81467 0.650757,1.94028 0.653933,0.40424 120.023125,0.0799 120.785655,-0.32822 z"
         id="path13581" />
      <path
         style="fill:#cfcfcf;fill-opacity:1;stroke:none;stroke-width:0.352778;stroke-opacity:1"
         d="m 161.04661,188.3085 c 0.90365,-0.43626 1.77965,-1.1716 2.03356,-1.70699 0.355,-0.74858 0.44451,-15.32167 0.43849,-71.39235 -0.007,-69.284505 -0.019,-70.477777 -0.70154,-72.020632 -0.8311,-1.878838 -1.77293,-2.719293 -3.86183,-3.446159 -1.3401,-0.466311 -4.58698,-0.543576 -22.84239,-0.543576 h -21.28025 v 1.39589 1.395889 l 21.60767,0.10366 c 11.88422,0.05701 21.88228,0.238365 22.2179,0.403006 0.33562,0.16464 0.93094,0.818271 1.32292,1.452512 0.70869,1.14668 0.7127,1.539519 0.7127,69.84999 0,62.85136 -0.0491,68.80023 -0.57674,69.9122 -1.13636,2.39469 3.59805,2.22421 -62.62621,2.25514 -69.287893,0.0324 -61.44716,0.52975 -61.840622,-3.92288 -0.127142,-1.43881 -0.182836,-32.85794 -0.123764,-69.82029 0.115134,-72.040889 0.01205,-68.109634 1.82439,-69.577684 0.690777,-0.55955 2.234627,-0.610161 18.832353,-0.617362 l 18.079891,-0.0078 v -1.423301 -1.423302 l -18.079891,0.100383 -18.079891,0.100382 -1.763891,0.881946 c -1.411114,0.705557 -1.940281,1.234724 -2.645838,2.645838 l -0.881946,1.763891 V 114.6934 c 0,69.32421 0.0071,70.04055 0.705557,71.42779 0.391405,0.77736 1.255322,1.71982 1.940281,2.11667 1.223641,0.70896 1.773037,0.71705 61.207044,0.902 32.984777,0.10265 60.607327,0.13004 61.383437,0.0609 0.77611,-0.0692 2.12549,-0.47066 2.99861,-0.89219 z"
         id="path13579" />
      <path
         style="fill:#000000;stroke-width:0.352778"
         d="m 95.95901,190.21138 c -54.96222,-0.18424 -59.70222,-0.24616 -60.67788,-0.79274 -1.64946,-0.92406 -2.98183,-2.8909 -3.36596,-4.96883 -0.21962,-1.18804 -0.31186,-26.9573 -0.25353,-70.82524 l 0.0917,-68.957713 0.91183,-1.940281 c 1.00868,-2.146353 2.72833,-3.567327 5.0854,-4.202139 0.91862,-0.247404 7.53656,-0.380731 18.96184,-0.382012 l 17.55072,-0.002 v -2.394547 c 0,-2.10157 0.11871,-2.533645 0.97014,-3.531072 1.26503,-1.481945 3.13543,-1.82693 10.10234,-1.863322 2.93244,-0.01532 5.12994,-0.109036 4.88332,-0.208262 -0.6662,-0.268045 -1.49188,-2.053789 -1.49188,-3.226577 0,-1.297959 1.10373,-2.717683 2.76738,-3.559668 2.84614,-1.440453 4.98624,-1.215521 6.99934,0.735658 1.5845,1.535757 1.65496,3.630271 0.172,5.113033 l -0.99741,0.997277 h 7.13251 c 6.44943,0 7.20186,0.06263 7.85664,0.653987 0.71489,0.645643 1.82236,4.524673 1.82236,6.383026 v 0.9005 h 21.7072 c 23.60994,0 22.79206,-0.0642 25.50054,2.001656 0.66447,0.50682 1.58433,1.743219 2.04413,2.747554 l 0.836,1.826064 0.0101,70.402258 c 0.006,44.90088 -0.11436,70.70454 -0.33351,71.23678 -0.9332,2.26645 -3.48234,3.78439 -6.63297,3.94976 -1.11805,0.0587 -28.86161,0.0168 -61.65236,-0.0932 z m 65.0876,-1.90288 c 0.90365,-0.43626 1.77965,-1.1716 2.03356,-1.70699 0.355,-0.74858 0.44451,-15.32167 0.43849,-71.39235 -0.007,-69.284505 -0.019,-70.477777 -0.70154,-72.020632 -0.8311,-1.878838 -1.77293,-2.719293 -3.86183,-3.446159 -1.3401,-0.466311 -4.58698,-0.543576 -22.84239,-0.543576 h -21.28025 v 1.39589 1.395889 l 21.60767,0.10366 c 11.88422,0.05701 21.88228,0.238365 22.2179,0.403006 0.33562,0.16464 0.93094,0.818271 1.32292,1.452512 0.70869,1.14668 0.7127,1.539519 0.7127,69.84999 0,62.85136 -0.0491,68.80023 -0.57674,69.9122 -1.13636,2.39469 3.59805,2.22421 -62.62621,2.25514 -69.28789,0.0324 -61.44716,0.52975 -61.84062,-3.92288 -0.12714,-1.43881 -0.18284,-32.85794 -0.12377,-69.82029 0.11514,-72.040889 0.012,-68.109634 1.82439,-69.577684 0.69078,-0.55955 2.23463,-0.610161 18.83236,-0.617362 l 18.07989,-0.0078 v -1.423301 -1.423302 l -18.07989,0.100383 -18.07989,0.100382 -1.7639,0.881946 c -1.41111,0.705557 -1.94028,1.234724 -2.64583,2.645838 l -0.88195,1.763891 V 114.6934 c 0,69.32421 0.007,70.04055 0.70556,71.42779 0.3914,0.77736 1.25532,1.71982 1.94028,2.11667 1.22364,0.70896 1.77304,0.71705 61.20704,0.902 32.98478,0.10265 60.60733,0.13004 61.38344,0.0609 0.77611,-0.0692 2.12549,-0.47066 2.99861,-0.89219 z m -2.77097,-3.79246 c 0.37844,-0.20254 0.83923,-0.76581 1.02397,-1.25171 0.2085,-0.54839 0.33589,-26.9403 0.33589,-69.58485 0,-56.714011 -0.0821,-68.813686 -0.47064,-69.34502 -0.27443,-0.375314 -1.19362,-0.76233 -2.20487,-0.928343 -0.95382,-0.156587 -10.81965,-0.294167 -21.92406,-0.305733 l -20.18984,-0.02103 -0.24115,0.97014 c -0.13264,0.533577 -0.57222,1.428067 -0.97686,1.987754 l -0.73571,1.017613 -9.988,-0.203674 c -9.24149,-0.188452 -12.99515,-0.04836 -20.85562,0.778389 -2.2817,0.239983 -3.36573,0.196515 -4.65619,-0.18671 -1.87026,-0.555409 -3.12942,-1.942683 -3.12942,-3.44783 v -0.915681 h -17.8385 c -11.0933,0 -18.08517,0.132013 -18.49085,0.349126 -0.39807,0.213043 -0.80156,1.044854 -1.03514,2.134034 -0.45444,2.118953 -0.51175,134.588895 -0.0594,137.341465 0.15472,0.94154 0.44756,1.81467 0.65075,1.94028 0.65394,0.40424 120.02313,0.0799 120.78566,-0.32822 z M 90.86932,28.744257 c -0.40213,-0.511237 -0.73116,-1.283579 -0.73116,-1.716317 0,-0.432737 0.32903,-1.20508 0.73116,-1.716316 0.8848,-1.124839 0.63651,-1.232047 -0.36463,-0.157444 -0.93581,1.004464 -0.94258,2.885206 -0.0137,3.814041 1.0085,1.008505 1.24004,0.871458 0.37838,-0.223964 z m 5.0078,0.03486 c 1.13808,-0.773352 1.31661,-1.079164 1.31661,-2.255317 0,-1.580446 -0.33225,-1.788917 -2.85108,-1.788917 -1.9497,0 -3.15002,0.842649 -3.14075,2.204865 0.008,1.12186 0.37159,1.569279 1.76987,2.17579 1.56804,0.680137 1.37675,0.702287 2.90535,-0.336421 z m 2.70536,-1.371695 c -0.02,-0.654718 -0.0593,-0.639635 -0.37135,0.142434 -0.19194,0.48108 -0.61731,1.195457 -0.94526,1.587503 -0.39424,0.471301 -0.26842,0.423042 0.37136,-0.142435 0.53219,-0.470385 0.95755,-1.184761 0.94525,-1.587502 z m -0.72394,-2.804778 c -0.78573,-0.722774 -0.7933,-0.723362 -0.21074,-0.01637 0.33234,0.403333 0.62268,1.038334 0.64519,1.411113 0.0392,0.649055 0.0481,0.649748 0.21074,0.01637 0.10317,-0.40186 -0.15001,-0.955604 -0.64519,-1.411113 z m -2.87702,-1.139232 c -0.11723,-0.117226 -0.4215,-0.129759 -0.67616,-0.02785 -0.28142,0.112616 -0.19783,0.196209 0.21314,0.213137 0.37188,0.01532 0.58024,-0.06806 0.46302,-0.185287 z"
         id="path2114-5" />
    </g>
  </g>
</svg>
