<?xml version="1.0" encoding="UTF-8" standalone="no"?>
<!-- Created with Inkscape (http://www.inkscape.org/) -->

<svg
   width="328"
   height="754"
   viewBox="0 0 86.78347 199.49542"
   version="1.1"
   id="svg5"
   inkscape:version="1.1.1 (1:1.1+202109281943+c3084ef5ed)"
   sodipodi:docname="arrosePousse.svg"
   xmlns:inkscape="http://www.inkscape.org/namespaces/inkscape"
   xmlns:sodipodi="http://sodipodi.sourceforge.net/DTD/sodipodi-0.dtd"
   xmlns="http://www.w3.org/2000/svg"
   xmlns:svg="http://www.w3.org/2000/svg">
  <sodipodi:namedview
     id="namedview7"
     pagecolor="#505050"
     bordercolor="#eeeeee"
     borderopacity="1"
     inkscape:pageshadow="0"
     inkscape:pageopacity="0"
     inkscape:pagecheckerboard="0"
     inkscape:document-units="mm"
     showgrid="false"
     units="px"
     inkscape:zoom="1.2810466"
     inkscape:cx="279.459"
     inkscape:cy="160.41571"
     inkscape:window-width="1920"
     inkscape:window-height="1176"
     inkscape:window-x="1920"
     inkscape:window-y="0"
     inkscape:window-maximized="1"
     inkscape:current-layer="layer1" />
  <defs
     id="defs2" />
  <g
     inkscape:label="Calque 1"
     inkscape:groupmode="layer"
     id="layer1">
    <path
       style="fill:#000000;stroke-width:0.352778"
       d="m 36.202137,197.94525 c -0.83081,-0.40068 -1.09509,-1.33333 -0.37783,-1.33333 0.22876,0 0.94478,0.19124 1.59116,0.42497 1.66559,0.60229 3.50362,0.0347 9.46876,-2.92388 3.40533,-1.68898 5.52568,-2.52308 6.79644,-2.67358 l 1.84699,-0.21875 -0.71102,-1.2051 c -0.44373,-0.75207 -0.71103,-1.8346 -0.71103,-2.87962 0,-1.42671 -0.16999,-1.83929 -1.14868,-2.78786 -0.84722,-0.82116 -1.28698,-1.0259 -1.67569,-0.78016 -0.78977,0.49928 -3.4306,0.41124 -4.51709,-0.1506 -1.57252,-0.81319 -2.52582,-2.97071 -2.93327,-6.63863 -0.20002,-1.80055 -0.61018,-3.79535 -0.91148,-4.43288 -0.30131,-0.63752 -0.44261,-1.26435 -0.31401,-1.39295 0.1286,-0.1286 2.08359,0.7192 4.34443,1.88399 4.72019,2.43185 6.07554,3.76167 6.35427,6.23454 0.0968,0.85921 -1.3e-4,1.89144 -0.21549,2.29385 -0.32562,0.60842 -0.23477,0.91799 0.5394,1.83804 l 0.93096,1.10638 0.74346,-1.23154 c 0.40891,-0.67734 1.64422,-2.55278 2.74513,-4.16763 3.17003,-4.64986 3.40796,-7.24204 1.13052,-12.31683 -0.82972,-1.84888 -1.05096,-2.08454 -1.95697,-2.08454 -1.40607,0 -3.12509,-0.78656 -4.15166,-1.89964 -0.95891,-1.03972 -1.35266,-3.87525 -0.92974,-6.69545 0.18537,-1.23612 1.84964,-4.42054 3.59106,-6.87115 0.24773,-0.3486 1.54985,0.42861 1.54985,0.92507 0,0.3194 0.80964,2.18168 1.7992,4.13841 2.38176,4.7096 2.71664,7.65081 1.05977,9.30768 -0.63264,0.63264 -0.62403,0.71391 0.30747,2.90145 0.5271,1.23782 1.07415,2.87149 1.21567,3.63039 l 0.25732,1.37981 1.60803,-1.60803 c 1.54161,-1.54161 1.59151,-1.65542 1.20806,-2.75537 -1.2466,-3.57601 0.35011,-5.96455 5.6125,-8.39578 1.65643,-0.76527 3.22319,-1.64625 3.4817,-1.95773 0.53364,-0.643 1.79472,-0.76687 1.79472,-0.17627 0,0.21453 -0.22481,1.28609 -0.49958,2.38125 -0.27477,1.09515 -0.60907,2.86432 -0.74288,3.93147 -0.33108,2.64027 -1.46133,5.1593 -2.71566,6.05246 -0.88813,0.63241 -1.39542,0.71546 -3.46545,0.56735 l -2.42502,-0.17351 -1.90015,1.98032 c -1.37764,1.43577 -1.9721,2.3654 -2.16177,3.38069 -0.30724,1.64451 -1.4917,3.79573 -3.66666,6.65941 -1.50794,1.98543 -2.88394,4.90054 -2.88394,6.10973 0,0.319 0.35719,1.34267 0.79375,2.27481 0.58686,1.25307 0.99493,1.69859 1.56561,1.70928 0.42452,0.008 1.7739,0.2458 2.99861,0.52855 5.80548,1.34029 13.11942,2.3475 18.54273,2.55353 4.7652,0.18104 5.73264,0.30715 5.73264,0.74726 0,0.45915 -0.83168,0.50026 -6.26181,0.30955 -6.17328,-0.21681 -10.73839,-0.82356 -17.90347,-2.37958 -5.33933,-1.15952 -6.86392,-0.93024 -12.59507,1.89413 -2.58007,1.27148 -5.30575,2.56037 -6.05704,2.86419 -1.55251,0.62781 -4.59556,0.69198 -5.77775,0.12183 z m 14.3669,-15.61024 c 0.35075,-0.42262 0.22818,-0.7639 -0.66235,-1.84427 -0.60101,-0.72913 -1.09275,-1.52764 -1.09275,-1.77447 0,-0.83734 0.87774,-0.4538 2.00045,0.87411 0.97253,1.15027 1.15106,1.23988 1.36794,0.6866 0.28008,-0.71451 -0.67953,-3.11269 -1.56682,-3.91568 -0.64136,-0.58042 -5.69556,-3.13909 -5.8612,-2.9672 -0.29473,0.30584 0.54969,6.00124 1.02646,6.92321 1.12423,2.17403 3.74278,3.27744 4.78827,2.0177 z m 20.53719,-14.91545 c 0.49766,-0.53358 1.09783,-1.34462 1.3337,-1.80231 0.44298,-0.85958 1.51458,-6.77681 1.27132,-7.02006 -0.25107,-0.25107 -5.64313,2.40086 -6.49072,3.19227 -1.26447,1.18065 -1.87365,2.57704 -1.60835,3.68678 0.37651,1.57496 0.48141,1.59029 1.92964,0.2819 0.76037,-0.68695 1.62016,-1.249 1.91064,-1.249 0.94906,0 0.55645,0.91751 -0.89001,2.07991 -1.63682,1.31539 -1.55202,1.80065 0.31465,1.80065 0.99013,0 1.5526,-0.24479 2.22913,-0.97014 z m -13.82562,-4.28301 c 0,-0.17283 -0.31402,-1.00627 -0.69781,-1.85208 -0.85084,-1.87508 -1.00596,-5.94755 -0.22654,-5.94755 0.34036,0 0.53099,0.61014 0.63379,2.02847 0.16037,2.21256 1.31417,5.44555 1.87806,5.26236 0.6903,-0.22425 1.24727,-1.8337 1.05809,-3.0575 -0.10497,-0.67909 -1.0167,-2.87069 -2.02604,-4.87022 -2.0436,-4.04837 -1.81544,-4.00105 -3.73308,-0.77422 -0.80192,1.3494 -0.94342,1.99185 -0.94342,4.28349 0,2.98154 0.45595,3.85795 2.46945,4.74673 1.26959,0.56041 1.5875,0.59656 1.5875,0.18052 z m -20.81389,29.91519 c 0,-0.99634 14.86468,-131.366534 14.9929,-131.494755 0.0971,-0.0971 0.17654,-0.09771 0.17654,-0.0014 0,1.029085 -14.85726,131.333925 -14.98969,131.466355 -0.0989,0.0989 -0.17975,0.11231 -0.17975,0.0298 z m 12.46816,-3.67176 c 10e-4,-1.55223 0.0633,-2.14334 0.13782,-1.3136 0.0745,0.82975 0.0735,2.09975 -0.002,2.82222 -0.0758,0.72248 -0.13677,0.0436 -0.13549,-1.50862 z m 36.07989,1.70092 c -0.11134,-0.54745 -5.20972,-29.72912 -11.32975,-64.84815 -6.12002,-35.11902 -11.22195,-64.32902 -11.33763,-64.911103 -0.11567,-0.582083 -0.10945,-0.962787 0.0138,-0.84601 0.27418,0.259729 23.189308,131.267303 22.99462,131.461993 -0.0763,0.0763 -0.22973,-0.30929 -0.34106,-0.85673 z m -13.27752,-0.14282 c -0.004,-0.27488 -0.31823,-4.2304 -0.69831,-8.79005 -0.76384,-9.16354 -0.77549,-9.35975 -0.54205,-9.12631 0.25019,0.25019 1.64861,18.01512 1.43494,18.2288 -0.10303,0.10303 -0.19059,-0.0376 -0.19458,-0.31244 z m -22.21775,-20.84505 c 0,-2.4182 4.99571,-107.358293 5.11658,-107.479165 0.22125,-0.221255 0.5335,-7.5386 -2.29444,53.768115 -1.35825,29.44513 -2.54887,53.61593 -2.64584,53.7129 -0.097,0.097 -0.1763,0.0961 -0.1763,-0.002 z m 18.90771,-16.05644 c -0.11809,-0.93406 -2.1967,-21.22453 -4.61913,-45.08995 -2.42243,-23.86541 -4.50318,-44.18541 -4.62389,-45.155548 -0.12071,-0.970139 -0.12014,-1.669278 10e-4,-1.553641 0.25489,0.242782 9.80333,93.150539 9.59482,93.359059 -0.0761,0.0761 -0.23498,-0.62587 -0.35307,-1.55992 z M 52.870887,60.302525 c -1.57053,-0.686093 -3.2015,-2.177037 -3.70121,-3.383456 l -0.44134,-1.065477 h -12.67591 -12.67592 l -1.2979,0.881944 C 20.41618,57.865183 19.302376,57.851901 18.225169,56.689576 17.323458,55.716615 10.568483,47.183898 9.655604,45.864717 6.826513,41.776456 4.179493,38.248231 2.986388,36.975281 1.437133,35.322345 1.197026,34.686925 2.121689,34.686925 c 0.770231,0 2.32082,1.77039 6.025087,6.879167 4.143587,5.714668 9.698508,12.833364 10.946773,14.028413 l 1.019084,0.975635 2.620784,-1.836925 c 1.44144,-1.010309 4.11037,-3.036848 5.93096,-4.503416 1.82059,-1.466568 3.90434,-3.142735 4.63056,-3.724819 0.72623,-0.582083 2.80853,-2.254087 4.62734,-3.715568 1.81882,-1.461477 4.19612,-3.327862 5.28289,-4.14752 3.17978,-2.398229 3.21883,-2.466513 2.42473,-4.240184 -0.37132,-0.829388 -1.60347,-2.652321 -2.7381,-4.050963 -1.13463,-1.398643 -2.60061,-3.336737 -3.25773,-4.306876 -3.06859,-4.530346 -9.96265,-12.281494 -11.30136,-12.706386 -1.32842,-0.421622 -3.37364,0.926136 -7.521899,4.956758 -1.012772,0.984053 -6.487397,5.91826 -9.372699,8.44749 -2.79641,2.451308 -5.914084,5.314544 -6.985206,6.415137 -1.193389,1.226224 -2.205634,1.537 -2.205634,0.677167 0,-0.275057 1.706563,-2.043955 3.792362,-3.930883 C 8.12543,28.016226 10.05112,26.27023 10.318939,26.02316 10.727364,25.646384 10.576258,25.298943 9.381919,23.868628 8.598734,22.930705 7.42711,21.140748 6.778302,19.890946 5.23698,16.92187 5.123125,13.601778 6.471438,10.942576 7.494967,8.923938 10.441286,5.582971 12.387141,4.2344935 16.77799,1.1916328 26.327917,-0.1708091 31.073617,1.5685832 c 3.62271,1.3277931 7.67046,6.6563538 8.12592,10.6971708 0.23554,2.089695 -0.6436,4.423544 -2.1717,5.765234 l -1.15696,1.01583 0.68111,0.852693 c 0.3746,0.46898 1.05504,1.277498 1.51208,1.796705 0.45704,0.519208 1.50747,1.947958 2.33429,3.175 0.82682,1.227043 2.40063,3.342237 3.49736,4.700431 2.35125,2.911807 3.50711,5.045033 3.50711,6.472626 0,1.106378 0.0195,1.087155 -4.58611,4.5212 -1.45521,1.085035 -3.13911,2.389053 -3.74201,2.897815 -0.60289,0.508766 -1.39664,1.165814 -1.76389,1.460116 -0.36724,0.294297 -1.83939,1.484922 -3.27145,2.645833 -1.43205,1.160907 -3.1669,2.547306 -3.8552,3.080882 l -1.25147,0.970139 h 9.77296 9.77297 l 0.36649,-0.970139 c 0.90909,-2.406484 4.57414,-4.76922 7.47787,-4.82074 0.92852,-0.01647 1.80164,0.128796 1.94028,0.322824 0.13863,0.194027 0.86602,0.665631 1.61642,1.048007 2.88006,1.46758 4.0914,4.436057 3.37471,8.269944 -0.69842,3.736202 -2.92172,5.333788 -7.3849,5.30655 -1.06715,-0.0065 -2.41653,-0.219893 -2.99861,-0.474179 z m 7.26558,-1.784639 c 2.0448,-1.351326 2.81307,-5.141885 1.54817,-7.638475 -0.64311,-1.269337 -2.18307,-2.752993 -2.87953,-2.774245 -0.22867,-0.007 -0.6777,-0.274616 -0.99784,-0.594751 -0.80869,-0.80869 -2.25802,-0.683405 -4.34844,0.375892 -3.17023,1.606479 -4.42564,4.145608 -3.5879,7.256723 0.47222,1.753711 2.34084,3.708068 4.05087,4.236734 1.67728,0.518541 4.77617,0.08877 6.21467,-0.861878 z m -5.67808,-1.076794 c 0,-0.291042 0.23812,-0.529167 0.52916,-0.529167 0.29105,0 0.52917,0.238125 0.52917,0.529167 0,0.291041 -0.23812,0.529166 -0.52917,0.529166 -0.29104,0 -0.52916,-0.238125 -0.52916,-0.529166 z m 3.52777,0 c 0,-0.291042 0.23813,-0.529167 0.52917,-0.529167 0.29104,0 0.52917,0.238125 0.52917,0.529167 0,0.291041 -0.23813,0.529166 -0.52917,0.529166 -0.29104,0 -0.52917,-0.238125 -0.52917,-0.529166 z m -6.35,-1.058334 c 0,-0.291041 0.23813,-0.529166 0.52917,-0.529166 0.29104,0 0.52917,0.238125 0.52917,0.529166 0,0.291042 -0.23813,0.529167 -0.52917,0.529167 -0.29104,0 -0.52917,-0.238125 -0.52917,-0.529167 z m 4.58612,-1.058333 c 0,-0.291042 0.23812,-0.529167 0.52916,-0.529167 0.29104,0 0.52917,0.238125 0.52917,0.529167 0,0.291042 -0.23813,0.529167 -0.52917,0.529167 -0.29104,0 -0.52916,-0.238125 -0.52916,-0.529167 z m -2.46945,-1.058333 c 0,-0.291042 0.23813,-0.529167 0.52917,-0.529167 0.29104,0 0.52916,0.238125 0.52916,0.529167 0,0.291041 -0.23812,0.529166 -0.52916,0.529166 -0.29104,0 -0.52917,-0.238125 -0.52917,-0.529166 z m 6.70278,0 c 0,-0.291042 0.23812,-0.529167 0.52917,-0.529167 0.29104,0 0.52916,0.238125 0.52916,0.529167 0,0.291041 -0.23812,0.529166 -0.52916,0.529166 -0.29105,0 -0.52917,-0.238125 -0.52917,-0.529166 z m -8.81945,-1.411112 c 0,-0.291041 0.23813,-0.529166 0.52917,-0.529166 0.29104,0 0.52917,0.238125 0.52917,0.529166 0,0.291042 -0.23813,0.529167 -0.52917,0.529167 -0.29104,0 -0.52917,-0.238125 -0.52917,-0.529167 z m 5.99723,-0.352777 c 0,-0.291042 0.23812,-0.529167 0.52916,-0.529167 0.29105,0 0.52917,0.238125 0.52917,0.529167 0,0.291041 -0.23812,0.529166 -0.52917,0.529166 -0.29104,0 -0.52916,-0.238125 -0.52916,-0.529166 z m -2.46945,-1.058334 c 0,-0.291041 0.23813,-0.529166 0.52917,-0.529166 0.29104,0 0.52917,0.238125 0.52917,0.529166 0,0.291042 -0.23813,0.529167 -0.52917,0.529167 -0.29104,0 -0.52917,-0.238125 -0.52917,-0.529167 z m 4.58611,-0.705555 c 0,-0.291042 0.23813,-0.529167 0.52917,-0.529167 0.29104,0 0.52917,0.238125 0.52917,0.529167 0,0.291041 -0.23813,0.529166 -0.52917,0.529166 -0.29104,0 -0.52917,-0.238125 -0.52917,-0.529166 z m -7.76111,-0.352778 c 0,-0.291042 0.23813,-0.529167 0.52917,-0.529167 0.29104,0 0.52917,0.238125 0.52917,0.529167 0,0.291042 -0.23813,0.529167 -0.52917,0.529167 -0.29104,0 -0.52917,-0.238125 -0.52917,-0.529167 z m 5.29167,-1.058333 c 0,-0.291042 0.23812,-0.529167 0.52917,-0.529167 0.29104,0 0.52916,0.238125 0.52916,0.529167 0,0.291041 -0.23812,0.529166 -0.52916,0.529166 -0.29105,0 -0.52917,-0.238125 -0.52917,-0.529166 z m -2.82222,-0.705556 c 0,-0.291042 0.23812,-0.529167 0.52916,-0.529167 0.29105,0 0.52917,0.238125 0.52917,0.529167 0,0.291042 -0.23812,0.529167 -0.52917,0.529167 -0.29104,0 -0.52916,-0.238125 -0.52916,-0.529167 z m -5.99723,5.115278 v -1.058333 l -10.49514,0.01432 -10.49513,0.01432 -1.2214,1.043997 -1.2214,1.043996 h 11.71654 11.71653 V 53.736897 Z M 13.232813,23.456637 14.351708,22.456904 13.01287,21.251776 c -1.574927,-1.417643 -2.996174,-4.232835 -3.001042,-5.944443 -0.0147,-5.168579 7.973738,-10.3491783 16.047939,-10.4072819 3.80036,-0.027347 5.36898,0.640341 7.4389,3.1664079 1.06647,1.301491 1.35518,1.976869 1.47392,3.447967 0.1244,1.541263 0.001,2.04433 -0.78396,3.1936 -0.90467,1.324688 -0.91326,1.385929 -0.2969,2.116667 0.34909,0.41388 0.79186,0.864789 0.98392,1.002019 0.54649,0.390466 2.22317,-1.444704 2.87189,-3.143344 0.69921,-1.830854 0.37705,-3.340505 -1.36965,-6.418275 C 33.181497,2.6329099 28.362947,0.80450843 20.890347,2.3883354 15.568209,3.5163692 13.810924,4.3974422 10.758179,7.46844 6.498694,11.753392 5.680838,15.038292 7.841094,19.184883 c 1.247945,2.395414 3.402606,5.271486 3.949228,5.271486 0.177976,0 0.827098,-0.44988 1.442491,-0.999732 z m 6.62407,-6.055823 c 2.174514,-2.037292 4.539114,-4.060541 5.254664,-4.49611 2.21725,-1.349676 4.40561,-0.918368 6.44454,1.270169 0.85893,0.921958 1.10971,0.809913 1.89603,-0.84713 0.78255,-1.649119 0.34231,-2.972542 -1.67171,-5.025351 -1.7721,-1.8062303 -4.3788,-2.7291527 -6.70377,-2.373521 -2.91931,0.4465416 -7.42445,2.078967 -9.425779,3.415401 -2.293363,1.53145 -3.57214,3.038427 -4.197587,4.946648 -0.373295,1.138926 -0.330038,1.522976 0.349451,3.102494 0.759894,1.76642 2.935531,3.998924 3.710718,3.807712 0.21438,-0.05288 2.168931,-1.763021 4.343443,-3.800312 z"
       id="path1901" />
  </g>
</svg>
