<?xml version="1.0" encoding="UTF-8" standalone="no"?>
<!-- Created with Inkscape (http://www.inkscape.org/) -->

<svg
   width="65mm"
   height="63mm"
   viewBox="0 0 65 63"
   version="1.1"
   id="svg1029"
   inkscape:version="1.1.1 (1:1.1+202109281943+c3084ef5ed)"
   sodipodi:docname="arrosoir.svg"
   xmlns:inkscape="http://www.inkscape.org/namespaces/inkscape"
   xmlns:sodipodi="http://sodipodi.sourceforge.net/DTD/sodipodi-0.dtd"
   xmlns="http://www.w3.org/2000/svg"
   xmlns:svg="http://www.w3.org/2000/svg">
  <sodipodi:namedview
     id="namedview1031"
     pagecolor="#505050"
     bordercolor="#eeeeee"
     borderopacity="1"
     inkscape:pageshadow="0"
     inkscape:pageopacity="0"
     inkscape:pagecheckerboard="0"
     inkscape:document-units="mm"
     showgrid="false"
     inkscape:zoom="0.64052329"
     inkscape:cx="396.55076"
     inkscape:cy="258.38249"
     inkscape:window-width="1854"
     inkscape:window-height="1098"
     inkscape:window-x="66"
     inkscape:window-y="29"
     inkscape:window-maximized="1"
     inkscape:current-layer="layer1" />
  <defs
     id="defs1026" />
  <g
     inkscape:label="Calque 1"
     inkscape:groupmode="layer"
     id="layer1">
    <path
       style="fill:#000000;stroke-width:0.352778"
       d="m 52.704276,61.073255 c -1.57052,-0.686093 -3.20149,-2.177038 -3.7012,-3.383457 l -0.44134,-1.065477 h -12.67592 -12.67592 l -1.29789,0.881945 c -1.66243,1.129647 -2.77623,1.116365 -3.85344,-0.04596 -0.90171,-0.972961 -7.65669,-9.505678 -8.5695696,-10.824859 -2.82909,-4.08826 -5.47611,-7.616486 -6.66921,-8.889435 -1.54926,-1.652937 -1.78936,-2.288357 -0.8647,-2.288357 0.77023,0 2.32082,1.770391 6.02509,6.879167 4.1435796,5.714668 9.6984996,12.833363 10.9467696,14.028412 l 1.01908,0.975635 2.62079,-1.836924 c 1.44144,-1.01031 4.11037,-3.036849 5.93095,-4.503416 1.82059,-1.466568 3.90434,-3.142735 4.63057,-3.724818 0.72622,-0.582084 2.80853,-2.254088 4.62734,-3.715569 1.81882,-1.461477 4.19611,-3.327862 5.28289,-4.14752 3.17978,-2.398229 3.21883,-2.466513 2.42473,-4.240184 -0.37133,-0.829388 -1.60348,-2.652321 -2.73811,-4.050963 -1.13463,-1.398643 -2.6006,-3.336737 -3.25772,-4.306875 -3.06859,-4.530347 -9.96265,-12.281495 -11.30136,-12.706386 -1.32842,-0.421622 -3.37365,0.926135 -7.5219,4.956757 -1.01278,0.984053 -6.4874,5.91826 -9.3727,8.44749 -2.7964096,2.451308 -5.9140896,5.314544 -6.9852096,6.415137 -1.19339,1.226224 -2.20563,1.537 -2.20563,0.677167 0,-0.275057 1.70656,-2.043955 3.79236,-3.930883 2.0858,-1.886926 4.01149,-3.632922 4.2793096,-3.879992 0.40842,-0.376776 0.25732,-0.724217 -0.9370196,-2.154532 -0.78319,-0.937922 -1.95481,-2.72788 -2.60362,-3.977682 -1.54132,-2.969076 -1.65518,-6.289168 -0.30686,-8.94837 1.02353,-2.0186374 3.9698396,-5.3596054 5.9156996,-6.7080834 4.39085,-3.04286 13.94078,-4.40530204 18.68648,-2.66591 3.62271,1.327793 7.67046,6.656353 8.12591,10.6971714 0.23554,2.089696 -0.64359,4.423544 -2.17169,5.765234 l -1.15697,1.015831 0.68111,0.852692 c 0.37461,0.46898 1.05505,1.277498 1.51209,1.796705 0.45704,0.519208 1.50747,1.947958 2.33429,3.175 0.82682,1.227043 2.40063,3.342237 3.49736,4.700431 2.35124,2.911807 3.50711,5.045033 3.50711,6.472626 0,1.106378 0.0195,1.087155 -4.58611,4.5212 -1.45521,1.085035 -3.13912,2.389053 -3.74201,2.897815 -0.60289,0.508766 -1.39664,1.165814 -1.76389,1.460116 -0.36724,0.294298 -1.8394,1.484923 -3.27145,2.645833 -1.43205,1.160907 -3.1669,2.547306 -3.85521,3.080883 l -1.25147,0.970138 h 9.77297 9.77296 l 0.36649,-0.970138 c 0.9091,-2.406485 4.57415,-4.769221 7.47788,-4.820741 0.92852,-0.01647 1.80164,0.128796 1.94027,0.322824 0.13864,0.194028 0.86603,0.665632 1.61643,1.048007 2.88005,1.467581 4.0914,4.436057 3.37471,8.269944 -0.69843,3.736202 -2.92172,5.333788 -7.38491,5.30655 -1.06715,-0.0065 -2.41652,-0.219894 -2.99861,-0.474179 z m 7.26559,-1.784639 c 2.04479,-1.351326 2.81307,-5.141885 1.54816,-7.638475 -0.64311,-1.269337 -2.18307,-2.752993 -2.87952,-2.774244 -0.22868,-0.007 -0.6777,-0.274617 -0.99784,-0.594752 -0.80869,-0.80869 -2.25802,-0.683405 -4.34844,0.375892 -3.17023,1.606479 -4.42564,4.145607 -3.58791,7.256723 0.47223,1.753711 2.34085,3.708068 4.05088,4.236734 1.67728,0.518541 4.77616,0.08877 6.21467,-0.861878 z m -5.67809,-1.076795 c 0,-0.291041 0.23813,-0.529166 0.52917,-0.529166 0.29104,0 0.52917,0.238125 0.52917,0.529166 0,0.291042 -0.23813,0.529167 -0.52917,0.529167 -0.29104,0 -0.52917,-0.238125 -0.52917,-0.529167 z m 3.52778,0 c 0,-0.291041 0.23813,-0.529166 0.52917,-0.529166 0.29104,0 0.52916,0.238125 0.52916,0.529166 0,0.291042 -0.23812,0.529167 -0.52916,0.529167 -0.29104,0 -0.52917,-0.238125 -0.52917,-0.529167 z m -6.35,-1.058333 c 0,-0.291042 0.23813,-0.529167 0.52917,-0.529167 0.29104,0 0.52916,0.238125 0.52916,0.529167 0,0.291042 -0.23812,0.529167 -0.52916,0.529167 -0.29104,0 -0.52917,-0.238125 -0.52917,-0.529167 z m 4.58611,-1.058333 c 0,-0.291042 0.23813,-0.529167 0.52917,-0.529167 0.29104,0 0.52917,0.238125 0.52917,0.529167 0,0.291041 -0.23813,0.529166 -0.52917,0.529166 -0.29104,0 -0.52917,-0.238125 -0.52917,-0.529166 z m -2.46944,-1.058334 c 0,-0.291041 0.23812,-0.529166 0.52916,-0.529166 0.29105,0 0.52917,0.238125 0.52917,0.529166 0,0.291042 -0.23812,0.529167 -0.52917,0.529167 -0.29104,0 -0.52916,-0.238125 -0.52916,-0.529167 z m 6.70278,0 c 0,-0.291041 0.23812,-0.529166 0.52916,-0.529166 0.29104,0 0.52917,0.238125 0.52917,0.529166 0,0.291042 -0.23813,0.529167 -0.52917,0.529167 -0.29104,0 -0.52916,-0.238125 -0.52916,-0.529167 z m -8.81945,-1.411111 c 0,-0.291041 0.23813,-0.529166 0.52917,-0.529166 0.29104,0 0.52916,0.238125 0.52916,0.529166 0,0.291042 -0.23812,0.529167 -0.52916,0.529167 -0.29104,0 -0.52917,-0.238125 -0.52917,-0.529167 z m 5.99722,-0.352778 c 0,-0.291041 0.23813,-0.529166 0.52917,-0.529166 0.29104,0 0.52917,0.238125 0.52917,0.529166 0,0.291042 -0.23813,0.529167 -0.52917,0.529167 -0.29104,0 -0.52917,-0.238125 -0.52917,-0.529167 z m -2.46944,-1.058333 c 0,-0.291042 0.23812,-0.529167 0.52917,-0.529167 0.29104,0 0.52916,0.238125 0.52916,0.529167 0,0.291042 -0.23812,0.529167 -0.52916,0.529167 -0.29105,0 -0.52917,-0.238125 -0.52917,-0.529167 z m 4.58611,-0.705555 c 0,-0.291042 0.23813,-0.529167 0.52917,-0.529167 0.29104,0 0.52916,0.238125 0.52916,0.529167 0,0.291041 -0.23812,0.529166 -0.52916,0.529166 -0.29104,0 -0.52917,-0.238125 -0.52917,-0.529166 z m -7.76111,-0.352778 c 0,-0.291041 0.23812,-0.529166 0.52917,-0.529166 0.29104,0 0.52916,0.238125 0.52916,0.529166 0,0.291042 -0.23812,0.529166 -0.52916,0.529166 -0.29105,0 -0.52917,-0.238124 -0.52917,-0.529166 z m 5.29167,-1.058333 c 0,-0.291042 0.23812,-0.529167 0.52916,-0.529167 0.29104,0 0.52917,0.238125 0.52917,0.529167 0,0.291042 -0.23813,0.529167 -0.52917,0.529167 -0.29104,0 -0.52916,-0.238125 -0.52916,-0.529167 z m -2.82223,-0.705556 c 0,-0.291041 0.23813,-0.529166 0.52917,-0.529166 0.29104,0 0.52917,0.238125 0.52917,0.529166 0,0.291042 -0.23813,0.529167 -0.52917,0.529167 -0.29104,0 -0.52917,-0.238125 -0.52917,-0.529167 z m -5.99722,5.115278 v -1.058334 l -10.49514,0.01432 -10.49514,0.01432 -1.2214,1.043997 -1.22139,1.043996 h 11.71653 11.71654 v -1.058333 z m -35.22835,-30.280288 1.1189,-0.999733 -1.33884,-1.205128 C 11.271336,20.604864 9.8500964,17.789671 9.8452264,16.078063 9.8305264,10.909484 17.818956,5.7288836 25.893166,5.6707806 c 3.80036,-0.02735 5.36897,0.640341 7.43889,3.166407 1.06648,1.3014924 1.35519,1.9768714 1.47392,3.4479684 0.1244,1.541263 10e-4,2.04433 -0.78396,3.1936 -0.90466,1.324688 -0.91325,1.385929 -0.2969,2.116667 0.34909,0.41388 0.79186,0.864789 0.98393,1.002019 0.54648,0.390466 2.22317,-1.444704 2.87189,-3.143343 0.69921,-1.830854 0.37705,-3.340505 -1.36965,-6.4182774 -3.1964,-5.632182 -8.01494,-7.460584 -15.48755,-5.876757 -5.32213,1.128034 -7.07942,2.009107 -10.13216,5.080105 -4.2594896,4.2849524 -5.0773396,7.5698524 -2.9170896,11.7164434 1.24795,2.395414 3.4026096,5.271487 3.9492296,5.271487 0.17798,0 0.8271,-0.44988 1.44249,-0.999733 z m 6.62407,-6.055823 c 2.17451,-2.037292 4.53911,-4.060541 5.25467,-4.496109 2.21724,-1.349677 4.4056,-0.918369 6.44453,1.270168 0.85894,0.921958 1.10971,0.809913 1.89603,-0.84713 0.78256,-1.649119 0.34232,-2.972542 -1.6717,-5.0253524 -1.7721,-1.80623 -4.3788,-2.729152 -6.70378,-2.37352 -2.9193,0.446541 -7.42444,2.078967 -9.42577,3.4154024 -2.29337,1.531449 -3.57214,3.038426 -4.19759,4.946647 -0.3733,1.138926 -0.33004,1.522976 0.34945,3.102494 0.7599,1.76642 2.93553,3.998924 3.71072,3.807712 0.21438,-0.05288 2.16893,-1.76302 4.34344,-3.800312 z"
       id="path2451" />
  </g>
</svg>
