<?xml version="1.0" encoding="UTF-8" standalone="no"?>
<!-- Created with Inkscape (http://www.inkscape.org/) -->

<svg
   width="531"
   height="392"
   viewBox="0 0 140.49378 103.71665"
   version="1.1"
   id="svg5"
   inkscape:version="1.1.1 (1:1.1+202109281943+c3084ef5ed)"
   sodipodi:docname="boussole.svg"
   xmlns:inkscape="http://www.inkscape.org/namespaces/inkscape"
   xmlns:sodipodi="http://sodipodi.sourceforge.net/DTD/sodipodi-0.dtd"
   xmlns="http://www.w3.org/2000/svg"
   xmlns:svg="http://www.w3.org/2000/svg">
  <sodipodi:namedview
     id="namedview7"
     pagecolor="#505050"
     bordercolor="#eeeeee"
     borderopacity="1"
     inkscape:pageshadow="0"
     inkscape:pageopacity="0"
     inkscape:pagecheckerboard="0"
     inkscape:document-units="mm"
     showgrid="false"
     units="px"
     inkscape:zoom="1.2810466"
     inkscape:cx="279.459"
     inkscape:cy="222.86465"
     inkscape:window-width="1920"
     inkscape:window-height="1176"
     inkscape:window-x="1920"
     inkscape:window-y="0"
     inkscape:window-maximized="1"
     inkscape:current-layer="layer1" />
  <defs
     id="defs2" />
  <g
     inkscape:label="Calque 1"
     inkscape:groupmode="layer"
     id="layer1">
    <path
       style="fill:#000000;stroke-width:0.352778"
       d="m 105.50204,102.18678 c -0.50424,-0.35317 -0.78406,-0.91489 -0.78406,-1.5739 0,-0.909621 0.16843,-1.068251 1.49931,-1.412111 0.82462,-0.213053 1.77712,-0.467995 2.11667,-0.566536 0.45136,-0.13099 0.61736,-0.547903 0.61736,-1.550515 0,-1.280283 -0.0797,-1.386296 -1.1995,-1.596379 -2.05874,-0.386225 -2.45706,-0.137993 -2.99252,1.864928 -0.55875,2.089996 -1.42901,2.658483 -2.53604,1.656637 -0.9167,-0.829599 -0.89566,-3.073125 0.0431,-4.592006 1.35333,-2.189723 4.20694,-3.193975 6.50861,-2.290526 0.52974,0.207938 1.06484,-0.01686 2.14743,-0.902172 1.78362,-1.458599 10.96227,-7.995955 14.82682,-10.560191 2.45214,-1.62706 2.84034,-2.019025 2.70432,-2.730546 -0.40626,-2.125242 2.35054,-5.236047 5.09677,-5.751244 1.70724,-0.32028 3.62327,0.605554 3.62327,1.750787 0,0.707831 -0.26669,0.91125 -1.6757,1.278149 -0.92163,0.239991 -1.9535,0.509443 -2.29305,0.598787 -0.48257,0.126976 -0.61736,0.542371 -0.61736,1.902559 v 1.740115 l 1.67569,-0.01168 1.6757,-0.01168 0.95056,-2.105004 c 1.28677,-2.849527 2.09412,-2.872806 2.68049,-0.0773 0.41466,1.9769 0.40015,2.063084 -0.57911,3.439584 -1.4233,2.000666 -3.06145,2.717584 -6.40302,2.802212 -2.69383,0.06822 -2.83933,0.118272 -5.70386,1.961945 -1.61673,1.040564 -3.65388,2.47165 -4.52701,3.180186 -0.87312,0.708537 -2.69875,2.052867 -4.05694,2.987396 -5.68083,3.908799 -5.7421,3.970239 -5.58256,5.597708 0.36633,3.736987 -4.34394,6.981967 -7.21533,4.970757 z m 3.61357,-1.01054 c 1.54202,-0.6443 2.42901,-2.33589 2.35286,-4.487202 l -0.0582,-1.643839 2.56288,-1.912877 c 1.40958,-1.052082 3.35662,-2.44717 4.32676,-3.100194 0.97014,-0.653023 2.47826,-1.762865 3.35139,-2.466311 0.87312,-0.703446 3.09951,-2.258434 4.94753,-3.455529 l 3.36002,-2.17654 2.31193,0.215893 c 1.77135,0.16541 2.60163,0.07842 3.55092,-0.372047 1.63359,-0.77519 2.84478,-2.433951 2.67486,-3.663293 -0.12365,-0.894553 -0.18167,-0.849105 -0.9204,0.720954 l -0.78844,1.675694 -2.36474,-0.0054 c -1.30061,-0.0028 -2.53463,-0.122033 -2.74228,-0.264583 -0.23447,-0.160966 -0.31989,-1.224097 -0.22541,-2.80548 0.16428,-2.749751 0.0819,-2.653217 2.63142,-3.083327 1.39688,-0.235659 1.70916,-0.673064 0.74473,-1.043149 -0.83291,-0.319617 -3.52465,1.088926 -4.38207,2.293066 -0.52292,0.734377 -0.69987,1.442504 -0.61982,2.480461 0.11048,1.432602 0.0828,1.470565 -2.00464,2.748213 -1.16417,0.712548 -4.41854,2.946298 -7.23195,4.963894 -2.8134,2.017592 -5.77285,4.114464 -6.57655,4.659714 -0.80371,0.54525 -1.97144,1.467915 -2.59495,2.050366 -1.254,1.171405 -1.61146,1.238902 -3.52501,0.665589 -1.08453,-0.32493 -1.53588,-0.28769 -2.59301,0.213949 -1.3703,0.650251 -2.70214,2.444277 -2.70214,3.639869 0,1.388509 0.61883,1.107938 1.06412,-0.482462 0.24567,-0.877443 0.74473,-1.754872 1.10903,-1.949838 0.36429,-0.194966 1.73093,-0.307608 3.03696,-0.250321 l 2.37461,0.104158 -0.12484,2.116666 c -0.14995,2.542339 -0.5231,3.346119 -1.56327,3.367299 -0.42973,0.0087 -1.25759,0.228247 -1.83967,0.487757 l -1.05833,0.47186 0.88194,0.37182 c 1.17706,0.49624 1.24854,0.49394 2.63374,-0.0848 z M 46.571016,101.9882 C 43.26371,101.43813 39.471578,99.619961 37.503872,97.640874 33.996668,94.113386 32.3786,87.788917 33.433501,81.731222 c 0.482988,-2.773518 2.695868,-7.35711 4.539209,-9.40217 1.446562,-1.60486 4.216139,-3.024289 6.489358,-3.325844 0.940851,-0.124805 1.795822,-0.364747 1.899931,-0.533202 0.104111,-0.168451 0.656173,-0.306278 1.226806,-0.306278 0.917606,0 1.037512,-0.122312 1.037512,-1.058333 0,-0.694387 -0.177754,-1.058334 -0.51689,-1.058334 -0.284293,0 -1.078043,-0.492696 -1.763889,-1.094877 -1.103549,-0.968926 -1.246999,-1.290475 -1.246999,-2.795157 0,-1.969696 0.985958,-3.421532 2.959633,-4.3581 3.271266,-1.552321 6.922534,0.607596 6.916826,4.091664 -0.0021,1.332223 -1.258207,2.997655 -2.636683,3.496116 -1.127298,0.407638 -1.26359,0.58583 -1.170978,1.530982 0.09417,0.960987 0.250542,1.089102 1.539359,1.261152 2.116434,0.282529 5.182641,1.914087 7.392102,3.933405 1.473659,1.346842 2.3345,2.569958 3.537229,5.025816 2.942498,6.008307 2.972375,9.954066 0.120477,15.91039 -1.845126,3.853635 -3.002318,5.1031 -6.07756,6.562175 -0.613318,0.290995 -1.829502,0.865553 -2.702627,1.276813 -3.145003,1.48132 -4.807811,1.69908 -8.405301,1.10076 z m 4.507985,-1.04259 c 1.904361,-0.43887 6.347901,-2.509913 8.379449,-3.905499 1.201974,-0.825708 1.788651,-1.659078 3.091311,-4.391194 0.884287,-1.854644 1.772013,-4.104869 1.97273,-5.000501 0.834033,-3.721636 -1.449194,-10.550464 -4.638816,-13.874072 -1.441535,-1.502089 -4.118152,-3.345547 -5.789302,-3.987253 -1.310196,-0.5031 -4.195431,-0.836916 -4.745447,-0.549039 -0.300422,0.157241 -1.736845,0.461042 -3.192053,0.675118 -3.039304,0.447114 -5.975005,1.787261 -7.352905,3.356603 -0.523685,0.596441 -1.618047,2.364377 -2.43192,3.928741 -2.574226,4.947991 -2.821968,10.186762 -0.719106,15.206211 1.152508,2.750985 2.751244,4.857382 4.422528,5.826858 l 1.053159,0.610916 0.612288,-2.198416 c 0.336758,-1.209124 1.479338,-4.020622 2.539061,-6.247765 1.059727,-2.227146 2.017498,-4.502975 2.128386,-5.057404 0.110885,-0.554429 0.402834,-1.085268 0.648776,-1.179646 0.245943,-0.09437 0.536515,-0.527572 0.645714,-0.962657 0.109199,-0.435084 1.497108,-2.60641 3.084241,-4.825167 1.587133,-2.218757 3.298052,-4.623392 3.802041,-5.343634 1.05052,-1.501271 1.798292,-1.712094 1.798292,-0.507002 0,0.924723 -0.325413,2.002519 -1.77335,5.873475 -0.544322,1.455208 -1.413824,3.975325 -1.932224,5.600262 -0.5184,1.624937 -1.254132,3.291812 -1.634959,3.704167 -1.092479,1.182927 -4.195728,5.45296 -6.124745,8.427582 -0.970139,1.495992 -1.962326,2.722036 -2.204861,2.724541 -0.884389,0.0091 -0.408008,0.580573 0.881945,1.057928 1.023983,0.378927 4.286271,1.160207 5.732639,1.372887 0.09701,0.0143 0.883221,-0.13695 1.747128,-0.33604 z m -2.805462,-2.090217 c 0,-0.705556 0.176389,-1.058333 0.529167,-1.058333 0.352778,0 0.529167,0.352777 0.529167,1.058333 0,0.705555 -0.176389,1.058333 -0.529167,1.058333 -0.352778,0 -0.529167,-0.352778 -0.529167,-1.058333 z M 34.515206,85.273449 c 0,-0.352778 0.352778,-0.529166 1.058333,-0.529166 0.705556,0 1.058334,0.176388 1.058334,0.529166 0,0.352778 -0.352778,0.529167 -1.058334,0.529167 -0.705555,0 -1.058333,-0.176389 -1.058333,-0.529167 z m 26.458333,0 c 0,-0.369577 0.372378,-0.529166 1.234722,-0.529166 0.862345,0 1.234723,0.159589 1.234723,0.529166 0,0.369577 -0.372378,0.529167 -1.234723,0.529167 -0.862344,0 -1.234722,-0.15959 -1.234722,-0.529167 z M 49.68465,71.162339 c 0,-0.548767 0.199909,-0.881945 0.529167,-0.881945 0.329258,0 0.529167,0.333178 0.529167,0.881945 0,0.548767 -0.199909,0.881944 -0.529167,0.881944 -0.329258,0 -0.529167,-0.333177 -0.529167,-0.881944 z m -5.259909,23.371526 c 0.640006,-1.018645 1.94426,-2.849343 2.898344,-4.068219 l 1.734704,-2.216135 -0.92129,-0.853825 c -0.506712,-0.469604 -0.921293,-0.700856 -0.921293,-0.513895 0,0.186962 -0.809526,2.044697 -1.798948,4.128294 -2.794769,5.885448 -3.05387,6.806275 -0.991517,3.52378 z m 6.116651,-8.508325 c 0.297173,-0.485116 0.230195,-0.726754 -0.313309,-1.130286 -0.380209,-0.282293 -0.856459,-0.458276 -1.058333,-0.391076 -0.558458,0.1859 -0.655652,1.267319 -0.166839,1.856299 0.51569,0.621373 1.019902,0.511602 1.538481,-0.334937 z m 1.630134,-4.358975 c 0.256846,-0.926631 0.822452,-2.597595 1.256901,-3.713254 0.434446,-1.11566 0.748714,-2.028472 0.698369,-2.028472 -0.05035,0 -0.712826,0.912812 -1.472177,2.028472 -0.75935,1.115659 -1.919012,2.742847 -2.57702,3.615972 l -1.196379,1.5875 1.195465,0.196331 c 0.657507,0.107982 1.292751,0.151758 1.411658,0.09728 0.118904,-0.05448 0.426336,-0.857201 0.683183,-1.783831 z M 49.929122,66.494747 c -0.08944,-0.343242 -0.168508,-0.147825 -0.175698,0.434259 -0.0072,0.582083 0.06599,0.862915 0.162627,0.624074 0.09663,-0.238841 0.102514,-0.715091 0.01309,-1.058333 z m 2.199742,-2.374914 c 1.695157,-0.8766 1.97339,-3.034704 0.584465,-4.533378 -1.166559,-1.258739 -2.348714,-1.48887 -3.890317,-0.757329 -2.522284,1.196901 -3.295978,3.147077 -1.934979,4.877304 0.614909,0.781731 1.010324,0.92952 2.486963,0.92952 0.96569,0 2.204932,-0.232255 2.753868,-0.516117 z M 6.1709635,87.21414 c -1.1763502,-1.032849 -1.234894,-1.04539 -2.4703892,-0.529167 -1.5930887,0.665635 -1.9937017,0.664979 -1.9937017,-0.0033 0,-0.292612 0.6416029,-0.788741 1.4257842,-1.102508 C 3.916838,85.265427 4.4950644,84.830152 4.4176043,84.611913 4.2672299,84.188245 3.9524774,84.183888 2.1478448,84.580513 1.2204566,84.78433 1.001317,84.722661 1.001317,84.257873 c 0,-0.38294 0.5295466,-0.716248 1.5875,-0.999208 1.4980938,-0.400681 1.5883329,-0.494975 1.602287,-1.674339 0.042011,-3.550638 3.8937086,-6.257473 7.046067,-4.951723 1.256284,0.520372 2.464146,1.925997 2.464146,2.867603 0,0.945988 -0.875513,0.810662 -1.33919,-0.206996 -0.528726,-1.160427 -2.329434,-2.059855 -3.5758687,-1.786092 -1.4859452,0.326351 -3.551608,2.780495 -3.551608,4.219529 0,0.451703 0.2657853,0.514025 1.4111111,0.330881 1.1134373,-0.178047 1.4111112,-0.115274 1.4111112,0.297575 0,0.287771 -0.5035,0.667625 -1.1188887,0.844116 -0.6153884,0.176491 -1.192675,0.542251 -1.2828584,0.812803 -0.1190823,0.357244 0.018214,0.421471 0.5015272,0.234601 0.3660239,-0.14152 1.1020601,-0.345412 1.6356365,-0.45309 1.5246668,-0.307689 1.2468754,0.804697 -0.3309994,1.325442 l -1.3011379,0.429416 0.9680324,0.832668 c 0.5324179,0.457965 1.3323648,0.832665 1.7776621,0.832665 1.2682786,0 3.1507116,-0.719907 3.7936836,-1.45083 0.744799,-0.846681 1.354565,-0.853416 1.354565,-0.01496 0,1.335235 -2.428357,2.524121 -5.1556464,2.524121 -1.1885789,0 -1.786896,-0.232071 -2.7274851,-1.05792 z M 117.70473,79.011644 c -0.72369,-1.294811 -1.69786,-3.492842 -1.69786,-3.830884 0,-0.17284 0.23371,-0.314255 0.51935,-0.314255 0.4617,0 2.65565,3.818707 2.65565,4.622313 0,0.633511 -1.04505,0.295917 -1.47714,-0.477174 z M 13.348539,74.013958 c 0,-0.274871 0.119063,-0.552683 0.264584,-0.617361 0.14552,-0.06467 0.954052,-0.951029 1.796739,-1.969675 1.415845,-1.711487 2.524788,-2.364623 2.524788,-1.487029 0,0.20078 -0.754062,1.310732 -1.675694,2.466559 -1.58169,1.983609 -2.910417,2.717503 -2.910417,1.607506 z m 98.489781,-3.226354 c -1.59961,-2.509068 -1.75039,-2.976654 -0.95987,-2.976654 0.58931,0 3.36453,3.912365 3.36453,4.743143 0,1.176186 -0.99428,0.445777 -2.40466,-1.766489 z M 60.684734,70.191801 c -0.546604,-0.263034 -0.761633,-0.609053 -0.648155,-1.042998 0.212122,-0.811149 -2.107727,-2.103688 -3.242903,-1.806829 -0.846793,0.221439 -2.138242,-1.02828 -2.1584,-2.088663 -0.0092,-0.487024 0.286173,-0.617361 1.399374,-0.617361 1.027974,0 1.411111,0.145729 1.411111,0.53673 0,0.295201 0.436563,0.724024 0.970139,0.952938 0.533577,0.228917 1.406702,0.712572 1.940278,1.074794 0.533576,0.362221 0.970139,0.489024 0.970139,0.281781 0,-0.883574 0.989379,-0.280592 1.190625,0.725632 0.492259,2.461292 0.08226,2.905248 -1.832208,1.983976 z M 18.992984,67.42935 c 0,-0.877429 2.348339,-3.851733 3.041106,-3.851733 0.775325,0 0.575603,0.631412 -0.748051,2.364948 -0.679097,0.889388 -1.234722,1.752988 -1.234722,1.919114 0,0.166127 -0.238125,0.302049 -0.529167,0.302049 -0.300905,0 -0.529166,-0.316784 -0.529166,-0.734378 z M 107.2162,64.506117 c -0.8593,-1.390378 -0.92953,-1.986833 -0.23393,-1.986833 0.51147,0 1.96905,2.054665 1.96905,2.775666 0,0.823528 -1.02726,0.356506 -1.73512,-0.788833 z M 23.579095,61.411191 c 0,-0.751071 2.610785,-3.830796 3.247492,-3.830796 0.914763,0 0.781279,0.58607 -0.426191,1.871214 -0.582591,0.620071 -1.148912,1.405209 -1.258496,1.744758 -0.218581,0.677291 -1.562805,0.862069 -1.562805,0.214824 z m 78.119775,-2.805638 c -0.13119,-0.212273 -0.25446,-2.633211 -0.27392,-5.379861 -0.0369,-5.209056 0.10306,-5.849341 1.66142,-7.59994 0.58009,-0.651637 0.63994,-0.881074 0.2646,-1.014237 -1.80321,-0.639741 -2.32254,-2.93982 -1.11205,-4.925123 1.18313,-1.94044 3.78807,-2.000606 4.7657,-0.11007 0.68342,1.321594 0.68242,2.938494 -0.002,4.263259 -0.29602,0.572449 -0.38956,1.040815 -0.20786,1.040815 0.85993,0 2.82769,5.654279 2.88513,8.290277 0.025,1.146552 0.22253,0.696105 1.0537,-2.402597 0.56262,-2.097542 1.33909,-4.257688 1.72548,-4.800328 l 0.70254,-0.986617 -0.8701,-0.817418 c -1.7474,-1.641598 -0.90388,-4.868015 1.61297,-6.169532 1.65023,-0.853366 2.97662,-0.667142 4.01195,0.563284 1.3437,1.59689 1.16204,3.236425 -0.56956,5.140405 -0.62705,0.689466 -0.64324,0.848417 -0.17965,1.763889 0.6275,1.23915 1.17871,3.670353 1.6536,7.293469 0.52957,4.041641 0.47714,5.8835 -0.16764,5.8835 -0.37515,0 -0.53105,-0.38505 -0.53563,-1.322916 -0.008,-1.675624 -0.91967,-7.978503 -1.39256,-9.629489 -0.19708,-0.688061 -0.57868,-1.552367 -0.848,-1.920681 -0.45822,-0.626657 -0.54566,-0.632972 -1.36165,-0.09832 -1.24083,0.813019 -1.81669,2.234724 -3.29147,8.125996 -1.06265,4.244989 -1.41564,5.198184 -1.92499,5.198184 -0.5505,0 -0.64152,-0.465924 -0.77533,-3.96875 -0.16212,-4.243747 -1.04344,-7.537488 -2.37245,-8.866504 -0.64378,-0.643774 -0.73093,-0.648928 -1.57884,-0.09336 -1.64935,1.080692 -2.07727,2.484635 -2.06536,6.776049 0.006,2.149705 0.12175,4.413458 0.25729,5.030558 0.1926,0.876907 0.12927,1.122003 -0.28994,1.122003 -0.29501,0 -0.64372,-0.17368 -0.77491,-0.385953 z m 4.07745,-15.489046 c 0.80658,-0.806588 0.87191,-1.365575 0.30499,-2.609829 -0.7392,-1.622365 -2.08617,-1.53168 -2.98205,0.200766 -0.63998,1.237583 -0.41178,2.172003 0.65635,2.687517 1.10251,0.532116 1.22733,0.514918 2.02071,-0.278454 z m 10.15407,0.154975 c 0.43234,-0.302821 1.03362,-1.029293 1.33618,-1.614382 0.5008,-0.968438 0.49878,-1.142149 -0.0226,-1.937822 -0.77931,-1.189376 -1.33791,-1.337313 -2.59498,-0.687257 -2.08486,1.078124 -2.7145,2.834354 -1.46437,4.084486 0.84804,0.848042 1.68852,0.89548 2.74574,0.154975 z M 72.497614,57.697986 c -0.129353,-0.129349 -0.236107,-1.597787 -0.237228,-3.263194 -0.0025,-3.895524 -0.52178,-7.024715 -1.350702,-8.141387 -1.670777,-2.250775 -3.865601,-2.293994 -4.738571,-0.09331 -0.703033,1.772292 -1.398859,6.058979 -1.287286,7.930409 0.152657,2.560552 0.0086,3.449891 -0.558899,3.449891 -1.159595,0 -0.36733,-9.943073 1.003487,-12.593937 0.445869,-0.86222 0.448875,-1.09504 0.02166,-1.679289 -0.272789,-0.373062 -0.495981,-1.3782 -0.495981,-2.233644 0,-3.8452 5.293589,-5.592434 6.694759,-2.209712 0.583854,1.409552 0.19086,3.376281 -0.828262,4.145005 l -0.806235,0.608146 1.045616,0.879828 c 1.463893,1.231784 1.971646,2.686237 2.189829,6.27271 0.103946,1.7087 0.261877,4.019539 0.350957,5.135199 0.12179,1.525333 0.04663,2.028472 -0.303001,2.028472 -0.255728,0 -0.570794,-0.105834 -0.700143,-0.235187 z M 69.480285,42.389502 c 1.007946,-0.539436 1.442272,-1.905666 0.949575,-2.987018 -0.567436,-1.245383 -1.783669,-1.461121 -3.07069,-0.544682 -1.199388,0.85404 -1.606173,1.811567 -1.295485,3.049443 0.177042,0.705396 0.435681,0.856484 1.466155,0.856484 0.688157,0 1.565857,-0.168402 1.950445,-0.374227 z m -40.609524,9.526277 c 0,-5.337207 0.393535,-7.701989 1.439207,-8.648308 0.643322,-0.5822 0.637684,-0.625553 -0.212799,-1.636293 -0.480498,-0.571037 -0.87363,-1.3361 -0.87363,-1.700138 0,-1.963286 1.820782,-3.517311 4.121076,-3.517311 1.775594,0 2.817347,0.761905 3.3156,2.424931 0.334768,1.117357 0.302027,1.533998 -0.196279,2.49761 -0.328937,0.636101 -0.901968,1.236014 -1.273401,1.333147 -0.825235,0.215805 -0.845918,0.564339 -0.100958,1.701292 0.767444,1.171265 1.462984,4.548505 1.75786,8.535381 0.205737,2.781663 0.162744,3.263194 -0.291369,3.263194 -0.412422,0 -0.587612,-0.657236 -0.775787,-2.910417 -0.481365,-5.763852 -1.861372,-9.789582 -3.355837,-9.789582 -1.753006,0 -2.490795,2.583564 -2.493381,8.731249 -0.0018,3.918878 -0.08749,4.674305 -0.531135,4.674305 -0.445276,0 -0.529167,-0.786193 -0.529167,-4.95906 z m 6.57962,-11.531599 c 0.723318,-2.88193 -2.980394,-3.900925 -4.695568,-1.291883 -0.426229,0.648359 -0.397707,0.849704 0.234174,1.653011 1.237841,1.57366 4.032571,1.347441 4.461394,-0.361128 z m 40.692603,14.06236 c 0,-0.67745 0.196306,-0.7467 2.116666,-0.7467 1.646298,0 2.116667,0.117591 2.116667,0.529166 0,0.37544 -0.384316,0.530567 -1.322917,0.533982 -0.727604,0.0028 -1.680104,0.100542 -2.116666,0.217537 -0.640144,0.171549 -0.79375,0.06821 -0.79375,-0.533985 z m 16.933333,0.117422 c 0,-0.677394 0.291013,-0.760039 3.615972,-1.026894 2.277809,-0.182813 2.734028,-0.132281 2.734028,0.302835 0,0.350795 -0.492238,0.58179 -1.499306,0.703583 -4.699857,0.568385 -4.850694,0.56902 -4.850694,0.02046 z m -9.172222,-0.295145 c 0,-0.357706 0.688086,-0.532038 2.557639,-0.648 1.406701,-0.08726 2.616937,-0.112017 2.689415,-0.05503 0.07247,0.05699 0.03777,0.34859 -0.07712,0.648 -0.287764,0.74991 -5.16993,0.801871 -5.16993,0.05503 z M 75.08465,41.958937 c 0,-0.573719 3.931709,-4.486874 4.508148,-4.486874 0.878003,0 0.376946,0.915846 -1.586689,2.900186 -1.965053,1.985775 -2.921459,2.505212 -2.921459,1.586688 z m -42.970979,-8.102846 0.108479,-1.499306 6.879167,-0.217674 c 3.783542,-0.119723 7.395104,-0.238785 8.025694,-0.264584 1.094613,-0.04479 1.146528,-0.110804 1.146528,-1.45802 0,-1.019136 0.146992,-1.411111 0.529167,-1.411111 0.383508,0 0.529167,0.394378 0.529167,1.432726 v 1.432729 l 1.499305,-0.188965 c 0.824618,-0.103928 5.468056,-0.232717 10.31875,-0.286198 l 8.819445,-0.09724 0.109491,1.322916 c 0.08361,1.010268 -0.0206,1.322917 -0.440972,1.322917 -0.355625,0 -0.550464,-0.320128 -0.550464,-0.90443 v -0.904434 l -7.320139,0.218754 c -4.026076,0.120314 -9.973066,0.368557 -13.215532,0.551652 -3.242465,0.183099 -8.044652,0.332902 -10.671527,0.332902 h -4.776135 v 1.058334 c 0,0.722919 -0.174135,1.058333 -0.549452,1.058333 -0.428244,0 -0.525519,-0.330743 -0.440972,-1.499305 z m 51.790424,-1.475793 c 0,-0.588292 3.301478,-4.080457 3.857653,-4.080457 0.820039,0 0.292724,1.128688 -1.31464,2.81391 -1.700538,1.782911 -2.543013,2.202508 -2.543013,1.266547 z m 18.048305,-4.29459 c 0.16818,-0.878829 2.06725,-1.125975 8.96005,-1.166071 l 5.31253,-0.03091 0.64329,-3.168823 c 0.47028,-2.316586 0.58315,-3.905786 0.41969,-5.909027 -0.81476,-9.984435 -0.61008,-15.6747579 0.57199,-15.902404 0.53777,-0.1035657 0.57893,0.083441 0.34849,1.5834934 -0.33891,2.2062111 -0.30867,7.9517086 0.0714,13.5726476 0.27933,4.130569 0.0236,7.319712 -0.74802,9.330672 -0.13074,0.340695 0.0805,0.493441 0.68238,0.493441 0.8627,0 0.87435,-0.04252 1.12454,-4.105349 0.13905,-2.25794 0.1384,-7.655442 -0.001,-11.994444 -0.2241,-6.9527969 -0.1903,-7.8890952 0.28481,-7.8890952 0.46087,0 0.57645,1.1957085 0.79658,8.2403692 0.14162,4.532203 0.14172,9.857783 2.3e-4,11.834626 l -0.25725,3.594255 0.92118,-0.231203 c 0.76836,-0.192846 0.92118,-0.111394 0.92118,0.490981 0,0.950387 -0.9421,1.059918 -10.75972,1.25094 -4.26861,0.08306 -8.13431,0.268619 -8.59044,0.412362 -0.69053,0.217604 -0.80795,0.149578 -0.70153,-0.406464 z M 44.614429,24.244421 c -0.272884,-3.88209 0.209787,-7.583531 1.210808,-9.285271 0.612764,-1.041703 0.629976,-1.228032 0.157113,-1.700893 -0.330578,-0.330578 -0.531033,-1.19372 -0.531033,-2.286569 0,-1.4452592 0.16498,-1.9084356 0.933457,-2.6206357 1.290666,-1.196147 3.531761,-1.0274769 4.441003,0.3342404 0.516767,0.7739319 0.251767,2.3102713 -0.561597,3.2558643 l -0.831579,0.96677 0.968082,0.814589 c 1.337388,1.125336 2.311573,3.360306 2.96412,6.800258 0.726705,3.830867 0.736269,6.365956 0.02401,6.365956 -0.37967,0 -0.529167,-0.387647 -0.529167,-1.37214 0,-2.127648 -1.027564,-7.036759 -1.830447,-8.744816 -0.791404,-1.683639 -2.188312,-2.996018 -2.898789,-2.723381 -0.795362,0.305209 -1.923807,2.74889 -2.269892,4.915527 -0.184842,1.157188 -0.251136,3.572414 -0.14732,5.367171 0.158563,2.741175 0.104609,3.263194 -0.33727,3.263194 -0.412725,0 -0.576749,-0.72155 -0.761503,-3.349864 z M 48.71176,11.727797 C 49.952056,10.75218 50.149661,9.721239 49.22104,9.0708078 48.260871,8.3982769 48.204511,8.403879 47.281726,9.2635839 46.843279,9.6720586 46.50965,10.408864 46.50965,10.968677 c 0,1.647054 0.746245,1.904302 2.20211,0.75912 z m 52.12567,14.278988 c 0,-0.429944 0.5788,-0.529434 3.0868,-0.530599 1.69775,-7.05e-4 5.11087,-0.104658 7.58473,-0.230829 3.86685,-0.197213 4.49791,-0.155081 4.49791,0.300309 0,0.426149 -0.77589,0.574414 -3.96875,0.758391 -2.18281,0.12578 -5.59593,0.229408 -7.58472,0.23029 -2.97973,0.0013 -3.61597,-0.0915 -3.61597,-0.527562 z M 100.0111,23.483497 C 99.590422,20.937238 99.782457,5.6595682 100.26096,3.6053973 l 0.45197,-1.9402777 7.73517,-0.1868615 c 4.25434,-0.1027737 7.77464,-0.1691262 7.8229,-0.1474501 0.21174,0.095116 -0.57654,22.273557 -0.81263,22.863472 -0.23529,0.587922 -0.48899,0.626156 -2.41484,0.363915 -2.76479,-0.376474 -4.83672,-0.37949 -9.24395,-0.01344 l -3.56424,0.296023 -0.22424,-1.35727 z m 6.99994,-0.297307 c 1.94028,-0.11569 4.35378,-0.06921 5.36334,0.1033 1.50718,0.257535 1.87188,0.218983 2.0386,-0.215491 0.20548,-0.535463 0.38662,-4.374253 0.6981,-14.7942963 l 0.17136,-5.7326387 h -6.79915 -6.79914 l -0.42336,2.0497076 c -0.44697,2.1639818 -0.59835,16.0371624 -0.1969,18.0443944 0.20793,1.039682 0.31614,1.116883 1.32291,0.943835 0.60306,-0.103653 2.68396,-0.283118 4.62424,-0.398811 z m -2.91042,-2.902659 c -0.7494,-0.093 -1.14653,-0.335234 -1.14653,-0.69935 0,-0.471738 0.33217,-0.522355 2.16842,-0.33043 1.19263,0.124654 3.177,0.226646 4.40972,0.226646 1.75709,0 2.24131,0.114321 2.24131,0.529166 0,0.436302 -0.57267,0.519258 -3.2632,0.472709 -1.79475,-0.03105 -3.77913,-0.120485 -4.40972,-0.198741 z m 1.5875,-2.476468 c -2.1409,-0.09415 -2.73403,-0.234966 -2.73403,-0.649101 0,-0.450378 0.75913,-0.51362 5.11504,-0.426133 3.54138,0.07113 5.1151,0.226789 5.11527,0.505964 1.4e-4,0.221775 -0.25086,0.499589 -0.55777,0.61736 -0.54271,0.208259 -1.21537,0.203595 -6.93851,-0.04809 z m -1.76389,-2.803178 c -0.33954,-0.08873 -0.61736,-0.34813 -0.61736,-0.576438 0,-0.293131 1.14027,-0.415105 3.88056,-0.415105 2.67554,0 3.88055,0.125213 3.88055,0.403228 0,0.221776 -0.2511,0.499589 -0.55802,0.617361 -0.62845,0.241162 -5.63626,0.219074 -6.58573,-0.02905 z m -0.97009,-3.150246 c -6e-5,-0.498167 1.97877,-0.831906 4.93884,-0.832959 3.33222,-0.0012 5.99723,0.379068 5.99723,0.85571 0,0.296767 -1.52557,0.406088 -5.46801,0.391833 -3.78647,-0.01369 -5.46802,-0.141185 -5.46806,-0.414584 z m -0.35282,-3.0456608 c 0,-0.7705443 1.08575,-0.9590045 5.55625,-0.9644306 3.29473,-0.004 3.96875,0.085052 3.96875,0.5243495 0,0.4339226 -0.61909,0.5298655 -3.43959,0.5330493 -1.89177,0.00215 -4.03489,0.1022816 -4.7625,0.222547 -1.04253,0.1723196 -1.32291,0.1054478 -1.32291,-0.3155152 z m 1.41111,-2.9095254 c 0,-0.4255731 0.54387,-0.5291667 2.77812,-0.5291667 1.52797,0 3.27422,-0.099219 3.88056,-0.2204861 0.8474,-0.1694793 1.10243,-0.0966 1.10243,0.3150344 0,0.7961186 -0.77216,0.963785 -4.43858,0.963785 -2.71818,0 -3.32253,-0.096253 -3.32253,-0.5291666 z M 92.383624,23.096369 c 0.01408,-0.675711 3.611347,-4.674305 4.20516,-4.674305 0.822886,0 0.267212,1.178404 -1.483995,3.147056 -1.90247,2.138701 -2.743743,2.610862 -2.721165,1.527249 z M 57.445761,19.304008 c 0,-0.436774 0.646759,-0.529167 3.704167,-0.529167 3.057409,0 3.704167,0.09239 3.704167,0.529167 0,0.436774 -0.646758,0.529167 -3.704167,0.529167 -3.057408,0 -3.704167,-0.09239 -3.704167,-0.529167 z m 13.406678,-0.264583 c -0.0011,-0.51786 0.332084,-0.617361 2.066307,-0.617361 3.120306,0 5.340904,0.379193 5.340904,0.912022 0,0.357646 -0.844744,0.447301 -3.703045,0.393022 -3.264249,-0.06199 -3.703175,-0.143478 -3.704166,-0.687683 z m 12.3461,-0.08819 c 0,-0.439695 0.685955,-0.529166 4.056945,-0.529166 3.370989,0 4.056944,0.08947 4.056944,0.529166 0,0.439695 -0.685955,0.529167 -4.056944,0.529167 -3.37099,0 -4.056945,-0.08947 -4.056945,-0.529167 z"
       id="path1688" />
  </g>
</svg>
