<?xml version="1.0" encoding="UTF-8" standalone="no"?>
<!-- Created with Inkscape (http://www.inkscape.org/) -->

<svg
   width="285"
   height="242"
   viewBox="0 0 75.406268 64.029176"
   version="1.1"
   id="svg5"
   inkscape:version="1.1.1 (1:1.1+202109281943+c3084ef5ed)"
   sodipodi:docname="cadeau.svg"
   xmlns:inkscape="http://www.inkscape.org/namespaces/inkscape"
   xmlns:sodipodi="http://sodipodi.sourceforge.net/DTD/sodipodi-0.dtd"
   xmlns="http://www.w3.org/2000/svg"
   xmlns:svg="http://www.w3.org/2000/svg">
  <sodipodi:namedview
     id="namedview7"
     pagecolor="#505050"
     bordercolor="#eeeeee"
     borderopacity="1"
     inkscape:pageshadow="0"
     inkscape:pageopacity="0"
     inkscape:pagecheckerboard="0"
     inkscape:document-units="mm"
     showgrid="false"
     units="px"
     inkscape:zoom="1.2810466"
     inkscape:cx="177.19887"
     inkscape:cy="222.86465"
     inkscape:window-width="1920"
     inkscape:window-height="1176"
     inkscape:window-x="1920"
     inkscape:window-y="0"
     inkscape:window-maximized="1"
     inkscape:current-layer="layer1" />
  <defs
     id="defs2" />
  <g
     inkscape:label="Calque 1"
     inkscape:groupmode="layer"
     id="layer1">
    <path
       style="fill:#000000;stroke-width:0.352778"
       d="m 5.2817166,62.273567 c 0,-0.65911 2.3161545,-1.67497 6.9802064,-3.0615 3.506814,-1.04252 3.861545,-1.08358 6.347008,-0.73481 2.126326,0.29837 3.712619,0.24174 8.248633,-0.29447 3.088816,-0.36514 5.748122,-0.74553 5.909567,-0.8453 0.161442,-0.0998 1.861707,-0.41729 3.778366,-0.70557 4.708194,-0.70817 6.952122,-1.54257 10.503521,-3.90572 5.222145,-3.47489 9.032699,-7.39943 9.032699,-9.30292 0,-0.64902 -0.140384,-0.72517 -0.970139,-0.52621 -0.533576,0.12794 -1.367014,0.42618 -1.852083,0.66277 -0.48507,0.23658 -1.311998,0.53319 -1.83762,0.65913 -0.525624,0.12595 -2.509999,1.2685 -4.409722,2.53901 -4.729783,3.16321 -6.45565,3.68102 -12.268913,3.68102 -3.321917,0 -5.110557,-0.15986 -6.291735,-0.56232 -1.51603,-0.51657 -1.650344,-0.65661 -1.650344,-1.7207 0,-0.6371 0.198438,-1.31843 0.440973,-1.51407 0.242534,-0.19564 1.710972,-0.52898 3.263194,-0.74076 3.651208,-0.49815 5.166258,-0.94404 6.337155,-1.86507 0.874773,-0.6881 0.905285,-0.79339 0.381819,-1.31761 -0.727879,-0.72892 -7.154189,-0.99522 -10.087945,-0.41804 -2.404269,0.47301 -5.719636,2.02541 -8.217549,3.84782 -1.00047,0.72991 -2.53341,1.73887 -3.406535,2.24212 -1.728695,0.99639 -7.0403559,2.88698 -7.3214129,2.60592 -0.520533,-0.52053 0.502396,-1.25532 2.9642789,-2.12931 1.520586,-0.53982 3.462648,-1.46169 4.315693,-2.0486 l 1.55099,-1.06711 -0.225608,-3.17839 c -0.124084,-1.7481 -0.225608,-3.76694 -0.225608,-4.48628 v -1.30791 l -1.394445,0.3722 c -1.105813,0.29516 -1.959284,0.23904 -4.123319,-0.27113 -5.1259224,-1.20844 -6.5180954,-2.2631 -8.5191834,-6.45382 -1.295281,-2.71261 -1.30827,-2.78384 -1.249645,-6.85235 0.05082,-3.52694 0.205133,-4.5345 1.085762,-7.08938 2.084316,-6.047014 4.260429,-8.9029494 8.3592614,-10.9707095 1.846297,-0.9314128 2.215483,-0.9925628 5.063069,-0.8386238 1.689356,0.09133 3.428743,0.2841301 3.865305,0.4284541 0.616797,0.203908 0.79375,0.127402 0.79375,-0.3431821 0,-0.333074 0.53975,-1.145339 1.199445,-1.805033 1.068292,-1.068292 1.405816,-1.198598 3.086805,-1.191697 3.35696,0.01378 6.185098,1.998749 7.746856,5.4372429 0.366483,0.806881 0.654787,1.147171 0.659147,0.778 0.01319,-1.1186157 2.199958,-4.8335929 3.370937,-5.7267419 1.656746,-1.26366197 4.282006,-1.200454 5.560374,0.133875 1.164399,1.215369 1.510862,2.7984971 0.970657,4.4353282 -0.460713,1.3959817 -3.886101,4.7690671 -5.950154,5.8593021 l -1.298233,0.685729 5.501573,0.01559 c 5.131915,0.01454 5.546665,0.06541 6.172648,0.757119 0.59938,0.662308 0.699371,1.595092 0.935947,8.731247 0.14568,4.39435 0.384239,9.55479 0.53013,11.46765 l 0.265257,3.47792 5.896099,-7.30206 5.896102,-7.30205 -0.775067,-1.04833 c -1.154271,-1.56124 -1.3116,-5.706301 -0.296196,-7.803841 1.426006,-2.945734 3.4642,-4.137065 7.077915,-4.137065 1.593882,0 2.310271,0.202778 3.56333,1.008625 3.163754,2.03462 4.092018,3.964606 3.736743,7.769171 -0.394311,4.22259 -3.416724,6.97556 -7.283648,6.63431 -1.067153,-0.0942 -2.118903,-0.22699 -2.337223,-0.29514 -0.322862,-0.10079 -15.301666,17.70729 -15.301666,18.19192 0,0.0793 0.833438,-0.17617 1.852084,-0.56769 2.61995,-1.007 4.686285,-1.48255 5.344449,-1.22999 0.830657,0.31875 0.73576,2.87715 -0.160514,4.32735 -1.059483,1.71428 -5.161238,5.39173 -8.569392,7.68294 -3.451366,2.32026 -5.87871,3.24424 -10.284682,3.91493 -1.74625,0.26583 -3.889375,0.64693 -4.7625,0.8469 -0.873125,0.19998 -3.893319,0.62789 -6.711541,0.95092 -4.020707,0.46087 -5.639269,0.50712 -7.516851,0.21481 -2.254181,-0.35094 -2.611362,-0.30538 -6.164851,0.78638 -2.074619,0.6374 -4.2800889,1.42206 -4.9010439,1.74368 -1.3921965,0.72109 -2.2223805,0.74803 -2.2223805,0.0721 z M 40.541126,48.708037 c 1.188635,-0.36994 3.182944,-1.33835 4.431795,-2.152 1.819688,-1.18558 2.309276,-1.70007 2.465183,-2.59057 0.642063,-3.66736 0.05378,-26.422154 -0.733284,-28.363272 -0.449562,-1.108751 -0.532306,-1.146459 -2.511351,-1.144413 -1.125562,0.0012 -3.356162,0.104067 -4.956891,0.228676 l -2.910417,0.226562 v 13.009227 13.00922 l 0.96296,0.36611 c 1.931039,0.73418 2.046813,2.33022 0.271773,3.74652 -1.09953,0.87732 -1.234711,1.16864 -1.234722,2.66088 -1.1e-5,1.6153 0.037,1.67569 1.026894,1.67569 0.564793,0 1.999421,-0.30268 3.18806,-0.67263 z m -9.859409,-0.56209 c 0,-0.6976 -0.178312,-0.88195 -0.853091,-0.88195 -1.901218,0 -2.596924,0.82873 -1.175381,1.40012 1.445577,0.58105 2.028472,0.43215 2.028472,-0.51817 z m 4.586111,-0.56691 c 0,-1.11093 -0.117577,-1.40374 -0.504116,-1.25541 -0.277262,0.1064 -1.071012,0.2998 -1.763889,0.42978 -1.099234,0.20622 -1.259773,0.3662 -1.259773,1.25541 0,0.9877 0.0543,1.01907 1.763889,1.01907 h 1.763889 z m -12.077509,-5.42742 c 1.287109,-0.52108 3.312738,-0.98792 4.850694,-1.11793 l 2.640704,-0.22322 V 27.955497 15.100518 l -5.808913,0.118546 c -4.581306,0.0935 -5.918708,0.230377 -6.328456,0.647714 -0.285745,0.291042 -0.762583,1.957917 -1.059638,3.704169 -0.448825,2.63844 -0.479421,4.1885 -0.181043,9.17222 0.197481,3.29847 0.393013,7.26722 0.434516,8.81944 0.0415,1.55223 0.113276,3.90365 0.159497,5.2254 l 0.08404,2.40317 1.499306,-1.07243 c 0.824618,-0.58984 2.4938,-1.47504 3.709296,-1.96713 z m 33.227084,-9.32898 c 5.52874,-6.77161 6.648792,-8.32453 6.189493,-8.58157 -0.406471,-0.22747 -0.740788,-0.0881 -1.214963,0.50664 -0.359802,0.45125 -3.363105,4.15421 -6.674006,8.22879 -4.086207,5.02872 -6.023789,7.68758 -6.032182,8.27768 -0.01591,1.11881 -0.470972,1.61507 7.731658,-8.43154 z M 35.267828,27.861227 V 14.808445 H 33.503939 31.74005 v 13.052782 13.05277 h 1.763889 1.763889 z m -19.451471,7.70771 c 0.643718,-0.241 0.78524,-0.49107 0.622178,-1.09942 -0.11609,-0.4331 -0.21471,-1.02559 -0.219156,-1.31663 -0.0063,-0.41354 -0.548704,-0.54215 -2.4824,-0.58861 -3.322234,-0.0798 -5.2469109,-1.17222 -6.6054439,-3.74911 -0.9205725,-1.74617 -0.9669505,-2.06864 -0.9489815,-6.59839 0.01752,-4.417569 0.08863,-4.914489 0.9817165,-6.861044 1.348664,-2.939515 2.462989,-4.275494 4.5778079,-5.4883904 1.519885,-0.871689 2.224439,-1.05006 4.158524,-1.05281 3.986838,-0.0057 6.181726,1.2184324 6.98358,3.8947824 0.407098,1.358779 0.457789,1.393574 2.030123,1.393574 h 1.6126 l -0.24711,-1.322916 C 26.14388,12.052368 26.00715,11.445535 25.975951,11.431453 25.944761,11.417373 25.158886,11.124035 24.229591,10.779594 22.050903,9.9720676 20.524571,8.6748796 20.385178,7.5123326 20.294908,6.7595039 19.985223,6.5054169 18.687273,6.1192482 16.093547,5.3475608 13.839441,5.5099775 11.455328,6.6403379 8.4780741,8.0519196 7.2789861,9.1830746 5.6739806,12.09415 c -2.292281,4.157618 -3.227202,7.440997 -3.274551,11.500007 -0.03768,3.23038 0.04285,3.6671 1.089108,5.90616 1.834179,3.92527 3.258585,5.07706 7.6140124,6.15677 2.386787,0.59168 2.924836,0.58162 4.713807,-0.0881 z m -0.46443,-4.18604 0.943919,-0.35887 -0.231471,-4.49182 c -0.169355,-3.28645 -0.08966,-5.33669 0.296986,-7.64024 0.637616,-3.798756 1.161174,-4.461851 3.71683,-4.707417 1.635689,-0.15717 1.782695,-0.242452 1.587867,-0.921183 -0.626467,-2.182426 -2.543962,-3.3096794 -5.726867,-3.3666994 -1.940547,-0.03477 -3.785186,0.9148704 -5.598619,2.8822124 -2.0304309,2.202758 -2.9970879,4.969077 -3.1746869,9.085117 -0.125172,2.90102 -0.0363,3.60768 0.661308,5.25852 0.970404,2.29639 2.7153039,3.80953 4.8832599,4.23465 0.861903,0.16902 1.59645,0.3247 1.632326,0.34596 0.03588,0.0213 0.489992,-0.12284 1.009148,-0.32023 z m 53.516785,-7.06767 c 3.067692,-0.85194 5.146121,-4.89781 4.177284,-8.131494 -0.426445,-1.423348 -1.698942,-2.950561 -3.371667,-4.046571 -1.133841,-0.742923 -4.6476,-0.830783 -5.992611,-0.149842 -1.671401,0.846186 -3.104998,3.198304 -3.287003,5.393025 -0.311115,3.751652 2.17111,6.337742 6.975891,7.267802 0.09701,0.0188 0.771162,-0.13104 1.498106,-0.33292 z m -1.850884,-1.2165 c 0,-0.29105 0.238125,-0.52917 0.529167,-0.52917 0.291041,0 0.529166,0.23812 0.529166,0.52917 0,0.29104 -0.238125,0.52916 -0.529166,0.52916 -0.291042,0 -0.529167,-0.23812 -0.529167,-0.52916 z m -2.822222,-1.76389 c 0,-0.29104 0.238125,-0.52917 0.529167,-0.52917 0.291041,0 0.529166,0.23813 0.529166,0.52917 0,0.29104 -0.238125,0.52916 -0.529166,0.52916 -0.291042,0 -0.529167,-0.23812 -0.529167,-0.52916 z m 5.997222,0 c 0,-0.29104 0.238125,-0.52917 0.529167,-0.52917 0.291041,0 0.529166,0.23813 0.529166,0.52917 0,0.29104 -0.238125,0.52916 -0.529166,0.52916 -0.291042,0 -0.529167,-0.23812 -0.529167,-0.52916 z m -3.880555,-1.76389 c 0,-0.29104 0.238125,-0.52917 0.529166,-0.52917 0.291042,0 0.529167,0.23813 0.529167,0.52917 0,0.29104 -0.238125,0.52916 -0.529167,0.52916 -0.291041,0 -0.529166,-0.23812 -0.529166,-0.52916 z m -4.938889,-0.70556 c 0,-0.29104 0.238125,-0.52916 0.529166,-0.52916 0.291042,0 0.529167,0.23812 0.529167,0.52916 0,0.29104 -0.238125,0.52917 -0.529167,0.52917 -0.291041,0 -0.529166,-0.23813 -0.529166,-0.52917 z m 2.822222,-0.35278 c 0,-0.29104 0.238125,-0.529162 0.529167,-0.529162 0.291041,0 0.529166,0.238122 0.529166,0.529162 0,0.29105 -0.238125,0.52917 -0.529166,0.52917 -0.291042,0 -0.529167,-0.23812 -0.529167,-0.52917 z m 4.586111,0 c 0,-0.29104 0.238125,-0.529162 0.529167,-0.529162 0.291041,0 0.529166,0.238122 0.529166,0.529162 0,0.29105 -0.238125,0.52917 -0.529166,0.52917 -0.291042,0 -0.529167,-0.23812 -0.529167,-0.52917 z m 2.469444,-0.352773 c 0,-0.291042 0.238125,-0.529167 0.529167,-0.529167 0.291042,0 0.529167,0.238125 0.529167,0.529167 0,0.291043 -0.238125,0.529163 -0.529167,0.529163 -0.291042,0 -0.529167,-0.23812 -0.529167,-0.529163 z m -7.055555,-1.763889 c 0,-0.291042 0.238125,-0.529167 0.529167,-0.529167 0.291041,0 0.529166,0.238125 0.529166,0.529167 0,0.291041 -0.238125,0.529166 -0.529166,0.529166 -0.291042,0 -0.529167,-0.238125 -0.529167,-0.529166 z m 3.175,0 c 0,-0.291042 0.238125,-0.529167 0.529167,-0.529167 0.291041,0 0.529166,0.238125 0.529166,0.529167 0,0.291041 -0.238125,0.529166 -0.529166,0.529166 -0.291042,0 -0.529167,-0.238125 -0.529167,-0.529166 z m 2.116667,-1.058334 c 0,-0.291041 0.238125,-0.529166 0.529166,-0.529166 0.291042,0 0.529167,0.238125 0.529167,0.529166 0,0.291042 -0.238125,0.529167 -0.529167,0.529167 -0.291041,0 -0.529166,-0.238125 -0.529166,-0.529167 z m -7.408334,-0.352777 c 0,-0.291042 0.238125,-0.529167 0.529167,-0.529167 0.291042,0 0.529167,0.238125 0.529167,0.529167 0,0.291041 -0.238125,0.529166 -0.529167,0.529166 -0.291042,0 -0.529167,-0.238125 -0.529167,-0.529166 z m 2.116667,-1.411111 c 0,-0.291042 0.238125,-0.529167 0.529167,-0.529167 0.291041,0 0.529166,0.238125 0.529166,0.529167 0,0.291041 -0.238125,0.529166 -0.529166,0.529166 -0.291042,0 -0.529167,-0.238125 -0.529167,-0.529166 z m 2.822222,-0.352778 c 0,-0.291042 0.238125,-0.529167 0.529167,-0.529167 0.291041,0 0.529166,0.238125 0.529166,0.529167 0,0.291041 -0.238125,0.529166 -0.529166,0.529166 -0.291042,0 -0.529167,-0.238125 -0.529167,-0.529166 z m -35.840864,0.575622 c 0.93937,-0.204345 0.829546,-0.286085 -1.322917,-0.984639 l -2.34733,-0.761794 v 1.026378 c 0,0.958271 0.08778,1.023608 1.322917,0.984638 0.727604,-0.02296 1.783902,-0.142018 2.34733,-0.264583 z m 8.353069,-4.5491304 c 2.825002,-2.5399187 3.264891,-4.1661388 1.620954,-5.9924629 -1.593356,-1.770132 -4.049388,-0.656347 -5.795381,2.6281418 -1.049415,1.9741211 -2.088793,6.1395825 -1.692116,6.7814185 0.295829,0.478661 3.810494,-1.568535 5.866543,-3.4170974 z M 32.30834,11.211692 C 31.50486,7.1943046 30.053543,4.8919578 27.515088,3.6077517 c -2.198532,-1.11224 -3.696201,-1.040751 -4.974396,0.237446 -1.024191,1.0241891 -1.369649,2.1438025 -0.661472,2.1438025 0.905365,0 4.125648,2.4570374 4.543993,3.4670124 0.37658,0.9091454 0.855807,1.2245804 2.971116,1.9556364 3.239674,1.119642 3.178764,1.123822 2.914011,-0.199957 z M 24.32185,8.8913026 c -1.691686,-1.213616 -2.812355,-1.827548 -2.812355,-1.540682 0,0.406442 1.033032,1.268955 2.293055,1.91455 1.323319,0.678026 1.653854,0.44006 0.5193,-0.373868 z"
       id="path1475" />
  </g>
</svg>
