<?xml version="1.0" encoding="UTF-8" standalone="no"?>
<!-- Created with Inkscape (http://www.inkscape.org/) -->

<svg
   width="587mm"
   height="332mm"
   viewBox="0 0 587 332"
   version="1.1"
   id="svg1029"
   inkscape:version="1.1.1 (1:1.1+202109281943+c3084ef5ed)"
   sodipodi:docname="coin.svg"
   xmlns:inkscape="http://www.inkscape.org/namespaces/inkscape"
   xmlns:sodipodi="http://sodipodi.sourceforge.net/DTD/sodipodi-0.dtd"
   xmlns="http://www.w3.org/2000/svg"
   xmlns:svg="http://www.w3.org/2000/svg">
  <sodipodi:namedview
     id="namedview1031"
     pagecolor="#505050"
     bordercolor="#eeeeee"
     borderopacity="1"
     inkscape:pageshadow="0"
     inkscape:pageopacity="0"
     inkscape:pagecheckerboard="0"
     inkscape:document-units="mm"
     showgrid="false"
     inkscape:zoom="0.15695716"
     inkscape:cx="146.5368"
     inkscape:cy="1175.48"
     inkscape:window-width="1854"
     inkscape:window-height="1098"
     inkscape:window-x="66"
     inkscape:window-y="29"
     inkscape:window-maximized="1"
     inkscape:current-layer="layer1" />
  <defs
     id="defs1026" />
  <g
     inkscape:label="Calque 1"
     inkscape:groupmode="layer"
     id="layer1">
    <path
       style="fill:#ffffff;stroke-width:0.352778"
       d="m 529.68782,324.95082 c -1.0238,-1.0238 -1.19945,-1.44224 -1.19945,-2.8575 0,-1.40087 0.17784,-1.83542 1.14653,-2.80157 l 1.14653,-1.14352 13.22917,-0.229 c 7.27604,-0.12595 15.51417,-0.33523 18.30701,-0.46508 l 5.07781,-0.23608 -0.23548,-4.40481 c -0.1295,-2.42264 -0.56314,-6.88196 -0.96361,-9.90959 -1.03921,-7.85683 -1.41062,-11.88435 -1.60641,-17.41951 l -0.17184,-4.85916 1.22626,-1.22625 c 1.05195,-1.05195 1.46195,-1.22626 2.88431,-1.22626 1.41528,0 1.8337,0.17564 2.8575,1.19945 1.16618,1.16618 1.19945,1.27851 1.19945,4.05039 0,1.56803 0.15113,3.92546 0.33588,5.23875 0.40453,2.87585 1.28922,10.51408 1.97231,17.02808 0.6787,6.47261 0.68019,14.88314 0.004,16.19293 -0.86571,1.67407 -2.83358,3.1423 -4.50105,3.35823 -2.61846,0.33909 -22.04135,0.90995 -30.95996,0.90995 h -8.5484 l -1.19945,-1.19945 z M 7.260247,324.63435 c -0.65679,-0.65679 -1.30666,-1.64241 -1.44417,-2.19027 -0.1375,-0.54787 -0.0467,-3.47029 0.20182,-6.49427 0.34798,-4.23436 0.36012,-6.33249 0.0528,-9.12796 -0.55621,-5.05988 -0.48725,-13.37151 0.14402,-17.36047 0.29171,-1.84326 0.69152,-4.78014 0.88847,-6.52639 0.4309,-3.82055 0.80523,-4.85674 2.16911,-6.00436 0.77135,-0.64906 1.45142,-0.8748 2.63535,-0.8748 1.35672,0 1.78274,0.18702 2.84451,1.24879 1.24814,1.24814 1.24866,1.25004 1.00773,3.61597 -0.33774,3.31648 -0.72836,6.3062 -1.43855,11.01024 -0.49856,3.30229 -0.55664,4.94283 -0.31221,8.81944 0.16516,2.61937 0.30148,7.52617 0.30295,10.90398 l 0.003,6.14149 13.93472,-0.19778 c 16.45066,-0.23348 17.6902,-0.14014 19.10051,1.43827 0.79798,0.8931 1.00782,1.46467 1.00782,2.74516 0,1.35519 -0.18576,1.80218 -1.14652,2.75882 l -1.14653,1.1416 -18.80519,0.0734 -18.80518,0.0734 z m 9.21654,-262.036429 c -1.27497,-1.00289 -1.49444,-1.49814 -2.35042,-5.30374 -0.91009,-4.04621 -1.28844,-8.37512 -1.75405,-20.0689 -0.197,-4.947708 -0.5221,-10.107088 -0.72244,-11.465278 -0.78268,-5.30616 -0.78678,-6.96752 -0.0202,-8.18291 1.52312,-2.41476 1.30537,-2.37771 15.36903,-2.61468 9.13492,-0.15392 13.80089,-0.37967 16.56825,-0.80158 3.38495,-0.51608 15.63168,-1.25943 20.96568,-1.27257 1.67902,-0.004 2.01977,0.12776 3.08681,1.1948 1.00591,1.00591 1.19944,1.45361 1.19944,2.77464 0,1.62602 -0.81545,3.09063 -2.10503,3.7808 -0.35156,0.18815 -4.42706,0.50655 -9.05666,0.70756 -4.62961,0.20101 -9.9256,0.62048 -11.76886,0.93216 -2.39564,0.40508 -6.60711,0.6155 -14.76772,0.73785 l -11.41633,0.17116 0.22718,1.42069 c 0.12495,0.78139 0.38223,5.48776 0.57174,10.45861 0.43133,11.313778 0.7951,15.522718 1.72208,19.924658 1.03447,4.91242 0.98365,5.6896 -0.46695,7.1402 -1.00591,1.0059 -1.45361,1.19944 -2.77465,1.19944 -1.06063,0 -1.87958,-0.23942 -2.50695,-0.73291 z m 551.610573,-13.92534 -1.25271,-1.25269 0.23414,-4.12717 c 0.12876,-2.26994 0.38703,-4.76216 0.57397,-5.53828 0.18693,-0.776108 0.34798,-2.601728 0.35785,-4.056938 0.01,-1.45521 0.16454,-4.07458 0.34364,-5.82083 0.17911,-1.74625 0.4898,-4.92125 0.69046,-7.05556 0.20066,-2.1343 0.45307,-4.53299 0.56095,-5.33042 l 0.19611,-1.44987 -2.39243,-0.19204 c -1.31583,-0.10562 -6.54399,-0.0542 -11.61814,0.11427 -7.3262,0.24324 -10.15957,0.20138 -13.76136,-0.2033 -2.4946,-0.28028 -5.2262,-0.51269 -6.07022,-0.51648 -1.27,-0.006 -1.74138,-0.21367 -2.73402,-1.20632 -1.0238,-1.02381 -1.19945,-1.44224 -1.19945,-2.8575002 0,-1.41527 0.17565,-1.8337 1.19945,-2.8575 1.16529,-1.1653104 1.27825,-1.1988604 3.96875,-1.1789404 1.52311,0.0113 4.59493,0.20972 6.82625,0.44098 2.73801,0.28376 6.52275,0.33801 11.64166,0.16686 10.63696,-0.35564 18.32649,-0.0347 19.7381,0.8237304 1.95308,1.18774 2.48461,2.53914 2.48143,6.3090302 -0.004,3.0144 -0.77928,12.65588 -1.23627,15.34584 -0.0989,0.58208 -0.34015,3.51895 -0.53608,6.52638 -0.19597,3.007428 -0.55767,7.193788 -0.80384,9.303028 -0.42326,3.627 -0.5092,3.89004 -1.58433,4.85069 -0.90219,0.80609 -1.47059,1.01573 -2.75403,1.01573 -1.38229,0 -1.79916,-0.18197 -2.86988,-1.2527 z"
       id="path2684" />
    <path
       style="fill:#000000;stroke-width:0.352778"
       id="path2664"
       d="" />
  </g>
</svg>
