<?xml version="1.0" encoding="UTF-8" standalone="no"?>
<!-- Created with Inkscape (http://www.inkscape.org/) -->

<svg
   width="630"
   height="604"
   viewBox="0 0 166.68683 159.80842"
   version="1.1"
   id="svg5"
   inkscape:version="1.1.1 (1:1.1+202109281943+c3084ef5ed)"
   sodipodi:docname="engrenageBlanc.svg"
   xmlns:inkscape="http://www.inkscape.org/namespaces/inkscape"
   xmlns:sodipodi="http://sodipodi.sourceforge.net/DTD/sodipodi-0.dtd"
   xmlns="http://www.w3.org/2000/svg"
   xmlns:svg="http://www.w3.org/2000/svg">
  <sodipodi:namedview
     id="namedview7"
     pagecolor="#505050"
     bordercolor="#eeeeee"
     borderopacity="1"
     inkscape:pageshadow="0"
     inkscape:pageopacity="0"
     inkscape:pagecheckerboard="0"
     inkscape:document-units="mm"
     showgrid="false"
     units="px"
     inkscape:zoom="0.34527439"
     inkscape:cx="115.84989"
     inkscape:cy="499.60265"
     inkscape:window-width="1854"
     inkscape:window-height="978"
     inkscape:window-x="66"
     inkscape:window-y="149"
     inkscape:window-maximized="1"
     inkscape:current-layer="g21440" />
  <defs
     id="defs2" />
  <g
     inkscape:label="Calque 1"
     inkscape:groupmode="layer"
     id="layer1">
    <g
       id="g21440">
      <path
         style="fill:#ffffff;fill-opacity:1;stroke-width:0.264583"
         d="m 82.888667,156.82661 c -0.34704,-0.26447 -0.98818,-0.62441 -1.42474,-0.79986 -0.99664,-0.40054 -2.28757,-1.74326 -2.8387,-2.9526 -0.35544,-0.77995 -0.71255,-2.97736 -0.83845,-5.15937 -0.0168,-0.29105 -0.12326,-0.67347 -0.2366,-0.84983 -0.11334,-0.17636 -0.21075,-1.21663 -0.21647,-2.31171 -0.01,-1.8674 -0.24687,-2.62145 -0.62961,-2.00215 -0.21811,0.3529 -1.37855,0.34671 -1.59811,-0.009 -0.11933,-0.19309 -0.27428,-0.1921 -0.50967,0.003 -0.24343,0.20202 -0.42344,0.17802 -0.64226,-0.0857 -0.1852,-0.22314 -1.15466,-0.44055 -2.48003,-0.55617 -1.19679,-0.10439 -2.29406,-0.26279 -2.43839,-0.35198 -0.28587,-0.17668 -0.40908,-0.20345 -2.43309,-0.52861 -0.75219,-0.12084 -1.53488,-0.35852 -1.73931,-0.52818 -0.27887,-0.23144 -0.44723,-0.23293 -0.67422,-0.006 -0.22698,0.22698 -0.34465,0.19276 -0.47122,-0.13707 -0.0928,-0.24178 -0.27528,-0.37372 -0.40555,-0.29321 -0.13027,0.0805 -0.23686,0.0203 -0.23686,-0.13381 0,-0.15411 -0.26789,-0.28399 -0.59531,-0.28861 -0.32742,-0.005 -0.82643,-0.18323 -1.1089,-0.39688 -0.28248,-0.21365 -0.74568,-0.38845 -1.02935,-0.38845 -0.47108,0 -1.75309,-0.5124 -3.70402,-1.48042 -1.19366,-0.59228 -1.69558,-0.46459 -2.1791,0.55437 -0.2417,0.50933 -0.53377,0.92605 -0.64906,0.92605 -0.24137,0 -2.11134,2.53738 -2.11134,2.8649 0,0.11982 -0.29765,0.49749 -0.66145,0.83926 -0.36381,0.34178 -0.66146,0.75605 -0.66146,0.9206 0,0.49106 -2.55119,2.78357 -3.09767,2.78357 -0.27795,0 -0.73647,0.1748 -1.01895,0.38846 -0.66257,0.50114 -2.34139,0.51588 -2.74949,0.0241 -0.17398,-0.20963 -0.45892,-0.32643 -0.63321,-0.25955 -0.17429,0.0669 -1.02363,-0.47598 -1.88743,-1.20635 -0.86381,-0.73036 -1.67436,-1.32794 -1.80124,-1.32794 -0.12688,0 -1.10494,-0.71438 -2.17347,-1.5875 -1.06852,-0.87313 -2.00638,-1.5875 -2.08411,-1.5875 -0.29264,0 -1.97008,-1.25195 -2.94145,-2.19533 -0.5548,-0.53882 -1.15813,-0.97967 -1.34072,-0.97967 -0.1826,0 -1.22447,-0.84319 -2.31529,-1.87375 -2.23538,-2.11193 -2.42554,-2.59392 -2.04971,-5.19543 0.18493,-1.28011 0.41827,-1.83791 1.05148,-2.51354 0.4476,-0.47757 0.81437,-1.00165 0.81504,-1.16461 7.9e-4,-0.16296 0.90557,-1.23452 2.01089,-2.38125 1.10531,-1.14673 2.37131,-2.46383 2.81332,-2.92689 0.87266,-0.91421 0.84914,-1.62165 -0.0618,-1.85988 -0.29031,-0.0759 -0.52783,-0.25019 -0.52783,-0.38727 0,-0.27231 -1.36777,-2.06042 -2.31511,-3.02659 -0.32742,-0.33393 -0.59531,-0.79115 -0.59531,-1.01605 0,-0.2249 -0.18154,-0.4089 -0.40342,-0.4089 -0.22188,0 -0.51899,-0.30395 -0.66023,-0.67544 -0.14124,-0.37149 -0.60706,-1.11563 -1.03515,-1.65364 -0.42809,-0.53802 -0.85705,-1.30075 -0.95323,-1.69496 -0.0962,-0.39421 -0.3418,-0.85528 -0.5458,-1.02459 -0.20401,-0.1693 -0.37357,-0.44208 -0.3768,-0.60616 -0.003,-0.16408 -0.23871,-0.59599 -0.52328,-0.95979 -0.28457,-0.3638 -0.52005,-0.82167 -0.52329,-1.01749 -0.003,-0.19582 -0.22467,-0.67207 -0.49208,-1.05833 -0.26741,-0.38627 -0.63943,-1.26559 -0.82673,-1.95405 -0.18729,-0.68846 -0.50428,-1.38764 -0.70442,-1.55375 -0.20015,-0.1661 -0.3639,-0.65477 -0.3639,-1.08593 v -0.78393 l -2.05052,0.18953 c -1.12779,0.10424 -2.11005,0.2748 -2.18281,0.37901 -0.12328,0.17657 -2.28553,0.55225 -3.63802,0.63209 -0.32742,0.0193 -0.59531,0.18397 -0.59531,0.36587 0,0.41641 -0.32934,0.42473 -0.73549,0.0186 -0.23982,-0.23981 -0.47046,-0.22743 -0.99529,0.0534 -0.5405,0.28927 -0.78946,0.2992 -1.19238,0.0476 -0.28009,-0.17492 -0.7787502,-0.31982 -1.1081497,-0.32201 -1.42781,-0.01 -3.64161,-1.21341 -3.64161,-1.98039 0,-0.17317 -0.23812,-0.530361 -0.52917,-0.793751 -0.29104,-0.26339 -0.52916,-0.75106 -0.52916,-1.08372 0,-0.33267 -0.1055,-0.67005 -0.23445,-0.74974 -0.12895,-0.0797 -0.38152,-1.36664 -0.56127,-2.85988 -0.17975,-1.49325 -0.41682,-2.83405 -0.52683,-2.97957 -0.11002,-0.14552 -0.27927,-1.69334 -0.37612,-3.439586 -0.0969,-1.74625 -0.27752,-3.62148 -0.40148,-4.16718 -0.12396,-0.54571 -0.12633,-1.43135 -0.005,-1.96809 0.12105,-0.53674 0.21165,-1.04276 0.20132,-1.12448 -0.0643,-0.50921 0.45199,-1.91392 0.86744,-2.35985 0.91042,-0.97722 2.21932,-1.79633 3.41791,-2.13893 0.65484,-0.18718 1.42875,-0.44347 1.71979,-0.56955 0.29104,-0.12607 1.4816697,-0.29004 2.6458297,-0.36437 5.86097,-0.37424 6.09813,-0.46455 6.34183,-2.41505 0.0976,-0.78133 0.29048,-1.49044 0.42858,-1.57579 0.13809,-0.0854 0.23531,-0.59323 0.21603,-1.12864 -0.0409,-1.13539 0.4752,-4.43865 0.81346,-5.20681 0.36054,-0.81874 0.73131,-2.31172 0.75448,-3.03803 0.0115,-0.36123 0.12883,-0.89701 0.26069,-1.19062 0.13185,-0.29362 0.38316,-1.0101 0.55847,-1.59218 0.37326,-1.23941 0.52533,-1.61764 1.44665,-3.59825 0.37905,-0.81486 0.68918,-1.60396 0.68918,-1.75354 0,-0.14957 0.1786,-0.42018 0.39688,-0.60133 0.43176,-0.35833 0.54554,-1.32292 0.15605,-1.32292 -0.13245,0 -0.84333,-0.47625 -1.57972,-1.05833 -0.73639,-0.58209 -1.45554,-1.05834 -1.59811,-1.05834 -0.14257,0 -0.35822,-0.1769 -0.47921,-0.39311 -0.19971,-0.35683 -2.55223,-1.98814 -2.86713,-1.98814 -0.0726,0 -0.48118,-0.35718 -0.90793,-0.79375 -0.42676,-0.43656 -0.89899,-0.79375 -1.04942,-0.79375 -0.15042,0 -0.2735,-0.21737 -0.2735,-0.48304 0,-0.26568 -0.29765,-0.76268 -0.66146,-1.10445 -0.76404,-0.71779 -0.8972,-2.24246 -0.29681,-3.39876 0.20055,-0.38626 0.51358,-1.02084 0.69562,-1.41019 0.18204,-0.38934 0.91092,-1.32561 1.61973,-2.08059 0.70882,-0.75498 1.28886,-1.56752 1.28899,-1.80564 1.3e-4,-0.23812 0.47185,-0.89046 1.04828,-1.44963 0.57642,-0.55919 1.12954,-1.27347 1.22915,-1.58731 0.0996,-0.31384 0.93757,-1.39946 1.86214,-2.41248 0.92456,-1.01302 1.68103,-1.93584 1.68103,-2.05071 0,-0.11487 0.17859,-0.20886 0.39687,-0.20886 0.21828,0 0.39688,-0.15289 0.39688,-0.33976 0,-0.6286 2.74013,-3.07899 3.64556,-3.26008 0.47485,-0.095 0.92744,-0.27635 1.00576,-0.40308 0.19717,-0.31902 2.15941,-0.2906 2.36013,0.0342 0.0899,0.14552 0.40577,0.26459 0.70185,0.26459 0.3158,0 0.59552,0.21873 0.6767,0.52916 0.0761,0.29104 0.29239,0.52917 0.48063,0.52917 0.18825,0 0.94476,0.47625 1.68115,1.05833 0.73639,0.58208 1.45154,1.05833 1.58921,1.05833 0.13768,0 0.29001,0.0893 0.33852,0.19844 0.13626,0.30659 2.93721,2.34742 3.49079,2.54346 0.34264,0.12133 0.73974,-0.0677 1.307,-0.62234 0.44814,-0.43815 0.94226,-0.79664 1.09802,-0.79664 0.15576,0 0.59661,-0.29061 0.97967,-0.6458 0.38305,-0.35519 0.76879,-0.57347 0.85719,-0.48507 0.0884,0.0884 0.16073,0.0228 0.16073,-0.14587 0,-0.16863 0.40723,-0.51589 0.90496,-0.7717 0.49772,-0.2558 1.61299,-1.0176 2.47837,-1.69288 0.86538,-0.67528 1.81637,-1.30489 2.11331,-1.39914 0.29694,-0.0942 0.60237,-0.33418 0.67874,-0.5332 0.0764,-0.19902 0.51622,-0.44474 0.97743,-0.54604 0.46121,-0.1013 1.07377,-0.41938 1.36125,-0.70686 0.28747,-0.28748 0.69678,-0.45588 0.90956,-0.37423 0.21278,0.0817 0.59053,0.04 0.83944,-0.0926 0.24891,-0.13256 1.04787,-0.52377 1.77547,-0.86936 0.72761,-0.34559 1.82645,-0.97934 2.44187,-1.40833 1.09515,-0.7634 1.11555,-0.80532 0.95882,-1.97061 -0.0881,-0.65485 -0.25264,-1.30969 -0.36568,-1.45521 -0.3358,-0.43228 -0.81601,-5.12214 -0.63206,-6.1728399 0.0935,-0.534 0.31639,-1.20903 0.49531,-1.50008 0.17893,-0.29104 0.40754,-0.86287 0.50802,-1.27073 0.11152,-0.45269 0.5401,-0.95245 1.10019,-1.28291 0.50462,-0.29773 0.91749,-0.64863 0.91749,-0.77978 0,-0.13115 0.27116,-0.23845 0.60259,-0.23845 0.33142,0 0.87232,-0.18893 1.20199,-0.41984 0.48183,-0.33749 0.67679,-0.35561 0.99393,-0.0924 0.29329,0.24341 0.54498,0.25373 0.98082,0.0402 0.32246,-0.15796 1.83645,-0.43222 3.36442,-0.60947 1.52797,-0.17725 2.91481,-0.42764 3.08187,-0.55643 0.16706,-0.12879 1.23863,-0.27797 2.38125,-0.33152 3.03343,-0.14216 5.47294,-0.44582 5.82608,-0.72522 0.16995,-0.13445 1.12244,-0.26777 2.11666,-0.29625 1.62254,-0.0465 1.92962,0.0308 2.9983,0.75446 0.65484,0.44344 1.41029,0.89052 1.67877,0.99353 0.26847,0.103 0.54737,0.41379 0.61977,0.69064 0.0724,0.27685 0.35875,0.56276 0.63634,0.63535 0.39135,0.10234 0.5047,0.37175 0.5047,1.19947 0,0.58712 0.11907,1.14107 0.26459,1.23101 0.14552,0.0899 0.26458,0.69923 0.26458,1.35399 0,1.8752299 0.54815,6.2577999 0.86547,6.9195899 0.1958,0.40836 0.37442,0.51424 0.55793,0.33072 0.37965,-0.37964 2.63711,-0.33692 3.0314,0.0574 0.18002,0.18001 0.70985,0.34935 1.1774,0.3763 1.94689,0.11223 3.11188,0.30004 3.42635,0.55239 0.18379,0.14747 1.405717,0.41928 2.715403,0.60403 1.37507,0.19396 2.60484,0.51989 2.91041,0.77134 0.66279,0.54541 1.61852,0.98065 2.64583,1.20491 0.43657,0.0953 1.15094,0.33133 1.5875,0.52451 1.1128,0.4924 2.66439,0.6742 2.98844,0.35015 0.42412,-0.42412 0.89107,0.0254 0.69512,0.66914 -0.20413,0.67065 2.82792,-2.55233 3.1285,-3.3255 0.10861,-0.27938 0.61462,-1.01704 1.12447,-1.63925 0.50986,-0.6222 0.92701,-1.27853 0.92701,-1.4585 0,-0.39342 1.05694,-1.31691 1.52136,-1.32927 0.1819,-0.005 0.33072,-0.17776 0.33072,-0.38425 0,-0.35365 1.68758,-0.91828 3.0869,-1.03283 0.31535,-0.0258 0.66261,-0.13623 0.77171,-0.24537 0.3204,-0.32056 0.76858,-0.23052 1.31702,0.26458 0.28211,0.25466 0.8701,0.63951 1.30666,0.85522 0.43657,0.2157 1.32954,0.85632 1.98438,1.4236 0.65484,0.56728 1.49341,1.1647 1.86348,1.3276 0.624,0.27468 1.99118,1.31032 3.62189,2.74358 0.37252,0.32742 0.81607,0.59531 0.98566,0.59531 0.1696,0 0.53916,0.20836 0.82126,0.46302 1.40778,1.27085 3.2605,2.71198 3.48651,2.71198 0.13988,0 0.8523,0.60745 1.58316,1.34989 1.23712,1.25674 1.34056,1.46448 1.49895,3.01047 0.18054,1.76211 0.0385,2.4707 -0.58963,2.94169 -0.21315,0.15982 -0.30495,0.42423 -0.20401,0.58756 0.11073,0.17916 -0.0831,0.3639 -0.48874,0.46569 -0.36976,0.0928 -0.6778,0.30465 -0.68453,0.47078 -0.007,0.16612 -0.7796,1.13548 -1.71748,2.15413 -0.93787,1.01864 -1.70627,2.00091 -1.70754,2.18281 -0.001,0.1819 -0.12138,0.33073 -0.2669,0.33073 -0.14552,0 -0.26458,0.17057 -0.26458,0.37904 0,0.20848 -0.20836,0.44642 -0.46302,0.52877 -0.25467,0.0824 -0.61082,0.4691 -0.79145,0.85944 -0.27693,0.59845 -0.26013,0.78518 0.10716,1.19102 0.23956,0.26472 0.58113,0.48131 0.75904,0.48131 0.45864,0 1.02079,0.7152 0.65737,0.83634 -0.15519,0.0517 0.0731,0.50979 0.50737,1.01792 0.43424,0.50813 0.79436,1.05042 0.80027,1.20509 0.006,0.15468 0.36794,0.62344 0.80451,1.04169 0.43656,0.41825 0.79375,0.89439 0.79375,1.05808 0,0.16369 0.34258,0.55089 0.76128,0.86046 0.47598,0.35191 0.82573,0.90635 0.93324,1.47942 0.0946,0.50411 0.34731,0.98386 0.56163,1.06611 0.21432,0.0822 0.38968,0.34444 0.38968,0.58266 0,0.39688 0.73439,1.47044 1.72118,2.51609 0.21752,0.23049 0.39922,0.64721 0.40379,0.92604 0.005,0.27883 0.36175,1.21831 0.79375,2.08773 0.43199,0.86943 0.78544,1.94694 0.78544,2.39448 0,0.44755 0.14288,0.95659 0.3175,1.13122 0.37325,0.37324 1.84711,0.42395 2.20927,0.076 0.21887,-0.21027 2.27524,-0.4854 5.07109,-0.67848 0.46804,-0.0323 1.03359,-0.21032 1.25677,-0.39555 0.26834,-0.2227 0.51781,-0.25045 0.73652,-0.0819 0.1819,0.14019 1.27066,0.27966 2.41945,0.30994 2.36125,0.0623 3.06737,0.34933 4.4109,1.79335 0.92718,0.9965 0.94937,1.07301 1.29201,4.4535 0.19174,1.89178 0.4458,3.56357 0.56454,3.7151 0.11877,0.15153 0.35028,1.87794 0.51451,3.83645 0.1642,1.95853 0.40838,3.67406 0.54258,3.81231 0.13422,0.13824 0.24403,0.65208 0.24403,1.14187 0,0.48978 0.12834,1.13036 0.28524,1.42351 0.22717,0.42449 0.14243,0.82492 -0.41632,1.96698 -0.38589,0.78869 -0.87397,1.43399 -1.08468,1.43399 -0.21069,0 -0.51872,0.29765 -0.68448,0.66146 -0.16574,0.3638 -0.46085,0.66145 -0.65577,0.66145 -0.19492,0 -0.35534,0.0893 -0.35647,0.19844 -0.003,0.33876 -1.38385,0.8599 -2.27759,0.8599 -0.46818,0 -0.89093,0.1171 -0.93946,0.26023 -0.0485,0.14313 -1.81049,0.38311 -3.91554,0.53331 -2.10505,0.15018 -3.94456,0.39027 -4.08781,0.53351 -0.14324,0.14325 -0.51567,0.26045 -0.82759,0.26045 -0.53469,0 -0.56658,0.12475 -0.55769,2.18281 0.0122,2.81321 -0.2246,4.645546 -0.7249,5.609886 -0.21982,0.42368 -0.47895,1.40506 -0.57589,2.18085 -0.0969,0.77578 -0.27451,1.47125 -0.3946,1.54548 -0.1201,0.0742 -0.29769,0.69774 -0.39463,1.38557 -0.0969,0.68783 -0.31837,1.48873 -0.49204,1.77977 -0.17368,0.29104 -0.48202,1.06494 -0.6852,1.719791 -0.20317,0.65484 -0.51202,1.42875 -0.68631,1.71979 -0.17431,0.29104 -0.40293,0.82682 -0.50806,1.19062 -0.10512,0.36381 -0.35423,0.84787 -0.55357,1.0757 -0.19934,0.22783 -0.43776,0.79085 -0.52982,1.25117 -0.14354,0.71767 -0.0765,0.87151 0.47075,1.07955 0.35098,0.13344 0.79665,0.43362 0.99039,0.66706 0.19374,0.23344 0.54958,0.42444 0.79072,0.42444 0.24117,0 1.20886,0.7123 2.15043,1.5829 0.94157,0.87059 1.85473,1.58497 2.02925,1.5875 0.17451,0.003 0.92665,0.5797 1.67137,1.28261 1.45129,1.36976 1.82975,2.30972 1.84144,4.57328 0.004,0.82783 -0.16409,1.43775 -0.52284,1.89382 -0.29104,0.37 -0.52916,0.75034 -0.52916,0.8452 0,0.0949 -0.86321,1.19051 -1.91823,2.43477 -1.05503,1.24427 -2.03729,2.45695 -2.18282,2.69484 -0.14552,0.2379 -0.98977,1.32886 -1.87616,2.42436 -0.88635,1.0955 -1.66026,2.12736 -1.71978,2.29303 -0.41908,1.16646 -4.16593,4.83954 -4.94046,4.84319 -0.32939,0.002 -0.83541,0.15053 -1.12447,0.33105 -0.41448,0.25884 -0.63485,0.25999 -1.04248,0.005 -0.2843,-0.17755 -0.58225,-0.21708 -0.66212,-0.0878 -0.24088,0.38976 -2.61456,-0.92406 -3.26067,-1.80478 -0.33178,-0.45226 -0.80925,-0.82228 -1.06104,-0.82228 -0.25179,0 -0.75424,-0.26911 -1.11656,-0.59803 -1.23184,-1.1183 -2.94971,-2.39084 -3.84084,-2.84516 l -0.88855,-0.45301 -1.31396,1.28664 c -0.72267,0.70766 -1.42314,1.28665 -1.55658,1.28665 -0.13344,0 -0.52225,0.29765 -0.86403,0.66146 -0.34177,0.3638 -0.74948,0.66332 -0.90601,0.66559 -0.15654,0.002 -0.82039,0.47666 -1.47524,1.0542 -0.65484,0.57754 -1.39898,1.05193 -1.65364,1.0542 -0.25466,0.002 -0.46302,0.18272 -0.46302,0.40101 0,0.21828 -0.16198,0.39687 -0.35995,0.39687 -0.19798,0 -0.79858,0.29766 -1.33467,0.66146 -0.53609,0.3638 -1.10888,0.66146 -1.27286,0.66146 -0.16398,0 -0.51332,0.19473 -0.7763,0.43272 -0.26299,0.238 -0.68908,0.45478 -0.94688,0.48173 -0.48547,0.0508 -0.96726,0.21959 -2.3208,0.81326 -0.43656,0.19148 -1.11629,0.42854 -1.5105,0.5268 -0.39421,0.0983 -0.85527,0.34557 -1.02458,0.54957 -0.16931,0.204 -0.57634,0.37092 -0.9045,0.37092 -0.99122,0 -1.31037,0.6314 -0.81801,1.61835 0.23162,0.46431 0.42113,0.98992 0.42113,1.16802 0,0.17811 0.1786,0.47205 0.39688,0.65321 0.47044,0.39043 0.5556,2.64583 0.0999,2.64583 -0.21641,0 -0.21462,0.0992 0.007,0.36579 0.16697,0.20118 0.33038,1.42157 0.36313,2.71198 0.0588,2.31646 0.0478,2.36124 -0.86649,3.53416 -1.21413,1.55755 -1.51853,1.79209 -2.77812,2.14061 -0.58209,0.16105 -1.27603,0.40758 -1.54209,0.54783 -0.32811,0.17296 -0.60478,0.15457 -0.8599,-0.0572 -0.25069,-0.20806 -0.48644,-0.2256 -0.70687,-0.0526 -0.1819,0.14277 -1.64041,0.40883 -3.241133,0.59125 -1.60073,0.18241 -3.04811,0.4427 -3.2164,0.57841 -0.16829,0.13572 -1.06126,0.25551 -1.98438,0.26621 -1.59282,0.0185 -2.88099,0.2539 -4.05964,0.74201 -0.55825,0.23118 -4.36987,0.80704 -5.32213,0.80407 -0.30779,-0.001 -0.84357,-0.21814 -1.19062,-0.48262 z"
         id="path22014" />
    </g>
    <path
       style="fill:#000000;stroke-width:0.352778"
       id="path21278"
       d="" />
    <path
       style="fill:#000000;stroke-width:0.352778"
       id="path21054"
       d="" />
  </g>
</svg>
