<?xml version="1.0" encoding="UTF-8" standalone="no"?>
<!-- Created with Inkscape (http://www.inkscape.org/) -->

<svg
   width="381"
   height="277"
   viewBox="0 0 100.80641 73.290045"
   version="1.1"
   id="svg5"
   inkscape:version="1.1.1 (1:1.1+202109281943+c3084ef5ed)"
   sodipodi:docname="Gens.svg"
   xmlns:inkscape="http://www.inkscape.org/namespaces/inkscape"
   xmlns:sodipodi="http://sodipodi.sourceforge.net/DTD/sodipodi-0.dtd"
   xmlns="http://www.w3.org/2000/svg"
   xmlns:svg="http://www.w3.org/2000/svg">
  <sodipodi:namedview
     id="namedview7"
     pagecolor="#505050"
     bordercolor="#eeeeee"
     borderopacity="1"
     inkscape:pageshadow="0"
     inkscape:pageopacity="0"
     inkscape:pagecheckerboard="0"
     inkscape:document-units="mm"
     showgrid="false"
     units="px"
     inkscape:zoom="0.69054878"
     inkscape:cx="147.70861"
     inkscape:cy="417.78366"
     inkscape:window-width="1854"
     inkscape:window-height="978"
     inkscape:window-x="66"
     inkscape:window-y="149"
     inkscape:window-maximized="1"
     inkscape:current-layer="g21440" />
  <defs
     id="defs2" />
  <g
     inkscape:label="Calque 1"
     inkscape:groupmode="layer"
     id="layer1">
    <g
       id="g21440">
      <path
         style="fill:#f2ebd1;fill-opacity:1;stroke-width:0.264583"
         d="m 3.0437934,70.435025 c -0.56763,-0.60422 -0.64576,-0.9635 -0.73358,-3.37344 -0.15064,-4.13343 0.4185,-16.98758 0.85744,-19.36595 0.21486,-1.16417 0.63819,-3.96214 0.94074,-6.21771 0.64468,-4.8063 1.14062,-7.11403 2.07537,-9.6573 0.67061,-1.82459 2.08998,-4.28308 2.82491,-4.89302 0.31269,-0.25951 0.13972,-0.54261 -1.02821,-1.68287 -2.22814,-2.17536 -3.55759,-5.41372 -3.92623,-9.563696 -0.0537,-0.60415 -0.18619,-0.77401 -0.55481,-0.71112 -0.73915,0.12612 -1.76466,-0.67041 -1.76466,-1.37064 0,-0.85357 0.79881,-1.48981 1.87292,-1.49175 l 0.90521,-0.002 -0.79375,-0.41031 c -0.43656,-0.22567 -0.95746,-0.5715 -1.15755,-0.7685 -0.45371,-0.44671 -0.47198,-1.59638 -0.0337,-2.1244095 0.47472,-0.572 2.01416,-0.50088 2.63686,0.1218195 0.31246,0.31247 0.58565,0.41251 0.68546,0.25102 0.0913,-0.14771 -0.14252,-0.5544095 -0.51952,-0.9037995 -1.24746,-1.1561 -0.60371,-3.57094 0.95193,-3.57094 0.26361,0 0.47928,-0.18115 0.47928,-0.40255 0,-0.2214 0.29867,-0.53863 0.66372,-0.70496 0.90763,-0.41354 1.88157,0.13043 2.29866,1.28387 0.3840896,1.06217 0.8866896,1.19273 0.5942096,0.15437 -0.31592,-1.1216 -0.21726,-1.89807 0.31603,-2.48736 0.91492,-1.01097 1.41195,-1.12314 2.24562,-0.50678 0.59345,0.43876 0.87665,0.50343 1.27379,0.29088 0.91913,-0.4919 2.05501,-0.3236 2.61424,0.38735 0.4847,0.61619 0.56836,0.6354 1.24301,0.28538 0.87189,-0.45234 1.74088,-0.20536 2.10878,0.59935 0.17576,0.38445 0.50025,0.57128 0.99219,0.57128 0.7138,0 1.78934,0.79518 1.78934,1.32292 0,0.14552 0.39291,0.26458 0.87313,0.26458 1.06211,0 1.50812,0.40121 1.50812,1.35663 0,0.68447 -0.42279,1.16348 -1.75727,1.9909595 -0.44127,0.27362 -0.45037,0.34788 -0.0888,0.72416 0.36714,0.3821 0.50221,0.37014 1.52274,-0.13477 1.2078,-0.59758 2.1012,-0.53382 2.83751,0.2025 0.50866,0.50865 0.33806,1.63376 -0.32451,2.14017 -0.3925,0.29999 -0.39132,0.36618 0.0145,0.81458 0.86247,0.95302 0.40325,2.30015 -0.94737,2.77913 -0.51755,0.18354 -0.59511,0.76255 -0.20083,1.499256 0.30059,0.56165 -0.33699,3.85137 -1.0008,5.16385 -0.64872,1.28263 -1.89698,2.70091 -3.06638,3.48403 -0.5994,0.40139 -1.14318,0.76772 -1.20841,0.81406 -0.0652,0.0463 0.77339,0.94369 1.8636,1.99412 3.57394,3.44353 5.29737,6.28559 6.9528,11.4657 1.53355,4.79873 1.9929,6.51349 2.1729,8.11155 0.23507,2.08684 0.68125,1.64586 1.42008,-1.40349 1.21271,-5.00523 3.19812,-9.93625 5.79638,-14.39609 l 0.76157,-1.3072 -0.8254,-0.41259 c -1.13314,-0.56642 -1.25642,-1.80517 -0.31487,-3.16383 0.83141,-1.19973 0.84386,-1.46967 0.0921,-1.99626 -0.82414,-0.57725 -0.99946,-0.51938 -0.99946,0.32992 0,0.408 -0.30489,1.35364 -0.67753,2.10144 -0.63432,1.27291 -0.65082,1.40042 -0.25863,1.99898 0.38301,0.58455 0.38223,0.6698 -0.009,0.99462 -0.35962,0.29846 -0.54042,0.29253 -1.13044,-0.037 -0.97763,-0.5461 -1.042,-1.70403 -0.18838,-3.38857 0.87625,-1.7292 0.85284,-2.23778 -0.1375,-2.98641 -1.67401,-1.26543 -2.09628,-1.77871 -2.09628,-2.54809 0,-0.76764 1.00715,-2.38352 2.07793,-3.33387 0.83232,-0.73871 0.71393,-1.0459 -0.75501,-1.95904 -1.11186,-0.691166 -1.32292,-0.949296 -1.32292,-1.617926 0,-0.75497 1.22947,-2.4013 1.79328,-2.4013 0.413,0 1.38173,-1.07433 1.3811,-1.53166 -3.4e-4,-0.24899 -0.35725,-0.86943 -0.79313,-1.37876 -1.07984,-1.2617895 -1.10663,-2.7832595 -0.0661,-3.7567495 0.99696,-0.93277 2.0964,-1.44986 3.54438,-1.667 0.91005,-0.13647 1.36288,-0.37344 1.7726,-0.92761 0.40063,-0.54188 0.92696,-0.8251 1.93522,-1.04133 2.1037,-0.45116 3.54951,-0.13011 4.86192,1.07963 1.24439,1.14703 2.48798,1.3668 3.08442,0.54508 0.71881,-0.9903 1.62211,-1.37577 3.22391,-1.37577 1.2668,0 1.73718,0.12767 2.43701,0.66146 0.47697,0.3638 1.12924,0.66146 1.44949,0.66146 1.01389,0 2.59039,0.587 3.12485,1.16353 0.97942,1.05651 0.83208,2.15876 -0.48924,3.65986 -1.1853,1.3465695 -1.17879,1.3648695 0.91847,2.5834195 2.29998,1.33633 2.56172,2.56201 0.92604,4.3365 -0.58208,0.63149 -1.05833,1.269976 -1.05833,1.418866 0,0.14889 0.32742,0.47841 0.7276,0.73227 2.75431,1.74719 2.84039,3.1744 0.28864,4.78525 l -1.05498,0.66598 1.07771,1.16917 c 1.36264,1.4783 1.37901,2.1679 0.0855,3.60379 -0.75775,0.84117 -0.99219,1.32584 -0.99219,2.05128 0,0.77616 -0.10608,0.96498 -0.58004,1.03243 -0.42157,0.06 -0.69263,-0.1352 -0.99219,-0.71447 -0.60356,-1.16716 -0.52448,-1.507 0.64619,-2.77702 0.58208,-0.63148 1.05833,-1.28731 1.05833,-1.45738 0,-0.17007 -0.41672,-0.67511 -0.92604,-1.1223 -0.50932,-0.44719 -0.92604,-0.97934 -0.92604,-1.18254 0,-0.20321 -0.16353,-0.36947 -0.3634,-0.36947 -0.51326,0 -3.06732,1.91773 -3.07217,2.30676 -0.002,0.17731 0.65083,0.80615 1.45119,1.39741 1.74026,1.28561 1.87547,1.97503 0.62222,3.1727 -0.45815,0.43783 -0.9344,0.79605 -1.05833,0.79605 -0.47117,0 -0.18603,0.95718 0.93901,3.15222 1.07488,2.09716 3.3183,8.31229 3.34518,9.26741 0.006,0.22697 0.18901,0.88892 0.40584,1.471 0.4747,1.27434 1.43301,6.0325 1.43868,7.14323 0.008,1.66552 0.44423,1.56915 1.04319,-0.23072 0.31982,-0.96106 0.67778,-1.80689 0.79546,-1.87962 0.11769,-0.0727 0.29385,-0.55803 0.39148,-1.07843 0.0976,-0.5204 0.720831,-2.27789 1.384901,-3.90553 0.66406,-1.62764 1.49638,-3.73325 1.84959,-4.67914 1.97124,-5.27885 7.5302,-12.48228 10.47248,-13.57048 0.50062,-0.18516 0.58746,-0.64019 0.22985,-1.20443 -0.18447,-0.29105 -0.32307,-0.29392 -0.76822,-0.0159 -0.44314,0.27675 -0.62017,0.27527 -0.9615,-0.008 -0.2301,-0.19096 -0.41836,-0.56701 -0.41836,-0.83567 0,-0.32732 -0.13204,-0.4378 -0.40024,-0.33488 -0.59681,0.22904 -1.18726,-0.39805 -1.18726,-1.26091 0,-0.47029 -0.13934,-0.76135 -0.36448,-0.76135 -0.20046,0 -0.5127,-0.1786 -0.69385,-0.39688 -0.26301,-0.3169 -0.26199,-0.47807 0.005,-0.79983 0.27184,-0.32755 0.25362,-0.58747 -0.0974,-1.38906 -0.60628,-1.38443 -1.23055,-3.964496 -1.23055,-5.085766 0,-1.39284 0.96682,-3.90169 1.98012,-5.13828 0.53963,-0.65856 0.92141,-1.4448595 0.97481,-2.0076995 0.0856,-0.9017 0.1197,-0.92725 1.34455,-1.00584 0.69122,-0.0444 1.25677,-0.19318 1.25677,-0.33073 0,-0.60898 1.05975,-1.29494 1.78043,-1.15244 0.58904,0.11647 0.78511,0.0244 0.9977,-0.46854 0.21646,-0.5019 0.46624,-0.61348 1.37337,-0.61348 0.60983,0 1.25872,-0.14883 1.44198,-0.33073 0.50256,-0.49884 1.5774,-0.39749 2.2237,0.20968 0.49395,0.46404 0.67286,0.49593 1.26599,0.22568 0.75659,-0.34472 1.50017,0.0129 1.50017,0.72152 0,0.24691 0.33091,0.36447 1.02594,0.36447 0.59037,0 1.16614,0.16895 1.35619,0.39794 0.18164,0.21886 0.69977,0.49368 1.15139,0.61071 0.61393,0.15908 0.88162,0.42368 1.06083,1.04856 0.17779,0.61989 0.46968,0.91169 1.12997,1.1296 0.72946,0.24074 0.89027,0.42799 0.89027,1.0366195 0,0.50036 0.21589,0.88426 0.66146,1.1762 0.3638,0.23838 0.66145,0.67255 0.66145,0.96482 0,0.29228 0.24954,1.2718 0.55452,2.17672 0.83924,2.49011 0.64391,4.777956 -0.62636,7.336186 -0.54257,1.09269 -0.98649,2.3488 -0.98649,2.79135 0,0.89565 -0.40766,1.43964 -1.07885,1.43964 -0.24412,0 -0.60002,0.18817 -0.79089,0.41815 -0.20196,0.24334 -0.60192,0.36942 -0.95676,0.30159 -0.33685,-0.0644 -0.7509,0.0536 -0.92517,0.26353 -0.21356,0.25733 -0.58872,0.32882 -1.1616,0.22134 -0.63912,-0.1199 -0.8868,-0.0529 -1.01221,0.27395 -0.16971,0.44225 -0.99981,0.43107 -2.14432,-0.0289 -0.29104,-0.11696 0.2562,0.61034 1.21608,1.61623 3.46591,3.63202 5.43937,9.64709 6.85009,20.8789 0.27416,2.18281 0.67746,5.21891 0.89621,6.74688 0.21876,1.52797 0.48215,3.79016 0.58532,5.02708 0.10317,1.23693 0.21366,2.54662 0.24555,2.91042 0.46643,5.32271 0.4669,5.44005 0.0252,6.29419 l -0.43933,0.84956 H 50.854593 3.6793634 Z m 53.9889196,-40.87252 0.66146,-0.52655 -0.79375,-0.59033 c -0.43656,-0.32469 -1.10119,-0.92318 -1.47694,-1.32999 -0.59313,-0.64214 -0.77624,-0.70427 -1.38906,-0.47127 -0.38824,0.1476 -0.70588,0.35687 -0.70588,0.46503 0,0.22714 2.68923,2.99439 2.90138,2.98555 0.0777,-0.003 0.43899,-0.24283 0.80279,-0.53244 z m -14.74298,-1.25454 1.51235,-1.52829 -1.53269,-1.11613 c -0.84298,-0.61388 -1.82492,-1.58982 -2.18208,-2.16877 -0.67542,-1.09481 -1.1526,-1.33175 -1.39738,-0.69387 -0.0881,0.2295 0.24266,0.64035 0.85963,1.06791 1.00482,0.69635 1.61092,1.63069 1.60495,2.47415 -0.002,0.24782 -0.30123,0.97196 -0.66551,1.6092 -0.50971,0.89164 -0.59296,1.24222 -0.36129,1.52136 0.16557,0.1995 0.37948,0.36273 0.47536,0.36273 0.0959,0 0.85488,-0.68773 1.68666,-1.52829 z m -4.86145,-6.5375 c 1.39454,-2.47099 0.9304,-3.5098 -0.81333,-1.82032 -1.63045,1.57972 -1.73454,1.9052 -0.84267,2.63474 0.41536,0.33976 0.77361,0.62203 0.7961,0.62726 0.0225,0.005 0.40944,-0.64352 0.8599,-1.44168 z m 24.99584,-1.15867 c 0.42214,-0.46646 0.41052,-0.51666 -0.21427,-0.92604 -0.67368,-0.44141 -1.59535,-0.59351 -1.42039,-0.23441 0.921,1.89028 0.95338,1.91327 1.63466,1.16045 z m -24.44142,-4.681786 c 0,-0.65647 -0.36311,-0.864 -0.66292,-0.37889 -0.23117,0.37404 0.11895,1.360916 0.41739,1.176476 0.13504,-0.0835 0.24553,-0.442376 0.24553,-0.797586 z m -1.95924,-1.4781 c 0.50053,-0.56372 0.5,-0.56555 -0.0766,-0.26316 -0.64313,0.33732 -1.03913,0.83083 -0.66667,0.83083 0.13156,0 0.46601,-0.25545 0.74322,-0.56767 z m 2.73226,-2.1169 c -0.26906,-0.50275 -0.29352,-0.49865 -0.78992,0.13242 -0.69221,0.88 -0.64834,0.98456 0.27766,0.66176 0.67889,-0.23667 0.75089,-0.34829 0.51226,-0.79418 z m 1.59892,-2.06054 c 0.15064,-0.28147 0.2739,-0.76191 0.2739,-1.06764 0,-0.4673895 -0.0814,-0.5123195 -0.51125,-0.28226 -0.56423,0.30197 -0.9383,1.17815 -0.68084,1.59472 0.25562,0.41362 0.61744,0.31714 0.91819,-0.24482 z m -0.62542,-2.9278095 c 0.14796,0 0.47684,-0.15197 0.73085,-0.33771 0.56564,-0.4136 0.32004,-1.24979 -0.36707,-1.24979 -0.73203,0 -2.71454,0.92574 -3.23883,1.51238 -0.44794,0.50121 -0.4438,0.55221 0.10089,1.24468 l 0.56797,0.7220495 0.9686,-0.9457995 c 0.53272,-0.5202 1.08964,-0.94581 1.23759,-0.94581 z m 19.606,0.47727 c 0.93764,-0.9088 1.06354,-1.31378 0.54176,-1.74265 -0.79364,-0.65232 -1.29079,-0.47252 -1.66986,0.60392 -0.75028,2.13057 -0.33143,2.5533595 1.1281,1.13873 z M 7.0264334,7.0976895 c 0,-0.31217 -0.51603,-0.64611 -0.70555,-0.45658 -0.18953,0.18952 0.14442,0.70555 0.45659,0.70555 0.13693,0 0.24896,-0.11203 0.24896,-0.24897 z m 37.0327296,-0.26906 c 0.31055,-0.19641 0.24116,-0.30113 -0.34796,-0.52511 -0.93785,-0.35657 -0.966,-0.3538 -0.966,0.0951 0,0.32298 0.33394,0.60005 0.79375,0.65857 0.0728,0.009 0.30685,-0.0936 0.52021,-0.22851 z m -22.74522,-0.83728 c 0,-0.31898 -0.72454,-0.29363 -0.92604,0.0324 -0.28598,0.46272 0.1381,0.85373 0.55272,0.50962 0.20533,-0.1704 0.37332,-0.41431 0.37332,-0.54201 z m 35.1896,0.56156 c 0,-0.14552 -0.12609,-0.26458 -0.2802,-0.26458 -0.15411,0 -0.20661,0.11906 -0.11667,0.26458 0.0899,0.14552 0.21603,0.26458 0.2802,0.26458 0.0642,0 0.11667,-0.11906 0.11667,-0.26458 z m -9.26042,-1.20802 c 0,-1.00355 -1.77109,-1.84084 -3.29081,-1.55574 -1.2492,0.23435 -1.18999,0.51981 0.18196,0.8772 0.61846,0.16111 1.30307,0.41155 1.52135,0.55653 0.42426,0.28178 1.5875,0.37119 1.5875,0.12201 z m 7.88306,-0.26529 c 0.82007,-0.5744 0.49988,-0.90794 -0.8716,-0.90794 -1.41778,0 -1.71883,0.36959 -0.73545,0.90288 0.92507,0.50168 0.89814,0.5016 1.60705,0.005 z m -39.63307,-1.04023 c 0,-0.21828 -0.11907,-0.39688 -0.26459,-0.39688 -0.14552,0 -0.26458,0.1786 -0.26458,0.39688 0,0.21828 0.11906,0.39687 0.26458,0.39687 0.14552,0 0.26459,-0.17859 0.26459,-0.39687 z"
         id="path25353" />
    </g>
    <path
       style="fill:#000000;stroke-width:0.352778"
       id="path21278"
       d="" />
    <path
       style="fill:#000000;stroke-width:0.352778"
       id="path21054"
       d="" />
  </g>
</svg>
