<?xml version="1.0" encoding="UTF-8" standalone="no"?>
<!-- Created with Inkscape (http://www.inkscape.org/) -->

<svg
   width="340"
   height="528"
   viewBox="0 0 89.958346 139.7"
   version="1.1"
   id="svg5"
   inkscape:version="1.1.1 (1:1.1+202109281943+c3084ef5ed)"
   sodipodi:docname="IntelligenceCo.svg"
   xmlns:inkscape="http://www.inkscape.org/namespaces/inkscape"
   xmlns:sodipodi="http://sodipodi.sourceforge.net/DTD/sodipodi-0.dtd"
   xmlns="http://www.w3.org/2000/svg"
   xmlns:svg="http://www.w3.org/2000/svg">
  <sodipodi:namedview
     id="namedview7"
     pagecolor="#505050"
     bordercolor="#eeeeee"
     borderopacity="1"
     inkscape:pageshadow="0"
     inkscape:pageopacity="0"
     inkscape:pagecheckerboard="0"
     inkscape:document-units="mm"
     showgrid="false"
     units="px"
     inkscape:zoom="1.2810466"
     inkscape:cx="177.19887"
     inkscape:cy="222.86465"
     inkscape:window-width="1920"
     inkscape:window-height="1176"
     inkscape:window-x="1920"
     inkscape:window-y="0"
     inkscape:window-maximized="1"
     inkscape:current-layer="layer1" />
  <defs
     id="defs2" />
  <g
     inkscape:label="Calque 1"
     inkscape:groupmode="layer"
     id="layer1">
    <path
       style="fill:#000000;stroke-width:0.352778"
       d="m 41.479303,135.61909 c -1.351933,-4.15378 -2.532189,-5.692 -5.087066,-6.62994 -2.300245,-0.84446 -3.307504,-0.67619 -5.091102,0.85051 -1.409668,1.20662 -3.904732,5.44489 -3.904732,6.63282 0,0.30279 -0.308447,0.53797 -0.705555,0.53797 -0.628813,0 -0.707069,-0.23982 -0.719462,-2.20486 -0.01369,-2.17023 -0.962435,-7.35038 -1.665207,-9.09201 -0.834136,-2.06717 -3.60487,-3.86454 -5.966735,-3.8706 -1.886373,-0.005 -3.702929,2.77048 -4.905481,7.49456 -0.349977,1.37483 -0.795912,2.38125 -1.055116,2.38125 -0.346265,0 -0.43893,-1.27083 -0.405137,-5.55625 0.03883,-4.92389 -0.03916,-5.7375 -0.685214,-7.14875 -0.895315,-1.95574 -1.6124071,-2.58204 -2.9563381,-2.58204 -2.0635421,0 -3.9982501,2.8718 -4.7162231,7.00056 -0.2605333,1.49822 -0.3954963,3.02309 -0.2999143,3.38859 0.1182933,0.45236 -0.01185,0.66455 -0.407599,0.66455 -0.932477,0 -1.018844,-0.84585 -0.434845,-4.25873 0.568452,-3.32202 1.5367423,-5.45596 3.1663223,-6.978 l 0.888414,-0.82978 -0.677136,-1.11049 c -1.326642,-2.17567 -0.648599,-4.97094 1.4717611,-6.06742 1.310686,-0.67778 4.1876061,-0.65587 5.1803201,0.0395 1.014155,0.71034 1.840367,2.32057 1.840367,3.58674 0,1.43534 -0.877369,2.48292 -2.482208,2.96374 -1.542683,0.4622 -1.678185,0.69419 -0.820981,1.40561 0.985298,0.81772 1.850778,3.3567 2.106616,6.17997 l 0.245128,2.70507 0.63863,-1.24482 c 0.721314,-1.40598 2.563372,-3.09411 3.376235,-3.09411 0.383385,0 0.460393,-0.17893 0.265705,-0.61737 -1.097195,-2.47089 -0.09097,-5.35282 2.203683,-6.31159 2.722909,-1.13771 5.027451,0.31926 5.319949,3.36335 0.146964,1.52947 0.05403,1.86311 -0.740198,2.65734 -0.647199,0.6472 -1.281924,0.90827 -2.208251,0.90827 h -1.299987 l 1.372144,0.91481 c 2.63302,1.75545 3.113179,2.67779 4.178014,8.02553 l 0.761644,3.82508 0.662813,-1.46986 c 0.614443,-1.3626 3.741187,-4.59279 4.445702,-4.59279 0.170191,0 -0.0052,-0.51593 -0.389615,-1.14652 -1.732851,-2.84209 0.0073,-6.0455 3.541505,-6.51954 2.764571,-0.37081 4.940744,1.5569 4.91781,4.35631 -0.01619,1.97592 -1.274064,3.27505 -3.228785,3.33467 -0.64637,0.0197 -0.515976,0.15888 0.624498,0.66652 1.978868,0.88081 3.390632,2.72606 4.399675,5.75062 0.640151,1.91881 0.883042,2.33449 0.976899,1.67183 0.547821,-3.86789 2.067168,-6.85767 4.019123,-7.90887 l 1.228601,-0.66164 -1.093978,-0.97748 c -0.989785,-0.88437 -1.093981,-1.17604 -1.093981,-3.06234 0,-1.73435 0.164232,-2.30019 0.976863,-3.3656 2.568176,-3.36705 6.960637,-1.14545 6.960637,3.52053 0,1.55213 -0.16033,2.06447 -0.867297,2.77143 l -0.867294,0.8673 1.211785,0.50632 c 1.608028,0.67187 2.336447,1.41169 3.611912,3.66842 l 1.065061,1.88445 0.239761,-2.94279 c 0.317186,-3.89313 1.002045,-5.91494 2.493152,-7.36018 1.393878,-1.35099 1.520394,-1.75621 0.548322,-1.75621 -0.373172,0 -1.166922,-0.41099 -1.763889,-0.91331 -0.97706,-0.82214 -1.085271,-1.11265 -1.084082,-2.91041 0.0014,-2.3368 0.831088,-3.9728 2.435006,-4.80221 2.076873,-1.074 3.924314,-0.39298 4.832883,1.78153 0.649605,1.55472 0.626046,4.19504 -0.04658,5.22161 -0.529833,0.80863 -0.515034,0.82498 0.921255,1.01762 0.802855,0.10769 2.213205,0.66418 3.134115,1.23665 l 1.67438,1.04085 0.21335,-3.24787 c 0.22513,-3.42741 1.52709,-7.85193 2.70252,-9.18419 0.78267,-0.88708 0.55051,-1.5875 -0.5262,-1.5875 -1.40074,0 -2.28927,-1.54263 -2.28927,-3.97455 0,-2.02746 0.0641,-2.17965 1.54109,-3.65659 1.82967,-1.829672 3.44851,-2.072432 4.98345,-0.74733 1.20623,1.04133 1.58804,4.03219 0.76593,5.99978 l -0.55169,1.32036 h 1.18748 c 1.54578,0 3.92923,1.07794 5.47271,2.4751 1.49243,1.35094 3.17802,3.82554 3.18008,4.66865 0.003,1.102 -1.02434,0.65292 -1.74718,-0.76396 -1.40765,-2.75922 -4.97966,-5.32146 -7.41865,-5.32146 -1.71326,0 -4.0342,2.53177 -5.09135,5.55384 -1.58424,4.52884 -1.5837,7.52207 0.002,13.05519 0.44287,1.54499 -0.86779,0.8597 -1.77327,-0.92717 -1.14271,-2.25503 -2.64964,-3.72358 -4.575689,-4.45915 -1.948571,-0.74416 -3.530829,-0.31971 -5.525336,1.4822 -1.911318,1.72677 -2.52167,3.82937 -2.552986,8.79484 -0.02248,3.54366 -0.09649,4.01692 -0.628286,4.01692 -0.376047,0 -1.000732,-0.76308 -1.660564,-2.02847 -1.874302,-3.59441 -2.300295,-4.20792 -3.48585,-5.02028 -1.754573,-1.20225 -3.955631,-1.33045 -5.729133,-0.33368 -2.233119,1.25508 -3.467333,3.8767 -4.111618,8.73355 -0.189498,1.42851 -0.379056,1.82388 -0.874444,1.82388 -0.489194,0 -0.891181,-0.7948 -1.774261,-3.50803 z m -3.017975,-9.92313 c 1.076759,-0.84698 1.171582,-1.74881 0.333124,-3.16821 -1.111253,-1.8812 -3.000837,-2.12008 -5.097018,-0.64437 -1.214705,0.85516 -1.523379,2.15031 -0.831402,3.48845 0.511479,0.98909 0.674945,1.05529 2.605744,1.05529 1.549905,0 2.290212,-0.18106 2.989552,-0.73116 z m 12.933663,0.15038 c 1.932555,-1.28678 2.289778,-2.94624 1.066193,-4.95296 -1.294017,-2.12223 -3.10617,-2.25385 -4.374748,-0.31776 -1.350225,2.06071 -0.968495,4.02714 1.005801,5.18126 1.337165,0.78167 1.267238,0.77895 2.302754,0.0895 z m -27.661966,-7.00007 c 0.893565,-1.22202 0.330231,-3.05407 -1.179082,-3.83456 -0.845369,-0.43716 -1.160431,-0.44237 -2.128803,-0.0352 -1.55775,0.65499 -2.466506,2.54951 -1.890254,3.94071 0.409403,0.98838 0.457687,1.00349 2.563513,0.80215 1.533652,-0.14663 2.285644,-0.39584 2.634626,-0.8731 z m 40.739897,0.13521 c 1.151244,-1.23241 1.302815,-2.49181 0.524182,-4.35535 -0.696229,-1.66631 -1.672248,-2.12951 -3.01932,-1.43291 -1.793695,0.92755 -2.653372,3.47511 -1.745269,5.17191 0.337294,0.63025 2.107879,1.66085 2.91749,1.69818 0.164687,0.008 0.76,-0.47923 1.322917,-1.08183 z M 9.3165419,114.89505 c -0.339549,-0.0887 -0.617361,-0.38667 -0.617361,-0.66209 0,-0.3533 0.392257,-0.48539 1.3320321,-0.44857 2.56703,0.10059 3.739332,-1.2706 2.739436,-3.20418 -1.194848,-2.31059 -4.1461021,-2.436 -5.9157062,-0.25138 -0.759418,0.93751 -0.779226,1.72438 -0.07757,3.08123 0.5378521,1.0401 1.5817221,1.70156 2.6273621,1.66489 0.360994,-0.0127 0.332966,-0.0698 -0.08819,-0.1799 z m 67.7365331,-7.9589 c 1.72884,-1.84556 1.85799,-5.07172 0.24533,-6.12838 -1.07556,-0.70474 -1.9703,-0.3995 -3.31361,1.13045 -1.81314,2.06505 -1.27393,5.20164 0.95227,5.53937 0.53145,0.0806 1.05767,0.17038 1.16937,0.19945 0.1117,0.0291 0.53769,-0.30433 0.94664,-0.74089 z m -35.538649,11.99444 c 0.0038,-0.24253 1.328931,-1.27058 2.944735,-2.28454 3.907846,-2.45229 5.893283,-5.34222 5.115221,-7.44552 l -0.301826,-0.81592 -1.133486,0.80711 c -1.669528,1.18881 -5.044941,1.35347 -6.366972,0.31059 -0.750069,-0.59169 -0.970139,-1.06563 -0.970139,-2.0893 0,-1.95386 1.207883,-2.95035 3.797194,-3.13265 1.732182,-0.12195 2.215635,-0.0114 3.356709,0.76785 l 1.333073,0.91032 0.342622,-0.90117 c 0.721141,-1.89674 0.04103,-5.721142 -1.445017,-8.125613 l -0.797874,-1.290987 -0.70867,0.972845 c -0.837343,1.149488 -2.564007,1.944073 -4.224529,1.944073 -2.476122,0 -3.241611,-2.722438 -1.239244,-4.407322 1.007406,-0.847676 1.351565,-0.930505 3.428343,-0.825109 l 2.308522,0.117158 0.30608,-1.547312 c 0.168342,-0.851023 0.208891,-2.065376 0.0901,-2.698563 -0.174318,-0.929185 -0.350269,-1.116129 -0.912198,-0.969179 -0.841608,0.220084 -0.92492,-0.473908 -0.158553,-1.320733 0.314032,-0.346999 0.438581,-0.85235 0.299438,-1.214945 -0.195643,-0.509849 -0.512477,-0.583237 -1.772394,-0.410546 -1.364806,0.187068 -1.53416,0.133139 -1.53416,-0.488526 0,-0.541267 0.23859,-0.698807 1.058333,-0.698807 1.165952,0 1.329281,-0.494051 0.517948,-1.566732 -0.284871,-0.376633 -0.517948,-0.971945 -0.517948,-1.322917 0,-1.082844 0.88985,-0.706737 1.688059,0.713479 0.667558,1.187757 0.889258,1.332583 1.82885,1.194682 0.813484,-0.119394 1.069202,-0.02078 1.069202,0.412281 0,0.313066 -0.228755,0.569207 -0.508346,0.569207 -0.665801,0 -0.957745,0.504571 -0.692255,1.196425 0.160143,0.417329 0.372914,0.468852 0.859895,0.208227 1.518691,-0.812779 2.009465,0.230903 0.55631,1.183047 -0.777879,0.509683 -0.829014,0.723208 -0.664475,2.774601 0.09804,1.222332 0.01115,2.827443 -0.193124,3.566914 -0.338875,1.226817 -0.279806,1.474414 0.674885,2.828844 1.799583,2.553086 2.648458,7.545608 1.700801,10.002998 -0.281135,0.72902 -0.269398,1.47208 0.04414,2.79433 0.788903,3.32692 -1.010616,6.31842 -5.448155,9.05695 -2.739143,1.6904 -3.743569,2.02003 -3.731101,1.22446 z m 5.972707,-10.83538 c 1.249275,-0.88956 1.078238,-1.39226 -0.805056,-2.36615 -2.721885,-1.40754 -6.361832,1.20124 -4.028034,2.88693 1.054145,0.76139 3.385185,0.51022 4.83309,-0.52078 z M 44.092572,97.018312 c 0.633204,-0.264569 1.414621,-0.882947 1.736485,-1.374168 0.562155,-0.857959 0.554573,-0.901344 -0.192476,-1.101648 -1.451208,-0.389103 -2.620066,-0.220299 -3.552324,0.513013 -1.015651,0.798911 -1.158318,1.368376 -0.506187,2.020507 0.546601,0.546601 1.098511,0.533932 2.514502,-0.0577 z m 0.589943,-20.691337 c 0,-0.197167 -0.555625,-0.623443 -1.234722,-0.947282 -1.371414,-0.653983 -1.640188,-1.692995 -0.529167,-2.045621 0.898747,-0.285253 0.918266,-0.881944 0.02886,-0.881944 -1.909329,0 -2.491327,-1.289033 -0.740135,-1.63927 1.63673,-0.32735 0.879733,-0.830175 -1.249821,-0.830175 -1.68427,0 -1.919457,-0.08645 -1.919457,-0.705555 0,-0.494485 0.237455,-0.707591 0.79375,-0.712361 0.436563,-0.0037 1.5875,-0.239698 2.557639,-0.524348 l 1.763889,-0.517542 -2.715824,0.117418 -2.715821,0.117419 0.04627,-5.678487 C 38.832506,54.16041 37.848221,50.69924 33.541496,43.70074 33.063895,42.924629 32.573844,42.051504 32.452496,41.760462 32.331147,41.46942 31.885469,40.83442 31.4621,40.349351 30.71365,39.491822 27.318133,33.951045 25.029649,29.852932 21.776872,24.028 21.675286,17.528577 24.754669,12.260184 26.930017,8.53847 31.758441,4.9164814 37.274181,2.868815 42.957844,0.75880818 52.945392,0.08037278 60.028348,1.3231668 c 6.038963,1.0596125 9.595287,3.1711818 13.232687,7.8569272 2.18338,2.812653 2.80201,4.475678 2.81096,7.55655 0.008,2.650779 -0.53642,6.532661 -1.0104,7.208541 -0.13606,0.194028 -0.54721,1.225903 -0.91367,2.293055 -1.33157,3.877698 -3.31087,6.21236 -10.019205,11.818056 -5.959369,4.979835 -8.953881,7.793894 -9.760398,9.172221 -0.879355,1.502809 -2.293349,5.76465 -3.001959,9.048034 -0.336427,1.558844 -0.338265,2.968307 -0.0084,6.47628 0.231867,2.46609 0.359022,4.546353 0.282568,4.622803 -0.07645,0.07645 -1.62917,0.394977 -3.450491,0.707838 -4.790165,0.822837 -5.172834,1.049317 -2.266975,1.341695 3.127245,0.314657 3.698381,0.486142 3.698381,1.110457 0,0.370028 -0.496055,0.514812 -1.852083,0.540557 -1.018646,0.01933 -2.248958,0.149405 -2.734028,0.289035 -0.692432,0.199319 -0.408164,0.309234 1.322917,0.511521 3.039029,0.355127 3.016687,1.624407 -0.02886,1.639125 -0.614719,0.0028 -1.355799,0.157247 -1.646841,0.342833 -0.449206,0.286441 -0.409226,0.421919 0.264583,0.896546 0.894486,0.630075 1.072702,1.93022 0.264584,1.93022 -0.291042,0 -0.529167,-0.161318 -0.529167,-0.358486 z m -2.065133,-10.55111 c 0.960392,-0.188824 1.205473,-0.317927 0.654022,-0.344523 -0.48507,-0.02339 -1.477257,-0.140935 -2.204862,-0.2612 -1.193814,-0.197323 -1.322916,-0.142984 -1.322916,0.556824 0,0.600777 0.150692,0.727657 0.668895,0.563185 0.367894,-0.116762 1.360082,-0.348191 2.204861,-0.514286 z m 8.062355,0.347084 c 0,-0.632125 -0.581984,-0.684647 -2.315542,-0.208965 l -1.741402,0.477834 2.028472,0.03154 c 1.11566,0.01736 2.028472,-0.117835 2.028472,-0.300412 z M 42.238502,53.402128 C 41.815109,45.615744 41.122609,40.484715 40.060265,37.262546 l -0.726941,-2.204861 h -1.574775 c -1.210487,0 -1.779323,-0.204552 -2.459038,-0.884266 -0.756842,-0.756843 -0.868909,-1.150814 -0.777713,-2.734028 0.09278,-1.610667 0.209071,-1.864324 0.89969,-1.962411 1.019584,-0.144815 2.652984,1.02296 3.620484,2.588405 0.417558,0.675626 0.986709,1.228411 1.264772,1.228411 0.278066,0 1.062203,-0.515938 1.742525,-1.146528 L 43.286213,31.00074 42.52457,29.477548 c -0.666944,-1.333803 -0.710675,-1.693319 -0.351692,-2.89149 0.686255,-2.290519 3.171698,-3.615718 4.279004,-2.281495 0.569998,0.686806 0.266072,3.913039 -0.51,5.413798 -0.629793,1.217884 -0.750633,1.13301 2.309248,1.621931 1.743516,0.278589 2.259108,0.01076 3.26227,-1.694568 0.474695,-0.806961 1.259463,-1.837407 1.743926,-2.289873 1.04606,-0.976979 3.514718,-1.417867 4.298202,-0.767634 1.411682,1.171589 -0.02339,3.010179 -3.778698,4.841194 l -2.289729,1.116429 -1.107056,3.108004 c -3.100652,8.704922 -4.397477,17.799113 -3.705486,25.985335 l 0.228152,2.69906 h 1.641419 1.641415 l -0.0025,-4.674305 c -0.0025,-4.313082 0.08554,-4.945712 1.137995,-8.186371 0.627334,-1.931638 1.521135,-4.161391 1.986227,-4.95501 0.826399,-1.410145 4.169886,-4.559307 10.112311,-9.524591 6.562877,-5.483708 8.339387,-7.590003 9.670127,-11.465277 0.36645,-1.067153 0.78329,-2.104471 0.92631,-2.305152 0.38673,-0.542678 1.0009,-4.67214 0.99508,-6.690681 -0.007,-2.270885 -0.93354,-4.282677 -3.3535,-7.277807 C 69.336035,6.385829 68.11349,5.4141827 65.101328,4.0484043 60.054874,1.7602331 50.420273,1.1112116 43.271404,2.5778626 38.822837,3.490524 37.319915,4.026482 33.393626,6.1003919 28.479396,8.696143 25.48753,12.2333 24.161593,17.015048 c -1.467224,5.291265 -0.707714,7.852545 5.323749,17.953162 1.245933,2.086504 2.611723,4.190516 3.035092,4.675585 0.423368,0.48507 0.869047,1.12007 0.990395,1.411112 0.121349,0.291041 0.611399,1.164166 1.089,1.940277 2.05231,3.335041 4.017734,7.587368 4.586482,9.92318 0.379666,1.55926 0.635399,4.133081 0.673022,6.773612 l 0.06068,4.258765 1.234722,0.105555 1.234722,0.105554 0.111556,-1.940278 C 42.562363,61.15442 42.444233,57.18567 42.2385,53.402128 Z m 3.325957,4.145203 c 0,-3.941033 0.19806,-8.049468 0.471946,-9.789647 0.562187,-3.571998 2.255146,-10.221139 3.236073,-12.709771 0.385936,-0.979132 0.701704,-1.900788 0.701704,-2.048126 0,-0.147337 -1.293294,-0.456388 -2.873989,-0.686777 L 44.2262,31.894122 42.865843,33.123125 c -0.748199,0.675954 -1.59803,1.229004 -1.888511,1.229004 -0.652261,0 -0.662376,-0.14781 0.15185,2.218782 1.335345,3.881239 2.446545,14.772099 2.482172,24.327745 l 0.01283,3.439583 0.970139,6.4e-5 0.970139,6e-5 z M 38.087877,32.907356 c -0.35052,-0.600597 -1.073869,-1.405156 -1.607446,-1.78791 l -0.970139,-0.695917 v 1.014931 c 0,1.549604 0.927344,2.460925 2.577585,2.533039 0.614553,0.02685 0.614553,-0.01115 0,-1.064143 z m 16.819895,-3.524373 c 1.969385,-1.211778 2.436043,-2.330267 0.801021,-1.919902 -1.153605,0.289536 -1.64996,0.672673 -2.6001,2.007024 -0.92003,1.292059 -0.401577,1.266955 1.799079,-0.08712 z M 45.570344,26.90897 c 0.329924,-1.952819 -0.208386,-2.440577 -1.389737,-1.259226 -0.974513,0.974513 -1.163475,2.276436 -0.50813,3.500956 l 0.401069,0.749409 0.626424,-0.773596 c 0.34453,-0.425478 0.736198,-1.423374 0.870374,-2.217543 z"
       id="path1262" />
  </g>
</svg>
