<?xml version="1.0" encoding="UTF-8" standalone="no"?>
<!-- Created with Inkscape (http://www.inkscape.org/) -->

<svg
   width="104mm"
   height="177mm"
   viewBox="0 0 104 177"
   version="1.1"
   id="svg1207"
   inkscape:version="1.1.1 (1:1.1+202109281943+c3084ef5ed)"
   sodipodi:docname="intelligneceCo.svg"
   xmlns:inkscape="http://www.inkscape.org/namespaces/inkscape"
   xmlns:sodipodi="http://sodipodi.sourceforge.net/DTD/sodipodi-0.dtd"
   xmlns="http://www.w3.org/2000/svg"
   xmlns:svg="http://www.w3.org/2000/svg">
  <sodipodi:namedview
     id="namedview1209"
     pagecolor="#505050"
     bordercolor="#eeeeee"
     borderopacity="1"
     inkscape:pageshadow="0"
     inkscape:pageopacity="0"
     inkscape:pagecheckerboard="0"
     inkscape:document-units="mm"
     showgrid="false"
     inkscape:zoom="0.45291836"
     inkscape:cx="659.43795"
     inkscape:cy="173.81615"
     inkscape:window-width="1854"
     inkscape:window-height="978"
     inkscape:window-x="66"
     inkscape:window-y="149"
     inkscape:window-maximized="1"
     inkscape:current-layer="g17653"
     inkscape:rotation="-1" />
  <defs
     id="defs1204">
    <clipPath
       clipPathUnits="userSpaceOnUse"
       id="clipPath2213">
      <rect
         style="fill:#f2ebd1;stroke-width:0.615"
         id="rect2215"
         width="24.318808"
         height="30.817976"
         x="144.61546"
         y="64.461304" />
    </clipPath>
    <clipPath
       clipPathUnits="userSpaceOnUse"
       id="clipPath2343">
      <rect
         style="fill:#f2ebd1;stroke-width:0.615"
         id="rect2345"
         width="32.948563"
         height="15.089166"
         x="152.16833"
         y="67.083572" />
    </clipPath>
    <clipPath
       clipPathUnits="userSpaceOnUse"
       id="clipPath2562">
      <rect
         style="fill:#f2ebd1;stroke-width:0.615"
         id="rect2564"
         width="12.30898"
         height="10.537334"
         x="171.80769"
         y="107.30463" />
    </clipPath>
    <clipPath
       clipPathUnits="userSpaceOnUse"
       id="clipPath3867">
      <path
         style="fill:#d50066;fill-opacity:1;stroke-width:2.32441"
         id="path3869"
         sodipodi:type="arc"
         sodipodi:cx="224.95546"
         sodipodi:cy="103.61597"
         sodipodi:rx="5.8467083"
         sodipodi:ry="8.5101271"
         sodipodi:start="0"
         sodipodi:end="6.2065304"
         sodipodi:open="true"
         sodipodi:arc-type="chord"
         d="m 230.80217,103.61597 a 5.8467083,8.5101271 0 0 1 -5.73467,8.50856 5.8467083,8.5101271 0 0 1 -5.95445,-8.18247 5.8467083,8.5101271 0 0 1 5.50646,-8.82216 5.8467083,8.5101271 0 0 1 6.16549,7.84436 z" />
    </clipPath>
    <clipPath
       clipPathUnits="userSpaceOnUse"
       id="clipPath8142">
      <rect
         style="fill:#d50066;fill-opacity:1;stroke-width:0.615"
         id="rect8144"
         width="45.554428"
         height="19.226135"
         x="199.42773"
         y="90.871712" />
    </clipPath>
  </defs>
  <g
     inkscape:label="Calque 1"
     inkscape:groupmode="layer"
     id="layer1">
    <g
       id="g17653"
       transform="translate(36.74289,0.59487484)">
      <g
         id="g17663"
         transform="matrix(2.5937425,0,0,2.5937425,-454.57046,-105.66826)">
        <path
           style="fill:#d50066;fill-opacity:1;stroke-width:0.264583"
           d="m 224.75289,111.70804 c -0.0874,-0.14145 0.21722,-0.46444 0.67698,-0.71774 1.74063,-0.959 3.01819,-2.56375 2.7179,-3.41398 -0.0795,-0.22504 -0.30011,-0.20772 -0.82191,0.0645 -1.39601,0.72831 -2.96222,0.30028 -2.96222,-0.80955 0,-1.24152 1.9076,-1.89551 3.09764,-1.06197 0.52192,0.36556 0.58335,0.35546 0.73449,-0.12073 0.215,-0.67741 -0.0876,-2.36801 -0.55822,-3.11879 l -0.37087,-0.59163 -0.54055,0.54056 c -0.39124,0.39123 -0.81046,0.51812 -1.51767,0.45933 -0.83906,-0.0697 -0.98872,-0.18168 -1.05924,-0.79225 -0.10481,-0.90755 0.92314,-1.6493 2.05538,-1.48312 0.69239,0.10162 0.80392,0.0226 0.95785,-0.678165 0.13029,-0.59321 0.0564,-0.87935 -0.29323,-1.13497 -0.3601,-0.26331 -0.39819,-0.42524 -0.16589,-0.70514 0.37693,-0.45418 0.13677,-0.71153 -0.664,-0.71153 -0.33955,0 -0.61736,-0.11907 -0.61736,-0.26459 0,-0.14552 0.17562,-0.26458 0.39026,-0.26458 0.29251,0 0.3505,-0.19881 0.23151,-0.79375 -0.17902,-0.89511 0.29827,-1.11711 0.56886,-0.26458 0.0924,0.29104 0.39805,0.52916 0.67928,0.52916 0.58331,0 0.65618,0.2785 0.19384,0.74084 -0.24694,0.24694 -0.18815,0.3175 0.26458,0.3175 0.61151,0 0.80253,0.41158 0.27295,0.58811 -0.56389,0.18796 -0.45425,3.134525 0.15532,4.173985 0.44207,0.75383 0.54837,1.41679 0.57271,3.57187 0.0316,2.80135 -0.17467,3.54828 -1.25365,4.53867 -0.94988,0.8719 -2.56319,1.69628 -2.74474,1.40253 z m 2.11184,-4.52805 c 0.80643,-0.36744 0.85008,-0.63838 0.16213,-1.00656 -0.68988,-0.36921 -1.1423,-0.34472 -1.74277,0.0944 -0.42788,0.31288 -0.45051,0.43223 -0.15047,0.79375 0.41923,0.50514 0.82196,0.5327 1.73111,0.11846 z m -0.5463,-5.21651 c 0.41145,-0.45464 0.41308,-0.51037 0.0194,-0.66145 -0.58747,-0.22544 -0.70975,-0.20405 -1.27304,0.2227 -0.26924,0.20397 -0.41104,0.49784 -0.31512,0.65304 0.27273,0.44129 1.07464,0.33176 1.5688,-0.21429 z"
           id="path1823-2"
           clip-path="url(#clipPath3867)"
           transform="translate(-44.646423,-12.018273)"
           sodipodi:nodetypes="sssssssscscssssssssssssssssssscssscccssscc" />
        <g
           id="g17506"
           transform="translate(34.832971,8.2588441)">
          <g
             id="g2569"
             style="fill:#d50066;fill-opacity:1"
             transform="translate(10.469921,-16.700531)">
            <path
               style="fill:#d50066;fill-opacity:1;stroke-width:0.264583"
               d="m 161.64403,89.025504 c 0,-0.120851 0.50602,-0.584962 1.12448,-1.031357 0.61847,-0.446391 1.39966,-1.052406 1.73598,-1.346697 1.27155,-1.112626 3.49747,-2.509374 3.68805,-2.314223 0.1091,0.111723 -0.0786,0.399425 -0.4172,0.639339 -0.33857,0.239916 -1.52919,1.160312 -2.64584,2.045327 -2.52513,2.00133 -3.48547,2.554481 -3.48547,2.007611 z m 33.20521,-4.55458 c -1.30969,-0.704702 -2.50031,-1.331219 -2.64583,-1.392261 -0.14552,-0.06104 -0.17154,-0.21041 -0.0578,-0.331931 0.22324,-0.23854 6.01093,2.506464 6.01093,2.850883 0,0.449794 -1.02871,0.09935 -3.30729,-1.126691 z M 162.2473,71.425718 c -3.01521,-1.517601 -3.72882,-2.014241 -2.91837,-2.031054 0.47916,-0.0099 6.81302,3.239876 6.81302,3.495668 0,0.409699 -0.67522,0.155778 -3.89465,-1.464614 z m 27.07223,-4.891674 c -0.19521,-0.315857 4.15492,-4.276269 4.69707,-4.276269 0.26646,0 0.20123,0.738845 -0.074,0.837847 -0.30615,0.110137 -1.86504,1.359054 -3.34537,2.68018 -0.61905,0.552467 -1.19402,0.893676 -1.27772,0.758242 z m -13.85738,-2.093457 c -0.87331,-2.053253 -1.3827,-3.738066 -1.3827,-4.573308 0,-1.200732 0.43696,-0.932439 0.61666,0.378628 0.15136,1.104223 0.56577,2.279165 1.39374,3.951539 0.20397,0.411975 0.37085,0.917991 0.37085,1.124479 0,0.762529 -0.47928,0.339501 -0.99855,-0.881338 z"
               id="path1823"
               clip-path="url(#clipPath2213)"
               transform="translate(-42.773857,-9.8054763)"
               sodipodi:nodetypes="sssssssssssssscssssssssssssss" />
            <path
               style="fill:#d50066;fill-opacity:1;stroke-width:0.264583"
               d="m 143.0566,103.92605 c 0,-0.12085 0.50602,-0.58496 1.12448,-1.03136 0.61847,-0.44639 1.39966,-1.0524 1.73598,-1.34669 1.27155,-1.11263 3.49747,-2.509379 3.68805,-2.314228 0.1091,0.111723 -0.0786,0.399425 -0.4172,0.639339 -0.33857,0.239919 -1.52919,1.160309 -2.64584,2.045329 -2.52513,2.00133 -3.48547,2.55448 -3.48547,2.00761 z m 33.20521,-4.554581 c -1.30969,-0.704702 -2.50031,-1.331219 -2.64583,-1.392261 -0.14552,-0.06104 -0.17154,-0.21041 -0.0578,-0.331931 0.22324,-0.23854 6.01093,2.506463 6.01093,2.850883 0,0.44979 -1.02871,0.0994 -3.30729,-1.126691 z M 143.65987,86.326263 c -3.01521,-1.517601 -3.72882,-2.014241 -2.91837,-2.031054 0.47916,-0.0099 6.81302,3.239876 6.81302,3.495668 0,0.409699 -0.67522,0.155778 -3.89465,-1.464614 z m 27.07223,-4.891674 c -0.19521,-0.315857 4.15492,-4.276269 4.69707,-4.276269 0.26646,0 0.20123,0.738845 -0.074,0.837847 -0.30615,0.110137 -1.86504,1.359054 -3.34537,2.68018 -0.61905,0.552467 -1.19402,0.893676 -1.27772,0.758242 z m -13.85738,-2.093457 c -0.87331,-2.053253 -1.3827,-3.738066 -1.3827,-4.573308 0,-1.200732 0.43696,-0.932439 0.61666,0.378628 0.15136,1.104223 0.56577,2.279165 1.39374,3.951539 0.20397,0.411975 0.37085,0.917991 0.37085,1.124479 0,0.762529 -0.47928,0.339501 -0.99855,-0.881338 z"
               id="path1823-2-9"
               clip-path="url(#clipPath2343)"
               transform="translate(-24.186427,-24.706021)"
               sodipodi:nodetypes="sssssssssssssscssssssssssssss" />
            <path
               style="fill:#d50066;fill-opacity:1;stroke-width:0.264583"
               d="m 142.23754,114.83644 c 0,-0.12085 0.50602,-0.58496 1.12448,-1.03135 0.61847,-0.4464 1.39966,-1.05241 1.73598,-1.3467 1.27155,-1.11263 3.49747,-2.50938 3.68805,-2.31422 0.1091,0.11172 -0.0786,0.39942 -0.4172,0.63933 -0.33857,0.23992 -1.52919,1.16032 -2.64584,2.04533 -2.52513,2.00133 -3.48547,2.55448 -3.48547,2.00761 z m 33.20521,-4.55458 c -1.30969,-0.7047 -2.50031,-1.33122 -2.64583,-1.39226 -0.14552,-0.061 -0.17154,-0.21041 -0.0578,-0.33193 0.22324,-0.23854 6.01093,2.50646 6.01093,2.85088 0,0.4498 -1.02871,0.0994 -3.30729,-1.12669 z M 142.84081,97.236657 c -3.01521,-1.517601 -3.72882,-2.014241 -2.91837,-2.031054 0.47916,-0.0099 6.81302,3.239876 6.81302,3.495668 0,0.409699 -0.67522,0.155778 -3.89465,-1.464614 z m 27.07223,-4.891674 c -0.19521,-0.315857 4.15492,-4.276269 4.69707,-4.276269 0.26646,0 0.20123,0.738845 -0.074,0.837847 -0.30615,0.110137 -1.86504,1.359054 -3.34537,2.68018 -0.61905,0.552467 -1.19402,0.893676 -1.27772,0.758242 z m -13.85738,-2.093457 c -0.87331,-2.053253 -1.3827,-3.738066 -1.3827,-4.573308 0,-1.200732 0.43696,-0.932439 0.61666,0.378628 0.15136,1.104223 0.56577,2.279165 1.39374,3.951539 0.20397,0.411975 0.37085,0.917991 0.37085,1.124479 0,0.762529 -0.47928,0.339501 -0.99855,-0.881338 z"
               id="path1823-2-3"
               clip-path="url(#clipPath2562)"
               transform="translate(-23.367357,-35.616412)"
               sodipodi:nodetypes="sssssssscssssscssssssssssssss" />
          </g>
        </g>
        <path
           style="fill:#000000;stroke-width:0.264583"
           d="m 219.5594,107.78757 c -0.0666,-0.10914 -0.25535,-0.69904 -0.41945,-1.31088 -0.40817,-1.52193 -1.42821,-2.66643 -2.56685,-2.88004 -0.78401,-0.14708 -1.04628,-0.0603 -1.69434,0.56057 -0.42171,0.40403 -0.97938,1.25175 -1.23927,1.88382 -0.25988,0.63208 -0.6037,1.14968 -0.76403,1.15023 -0.17405,5.3e-4 -0.35599,-0.83517 -0.45154,-2.07424 -0.22879,-2.96683 -1.12605,-4.27477 -2.93255,-4.27477 -0.82712,0 -1.33337,0.64581 -1.91703,2.44548 -0.27103,0.83569 -0.58208,1.5203 -0.69122,1.52135 -0.10914,0.001 -0.20019,-1.03988 -0.20234,-2.31318 -0.004,-2.37033 -0.28897,-3.355873 -1.12058,-3.875293 -0.95048,-0.59366 -2.19212,1.0492 -2.37894,3.147683 -0.11,1.23552 -0.56054,1.64368 -0.67939,0.61548 -0.11655,-1.00824 0.37292,-2.634793 1.12745,-3.746653 0.35872,-0.52861 0.53568,-1.02419 0.39645,-1.11025 -0.43853,-0.27102 -0.27931,-1.86911 0.23235,-2.33215 0.66781,-0.60436 2.48326,-0.57697 3.04701,0.046 0.7096,0.78409 0.55682,1.83284 -0.34708,2.38254 -0.72086,0.43838 -0.75025,0.51208 -0.35993,0.90239 0.23376,0.23377 0.48277,1.02595 0.55334,1.760403 l 0.12831,1.33537 0.79611,-0.85224 c 0.56803,-0.60807 0.8104,-1.146693 0.84596,-1.880013 0.0586,-1.20913 0.6465,-1.75106 1.89945,-1.75106 0.9468,0 1.68423,0.76082 1.68423,1.73766 0,0.59345 -0.75256,1.437343 -1.28178,1.437343 -0.17274,0 0.0493,0.32742 0.49351,0.72761 0.665,0.59915 0.87088,1.07793 1.16617,2.71198 0.19723,1.0914 0.37148,1.76411 0.38722,1.49489 0.0157,-0.26921 0.431,-0.89184 0.92278,-1.38363 0.80713,-0.80713 0.88143,-1.00703 0.76343,-2.05396 -0.11231,-0.99636 -0.0436,-1.22086 0.48763,-1.59294 0.88603,-0.620593 2.22062,-0.552763 2.87156,0.14594 0.70528,0.75703 0.69892,1.9251 -0.0132,2.42388 -0.55165,0.38639 -0.55124,0.38851 0.21663,1.13949 0.42312,0.4138 0.89249,1.16909 1.04305,1.67841 l 0.27375,0.92604 0.1984,-0.79375 c 0.36215,-1.44889 0.78367,-2.21881 1.39346,-2.54516 0.54221,-0.29017 0.563,-0.36711 0.20588,-0.76172 -0.51675,-0.57101 -0.50888,-2.10453 0.0146,-2.851953 0.58395,-0.83371 1.77909,-0.78112 2.47934,0.1091 0.57079,0.725643 0.74471,2.325283 0.28378,2.610153 -0.39674,0.2452 -0.31847,0.66146 0.12437,0.66146 0.21393,0 0.65323,0.35744 0.97622,0.79432 0.66643,0.90138 1.00533,0.6699 1.01203,-0.69126 0.002,-0.45263 0.28121,-1.23139 0.61997,-1.73057 l 0.61591,-0.90761 -0.61591,-0.464583 c -1.33781,-1.00911 -0.46265,-3.61489 1.21408,-3.61489 1.02806,0 1.4773,0.64499 1.4773,2.12102 0,1.19803 0.0421,1.26653 1.09556,1.781523 l 1.09556,0.53558 0.11222,-1.623753 c 0.0639,-0.92505 0.36022,-2.12736 0.68856,-2.79414 0.31697,-0.64372 0.54738,-1.1795 0.512,-1.19063 -0.81487,-0.25621 -1.13106,-0.73063 -1.20209,-1.80361 -0.0686,-1.03602 0.0177,-1.27638 0.631,-1.75883 1.46024,-1.14863 2.63285,-0.46738 2.60461,1.5132 -0.018,1.26133 0.0167,1.32745 0.77587,1.47928 1.28797,0.2576 3.91299,3.32786 2.84526,3.32786 -0.12878,0 -0.44635,-0.32742 -0.7057,-0.7276 -0.81956,-1.26457 -2.15978,-2.20076 -3.11227,-2.17401 -0.65868,0.0185 -1.56413,1.08887 -2.05337,2.42738 -0.53889,1.47433 -0.68989,4.300013 -0.24451,4.575273 0.33462,0.20681 0.34861,1.19063 0.0169,1.19063 -0.13621,0 -0.50642,-0.46041 -0.82269,-1.02313 -0.33246,-0.59154 -0.96484,-1.20901 -1.49912,-1.4638 -0.87071,-0.41521 -0.97223,-0.41299 -1.75701,0.0383 -1.17912,0.67807 -1.82241,2.14256 -1.8417,4.19272 -0.01,1.01157 -0.12945,1.69537 -0.29733,1.69521 -0.15475,-1.5e-4 -0.60631,-0.57881 -1.00345,-1.28593 -0.80229,-1.42847 -1.10999,-1.73669 -2.00941,-2.01273 -1.50289,-0.46125 -2.86232,0.96558 -3.13804,3.29365 -0.0987,0.83374 -0.28552,1.3282 -0.50171,1.3282 -0.18942,0 -0.3989,-0.0893 -0.4655,-0.19844 z m -1.49873,-5.75336 c 0.4456,-0.53692 -0.31719,-1.72112 -1.10865,-1.72112 -1.02976,0 -1.96516,1.33481 -1.3597,1.94028 0.33638,0.33638 2.14021,0.17622 2.46835,-0.21916 z m 5.68988,-0.0394 c 0.51054,-0.51054 0.3381,-1.63451 -0.32894,-2.144093 -0.63711,-0.48672 -1.5015,0.170933 -1.60646,1.222223 -0.0663,0.6644 0.0403,0.88163 0.52916,1.07769 0.8516,0.34154 0.91601,0.33441 1.40624,-0.15582 z m -12.4573,-2.371523 c 0.52443,-0.20125 0.54599,-1.25632 0.0343,-1.68095 -0.78494,-0.65144 -2.20833,0.45399 -1.83553,1.4255 0.16217,0.4226 1.04086,0.54722 1.80119,0.25545 z m 17.75597,-0.37658 c 0.56511,-0.62444 0.32421,-1.71976 -0.48684,-2.21354 -0.38999,-0.23743 -0.57537,-0.17528 -0.99219,0.33263 -0.6208,0.75649 -0.65409,1.44503 -0.0968,2.00231 0.55717,0.55716 0.99208,0.52366 1.57585,-0.1214 z m -23.68745,-1.84407 c 0,-0.14552 0.34445,-0.26459 0.76544,-0.26459 0.86921,0 1.11733,-0.39183 0.79582,-1.25677 -0.26676,-0.71762 -1.56035,-0.82301 -2.20382,-0.17954 -0.48756,0.48756 -0.51399,0.75841 -0.14188,1.45371 0.28882,0.53968 0.78444,0.69585 0.78444,0.24719 z m 29.25556,-3.74111 c 0.37413,-0.72349 0.37339,-0.85638 -0.008,-1.43843 -0.51435,-0.785 -0.61281,-0.7897 -1.38314,-0.066 -0.81753,0.76804 -0.82666,2.0066 -0.017,2.31259 0.73785,0.27886 0.8917,0.19057 1.40816,-0.80815 z"
           id="path1823-2-90"
           clip-path="url(#clipPath8142)"
           transform="translate(-38.101522,0.604975)"
           sodipodi:nodetypes="csssscssscssssssssssscssssssssssssssscsssssssscscssssccscssssssssssssscsssssccssssssssssssssssssssssssssssssss" />
        <path
           style="fill:#000000;stroke-width:0.264583"
           d="m 180.56425,81.518647 c -0.34835,-0.26783 -0.55476,-0.61415 -0.4587,-0.76958 0.0961,-0.15543 0.0455,-0.36241 -0.11228,-0.45994 -0.15781,-0.0975 -0.22302,-0.34389 -0.14491,-0.54745 0.098,-0.2555 -0.0602,-0.37012 -0.51113,-0.37012 -0.82743,0 -0.87483,-0.71425 -0.0578,-0.8716 0.56986,-0.10976 0.57125,-0.11621 0.0326,-0.1507 -0.53243,-0.0341 -0.56928,-0.20329 -0.68489,-3.144884 -0.10151,-2.582391 -0.23024,-3.332879 -0.76022,-4.43177 -0.35091,-0.727605 -0.78685,-1.480249 -0.96875,-1.672545 -0.1819,-0.192294 -0.33073,-0.480576 -0.33073,-0.640625 0,-0.160047 -0.17243,-0.481529 -0.38317,-0.714402 -0.81862,-0.904563 -3.87484,-6.267667 -4.14901,-7.280744 -0.42366,-1.565483 -0.15542,-4.403554 0.5194,-5.495447 1.20057,-1.942562 3.16837,-3.420372 5.69808,-4.27923 3.51368,-1.192924 9.58207,-1.050361 12.20533,0.286737 1.71016,0.871685 3.44028,2.770834 3.84673,4.222557 0.46637,1.66568 0.11398,4.260304 -0.83708,6.163559 -0.77269,1.546278 -1.41167,2.202781 -5.99141,6.155643 -2.11713,1.827345 -2.36478,2.198058 -3.01665,4.515646 -0.4228,1.503175 -0.50728,2.376099 -0.3937,4.068035 l 0.1446,2.15419 -1.4827,0.18525 c -1.51987,0.1899 -1.52607,0.65325 -0.009,0.6617 1.11245,0.006 0.8659,0.52929 -0.26459,0.56136 -0.99078,0.0281 -0.99115,0.0285 -0.26458,0.31566 0.95134,0.37592 0.92739,0.71453 -0.0505,0.71453 -0.42797,0 -0.85172,0.11906 -0.94166,0.26458 -0.0899,0.14553 -0.0374,0.26459 0.11668,0.26459 0.15411,0 0.2802,0.17859 0.2802,0.39687 0,0.51865 -0.25614,0.49332 -1.03024,-0.10187 z m 2.81618,-3.91697 c -0.25466,-0.0665 -0.67138,-0.0665 -0.92604,0 -0.25466,0.0666 -0.0463,0.121 0.46302,0.121 0.50932,0 0.71768,-0.0545 0.46302,-0.121 z m -3.44509,-0.24205 c -0.0879,-0.0879 -0.31613,-0.0973 -0.50712,-0.0209 -0.21107,0.0845 -0.14838,0.14715 0.15985,0.15985 0.27891,0.0115 0.43518,-0.0511 0.34727,-0.13897 z m 0.33231,-1.493795 c -0.002,-0.472943 -0.12103,-2.575256 -0.26417,-4.671809 -0.29563,-4.330073 -0.86939,-6.639129 -1.6497,-6.639129 -0.9983,0 -1.52179,-0.506645 -1.52179,-1.472821 0,-1.379935 0.68719,-1.498584 1.72513,-0.297866 l 0.83681,0.968053 0.59102,-0.629105 c 0.37841,-0.402807 0.48868,-0.692346 0.30653,-0.804921 -0.87478,-0.540639 0.22045,-2.933931 1.25313,-2.738344 0.52633,0.09968 0.78313,1.966337 0.33252,2.416954 -0.46237,0.46237 -0.33053,0.638845 0.57726,0.772698 0.75031,0.110632 0.99974,-0.0232 1.95718,-1.050269 1.2245,-1.313538 2.27218,-1.493802 2.4253,-0.417301 0.0662,0.465645 -0.20681,0.747096 -1.35151,1.393129 -1.40735,0.794255 -1.44769,0.850866 -2.12969,2.988339 -0.90819,2.846401 -1.22756,5.009372 -1.23001,8.330308 l -0.002,2.711979 h 0.66146 c 0.64558,0 0.66146,-0.0467 0.66146,-1.945533 0,-2.084044 0.80819,-4.857266 1.77299,-6.083811 0.2776,-0.352904 1.68184,-1.637469 3.12054,-2.854587 1.43871,-1.217118 2.90609,-2.50158 3.26085,-2.854357 1.46287,-1.454692 2.66712,-5.149847 2.30588,-7.075423 -0.0926,-0.493491 -0.74077,-1.574727 -1.46762,-2.448122 -1.02028,-1.225999 -1.61448,-1.68126 -2.74774,-2.105268 -5.81879,-2.177089 -13.90007,-0.31579 -16.42346,3.782692 -0.69436,1.127787 -0.80165,1.552717 -0.80165,3.175 0,2.101086 0.31059,2.86997 2.52009,6.238576 1.88378,2.872021 3.60729,6.057006 3.93731,7.276042 0.15759,0.582083 0.28719,1.921536 0.288,2.976562 0.001,1.741349 0.0503,1.918229 0.53064,1.918229 0.42143,0 0.52837,-0.17508 0.52524,-0.859895 z m 1.12563,-0.887741 c -0.20453,-2.547927 0.62436,-7.79005 1.6538,-10.459117 l 0.37102,-0.961961 -0.81258,-0.162518 c -1.28188,-0.256376 -1.62503,-0.187595 -2.37959,0.476978 -0.68674,0.604837 -0.69644,0.653743 -0.33663,1.698077 0.33405,0.969579 0.89702,7.193833 0.90735,10.031699 0.003,0.779618 0.11646,1.124478 0.3705,1.124478 0.28933,0 0.3369,-0.36762 0.22613,-1.747636 z m -3.45151,-11.812259 c -0.48768,-0.487678 -0.58061,-0.509781 -0.58061,-0.138089 0,0.243388 0.20737,0.558573 0.46082,0.70041 0.70393,0.393941 0.76929,0.08717 0.11979,-0.562321 z m 8.15064,-1.848639 c 0,-0.343634 -1.12628,0.398828 -1.27308,0.839238 -0.0725,0.217619 0.13026,0.175992 0.58081,-0.119219 0.38075,-0.249478 0.69227,-0.573484 0.69227,-0.720019 z m -4.62025,-0.268028 c 0.19598,-0.793535 -0.14169,-0.969007 -0.66088,-0.343426 -0.34937,0.420964 -0.0983,1.664986 0.26161,1.296101 0.12076,-0.123788 0.30044,-0.552493 0.39927,-0.952675 z"
           id="path1823-2-90-8"
           sodipodi:nodetypes="csssssssssssssssssssscscscssssccscssscssscsssscsssssssssscsssssssssssscscsscssscssssssssssssss" />
      </g>
    </g>
  </g>
</svg>
