<?xml version="1.0" encoding="UTF-8" standalone="no"?>
<!-- Created with Inkscape (http://www.inkscape.org/) -->

<svg
   width="300"
   height="210"
   viewBox="0 0 79.374999 55.5625"
   version="1.1"
   id="svg5"
   inkscape:version="1.1.1 (1:1.1+202109281943+c3084ef5ed)"
   sodipodi:docname="mesurePousse.svg"
   xmlns:inkscape="http://www.inkscape.org/namespaces/inkscape"
   xmlns:sodipodi="http://sodipodi.sourceforge.net/DTD/sodipodi-0.dtd"
   xmlns="http://www.w3.org/2000/svg"
   xmlns:svg="http://www.w3.org/2000/svg">
  <sodipodi:namedview
     id="namedview7"
     pagecolor="#505050"
     bordercolor="#eeeeee"
     borderopacity="1"
     inkscape:pageshadow="0"
     inkscape:pageopacity="0"
     inkscape:pagecheckerboard="0"
     inkscape:document-units="mm"
     showgrid="false"
     units="px"
     inkscape:zoom="1.2810466"
     inkscape:cx="177.19887"
     inkscape:cy="222.86465"
     inkscape:window-width="1920"
     inkscape:window-height="1176"
     inkscape:window-x="1920"
     inkscape:window-y="0"
     inkscape:window-maximized="1"
     inkscape:current-layer="layer1" />
  <defs
     id="defs2" />
  <g
     inkscape:label="Calque 1"
     inkscape:groupmode="layer"
     id="layer1">
    <path
       style="fill:#000000;stroke-width:0.352778"
       d="M 1.8811886,51.897873 C 1.050386,51.497196 0.78610293,50.564562 1.5033643,50.564562 c 0.2287591,0 0.9447787,0.19123 1.5911544,0.424957 1.6588151,0.599837 3.485104,0.0399 9.4581973,-2.899652 2.716388,-1.336834 5.560485,-2.540138 6.320213,-2.673995 1.288829,-0.22709 1.336073,-0.27654 0.705556,-0.738547 -0.582645,-0.426927 -0.669908,-0.918304 -0.633237,-3.565739 0.02339,-1.688811 0.209279,-3.666759 0.41308,-4.395446 0.361988,-1.294281 0.331522,-1.364321 -1.318994,-3.03229 -2.416966,-2.442534 -3.01939,-4.440787 -2.666162,-8.843712 0.149124,-1.85881 0.289902,-4.332156 0.312839,-5.496323 0.03648,-1.851699 0.132617,-2.12967 0.767948,-2.220549 0.492685,-0.07048 1.003223,0.284413 1.5875,1.103521 0.473691,0.664075 1.734382,1.887188 2.801534,2.718029 3.525767,2.74502 3.867295,3.308466 4.127581,6.809658 0.147684,1.986506 0.04831,2.845411 -0.465634,4.024757 -0.359365,0.824618 -0.77469,1.499306 -0.922945,1.499306 -0.148258,0 -0.269557,0.220038 -0.269557,0.488971 0,0.268933 -0.533263,0.742024 -1.185027,1.051304 -1.056301,0.501247 -1.236062,0.802584 -1.654891,2.774202 -0.258427,1.216534 -0.470068,2.976615 -0.470316,3.911279 -3.88e-4,1.450151 0.161918,1.851141 1.106593,2.734015 0.611406,0.571397 1.500664,1.034614 1.986227,1.034614 0.483553,0 1.881227,0.231337 3.105941,0.514077 3.84786,0.888344 12.608983,2.308128 14.242817,2.308128 1.156705,0 1.565878,0.138277 1.565878,0.529167 0,1.082574 -6.27089,0.440837 -15.698611,-1.606531 -5.339327,-1.159524 -6.863917,-0.930247 -12.595068,1.894108 -2.580074,1.271484 -5.3057422,2.560355 -6.0570417,2.864175 C 6.1064295,52.40386 3.0633868,52.46803 1.8811886,51.897873 Z M 20.659778,29.300904 c 0.0056,-2.561537 0.09813,-3.077309 0.535993,-2.989171 0.432961,0.08715 0.521526,0.773836 0.487144,3.776991 -0.04632,4.04544 0.170032,4.140884 1.709766,0.754295 1.44121,-3.169899 0.228063,-6.158928 -3.755578,-9.253244 l -2.558557,-1.987377 -0.410832,3.08569 c -0.225958,1.697129 -0.410832,3.47545 -0.410832,3.95182 0,1.778417 1.093537,4.509051 2.331334,5.8215 1.194746,1.266797 1.274284,1.297125 1.659807,0.632873 0.222709,-0.38373 0.407998,-2.090748 0.411755,-3.793377 z m 6.180438,-0.784867 V 11.406315 h 3.527777 c 3.500999,0 3.527778,0.0065 3.527778,0.857533 0,0.923676 -0.726496,0.47788 16.325801,10.017932 l 6.977189,3.903447 7.441668,-11.181817 c 4.092917,-6.1499981 7.564927,-11.3165564 7.715574,-11.4812431 0.201588,-0.220372 4.425005,2.2734675 5.940813,3.5079239 0.11212,0.09131 -17.985063,27.3786712 -18.655707,28.1295182 -0.287161,0.321507 -0.180591,0.377727 -15.162005,-7.998651 L 34.07216,21.342241 33.97939,33.484002 33.88662,45.625699 h -3.523199 -3.523205 z m 5.997222,0 V 12.464648 h -2.469445 c -1.959878,0 -2.469444,0.109194 -2.469444,0.529167 0,0.291042 0.15875,0.529167 0.352778,0.529167 0.194027,0 0.352777,0.238125 0.352777,0.529166 0,0.291042 -0.15875,0.529167 -0.352777,0.529167 -0.194028,0 -0.352778,0.3175 -0.352778,0.705556 0,0.388055 0.15875,0.705555 0.352778,0.705555 0.194027,0 0.352777,0.238125 0.352777,0.529167 0,0.291041 -0.15875,0.529166 -0.352777,0.529166 -0.194028,0 -0.352778,0.238125 -0.352778,0.529167 0,0.291042 0.15875,0.529167 0.352778,0.529167 0.194027,0 0.352777,0.238125 0.352777,0.529166 0,0.291042 -0.15875,0.529167 -0.352777,0.529167 -0.194028,0 -0.352778,0.238125 -0.352778,0.529167 0,0.291041 0.15875,0.529166 0.352778,0.529166 0.194027,0 0.352777,0.238125 0.352777,0.529167 0,0.291042 -0.15875,0.529167 -0.352777,0.529167 -0.194028,0 -0.352778,0.3175 -0.352778,0.705555 0,0.601028 0.235186,0.705556 1.5875,0.705556 1.175925,0 1.5875,0.137192 1.5875,0.529166 0,0.391975 -0.411575,0.529167 -1.5875,0.529167 -1.175925,0 -1.5875,0.137192 -1.5875,0.529167 0,0.291041 0.15875,0.529166 0.352778,0.529166 0.194027,0 0.352777,0.238125 0.352777,0.529167 0,0.291042 -0.15875,0.529167 -0.352777,0.529167 -0.194028,0 -0.352778,0.3175 -0.352778,0.705555 0,0.388056 0.15875,0.705556 0.352778,0.705556 0.194027,0 0.352777,0.238125 0.352777,0.529166 0,0.291042 -0.15875,0.529167 -0.352777,0.529167 -0.194028,0 -0.352778,0.238125 -0.352778,0.529167 0,0.291041 0.15875,0.529166 0.352778,0.529166 0.194027,0 0.352777,0.238125 0.352777,0.529167 0,0.291042 -0.15875,0.529167 -0.352777,0.529167 -0.194028,0 -0.352778,0.238125 -0.352778,0.529166 0,0.291042 0.15875,0.529167 0.352778,0.529167 0.194027,0 0.352777,0.238125 0.352777,0.529167 0,0.291041 -0.15875,0.529166 -0.352777,0.529166 -0.194028,0 -0.352778,0.238125 -0.352778,0.529167 0,0.391975 0.411575,0.529167 1.5875,0.529167 1.175925,0 1.5875,0.137191 1.5875,0.529166 0,0.391971 -0.411575,0.529171 -1.5875,0.529171 -1.175925,0 -1.5875,0.13719 -1.5875,0.529157 0,0.291037 0.15875,0.529167 0.352778,0.529167 0.194027,0 0.352777,0.238117 0.352777,0.529167 0,0.291037 -0.15875,0.529157 -0.352777,0.529157 -0.194028,0 -0.352778,0.317497 -0.352778,0.705557 0,0.388047 0.15875,0.705544 0.352778,0.705544 0.194027,0 0.352777,0.23813 0.352777,0.529167 0,0.29104 -0.15875,0.529167 -0.352777,0.529167 -0.194028,0 -0.352778,0.23812 -0.352778,0.529157 0,0.29105 0.15875,0.529167 0.352778,0.529167 0.194027,0 0.352777,0.23813 0.352777,0.529167 0,0.29104 -0.15875,0.529157 -0.352777,0.529157 -0.194028,0 -0.352778,0.23813 -0.352778,0.529167 0,0.29104 0.15875,0.529167 0.352778,0.529167 0.194027,0 0.352777,0.23812 0.352777,0.529157 0,0.29105 -0.15875,0.529167 -0.352777,0.529167 -0.194028,0 -0.352778,0.23813 -0.352778,0.529167 0,0.419967 0.509566,0.529157 2.469444,0.529157 h 2.469445 z M 68.110767,20.616009 C 72.972793,13.36058 76.907489,7.3934955 76.854541,7.3558205 75.237972,6.2055774 73.389469,5.064105 73.013694,4.984051 c -0.313722,-0.06683 -0.488756,0.211114 -0.488756,0.7761267 0,0.4841357 -0.185209,0.8810104 -0.411575,0.8819434 -0.624643,0.0026 -0.999536,0.5107127 -0.999536,1.3547921 0,0.4393687 -0.223319,0.7612777 -0.529167,0.7627857 -0.291042,0.0014 -0.550541,0.2403217 -0.576668,0.5308627 -0.02614,0.2905397 -0.06581,0.7217084 -0.08819,0.9581544 -0.02378,0.251056 -0.284423,0.336372 -0.626565,0.20508 -0.467783,-0.179505 -0.544526,-0.06671 -0.380742,0.559601 0.158355,0.60554 0.01041,0.858464 -0.64885,1.109105 -1.180363,0.448773 -1.06505,1.077069 0.378036,2.059808 0.674956,0.459645 1.140753,0.975582 1.035103,1.146528 -0.300951,0.486947 -0.802527,0.371473 -1.895087,-0.436292 -1.098737,-0.812331 -1.810833,-0.672127 -1.556632,0.306482 0.104006,0.400397 -0.124357,0.740858 -0.650479,0.969787 -0.544672,0.236999 -0.777032,0.598527 -0.708001,1.101577 0.06981,0.508712 -0.128601,0.809297 -0.618818,0.937493 -0.496577,0.129857 -0.651827,0.370434 -0.497907,0.771549 0.156976,0.409064 -0.0089,0.643665 -0.556151,0.786787 -0.557,0.145658 -0.729279,0.397171 -0.602946,0.880261 0.128665,0.492019 -0.0799,0.776418 -0.765313,1.043566 -0.918608,0.358045 -0.924528,0.379236 -0.236618,0.847221 1.760982,1.197991 2.034018,1.48475 1.789853,1.879815 -0.188094,0.304338 -0.584207,0.216334 -1.458574,-0.324055 -1.265784,-0.782299 -2.027932,-0.681648 -1.681166,0.222017 0.136017,0.35445 -0.05039,0.606171 -0.544572,0.735404 -0.413255,0.108067 -0.769687,0.376411 -0.792068,0.596315 -0.02237,0.219904 -0.06207,0.637543 -0.08819,0.928081 -0.02614,0.29054 -0.285627,0.532913 -0.576668,0.538607 -0.336737,0.0066 -0.497985,0.29907 -0.443421,0.804322 0.06258,0.579427 -0.172508,0.892165 -0.869989,1.157344 -0.607031,0.230794 -0.806001,0.455913 -0.545341,0.617012 0.245209,0.151546 0.291772,0.445576 0.115683,0.730497 -0.162094,0.262273 -0.454579,0.378054 -0.649969,0.257298 -0.195389,-0.120759 -0.440361,0.0021 -0.544385,0.273308 -0.180358,0.470006 3.131386,3.069689 3.718648,2.919102 0.138635,-0.03555 4.230081,-6.000895 9.092103,-13.256327 z M 55.18888,29.227018 c 1.485897,-2.23792 1.501497,-2.289129 0.627694,-2.060624 -0.453079,0.118484 -0.716675,-0.0565 -0.84934,-0.563813 -0.135365,-0.517645 -0.434425,-0.709002 -1.009283,-0.645802 -0.52723,0.05797 -0.820865,-0.09783 -0.828051,-0.439353 -0.0065,-0.308543 -0.338512,-0.529167 -0.796354,-0.529167 -0.431874,0 -0.774738,-0.141001 -0.761922,-0.313337 0.02335,-0.314346 -0.718393,-0.905866 -1.148644,-0.915984 -0.126358,-0.0028 -0.571335,0.57356 -0.98884,1.28118 -0.962325,1.631015 -1.798369,1.159922 -0.928113,-0.522972 0.760847,-1.471313 0.714104,-1.918656 -0.171121,-1.637697 -0.552944,0.1755 -0.777131,0.05275 -0.923089,-0.505393 C 47.22016,21.64116 46.941574,21.505281 45.846972,21.610807 45.525637,21.641777 45.185309,21.324683 45.07108,20.88786 44.896176,20.219032 44.788247,20.17558 44.302716,20.578537 43.81844,20.98045 43.710257,20.94187 43.54454,20.308179 43.349785,19.56343 42.362438,18.905277 42.362438,19.520204 c 0,0.18185 -0.247248,0.235754 -0.549441,0.119793 -0.302193,-0.115962 -0.469861,-0.418222 -0.372597,-0.671689 0.09726,-0.253471 -0.01266,-0.525272 -0.244309,-0.604009 -0.231634,-0.07874 -0.795839,0.480886 -1.253786,1.243602 -0.605364,1.008242 -0.938513,1.28088 -1.220544,0.998848 -0.282032,-0.282032 -0.223274,-0.666627 0.215272,-1.409019 0.817604,-1.384099 0.772495,-1.920759 -0.141369,-1.681777 -0.537753,0.140625 -0.794142,0.0051 -0.923089,-0.488022 -0.178075,-0.680953 -0.46742,-0.813216 -1.550603,-0.708791 -0.314822,0.03035 -0.657147,-0.268869 -0.760723,-0.664932 -0.193368,-0.739439 -0.959922,-1.016154 -0.959922,-0.346517 0,0.205478 -0.15875,0.275484 -0.352778,0.155569 -0.222155,-0.1373 -0.351007,0.671385 -0.347998,2.18404 l 0.0048,2.402071 9.961189,5.554157 c 5.478656,3.054784 9.978404,5.555097 9.99944,5.55625 0.02103,0.0011 0.616348,-0.868592 1.322917,-1.93276 z"
       id="path1049" />
  </g>
</svg>
