<?xml version="1.0" encoding="UTF-8" standalone="no"?>
<!-- Created with Inkscape (http://www.inkscape.org/) -->

<svg
   width="420"
   height="381"
   viewBox="0 0 111.125 100.80625"
   version="1.1"
   id="svg5"
   inkscape:version="1.1.1 (1:1.1+202109281943+c3084ef5ed)"
   sodipodi:docname="microQuestionnaire.svg"
   xmlns:inkscape="http://www.inkscape.org/namespaces/inkscape"
   xmlns:sodipodi="http://sodipodi.sourceforge.net/DTD/sodipodi-0.dtd"
   xmlns="http://www.w3.org/2000/svg"
   xmlns:svg="http://www.w3.org/2000/svg">
  <sodipodi:namedview
     id="namedview7"
     pagecolor="#505050"
     bordercolor="#eeeeee"
     borderopacity="1"
     inkscape:pageshadow="0"
     inkscape:pageopacity="0"
     inkscape:pagecheckerboard="0"
     inkscape:document-units="mm"
     showgrid="false"
     units="px"
     inkscape:zoom="1.2810466"
     inkscape:cx="177.19887"
     inkscape:cy="222.86465"
     inkscape:window-width="1920"
     inkscape:window-height="1176"
     inkscape:window-x="1920"
     inkscape:window-y="0"
     inkscape:window-maximized="1"
     inkscape:current-layer="layer1" />
  <defs
     id="defs2" />
  <g
     inkscape:label="Calque 1"
     inkscape:groupmode="layer"
     id="layer1">
    <path
       style="fill:#000000;stroke-width:0.352778"
       d="m 2.5843676,99.097505 c 0,-0.16964 0.5682636,-0.9237 1.262808,-1.67569 1.752762,-1.89774 5.051937,-6.90595 5.4767062,-8.31374 0.5604098,-1.85735 0.4198148,-5.77378 -0.3670237,-10.22392 -1.8138557,-10.25865 -0.5441308,-12.99361 7.9150089,-17.04878 2.640147,-1.26564 5.065413,-2.68875 5.715692,-3.35388 1.8975,-1.94084 3.395772,-5.4429 4.751744,-11.1067 0.741571,-3.0975 1.375442,-4.31471 2.454843,-4.71401 0.60518,-0.22387 0.734709,-0.66284 0.87515,-2.965859 0.179938,-2.950675 0.250656,-3.131435 2.689846,-6.875399 0.916322,-1.406486 1.989716,-3.191701 2.385317,-3.967142 0.395602,-0.77544 1.716596,-2.720304 2.935545,-4.321919 1.218947,-1.601615 2.330436,-3.100315 2.469978,-3.330446 0.142053,-0.234282 -0.352073,-1.355678 -1.122811,-2.548159 -0.796431,-1.232236 -1.47532,-2.788615 -1.610974,-3.693227 -0.310458,-2.070279 0.092,-5.022817 0.905574,-6.643501 0.361375,-0.719875 0.657041,-1.632687 0.657041,-2.028473 0,-0.4165 0.231606,-0.719609 0.549854,-0.719609 0.302419,0 1.135856,-0.46442 1.852083,-1.032045 2.020221,-1.601068 4.663169,-2.319344 8.534175,-2.319344 3.018758,0 3.514774,0.09605 4.997556,0.967705 3.242409,1.906063 5.585777,5.659854 5.585777,8.947739 v 1.144328 l 2.028473,-0.539139 c 1.115659,-0.296527 2.266597,-0.62814 2.557639,-0.736918 0.291041,-0.108778 0.608541,-0.221613 0.705555,-0.250744 0.09701,-0.02913 1.367014,-0.410525 2.822222,-0.847542 1.455209,-0.437017 3.360209,-1.039702 4.233334,-1.3393 1.483409,-0.509007 1.902195,-0.638711 2.551236,-0.79015 0.142,-0.03313 0.816687,-0.2936 1.499305,-0.578817 0.682618,-0.285216 1.241126,-0.417632 1.241126,-0.294256 0,0.123375 0.202395,0.05635 0.449763,-0.148953 0.247371,-0.205299 0.842684,-0.427194 1.322917,-0.4931 0.480236,-0.06591 1.031903,-0.214022 1.225931,-0.329147 0.194028,-0.115124 0.987778,-0.335035 1.763889,-0.48869 0.776111,-0.153655 1.609548,-0.333255 1.852083,-0.399111 0.242535,-0.06586 0.718785,-0.186967 1.058333,-0.269136 0.339549,-0.08217 0.617362,-0.17369 0.617362,-0.20338 0,-0.167671 2.461432,-0.461478 3.282607,-0.391827 0.674674,0.05722 1.950696,3.185327 3.360615,8.238392 0.682494,2.446017 1.417245,4.776808 1.632779,5.179536 0.215533,0.402728 0.287478,0.732233 0.159882,0.732233 -0.1276,0 -0.06893,0.198437 0.130383,0.440972 0.199309,0.242535 0.458047,1.049112 0.574971,1.792393 0.177663,1.129376 0.787115,3.554565 1.876722,7.468024 0.108045,0.388056 0.313937,0.864306 0.457535,1.058334 0.208396,0.281583 0.728227,2.099998 0.857217,2.998611 0.10784,0.751346 0.725694,1.068645 1.721114,0.883892 3.68733,-0.684389 3.75866,-0.680336 3.80323,0.216185 0.0582,1.171226 0.0638,1.112549 -0.18305,1.929233 -0.18928,0.626187 -0.002,0.802224 1.25028,1.177526 1.9908,0.596456 2.4468,1.108273 2.10601,2.363795 -0.22594,0.832407 -0.45959,1.009105 -1.30416,0.986235 -0.5659,-0.0153 -1.45856,-0.149862 -1.98369,-0.298975 -0.83462,-0.236992 -0.98374,-0.155783 -1.18478,0.645215 -0.12649,0.50399 -0.37152,0.91634 -0.54452,0.91634 -0.17299,0 -0.31453,0.22489 -0.31453,0.49977 0,0.27487 -0.19133,0.56354 -0.42517,0.64149 -0.40021,0.1334 -0.0199,1.59098 1.12904,4.32679 1.4286,3.40184 1.39513,4.81781 -0.14289,6.04503 -0.6616,0.5279 -1.41566,0.99995 -1.67569,1.04901 -1.1166,0.21063 -4.76471,1.23077 -5.411683,1.51328 -0.388056,0.16945 -1.419931,0.51354 -2.293056,0.76463 -0.873125,0.25109 -1.74625,0.57319 -1.940277,0.71577 -0.194028,0.14258 -0.511528,0.27837 -0.705556,0.30175 -0.707711,0.0853 -3.62415,1.01831 -4.272601,1.36686 -0.746527,0.40126 -6.534013,2.60277 -6.747165,2.56657 -0.04601,-0.008 -0.760384,0.27377 -1.5875,0.62575 -2.153539,0.91643 -7.227714,2.16886 -9.088568,2.24328 -0.873125,0.0349 -2.103437,-0.0613 -2.734028,-0.21378 -1.002778,-0.2425 -1.152056,-0.42855 -1.190625,-1.48395 -0.02424,-0.66368 -0.07332,-1.32576 -0.10904,-1.47128 -0.148629,-0.60553 -0.611459,-3.26665 -0.596484,-3.42958 0.0089,-0.0971 -0.208586,-0.81378 -0.483369,-1.59259 -0.274782,-0.77881 -0.407828,-1.41602 -0.295666,-1.41602 0.112165,0 0.03597,-0.2024 -0.169334,-0.44977 -0.205299,-0.24737 -0.449809,-0.92205 -0.543355,-1.4993 -0.09354,-0.57725 -0.19619,-1.04954 -0.228099,-1.04954 -0.03193,0 -0.132355,-0.47625 -0.223213,-1.05834 -0.231334,-1.48206 -1.409309,-5.56961 -2.389145,-8.29028 -1.387493,-3.85259 -2.022401,-5.781586 -2.195079,-6.669154 -0.09077,-0.466581 -0.343062,-1.180956 -0.560638,-1.5875 -0.217576,-0.406548 -0.387787,-0.818551 -0.378245,-0.915564 0.0096,-0.09701 -0.133544,-0.573264 -0.317965,-1.058334 -0.184422,-0.485069 -0.342114,-0.961319 -0.350425,-1.058333 -0.03253,-0.379589 -1.400958,-3.763582 -1.943312,-4.805582 -0.567058,-1.089462 -0.59721,-1.099495 -2.778255,-0.924422 -1.212738,0.09735 -2.689726,0.008 -3.282196,-0.198526 -1.066563,-0.371803 -1.09741,-0.347433 -3.118954,2.464213 -1.122959,1.56185 -2.540455,3.628849 -3.149995,4.593326 -4.884216,7.72832 -5.922613,9.112046 -7.360306,9.808016 -0.800573,0.38756 -1.744236,0.70464 -2.097028,0.70464 -1.307394,0 -3.454351,0.86102 -3.904238,1.56576 -0.255358,0.40001 -0.728253,1.83855 -1.050875,3.19674 -1.372235,5.77691 -3.01068,9.58309 -5.012535,11.64433 -0.795687,0.81929 -2.918834,2.08429 -5.878382,3.5024 -5.05419,2.42179 -6.737526,3.82555 -7.7562414,6.46805 -0.7672015,1.99009 -0.7325435,3.88076 0.1620434,8.83983 0.899509,4.98636 1.008935,10.29234 0.248614,12.05512 -0.6215484,1.44104 -4.0218715,6.50351 -5.4289035,8.08267 -0.9036075,1.01414 -2.2652829,1.48368 -2.2652829,0.78111 z M 73.316313,62.719125 c 2.35918,-0.56253 2.390899,-0.57102 2.998611,-0.80341 0.291042,-0.11129 1.481667,-0.5376 2.645834,-0.94735 1.164166,-0.40975 2.354791,-0.8449 2.645833,-0.96699 0.291042,-0.1221 0.608542,-0.23709 0.705556,-0.25553 0.668027,-0.12702 3.936351,-1.43815 5.027083,-2.01669 0.727604,-0.38593 1.322917,-0.59272 1.322917,-0.45953 0,0.13318 0.262523,0.0243 0.583385,-0.24202 0.320865,-0.26629 0.645551,-0.42565 0.721533,-0.35414 0.116423,0.10958 1.499182,-0.3312 3.986749,-1.27085 0.291041,-0.10994 0.846666,-0.25727 1.234722,-0.32739 0.388055,-0.0701 0.94368,-0.229 1.234722,-0.35306 0.660555,-0.28157 1.046769,-0.40264 1.940278,-0.60823 0.388055,-0.0893 0.745243,-0.19433 0.79375,-0.23343 0.04851,-0.0391 0.207257,-0.0999 0.352778,-0.13511 0.145522,-0.0352 0.806926,-0.19252 1.469786,-0.34959 1.95469,-0.46318 2.63521,-1.32676 2.36705,-3.00374 -0.1252,-0.783 -0.45266,-1.94176 -0.72767,-2.57502 -0.46452,-1.06964 -0.96196,-2.46423 -0.94064,-2.63712 0.005,-0.041 -0.42126,-0.54546 -0.94737,-1.12092 -1.883193,-2.05984 -2.544073,-2.83864 -2.544073,-2.99802 0,-0.2274 -2.901784,-3.047482 -3.453899,-3.35666 -0.801007,-0.448554 -0.07393,-1.358703 1.692455,-2.118576 0.943719,-0.40598 1.89556,-0.738141 2.115199,-0.738141 0.219639,0 0.321127,-0.277813 0.22552,-0.617361 -0.0956,-0.339549 -0.278013,-1.134897 -0.405359,-1.767442 C 98.233717,31.830264 97.90327,30.859187 97.626735,30.30486 97.151818,29.352861 95.89751,24.853833 95.530896,22.787373 95.438416,22.266119 94.731424,19.90317 93.959797,17.536373 93.188173,15.169576 92.450321,12.659181 92.320124,11.957717 92.189932,11.256253 91.795519,10.007641 91.443648,9.183023 91.09178,8.358405 90.902226,7.683718 91.022414,7.683718 c 0.120191,0 -0.05399,-0.301136 -0.387079,-0.669191 -0.572382,-0.632473 -0.725392,-0.640476 -2.788705,-0.14585 -1.200704,0.287837 -2.421219,0.576827 -2.712261,0.642199 -0.291042,0.06537 -0.568854,0.131005 -0.617361,0.14585 -0.04851,0.01485 -0.163731,0.04095 -0.25605,0.058 -0.09232,0.01706 -1.560759,0.426749 -3.263194,0.910425 -1.702439,0.483677 -3.41284,0.968899 -3.800895,1.078272 -0.388056,0.109374 -0.864306,0.310049 -1.058334,0.445945 -0.194027,0.135897 -1.146527,0.454942 -2.116666,0.708991 -0.970139,0.254049 -1.922639,0.551902 -2.116667,0.661896 -0.194028,0.109995 -0.670278,0.246118 -1.058333,0.302496 -0.388056,0.05638 -0.943681,0.20601 -1.234723,0.332516 -0.291041,0.126505 -0.608541,0.255097 -0.705555,0.28576 -1.911326,0.604102 -4.428152,1.330931 -4.795242,1.384809 -0.261803,0.03842 -0.586433,0.180291 -0.721398,0.315259 -0.13497,0.134967 -0.523826,0.245396 -0.864126,0.245396 -0.406866,0 -0.688728,0.362392 -0.823147,1.058333 -0.112434,0.582083 -0.299036,1.546541 -0.414676,2.143239 l -0.210256,1.084906 1.004006,-0.496356 c 1.351474,-0.668137 3.064453,-0.506536 4.014689,0.378741 0.997832,0.929623 0.735831,2.74528 -0.573667,3.975488 -0.788793,0.741035 -0.874984,1.039478 -0.678539,2.349479 0.257284,1.715686 -0.195273,1.977119 -1.081405,0.62471 -0.705228,-1.076315 -0.270151,-2.646617 1.141546,-4.120109 1.068046,-1.114801 0.916866,-1.935057 -0.418415,-2.270192 -1.42045,-0.35651 -2.628548,0.340942 -2.435416,1.405998 0.08739,0.481914 0.03097,0.955256 -0.125349,1.051875 -0.472906,0.292269 -1.053895,-0.257753 -1.185122,-1.12196 -0.10916,-0.718852 -0.289553,-0.585415 -1.528914,1.130927 -0.772834,1.070268 -1.765021,2.138536 -2.204861,2.37393 -0.891858,0.477312 -1.03474,1.555006 -0.346241,2.611522 0.249407,0.382722 0.746841,1.568983 1.105408,2.636136 0.358567,1.067153 0.853631,2.416528 1.100141,2.998611 0.531217,1.254355 2.592409,7.455296 2.81432,8.466671 0.08515,0.38805 0.378471,1.26118 0.651831,1.94027 0.640758,1.59182 2.214926,7.17248 2.537503,8.99584 0.137304,0.77611 0.379938,1.66436 0.539192,1.9739 0.159251,0.30953 0.368343,0.94453 0.464647,1.41111 0.335425,1.62507 0.535521,2.49602 0.70792,3.08137 0.279544,0.94911 0.680766,3.69943 0.659874,4.52335 -0.01796,0.70791 0.126972,0.75196 2.146141,0.6523 1.190964,-0.0588 2.959139,-0.29614 3.929278,-0.52746 z m 0.529167,-4.05902 c 0,-0.29104 0.238125,-0.52916 0.529166,-0.52916 0.291042,0 0.529167,0.23812 0.529167,0.52916 0,0.29105 -0.238125,0.52917 -0.529167,0.52917 -0.291041,0 -0.529166,-0.23812 -0.529166,-0.52917 z m 4.488123,-1.94431 c -0.748407,-0.87407 -0.787869,-1.75985 -0.0784,-1.75985 0.291042,0 0.529167,-0.13342 0.529167,-0.29648 0,-0.53682 8.576342,-3.93686 9.930419,-3.93686 1.278456,0 0.667004,1.02747 -0.846391,1.42225 -1.951345,0.50903 -8.425314,3.23462 -8.205396,3.45453 0.227266,0.22727 4.824885,-1.00464 5.383173,-1.4424 0.242535,-0.19017 0.440973,-0.24288 0.440973,-0.11712 0,0.12575 0.515937,-0.0446 1.146528,-0.37853 0.63059,-0.33395 1.305277,-0.6432 1.499305,-0.68723 0.194028,-0.044 2.670263,-1.12851 5.502741,-2.40996 4.969549,-2.24828 6.315314,-2.54476 6.315314,-1.39129 0,0.27028 -0.29104,0.49142 -0.646757,0.49142 -0.35572,0 -0.757188,0.11043 -0.892158,0.2454 -0.134965,0.13497 -0.439236,0.27575 -0.676155,0.31284 -0.236918,0.0371 -3.288263,1.3315 -6.780763,2.87646 -5.858302,2.5915 -8.264207,3.46285 -10.309659,3.73389 -0.431563,0.0572 -0.894584,0.21389 -1.028936,0.34824 -0.384884,0.38489 -0.631681,0.29538 -1.283005,-0.46531 z m -6.60479,-1.44525 c 0,-1.14232 1.385344,-4.54794 1.85002,-4.54794 0.146656,0 0.266647,-0.46555 0.266647,-1.03456 0,-0.70371 -0.212672,-1.10206 -0.665018,-1.24563 -0.899792,-0.28558 -2.545825,0.50764 -2.481037,1.19561 0.102027,1.08343 -0.0354,1.43736 -0.558112,1.43736 -0.291042,0 -0.540964,-0.11906 -0.555382,-0.26458 -0.01443,-0.14552 -0.09443,-0.63248 -0.177803,-1.08212 -0.19727,-1.06389 1.338534,-2.48418 2.980711,-2.75652 0.92141,-0.15281 2.176378,0.56681 2.507552,1.43786 0.310102,0.81564 -0.100164,2.88681 -0.667724,3.37092 -0.661134,0.56391 -1.201438,2.11618 -1.135828,3.26319 0.06413,1.12121 -0.03408,1.32292 -0.644179,1.32292 -0.570213,0 -0.719847,-0.22793 -0.719847,-1.09651 z m 5.291667,-2.06943 c 0,-0.66851 1.437315,-1.67732 2.768526,-1.94314 0.320576,-0.064 1.002107,-0.22352 1.514517,-0.35446 0.57173,-0.1461 1.030044,-0.0789 1.186343,0.17403 0.359734,0.58206 -0.156874,0.98267 -1.58883,1.23209 -0.679098,0.11829 -1.759734,0.52398 -2.401415,0.90153 -1.441214,0.84797 -1.479141,0.84771 -1.479141,-0.0101 z m -0.705556,-2.48958 c 0,-0.39414 0.277813,-0.80625 0.617361,-0.91579 0.339549,-0.10953 0.855487,-0.28728 1.146528,-0.39498 0.776196,-0.28725 1.122648,-0.38181 2.259436,-0.61669 0.563594,-0.11645 1.357344,-0.38974 1.763889,-0.60732 0.406548,-0.21757 0.739175,-0.35852 0.739175,-0.31321 0,0.12226 1.264829,-0.29751 2.469445,-0.81956 2.775003,-1.20262 5.83383,-2.28818 7.084949,-2.5144 0.759943,-0.13742 1.662811,-0.39504 2.006371,-0.5725 0.343556,-0.17746 0.765217,-0.23579 0.93702,-0.12961 0.425912,0.26323 0.07463,1.47684 -0.440916,1.52325 -1.752505,0.15774 -5.453846,1.3182 -9.234646,2.89529 -1.791699,0.74737 -3.952632,1.50381 -4.682536,1.63913 -0.441089,0.0818 -1.597904,0.46242 -2.570699,0.84586 -2.166807,0.85407 -2.095377,0.85473 -2.095377,-0.0195 z m -8.113889,-7.57365 c 0,-0.29104 0.238125,-0.52917 0.529167,-0.52917 0.291042,0 0.529167,0.23813 0.529167,0.52917 0,0.29104 -0.238125,0.52917 -0.529167,0.52917 -0.291042,0 -0.529167,-0.23813 -0.529167,-0.52917 z m 3.400595,-1.12672 c -0.95346,-0.95346 0.676398,-1.676758 8.946628,-3.970343 2.037291,-0.565002 4.577291,-1.305758 5.644444,-1.646125 1.067153,-0.340367 2.019653,-0.642976 2.116667,-0.672465 0.09701,-0.02949 0.414514,-0.158485 0.705556,-0.28666 1.960989,-0.863621 6.524099,-2.2629 6.904005,-2.117118 0.717141,0.275194 0.202036,1.088961 -0.844116,1.333546 -0.852388,0.19928 -3.705493,1.213724 -5.530723,1.966489 -0.388055,0.160044 -1.499305,0.558937 -2.469444,0.886435 -0.970139,0.327494 -2.002014,0.681302 -2.293056,0.786236 -0.642528,0.231666 -0.775801,0.266129 -2.998611,0.775381 -2.458791,0.563315 -7.584056,2.090734 -8.643056,2.575784 -0.485069,0.22218 -0.978863,0.44682 -1.097322,0.4992 -0.118459,0.0524 -0.316897,-0.006 -0.440972,-0.13036 z m -4.534881,-1.07814 c -0.225683,-1.091163 0.113316,-2.066957 1.133221,-3.261946 1.056379,-1.237728 1.056668,-2.166909 7.05e-4,-2.005746 -0.982877,0.149997 -1.695848,0.893642 -1.945188,2.028874 -0.233267,1.062069 -1.229367,1.461897 -1.229367,0.493459 0,-1.043122 1.006436,-2.934681 1.782406,-3.349968 0.919212,-0.491948 3.14712,-0.217868 3.563507,0.438383 0.526197,0.82931 0.309944,1.506492 -0.934632,2.926772 -0.977258,1.115226 -1.191066,1.608575 -1.030301,2.377392 0.167982,0.80336 0.08119,0.97014 -0.504861,0.97014 -0.390189,0 -0.765005,-0.27699 -0.835406,-0.61736 z m 6.169865,-2.889275 c 0.144155,-0.551258 0.04609,-0.718496 -0.379318,-0.646889 -0.315556,0.05312 -0.628149,-0.167361 -0.694651,-0.489955 -0.09135,-0.443128 0.37991,-0.738833 1.927486,-1.209439 2.541694,-0.772911 2.302715,-0.696334 2.930349,-0.93902 0.291042,-0.11254 1.322917,-0.472807 2.293055,-0.800598 0.970139,-0.32779 2.081389,-0.737598 2.469445,-0.910682 0.388056,-0.173083 1.023056,-0.370568 1.411111,-0.438852 0.810616,-0.142642 1.773707,-0.482557 2.909884,-1.027024 0.43627,-0.209063 0.906907,-0.266432 1.045856,-0.12748 0.530503,0.5305 -0.514523,1.368185 -2.547768,2.04228 -1.162442,0.385389 -2.351652,0.791743 -2.642694,0.903009 -0.291042,0.111263 -0.687917,0.243367 -0.881945,0.293561 -0.194027,0.05019 -1.543402,0.511714 -2.998611,1.025602 -1.455208,0.513885 -2.839678,0.973413 -3.076596,1.021169 -0.236919,0.04776 -0.536208,0.192278 -0.665092,0.321161 -0.128884,0.128884 0.06496,0.173123 0.430759,0.09831 2.543133,-0.520125 4.295458,-1.011252 6.299447,-1.765551 1.266734,-0.476796 2.303149,-0.797355 2.303149,-0.71235 0,0.08501 0.560455,-0.160235 1.245454,-0.544974 1.496233,-0.840388 3.340657,-0.938156 3.340657,-0.177084 0,0.287344 -0.436562,0.619739 -0.970139,0.738653 -0.533576,0.118914 -1.446389,0.420691 -2.028472,0.670617 -0.872476,0.374611 -3.36755,1.257211 -4.056944,1.435096 -0.09701,0.02505 -0.414514,0.143507 -0.705556,0.263278 -0.975247,0.401338 -4.395544,1.29358 -5.781506,1.508203 -1.265805,0.196014 -1.356762,0.154989 -1.17736,-0.531041 z m -8.216939,-9.550076 c -0.344608,-0.212976 -0.399317,-0.437056 -0.16413,-0.672243 0.459482,-0.459482 1.268793,0.0407 0.936307,0.578672 -0.164204,0.265684 -0.439681,0.299068 -0.772177,0.09357 z m 4.211531,-0.296224 c 0.220719,-0.412415 0.833286,-0.852985 1.36126,-0.979043 0.527978,-0.126058 1.151442,-0.379727 1.385479,-0.563704 0.234033,-0.183977 0.574318,-0.242542 0.756186,-0.130139 0.181864,0.112398 0.95547,-0.01609 1.719121,-0.285514 0.763651,-0.269431 1.931494,-0.567856 2.595203,-0.663166 1.730238,-0.248465 3.266447,-0.658999 3.684983,-0.984776 0.198864,-0.154784 0.754489,-0.346614 1.234722,-0.426282 0.480236,-0.07967 1.111278,-0.239974 1.40232,-0.356235 0.98455,-0.393298 5.462249,-1.611059 6.341304,-1.72459 0.560116,-0.07234 0.911218,0.07717 0.979131,0.416959 0.08017,0.401108 -1.074169,0.865226 -4.753804,1.911318 -2.672828,0.759866 -5.018437,1.494289 -5.212464,1.632053 -0.337919,0.239927 -4.841939,1.282089 -7.055556,1.632546 -0.582083,0.09216 -1.296458,0.259122 -1.5875,0.371038 -0.84708,0.32573 -1.17408,0.423139 -2.243205,0.66821 -0.942153,0.215967 -0.982087,0.18185 -0.60718,-0.518675 z m 0.08808,-1.854775 c 0.196275,-0.63391 2.965115,-1.972342 4.539425,-2.194313 0.671823,-0.09473 1.221493,-0.198918 1.221493,-0.231539 0,-0.08445 0.866401,-0.295589 2.259013,-0.55052 0.660375,-0.120887 2.758785,-0.682671 4.663136,-1.248414 4.493151,-1.334812 5.744341,-1.32287 4.878032,0.04656 -0.178255,0.281778 -0.326532,0.409977 -0.329502,0.284889 -0.0058,-0.245589 -0.85108,-0.06184 -4.94429,1.074819 -1.455208,0.404104 -3.995208,1.059854 -5.644444,1.457223 -1.649237,0.397372 -3.236737,0.819436 -3.527778,0.93792 -1.943062,0.791037 -3.285413,0.973472 -3.115085,0.423372 z m -1.118249,-2.370416 c 0,-0.514001 0.552443,-0.806948 1.873705,-0.993581 0.618698,-0.08739 1.363031,-0.254738 1.654073,-0.371878 0.291042,-0.11714 0.687917,-0.251442 0.881945,-0.298446 0.194027,-0.047 1.702152,-0.436231 3.351389,-0.864951 1.649236,-0.428719 3.633611,-0.914626 4.409722,-1.079793 0.776111,-0.165167 2.319958,-0.625085 3.430771,-1.022042 2.133759,-0.762513 3.293424,-0.905116 3.580687,-0.440312 0.203507,0.329278 -0.280719,1.216249 -0.618578,1.133075 -0.411639,-0.101336 -2.50184,0.42247 -2.873894,0.720199 -0.198864,0.159137 -0.754489,0.354523 -1.234722,0.434191 -0.480236,0.07967 -1.111278,0.236849 -1.40232,0.34929 -0.291041,0.11244 -1.005416,0.271335 -1.5875,0.353098 -0.582083,0.08177 -2.645833,0.5834 -4.586111,1.114739 -4.10174,1.123252 -6.879167,1.513435 -6.879167,0.966411 z m 34.291393,17.489936 c 0.32184,-0.63059 0.68614,-1.503719 0.80955,-1.940281 0.26469,-0.936333 0.3566,-0.947964 2.24,-0.283461 0.79547,0.280659 1.52806,0.378019 1.62797,0.216359 0.25554,-0.41347 -0.46591,-0.914436 -2.05411,-1.426352 -1.34346,-0.433027 -1.35857,-0.45775 -1.13494,-1.856277 l 0.22665,-1.417405 -1.15811,0.247802 c -0.63697,0.136295 -1.47562,0.289863 -1.86368,0.341263 -1.18137,0.156485 -4.388739,1.301079 -4.598949,1.641203 -0.180146,0.291483 4.682349,5.623669 5.128299,5.623669 0.10568,0 0.45548,-0.51593 0.77732,-1.14652 z m -68.058535,-0.0395 c 0.624357,-0.26427 1.437612,-0.81989 1.807235,-1.234726 0.662478,-0.743514 0.661836,-0.754246 -0.04511,-0.754246 -1.020145,0 -3.06318,-0.909108 -3.653621,-1.625787 -0.449026,-0.545031 -0.519899,-0.409713 -0.682212,1.302533 -0.264195,2.787006 0.285397,3.280756 2.573711,2.312226 z m 3.845204,-4.179242 c 0.449774,-0.622568 1.690896,-2.507323 2.758049,-4.188344 1.067153,-1.681025 2.773715,-4.212798 3.792361,-5.626167 1.881473,-2.610538 2.141562,-3.164664 1.485388,-3.164664 -0.201683,0 -1.175378,-0.544597 -2.163766,-1.210218 l -1.797074,-1.210219 -1.882864,2.436922 c -2.06672,2.674878 -2.588627,3.472082 -5.58002,8.523408 -1.11543,1.883537 -1.915566,3.606631 -1.778074,3.829096 0.311094,0.503361 2.953561,1.723912 3.754889,1.734376 0.326334,0.0043 0.961334,-0.501626 1.411111,-1.12419 z M 51.973259,23.9115 c 0,-0.388055 -0.15875,-0.705555 -0.352778,-0.705555 -0.194027,0 -0.352777,0.3175 -0.352777,0.705555 0,0.388056 0.15875,0.705556 0.352777,0.705556 0.194028,0 0.352778,-0.3175 0.352778,-0.705556 z m -1.989092,-0.176389 c -0.111686,-0.291041 -0.344826,-0.529166 -0.518096,-0.529166 -0.173267,0 -0.315034,0.238125 -0.315034,0.529166 0,0.291042 0.233144,0.529167 0.518096,0.529167 0.315592,0 0.438725,-0.20683 0.315034,-0.529167 z m 4.105759,0.02082 c 0,-0.561844 -0.640066,-1.085846 -0.948997,-0.776915 -0.290209,0.290209 0.162814,1.285261 0.585149,1.285261 0.200117,0 0.363848,-0.228755 0.363848,-0.508346 z m -8.466667,-1.763889 c 0,-0.08556 -0.15875,-0.253682 -0.352778,-0.373599 -0.194028,-0.119916 -0.352778,-0.04991 -0.352778,0.155568 0,0.205479 0.15875,0.373599 0.352778,0.373599 0.194028,0 0.352778,-0.07 0.352778,-0.155568 z m 3.655353,-0.373599 c -0.111686,-0.291041 -0.41922,-0.529166 -0.683412,-0.529166 -0.282046,0 -0.396522,0.218461 -0.277294,0.529166 0.111686,0.291042 0.41922,0.529167 0.683412,0.529167 0.282046,0 0.396522,-0.218461 0.277294,-0.529167 z m 2.01555,0.07938 c -0.04364,-0.421817 -0.527505,-0.340125 -0.679097,0.114653 -0.07761,0.232834 0.04939,0.359834 0.282222,0.282222 0.232833,-0.07761 0.411427,-0.256204 0.396875,-0.396875 z m 2.090208,-0.05855 c 0,-0.08556 -0.15875,-0.253682 -0.352778,-0.373598 -0.194027,-0.119916 -0.352777,-0.04991 -0.352777,0.155569 0,0.205478 0.15875,0.373597 0.352777,0.373597 0.194028,0 0.352778,-0.07 0.352778,-0.155568 z m 2.822223,-0.197209 c 0,-0.194028 -0.158751,-0.352778 -0.352778,-0.352778 -0.194028,0 -0.352778,0.15875 -0.352778,0.352778 0,0.194027 0.15875,0.352777 0.352778,0.352777 0.194027,0 0.352778,-0.15875 0.352778,-0.352777 z m 2.021123,-0.565915 c -0.11723,-0.117237 -0.4215,-0.12977 -0.67616,-0.02786 -0.281422,0.112616 -0.197831,0.196209 0.213138,0.213137 0.371884,0.01532 0.580245,-0.06806 0.46302,-0.185286 z M 46.328813,19.678163 c 0,-0.194028 -0.158751,-0.352778 -0.352778,-0.352778 -0.194028,0 -0.352778,0.15875 -0.352778,0.352778 0,0.194027 0.15875,0.352777 0.352778,0.352777 0.194027,0 0.352778,-0.15875 0.352778,-0.352777 z m 2.293055,0 c -0.119916,-0.194028 -0.367411,-0.352778 -0.549988,-0.352778 -0.182576,0 -0.331956,0.15875 -0.331956,0.352778 0,0.194027 0.247494,0.352777 0.549987,0.352777 0.302493,0 0.451873,-0.15875 0.331957,-0.352777 z m 2.293056,0 c 0,-0.194028 -0.238125,-0.352778 -0.529167,-0.352778 -0.291042,0 -0.529167,0.15875 -0.529167,0.352778 0,0.194027 0.238125,0.352777 0.529167,0.352777 0.291042,0 0.529167,-0.15875 0.529167,-0.352777 z m 7.408333,-0.319751 c 0,-0.175863 -0.3175,-0.236723 -0.705555,-0.135244 -0.388056,0.101478 -0.705556,0.245367 -0.705556,0.31975 0,0.07438 0.3175,0.135245 0.705556,0.135245 0.388055,0 0.705555,-0.143888 0.705555,-0.319751 z M 41.742701,17.737885 c -0.241543,-0.291042 -0.5735,-0.529167 -0.737679,-0.529167 -0.164179,0 -0.207134,0.238125 -0.09545,0.529167 0.111686,0.291041 0.443639,0.529166 0.737679,0.529166 0.435219,0 0.452967,-0.09839 0.09545,-0.529166 z m 3.880556,0.176389 c 0,-0.194028 -0.15875,-0.352778 -0.352778,-0.352778 -0.194028,0 -0.352778,0.15875 -0.352778,0.352778 0,0.194027 0.15875,0.352777 0.352778,0.352777 0.194028,0 0.352778,-0.15875 0.352778,-0.352777 z m 2.293056,0 c -0.119917,-0.194028 -0.367411,-0.352778 -0.549988,-0.352778 -0.182577,0 -0.331957,0.15875 -0.331957,0.352778 0,0.194027 0.247495,0.352777 0.549988,0.352777 0.302493,0 0.451873,-0.15875 0.331957,-0.352777 z m 2.557804,-0.08819 c -0.22226,-0.667522 -1.323082,-0.762423 -1.323082,-0.114061 0,0.327249 0.301625,0.555033 0.734952,0.555033 0.431088,0 0.67425,-0.182321 0.58813,-0.440972 z m 2.910251,-0.08819 c 0,-0.291042 -0.153769,-0.529167 -0.341707,-0.529167 -0.187936,0 -0.250328,0.238125 -0.138646,0.529167 0.111686,0.291041 0.265452,0.529166 0.341708,0.529166 0.07625,0 0.138645,-0.238125 0.138645,-0.529166 z m 2.116667,0.197208 c 0,-0.416228 -0.68804,-0.861482 -0.940742,-0.608783 -0.252698,0.2527 0.192557,0.940741 0.608785,0.940741 0.182577,0 0.331957,-0.149381 0.331957,-0.331958 z m 2.822222,-0.591131 c 0,-0.285371 -0.366225,-0.488022 -0.881944,-0.488022 -0.803381,0 -1.186526,0.636159 -0.68513,1.137557 0.353681,0.35368 1.567074,-0.149259 1.567074,-0.649535 z M 43.153812,16.347593 c 0,-0.08556 -0.15875,-0.253681 -0.352777,-0.373597 -0.194028,-0.119916 -0.352778,-0.04991 -0.352778,0.155569 0,0.205478 0.15875,0.373597 0.352778,0.373597 0.194027,0 0.352777,-0.07001 0.352777,-0.155569 z m 4.137791,-0.05757 c -0.117228,-0.117225 -0.421499,-0.129758 -0.676159,-0.02785 -0.281421,0.112616 -0.19783,0.196209 0.213138,0.213137 0.371884,0.01532 0.580246,-0.06806 0.463021,-0.185287 z m -6.35,-0.352778 c -0.117228,-0.117225 -0.421499,-0.129758 -0.676159,-0.02785 -0.281421,0.112616 -0.19783,0.196209 0.213138,0.213137 0.371884,0.01532 0.580245,-0.06806 0.463021,-0.185287 z m 16.771006,-0.371041 c -0.238841,-0.09663 -0.715091,-0.102516 -1.058333,-0.01307 -0.343242,0.08944 -0.147824,0.168509 0.434259,0.175699 0.582083,0.0072 0.862916,-0.06599 0.624074,-0.162627 z M 46.809165,14.562885 c -0.212185,-0.552939 -1.185908,-0.746045 -1.185908,-0.235186 0,0.430989 0.405465,0.764352 0.929668,0.764352 0.263331,0 0.372661,-0.22578 0.25624,-0.529166 z m -6.124797,0.03774 c 0,-0.07625 -0.238125,-0.230023 -0.529167,-0.341706 -0.291041,-0.111683 -0.529166,-0.04929 -0.529166,0.138646 0,0.187938 0.238125,0.341705 0.529166,0.341705 0.291042,0 0.529167,-0.06239 0.529167,-0.138645 z m 8.466667,-0.214132 c 0,-0.194028 -0.238125,-0.352778 -0.529167,-0.352778 -0.291042,0 -0.529167,0.15875 -0.529167,0.352778 0,0.194027 0.238125,0.352777 0.529167,0.352777 0.291042,0 0.529167,-0.15875 0.529167,-0.352777 z m 3.175,0 c 0,-0.194028 -0.396875,-0.352778 -0.881945,-0.352778 -0.485069,0 -0.881944,0.15875 -0.881944,0.352778 0,0.194027 0.396875,0.352777 0.881944,0.352777 0.48507,0 0.881945,-0.15875 0.881945,-0.352777 z m 1.940278,-0.352778 c -0.119917,-0.194028 -0.367411,-0.352778 -0.549988,-0.352778 -0.182577,0 -0.331957,0.15875 -0.331957,0.352778 0,0.194028 0.247495,0.352778 0.549988,0.352778 0.302493,0 0.451873,-0.15875 0.331957,-0.352778 z m 3.018832,-0.195474 c 0.0011,-0.183531 -0.400096,-0.383925 -0.891198,-0.44532 -0.629959,-0.07875 -0.892912,0.05466 -0.892912,0.453041 0,0.400186 0.259595,0.529903 0.891198,0.44532 0.49016,-0.06564 0.89197,-0.269509 0.892912,-0.453041 z m -13.425777,-0.86286 c 0,-0.194027 -0.15875,-0.352777 -0.352778,-0.352777 -0.194028,0 -0.352778,0.15875 -0.352778,0.352777 0,0.194028 0.15875,0.352778 0.352778,0.352778 0.194028,0 0.352778,-0.15875 0.352778,-0.352778 z m 16.580556,0 c 0,-0.194027 -0.15875,-0.352777 -0.352778,-0.352777 -0.194028,0 -0.352778,0.15875 -0.352778,0.352777 0,0.194028 0.15875,0.352778 0.352778,0.352778 0.194028,0 0.352778,-0.15875 0.352778,-0.352778 z M 46.23327,12.762248 c -0.117228,-0.117225 -0.421499,-0.129758 -0.676159,-0.02785 -0.281421,0.112616 -0.197831,0.196209 0.213138,0.213137 0.371884,0.01532 0.580245,-0.06806 0.463021,-0.185287 z m 2.388598,-0.139641 c -0.119916,-0.194028 -0.446786,-0.352778 -0.726376,-0.352778 -0.279591,0 -0.508346,0.15875 -0.508346,0.352778 0,0.194027 0.32687,0.352777 0.726376,0.352777 0.399507,0 0.628262,-0.15875 0.508346,-0.352777 z m 2.912184,-0.264584 c 0.09104,-0.276456 -0.194775,-0.440972 -0.76612,-0.440972 -0.592843,0 -0.911342,0.193509 -0.911342,0.553703 0,0.663439 1.454027,0.565724 1.677462,-0.112731 z m 2.203094,-0.264583 c 0,-0.291042 -0.238125,-0.529167 -0.529167,-0.529167 -0.550887,0 -0.6999,0.417231 -0.29398,0.823148 0.405917,0.405918 0.823147,0.256908 0.823147,-0.293981 z m 3.175,-0.176389 c 0,-0.194028 -0.47625,-0.352778 -1.058333,-0.352778 -0.582084,0 -1.058334,0.15875 -1.058334,0.352778 0,0.194028 0.47625,0.352778 1.058334,0.352778 0.582083,0 1.058333,-0.15875 1.058333,-0.352778 z M 41.389924,11.211495 c 0,-0.194027 -0.158751,-0.352777 -0.352778,-0.352777 -0.194028,0 -0.352778,0.15875 -0.352778,0.352777 0,0.194028 0.15875,0.352778 0.352778,0.352778 0.194027,0 0.352778,-0.15875 0.352778,-0.352778 z m 2.116666,0 c 0,-0.194027 -0.247495,-0.352777 -0.549987,-0.352777 -0.302493,0 -0.451873,0.15875 -0.331957,0.352777 0.119916,0.194028 0.367411,0.352778 0.549987,0.352778 0.182577,0 0.331957,-0.15875 0.331957,-0.352778 z m 2.23852,-0.191298 c -0.231055,-0.602115 -0.881606,-0.528054 -1.09934,0.125153 -0.07755,0.232642 0.182245,0.418923 0.584238,0.418923 0.507334,0 0.661427,-0.162762 0.515102,-0.544076 z m 14.599271,0.33094 c -0.117228,-0.117225 -0.421499,-0.129758 -0.676158,-0.02785 -0.281422,0.112616 -0.197831,0.196209 0.213137,0.213136 0.371885,0.01532 0.580246,-0.06806 0.463021,-0.185286 z m -12.25168,-0.492419 c 0,-0.194028 -0.238125,-0.352778 -0.529166,-0.352778 -0.291042,0 -0.529167,0.15875 -0.529167,0.352778 0,0.194027 0.238125,0.352777 0.529167,0.352777 0.291041,0 0.529166,-0.15875 0.529166,-0.352777 z m 2.822223,-0.352778 c 0,-0.194028 -0.396875,-0.352778 -0.881945,-0.352778 -0.485069,0 -0.881944,0.15875 -0.881944,0.352778 0,0.194028 0.396875,0.352778 0.881944,0.352778 0.48507,0 0.881945,-0.15875 0.881945,-0.352778 z m 2.116666,-0.352778 c 0,-0.194028 -0.247494,-0.352778 -0.549987,-0.352778 -0.302493,0 -0.451873,0.15875 -0.331957,0.352778 0.119916,0.194028 0.367411,0.352778 0.549988,0.352778 0.182576,0 0.331956,-0.15875 0.331956,-0.352778 z m 2.614955,0.139423 c 0.305795,-0.117345 0.477372,-0.340566 0.381279,-0.496048 -0.222338,-0.359753 -1.585122,-0.01778 -1.585122,0.39777 0,0.363694 0.422335,0.398172 1.203843,0.09828 z m 4.215398,-0.66859 C 59.750257,9.332954 59.517117,9.094829 59.343847,9.094829 c -0.173267,0 -0.315034,0.238125 -0.315034,0.529166 0,0.291042 0.233144,0.529167 0.518096,0.529167 0.315592,0 0.438725,-0.20683 0.315034,-0.529167 z M 45.270479,9.094829 c 0,-0.194028 -0.14938,-0.352778 -0.331957,-0.352778 -0.182576,0 -0.430071,0.15875 -0.549987,0.352778 -0.119917,0.194028 0.02946,0.352778 0.331957,0.352778 0.302492,0 0.549987,-0.15875 0.549987,-0.352778 z m 2.116667,0 c 0,-0.194028 -0.247495,-0.352778 -0.549988,-0.352778 -0.302493,0 -0.451873,0.15875 -0.331957,0.352778 0.119917,0.194028 0.367411,0.352778 0.549988,0.352778 0.182577,0 0.331957,-0.15875 0.331957,-0.352778 z m 2.822222,-0.352778 c 0,-0.194028 -0.406245,-0.352778 -0.902765,-0.352778 -0.512008,0 -0.808391,0.152697 -0.684735,0.352778 0.119916,0.194028 0.526161,0.352778 0.902766,0.352778 0.376604,0 0.684734,-0.15875 0.684734,-0.352778 z m 2.116667,-0.352778 c 0,-0.194028 -0.247495,-0.352778 -0.549988,-0.352778 -0.302493,0 -0.451873,0.15875 -0.331957,0.352778 0.119917,0.194028 0.367411,0.352778 0.549988,0.352778 0.182577,0 0.331957,-0.15875 0.331957,-0.352778 z m 2.77169,0.0387 c 0.349268,-0.221305 0.36854,-0.371323 0.0713,-0.555025 -0.5054,-0.312353 -1.431883,0.01457 -1.431883,0.505258 0,0.440014 0.704049,0.465767 1.360579,0.04977 z M 42.448257,7.642083 c 0,-0.194028 -0.15875,-0.254665 -0.352778,-0.134749 -0.194028,0.119916 -0.352778,0.376778 -0.352778,0.570806 0,0.194028 0.15875,0.254665 0.352778,0.134749 0.194028,-0.119916 0.352778,-0.376778 0.352778,-0.570806 z M 57.264924,8.0365 c 0,-0.194027 -0.15875,-0.352777 -0.352778,-0.352777 -0.194028,0 -0.352778,0.15875 -0.352778,0.352777 0,0.194028 0.15875,0.352778 0.352778,0.352778 0.194028,0 0.352778,-0.15875 0.352778,-0.352778 z m 1.763889,-0.155569 c 0,-0.08556 -0.15875,-0.253681 -0.352778,-0.373597 -0.194028,-0.119916 -0.352778,-0.04991 -0.352778,0.155569 0,0.205478 0.15875,0.373597 0.352778,0.373597 0.194028,0 0.352778,-0.07001 0.352778,-0.155569 z M 44.469381,7.470581 C 44.352153,7.353356 44.047882,7.340823 43.793222,7.442731 43.511801,7.555347 43.595391,7.63894 44.00636,7.655868 c 0.371884,0.01532 0.580245,-0.06806 0.463021,-0.185287 z M 46.857979,7.33094 C 46.738063,7.136912 46.490568,6.978162 46.307992,6.978162 c -0.182577,0 -0.331957,0.15875 -0.331957,0.352778 0,0.194028 0.247494,0.352778 0.549987,0.352778 0.302493,0 0.451873,-0.15875 0.331957,-0.352778 z M 49.327424,6.978162 C 49.207507,6.784134 48.880638,6.625384 48.601047,6.625384 c -0.27959,0 -0.508346,0.15875 -0.508346,0.352778 0,0.194028 0.32687,0.352778 0.726377,0.352778 0.399507,0 0.628262,-0.15875 0.508346,-0.352778 z m 2.293055,-0.352778 c 0,-0.194028 -0.238125,-0.352778 -0.529166,-0.352778 -0.291042,0 -0.529167,0.15875 -0.529167,0.352778 0,0.194028 0.238125,0.352778 0.529167,0.352778 0.291041,0 0.529166,-0.15875 0.529166,-0.352778 z m 2.822223,-0.393922 c 0,-0.171399 -0.391894,-0.311633 -0.870875,-0.311633 -0.598388,0 -0.812017,0.15337 -0.682769,0.490182 0.199464,0.519793 1.553644,0.364167 1.553644,-0.178549 z m 2.116666,0.04115 c 0,-0.194028 -0.15875,-0.352778 -0.352777,-0.352778 -0.194028,0 -0.352778,0.15875 -0.352778,0.352778 0,0.194027 0.15875,0.352777 0.352778,0.352777 0.194027,0 0.352777,-0.15875 0.352777,-0.352777 z M 46.23327,5.706692 C 46.116042,5.589467 45.811771,5.576934 45.557111,5.678842 45.27569,5.791458 45.35928,5.875051 45.770249,5.891979 c 0.371884,0.01532 0.580245,-0.06806 0.463021,-0.185287 z m 2.116666,-0.352778 c -0.117228,-0.117225 -0.421498,-0.129758 -0.676158,-0.02785 -0.281422,0.112616 -0.197831,0.196209 0.213138,0.213137 0.371884,0.01532 0.580245,-0.06806 0.46302,-0.185287 z m 2.469445,-0.352778 c -0.117228,-0.117225 -0.421499,-0.129758 -0.676159,-0.02785 -0.281421,0.112616 -0.19783,0.196209 0.213138,0.213137 0.371884,0.01532 0.580245,-0.06806 0.463021,-0.185287 z m 2.653182,-0.373279 c -0.242535,-0.09786 -0.63941,-0.09786 -0.881945,0 -0.242535,0.09786 -0.0441,0.177936 0.440972,0.177936 0.48507,0 0.683507,-0.08007 0.440973,-0.177936 z m 2.38125,0.07807 c 0,-0.08556 -0.15875,-0.253682 -0.352778,-0.373597 -0.194028,-0.119916 -0.352778,-0.04991 -0.352778,0.155569 0,0.205478 0.15875,0.373597 0.352778,0.373597 0.194028,0 0.352778,-0.07001 0.352778,-0.155569 z M 47.739924,3.814235 c 0,-0.187939 -0.238125,-0.250329 -0.529167,-0.138646 -0.291042,0.111683 -0.529167,0.265451 -0.529167,0.341706 0,0.07626 0.238125,0.138646 0.529167,0.138646 0.291042,0 0.529167,-0.153768 0.529167,-0.341706 z m 2.469444,-0.36385 c 0,-0.194028 -0.3175,-0.352778 -0.705555,-0.352778 -0.388056,0 -0.705556,0.15875 -0.705556,0.352778 0,0.194028 0.3175,0.352778 0.705556,0.352778 0.388055,0 0.705555,-0.15875 0.705555,-0.352778 z M 52.58327,3.237248 C 52.466042,3.120023 52.161771,3.10749 51.907111,3.209398 c -0.281421,0.112616 -0.19783,0.196209 0.213138,0.213137 0.371884,0.01532 0.580245,-0.06806 0.463021,-0.185286 z"
       id="path836" />
  </g>
</svg>
