<?xml version="1.0" encoding="UTF-8" standalone="no"?>
<!-- Created with Inkscape (http://www.inkscape.org/) -->

<svg
   width="278mm"
   height="172mm"
   viewBox="0 0 278 172"
   version="1.1"
   id="svg5"
   inkscape:version="1.1.1 (1:1.1+202109281943+c3084ef5ed)"
   sodipodi:docname="oeilSystemiqueV2.svg"
   xmlns:inkscape="http://www.inkscape.org/namespaces/inkscape"
   xmlns:sodipodi="http://sodipodi.sourceforge.net/DTD/sodipodi-0.dtd"
   xmlns="http://www.w3.org/2000/svg"
   xmlns:svg="http://www.w3.org/2000/svg">
  <sodipodi:namedview
     id="namedview7"
     pagecolor="#505050"
     bordercolor="#eeeeee"
     borderopacity="1"
     inkscape:pageshadow="0"
     inkscape:pageopacity="0"
     inkscape:pagecheckerboard="0"
     inkscape:document-units="mm"
     showgrid="false"
     inkscape:zoom="0.32026164"
     inkscape:cx="434.02013"
     inkscape:cy="29.663247"
     inkscape:window-width="1854"
     inkscape:window-height="978"
     inkscape:window-x="66"
     inkscape:window-y="149"
     inkscape:window-maximized="1"
     inkscape:current-layer="layer1" />
  <defs
     id="defs2" />
  <g
     inkscape:label="Calque 1"
     inkscape:groupmode="layer"
     id="layer1">
    <g
       id="g6982"
       transform="translate(-6.879167,-6.3500003)">
      <path
         id="path880"
         style="fill:#e77364;fill-opacity:1;stroke-width:0.352777"
         d="m 248.33839,6.7380284 c -0.20075,0 -3.70623,2.8087982 -4.02817,3.2277077 -0.3936,0.5121119 -4.27621,1.3527779 -7.76129,1.6805209 -2.03729,0.19159 -6.32354,0.445666 -9.525,0.564306 -9.51343,0.35257 -14.54384,1.596277 -18.8066,4.649848 -2.21097,1.583791 -5.61223,5.293827 -6.23786,6.804235 -0.37761,0.911633 -0.62782,1.065054 -1.73891,1.065054 -2.04527,-3e-6 -2.61074,0.971373 -1.70326,2.925403 0.31671,0.681947 0.70632,0.950396 1.38234,0.952394 1.50828,0.0044 2.05638,-0.357185 2.06138,-1.358056 0.006,-1.222359 1.91781,-4.547129 3.72535,-6.47764 3.16598,-3.381371 6.57252,-5.312989 11.02052,-6.248199 4.51801,-0.949921 5.50492,-1.051164 14.00121,-1.440223 8.81814,-0.403802 12.86795,-1.006931 14.40739,-2.14509 0.84579,-0.625322 1.17212,-0.696939 1.69395,-0.371038 0.71272,0.4451 1.70945,0.518832 2.56729,0.189653 0.84053,-0.322541 0.73725,-2.6507892 -0.15142,-3.4116781 -0.39027,-0.3341713 -0.79843,-0.6071975 -0.90692,-0.6071975 z M 13.267979,15.295646 c -0.206798,-0.02184 -0.476091,0.08473 -0.938953,0.305927 -1.870182,0.89371 -1.205918,3.390473 0.773589,2.907834 0.409019,-0.09972 1.321646,0.06027 2.028295,0.355533 0.70665,0.295249 1.284685,0.44625 1.284685,0.335381 0,-0.110871 0.198781,-0.0453 0.441325,0.145727 0.242517,0.19103 0.847169,0.444109 1.34358,0.56224 0.496385,0.118139 1.528101,0.485497 2.29288,0.816488 0.764778,0.330978 1.549029,0.636212 1.743048,0.678511 1.378664,0.30094 7.994359,1.539486 8.995833,1.684134 1.294448,0.18696 3.456173,0.414435 7.585075,0.797885 3.717317,0.345231 12.250155,0.433396 13.052425,0.134874 0.652092,-0.242639 2.647897,-0.489815 7.585075,-0.939477 4.681405,-0.426368 7.19246,-0.211587 13.758333,1.176674 0.927074,0.196019 1.055053,0.226499 2.469089,0.586009 0.485071,0.12332 1.358371,0.281617 1.940452,0.351917 0.582088,0.07028 1.296458,0.220274 1.5875,0.333314 1.371478,0.53266 3.380083,1.101411 3.637502,1.02991 0.15739,-0.04373 0.713367,0.149135 1.235067,0.428916 0.958879,0.51422 2.048981,0.955227 2.732651,1.105357 0.803029,0.176332 5.672711,3.473717 6.506062,4.405416 2.101289,2.34927 2.520706,3.228575 1.763717,3.696417 -0.62508,0.386318 -0.377309,1.056312 0.617533,1.670182 1.533138,0.946028 3.262849,0.171405 3.262849,-1.460894 0,-0.67401 -0.30548,-1.119645 -1.082622,-1.578716 -0.595508,-0.35174 -1.169728,-0.55213 -1.276405,-0.44545 -0.252331,0.252331 -0.875644,-0.390996 -1.658816,-1.712555 -0.693859,-1.170831 -6.689503,-5.169882 -8.943123,-5.965013 -0.775348,-0.273558 -1.708079,-0.653917 -2.073259,-0.844909 -0.36517,-0.190979 -1.537341,-0.543473 -2.60449,-0.783413 -1.067152,-0.239922 -2.098855,-0.529707 -2.292884,-0.644406 -0.194019,-0.1147 -0.670274,-0.253825 -1.058334,-0.309026 -1.20192,-0.17101 -2.377043,-0.407299 -4.939231,-0.993222 -1.358185,-0.310599 -2.786935,-0.635836 -3.175,-0.722434 -3.036093,-0.677291 -7.090886,-0.808969 -11.464924,-0.372589 -1.455209,0.14518 -3.201803,0.310936 -3.880909,0.367938 -0.679106,0.05701 -1.94892,0.231894 -2.822045,0.389123 -1.891321,0.340579 -6.447658,0.345485 -11.601371,0.01188 -5.707062,-0.369409 -7.343087,-0.55662 -10.976583,-1.25367 -1.067144,-0.204729 -2.651893,-0.450535 -3.521763,-0.546738 -0.869844,-0.09624 -1.734741,-0.328636 -1.922357,-0.516247 -0.187589,-0.1876 -0.759275,-0.341064 -1.270211,-0.341064 -0.510937,0 -1.0482,-0.119062 -1.193721,-0.264583 -0.145521,-0.145516 -0.370364,-0.271563 -0.499719,-0.279564 -0.258842,-0.01656 -2.747883,-0.799606 -3.586321,-1.128097 -0.291041,-0.11402 -0.608912,-0.234717 -0.705908,-0.268719 -1.228778,-0.430318 -2.328545,-1.13306 -2.230358,-1.424718 0.06797,-0.201872 -0.09038,-0.659829 -0.351923,-1.017512 -0.213995,-0.292669 -0.358536,-0.442732 -0.565335,-0.464571 z M 92.95924,135.98239 c -1.275707,0.002 -2.907895,1.4015 -2.592091,2.44895 0.14225,0.47179 -0.09019,0.74311 -0.896586,1.04748 -0.59853,0.22593 -1.088305,0.51359 -1.088305,0.63872 0,0.12513 -0.753719,0.50871 -1.67535,0.85266 -0.921631,0.34396 -1.913993,0.82932 -2.205032,1.07849 -0.291041,0.24916 -1.367689,0.78241 -2.392619,1.18545 -1.02494,0.40303 -2.215555,0.96004 -2.645833,1.23765 -0.430271,0.27763 -2.051701,1.00633 -3.602882,1.61903 -1.551178,0.61271 -2.900156,1.23017 -2.998263,1.37252 -0.233389,0.33884 -4.912254,2.19824 -5.822897,2.31407 -0.388065,0.0494 -1.736646,0.5137 -2.996724,1.03146 -2.376011,0.97629 -7.02654,2.26427 -9.174109,2.54093 -0.679107,0.0875 -1.47283,0.24514 -1.763713,0.35037 -0.290909,0.10522 -1.163717,0.27019 -1.939951,0.36639 -0.776261,0.0963 -1.649916,0.26288 -1.940957,0.37 -0.291042,0.10712 -3.942107,0.25573 -8.113713,0.33073 -8.321304,0.14959 -12.931907,0.37448 -14.79497,0.72089 -2.555082,0.47508 -8.485849,3.33563 -8.48786,4.0938 -3.44e-4,0.1472 -0.386239,0.70265 -0.857832,1.23455 -2.172361,2.45019 -2.715339,3.1825 -3.460247,4.66793 -0.438732,0.87489 -0.877094,1.67034 -0.97409,1.76734 -0.09702,0.097 -0.214895,0.33514 -0.262017,0.52916 -0.0471,0.19403 -0.39923,1.22574 -0.782373,2.29289 -0.383117,1.06715 -0.701967,2.4115 -0.707973,2.98741 -0.0072,0.65801 -0.326469,1.31763 -0.858864,1.77509 -0.7910248,0.67971 -0.814996,0.80396 -0.3668977,1.86965 0.2639483,0.62775 0.8432537,1.27861 1.2877807,1.44642 0.991288,0.37417 1.983079,-0.0935 2.360057,-1.11259 0.339725,-0.91836 -0.292656,-2.73265 -0.952394,-2.73265 -0.344197,0 -0.428916,-0.32509 -0.299191,-1.14618 0.559488,-3.54166 2.743253,-8.22022 4.958847,-10.62364 0.869924,-0.94365 1.862032,-2.08934 2.205038,-2.5461 0.720989,-0.96008 4.317867,-2.82033 6.120553,-3.1657 0.67781,-0.12985 1.629013,-0.31333 2.1141,-0.40773 0.485061,-0.0944 3.659876,-0.22779 7.055379,-0.29558 8.262038,-0.1651 14.181799,-0.42853 14.821826,-0.65991 0.288396,-0.10426 1.11932,-0.27234 1.846924,-0.37362 3.11367,-0.43339 3.915145,-0.591 7.033683,-1.3839 1.806893,-0.45941 4.304956,-1.25053 5.551064,-1.75803 1.246135,-0.50749 2.529523,-0.92294 2.852023,-0.92294 0.713397,0 7.468235,-2.71788 7.740624,-3.11454 0.106786,-0.15552 1.543857,-0.81753 3.193087,-1.47123 1.64924,-0.65371 3.078001,-1.30317 3.175,-1.4428 0.09702,-0.13964 1.287634,-0.69453 2.645833,-1.23301 1.358191,-0.53846 2.548834,-1.07698 2.645833,-1.19682 0.09702,-0.11984 1.093571,-0.66053 2.214851,-1.20199 1.639822,-0.79185 2.226683,-0.91966 2.998785,-0.65216 1.722919,0.59691 3.402899,-0.015 3.64939,-1.32912 0.156329,-0.83342 -0.72971,-3.09207 -1.298631,-3.31039 -0.160956,-0.0618 -0.336071,-0.0898 -0.518313,-0.0894 z m 111.53532,4.33927 c -0.37869,-0.0128 -0.64023,0.15103 -0.94361,0.48627 -0.56848,0.62818 -0.56995,0.73174 -0.0248,1.56373 0.32109,0.49005 0.91251,0.89142 1.31465,0.89142 0.69081,0 2.82933,1.26646 3.067,1.81643 0.0605,0.14 0.89393,0.75768 1.85208,1.37252 0.95815,0.61484 1.74218,1.22037 1.74253,1.34566 7.7e-4,0.28065 3.1621,2.30137 3.73104,2.38487 0.22669,0.0333 0.94832,0.30934 1.60352,0.61391 1.22885,0.57124 2.2157,0.80841 4.82141,1.1591 3.63303,0.48894 15.58563,-2.15239 21.06435,-4.65501 1.30778,-0.59738 6.55952,-1.67211 8.46666,-1.73271 2.28741,-0.0727 7.2256,0.80992 9.80199,1.75235 2.80731,1.02691 5.85581,2.89306 7.83673,4.79712 3.78589,3.63901 7.49697,7.39926 8.29045,8.40001 0.48507,0.61178 1.05137,1.30557 1.25832,1.54202 0.94462,1.07929 1.6038,2.37288 1.38751,2.72283 -0.13046,0.21109 0.0185,0.77403 0.33073,1.25057 0.70748,1.07977 1.45299,1.10624 2.02107,0.0724 0.74333,-1.35285 0.66758,-1.89912 -0.33383,-2.41329 -0.95539,-0.49055 -2.54591,-2.04903 -2.54662,-2.49546 -4.1e-4,-0.22305 -7.4749,-7.76228 -8.585,-8.65942 -0.29071,-0.23493 -0.74005,-0.7124 -0.99891,-1.06143 -0.83334,-1.12361 -6.23279,-4.40426 -8.67957,-5.27358 -2.5078,-0.891 -7.09298,-1.78691 -9.38961,-1.83451 -1.64451,-0.0341 -7.72754,1.20653 -9.21287,1.87895 -3.17853,1.43895 -3.59627,1.56309 -11.46494,3.39721 -4.24835,0.99023 -8.74186,1.39546 -10.58333,0.95446 -2.48123,-0.5942 -3.02778,-0.74679 -3.35173,-0.93586 -0.19403,-0.11324 -0.55132,-0.23595 -0.79427,-0.27285 -0.86029,-0.13051 -3.61528,-1.60847 -3.61528,-1.93941 0,-0.18474 -0.79358,-0.82889 -1.76372,-1.43196 -0.97014,-0.60307 -1.76423,-1.21867 -1.76423,-1.36787 0,-0.1492 -0.55518,-0.61449 -1.23404,-1.03405 -0.97381,-0.60184 -1.19267,-0.92801 -1.03766,-1.54564 0.14605,-0.58193 -0.0128,-0.88368 -0.61805,-1.17461 -0.77338,-0.37171 -1.26927,-0.56129 -1.64796,-0.57412 z" />
      <path
         id="path15074"
         style="fill:#7ab892;fill-opacity:1;stroke:none;stroke-width:0.352777;stroke-opacity:1"
         d="m 191.72811,34.882727 c -1.64235,0.0306 -3.48199,1.4433 -2.8174,2.6851 0.79971,1.49426 3.13379,1.72228 4.16823,0.40722 0.95069,-1.20859 0.92556,-2.10159 -0.077,-2.75849 -0.36965,-0.2422 -0.81396,-0.34238 -1.27383,-0.33383 z m -89.86118,7.23056 c -1.40042,0.0231 -3.30677,1.36491 -3.30677,2.85927 0,1.34274 0.894,2.33241 1.92804,2.13474 0.53872,-0.10298 0.89452,-0.009 0.89452,0.23514 0,0.58822 1.29971,-0.16286 1.75545,-1.01442 0.46509,-0.86902 0.46274,-2.69322 -0.004,-3.56618 -0.24864,-0.46459 -0.71912,-0.65757 -1.26711,-0.64855 z M 77.39866,82.237951 c -0.41109,-0.008 -0.90718,0.21539 -1.52756,0.656797 -1.57027,1.11725 -1.88882,1.98702 -1.14463,3.1228 0.73854,1.12715 1.84546,1.08828 3.29644,-0.11576 1.09067,-0.90503 1.13495,-1.02907 0.75654,-2.1146 -0.36045,-1.03397 -0.77996,-1.537997 -1.38079,-1.549237 z m -38.80487,28.584809 -1.45107,0.81545 c -1.48666,0.83555 -2.78846,2.3174 -2.78846,3.1745 0,0.63971 1.72256,1.68166 2.79931,1.69343 0.47232,0.005 1.52969,-0.31564 2.34973,-0.71262 2.30007,-1.11345 2.30555,-1.50313 0.0574,-3.92793 z m 61.92645,14.4358 c -1.07513,0.0125 -1.80488,1.13954 -1.64796,2.79932 0.0412,0.4359 1.66982,1.47018 2.35541,1.49603 0.20595,0.008 0.72155,-0.30924 1.14619,-0.70487 1.27947,-1.192 0.85177,-2.56823 -1.06092,-3.41374 -0.27823,-0.12298 -0.54461,-0.1796 -0.79272,-0.17674 z m 88.09953,5.12374 c -0.22841,-4.8e-4 -0.49746,0.012 -0.81958,0.0346 -0.96294,0.0675 -1.97264,0.30724 -2.24379,0.53227 -0.63381,0.52601 -0.33219,1.67084 0.61495,2.33423 0.92546,0.64823 1.42071,0.65045 2.65461,0.0124 1.56681,-0.81023 1.87474,-1.35999 1.25678,-2.24224 -0.34953,-0.49903 -0.64719,-0.66958 -1.46297,-0.67127 z m -40.07507,26.41441 c -0.8139,0.0217 -1.30121,0.83219 -1.30121,2.37037 0,0.80479 0.24046,1.20105 0.96997,1.59682 1.21285,0.65796 1.03313,0.66119 2.22777,-0.0444 1.5554,-0.91879 1.59487,-1.5443 0.18086,-2.84015 -0.81114,-0.74334 -1.52051,-1.09749 -2.07739,-1.08259 z" />
      <path
         style="fill:#000000;stroke-width:0.352778"
         d="m 147.19888,161.81253 c -1.0564,-0.59905 -1.22341,-0.9984 -1.22932,-2.93954 -0.006,-1.87708 0.70688,-3.34169 1.62587,-3.34169 0.34063,0 0.46829,-0.22278 0.35377,-0.61736 -0.0985,-0.33955 -0.36301,-1.33174 -0.58771,-2.20486 -0.2247,-0.87313 -0.77977,-2.69875 -1.23348,-4.05695 -0.45372,-1.35819 -1.24865,-4.21569 -1.76652,-6.35 -0.51787,-2.1343 -1.41326,-5.46805 -1.98975,-7.40833 -0.57649,-1.94028 -1.49921,-5.19465 -2.05049,-7.23194 -0.55129,-2.0373 -1.17403,-4.15107 -1.38388,-4.69727 -0.20985,-0.54621 -0.38155,-1.39663 -0.38155,-1.88983 0,-0.60561 -0.15382,-0.83769 -0.47383,-0.7149 -0.26061,0.10001 -1.72903,0.37413 -3.26318,0.60916 -3.83685,0.58781 -3.67131,0.49332 -3.67131,2.09566 0,1.02897 -0.1463,1.42218 -0.52917,1.42218 -0.39004,0 -0.52916,-0.40733 -0.52916,-1.54926 0,-1.73488 -0.0548,-1.76786 -3.88056,-2.33397 -1.06715,-0.15791 -2.19864,-0.39018 -2.51441,-0.51615 -0.44552,-0.17774 -0.62691,0.0523 -0.80973,1.02683 -0.15214,0.811 -0.43337,1.25588 -0.79388,1.25588 -0.45293,0 -0.51605,-0.26398 -0.33454,-1.39908 l 0.22372,-1.39909 -3.08905,-0.91678 c -1.69899,-0.50422 -3.26887,-0.97375 -3.48862,-1.04339 -0.21975,-0.0696 -0.68043,0.49625 -1.02372,1.25753 -0.62023,1.37542 -1.57534,1.88316 -1.57534,0.83746 0,-0.30068 0.23242,-0.99613 0.51649,-1.54546 l 0.51648,-0.99877 -3.01785,-1.13901 c -1.79121,-0.67605 -3.14707,-1.00979 -3.33576,-0.8211 -0.17485,0.17485 -1.35111,2.05478 -2.6139,4.17763 -2.24999,3.78238 -2.87661,5.81228 -1.7942,5.81228 0.62605,0 1.39034,2.21515 1.09037,3.16026 -0.37264,1.17408 -1.91358,2.13141 -3.43078,2.13141 -1.06669,0 -1.63091,-0.24024 -2.42187,-1.0312 -1.11577,-1.11577 -1.21518,-1.64371 -0.67537,-3.58697 0.35541,-1.27945 1.44071,-2.08461 2.80991,-2.08461 0.45415,0 0.93754,-0.58362 1.53404,-1.85208 0.47902,-1.01865 1.66705,-3.12209 2.64007,-4.67431 l 1.76913,-2.82222 -2.61958,-1.02659 -2.61958,-1.02659 -0.87657,0.8235 c -0.48212,0.45293 -0.87658,1.03396 -0.87658,1.29117 0,0.25722 -0.3175,0.46768 -0.70555,0.46768 -0.38806,0 -0.70556,-0.21672 -0.70556,-0.48159 0,-0.26488 0.3175,-0.88523 0.70556,-1.37856 0.38805,-0.49334 0.70555,-0.97215 0.70555,-1.06403 0,-0.33501 -3.18083,-0.95638 -4.89575,-0.95638 -2.21252,0 -3.58575,-0.50971 -3.8236,-1.41922 -0.10142,-0.38784 -0.57279,-0.80264 -1.04748,-0.92178 -1.1782,-0.29571 -10.56302,0.44028 -16.16233,1.2675 -2.52236,0.37264 -7.99924,0.93437 -12.17084,1.24828 -7.10605,0.53472 -18.19389,1.8194 -18.78541,2.17656 -0.14552,0.0879 -0.26458,0.52265 -0.26458,0.96619 0,1.52445 -2.68765,3.03247 -5.40456,3.03247 -1.83466,0 -3.88661,-1.21322 -4.05752,-2.39903 -0.16988,-1.17859 1.2541,-3.20128 3.05997,-4.34653 2.05722,-1.30465 3.37054,-1.31146 4.58487,-0.0237 0.51441,0.54548 1.2067,1.09367 1.53842,1.21818 0.33172,0.12452 3.03047,-0.0797 5.99722,-0.45376 2.96675,-0.37409 8.5691,-0.92836 12.44965,-1.23171 3.88056,-0.30336 9.99243,-0.94121 13.58194,-1.41747 3.58952,-0.47625 8.77402,-0.96934 11.52113,-1.09576 4.77351,-0.21965 5.01443,-0.26664 5.43947,-1.06083 0.24461,-0.45705 0.69572,-0.83761 1.00249,-0.84569 0.30676,-0.008 1.15082,-0.5389 1.8757,-1.17962 l 1.31795,-1.16494 -7.45573,-7.198842 c -8.42407,-8.13382 -9.48775,-8.98923 -10.50256,-8.44612 -1.09611,0.58662 -2.01082,0.42856 -3.17138,-0.54798 -2.01934,-1.69917 -1.10207,-4.966337 1.72283,-6.136457 1.46282,-0.60591 2.7311,-0.19515 3.55139,1.1502 0.77197,1.266087 0.93331,3.644977 0.26237,3.868617 -0.23846,0.0795 1.54747,2.0374 3.96875,4.35092 2.42127,2.31353 6.2134,5.97016 8.42695,8.12585 l 4.02463,3.919442 1.61981,-1.01001 c 0.8909,-0.5555 2.05739,-1.36675 2.59221,-1.802772 l 0.9724,-0.79278 -1.30514,-1.94028 c -0.71783,-1.06715 -1.90947,-2.83864 -2.6481,-3.93663 -1.46674,-2.18037 -1.66069,-2.87907 -0.75055,-2.7038 0.32582,0.0627 1.58168,1.59409 2.79081,3.40297 3.44316,5.15104 2.84965,4.88263 6.52029,2.9488 1.72423,-0.90839 3.13818,-1.86605 3.14212,-2.12813 0.009,-0.58148 -3.40087,-7.41779 -4.08691,-8.19432 -0.68734,-0.77801 -0.61303,-1.38333 0.16982,-1.38333 0.65316,0 1.55488,1.48136 4.44904,7.30889 l 1.08943,2.19361 1.04497,-0.63365 c 0.57474,-0.3485 2.34983,-1.16643 3.94464,-1.81763 2.15561,-0.88019 2.80878,-1.29352 2.54546,-1.6108 -1.17738,-1.41865 -3.57657,-7.25055 -10.43795,-25.372367 -1.19142,-3.14669 -3.50017,-8.68282 -4.04582,-9.70138 -0.15591,-0.29105 -0.68738,-1.69256 -1.18106,-3.11449 -1.26569,-3.64554 -1.46392,-3.94107 -2.64349,-3.94107 -1.85987,0 -3.28552,-2.64778 -2.47684,-4.6001 0.74361,-1.79524 2.27112,-2.80824 4.2346,-2.80824 2.22282,0 2.81516,0.76354 2.81516,3.62878 0,1.78308 -0.13068,2.18832 -0.97014,3.0083 l -0.97014,0.94765 0.98855,2.82222 c 0.54369,1.55222 1.11378,3.06035 1.26685,3.35139 0.56185,1.06825 2.87196,6.61468 4.04066,9.70139 6.26082,16.53564 7.74556,20.226047 9.48147,23.566797 1.10743,2.13121 1.5588,2.69994 1.9987,2.51833 0.31253,-0.12903 2.05658,-0.31895 3.87568,-0.42205 l 3.30744,-0.18746 -0.23293,-2.33087 c -0.81512,-8.156727 -0.6464,-10.621137 0.72715,-10.621137 0.4274,0 0.49156,0.18567 0.27432,0.79375 -0.36837,1.03109 -0.36751,4.90946 0.002,8.907637 l 0.29342,3.175 h 3.98308 c 3.96905,0 3.98367,-0.003 4.14955,-0.88195 0.4246,-2.24959 2.28177,-9.079527 2.66196,-9.789577 0.43073,-0.80447 1.4585,-1.10287 1.4585,-0.42345 0,0.20366 -0.21878,0.79897 -0.48618,1.32291 -0.26739,0.52394 -0.74946,2.14325 -1.07125,3.598457 -0.3218,1.4552 -0.83357,3.41018 -1.13727,4.34438 -0.3037,0.9342 -0.46801,1.78271 -0.36515,1.88558 0.21368,0.21368 7.62663,2.23592 8.19799,2.23639 0.20659,1.7e-4 0.65928,-0.595 1.00598,-1.3226 0.96068,-2.01619 4.39549,-7.16917 5.2599,-7.89103 1.63252,-1.363307 2.31509,-0.354467 0.75303,1.113 -0.89543,0.84121 -3.78297,5.15871 -4.87588,7.2905 l -0.57924,1.12983 1.49973,0.70369 c 0.82485,0.38704 2.34108,1.1883 3.3694,1.78059 1.02832,0.59229 2.00362,1.07689 2.16734,1.07689 0.56008,0 6.6699,-9.81853 11.30551,-18.168057 1.29268,-2.32833 3.27471,-5.82083 4.40452,-7.76111 1.12981,-1.94028 3.30086,-5.87503 4.82455,-8.7439 1.5237,-2.86886 3.4623,-6.28199 4.308,-7.58472 0.8457,-1.30273 3.00845,-4.74985 4.8061,-7.66027 1.79766,-2.91041 3.48957,-5.54558 3.75982,-5.85593 0.42085,-0.4833 0.41478,-0.71108 -0.0423,-1.5875 -0.29349,-0.56278 -0.5346,-1.3451 -0.53579,-1.73849 -0.008,-2.61956 4.82392,-4.45738 6.63911,-2.5252 1.49074,1.58682 0.62643,5.01483 -1.36481,5.41308 -0.57373,0.11474 -1.04314,0.33795 -1.04314,0.49601 0,0.15806 -0.58256,0.33665 -1.29456,0.39687 -1.26281,0.10681 -1.3837,0.25223 -4.92983,5.93033 -1.99941,3.20146 -4.28239,6.82313 -5.07329,8.04816 -0.7909,1.22503 -2.80253,4.7969 -4.47027,7.9375 -1.66775,3.14059 -3.40597,6.30233 -3.86272,7.02608 -0.45686,0.72375 -0.83057,1.40159 -0.83057,1.50632 0,0.10472 -0.42815,0.86194 -0.95146,1.6827 -0.52331,0.82076 -2.00537,3.3973 -3.29349,5.72563 -2.87109,5.189657 -7.27721,12.541527 -9.54946,15.933857 l -1.69352,2.52829 0.953,0.61298 c 0.52414,0.33715 1.89782,1.32585 3.05262,2.19713 1.15479,0.871282 2.15227,1.426192 2.21662,1.233152 0.0643,-0.19305 0.65526,-1.208242 1.31315,-2.255982 0.65787,-1.04774 1.64477,-2.65889 2.19309,-3.58032 1.01757,-1.70998 1.8789,-2.18498 1.8789,-1.03616 0,0.35195 -0.7388,1.74101 -1.64177,3.08681 -0.90298,1.3458 -1.85679,2.960892 -2.11959,3.589102 -0.47287,1.13037 -0.46255,1.15326 0.99664,2.21029 0.81095,0.58745 2.16911,1.41502 3.01813,1.83904 1.28986,0.64419 1.52644,0.91882 1.43888,1.67027 -0.0851,0.73011 -0.61774,1.15979 -2.83108,2.2837 l -2.72629,1.38438 1.13879,0.68787 c 0.62633,0.37834 2.62976,2.05724 4.45206,3.7309 4.25661,3.90942 8.5202,7.56167 11.17118,9.56941 1.15286,0.87312 2.28553,1.8396 2.51706,2.14772 0.23152,0.30812 0.98853,0.99313 1.68224,1.52225 1.01547,0.77454 1.67913,0.97552 3.40536,1.03125 1.86571,0.0602 2.25418,0.19722 2.99207,1.05506 1.06135,1.23389 1.08006,2.37602 0.0542,3.31036 -1.86226,1.6962 -4.12391,2.01353 -5.67194,0.79585 -1.02385,-0.80536 -1.5978,-2.89946 -0.99406,-3.62692 0.29124,-0.35093 -0.0951,-0.91998 -1.63571,-2.40895 -1.10937,-1.07222 -2.81079,-2.56972 -3.78092,-3.32777 -2.4586,-1.92111 -6.47996,-5.3921 -10.65935,-9.20047 -1.95172,-1.77846 -4.04274,-3.4891 -4.6467,-3.80142 -0.60397,-0.31232 -1.09812,-0.72453 -1.09812,-0.91601 0,-0.19148 -1.14615,0.22904 -2.547,0.93449 l -2.547,1.28265 1.31228,0.52341 c 0.86805,0.34622 1.31228,0.74947 1.31228,1.19123 0,0.3673 -0.10863,0.66782 -0.2414,0.66782 -0.50992,0 -3.28638,-1.48847 -3.28638,-1.76184 0,-0.15829 -1.65948,0.4115 -3.68773,1.26619 -2.02826,0.85469 -3.85388,1.55399 -4.05695,1.55399 -0.60723,0 -0.42751,0.36802 0.68912,1.41111 1.08167,1.01043 1.40886,2.12601 0.61737,2.10491 -0.24254,-0.006 -0.9966,-0.60959 -1.6757,-1.34029 l -1.23472,-1.32854 -3.61538,1.2521 c -3.91719,1.35662 -4.09066,1.55968 -3.23502,3.78677 0.20985,0.54621 0.83572,2.65998 1.39082,4.69727 0.5551,2.03729 1.34293,4.81542 1.75072,6.17361 0.4078,1.3582 1.43449,5.1682 2.28153,8.46667 0.84704,3.29847 1.85313,6.79097 2.23575,7.76111 0.38262,0.97014 0.88445,2.6767 1.11517,3.79236 0.23072,1.11566 0.55367,2.02847 0.71767,2.02847 0.164,0 0.9465,0.60454 1.73888,1.34343 1.12169,1.04596 1.44069,1.60046 1.44069,2.50429 0,2.37941 -3.25799,4.03954 -5.46805,2.78629 z m 3.02131,-1.23548 c 1.5554,-0.9188 1.59533,-1.54421 0.18132,-2.84005 -1.99666,-1.8298 -3.37902,-1.30303 -3.37902,1.28762 0,0.80478 0.24064,1.20081 0.97014,1.59657 1.21286,0.65798 1.03292,0.66155 2.22756,-0.0441 z m 38.38509,-27.42388 c 1.5668,-0.81022 1.87481,-1.35963 1.25685,-2.24188 -0.44739,-0.63874 -0.81015,-0.73993 -2.28272,-0.63675 -0.96294,0.0675 -1.97267,0.30681 -2.24383,0.53186 -0.63381,0.52601 -0.33222,1.6709 0.61492,2.3343 0.92546,0.64822 1.42088,0.65055 2.65478,0.0125 z m -86.45209,-4.44672 c 1.27948,-1.19201 0.85172,-2.56841 -1.06097,-3.41391 -1.48389,-0.65595 -2.63403,0.57982 -2.44091,2.62263 0.0412,0.43591 1.66976,1.47059 2.35536,1.49645 0.20594,0.008 0.72188,-0.30956 1.14652,-0.70517 z m 37.59069,-10.35347 c 4.56049,-1.52362 10.8806,-4.00315 14.68694,-5.76204 1.06715,-0.49312 3.28965,-1.53007 4.93889,-2.30433 1.64923,-0.77426 3.61619,-1.62739 4.37101,-1.89584 0.75482,-0.26845 1.91012,-0.82042 2.56734,-1.2266 l 1.19494,-0.73852 -1.86178,-1.13886 c -2.97219,-1.8181 -4.30742,-2.70757 -7.58595,-5.0534 -1.69483,-1.212682 -3.36242,-2.204872 -3.70576,-2.204872 -0.34334,0 -0.62424,-0.2113 -0.62424,-0.46955 0,-0.25825 -0.43657,-0.6946 -0.97014,-0.96966 -0.53358,-0.27506 -1.84327,-0.99879 -2.91042,-1.60831 -1.06715,-0.60951 -2.39692,-1.2131 -2.95504,-1.34131 -0.87752,-0.20159 -0.98129,-0.1472 -0.76728,0.40216 1.02626,2.6345 1.33019,5.10312 1.18551,9.629092 -0.13508,4.22542 -0.25665,4.98407 -1.07438,6.70481 -1.63995,3.45089 -6.03044,7.13195 -10.17639,8.53206 -1.14807,0.38771 -2.08741,0.76973 -2.08741,0.84893 0,0.38576 1.53412,0.0128 5.77416,-1.40376 z m -5.00297,-0.28689 c 4.81295,-1.85282 8.47105,-4.71418 10.15352,-7.94206 1.94014,-3.72225 1.92332,-11.086662 -0.0354,-15.499242 -0.77538,-1.74674 -0.8686,-1.82215 -2.75909,-2.23159 -1.07613,-0.23307 -2.59921,-0.63519 -3.38463,-0.89361 -2.31622,-0.76209 -5.97646,-0.93688 -11.80112,-0.56355 -6.97016,0.44675 -9.8235,1.25272 -11.73188,3.31383 -2.4224,2.61626 -4.03647,7.583192 -3.46516,10.663182 0.63919,3.44587 3.19867,7.40166 6.29516,9.72942 1.1125,0.83629 2.22586,1.7199 2.47416,1.96357 0.78395,0.76934 7.44391,2.49721 9.84474,2.55414 0.88909,0.0211 2.64389,-0.4143 4.40972,-1.09409 z m -7.62516,-13.1836 c -0.75813,-0.75813 -0.71939,-3.07126 0.063,-3.76142 0.33955,-0.29952 1.14447,-0.65669 1.78871,-0.79371 1.36568,-0.29046 1.98823,0.30453 2.35754,2.25318 0.19554,1.03176 0.0874,1.31529 -0.76873,2.01579 -1.16186,0.95064 -2.65209,1.07458 -3.44052,0.28616 z m -7.96269,12.40462 c 0,-0.0793 -1.01787,-0.94408 -2.26191,-1.92174 -3.28669,-2.5829 -5.86398,-6.73888 -6.37586,-10.28129 -0.32391,-2.24161 0.36653,-6.013952 1.54656,-8.449992 l 1.00517,-2.07506 -2.65142,1.20829 c -1.45828,0.66456 -3.53809,1.72301 -4.62179,2.35211 -1.0837,0.6291 -2.25325,1.25829 -2.59898,1.39819 -0.68013,0.27522 -5.62458,3.434552 -5.91401,3.778842 -0.097,0.1154 -1.00164,0.89026 -2.01029,1.72191 -1.00865,0.83164 -1.93216,1.82165 -2.05224,2.20001 -0.12009,0.37836 -0.52515,0.68792 -0.90013,0.68792 -0.81405,0 -0.89577,0.79434 -0.14576,1.4168 0.29481,0.24468 1.922,0.5761 3.61597,0.73651 3.19288,0.30235 4.65615,0.73683 12.95773,3.8475 2.71639,1.01785 6.12951,2.21077 7.58472,2.65093 1.45521,0.44016 2.68553,0.8167 2.73404,0.83677 0.0485,0.0201 0.0882,-0.0284 0.0882,-0.1077 z M 39.28237,115.6512 c 2.30008,-1.11345 2.30579,-1.50308 0.0576,-3.92789 l -0.96721,-1.04322 -1.45111,0.81557 c -1.48665,0.83555 -2.78807,2.31728 -2.78807,3.17436 0,0.63972 1.72228,1.68179 2.79904,1.69356 0.47231,0.005 1.52969,-0.31541 2.34972,-0.71238 z m 38.5196,-29.891992 c 1.09066,-0.90504 1.13505,-1.02911 0.75664,-2.11463 -0.60706,-1.741417 -1.38103,-1.978917 -2.90811,-0.89238 -1.57027,1.11726 -1.88915,1.98698 -1.14496,3.12276 0.73854,1.12715 1.84544,1.08828 3.29643,-0.11575 z m 25.11521,-39.573907 c 0.46509,-0.86903 0.46288,-2.69311 -0.004,-3.56608 -0.88402,-1.65184 -4.57368,0.13149 -4.57368,2.21062 0,1.34273 0.89365,2.33232 1.9277,2.13465 0.53871,-0.10298 0.89452,-0.009 0.89452,0.23532 0,0.58823 1.30006,-0.16295 1.7558,-1.01451 z m 89.94081,-8.35296 c 0.95069,-1.2086 0.92586,-2.10164 -0.0767,-2.75854 -1.68982,-1.10721 -4.94188,0.76188 -4.0912,2.35139 0.7997,1.49424 3.13345,1.72222 4.16789,0.40715 z"
         id="path1074" />
      <g
         id="g8923"
         style="fill:#7ab892;fill-opacity:1;stroke:none"
         transform="translate(10.92961,-666.94785)">
        <g
           id="g2682"
           transform="translate(16.883884,145.73132)"
           style="fill:#7ab892;fill-opacity:1;stroke:none">
          <path
             style="fill:#7ab892;fill-opacity:1;stroke:none;stroke-width:0.352778;stroke-opacity:1"
             d="m 148.66588,558.22471 c 0,-0.30168 0.74389,-0.62986 1.99911,-0.88194 2.66824,-0.53586 4.35089,-0.5166 4.35089,0.0498 0,0.29074 -0.97366,0.60449 -2.73697,0.88194 -3.43088,0.53985 -3.61303,0.53734 -3.61303,-0.0498 z"
             id="path2190-5" />
          <path
             style="fill:#7ab892;fill-opacity:1;stroke:none;stroke-width:0.352778;stroke-opacity:1"
             d="m 137.02421,558.98426 c 0,-0.39729 0.5981,-0.58783 2.38125,-0.75861 1.30969,-0.12543 2.97656,-0.32774 3.70417,-0.44959 1.04379,-0.1748 1.32291,-0.10883 1.32291,0.31264 0,0.67654 -0.86895,0.90746 -4.49791,1.19528 -2.45756,0.19492 -2.91042,0.14828 -2.91042,-0.29972 z"
             id="path2188-6" />
          <path
             style="fill:#7ab892;fill-opacity:1;stroke:none;stroke-width:0.352778;stroke-opacity:1"
             d="m 127.14643,559.98283 c 0,-0.33522 0.8264,-0.60919 2.66025,-0.88194 3.40106,-0.50584 3.68975,-0.49823 3.68975,0.0973 0,0.32923 -0.7419,0.62215 -2.23375,0.88195 -3.00288,0.52292 -4.11625,0.49661 -4.11625,-0.0973 z"
             id="path2184-9" />
          <path
             style="fill:#7ab892;fill-opacity:1;stroke:none;stroke-width:0.352778;stroke-opacity:1"
             d="m 114.79921,561.04658 c 0,-0.33148 0.68493,-0.5484 2.20486,-0.69827 1.21268,-0.11958 2.95893,-0.32071 3.88056,-0.44696 1.33746,-0.18322 1.67569,-0.12579 1.67569,0.28452 0,0.35307 -0.70329,0.64366 -2.24553,0.92783 -3.10942,0.57293 -5.51558,0.54365 -5.51558,-0.0671 z"
             id="path2182-4" />
          <path
             style="fill:#7ab892;fill-opacity:1;stroke:none;stroke-width:0.352778;stroke-opacity:1"
             d="m 102.09921,561.40132 c 0,-0.32684 0.68856,-0.55088 2.16842,-0.70556 3.45738,-0.36136 4.88714,-0.288 4.88714,0.25076 0,0.33987 -0.77755,0.54313 -2.69906,0.70555 -3.8188,0.32281 -4.3565,0.29186 -4.3565,-0.25075 z"
             id="path2180-8" />
          <path
             style="fill:#7ab892;fill-opacity:1;stroke:none;stroke-width:0.352778;stroke-opacity:1"
             d="m 91.163099,561.7541 c 0,-0.32684 0.68856,-0.55088 2.16842,-0.70556 3.37137,-0.35238 4.53436,-0.28787 4.53436,0.25151 0,0.33291 -0.7233,0.54646 -2.38125,0.70305 -3.54629,0.33492 -4.32153,0.29025 -4.32153,-0.249 z"
             id="path2178-1" />
          <path
             style="fill:#7ab892;fill-opacity:1;stroke:none;stroke-width:0.352778;stroke-opacity:1"
             d="m 78.463109,562.84401 c 0,-0.77177 0.82544,-0.99576 4.49791,-1.22052 2.75302,-0.16848 3.2632,-0.11704 3.2632,0.32901 0,0.40576 -0.63578,0.57877 -2.73403,0.74398 -1.50372,0.1184 -3.24997,0.32052 -3.88056,0.44916 -0.89271,0.18212 -1.14652,0.11534 -1.14652,-0.30163 z"
             id="path2176-2" />
        </g>
        <g
           id="g2691"
           transform="translate(16.883884,145.73132)"
           style="fill:#7ab892;fill-opacity:1;stroke:none">
          <path
             style="fill:#7ab892;fill-opacity:1;stroke:none;stroke-width:0.352778;stroke-opacity:1"
             d="m 165.12356,572.19898 c -0.3624,-3.83729 -0.29159,-5.37986 0.24697,-5.37986 0.34381,0 0.5401,0.81213 0.70344,2.91041 0.32818,4.21577 0.2958,4.8507 -0.24736,4.8507 -0.33291,0 -0.54646,-0.7233 -0.70305,-2.38125 z"
             id="path2174-9" />
          <path
             style="fill:#7ab892;fill-opacity:1;stroke:none;stroke-width:0.352778;stroke-opacity:1"
             d="m 165.01918,587.19794 c -0.14788,-0.23928 -0.33542,-1.82678 -0.41675,-3.52777 -0.12307,-2.57421 -0.0595,-3.09272 0.37913,-3.09272 0.40547,0 0.57169,0.63048 0.72082,2.73403 0.1066,1.50371 0.30426,3.09121 0.43924,3.52778 0.18196,0.58846 0.10332,0.79375 -0.30406,0.79375 -0.30222,0 -0.67049,-0.19578 -0.81838,-0.43507 z"
             id="path2168-0" />
          <path
             style="fill:#7ab892;fill-opacity:1;stroke:none;stroke-width:0.352778;stroke-opacity:1"
             d="m 164.54087,595.92328 c 0,-2.43024 0.1003,-2.99861 0.52917,-2.99861 0.42887,0 0.52917,0.56837 0.52917,2.99861 0,2.43025 -0.1003,2.99861 -0.52917,2.99861 -0.42887,0 -0.52917,-0.56836 -0.52917,-2.99861 z"
             id="path2164-8" />
          <path
             style="fill:#7ab892;fill-opacity:1;stroke:none;stroke-width:0.352778;stroke-opacity:1"
             d="m 163.12976,607.74134 c 0,-2.58704 0.098,-3.175 0.52917,-3.175 0.43117,0 0.52917,0.58796 0.52917,3.175 0,2.58703 -0.098,3.175 -0.52917,3.175 -0.43117,0 -0.52917,-0.58797 -0.52917,-3.175 z"
             id="path2160-0" />
          <path
             style="fill:#7ab892;fill-opacity:1;stroke:none;stroke-width:0.352778;stroke-opacity:1"
             d="m 162.07143,619.91217 c 0,-2.74383 0.0959,-3.35139 0.52917,-3.35139 0.43323,0 0.52916,0.60756 0.52916,3.35139 0,2.74383 -0.0959,3.35139 -0.52916,3.35139 -0.43324,0 -0.52917,-0.60756 -0.52917,-3.35139 z"
             id="path2152-8" />
          <path
             style="fill:#7ab892;fill-opacity:1;stroke:none;stroke-width:0.352778;stroke-opacity:1"
             d="m 161.84152,632.1712 c 0.12369,-1.30969 0.22602,-2.81781 0.2274,-3.35139 0.002,-0.62605 0.1902,-0.97014 0.53168,-0.97014 0.58926,0 0.68929,1.61442 0.30057,4.85069 -0.15801,1.3155 -0.37631,1.85209 -0.7535,1.85209 -0.44263,0 -0.4936,-0.39644 -0.30615,-2.38125 z"
             id="path2148-6" />
          <path
             style="fill:#7ab892;fill-opacity:1;stroke:none;stroke-width:0.352778;stroke-opacity:1"
             d="m 160.89551,645.95893 c -0.12936,-0.12935 -0.23519,-1.5581 -0.23519,-3.175 0,-2.37799 0.10113,-2.93982 0.52917,-2.93982 0.41763,0 0.53018,0.50192 0.53398,2.38125 0.003,1.30969 0.10054,2.73844 0.21754,3.175 0.14899,0.556 0.0595,0.79375 -0.2988,0.79375 -0.28134,0 -0.61735,-0.10583 -0.7467,-0.23518 z"
             id="path2140-9" />
        </g>
        <g
           id="g2716"
           transform="translate(16.883884,145.73132)"
           style="fill:#7ab892;fill-opacity:1;stroke:none">
          <g
             id="g2673"
             style="fill:#7ab892;fill-opacity:1;stroke:none">
            <path
               style="fill:#7ab892;fill-opacity:1;stroke:none;stroke-width:0.352778;stroke-opacity:1"
               d="m 65.057551,576.02986 c 0,-0.17283 0.314014,-1.00627 0.697808,-1.85208 0.383794,-0.84581 0.701294,-1.89502 0.705556,-2.33158 0.0046,-0.46693 0.225629,-0.79375 0.536913,-0.79375 0.755513,0 0.669735,1.94924 -0.166888,3.79236 -0.374774,0.82564 -0.926073,1.49931 -1.226975,1.49931 -0.300528,0 -0.546414,-0.14142 -0.546414,-0.31426 z"
               id="path2172-3" />
            <path
               style="fill:#7ab892;fill-opacity:1;stroke:none;stroke-width:0.352778;stroke-opacity:1"
               d="m 59.765885,584.38376 c 0,-0.79078 2.288737,-4.86202 2.734027,-4.86334 0.719124,-0.002 0.51023,1.00472 -0.666513,3.21251 -1.004542,1.88472 -2.067514,2.73346 -2.067514,1.65083 z"
               id="path2170-9" />
            <path
               style="fill:#7ab892;fill-opacity:1;stroke:none;stroke-width:0.352778;stroke-opacity:1"
               d="m 54.474219,593.62142 c 0,-0.84837 2.520787,-5.28286 3.003045,-5.28286 0.764141,0 0.663857,0.4469 -0.714425,3.18381 -0.69869,1.38741 -1.468024,2.46064 -1.763888,2.46064 -0.288604,0 -0.524732,-0.16272 -0.524732,-0.36159 z"
               id="path2166-8" />
            <path
               style="fill:#7ab892;fill-opacity:1;stroke:none;stroke-width:0.352778;stroke-opacity:1"
               d="m 51.053065,599.36287 c 0.357663,-1.78107 0.928909,-2.91042 1.472145,-2.91042 0.672454,0 0.670359,0.19111 -0.02445,2.23021 -0.631468,1.85326 -1.792862,2.39894 -1.447715,0.68021 z"
               id="path2162-5" />
            <path
               style="fill:#7ab892;fill-opacity:1;stroke:none;stroke-width:0.352778;stroke-opacity:1"
               d="m 37.540887,610.74815 c 0,-0.60509 3.352224,-3.35959 4.088623,-3.35959 0.768767,0 0.588141,0.91701 -0.296262,1.50408 -0.436563,0.28979 -1.23849,0.94305 -1.782064,1.45168 -1.092987,1.02274 -2.010297,1.20701 -2.010297,0.40383 z"
               id="path2158-9" />
            <path
               style="fill:#7ab892;fill-opacity:1;stroke:none;stroke-width:0.352778;stroke-opacity:1"
               d="m 29.074221,615.68227 c 0,-0.56386 3.059571,-2.97876 3.792361,-2.9933 0.974188,-0.0193 0.343334,1.05355 -1.323732,2.25122 -1.925277,1.38317 -2.468629,1.54651 -2.468629,0.74208 z"
               id="path2156-6" />
            <path
               style="fill:#7ab892;fill-opacity:1;stroke:none;stroke-width:0.352778;stroke-opacity:1"
               d="m 20.628358,622.11703 c 0.02445,-0.51784 4.287778,-4.14514 4.871988,-4.14514 0.918803,0 0.268161,1.06622 -1.689936,2.76932 -2.026232,1.76236 -3.224734,2.28056 -3.182052,1.37582 z"
               id="path2154-3" />
            <path
               style="fill:#7ab892;fill-opacity:1;stroke:none;stroke-width:0.352778;stroke-opacity:1"
               d="m 13.199223,628.10099 c 0,-0.57297 3.227662,-3.7791 3.804478,-3.7791 0.817548,0 0.404728,0.8901 -1.186226,2.55764 -1.563031,1.63829 -2.618252,2.13056 -2.618252,1.22146 z"
               id="path2150-5" />
          </g>
          <path
             style="fill:#7ab892;fill-opacity:1;stroke:none;stroke-width:0.352778;stroke-opacity:1"
             d="m 19.725611,639.84411 c -0.582084,-0.14811 -1.891771,-0.28808 -2.910417,-0.31104 -1.392562,-0.0314 -1.852083,-0.17303 -1.852083,-0.5709 0,-0.40989 0.463832,-0.52917 2.05783,-0.52917 2.83549,0 6.056058,0.68252 6.056058,1.28343 0,0.52791 -1.546891,0.58685 -3.351388,0.12768 z"
             id="path2146-1" />
          <path
             style="fill:#7ab892;fill-opacity:1;stroke:none;stroke-width:0.352778;stroke-opacity:1"
             d="m 32.249221,642.12211 c -1.067153,-0.26632 -2.37684,-0.49094 -2.910417,-0.49916 -0.620518,-0.01 -0.970139,-0.20565 -0.970139,-0.54411 0,-0.69951 1.374419,-0.68477 5.140113,0.0551 1.964577,0.386 2.973776,0.74516 2.973776,1.05833 0,0.60326 -1.644015,0.57601 -4.233333,-0.0702 z"
             id="path2144-1" />
          <path
             style="fill:#7ab892;fill-opacity:1;stroke:none;stroke-width:0.352778;stroke-opacity:1"
             d="m 45.831164,644.05394 c -0.582083,-0.1736 -2.209271,-0.41997 -3.615972,-0.5475 -1.809672,-0.16406 -2.557639,-0.37239 -2.557639,-0.71237 0,-0.59165 2.635726,-0.59229 5.994654,-0.001 1.70344,0.29963 2.320381,0.56112 2.407119,1.02025 0.130016,0.68822 -0.500239,0.75642 -2.228162,0.24108 z"
             id="path2142-5" />
          <path
             style="fill:#7ab892;fill-opacity:1;stroke:none;stroke-width:0.352778;stroke-opacity:1"
             d="m 54.650607,646.13759 c -0.776111,-0.18499 -1.768298,-0.40973 -2.20486,-0.49943 -0.436563,-0.0897 -0.79375,-0.41586 -0.79375,-0.7248 0,-0.45466 0.252119,-0.51801 1.322916,-0.33244 3.578666,0.62021 5.027083,1.05034 5.027083,1.49289 0,0.54417 -1.237096,0.56771 -3.351389,0.0638 z"
             id="path2138-8" />
          <path
             style="fill:#7ab892;fill-opacity:1;stroke:none;stroke-width:0.352778;stroke-opacity:1"
             d="m 63.558245,648.20303 c -1.837506,-0.39841 -2.328855,-1.30473 -0.705555,-1.30144 1.606109,0.003 3.615972,0.69767 3.615972,1.24933 0,0.57212 -0.473012,0.58059 -2.910417,0.0521 z"
             id="path2136-4" />
        </g>
        <g
           id="g2700"
           transform="translate(16.883884,145.73132)"
           style="fill:#7ab892;fill-opacity:1;stroke:none">
          <path
             style="fill:#7ab892;fill-opacity:1;stroke:none;stroke-width:0.352778;stroke-opacity:1"
             d="m 78.904079,655.48848 c -2.61828,-1.77831 -3.61171,-2.94442 -2.50842,-2.94442 0.7548,0 6.30078,3.88336 6.30078,4.41188 0,0.88589 -0.761,0.59142 -3.79236,-1.46746 z"
             id="path2134-8" />
          <path
             style="fill:#7ab892;fill-opacity:1;stroke:none;stroke-width:0.352778;stroke-opacity:1"
             d="m 147.60754,663.32134 c 0,-0.28138 0.7319,-1.11482 1.62644,-1.85208 0.89454,-0.73726 2.20423,-1.85273 2.91042,-2.47882 1.25838,-1.11564 2.5187,-1.51153 2.5187,-0.79115 0,0.38366 -1.00192,1.31096 -4.31654,3.99508 -2.12486,1.72067 -2.73902,1.97336 -2.73902,1.12697 z"
             id="path2132-1" />
          <path
             style="fill:#7ab892;fill-opacity:1;stroke:none;stroke-width:0.352778;stroke-opacity:1"
             d="m 90.422439,664.166 c -0.85381,-0.59294 -2.38583,-1.64729 -3.40447,-2.34301 -1.7784,-1.2146 -2.39544,-2.22337 -1.35999,-2.22337 0.27065,0 1.67396,0.83344 3.11846,1.85208 1.44451,1.01865 2.92963,2.02785 3.30027,2.24267 0.8189,0.47464 1.09644,1.54969 0.40007,1.54969 -0.27607,0 -1.20052,-0.48513 -2.05434,-1.07806 z"
             id="path2130-0" />
          <path
             style="fill:#7ab892;fill-opacity:1;stroke:none;stroke-width:0.352778;stroke-opacity:1"
             d="m 138.08254,670.41225 c 0,-0.26195 0.99219,-1.32916 2.20486,-2.37159 1.21268,-1.04243 2.33182,-2.09812 2.48698,-2.34597 0.42577,-0.6801 1.30539,-0.5403 1.30539,0.20747 0,0.38859 -1.07147,1.54439 -2.6163,2.82223 -2.64409,2.18712 -3.38093,2.55497 -3.38093,1.68786 z"
             id="path2128-3" />
          <path
             style="fill:#7ab892;fill-opacity:1;stroke:none;stroke-width:0.352778;stroke-opacity:1"
             d="m 98.671779,669.88079 c -2.80752,-1.92856 -3.58135,-2.88813 -2.3052,-2.8585 0.89826,0.0208 5.879961,3.58911 6.019041,4.31129 0.19013,0.98727 -0.6271,0.66758 -3.713841,-1.45279 z"
             id="path2126-0" />
          <path
             style="fill:#7ab892;fill-opacity:1;stroke:none;stroke-width:0.352778;stroke-opacity:1"
             d="m 127.21128,677.6915 c 0.12534,-0.65086 5.11278,-4.6331 5.84418,-4.6663 1.14189,-0.0519 0.18724,1.20211 -2.39163,3.14147 -2.9646,2.22944 -3.64622,2.53047 -3.45255,1.52483 z"
             id="path2122-4" />
          <path
             style="fill:#7ab892;fill-opacity:1;stroke:none;stroke-width:0.352778;stroke-opacity:1"
             d="m 109.82682,677.20607 c -4.04952,-2.58711 -4.54775,-2.96018 -4.5502,-3.40715 -0.004,-0.81219 0.98481,-0.45376 3.68766,1.33614 1.47594,0.97741 3.07509,1.92598 3.55367,2.10793 1.01356,0.38536 1.17277,1.40663 0.21929,1.40663 -0.35797,0 -1.66766,-0.6496 -2.91042,-1.44355 z"
             id="path2120-4" />
        </g>
      </g>
      <path
         style="fill:#000000;fill-opacity:0.482353;stroke-width:0.352778"
         d="m 130.33382,116.25957 c -0.43306,-4.93371 -0.7662,-7.1671 -0.98664,-6.61458 -0.29352,0.73567 -0.9055,4.32843 -1.18914,6.98105 -0.14931,1.39629 -0.38321,2.1678 -0.63109,2.08161 -0.26048,-0.0906 -0.3742,-1.35302 -0.33582,-3.72801 l 0.058,-3.59108 -1.60012,3.31733 c -1.27211,2.63732 -1.72914,3.28359 -2.22955,3.15273 -0.58458,-0.15287 -0.5592,-0.37241 0.35612,-3.08028 0.54206,-1.60362 1.17686,-3.2956 1.41067,-3.75993 0.23381,-0.46434 -0.88873,0.47041 -2.49453,2.07723 -2.51335,2.51495 -2.9889,2.85222 -3.4174,2.42373 -0.42849,-0.42848 -0.36002,-0.71231 0.49204,-2.03954 0.54439,-0.84798 1.45155,-2.14442 2.01592,-2.88097 0.56437,-0.73656 0.96246,-1.40286 0.88464,-1.48068 -0.0778,-0.0778 -1.37457,0.89606 -2.88166,2.16419 -2.53587,2.13379 -3.76468,2.62791 -3.76468,1.51384 0,-0.21929 1.70656,-2.05165 3.79236,-4.07192 l 3.79236,-3.67323 -1.78474,0.67777 c -2.63665,1.00129 -7.33491,1.93344 -8.39895,1.66639 -0.51085,-0.12822 -0.92881,-0.44459 -0.92881,-0.70306 0,-0.43173 1.23689,-0.77607 10.75972,-2.99539 1.11379,-0.25957 0.25899,-0.3499 -4.05694,-0.42872 -3.00743,-0.0549 -5.97049,-0.0661 -6.58457,-0.0249 -0.96418,0.0647 -1.09093,-0.0229 -0.929,-0.64217 0.17397,-0.66525 0.4714,-0.71845 4.11513,-0.73605 l 3.9276,-0.019 -2.11666,-0.68633 c -1.16417,-0.37748 -2.71198,-0.85131 -3.43959,-1.05295 -0.75799,-0.210065 -1.32291,-0.586795 -1.32291,-0.882205 0,-0.66142 0.27779,-0.65085 4.07346,0.15502 1.73716,0.36882 3.95223,0.767255 4.92237,0.885415 l 1.76389,0.21482 -1.41111,-0.741065 c -0.77611,-0.40759 -2.7208,-1.62854 -4.32153,-2.71322 -2.82452,-1.91395 -3.59472,-2.90265 -2.26117,-2.90265 0.68805,0 6.07836,3.11239 7.28177,4.20452 0.39162,0.35541 1.10891,0.8447 1.59398,1.08732 0.82292,0.41158 0.80856,0.36141 -0.21452,-0.74967 -0.60306,-0.65493 -1.55556,-1.73786 -2.11667,-2.40651 -0.56111,-0.66865 -1.64717,-1.91138 -2.41348,-2.76162 l -1.39329,-1.5459 1.04051,0.11579 c 0.78272,0.0871 1.84898,0.96008 4.3037,3.52355 1.79476,1.87427 3.26115,3.3824 3.25865,3.35139 -0.0264,-0.32699 -1.50621,-4.71035 -2.07345,-6.14178 l -0.73393,-1.85209 h 0.80736 c 0.68941,0 0.9247,0.36436 1.61063,2.49409 0.4418,1.37175 1.10456,3.15768 1.4728,3.96875 l 0.66953,1.47466 0.0103,-1.5875 c 0.0226,-3.49325 0.45049,-6.31 0.99009,-6.51706 0.46314,-0.17772 0.5054,0.27378 0.32017,3.42074 l -0.21339,3.62549 0.99623,-2.52176 c 1.78188,-4.51046 1.90055,-4.71018 2.7985,-4.71018 0.53255,0 0.76526,0.15924 0.64442,0.44097 -0.10403,0.24253 -0.76429,1.78283 -1.46723,3.42288 l -1.27807,2.9819 2.87241,-3.0701 c 2.71879,-2.90591 3.90495,-3.62021 4.69677,-2.82839 0.13294,0.13293 -1.22966,1.66886 -3.02801,3.41316 -2.34794,2.27739 -2.88726,2.94116 -1.91307,2.35452 6.29031,-3.78793 10.10864,-5.4019 10.10864,-4.27284 0,0.179 -1.35248,1.15485 -3.00551,2.16857 -1.65303,1.01371 -2.95033,1.8983 -2.88288,1.96575 0.0674,0.0674 1.52908,-0.35279 3.24807,-0.93384 3.638,-1.22973 3.56065,-1.21938 3.83192,-0.51246 0.15237,0.39705 -0.24245,0.73365 -1.46156,1.24605 -3.11394,1.30882 -7.47162,3.285995 -7.393,3.354365 0.12077,0.10503 7.34091,-0.515625 8.6331,-0.742105 0.96065,-0.16838 1.14653,-0.0926 1.14653,0.467115 0,0.56847 -0.43397,0.72923 -2.91042,1.07816 -5.14928,0.72554 -5.46203,1.04399 -1.05833,1.07763 3.23224,0.0247 3.96875,0.126 3.96875,0.54589 0,0.74161 -2.41867,1.32315 -6.52639,1.56917 -2.74831,0.16461 -3.25496,0.26838 -2.29306,0.46963 6.97199,1.45867 8.11389,1.80211 8.11389,2.44033 0,0.35736 -0.0677,0.64975 -0.15046,0.64975 -0.0828,0 -1.70993,-0.29878 -3.61597,-0.66396 -6.48369,-1.24221 -6.65318,-1.23063 -3.6419,0.24894 3.35934,1.65059 5.64444,3.19436 5.64444,3.81329 0,0.67598 -0.95492,0.60017 -2.06221,-0.16371 -1.26469,-0.87246 -8.52112,-4.66813 -8.52112,-4.4572 0,0.0923 0.99477,1.31797 2.21061,2.7237 4.42808,5.11969 5.14089,6.26005 3.913,6.26005 -0.75809,0 -1.95255,-1.2785 -5.07266,-5.42952 -1.40888,-1.87439 -2.62541,-3.34417 -2.7034,-3.26619 -0.078,0.078 0.26317,1.02711 0.75811,2.10916 1.18762,2.59641 3.011,7.56096 3.011,8.19812 0,0.2778 -0.2258,0.5051 -0.50178,0.5051 -0.30752,0 -1.00451,-1.29749 -1.80033,-3.35139 -0.71421,-1.84327 -1.32302,-3.35139 -1.35292,-3.35139 -0.0299,0 0.004,1.27368 0.0742,2.8304 0.15043,3.3125 -0.14519,5.28349 -0.79244,5.28349 -0.32132,0 -0.53811,-0.88093 -0.71625,-2.91042 z m -5.2952,-7.40833 1.03614,-1.14653 -1.14652,1.03614 c -1.06873,0.96583 -1.30869,1.25692 -1.03614,1.25692 0.0607,0 0.57665,-0.51593 1.14652,-1.14653 z m 3.66462,-3.43959 c 1.00509,0 2.83958,-1.39131 2.83958,-2.15361 0,-0.3354 0.19844,-0.68988 0.44097,-0.78775 0.30049,-0.12125 0.27174,-0.1868 -0.0903,-0.20578 -0.29219,-0.0153 -0.74825,-0.51811 -1.01349,-1.11732 -0.44646,-1.00862 -0.57717,-1.07184 -1.76181,-0.85209 -0.70376,0.13055 -1.55738,0.48666 -1.89693,0.79136 -0.75868,0.6808 -0.82747,3.00635 -0.11015,3.72368 0.4411,0.44109 0.43742,0.61682 -0.0282,1.34811 l -0.5355,0.84091 0.70218,-0.79375 c 0.3862,-0.43656 1.04035,-0.79376 1.45367,-0.79376 z"
         id="path26985" />
    </g>
  </g>
</svg>
