<?xml version="1.0" encoding="UTF-8" standalone="no"?>
<!-- Created with Inkscape (http://www.inkscape.org/) -->

<svg
   width="54mm"
   height="54mm"
   viewBox="0 0 54 54"
   version="1.1"
   id="svg1029"
   inkscape:version="1.1.1 (1:1.1+202109281943+c3084ef5ed)"
   sodipodi:docname="plante.svg"
   xmlns:inkscape="http://www.inkscape.org/namespaces/inkscape"
   xmlns:sodipodi="http://sodipodi.sourceforge.net/DTD/sodipodi-0.dtd"
   xmlns="http://www.w3.org/2000/svg"
   xmlns:svg="http://www.w3.org/2000/svg">
  <sodipodi:namedview
     id="namedview1031"
     pagecolor="#505050"
     bordercolor="#eeeeee"
     borderopacity="1"
     inkscape:pageshadow="0"
     inkscape:pageopacity="0"
     inkscape:pagecheckerboard="0"
     inkscape:document-units="mm"
     showgrid="false"
     inkscape:zoom="0.64052329"
     inkscape:cx="396.55076"
     inkscape:cy="258.38249"
     inkscape:window-width="1854"
     inkscape:window-height="1098"
     inkscape:window-x="66"
     inkscape:window-y="29"
     inkscape:window-maximized="1"
     inkscape:current-layer="layer1" />
  <defs
     id="defs1026" />
  <g
     inkscape:label="Calque 1"
     inkscape:groupmode="layer"
     id="layer1">
    <path
       style="fill:#000000;stroke-width:0.352778"
       d="m 3.1381447,51.433183 c -0.8308,-0.40068 -1.09508,-1.33333 -0.37782,-1.33333 0.22876,0 0.94477,0.19124 1.59115,0.42497 1.6656,0.60229 3.50363,0.0347 9.4687703,-2.92388 3.40533,-1.68897 5.52568,-2.52308 6.79644,-2.67358 l 1.84699,-0.21875 -0.71103,-1.2051 c -0.44373,-0.75207 -0.71102,-1.8346 -0.71102,-2.87962 0,-1.42671 -0.17,-1.83928 -1.14868,-2.78786 -0.84722,-0.82116 -1.28699,-1.0259 -1.6757,-0.78016 -0.78976,0.49929 -3.4306,0.41124 -4.51708,-0.1506 -1.57253,-0.81319 -2.52583,-2.97071 -2.93328,-6.63862 -0.20001,-1.80056 -0.61018,-3.79536 -0.9114803,-4.43289 -0.3013,-0.63752 -0.4426,-1.26435 -0.314,-1.39295 0.1286,-0.1286 2.0835903,0.7192 4.3444303,1.88399 4.72018,2.43186 6.07553,3.76167 6.35426,6.23455 0.0968,0.8592 -1.2e-4,1.89144 -0.21548,2.29384 -0.32562,0.60843 -0.23478,0.91799 0.53939,1.83804 l 0.93097,1.10639 0.74346,-1.23154 c 0.40891,-0.67735 1.64421,-2.55279 2.74513,-4.16764 3.17002,-4.64986 3.40795,-7.24204 1.13052,-12.31683 -0.82973,-1.84887 -1.05097,-2.08454 -1.95697,-2.08454 -1.40607,0 -3.1251,-0.78656 -4.15167,-1.89964 -0.95891,-1.03972 -1.35265,-3.87525 -0.92974,-6.6954503 0.18537,-1.23612 1.84965,-4.42054 3.59107,-6.871146 0.24772,-0.3486 1.54985,0.428608 1.54985,0.925066 0,0.3194 0.80964,2.18169 1.7992,4.13841 2.38175,4.7096003 2.71664,7.6508103 1.05976,9.3076903 -0.63263,0.63263 -0.62402,0.7139 0.30748,2.90144 0.52709,1.23782 1.07414,2.87149 1.21567,3.63039 l 0.25732,1.37981 1.60802,-1.60803 c 1.54162,-1.54161 1.59151,-1.65542 1.20807,-2.75537 -1.24661,-3.576 0.35011,-5.96455 5.6125,-8.39578 1.65643,-0.76527 3.22319,-1.64625 3.48169,-1.95772 0.53365,-0.6430103 1.79473,-0.7668803 1.79473,-0.1762803 0,0.2145303 -0.22481,1.2860903 -0.49958,2.3812503 -0.27477,1.09516 -0.60907,2.86432 -0.74288,3.93148 -0.33108,2.64027 -1.46133,5.15929 -2.71566,6.05245 -0.88814,0.63241 -1.39542,0.71546 -3.46546,0.56735 l -2.42502,-0.17351 -1.90015,1.98032 c -1.37764,1.43577 -1.97209,2.3654 -2.16177,3.38069 -0.30723,1.64451 -1.49169,3.79573 -3.66665,6.65941 -1.50794,1.98543 -2.88394,4.90054 -2.88394,6.10974 0,0.31899 0.35719,1.34266 0.79375,2.27481 0.58686,1.25306 0.99493,1.69858 1.56561,1.70928 0.42452,0.008 1.7739,0.24579 2.99861,0.52854 5.80548,1.34029 13.11941,2.3475 18.54272,2.55354 4.7652,0.18103 5.73264,0.30714 5.73264,0.74725 0,0.45915 -0.83167,0.50026 -6.2618,0.30955 -6.17329,-0.21681 -10.73839,-0.82356 -17.90348,-2.37958 -5.33932,-1.15952 -6.86391,-0.93024 -12.59506,1.89413 -2.58008,1.27148 -5.3057503,2.56037 -6.0570503,2.86419 -1.55251,0.62781 -4.59555,0.69198 -5.77775,0.12183 z M 17.505055,35.822943 c 0.35074,-0.42262 0.22817,-0.7639 -0.66236,-1.84427 -0.60101,-0.72912 -1.09274,-1.52764 -1.09274,-1.77447 0,-0.83733 0.87773,-0.4538 2.00045,0.87411 0.97253,1.15027 1.15106,1.23988 1.36794,0.6866 0.28008,-0.71451 -0.67953,-3.11269 -1.56682,-3.91568 -0.64136,-0.58042 -5.69556,-3.13908 -5.8612,-2.9672 -0.29473,0.30584 0.54969,6.00125 1.02646,6.92321 1.12423,2.17403 3.74278,3.27744 4.78827,2.0177 z m 20.53718,-14.91545 c 0.49767,-0.53358 1.09783,-1.34462 1.3337,-1.80231 0.44298,-0.85958 1.51458,-6.7768 1.27133,-7.02006 -0.25107,-0.25106 -5.64313,2.40087 -6.49072,3.19227 -1.26447,1.18066 -1.87365,2.57705 -1.60836,3.68678 0.37651,1.57496 0.48141,1.59029 1.92965,0.2819 0.76037,-0.68695 1.62016,-1.249 1.91064,-1.249 0.94905,0 0.55645,0.91751 -0.89001,2.07992 -1.63682,1.31538 -1.55203,1.80064 0.31464,1.80064 0.99014,0 1.55261,-0.24479 2.22913,-0.97014 z m -13.82561,-4.283 c 0,-0.17284 -0.31402,-1.00628 -0.69781,-1.85209 -0.85084,-1.87507 -1.00596,-5.9475503 -0.22654,-5.9475503 0.34035,0 0.53099,0.61014 0.63379,2.0284703 0.16036,2.21256 1.31417,5.44555 1.87806,5.26236 0.69029,-0.22425 1.24727,-1.83369 1.05809,-3.05749 -0.10498,-0.6791 -1.0167,-2.8707 -2.02605,-4.8702303 -2.0436,-4.04836 -1.81543,-4.00105 -3.73307,-0.77422 -0.80192,1.3494 -0.94342,1.99185 -0.94342,4.2834903 0,2.98154 0.45595,3.85796 2.46945,4.74674 1.26958,0.5604 1.5875,0.59655 1.5875,0.18052 z"
       id="path2025" />
  </g>
</svg>
