<?xml version="1.0" encoding="UTF-8" standalone="no"?>
<!-- Created with Inkscape (http://www.inkscape.org/) -->

<svg
   width="52mm"
   height="136mm"
   viewBox="0 0 52 136"
   version="1.1"
   id="svg1029"
   inkscape:version="1.1.1 (1:1.1+202109281943+c3084ef5ed)"
   sodipodi:docname="pluie.svg"
   xmlns:inkscape="http://www.inkscape.org/namespaces/inkscape"
   xmlns:sodipodi="http://sodipodi.sourceforge.net/DTD/sodipodi-0.dtd"
   xmlns="http://www.w3.org/2000/svg"
   xmlns:svg="http://www.w3.org/2000/svg">
  <sodipodi:namedview
     id="namedview1031"
     pagecolor="#505050"
     bordercolor="#eeeeee"
     borderopacity="1"
     inkscape:pageshadow="0"
     inkscape:pageopacity="0"
     inkscape:pagecheckerboard="0"
     inkscape:document-units="mm"
     showgrid="false"
     inkscape:zoom="0.64052329"
     inkscape:cx="396.55076"
     inkscape:cy="258.38249"
     inkscape:window-width="1854"
     inkscape:window-height="1098"
     inkscape:window-x="66"
     inkscape:window-y="29"
     inkscape:window-maximized="1"
     inkscape:current-layer="layer1" />
  <defs
     id="defs1026" />
  <g
     inkscape:label="Calque 1"
     inkscape:groupmode="layer"
     id="layer1">
    <path
       style="fill:#000000;stroke-width:0.352778"
       d="m 2.2839678,134.15268 c 0,-0.99634 14.8646802,-131.3665438 14.9929002,-131.4947638 0.0971,-0.0971 0.17655,-0.0977 0.17655,-10e-4 0,1.02908 -14.8572602,131.3339338 -14.9897002,131.4663638 -0.0989,0.0989 -0.17975,0.11231 -0.17975,0.0298 z m 12.4681602,-3.67176 c 10e-4,-1.55223 0.0633,-2.14334 0.13783,-1.3136 0.0745,0.82975 0.0735,2.09975 -0.002,2.82223 -0.0758,0.72247 -0.13678,0.0436 -0.1355,-1.50863 z m 36.07989,1.70092 c -0.11133,-0.54745 -5.20972,-29.72912 -11.32974,-64.848154 -6.12003,-35.11902 -11.22196,-64.3290198 -11.33763,-64.9111098 -0.11568,-0.58208 -0.10946,-0.96278 0.0138,-0.84601 0.27417,0.25973 23.1893,131.2673138 22.99461,131.4620038 -0.0762,0.0762 -0.22973,-0.30928 -0.34106,-0.85673 z m -13.27752,-0.14282 c -0.004,-0.27487 -0.31823,-4.2304 -0.6983,-8.79005 -0.76384,-9.16354 -0.7755,-9.35975 -0.54206,-9.12631 0.25019,0.25019 1.64862,18.01512 1.43495,18.2288 -0.10304,0.10303 -0.1906,-0.0376 -0.19459,-0.31244 z m -22.21775,-20.84505 c 0,-2.4182 4.99571,-107.3583038 5.11658,-107.4791738 0.22126,-0.22125 0.53351,-7.538599 -2.29444,53.7681298 -1.35824,29.44512 -2.54887,53.615924 -2.64583,53.712894 -0.097,0.097 -0.17631,0.0961 -0.17631,-0.002 z m 18.90771,-16.056444 c -0.11808,-0.93405 -2.19669,-21.22453 -4.61913,-45.08995 -2.42243,-23.86541 -4.50318,-44.1854098 -4.62389,-45.1555498 -0.1207,-0.97014 -0.12013,-1.66928 0.001,-1.55364 0.2549,0.24278 9.80334,93.1505398 9.59483,93.3590598 -0.0761,0.0761 -0.23499,-0.62586 -0.35308,-1.55992 z"
       id="path2238" />
  </g>
</svg>
