<?xml version="1.0" encoding="UTF-8" standalone="no"?>
<!-- Created with Inkscape (http://www.inkscape.org/) -->

<svg
   width="195mm"
   height="169mm"
   viewBox="0 0 195 169"
   version="1.1"
   id="svg5"
   inkscape:version="1.1.1 (1:1.1+202109281943+c3084ef5ed)"
   sodipodi:docname="pourquiavecqui.svg"
   xmlns:inkscape="http://www.inkscape.org/namespaces/inkscape"
   xmlns:sodipodi="http://sodipodi.sourceforge.net/DTD/sodipodi-0.dtd"
   xmlns="http://www.w3.org/2000/svg"
   xmlns:svg="http://www.w3.org/2000/svg">
  <sodipodi:namedview
     id="namedview7"
     pagecolor="#505050"
     bordercolor="#eeeeee"
     borderopacity="1"
     inkscape:pageshadow="0"
     inkscape:pageopacity="0"
     inkscape:pagecheckerboard="0"
     inkscape:document-units="mm"
     showgrid="false"
     inkscape:zoom="0.64052329"
     inkscape:cx="396.55076"
     inkscape:cy="561.25984"
     inkscape:window-width="1854"
     inkscape:window-height="978"
     inkscape:window-x="66"
     inkscape:window-y="149"
     inkscape:window-maximized="1"
     inkscape:current-layer="layer1" />
  <defs
     id="defs2" />
  <g
     inkscape:label="Calque 1"
     inkscape:groupmode="layer"
     id="layer1">
    <path
       style="fill:#000000;stroke-width:0.254"
       id="path1004"
       d="" />
    <path
       style="fill:#000000;stroke-width:0.254"
       id="path948"
       d="" />
    <g
       id="g5845"
       transform="translate(-6.3872632,-37.664512)">
      <path
         style="fill:#000000;stroke-width:0.254"
         d="m 98.305636,205.25687 c -0.1586,-0.25396 -0.426,-1.76844 -0.59421,-3.3655 -0.16822,-1.59707 -0.47537,-3.58508 -0.68257,-4.4178 -0.37768,-1.51792 -1.16671,-2.93096 -1.63663,-2.93096 -0.65007,0 -1.93447,4.69423 -2.38327,8.71038 -0.15245,1.36423 -0.20462,1.45885 -0.71629,1.29927 -0.77655,-0.2422 -0.85728,-0.44131 -1.0605,-2.61576 -0.33026,-3.53374 -1.75421,-7.80663 -2.52528,-7.57768 -0.14745,0.0438 -0.53918,0.62111 -0.87052,1.28296 -0.49703,0.99282 -0.62129,1.70185 -0.71026,4.05259 -0.15519,4.10072 -0.23959,4.50024 -0.95074,4.50024 -0.57037,0 -0.5989,-0.10462 -0.88316,-3.2385 -0.44407,-4.89559 -0.51646,-5.29278 -1.1308,-6.20439 -0.78211,-1.16059 -1.42426,-1.10143 -1.8658,0.17189 -0.63792,1.83963 -1.12144,5.29663 -1.05684,7.55605 0.0683,2.38988 -0.18982,3.08955 -0.9172,2.48588 -0.87112,-0.72296 -0.31224,-7.85936 0.85635,-10.93483 l 0.44908,-1.1819 -0.62422,-0.7257 c -0.5435,-0.63186 -0.605,-0.89187 -0.47555,-2.0106 0.11608,-1.00326 0.31831,-1.43801 0.92263,-1.9834 1.42839,-1.28912 3.55976,-0.76058 4.31838,1.07089 0.36198,0.87389 0.76556,1.01716 0.76556,0.27176 0,-0.73619 1.68754,-1.78715 2.86967,-1.78715 1.2999,0 1.92639,0.37429 2.35884,1.40928 0.64888,1.55301 0.47662,2.59735 -0.6072,3.68118 l -0.96669,0.96669 0.58636,0.99288 c 0.3225,0.54609 0.80054,1.83626 1.06231,2.86704 l 0.47595,1.87415 0.17587,-1.13311 c 0.26133,-1.68375 0.86806,-3.43331 1.44497,-4.16674 0.41853,-0.53207 0.44026,-0.64937 0.1203,-0.64937 -0.97999,0 -1.25471,-2.617 -0.41866,-3.98817 0.83739,-1.37336 2.81391,-2.02036 4.08835,-1.3383 0.61302,0.32808 1.25593,1.54555 1.25593,2.37834 0,0.6241 -0.90972,2.43249 -1.23159,2.44821 -0.091,0.004 -0.37699,0.16836 -0.63558,0.36427 -0.45227,0.34263 -0.44572,0.3883 0.17191,1.19843 0.35315,0.46322 0.81502,1.58517 1.02639,2.49322 0.45923,1.97294 1.20619,8.12907 1.02242,8.42642 -0.22007,0.35609 -0.72526,0.23213 -1.02771,-0.25216 z m -11.47711,-12.71849 -0.44317,-0.98984 -0.84979,0.69357 -0.84979,0.69356 0.67002,1.14328 c 0.3685,0.62881 0.67112,1.36185 0.67249,1.62897 0.001,0.26713 0.28168,-0.11402 0.62294,-0.84701 0.60927,-1.30867 0.61247,-1.35054 0.1773,-2.32253 z m 3.9185,-1.42291 c 0.21074,-0.83962 -0.41109,-2.01623 -1.11879,-2.11695 -0.77618,-0.11047 -1.76501,0.56468 -1.87955,1.28333 -0.14154,0.88806 0.31286,1.9922 0.91242,2.21709 0.68243,0.25598 1.87256,-0.53337 2.08592,-1.38347 z m 5.70684,1.13361 c 0.26877,-0.14384 0.66875,-0.60975 0.88884,-1.03536 0.36457,-0.70501 0.36429,-0.82856 -0.003,-1.38947 -0.53741,-0.82018 -1.28556,-0.77684 -2.18922,0.12682 -0.86438,0.86439 -1.03041,2.19304 -0.29796,2.38445 0.76826,0.20077 1.09819,0.18296 1.60157,-0.0864 z m -12.17817,-0.7054 c 0.79018,-0.70603 0.79388,-0.72071 0.38237,-1.51647 -0.80142,-1.54978 -2.17913,-1.68488 -2.67504,-0.26232 -0.15137,0.43424 -0.27523,0.88214 -0.27523,0.99534 0,0.2504 1.31636,1.49638 1.5809,1.49638 0.104,0 0.54815,-0.32082 0.987,-0.71293 z m 19.445444,14.00559 c -0.45581,-0.4558 -0.044,-1.12515 1.23379,-2.00517 2.65737,-1.8302 5.75048,-7.57196 6.86286,-12.73957 0.36324,-1.68747 0.41562,-2.68445 0.27357,-5.207 -0.31068,-5.51684 -0.89,-7.49928 -4.1034,-14.04192 -1.75193,-3.56702 -4.5396,-6.78752 -7.73816,-8.93961 -6.317624,-4.25072 -6.333694,-4.25844 -11.303004,-5.42293 -1.78823,-0.41905 -2.86887,-0.94014 -3.01411,-1.45343 -0.35393,-1.25082 -0.44187,-4.85546 -0.16446,-6.74163 0.36948,-2.51223 1.02408,-4.08171 2.49537,-5.98292 1.98173,-2.56081 4.1572,-3.71227 8.3032,-4.39484 3.931714,-0.64729 14.683714,-1.73996 17.029714,-1.73065 1.31529,0.005 4.45641,0.52554 5.9248,0.98142 1.41235,0.43848 4.68671,2.08824 5.36649,2.70386 1.25037,1.13236 4.73333,3.20486 7.239,4.30751 5.45337,2.39981 12.7109,2.83521 17.04862,1.0228 1.44696,-0.60458 2.16706,-0.49525 2.91541,0.44263 2.68824,3.36916 3.8293,9.68356 3.02236,16.72528 -0.3116,2.71914 -1.7135,6.91892 -2.34965,7.039 -0.79192,0.14949 -0.78372,-0.70614 0.0296,-3.08458 1.89254,-5.53475 1.63726,-13.00781 -0.61219,-17.92124 -0.99934,-2.18287 -1.18801,-2.32572 -2.47412,-1.87332 -5.62976,1.98033 -13.46509,1.26888 -19.7338,-1.79181 -0.6258,-0.30555 -2.5123,-1.46994 -4.19222,-2.58754 -1.67991,-1.1176 -3.3396,-2.16133 -3.68818,-2.3194 -3.52568,-1.59878 -3.92744,-1.72638 -6.77466,-2.15161 -1.6039,-0.23954 -2.55835,-0.24291 -4.191,-0.0148 -1.16277,0.16248 -2.82383,0.29528 -3.69125,0.2951 -1.51143,-2.6e-4 -3.7869,0.24217 -7.05888,0.75221 -0.838204,0.13066 -2.324104,0.36289 -3.302004,0.51607 -2.33695,0.36606 -3.65892,0.75483 -4.48421,1.31872 -0.37081,0.25337 -0.75436,0.46067 -0.85233,0.46067 -0.69581,0 -3.13451,2.89925 -3.90022,4.63679 -0.68906,1.56359 -1.09243,4.59939 -0.89433,6.73087 0.19863,2.13719 0.42167,2.36699 2.7728,2.85688 3.03454,0.63228 5.29622,1.5811 7.8111,3.27692 1.36664,0.92155 2.966844,1.95591 3.556004,2.29857 1.41212,0.82133 4.69405,4.03133 6.09826,5.96462 1.07872,1.48516 2.2693,3.62037 3.05413,5.47735 2.73811,6.4786 2.8793,7.0476 3.12676,12.60122 0.17495,3.92623 -0.0351,5.66518 -1.07807,8.92638 -0.64456,2.01535 -3.37662,7.08748 -4.52833,8.40692 -0.62113,0.71158 -3.35912,2.83148 -3.65706,2.83148 -0.11485,0 -0.28503,-0.0762 -0.37816,-0.16934 z m -1.86305,-7.34338 c -0.10409,-0.27125 7.6e-4,-0.5573 0.27887,-0.76064 0.6413,-0.46893 1.37031,-3.99806 1.57027,-7.60164 0.24534,-4.42119 -0.41168,-8.70883 -1.79875,-11.73861 -0.35347,-0.77208 -0.64268,-1.5007 -0.64268,-1.61917 0,-0.61539 -2.632434,-4.15918 -4.363424,-5.87405 -2.07478,-2.05544 -2.68992,-2.46752 -4.69732,-3.14664 -0.67444,-0.22817 -1.68346,-0.61635 -2.24226,-0.86262 -1.29751,-0.57185 -2.22558,-0.90109 -3.81041,-1.35178 l -1.27041,-0.36128 0.0882,1.94166 c 0.18339,4.03818 -1.13454,12.20164 -2.32303,14.38919 -0.22389,0.41212 -0.7602,1.44341 -1.19178,2.29177 -0.43158,0.84836 -1.09871,1.88628 -1.48251,2.30648 -0.38379,0.42021 -1.04597,1.23744 -1.47151,1.81608 -0.90511,1.23076 -3.00122,2.95905 -4.68148,3.85997 -0.65137,0.34925 -1.68622,0.91541 -2.299671,1.25813 -3.214649,1.79596 -6.640659,2.44461 -14.323367,2.71183 -6.240407,0.21705 -11.091974,-0.64637 -13.193001,-2.34793 -3.311149,-2.6816 -4.212052,-3.53476 -4.603385,-4.35944 -0.618599,-1.3036 -1.149144,-4.27123 -0.967115,-5.40959 l 0.151168,-0.94534 -2.377833,-0.1779 c -1.307808,-0.0978 -7.691461,-0.25234 -14.185895,-0.34333 l -11.808061,-0.16543 -0.551169,-1.1081 c -0.424997,-0.85443 -0.584874,-1.75568 -0.698408,-3.937 -1.068581,-20.53061 -1.057124,-19.59905 -0.4939,-40.15834 0.111326,-4.06372 0.05566,-7.77172 -0.167457,-11.15386 l -0.334223,-5.06642 0.61164,-0.49613 c 0.567555,-0.46038 0.936603,-0.4885 5.120348,-0.39023 2.868806,0.0674 4.612805,0.20999 4.794906,0.39209 0.212261,0.21226 0.203872,1.02915 -0.03247,3.16209 -0.258471,2.33263 -0.254348,4.21938 0.02183,9.9879 0.187274,3.9116 0.309101,10.36955 0.270727,14.351 l -0.06977,7.239 1.742029,-1.778 c 1.393624,-1.4224 4.259818,-3.78913 7.046916,-5.81893 0.174394,-0.127 0.490703,-0.16429 0.702907,-0.0829 0.309266,0.11867 0.422296,0.90105 0.569605,3.94275 0.101077,2.08708 0.262893,3.9227 0.359591,4.07916 0.107112,0.17331 1.804058,-1.30658 4.342669,-3.7872 3.44681,-3.36808 4.278615,-4.05865 4.813605,-3.9963 0.60627,0.0707 0.656788,0.18667 0.807064,1.85338 0.08817,0.9779 0.339669,2.29235 0.558887,2.921 0.219214,0.62865 0.525985,1.64003 0.681715,2.24752 l 0.283142,1.10452 1.443972,-1.61252 c 0.794184,-0.88689 1.775211,-1.89827 2.180059,-2.24752 0.404846,-0.34925 1.735963,-1.52083 2.958036,-2.6035 3.145599,-2.78679 3.528802,-2.67243 3.574565,1.0668 0.01633,1.33413 0.102054,3.14006 0.1905,4.01317 l 0.160812,1.58748 1.27,-1.58581 c 0.6985,-0.8722 2.730328,-3.05144 4.51517,-4.84277 2.4414,-2.45027 3.379724,-3.23707 3.788431,-3.17666 0.542556,0.0802 0.543397,0.0934 0.650026,10.24029 0.119926,11.41197 -0.250868,24.92685 -0.696107,25.37207 -0.193782,0.19377 -2.614094,0.28193 -7.740221,0.28193 -4.102052,0 -7.543813,0.0851 -7.648359,0.18924 -0.258656,0.2575 0.382557,2.12965 0.884004,2.58102 0.222781,0.20054 1.033706,0.68797 1.802056,1.08318 l 1.397,0.71856 h 5.461 c 3.898329,0 5.824413,-0.10149 6.731,-0.35467 2.683271,-0.74934 5.023848,-1.59739 6.896446,-2.49873 1.791716,-0.86242 2.037486,-1.078 3.097972,-2.71734 2.722789,-4.209 3.848889,-9.78578 3.848219,-19.05761 -2.6e-4,-4.78017 0.13257,-7.0306 0.78071,-13.21765 0.70188,-6.70015 2.76407,-10.92601 6.77929,-13.89223 2.32501,-1.71759 4.8118,-2.70646 8.78127,-3.49187 5.56634,-1.10138 6.8191,-1.2849 8.770879,-1.2849 1.34178,0 1.81221,-0.088 1.81221,-0.33902 0,-0.4759 -1.69453,-3.90652 -1.98363,-4.01592 -0.13091,-0.0495 -0.811909,-0.8081 -1.513319,-1.6857 -1.09414,-1.36898 -3.04803,-3.10336 -3.49613,-3.10336 -0.0767,0 -0.44918,-0.22365 -0.8277,-0.49699 -0.69185,-0.49961 -3.40604,-1.45901 -5.76822,-2.03891 -0.76213,-0.1871 -4.57114,-0.39224 -9.525,-0.513 -4.54025,-0.11067 -8.597897,-0.31385 -9.016997,-0.45153 -0.4191,-0.13767 -1.27635,-0.39856 -1.905,-0.57975 -4.370868,-1.25979 -6.527363,-3.64691 -8.360697,-9.25482 -1.390028,-4.2519 -1.607424,-6.37565 -0.63244,-6.17828 0.287714,0.0582 0.614533,0.90893 1.119061,2.91282 0.391962,1.5568 0.881827,3.21415 1.088588,3.683 0.206761,0.46885 0.522915,1.25251 0.702566,1.74146 1.186305,3.22873 2.983357,4.72915 7.198404,6.01019 1.922399,0.58426 2.609125,0.64027 10.314515,0.84124 8.47945,0.22116 9.68552,0.36063 13.00521,1.50397 2.59778,0.8947 5.59993,2.90066 6.80813,4.54901 0.37837,0.51623 1.075789,1.35089 1.549809,1.85481 0.80144,0.852 1.5012,2.05942 2.2659,3.90978 0.17321,0.4191 0.4252,1.00415 0.55999,1.30011 0.13479,0.29597 0.20399,0.75317 0.15378,1.016 -0.081,0.42423 -0.43323,0.49738 -3.13656,0.65146 -3.066109,0.17477 -3.940279,0.2927 -8.125259,1.09619 -5.09055,0.97736 -8.79959,2.69063 -10.72791,4.95542 -0.38615,0.45352 -0.97518,1.12434 -1.30895,1.4907 -0.33378,0.36636 -0.82893,1.18047 -1.10032,1.80912 -0.2714,0.62865 -0.64684,1.4859 -0.83431,1.905 -1.19335,2.66777 -2.15625,11.57083 -2.15954,19.96734 -0.002,4.78907 -0.38932,9.51982 -0.97539,11.90966 -0.90245,3.67997 -2.4996,7.00922 -4.281495,8.92474 -1.318742,1.41764 -7.151725,3.7433 -10.813524,4.31145 -2.491463,0.38656 -11.448036,0.15407 -12.629558,-0.32784 -2.447704,-0.99835 -4.064,-2.76019 -4.064,-4.42997 v -0.74799 l -1.8415,0.10035 c -1.012825,0.0552 -1.887863,0.14339 -1.944527,0.196 -0.299357,0.27791 -0.384948,2.1804 -0.153112,3.40326 0.472344,2.49143 1.379944,3.72741 4.476377,6.096 1.521722,1.16403 3.227403,1.69644 7.336762,2.29011 3.403087,0.49163 10.6791,0.0689 14.789112,-0.85919 2.879103,-0.65015 7.805445,-3.25507 9.696025,-5.127 5.07142,-5.02141 7.31644,-11.25953 7.36912,-20.47623 0.0125,-2.18862 0.0954,-4.05196 0.18415,-4.14074 0.23549,-0.23553 4.75442,0.98697 6.35559,1.71937 0.75435,0.34504 1.92009,0.81359 2.59053,1.04121 1.73356,0.58856 2.40021,0.97566 3.89998,2.26457 2.04731,1.75947 5.915489,6.66724 5.915489,7.5053 0,0.12496 0.30134,0.88542 0.66965,1.6899 0.78574,1.7163 0.99778,2.50931 1.49301,5.5837 0.74775,4.64206 0.21136,12.25788 -1.02864,14.605 -0.40973,0.77555 -1.5644,1.00581 -1.81173,0.36128 z m -62.037782,-17.28699 1.673504,-0.1581 -0.336037,-1.42759 c -0.18482,-0.78518 -0.337825,-1.763 -0.340007,-2.17294 -0.0052,-0.98276 -0.707882,-3.44598 -1.156672,-4.05485 -0.309286,-0.41961 -0.411257,-0.43609 -0.785635,-0.127 -0.778406,0.64266 -1.389083,2.48809 -1.717137,5.1891 -0.17768,1.46294 -0.266087,2.71686 -0.196456,2.78649 0.165507,0.16551 0.819927,0.15747 2.85844,-0.0351 z m -9.200068,-2.60557 c -0.169471,-2.52243 -0.69564,-4.83134 -1.420376,-6.23282 l -0.388775,-0.75181 -0.479283,0.93422 c -0.741662,1.44565 -1.522161,5.1036 -1.436829,6.73398 0.07523,1.4374 0.08276,1.44993 0.964824,1.60577 0.48895,0.0864 1.348067,0.17211 1.909147,0.1905 l 1.020149,0.0334 z m 4.844334,-0.34422 c -0.548483,-3.4918 -1.150308,-5.32787 -1.710977,-5.2199 -0.657241,0.12658 -1.343091,2.61655 -1.504163,5.46084 l -0.148173,2.61656 h 1.906079 1.906082 z m 11.338816,2.28658 c 0.201404,-0.20141 -0.369227,-4.56191 -0.77643,-5.9331 -0.434774,-1.46405 -1.45055,-2.71532 -2.106015,-2.59427 -0.285842,0.0528 -0.641386,0.66009 -1.014184,1.73229 -0.484348,1.39304 -0.56372,2.0877 -0.508,4.44599 l 0.06604,2.795 2.109551,-0.16321 c 1.160254,-0.0898 2.163321,-0.21699 2.229038,-0.2827 z m -25.888946,-1.59834 c -0.20088,-2.3764 0.190238,-5.27966 0.865422,-6.42401 0.467819,-0.7929 0.477896,-0.91533 0.120269,-1.46113 -1.591527,-2.42898 1.575331,-4.70486 3.654128,-2.62606 0.909325,0.90932 1.01931,1.91655 0.305531,2.79802 -0.447413,0.55254 -0.451228,0.63776 -0.0635,1.41889 0.226878,0.45708 0.469657,0.83117 0.539507,0.83131 0.06985,1.5e-4 0.385229,-0.58699 0.700844,-1.30475 0.523293,-1.19007 0.540075,-1.35656 0.1905,-1.89008 -0.688777,-1.05121 -0.493987,-2.23116 0.514495,-3.11662 1.071438,-0.94073 1.879026,-0.99716 2.81003,-0.19635 0.555165,0.47753 0.71088,0.86548 0.805536,2.0069 0.106931,1.28945 0.06155,1.45149 -0.511726,1.82712 l -0.629067,0.41218 0.536194,1.38658 c 0.294907,0.76262 0.593344,1.38481 0.663194,1.38265 0.06985,-0.002 0.324406,-0.42432 0.565678,-0.93813 0.391038,-0.83274 0.397934,-0.99638 0.0635,-1.50679 -0.574621,-0.87699 -0.48213,-2.60289 0.177097,-3.3046 0.716267,-0.76243 2.168664,-0.79125 3.096471,-0.0614 0.849147,0.66794 0.922769,2.21412 0.156657,3.29002 -0.283995,0.39884 -0.405933,0.78581 -0.273421,0.8677 0.131546,0.0813 0.434098,0.73468 0.672335,1.45194 l 0.433159,1.30412 0.359522,-0.85505 c 0.197739,-0.47027 0.530476,-1.04395 0.739417,-1.27482 0.340662,-0.37643 0.326385,-0.43378 -0.13826,-0.55528 -0.421579,-0.11025 -0.517843,-0.34114 -0.516481,-1.23878 0.0026,-1.71818 1.217142,-3.23817 2.600233,-3.2542 0.52991,-0.006 0.879884,0.24451 1.4605,1.04603 0.90325,1.2469 0.956458,1.88285 0.222865,2.66372 l -0.540725,0.57558 0.512742,0.80982 0.512742,0.80982 0.172547,-0.7856 c 0.0949,-0.43208 0.400579,-1.07549 0.679285,-1.42981 0.467071,-0.59378 0.475638,-0.68863 0.109439,-1.21145 -0.717804,-1.02481 -0.510533,-2.17872 0.588815,-3.27808 0.776257,-0.77625 1.178606,-0.98611 1.890598,-0.98611 1.194374,0 1.695285,0.71659 1.695285,2.42524 0,1.05042 -0.119103,1.4081 -0.628117,1.88629 l -0.628116,0.59009 0.744215,0.84761 c 0.938829,1.06927 1.466606,2.83108 1.815889,6.06177 0.151036,1.397 0.290926,2.55657 0.31087,2.57682 0.01994,0.0202 2.550859,0.0774 5.624259,0.127 l 5.588,0.0902 0.210073,-1.651 c 0.236319,-1.85725 0.378661,-30.35609 0.152751,-30.58252 -0.14871,-0.14904 -3.213916,2.75857 -4.807824,4.56064 -1.339588,1.51453 -3.442843,4.22884 -3.790549,4.89179 -0.206161,0.39308 -0.49089,0.56085 -0.862137,0.508 -0.537164,-0.0765 -0.561119,-0.22208 -0.774283,-4.70634 l -0.219969,-4.62743 -1.095296,0.75359 c -1.694627,1.16593 -6.035035,5.56721 -6.831437,6.92724 -0.524485,0.89567 -0.847659,1.19951 -1.215743,1.143 -0.410985,-0.0631 -0.629417,-0.58061 -1.211788,-2.87097 -0.390739,-1.5367 -0.836516,-3.11577 -0.990616,-3.50904 -0.154099,-0.39327 -0.280182,-1.05049 -0.280182,-1.4605 0,-0.41 -0.06644,-0.74546 -0.147638,-0.74546 -0.309803,0 -5.885741,5.38897 -7.218362,6.97632 -0.977949,1.16488 -1.549309,1.64433 -1.904757,1.59835 -0.582792,-0.0754 -0.718182,-0.855 -1.01585,-5.84969 l -0.178196,-2.99002 -1.1811,0.91028 c -0.649602,0.50065 -1.686519,1.27466 -2.304257,1.72002 -0.617739,0.44535 -1.303538,1.02383 -1.524,1.28549 -1.304794,1.54865 -3.988813,3.97572 -4.324206,3.91025 -0.346085,-0.0676 -0.398354,-1.0608 -0.424873,-8.07352 -0.01663,-4.39806 -0.17742,-11.53978 -0.357308,-15.87048 -0.219781,-5.29112 -0.247918,-8.51162 -0.08578,-9.81779 l 0.241293,-1.94379 -0.899985,-0.14891 c -1.370978,-0.22685 -6.442716,-0.17542 -6.828742,0.0692 -0.283146,0.17946 -0.287824,0.87664 -0.02767,4.12361 0.306152,3.8211 0.282563,7.20104 -0.175295,25.11664 -0.198629,7.77217 0.733841,29.30067 1.309448,30.23203 0.09146,0.14798 2.210684,0.24797 5.255536,0.24797 h 5.102281 z m 4.5483,-0.68824 c -0.203642,-3.19666 -0.5223,-4.6958 -1.174287,-5.5245 l -0.499596,-0.635 -0.501213,0.59554 c -0.275669,0.32755 -0.632498,1.0705 -0.792953,1.651 -0.29949,1.0835 -0.370045,5.81887 -0.09337,6.26654 0.08495,0.13746 0.84584,0.24992 1.690865,0.24992 h 1.536408 z m 13.979874,-7.16992 0.898499,-0.37542 -0.45486,-0.77001 c -0.250173,-0.42351 -0.565488,-0.73314 -0.700703,-0.68807 -0.482767,0.16092 -1.232565,1.41444 -1.081511,1.80809 0.188424,0.49102 0.222653,0.49167 1.338575,0.0254 z m -4.7723,-1.23203 c 0.06322,-0.52539 -0.05096,-0.69358 -0.557065,-0.8206 -0.350119,-0.0879 -0.757377,-0.0851 -0.905015,0.006 -0.363987,0.22495 -0.340464,1.48629 0.03471,1.86147 0.440091,0.44009 1.326683,-0.21024 1.427368,-1.047 z m -9.703527,0.29216 c 0.265585,-0.42973 -0.723978,-1.25338 -1.409565,-1.17323 -0.703663,0.0823 -0.994389,0.77804 -0.549221,1.31444 0.295579,0.35615 1.714626,0.25385 1.958786,-0.14121 z m 20.10151,-0.53324 c 0.384216,-0.2973 0.423395,-1.86604 0.05233,-2.09538 -0.365727,-0.22603 -1.439441,0.51854 -1.634637,1.13355 -0.228925,0.72128 0.277266,1.55931 0.824182,1.36447 0.242343,-0.0863 0.583501,-0.26752 0.758125,-0.40264 z m -15.090732,-0.66272 c -0.04977,-1.03849 -0.527363,-1.40457 -1.227272,-0.94072 -1.046879,0.6938 -0.614746,2.01988 0.611761,1.87731 0.57183,-0.0665 0.651411,-0.18757 0.615511,-0.93659 z m 113.548721,25.76432 c -0.18041,-0.47015 0.33391,-6.46373 0.69852,-8.14007 0.61073,-2.80787 1.51706,-5.42076 2.21404,-6.38292 0.64887,-0.89574 0.69472,-1.07236 0.38746,-1.49257 -0.19168,-0.26213 -0.34851,-1.02145 -0.34851,-1.68736 0,-1.05306 0.12482,-1.34197 0.95829,-2.21813 1.09316,-1.14915 2.02359,-1.47155 3.30673,-1.14581 1.16557,0.29591 1.8731,1.28608 2.02134,2.82882 0.10985,1.14317 0.0568,1.29556 -0.66108,1.89963 -0.42928,0.36121 -0.91873,0.70282 -1.08766,0.75913 -0.20989,0.07 -0.12947,0.34271 0.25398,0.86135 0.33701,0.45583 0.67324,1.4645 0.84183,2.52541 0.34141,2.14846 0.57147,2.46775 0.95053,1.31918 0.15883,-0.48126 0.57105,-1.1402 0.91604,-1.4643 0.58245,-0.54719 0.59789,-0.6217 0.21629,-1.04337 -0.62123,-0.68645 -0.27484,-2.49395 0.64722,-3.37735 0.927,-0.88811 2.53524,-1.1468 3.44081,-0.55345 0.78218,0.51251 1.45334,2.03706 1.35187,3.07081 -0.0552,0.56208 -0.32525,0.92739 -1.01425,1.37186 l -0.93907,0.60579 0.98877,1.17264 c 1.21546,1.44148 1.91262,2.98446 2.25131,4.98264 0.36692,2.16479 0.47143,6.28202 0.16205,6.38455 -0.68073,0.22563 -0.91771,-0.44229 -1.14622,-3.23059 -0.13071,-1.59498 -0.40953,-3.47663 -0.61961,-4.18145 -0.74192,-2.48918 -2.47227,-4.43351 -3.94558,-4.43351 -1.05822,0 -1.91327,3.17521 -2.2572,8.382 -0.14737,2.23099 -0.1977,2.40639 -0.66739,2.32535 -0.2794,-0.0482 -0.55812,-0.13643 -0.61938,-0.19605 -0.0613,-0.0596 -0.2527,-2.24903 -0.42543,-4.86535 -0.50337,-7.62466 -0.84009,-8.69395 -2.73778,-8.69395 -1.52919,0 -3.15699,4.99421 -3.72226,11.4201 -0.15313,1.7408 -0.33415,3.25528 -0.40227,3.3655 -0.20629,0.33379 -0.86251,0.22466 -1.01339,-0.16853 z m 13.39111,-13.63792 c 1.36198,-0.45882 1.48193,-0.6239 1.17645,-1.61923 -0.14786,-0.48178 -0.47697,-0.94202 -0.73135,-1.02276 -1.30462,-0.41407 -2.70827,1.49602 -1.82035,2.47715 0.22681,0.25063 0.43477,0.45569 0.46212,0.45569 0.0274,0 0.43826,-0.13089 0.91313,-0.29085 z m -6.19265,-3.33182 c 0.90802,-0.53574 0.96825,-0.73969 0.56234,-1.90409 -0.63132,-1.81102 -3.5167,-0.78699 -3.53364,1.25411 -0.0124,1.48869 1.12727,1.73799 2.9713,0.64998 z m 5.82839,-3.65867 c -0.31596,-0.31595 -0.1711,-0.83314 0.83478,-2.9803 0.56691,-1.21012 1.18194,-3.06475 1.41252,-4.25938 0.22461,-1.16379 0.59603,-2.85893 0.82537,-3.76698 0.60205,-2.38373 0.59619,-8.44925 -0.0103,-10.668 -0.5953,-2.17781 -1.9346,-4.93016 -3.42156,-7.03156 -0.31467,-0.4447 -0.57214,-1.02889 -0.57214,-1.2982 0,-0.2695 0.71376,-1.17167 1.5875,-2.00657 4.2836,-4.09314 8.15447,-10.55233 9.71236,-16.20667 0.4498,-1.63254 0.65494,-2.032 1.0435,-2.032 0.68942,0 0.74398,1.17732 0.14391,3.10534 l -0.48997,1.57428 0.84816,-0.64692 c 0.81462,-0.62134 0.91637,-0.6364 2.57385,-0.381 2.28689,0.35238 3.12269,1.18436 3.12269,3.1084 0,1.10249 -0.10957,1.39344 -0.75014,1.99183 l -0.75015,0.70074 0.77282,0.73466 c 0.85821,0.81584 1.45881,1.8092 1.90311,3.14767 0.2661,0.80163 0.29772,0.82448 0.32173,0.23245 0.0277,-0.68275 0.9022,-3.5388 1.35443,-4.42345 0.14282,-0.2794 0.50258,-0.78086 0.79944,-1.11435 0.38711,-0.43485 0.44846,-0.63889 0.21692,-0.72144 -0.82048,-0.29253 -1.30861,-2.34305 -0.91106,-3.8272 0.16915,-0.63147 1.95514,-1.69474 2.49726,-1.48671 0.1788,0.0686 0.79074,0.0201 1.35986,-0.10774 1.4114,-0.31712 2.262,0.0482 2.73212,1.17333 1.19001,2.8481 0.70459,3.87122 -2.27841,4.80219 -0.44116,0.13768 -0.44695,0.18501 -0.0732,0.59799 0.73766,0.81511 1.49375,2.88797 1.9548,5.35913 0.25005,1.34024 0.46539,2.25249 0.47855,2.02723 0.0422,-0.72179 1.54817,-4.12995 2.07077,-4.68623 0.50391,-0.53639 0.5039,-0.53969 -0.003,-1.65783 -0.27957,-0.6162 -0.51081,-1.58372 -0.51388,-2.15004 -0.005,-0.83668 0.14915,-1.17548 0.81992,-1.80753 0.98232,-0.92562 1.68241,-1.1293 3.17739,-0.92439 1.26736,0.17371 1.75145,0.71808 2.1277,2.39265 0.29937,1.33245 -0.0718,2.53836 -1.02926,3.34401 l -0.70675,0.5947 0.4838,1.50911 c 0.26609,0.83002 0.5525,2.06866 0.63646,2.75254 l 0.15267,1.24342 0.99981,-2.11314 c 0.5499,-1.16223 1.34306,-2.54027 1.76258,-3.0623 l 0.76276,-0.94915 -0.56055,-0.75819 c -0.69811,-0.94424 -0.95304,-2.89323 -0.4913,-3.756 0.18498,-0.34564 0.74354,-0.87693 1.24126,-1.18066 0.49771,-0.30374 1.02758,-0.7134 1.1775,-0.91037 0.97956,-1.28707 4.68043,2.32207 4.68043,4.56443 0,0.67726 -1.22677,2.45559 -1.82494,2.64544 -0.43935,0.13944 -0.45514,0.20786 -0.1337,0.5796 0.89265,1.03234 1.25243,2.91115 1.38526,7.23385 0.13215,4.30061 0.033,4.91123 -0.74856,4.6113 -0.3217,-0.12344 -0.41423,-0.87798 -0.52273,-4.26282 -0.0954,-2.97625 -0.25428,-4.4638 -0.57489,-5.38283 -1.18898,-3.4083 -2.85316,-3.13969 -4.70568,0.75952 -0.97966,2.06203 -2.01351,5.68023 -2.01698,7.05895 -0.002,0.74931 -0.61714,1.19276 -1.05181,0.7581 -0.13963,-0.13964 -0.35624,-1.6982 -0.48134,-3.46348 -0.22115,-3.12061 -0.42722,-4.27867 -1.13585,-6.38309 -0.28189,-0.83714 -0.44595,-1.0034 -0.93196,-0.94442 -0.83555,0.1014 -1.10631,0.45014 -1.96122,2.52606 -0.6705,1.62814 -1.2647,4.08707 -1.68933,6.99086 -0.1176,0.80415 -0.2364,0.9525 -0.76278,0.9525 -0.34292,0 -0.62383,-0.0286 -0.62424,-0.0635 -0.0114,-0.96424 -0.815,-8.05993 -1.01267,-8.942 -0.59604,-2.65965 -1.99925,-4.82228 -2.80556,-4.32395 -1.07819,0.66635 -2.25266,5.33088 -2.66964,10.60272 -0.0968,1.22445 -0.24942,2.27159 -0.33904,2.32698 -0.0896,0.0554 -0.34354,-0.032 -0.56426,-0.19428 -0.29708,-0.21835 -0.43901,-0.92976 -0.54639,-2.73881 -0.29275,-4.93152 -1.73336,-7.9542 -4.14757,-8.70243 -1.18464,-0.36715 -1.96846,1.66284 -2.39714,6.2082 -0.16391,1.73804 -0.37272,3.96017 -0.464,4.93807 -0.14501,1.55334 -0.23017,1.778 -0.67398,1.778 -0.48106,0 -0.50463,-0.14817 -0.44451,-2.794 0.1135,-4.99557 0.57296,-7.84055 1.71259,-10.6045 0.12886,-0.31254 0.0647,-0.4445 -0.21597,-0.4445 -0.59508,0 -0.92381,-0.81942 -0.93585,-2.3328 l -0.0107,-1.3502 -0.59813,1.43942 c -1.55103,3.73259 -5.509,9.56202 -8.30042,12.22516 l -1.27728,1.21859 0.6646,1.06741 c 1.1568,1.85792 2.64645,5.07643 3.08039,6.65542 0.63976,2.32794 0.75853,7.61505 0.23395,10.414 -0.23565,1.2573 -0.58457,3.14325 -0.77538,4.191 -0.46273,2.54092 -0.63459,3.06507 -1.85519,5.65827 -0.94723,2.01242 -1.42458,2.52554 -1.90373,2.04639 z m 41.49014,-40.47066 c 0.11876,0 0.45576,-0.33681 0.74889,-0.74847 l 0.53296,-0.74847 -0.52849,-1.1243 c -0.29066,-0.61837 -0.80716,-1.38611 -1.14777,-1.70609 l -0.61928,-0.58179 -0.92154,0.48606 c -1.67913,0.88564 -2.01704,2.21506 -0.90442,3.55816 0.49199,0.5939 1.76638,1.13577 2.28545,0.97177 0.18605,-0.0588 0.43544,-0.10687 0.5542,-0.10687 z m -8.38548,-0.508 c 0.58368,-0.58368 0.69259,-2.20963 0.1905,-2.84416 -0.17462,-0.22069 -0.72505,-0.47236 -1.22316,-0.55927 -1.79335,-0.3129 -2.55091,1.52556 -1.37079,3.32665 0.48574,0.74133 1.70011,0.78012 2.40345,0.0768 z m -17.15342,-1.51701 c 0.44349,-0.36807 0.50947,-1.34009 0.13805,-2.03408 -0.34323,-0.64133 -2.62037,-1.13529 -3.29408,-0.71455 -0.92279,0.57629 -1.041,2.26483 -0.20105,2.87184 0.66177,0.47824 2.72355,0.40258 3.35708,-0.12321 z m 9.66907,-1.58115 c 0.80823,-0.36825 0.91999,-0.77588 0.52396,-1.91105 -0.31678,-0.90802 -0.38813,-0.95631 -1.32272,-0.89523 -0.54334,0.0355 -1.33079,0.11244 -1.74989,0.17095 -0.4191,0.0585 -0.83533,0.11519 -0.92496,0.12594 -0.0896,0.0107 -0.23713,0.31502 -0.32776,0.67615 -0.48349,1.92638 1.49881,2.88236 3.80137,1.83324 z m -78.78156,28.63098 c -0.0871,-0.227 -0.10316,-1.97853 -0.0357,-3.89228 0.12616,-3.57715 0.5999,-5.55764 1.5915,-6.65335 0.37613,-0.41562 0.35623,-0.52446 -0.26175,-1.432 -0.51586,-0.75757 -0.63699,-1.18058 -0.52966,-1.84965 0.16504,-1.02873 1.47424,-2.47566 2.42995,-2.68557 1.0612,-0.23308 2.36319,0.45978 3.00292,1.59803 0.85009,1.51253 0.74698,2.31079 -0.44938,3.479 -0.5588,0.54565 -1.016,1.07812 -1.016,1.18327 0,0.10514 0.27884,0.60207 0.61965,1.10428 0.76405,1.12589 1.09404,2.77772 1.23019,6.15795 0.10305,2.55864 0.0951,2.6035 -0.46431,2.6035 -0.74839,0 -0.87753,-0.4124 -0.87753,-2.80227 0,-3.6303 -0.95155,-6.21473 -2.28817,-6.21473 -1.02515,0 -1.55513,1.85127 -1.74434,6.09319 -0.13875,3.1105 -0.21397,3.56379 -0.60376,3.63827 -0.2449,0.0468 -0.51654,-0.10064 -0.60364,-0.32764 z m 4.7056,-12.20666 c 0.91831,-1.04589 0.89762,-0.94802 0.40269,-1.9051 -0.67584,-1.30693 -2.16792,-1.30104 -2.83315,0.0112 -0.24686,0.48695 -0.20343,0.77467 0.254,1.68259 0.30939,0.61411 0.73547,1.09827 0.96996,1.10218 0.23,0.004 0.77293,-0.39705 1.2065,-0.89086 z m 33.04631,-6.83724 c -4.05765,-0.61691 -6.0143,-1.30689 -8.763,-3.09011 -1.397,-0.90632 -3.96875,-2.57773 -5.715,-3.71427 -3.72252,-2.42279 -4.94322,-2.83054 -9.82969,-3.28338 -2.83778,-0.26299 -3.4561,-0.25537 -4.02603,0.0496 -0.60873,0.32578 -0.70745,0.31371 -1.02881,-0.12577 -0.1955,-0.26738 -0.35547,-0.98231 -0.35547,-1.58875 0,-1.46103 -0.45214,-2.47281 -2.09878,-4.69658 -1.97524,-2.66754 -4.7345,-5.25642 -6.73008,-6.31453 -5.424114,-2.876 -6.399784,-3.37035 -7.554144,-3.82748 -1.3917,-0.55113 -3.2368,-1.09666 -5.588,-1.6522 -0.99258,-0.23453 -4.18106,-0.43568 -9.144,-0.57688 -6.8824,-0.1958 -7.78561,-0.2721 -9.330883,-0.78825 -1.992757,-0.66562 -3.80097,-2.23068 -4.688891,-4.05837 -1.646687,-3.38953 -2.039849,-5.71501 -0.966221,-5.71501 0.352364,0 0.531172,0.19455 0.583634,0.635 0.0744,0.62462 0.782426,2.65037 1.480903,4.23703 0.456593,1.03719 2.399335,3.12898 2.906032,3.12898 0.213858,0 0.497416,0.10368 0.630131,0.23039 0.639803,0.61089 2.799325,0.83952 9.893295,1.04742 4.98777,0.14618 8.14645,0.34879 9.144,0.58655 3.93888,0.93879 5.84269,1.62231 8.636,3.10056 0.9779,0.51751 2.757584,1.44538 3.954834,2.06193 1.69211,0.87139 2.7413,1.67025 4.71178,3.58758 2.38095,2.31672 4.56233,5.16946 5.16502,6.75465 0.14596,0.38389 0.26537,1.07318 0.26537,1.53174 v 0.83376 l 3.21574,0.17191 c 3.71008,0.19834 6.58495,0.72241 8.20797,1.49624 0.62519,0.29809 2.46983,1.43371 4.0992,2.52362 1.62937,1.08991 3.02543,1.98165 3.10236,1.98165 0.0769,0 1.00279,0.61912 2.05749,1.37583 1.06454,0.76377 2.3991,1.4877 2.99993,1.62729 0.59527,0.1383 1.71096,0.4219 2.47931,0.6302 0.76835,0.20831 2.60344,0.52354 4.07797,0.70051 2.51727,0.30212 2.82744,0.2873 5.08,-0.24274 4.14292,-0.97485 4.82024,-1.34001 6.98363,-3.76502 2.07378,-2.32458 3.48852,-4.85374 3.74736,-6.69926 0.0864,-0.6159 0.23029,-1.4778 0.31981,-1.91535 l 0.16275,-0.79553 -6.94726,0.0944 c -4.87664,0.0662 -7.40148,5.1e-4 -8.47126,-0.22046 l -1.524,-0.31484 v -15.1769 -15.1769 l -0.762,-0.12303 c -0.4191,-0.0677 -1.09337,-0.15322 -1.49838,-0.1901 -1.35726,-0.12363 -1.35519,-0.71532 0.008,-2.21662 0.68015,-0.74921 1.62912,-1.71506 2.10881,-2.14633 0.47969,-0.43127 2.76569,-2.6147 5.08,-4.85206 2.31431,-2.23736 5.36593,-5.06095 6.78137,-6.27463 1.41545,-1.21368 3.44004,-3.15856 4.49909,-4.32196 1.05905,-1.16339 2.52985,-2.49773 3.26845,-2.9652 l 1.34292,-0.84994 -0.19508,-3.96817 c -0.1073,-2.18249 -0.16445,-5.16832 -0.127,-6.63517 0.068,-2.66521 0.0685,-2.66701 0.71667,-2.69194 0.35673,-0.0137 0.96888,-0.2348 1.36033,-0.49129 0.53634,-0.35142 1.19023,-0.46494 2.65341,-0.46066 2.26262,0.007 3.72454,0.53474 6.51367,2.35309 0.9779,0.63753 2.0066,1.25679 2.286,1.37613 0.91469,0.3907 3.09479,0.18443 5.18849,-0.49089 2.3984,-0.77361 2.92758,-0.69655 2.68859,0.39153 -0.0904,0.41161 0.025,2.0346 0.25631,3.60664 0.49766,3.38133 0.59975,3.21128 -2.34426,3.90459 -1.68179,0.39605 -2.24672,0.42273 -3.88759,0.18357 -1.05593,-0.1539 -2.4301,-0.46978 -3.0537,-0.70194 -3.50234,-1.30389 -7.22264,-1.85052 -9.42028,-1.38415 l -1.49256,0.31674 v 2.10352 c 0,1.15693 -0.0637,2.2695 -0.14154,2.47237 -0.0971,0.25302 0.52111,0.80563 1.9685,1.75964 5.13457,3.38435 8.64959,6.19669 15.81669,12.65486 1.91198,1.72285 5.35266,4.53558 7.50235,6.13311 2.27076,1.6875 2.90358,2.34917 2.71549,2.83931 -0.13645,0.35559 -0.63209,0.47285 -3.43744,0.81325 l -1.35696,0.16465 0.21396,4.10044 c 0.31187,5.97699 0.23005,24.77087 -0.11145,25.60008 l -0.2766,0.67165 -4.652,0.049 c -2.5586,0.0269 -5.33576,0.0676 -6.17148,0.0904 l -1.51948,0.0414 -0.31281,-2.54 c -0.41225,-3.34731 -0.68921,-4.40627 -1.8269,-6.985 -0.52388,-1.18745 -1.10633,-2.51006 -1.29434,-2.93912 -0.3955,-0.90263 -3.36995,-2.94853 -4.95699,-3.40956 -0.85276,-0.24772 -1.23709,-0.22052 -2.39208,0.16927 -2.67793,0.90377 -3.27382,2.47789 -3.81634,10.0815 -0.25727,3.60571 -0.24495,4.06018 0.11726,4.32503 0.36914,0.26993 0.36195,0.54297 -0.0817,3.10454 -0.51635,2.98135 -1.7542,5.8747 -3.09063,7.22407 -0.35338,0.3568 -1.18939,1.28149 -1.85779,2.05486 -1.23016,1.42334 -2.84426,2.42659 -4.48767,2.78931 -0.49558,0.10938 -1.4154,0.32926 -2.04405,0.48862 -1.72356,0.43692 -5.19849,0.49456 -7.62,0.1264 z m 17.39729,-15.93387 c 0.0405,-0.044 0.25351,-2.4232 0.47325,-5.28705 0.21974,-2.86385 0.58129,-5.81329 0.80344,-6.55431 0.52581,-1.75394 1.98761,-3.20716 3.75365,-3.73162 2.37116,-0.70416 3.62568,-0.39449 6.63877,1.63873 2.04269,1.37839 1.9144,1.18907 3.93653,5.80914 0.84371,1.92765 1.37202,4.09174 1.67383,6.85632 l 0.17525,1.60527 1.05249,-0.18694 c 0.57888,-0.10282 2.8813,-0.19654 5.1165,-0.20827 l 4.064,-0.0213 0.16207,-2.413 c 0.27955,-4.1621 0.23903,-14.86822 -0.0795,-21.01851 l -0.3059,-5.9055 -3.69831,0.006 c -2.03408,0.003 -6.09862,0.1198 -9.03232,0.25939 -3.98166,0.18945 -6.52534,0.17193 -10.033,-0.0691 -5.27065,-0.36217 -10.57584,-0.38806 -15.91104,-0.0777 l -3.59203,0.20898 -0.17106,2.31289 c -0.0941,1.2721 -0.13501,7.76965 -0.091,14.439 l 0.0801,12.1261 1.016,0.22904 c 0.8977,0.20238 13.78068,0.18652 13.96829,-0.0172 z m -4.22505,-14.80548 c -0.0662,-0.0662 -1.2526,-0.24668 -2.63635,-0.40098 -3.53353,-0.39401 -3.42389,-0.29298 -3.42389,-3.15477 0,-2.28684 0.55473,-5.60074 1.01659,-6.07305 0.1206,-0.12333 0.42697,-0.13588 0.68084,-0.0279 0.25386,0.10798 1.787,0.20888 3.40696,0.22422 2.08852,0.0198 3.06762,0.12932 3.3655,0.37651 0.82253,0.68252 0.41835,7.11318 -0.54084,8.6049 -0.33284,0.51764 -1.51653,0.80335 -1.86881,0.45107 z m 1.21381,-2.92757 c 0.17843,-0.76835 0.32927,-2.21495 0.33519,-3.21467 l 0.0108,-1.81766 -1.24123,-0.17072 c -1.11627,-0.15352 -3.01417,-0.025 -4.12818,0.2796 -0.87031,0.23795 -1.43301,5.52778 -0.62115,5.83932 0.51961,0.19939 3.70157,0.55879 4.57587,0.51684 0.68578,-0.0329 0.76981,-0.14555 1.06873,-1.43271 z m 19.9343,1.83469 c -0.37478,-0.70027 -0.90767,-8.17097 -0.60447,-8.47417 0.13489,-0.13489 1.16067,-0.4256 2.27952,-0.64603 2.51072,-0.49464 5.78679,-0.28884 6.14373,0.38594 0.12294,0.23241 0.30583,2.19826 0.40642,4.36855 0.14786,3.19035 0.11668,3.99873 -0.16283,4.22144 -0.19014,0.15151 -2.02413,0.35401 -4.07553,0.45 -3.49656,0.16362 -3.74589,0.1445 -3.98684,-0.30573 z m 7.03734,-1.20957 c 0.0455,-0.0389 -0.0117,-1.53528 -0.127,-3.32516 l -0.20969,-3.25435 -1.13639,-0.22401 c -1.10757,-0.21832 -4.71817,0.19974 -4.94887,0.57302 -0.111,0.1796 0.32448,5.81763 0.48462,6.27425 0.0709,0.20218 0.95737,0.24906 2.9778,0.15747 1.58227,-0.0717 2.91405,-0.16227 2.95953,-0.20122 z M 180.5138,92.78209 c 5.09905,-0.0763 9.30251,-0.16952 9.34101,-0.20724 0.0385,-0.0377 -1.1045,-0.95702 -2.54,-2.04288 -1.4355,-1.08585 -2.72431,-2.1021 -2.86401,-2.25832 -0.1397,-0.15623 -0.9398,-0.85082 -1.778,-1.54354 -1.56138,-1.29039 -2.32939,-1.97201 -5.207,-4.62125 -3.27943,-3.01917 -6.96632,-5.84708 -11.90217,-9.12916 -1.96244,-1.30492 -2.17726,-1.3894 -2.83747,-1.11593 -0.39286,0.16273 -2.23778,1.80138 -4.09983,3.64144 -1.86204,1.84006 -4.35708,4.18967 -5.54453,5.22135 -1.18745,1.03168 -4.38785,4.05118 -7.112,6.71001 l -4.953,4.83422 0.762,0.25151 c 0.4191,0.13833 2.53365,0.21644 4.699,0.17358 7.2487,-0.14347 13.81631,-0.0662 16.891,0.19861 1.6764,0.14441 4.13385,0.20939 5.461,0.1444 1.32715,-0.065 6.58495,-0.18055 11.684,-0.2568 z m -18.69314,-3.64284 c -0.71479,-0.289 -2.10652,-2.08025 -2.41713,-3.111 -0.39026,-1.29502 -0.0305,-4.35336 0.6269,-5.32882 0.94049,-1.39559 1.98158,-1.92896 3.78274,-1.93796 2.44243,-0.0122 3.42722,0.38172 5.06555,2.0262 2.28712,2.2957 2.49319,3.97817 0.77944,6.36359 -1.27974,1.7813 -2.32605,2.23905 -5.07274,2.21924 -1.22794,-0.009 -2.47208,-0.11291 -2.76476,-0.23125 z m 5.09655,-1.38411 c 1.1215,-0.46859 2.42059,-2.2512 2.42059,-3.32154 0,-0.80256 -0.90931,-2.31549 -1.94061,-3.22881 -0.78885,-0.69861 -2.25993,-1.23204 -2.5627,-0.92927 -0.17548,0.17548 -0.55729,0.18019 -1.15817,0.0143 -1.85552,-0.51234 -2.9883,0.9674 -3.05789,3.99448 -0.0272,1.18333 0.0894,1.65167 0.59628,2.39572 0.34655,0.50867 0.91584,1.03097 1.26509,1.16068 0.98101,0.36432 3.47585,0.31624 4.43741,-0.0855 z M 181.6681,65.60673 c 1.85293,-0.46544 1.76468,-0.24286 1.34526,-3.39307 l -0.29444,-2.21152 -1.23228,0.46823 c -0.67776,0.25753 -1.45019,0.46823 -1.71651,0.46823 -0.63195,0 -1.11096,2.09425 -0.87899,3.84293 0.19041,1.43533 0.2626,1.45678 2.77696,0.8252 z m -4.05997,-2.11044 0.0153,-2.26764 -1.04801,-0.26389 c -0.57641,-0.14514 -1.89775,-0.83636 -2.93633,-1.53605 -1.03857,-0.69969 -1.97404,-1.27485 -2.07881,-1.27813 -0.22351,-0.007 -0.25269,4.43528 -0.0345,5.24896 0.11339,0.42283 0.4517,0.62083 1.41303,0.827 0.69518,0.14909 1.5117,0.40366 1.8145,0.56571 0.30281,0.16206 1.06556,0.43691 1.695,0.61079 0.62945,0.17388 1.14445,0.32621 1.14445,0.33851 0,0.0123 0.007,-0.99807 0.0153,-2.24526 z m -9.73083,0.12186 2.2225,0.0126 v -3.10386 -3.10387 l -0.81569,-0.17915 c -1.62231,-0.35632 -3.28992,-0.15518 -4.30996,0.51985 l -0.97035,0.64215 v 2.81057 2.81058 l 0.8255,-0.21068 c 0.45403,-0.11588 1.82563,-0.20504 3.048,-0.19814 z m -146.479791,38.7795 c -0.300484,-0.30049 -0.116325,-5.59387 0.24845,-7.14135 0.369155,-1.56605 0.364543,-1.63598 -0.130755,-1.9829 -0.404746,-0.2835 -0.513403,-0.64284 -0.513403,-1.69792 0,-1.5695 0.643381,-2.37963 2.059076,-2.59274 1.876877,-0.28253 3.208023,2.13291 2.043488,3.70803 l -0.541136,0.73192 0.568787,1.14443 c 0.312831,0.62943 0.625935,1.14634 0.695785,1.14868 0.06985,0.002 0.319712,-0.40659 0.555249,-0.90873 0.411597,-0.87749 0.407926,-0.94048 -0.09433,-1.61982 -0.481079,-0.6507 -0.497312,-0.81215 -0.204419,-2.03307 0.174988,-0.72943 0.531761,-1.53984 0.79283,-1.80091 0.617685,-0.61768 1.906958,-0.60612 2.944353,0.0264 0.906371,0.55264 1.162038,1.21479 1.040494,2.69478 -0.06381,0.77699 -0.248168,1.09747 -0.861818,1.49815 l -0.780638,0.50971 0.90533,1.26015 c 0.803539,1.11847 0.915881,1.4691 0.999175,3.11853 0.05161,1.0221 0.01707,2.3703 -0.07675,2.99599 -0.147846,0.98591 -0.252303,1.13763 -0.78323,1.13763 H 29.65141 l 0.155296,-2.36415 c 0.126365,-1.92372 0.07542,-2.53247 -0.27347,-3.2677 -0.464248,-0.97833 -1.306624,-1.98816 -1.658482,-1.98816 -0.439448,0 -0.80229,1.71523 -0.953735,4.5085 -0.149626,2.75971 -0.174747,2.85751 -0.733958,2.85751 -0.665186,0 -0.762275,-0.2451 -1.006163,-2.54001 -0.316105,-2.97446 -1.600185,-6.19699 -2.010318,-5.0451 -0.408101,1.14618 -0.633132,2.93601 -0.63857,5.07898 -0.0056,2.20611 -0.05475,2.45957 -0.499501,2.57588 -0.271311,0.071 -0.557061,0.0652 -0.635,-0.0127 z m 7.605962,-9.75557 c 0.532087,-0.24243 0.644863,-0.44997 0.583453,-1.07371 -0.0797,-0.80955 -0.977818,-1.49642 -1.629605,-1.24631 -0.485699,0.18638 -0.733727,1.77901 -0.349207,2.24233 0.378988,0.45665 0.543527,0.46581 1.395359,0.0777 z m -5.098814,-0.60662 c 0.472209,-0.47221 0.476261,-0.50616 0.136208,-1.14155 -0.317,-0.59232 -1.398934,-0.6523 -1.614889,-0.0895 -0.510891,1.33136 0.520071,2.18969 1.478681,1.23108 z m 76.695263,10.04179 c -0.686684,-0.26013 -0.782704,-0.70034 -0.995214,-4.56265 -0.25801,-4.68909 -1.26652,-6.03388 -2.80966,-3.7465 -0.69318,1.02749 -0.7326,1.23862 -0.81808,4.3815 -0.0494,1.8161 -0.1655,3.37579 -0.25799,3.46597 -0.0925,0.0902 -0.42535,0.0653 -0.73968,-0.0553 -0.51436,-0.19736 -0.57187,-0.39152 -0.57525,-1.94197 -0.004,-1.92032 -0.58278,-4.71906 -1.15667,-5.59492 -0.4639,-0.708 -1.75957,-0.7872 -2.09799,-0.12826 -0.12556,0.24448 -0.49702,2.08628 -0.82546,4.0929 -0.58994,3.60419 -0.89275,4.30358 -1.57006,3.62627 -0.21171,-0.21171 -0.19995,-0.89525 0.0453,-2.63723 0.57281,-4.06767 0.95941,-5.54471 1.63812,-6.25862 0.62905,-0.66167 0.62972,-0.66765 0.14225,-1.26446 -0.74406,-0.91094 -0.6347,-2.13737 0.27139,-3.04346 0.41865,-0.41864 1.09909,-0.83539 1.5121,-0.9261 1.50594,-0.33076 3.56518,1.31 3.56778,2.84273 5.1e-4,0.3474 -0.38147,0.86685 -1.00776,1.37015 l -1.00871,0.81062 0.42991,0.72779 c 0.23645,0.40027 0.50586,0.69811 0.59868,0.66184 0.0928,-0.0363 0.56949,-0.5936 1.05924,-1.23853 0.61137,-0.80507 0.82072,-1.28273 0.66792,-1.524 -0.89087,-1.40665 0.77253,-4.2884 2.47535,-4.2884 0.57158,0 1.118044,0.25058 1.742884,0.7992 0.82903,0.7279 0.90346,0.9032 0.83434,1.96505 -0.0703,1.07967 -0.15549,1.20964 -1.15266,1.75831 l -1.076754,0.59247 0.632254,0.93045 c 0.49478,0.72813 0.63226,1.25208 0.63226,2.40965 v 1.4792 l 0.61491,-0.71267 c 0.55425,-0.64236 0.57694,-0.75483 0.23007,-1.1401 -0.83691,-0.92955 0.289,-2.83466 1.86108,-3.14907 0.63508,-0.12702 0.94535,-0.007 1.70229,0.6574 1.39427,1.22419 1.28248,1.8265 -0.54518,2.93722 -0.0406,0.0247 0.15446,0.43176 0.43345,0.90462 0.33268,0.56384 0.56679,1.57335 0.68018,2.93301 0.19877,2.38345 0.0851,2.8894 -0.60846,2.70803 -0.41107,-0.10751 -0.5154,-0.44765 -0.65659,-2.14063 -0.204,-2.44612 -0.53932,-3.28014 -1.31881,-3.28014 -1.00974,0 -1.75751,1.58346 -1.7604,3.72779 -10e-4,1.00253 -0.0585,1.87504 -0.127,1.9389 -0.0685,0.0639 -0.36704,0.0242 -0.66342,-0.088 z m 3.51455,-7.95776 c 0.33162,-0.25192 0.36498,-0.40164 0.1397,-0.62692 -0.64303,-0.64303 -1.67211,-0.18772 -1.36785,0.6052 0.17373,0.45272 0.64971,0.46114 1.22815,0.0217 z m -10.010274,-3.41661 0.5854,-0.45043 -0.54033,-0.68692 c -0.6548,-0.83244 -1.74425,-0.91288 -2.4094,-0.17789 -0.38064,0.4206 -0.41048,0.61916 -0.17181,1.143 0.35379,0.77649 1.63752,0.86367 2.53614,0.17224 z m 5.7011,-0.46598 c 0.401954,-0.20448 0.698504,-0.56576 0.698504,-0.85096 0,-0.58594 -1.106524,-1.38642 -1.635754,-1.18333 -0.54873,0.21056 -1.20817,1.64256 -1.02385,2.2233 0.17279,0.5444 0.60047,0.50318 1.9611,-0.18901 z M 45.02614,99.6101 c -0.104679,-0.10477 -2.838354,-0.24765 -6.074832,-0.3175 l -5.884507,-0.127 -0.01278,-2.794 c -0.007,-1.5367 -0.107498,-5.22837 -0.223284,-8.20373 -0.199479,-5.12601 -0.185092,-5.43906 0.27429,-5.969 0.266644,-0.30759 0.873851,-1.13077 1.349352,-1.82927 0.475498,-0.6985 1.548785,-2.12725 2.38508,-3.175 0.836298,-1.04775 2.130466,-2.84797 2.87593,-4.0005 0.928871,-1.43608 1.510099,-2.0955 1.847025,-2.0955 0.30974,0 1.460307,1.10422 3.109788,2.9845 1.439984,1.64148 3.614562,3.98945 4.832396,5.21771 l 2.214239,2.2332 1.366053,-2.1062 c 0.75133,-1.15841 2.261525,-3.59211 3.355993,-5.40821 3.193062,-5.29839 3.894371,-5.95379 4.871545,-4.55263 0.250995,0.35991 1.027856,1.34134 1.726356,2.18097 0.6985,0.83963 1.682245,2.05963 2.186102,2.71113 0.503855,0.65149 1.589705,1.94111 2.413,2.86581 0.823293,0.9247 1.995343,2.27507 2.604552,3.00082 1.25398,1.49387 1.092553,1.55822 2.506128,-0.9991 2.2751,-4.11591 2.84857,-5.095 3.44132,-5.87541 0.35742,-0.47057 0.91771,-1.36994 1.24508,-1.99859 0.77319,-1.4847 1.52249,-1.64092 2.21266,-0.46131 0.53371,0.9122 1.22178,1.86086 2.89173,3.98693 1.28525,1.63629 1.30866,1.66957 2.91099,4.13808 l 1.26492,1.9487 0.28965,3.3853 c 0.15931,1.86192 0.36477,5.74354 0.45657,8.62582 l 0.16693,5.24053 -0.61082,0.32938 c -0.46286,0.2496 -5.31729,0.43823 -20.041808,0.77877 -23.356808,0.54019 -21.716306,0.51887 -21.949661,0.2853 z m 5.646526,-1.24165 c 1.376703,-0.14389 1.524556,-0.21227 1.313137,-0.60732 -0.643539,-1.20246 -1.002083,-10.13296 -0.52375,-13.04547 l 0.203969,-1.24194 -2.332987,-2.44106 c -2.938788,-3.07492 -5.038913,-5.37309 -6.454369,-7.06303 l -1.105581,-1.31998 -0.975553,1.44698 c -0.536554,0.79584 -1.752518,2.42514 -2.702143,3.62068 -0.949622,1.19554 -2.063748,2.68144 -2.475832,3.302 -0.412082,0.62056 -0.971187,1.38148 -1.242451,1.69093 -0.478696,0.54609 -0.484363,0.767 -0.192631,7.50804 0.165318,3.81997 0.226418,7.13865 0.135778,7.37486 -0.147516,0.38442 0.08448,0.42949 2.211873,0.42973 l 2.376675,2.5e-4 -0.0667,-3.82593 c -0.03669,-2.10426 0.02837,-4.19035 0.144562,-4.63576 l 0.211264,-0.80984 h 2.446886 c 1.667155,0 2.551903,0.10506 2.776439,0.32969 0.237726,0.23783 0.353029,1.56076 0.413809,4.74788 0.07375,3.8673 0.137094,4.43217 0.508,4.53034 0.679887,0.17997 3.645756,0.18494 5.329608,0.009 z m 8.516171,-2.94935 c 0.09056,-1.57162 0.165173,-3.90802 0.165808,-5.192 5.08e-4,-1.28398 0.10378,-2.39794 0.229207,-2.47546 0.125431,-0.0775 1.115302,-0.066 2.199714,0.0257 2.961084,0.25031 2.906235,0.14324 2.906235,5.67324 v 4.572 h 2.258825 c 1.911929,0 2.287043,-0.0683 2.44257,-0.4445 0.101062,-0.24447 0.229662,-2.7305 0.285783,-5.5245 0.05612,-2.794 0.231463,-6.08449 0.389651,-7.3122 0.284679,-2.2094 0.281156,-2.23924 -0.344741,-2.921 -0.347797,-0.37884 -0.903524,-1.08885 -1.234945,-1.5778 -0.331422,-0.48895 -1.220745,-1.54232 -1.97627,-2.34084 -0.755526,-0.79851 -1.845775,-2.07542 -2.422779,-2.83757 -1.93781,-2.55961 -3.587115,-4.43623 -3.841212,-4.37061 -0.138666,0.0358 -1.145522,1.54176 -2.23746,3.34656 -1.091941,1.80481 -2.635837,4.30681 -3.430883,5.56 -0.795048,1.2532 -1.422798,2.35012 -1.395006,2.4376 0.02779,0.0875 -0.114648,1.17669 -0.316534,2.42046 -0.445326,2.74354 -0.475229,7.10129 -0.06872,10.01507 0.165151,1.18378 0.308026,2.52381 0.3175,2.97783 l 0.01722,0.8255 h 2.945692 2.945691 z m 3.500714,2.6035 h 0.73025 v -4.29082 c 0,-4.77183 0.06753,-4.59918 -1.798775,-4.59918 h -0.995225 v 2.24699 c 0,1.23583 -0.07554,3.3112 -0.167869,4.61192 l -0.167868,2.36494 0.834618,-0.16692 c 0.459042,-0.0918 1.163231,-0.16693 1.564869,-0.16693 z m -19.08175,-3.66485 c 0,-4.27936 -0.08372,-4.46315 -2.033026,-4.46315 -0.963392,0 -1.259673,0.0977 -1.348189,0.4445 -0.175318,0.68691 -0.194795,5.66289 -0.02635,6.731 l 0.150215,0.9525 h 1.628674 1.628673 z m 31.686495,3.41266 1.3335,-0.002 v -4.6482 c 0,-3.2766 0.0899,-4.73814 0.3048,-4.953 0.18035,-0.18035 1.0479,-0.3048 2.12475,-0.3048 1.48759,0 1.949,0.10151 2.52663,0.55588 l 0.70668,0.55587 -0.17163,4.39713 -0.17162,4.39712 0.8327,-0.002 c 0.45798,-10e-4 1.44949,-0.0763 2.20334,-0.16678 l 1.37065,-0.16457 -0.16894,-4.59572 c -0.0929,-2.52765 -0.29521,-6.06767 -0.44954,-7.86671 l -0.28058,-3.27099 -1.23833,-2.01767 c -1.10595,-1.802 -2.46573,-3.69087 -4.76287,-6.61613 l -0.74741,-0.95178 -0.96238,1.33278 c -0.5293,0.73303 -1.37797,2.07574 -1.88593,2.98379 -0.50796,0.90805 -1.21446,2.16535 -1.57,2.794 -1.23627,2.18593 -1.72432,3.1693 -1.72432,3.47433 0,0.16877 -0.20921,0.45622 -0.46491,0.63876 -0.74193,0.52967 -0.840693,1.25392 -1.049728,7.69791 -0.108757,3.3528 -0.288917,6.31435 -0.400354,6.58122 -0.191651,0.45898 -0.107552,0.47625 1.554692,0.31931 0.96652,-0.0913 2.35738,-0.16674 3.0908,-0.16773 z m 5.53054,-3.98174 c 0.21329,-4.55096 0.17192,-4.65607 -1.83258,-4.65607 h -1.09446 v 4.318 4.318 h 1.37026 1.37026 z"
         id="path836" />
      <path
         style="fill:#7ab892;fill-opacity:1;stroke-width:0.254"
         d="m 122.16269,131.06388 c -0.31148,-0.35806 -0.4187,-1.60415 -0.55134,-6.40779 -0.15413,-5.58171 -0.45309,-8.29444 -1.2183,-11.05471 -0.56162,-2.02589 -0.98277,-3.21947 -1.47967,-4.19347 -0.27871,-0.54631 -0.50674,-1.1553 -0.50674,-1.35331 0,-0.19801 -0.17637,-0.50639 -0.39193,-0.68529 -0.21556,-0.1789 -0.66749,-0.9277 -1.00428,-1.66401 -0.84541,-1.84826 -3.32662,-6.111417 -3.94027,-6.770091 -0.27804,-0.29843 -0.50552,-0.630277 -0.50552,-0.737427 0,-0.1856 -0.767,-1.408201 -1.71826,-2.738938 -0.6807,-0.95225 -1.84648,-2.31497 -3.16982,-3.70533 -0.6628,-0.69636 -1.20572,-1.34008 -1.2065,-1.4305 -7.6e-4,-0.0904 -0.97758,-1.17626 -2.17066,-2.413 -1.19308,-1.23673 -2.30751,-2.49246 -2.4765,-2.79049 -0.16899,-0.29803 -0.77138,-1.15528 -1.33863,-1.905 -1.541654,-2.03756 -3.921639,-5.53314 -3.921639,-5.75985 0,-0.10942 -0.17028,-0.42222 -0.378412,-0.69511 -1.60464,-2.10401 -3.93959,-6.26987 -3.93959,-7.02878 0,-0.19293 -0.10275,-0.45936 -0.22833,-0.59208 -0.24827,-0.26238 -1.31151,-3.5732 -1.77123,-5.51544 -0.36132,-1.5265 -0.36736,-4.06455 -0.0138,-5.81898 0.62495,-3.1015 1.3625,-5.73075 1.86196,-6.6376 0.29285,-0.5317 0.66149,-1.19736 0.81921,-1.47925 0.37648,-0.67286 1.60949,-2.24338 2.26592,-2.88616 1.06255,-1.04046 2.636422,-2.41487 2.765322,-2.41487 0.0732,0 0.73543,-0.37148 1.471565,-0.8255 0.736134,-0.45403 1.738494,-1.00498 2.227444,-1.22435 0.48895,-0.21937 1.40335,-0.63721 2.032,-0.92853 0.62865,-0.29133 1.9431,-0.71844 2.921,-0.94914 0.9779,-0.23071 2.12901,-0.52725 2.55803,-0.65897 1.05013,-0.32244 12.03874,-0.30322 13.95197,0.0244 0.8382,0.14354 1.91441,0.31605 2.39159,0.38336 0.47718,0.0673 0.99153,0.21889 1.143,0.33682 0.15147,0.11794 0.63311,0.28205 1.0703,0.3647 1.00275,0.18956 5.04379,2.12514 5.44428,2.60769 0.16501,0.19884 0.4064,0.36152 0.53641,0.36152 0.37461,0 1.80691,1.03974 3.5526,2.57892 0.8854,0.78067 2.62975,2.32 3.87632,3.42074 2.22401,1.96382 3.68777,3.66723 4.22538,4.91717 0.149,0.34641 0.36211,0.68931 0.47358,0.762 0.38695,0.25234 1.52553,3.95067 1.68896,5.48605 0.27511,2.5847 -1.09691,7.04572 -3.47115,11.28622 -0.33999,0.60724 -2.31937,3.55713 -3.40527,5.07493 -0.66825,0.93402 -3.02255,4.25753 -4.56214,6.44028 -1.25958,1.78575 -3.69286,6.3568 -3.69286,6.93723 0,0.17876 -0.2286,0.73201 -0.508,1.22946 -0.2794,0.49745 -0.50839,1.04385 -0.50887,1.21423 -0.001,0.34509 -1.08345,3.0602 -2.45263,6.151752 -0.49496,1.117594 -1.102,2.489194 -1.34897,3.047994 -1.34667,3.04692 -2.6079,7.86206 -3.06038,11.684 -0.14886,1.2573 -0.43067,3.14325 -0.62626,4.191 -0.7677,4.11255 -0.89289,5.40765 -0.89289,9.23679 0,2.18416 -0.0966,3.97121 -0.21463,3.97121 -0.11805,0 -0.38864,-0.20003 -0.60132,-0.4445 z m -2.80468,-61.786216 c 1.0122,-0.13147 2.15528,-0.40189 2.54015,-0.60092 3.42801,-1.77269 5.02684,-7.24218 3.43094,-11.73693 -0.4196,-1.18176 -2.68693,-3.91741 -3.24679,-3.91741 -0.11121,0 -0.72655,-0.33276 -1.36743,-0.73946 -0.87829,-0.55737 -1.50926,-0.75103 -2.56224,-0.7864 -4.2691,-0.14343 -4.16641,-0.15533 -5.73154,0.66417 -1.26007,0.65977 -1.62609,1.01409 -2.23036,2.159 -0.39759,0.75333 -0.89471,1.94119 -1.10471,2.63969 -0.21,0.6985 -0.48477,1.53255 -0.6106,1.85345 -0.39406,1.00491 -0.26846,4.39288 0.21259,5.73493 0.79807,2.22643 3.8398,4.4788 6.41662,4.75142 2.19199,0.23191 2.30664,0.23133 4.25337,-0.0215 z"
         id="path1024" />
      <path
         style="fill:#e77364;fill-opacity:1;stroke-width:0.254"
         d="m 106.26002,195.76631 c -0.0762,-0.19864 0.005,-0.62726 0.18017,-0.9525 0.17531,-0.32524 0.51346,-1.22 0.75143,-1.98835 0.32693,-1.05558 0.56447,-1.41687 0.97194,-1.47832 0.29659,-0.0447 0.59844,0.0729 0.67076,0.26137 0.15241,0.39716 -0.72278,3.0741 -1.28612,3.93386 -0.43064,0.65725 -1.07867,0.76991 -1.28818,0.22394 z m -54.963455,-4.50782 c -1.77006,-0.25116 -2.45426,-0.67619 -2.19137,-1.36128 0.11712,-0.3052 0.33938,-0.38364 0.77634,-0.27397 0.33672,0.0845 1.50723,0.27668 2.60113,0.42703 2.13309,0.29319 2.5242,0.48272 2.2846,1.10712 -0.17152,0.44696 -0.88647,0.46779 -3.4707,0.1011 z m 8.73095,-0.58396 c -0.28458,-0.74161 0.4675,-1.12558 2.69954,-1.37822 2.31171,-0.26165 2.87094,-0.10219 2.38003,0.67864 -0.17894,0.28462 -0.75389,0.49293 -1.64529,0.59609 -0.75363,0.0872 -1.79765,0.24259 -2.32005,0.34526 -0.76809,0.15097 -0.98127,0.10472 -1.11423,-0.24177 z m -16.94843,-3.16649 c -0.97085,-1.27305 -1.12373,-2.10618 -0.41166,-2.24332 0.48103,-0.0926 2.34014,2.35742 2.22854,2.93691 -0.16013,0.83148 -0.85662,0.56559 -1.81688,-0.69359 z m 25.83409,0.86919 c -0.19832,-0.51682 0.27327,-1.03656 1.66714,-1.83733 0.63979,-0.36756 1.49334,-0.93835 1.89678,-1.26844 0.40344,-0.33008 0.97377,-0.56569 1.2674,-0.52358 0.85287,0.12233 0.77888,0.8446 -0.14705,1.43547 -4.50669,2.87586 -4.43538,2.84246 -4.68427,2.19388 z m 38.898045,-1.6925 c -0.0692,-0.18495 -0.0974,-1.19211 -0.0627,-2.23814 0.0523,-1.57812 0.13861,-1.91635 0.50683,-1.98698 0.69191,-0.13271 1.01833,1.06863 0.77755,2.86165 -0.15502,1.15436 -0.31438,1.54978 -0.65058,1.6143 -0.2449,0.047 -0.50187,-0.0659 -0.57106,-0.25083 z m -31.532295,-4.91216 c -0.0895,-0.23323 0.13189,-1.06642 0.49431,-1.86027 0.36102,-0.79081 0.75816,-1.78074 0.88254,-2.19984 0.14925,-0.50297 0.39161,-0.762 0.71296,-0.762 0.7379,0 0.56193,1.82292 -0.3495,3.62059 -0.75259,1.48438 -1.44763,1.96424 -1.74031,1.20152 z m 29.644765,-3.64709 c -0.14913,-0.27864 -0.27114,-0.85472 -0.27114,-1.28018 0,-0.42546 -0.18685,-1.24054 -0.41522,-1.81129 -0.44832,-1.12047 -0.22418,-1.71479 0.53662,-1.42285 0.59734,0.22922 1.085,1.59848 1.18666,3.33194 0.074,1.262 0.0172,1.53111 -0.33842,1.60282 -0.23505,0.0474 -0.54938,-0.14179 -0.6985,-0.42044 z m -27.074115,-5.12171 c -0.0992,-0.16049 -0.0539,-0.93834 0.10062,-1.72856 0.15454,-0.79021 0.31076,-1.7225 0.34717,-2.07175 0.0462,-0.4436 0.21932,-0.635 0.5742,-0.635 0.4223,0 0.51989,0.19282 0.57847,1.143 0.13244,2.14816 -0.94181,4.35802 -1.60046,3.29231 z m 74.896825,-0.88974 c -0.20944,-0.5458 1.75043,-3.27041 2.42619,-3.37289 0.98789,-0.1498 0.85518,0.62908 -0.3777,2.21667 -1.21114,1.55961 -1.77218,1.87627 -2.04849,1.15622 z m -51.83393,-1.45007 c -0.13545,-0.17462 -0.63178,-1.0296 -1.10295,-1.89995 -0.68439,-1.26421 -0.79295,-1.64616 -0.53983,-1.89929 0.22961,-0.22961 0.43409,-0.24289 0.7427,-0.0482 0.61212,0.38612 2.17777,3.34234 2.00651,3.78864 -0.17618,0.45912 -0.77137,0.49076 -1.10643,0.0588 z m 54.63577,-5.89552 c -0.0862,-0.22471 -0.0308,-0.89038 0.12325,-1.47927 0.15401,-0.58889 0.31064,-1.41361 0.34804,-1.83271 0.0558,-0.62533 0.18191,-0.762 0.70302,-0.762 0.60475,0 0.63068,0.0605 0.54425,1.26968 -0.0499,0.69832 -0.22137,1.66831 -0.381,2.15553 -0.31078,0.9485 -1.07947,1.32135 -1.33756,0.64877 z m -61.944675,-1.04896 c -1.54728,-1.15649 -1.94238,-1.9606 -1.016,-2.06781 0.69023,-0.0799 3.302,1.98439 3.302,2.60981 0,0.81701 -0.68507,0.65459 -2.286,-0.542 z m -14.7447,0.33548 c -0.076,-0.19802 -0.10422,-1.2066 -0.0627,-2.24127 0.0676,-1.68675 0.12795,-1.88123 0.58343,-1.88123 0.46809,0 0.508,0.16933 0.508,2.15552 0,1.85235 -0.0626,2.16758 -0.44526,2.24127 -0.2449,0.0472 -0.50745,-0.0763 -0.58343,-0.27429 z m 6.7437,-3.57144 c -0.87465,-0.22732 -1.143,-0.41633 -1.143,-0.80506 0,-0.46771 0.14103,-0.50127 1.778,-0.4231 1.8525,0.0885 2.59868,0.46188 2.32871,1.1654 -0.18212,0.47459 -1.28892,0.49803 -2.96371,0.0628 z m 71.149235,-3.51748 c -0.54245,-1.38843 -0.84926,-2.73904 -0.70664,-3.1107 0.46672,-1.21624 1.6841,0.50657 1.77484,2.51172 0.0351,0.77477 -0.0562,1.02755 -0.39616,1.09758 -0.27776,0.0572 -0.52719,-0.12783 -0.67204,-0.4986 z m -77.366425,-1.26931 c -0.0658,-0.18495 -0.0369,-1.13498 0.0643,-2.11118 0.14487,-1.39804 0.27815,-1.79297 0.62768,-1.85998 0.29428,-0.0564 0.53488,0.1546 0.71428,0.62643 0.37326,0.98176 -0.21059,3.47802 -0.8413,3.59701 -0.2449,0.0462 -0.49912,-0.0673 -0.56492,-0.25228 z m 74.784485,-5.95765 c -0.42267,-1.11171 -0.7789,-2.95214 -0.64098,-3.31156 0.20515,-0.53459 0.8964,-0.39377 1.14587,0.23344 0.46095,1.15891 0.83455,2.97823 0.68932,3.35671 -0.23561,0.614 -0.91512,0.45548 -1.19421,-0.27859 z m -73.977185,-2.03217 c -0.28468,-0.28468 -0.20729,-1.09571 0.18702,-1.96006 0.20082,-0.44022 0.54157,-1.23781 0.75721,-1.77244 0.27886,-0.69137 0.5218,-0.94732 0.84137,-0.8864 0.68505,0.13058 0.64269,0.92144 -0.15395,2.87445 -0.66922,1.64063 -1.18453,2.19156 -1.63165,1.74445 z m 60.871665,-4.54384 c -0.24437,-0.6368 0.15784,-0.82791 1.94221,-0.9228 1.61515,-0.0859 1.651,-0.074 1.651,0.54719 0,0.60733 -0.0748,0.63828 -1.71799,0.71018 -1.39253,0.0609 -1.74777,-0.003 -1.87522,-0.33457 z m 7.62617,-0.74592 c -0.21991,-0.57308 0.0239,-0.76382 1.80904,-1.41526 2.01832,-0.73654 2.54,-0.76106 2.54,-0.11943 0,0.57378 -1.65847,1.48643 -3.24045,1.78321 -0.75683,0.14199 -0.97775,0.0925 -1.10859,-0.24852 z m -15.90998,-0.91208 c -0.74717,-0.49491 -1.20398,-0.98417 -1.20398,-1.28952 0,-0.73531 0.70711,-0.8702 1.3577,-0.25901 0.31343,0.29445 1.02198,0.69188 1.57458,0.8832 0.69555,0.2408 1.00472,0.4963 1.00472,0.83028 0,0.83389 -1.34787,0.75254 -2.73302,-0.16495 z m -48.864105,-1.89261 c -0.27414,-0.71438 0.14364,-1.13801 2.05501,-2.08378 1.43568,-0.71039 1.98291,-0.87304 2.20158,-0.65437 0.49878,0.49878 0.0493,1.03959 -1.52432,1.83394 -0.83442,0.42121 -1.58934,0.8827 -1.67762,1.02553 -0.23971,0.38786 -0.88788,0.3133 -1.05465,-0.12132 z m 41.607725,-2.03124 c -1.41302,-0.66539 -1.84068,-0.9852 -1.7754,-1.32765 0.13393,-0.7026 0.95258,-0.62535 2.7478,0.25931 1.20481,0.5937 1.651,0.94993 1.651,1.3181 0,0.76625 -0.58384,0.71066 -2.6234,-0.24976 z m 30.25735,0.20919 c -0.1097,-0.28589 0.0854,-0.63933 0.59589,-1.0795 0.41744,-0.35995 1.01656,-1.02592 1.33137,-1.47995 1.05522,-1.52186 2.02453,-0.75813 1.04642,0.82449 -0.58431,0.94543 -1.99517,2.16001 -2.50908,2.16001 -0.16582,0 -0.37489,-0.19127 -0.4646,-0.42505 z m -63.986415,-2.22978 c -0.25532,-0.66537 0.18401,-0.89904 2.01108,-1.06966 1.4509,-0.13548 1.7142,-0.0963 1.85722,0.27639 0.25104,0.65421 -0.11662,0.84646 -1.99307,1.04213 -1.47233,0.15354 -1.73414,0.11879 -1.87523,-0.24886 z m 27.780145,-0.79256 c -1.61686,-0.59318 -2.47668,-1.12091 -2.47668,-1.5201 0,-0.62077 0.71549,-0.71576 1.85516,-0.24629 2.62396,1.0809 2.75252,1.15792 2.66853,1.59865 -0.10599,0.55617 -0.82719,0.61527 -2.04701,0.16774 z m -19.40627,-0.24458 c -0.10839,-0.28246 -0.0101,-0.56308 0.26849,-0.76681 0.60356,-0.44134 3.42573,-0.75019 3.764,-0.41192 0.48383,0.48383 -3e-5,0.98676 -1.11463,1.15857 -0.6057,0.0934 -1.47154,0.23633 -1.92409,0.3177 -0.63794,0.11472 -0.86122,0.0479 -0.99377,-0.29754 z m 8.88099,-1.03948 c -0.31666,-0.8252 0.13085,-1.10979 1.81763,-1.15591 0.91243,-0.0249 1.91458,-0.0535 2.22699,-0.0635 0.71175,-0.0227 0.90689,0.74622 0.2728,1.07503 -0.2529,0.13114 -1.29769,0.2957 -2.32174,0.36568 -1.43303,0.0979 -1.89274,0.047 -1.99568,-0.2213 z m 52.86847,-2.44497 c -0.0751,-0.19579 -0.002,-0.69001 0.16273,-1.09828 0.16463,-0.40826 0.43511,-1.3138 0.60107,-2.0123 0.23272,-0.97951 0.41354,-1.27 0.79053,-1.27 1.08362,0 0.15623,4.43343 -0.97286,4.65087 -0.24468,0.0471 -0.50634,-0.0745 -0.58147,-0.27029 z m -55.6907,-0.36476 c -0.1304,-0.2529 -0.31376,-1.06187 -0.40746,-1.79771 -0.14017,-1.10076 -0.0977,-1.36578 0.23966,-1.49523 0.67634,-0.25954 1.08512,0.45852 1.17485,2.06376 0.0704,1.25995 0.0124,1.53122 -0.34258,1.60282 -0.23505,0.0474 -0.53406,-0.12073 -0.66447,-0.37364 z m -2.13568,-7.00032 c -1.07125,-1.42446 -1.55323,-2.40512 -1.3905,-2.82919 0.23974,-0.62477 0.87461,-0.48885 1.35083,0.28919 0.23514,0.38417 0.70839,1.12404 1.05166,1.64416 1.06641,1.61579 0.14371,2.4326 -1.01199,0.89584 z m -6.822438,-5.71545 c -0.33992,-0.25535 -0.940167,-0.60371 -1.333877,-0.77412 -0.52896,-0.22895 -0.69474,-0.45773 -0.635,-0.87629 0.0445,-0.31155 0.26161,-0.60087 0.48254,-0.64293 0.60823,-0.11579 2.900288,1.56346 2.900288,2.12486 0,0.65222 -0.664597,0.73141 -1.413951,0.16848 z m -11.114397,-3.37994 c -0.3713,-0.14887 -0.55703,-0.40207 -0.50055,-0.6824 0.0774,-0.38403 0.33483,-0.43379 1.86036,-0.3596 1.88859,0.0919 2.30987,0.27796 2.06625,0.91282 -0.17427,0.45414 -2.40569,0.53827 -3.42606,0.12918 z m -5.36925,-0.3922 c -1.81094,-0.39882 -2.18403,-0.63282 -1.95609,-1.22684 0.1792,-0.46699 0.49965,-0.47313 2.7087,-0.052 1.4939,0.28481 1.651,0.37362 1.651,0.93336 0,0.76378 -0.30511,0.80763 -2.40361,0.34547 z m -9.6173,-0.73578 c -0.57981,-0.25592 -0.81671,-0.51369 -0.75503,-0.82153 0.0997,-0.49763 0.51717,-0.52206 2.74294,-0.16052 1.14827,0.18652 1.397,0.31674 1.397,0.73142 0,0.42813 -0.19225,0.51351 -1.27,0.56403 -0.6985,0.0327 -1.65021,-0.10828 -2.11491,-0.3134 z m -5.97387,-2.55179 c -1.00999,-1.18539 -1.0831,-1.89334 -0.19553,-1.89334 0.612,0 2.13101,1.8635 2.01405,2.47082 -0.15435,0.80145 -0.82512,0.58844 -1.81852,-0.57748 z m -3.17684,-6.14785 c -0.3607,-0.68372 -0.85371,-3.32612 -0.67464,-3.61586 0.24999,-0.40449 0.85134,-0.30188 1.09499,0.18684 0.36333,0.7288 0.85949,3.33763 0.68764,3.61569 -0.24954,0.40377 -0.84987,0.30262 -1.10799,-0.18667 z"
         id="path2815" />
    </g>
  </g>
</svg>
