<?xml version="1.0" encoding="UTF-8" standalone="no"?>
<!-- Created with Inkscape (http://www.inkscape.org/) -->

<svg
   width="147mm"
   height="111mm"
   viewBox="0 0 147 111"
   version="1.1"
   id="svg5"
   inkscape:version="1.1.1 (1:1.1+202109281943+c3084ef5ed)"
   sodipodi:docname="spécificités.svg"
   xmlns:inkscape="http://www.inkscape.org/namespaces/inkscape"
   xmlns:sodipodi="http://sodipodi.sourceforge.net/DTD/sodipodi-0.dtd"
   xmlns="http://www.w3.org/2000/svg"
   xmlns:svg="http://www.w3.org/2000/svg">
  <sodipodi:namedview
     id="namedview7"
     pagecolor="#505050"
     bordercolor="#eeeeee"
     borderopacity="1"
     inkscape:pageshadow="0"
     inkscape:pageopacity="0"
     inkscape:pagecheckerboard="0"
     inkscape:document-units="mm"
     showgrid="false"
     inkscape:zoom="0.32026164"
     inkscape:cx="131.14277"
     inkscape:cy="607.31593"
     inkscape:window-width="1854"
     inkscape:window-height="978"
     inkscape:window-x="66"
     inkscape:window-y="149"
     inkscape:window-maximized="1"
     inkscape:current-layer="layer1" />
  <defs
     id="defs2" />
  <g
     inkscape:label="Calque 1"
     inkscape:groupmode="layer"
     id="layer1">
    <g
       id="g41439"
       transform="translate(266.02779,-29.248362)">
      <path
         style="fill:#000000;stroke-width:0.352778"
         d="m -254.3467,136.62397 c -2.39994,-1.06687 -3.68988,-1.28735 -4.05694,-0.69342 -0.36645,0.59292 -1.28322,0.39349 -1.21628,-0.26459 0.15049,-1.47943 -0.0847,-2.18203 -1.10596,-3.30358 -2.85075,-3.13075 -3.57831,-7.30741 -1.57335,-9.032 1.02172,-0.87885 2.94994,-1.08076 3.64864,-0.38205 0.60863,0.60863 0.53428,2.04611 -0.10583,2.04611 -0.29104,0 -0.52917,-0.22115 -0.52917,-0.49143 0,-0.76567 -1.07388,-0.99064 -1.95933,-0.41047 -1.20445,0.78918 -1.39568,2.33348 -0.531,4.28822 0.74116,1.67552 3.41821,4.91541 3.6172,4.37769 0.0593,-0.16029 2.32248,-2.71336 5.02925,-5.67348 4.6299,-5.06326 4.91584,-5.45895 4.82765,-6.68044 -0.0707,-0.97853 0.13693,-1.57256 0.8426,-2.41119 1.01122,-1.20177 1.43318,-1.29641 3.37514,-0.75696 2.04431,0.56787 2.83857,3.47631 1.3546,4.96028 -0.596,0.596 -1.09785,0.71246 -2.73403,0.63448 l -2.00402,-0.0955 -5.24421,5.80371 -5.24421,5.80372 1.36365,0.20753 c 0.75001,0.11415 2.29622,0.63008 3.43602,1.14653 2.54368,1.15255 2.64224,1.15365 3.84027,0.0428 1.39082,-1.28964 1.26622,-2.44221 -0.35639,-3.29671 -0.91225,-0.48041 -1.06669,-1.45151 -0.23084,-1.45151 1.01565,0 2.51401,1.36168 2.73962,2.48972 0.25512,1.27559 -0.20013,2.31246 -1.49572,3.40662 -1.25273,1.05796 -2.88388,0.98223 -5.68736,-0.26403 z m 10.53923,-15.12259 c 0.69738,-0.44173 0.59812,-2.19009 -0.15562,-2.74124 -1.7891,-1.30822 -3.992,0.54328 -2.75227,2.31324 0.54228,0.77422 2.01833,0.99147 2.90789,0.428 z m 109.05938,15.40696 c -1.31347,-0.69431 -1.81959,-1.94867 -1.66368,-4.12321 0.0998,-1.39217 0.3342,-2.07037 0.86369,-2.49913 l 0.72669,-0.58844 -1.14599,-2.61614 c -0.63031,-1.43888 -2.18347,-4.6799 -3.45149,-7.20226 -1.26802,-2.52236 -3.82409,-7.99924 -5.68015,-12.17083 -1.85605,-4.1716 -4.17608,-9.330975 -5.1556,-11.465281 -1.82862,-3.984406 -2.12358,-5.115277 -1.33422,-5.115277 0.24878,0 1.03086,1.309687 1.73797,2.910416 4.34188,9.828992 10.19472,22.565632 13.131,28.575002 3.17098,6.48971 3.4699,6.96789 4.36029,6.9752 2.76102,0.0226 4.362,4.3033 2.44359,6.53358 -0.96008,1.11616 -3.44364,1.52033 -4.8321,0.78637 z m 4.06015,-1.80491 c 0.76126,-1.08685 0.63675,-2.15381 -0.3943,-3.37915 -0.89708,-1.06612 -2.27444,-1.41942 -3.17902,-0.81541 -1.22092,0.81522 -1.47163,3.72284 -0.39626,4.59549 1.1103,0.90098 3.20594,0.68931 3.96958,-0.40093 z m -11.82532,-2.82385 c -1.62508,-0.69584 -2.68799,-1.36555 -2.7599,-1.73896 -0.15836,-0.8223 -0.0151,-0.79486 3.53747,0.67767 1.74489,0.72325 3.10009,1.49433 3.10009,1.76389 0,0.72071 -0.95973,0.54681 -3.87766,-0.7026 z m -11.66245,-4.97145 c -2.71936,-0.95173 -3.86267,-1.60946 -3.86267,-2.22217 0,-0.51566 1.27035,-0.60468 1.57582,-0.11043 0.11349,0.18363 1.55161,0.77198 3.19582,1.30744 1.70884,0.5565 2.98947,1.1691 2.98947,1.43001 0,0.65317 -1.24474,0.5239 -3.89844,-0.40485 z m 23.6849,-2.40189 c 0.0593,-3.55385 0.44137,-5.36093 1.16263,-5.49895 0.5406,-0.10345 0.62564,0.0272 0.45649,0.70153 -0.11434,0.45577 -0.31706,2.13836 -0.45051,3.73909 -0.17468,2.09546 -0.37659,2.91042 -0.72107,2.91042 -0.34591,0 -0.46988,-0.51305 -0.44754,-1.85209 z m -35.74965,-2.61509 c -1.11566,-0.50924 -2.02847,-1.1412 -2.02847,-1.40436 0,-0.66055 0.77281,-0.59893 2.5482,0.20318 0.82981,0.3749 1.78655,0.76679 2.1261,0.87087 0.33955,0.10408 0.61736,0.43234 0.61736,0.72947 0,0.7747 -0.94459,0.65916 -3.26319,-0.39916 z m -72.9368,-1.66779 c 0,-0.31355 0.99503,-0.75901 2.75805,-1.23472 3.22019,-0.8689 3.94473,-0.91821 3.94473,-0.26847 0,0.29897 -1.08142,0.75952 -2.91042,1.23949 -3.40367,0.89319 -3.79236,0.92022 -3.79236,0.2637 z m 61.8243,-2.9136 c -1.01864,-0.48174 -1.85208,-1.1035 -1.85208,-1.38171 0,-0.27821 0.16665,-0.50584 0.37035,-0.50584 0.83837,0 4.91378,1.97352 4.9174,2.38125 0.006,0.67552 -1.38637,0.47543 -3.43567,-0.4937 z m -49.47708,0.15 c 0,-0.37067 0.69368,-0.64062 2.38125,-0.92668 1.30969,-0.222 2.73844,-0.5019 3.175,-0.62201 0.63055,-0.17347 0.79375,-0.0739 0.79375,0.48424 0,0.77174 -0.47042,0.92365 -4.14514,1.33854 -1.82513,0.20607 -2.20486,0.15887 -2.20486,-0.27409 z m -14.81666,-1.50838 c 0,-0.29104 0.23812,-0.52917 0.52916,-0.52917 0.29105,0 0.52917,0.23813 0.52917,0.52917 0,0.29104 -0.23812,0.52917 -0.52917,0.52917 -0.29104,0 -0.52916,-0.23813 -0.52916,-0.52917 z m 25.04722,-1.05161 c 0,-0.28735 0.43656,-0.62142 0.97014,-0.74239 0.53357,-0.12097 1.86618,-0.44149 2.96133,-0.71228 2.49463,-0.6168 2.77131,-0.61449 2.77131,0.0233 0,0.50206 -0.78482,0.79433 -4.23334,1.57654 -2.13979,0.48536 -2.46944,0.46599 -2.46944,-0.14511 z m 87.50144,-0.62408 c 0.007,-0.43657 0.24256,-1.74625 0.52366,-2.91042 0.2811,-1.16417 0.51357,-2.6326 0.5166,-3.26319 0.004,-0.78151 0.17398,-1.14653 0.53468,-1.14653 0.71586,0 0.69547,2.0453 -0.0544,5.45803 -0.37381,1.70119 -0.75423,2.65586 -1.05834,2.65586 -0.26111,0 -0.46909,-0.35719 -0.46218,-0.79375 z m -57.25075,-1.69832 c -1.11566,-0.57586 -2.02847,-1.2826 -2.02847,-1.57053 0,-0.28793 0.15574,-0.52351 0.3461,-0.52351 0.76749,0 4.94556,2.29919 4.94556,2.72155 0,0.71237 -1.06359,0.50784 -3.26319,-0.62751 z m -20.30853,-0.22757 c 0.079,-0.40996 0.9624,-0.86103 2.7599,-1.40912 3.16609,-0.96541 3.25596,-0.97179 3.11061,-0.22081 -0.0759,0.39213 -0.99938,0.86206 -2.7599,1.40443 -3.1879,0.9821 -3.25728,0.98713 -3.11061,0.2255 z m -30.75605,-0.63175 c 0,-0.29104 0.23813,-0.52917 0.52917,-0.52917 0.29104,0 0.52916,0.23813 0.52916,0.52917 0,0.29104 -0.23812,0.52916 -0.52916,0.52916 -0.29104,0 -0.52917,-0.23812 -0.52917,-0.52916 z m 41.73451,0.10688 c -1.65438,-0.79931 -2.39721,-4.09053 -1.30088,-5.76374 0.44293,-0.67599 0.87329,-0.86953 1.93355,-0.86953 1.20402,0 1.38731,-0.11368 1.5643,-0.97014 0.11027,-0.53358 0.76796,-2.47826 1.46154,-4.32153 3.77488,-10.032075 3.70631,-9.877774 4.38952,-9.877774 0.69716,0 0.88701,0.681119 0.34909,1.252361 -0.17358,0.184327 -0.71657,1.446389 -1.20665,2.804584 -0.49008,1.358194 -1.38991,3.660069 -1.99962,5.115277 -1.71266,4.087622 -2.2225,6.319282 -1.64695,7.209142 1.30509,2.01783 0.96892,4.19664 -0.8096,5.24724 -1.14462,0.67614 -1.63108,0.70712 -2.7343,0.17411 z m 2.42313,-1.57267 c 1.0318,-0.93377 0.60031,-3.29671 -0.602,-3.29671 -0.28421,0 -0.51675,-0.15875 -0.51675,-0.35278 0,-0.67843 -1.047,-0.34525 -1.60863,0.5119 -0.61633,0.94064 -0.44678,2.05969 0.47031,3.10407 0.67973,0.77408 1.4265,0.78517 2.25707,0.0335 z m -50.70859,-2.32657 c 0.12876,-0.43657 0.39462,-1.905 0.59081,-3.2632 0.53999,-3.73827 0.63702,-4.05694 1.23537,-4.05694 0.43862,0 0.51347,0.27449 0.36076,1.32292 -0.10597,0.7276 -0.2984,2.19604 -0.42762,3.26319 -0.30734,2.5383 -0.70405,3.52778 -1.41439,3.52778 -0.43467,0 -0.52067,-0.19791 -0.34493,-0.79375 z m 10.78428,-0.44097 c 0,-0.29105 0.23813,-0.52917 0.52917,-0.52917 0.29104,0 0.52917,0.23812 0.52917,0.52917 0,0.29104 -0.23813,0.52916 -0.52917,0.52916 -0.29104,0 -0.52917,-0.23812 -0.52917,-0.52916 z m 3.52778,-4.58612 c 0,-0.29104 0.23813,-0.52916 0.52917,-0.52916 0.29104,0 0.52916,0.23812 0.52916,0.52916 0,0.29105 -0.23812,0.52917 -0.52916,0.52917 -0.29104,0 -0.52917,-0.23812 -0.52917,-0.52917 z m 102.77619,-0.97013 c 0.10889,-0.82462 0.30056,-2.332747 0.42594,-3.351393 0.16056,-1.304516 0.38352,-1.852083 0.75412,-1.852083 0.44127,0 0.48834,0.441113 0.29172,2.734028 -0.29441,3.433248 -0.44611,3.968748 -1.12431,3.968748 -0.43757,0 -0.50629,-0.29652 -0.34747,-1.4993 z m -98.19008,-3.263198 c 0,-0.291042 0.23813,-0.529167 0.52917,-0.529167 0.29104,0 0.52917,0.238125 0.52917,0.529167 0,0.291041 -0.23813,0.529166 -0.52917,0.529166 -0.29104,0 -0.52917,-0.238125 -0.52917,-0.529166 z m 4.23334,-4.586111 c 0,-0.291042 0.23812,-0.529167 0.52916,-0.529167 0.29104,0 0.52917,0.238125 0.52917,0.529167 0,0.291041 -0.23813,0.529166 -0.52917,0.529166 -0.29104,0 -0.52916,-0.238125 -0.52916,-0.529166 z m 95.74248,-0.581625 c 0.13322,-0.650247 0.33901,-2.730077 0.45732,-4.621847 0.15914,-2.544724 0.33891,-3.439584 0.69098,-3.439584 0.35876,0 0.46729,0.62942 0.44098,2.55764 -0.0609,4.467683 -0.40605,6.414003 -1.16288,6.558448 -0.58486,0.111623 -0.63827,-0.02046 -0.4264,-1.054657 z m -116.07355,-0.917681 c 0.11398,-0.727604 0.31248,-2.632604 0.4411,-4.23333 0.19865,-2.47222 0.32877,-2.91042 0.8642,-2.91042 0.55178,0 0.60928,0.25282 0.46137,2.02847 -0.32935,3.953696 -0.88739,6.438197 -1.44609,6.438197 -0.41158,0 -0.48218,-0.291338 -0.32058,-1.322917 z m 24.21162,-2.734027 c 0,-0.291042 0.23813,-0.529167 0.52917,-0.529167 0.29104,0 0.52916,0.238125 0.52916,0.529167 0,0.291041 -0.23812,0.529166 -0.52916,0.529166 -0.29104,0 -0.52917,-0.238125 -0.52917,-0.529166 z m 5.77288,-2.000103 c -1.82528,-0.88382 -1.77104,-3.63331 0.0884,-4.48052 1.2295,-0.5602 62.5279,-0.5668 63.75682,-0.007 1.92089,0.87522 1.9301,3.6289 0.0151,4.50145 -1.17601,0.53583 -62.75262,0.52227 -63.86027,-0.0141 z m 67.66722,-6.16133 c 0.0627,-0.3172 1.54281,-1.42922 3.28906,-2.47116 1.74625,-1.04194 5.27844,-3.34913 7.8493,-5.12708 l 4.67431,-3.23265 v -1.46665 c 0,-2.63124 2.60568,-3.86056 5.26643,-2.48463 1.55469,0.80396 1.89662,2.63829 0.92518,4.96327 -0.48398,1.15834 -0.60123,1.22273 -2.20486,1.21089 -0.93153,-0.007 -2.08261,-0.22788 -2.55794,-0.49111 -0.99405,-0.5505 -0.67599,-0.71018 -6.09168,3.05826 -3.99482,2.77974 -10.29834,6.61757 -10.86916,6.61757 -0.21709,0 -0.34338,-0.25952 -0.28064,-0.57671 z m 21.04455,-10.82638 c 0.65898,-1.37911 0.27932,-2.53149 -1.00996,-3.06552 -1.20131,-0.4976 -2.66662,-0.076 -3.03038,0.87198 -0.32608,0.84975 0.38839,2.45132 1.30576,2.927 1.25087,0.64863 2.1952,0.39534 2.73458,-0.73346 z m -1.22519,8.17634 c 0.12465,-1.19263 0.22664,-2.46263 0.22664,-2.82222 0,-0.35959 0.23813,-0.65381 0.52917,-0.65381 0.5879,0 0.68291,1.24925 0.30483,4.00771 -0.15401,1.12357 -0.39098,1.63674 -0.75582,1.63674 -0.44038,0 -0.49262,-0.37165 -0.30482,-2.16842 z m -68.41541,-0.91839 c 0.24811,-1.43875 2.15813,-5.42324 3.67813,-7.67291 0.52438,-0.77612 1.46564,-1.66909 2.09169,-1.98439 0.97843,-0.49277 1.06382,-0.63507 0.60803,-1.01333 -0.67233,-0.55799 -0.6782,-1.86647 -0.0141,-3.15066 0.83775,-1.62003 2.33418,-1.8944 3.84603,-0.70519 1.16696,0.91794 1.1801,1.97613 0.0453,3.64832 -0.71824,1.05839 -0.8119,1.43802 -0.49901,2.02267 l 0.38519,0.71973 0.78633,-0.73872 c 0.43248,-0.40629 1.07851,-0.73871 1.43563,-0.73871 0.61529,0 0.61757,-0.0351 0.0434,-0.6695 -0.94905,-1.04868 -0.6367,-3.48282 0.56124,-4.37366 0.90442,-0.67257 1.0021,-0.67766 2.18987,-0.11402 0.68378,0.32447 1.342,0.74977 1.46273,0.94511 0.12349,0.19981 0.52699,-0.0358 0.92253,-0.53861 1.5506,-1.97127 4.31186,-0.357 4.10984,2.40266 -0.0876,1.19708 -0.30698,1.58293 -1.23175,2.16681 l -1.12512,0.71037 0.17752,3.175 c 0.23308,4.16841 0.35496,4.67361 1.1916,4.93915 1.00436,0.31877 0.8916,1.23447 -0.15201,1.23447 -1.49664,0 -1.96345,-0.85595 -1.98581,-3.64118 -0.0112,-1.39284 -0.13067,-3.15352 -0.26554,-3.91262 l -0.24521,-1.38019 -0.93391,1.73297 c -0.51365,0.95313 -1.21003,2.72945 -1.54752,3.94739 -0.33748,1.21794 -0.75023,2.29887 -0.91721,2.40207 -0.16698,0.1032 -0.30361,0.49577 -0.30361,0.87238 0,0.40072 -0.24107,0.68473 -0.58121,0.68473 -0.51082,0 -0.5542,-0.35251 -0.35822,-2.91042 0.24801,-3.23707 -0.0357,-6.61458 -0.55567,-6.61458 -0.61816,0 -2.47394,2.26994 -3.17252,3.88056 -0.3787,0.87312 -0.99792,2.57968 -1.37603,3.79236 -0.43146,1.38376 -0.87926,2.20486 -1.20247,2.20486 -0.73466,0 -0.64169,-1.00224 0.38352,-4.13424 1.24832,-3.81361 1.4772,-5.66628 0.7352,-5.95101 -1.08481,-0.41628 -2.30916,0.21297 -3.3267,1.70976 -1.59928,2.3525 -3.18046,5.41123 -3.59706,6.95839 -0.24015,0.89184 -0.58724,1.4171 -0.93642,1.4171 -0.44651,0 -0.51029,-0.25828 -0.3267,-1.32292 z m 16.88005,-10.44289 -0.17083,-0.89366 -0.92928,0.86168 c -0.51111,0.47392 -1.04997,0.86168 -1.19747,0.86168 -0.31955,0 -0.34187,1.44792 -0.0495,3.21521 l 0.21087,1.27493 1.15355,-2.21309 c 0.75062,-1.44008 1.09387,-2.52524 0.98271,-3.10675 z m 3.46079,-0.98902 c 0.48656,-0.90914 0.10424,-1.9719 -0.81426,-2.26341 -0.92103,-0.29233 -1.68452,0.61734 -1.68452,2.00702 0,1.47527 1.75035,1.65486 2.49878,0.25639 z m -5.19691,-0.24337 c 1.0085,-1.05265 0.8978,-1.40597 -0.60978,-1.94618 -1.30812,-0.46873 -2.24431,1.48994 -1.20765,2.5266 0.59469,0.59469 0.73434,0.55008 1.81743,-0.58042 z m -5.61929,-0.35488 c 0.39167,-0.7574 0.42005,-1.10596 0.1149,-1.41111 -0.68344,-0.68344 -1.88659,-0.46715 -2.28673,0.41108 -0.84511,1.8548 1.23461,2.81241 2.17183,1.00003 z m -27.0708,10.61905 c -2.3259,-1.99876 -5.3678,-5.17376 -15.37853,-16.05149 -4.51822,-4.90952 -5.15992,-5.48047 -5.78408,-5.14643 -1.01861,0.54514 -4.02564,0.15635 -5.12336,-0.66243 -1.07998,-0.80553 -1.27724,-1.4457 -0.96248,-3.12352 0.52606,-2.80415 3.30592,-4.30517 5.93707,-3.2058 1.40952,0.58893 1.72087,1.27732 1.80431,3.98938 l 0.0582,1.89171 3.8347,4.14283 c 12.46431,13.46586 14.66485,15.76577 16.67787,17.431 2.11948,1.7533 2.76247,2.76322 1.75924,2.76322 -0.25436,0 -1.52469,-0.91281 -2.82295,-2.02847 z m -21.96702,-22.17455 c 0.30691,-0.11777 0.55802,-0.43527 0.55802,-0.70555 0,-0.27029 0.15875,-0.49143 0.35278,-0.49143 0.58011,0 0.39875,-2.53947 -0.23107,-3.23541 -0.65066,-0.71898 -2.26227,-0.84598 -3.34977,-0.26397 -0.87065,0.46596 -1.7869,2.53787 -1.47814,3.34251 0.39789,1.03687 2.8709,1.84399 4.14818,1.35385 z m -7.90865,23.42631 c 0,-0.23316 0.34255,-1.82066 0.76121,-3.52778 0.5274,-2.15048 0.9205,-3.10384 1.27981,-3.10384 0.41165,0 0.47034,0.30922 0.2846,1.49931 -0.43923,2.81415 -1.34875,5.55625 -1.84294,5.55625 -0.26547,0 -0.48268,-0.19078 -0.48268,-0.42394 z m 40.56945,-3.14104 c 0,-0.70186 -0.15,-0.73584 -2.72511,-0.61736 -2.37262,0.10917 -2.74101,0.0455 -2.84808,-0.49197 -0.10993,-0.55176 0.21829,-0.61736 3.08895,-0.61736 2.52962,0 3.25507,-0.11241 3.41499,-0.52917 0.28619,-0.74579 1.53645,-0.67457 1.54818,0.0882 0.007,0.46195 0.25131,0.32795 0.97014,-0.53235 0.52836,-0.63234 1.15908,-1.14828 1.40162,-1.14653 0.52537,0.004 0.59115,0.92706 0.0882,1.2379 -0.53317,0.32952 -0.42268,0.88195 0.17639,0.88195 0.29104,0 0.52917,0.23812 0.52917,0.52917 0,0.34802 -0.34821,0.52916 -1.01719,0.52916 -0.7205,0 -1.071,0.2058 -1.20169,0.70556 -0.10148,0.38805 -0.45601,0.70555 -0.78785,0.70555 -0.42965,0 -0.55022,-0.20311 -0.41883,-0.70555 0.11667,-0.44614 0.0108,-0.70556 -0.28786,-0.70556 -0.2598,0 -0.57314,0.3175 -0.6963,0.70556 -0.29696,0.93563 -1.23472,0.90738 -1.23472,-0.0372 z m 66.58679,-10.44974 c -1.68155,-1.98112 -2.13375,-3.2714 -1.14652,-3.2714 0.29104,0 0.52916,0.13752 0.52916,0.3056 0,0.16808 0.7895,1.16027 1.75444,2.20486 0.96494,1.0446 1.75869,2.0977 1.76389,2.34024 0.0215,1.00583 -1.33238,0.26874 -2.90097,-1.5793 z m -103.08943,-1.21541 c 0.44239,-3.32099 0.59078,-3.95378 1.11471,-4.75339 0.58243,-0.8889 1.52126,-1.12323 1.52126,-0.3797 0,0.24787 -0.24786,0.80454 -0.5508,1.23705 -0.30294,0.43251 -0.66013,1.77546 -0.79375,2.98434 -0.18869,1.7071 -0.38273,2.22482 -0.86888,2.31824 -0.54543,0.10482 -0.59977,-0.0761 -0.42254,-1.40654 z m 58.02208,-3.01225 c 0,-0.33192 0.78215,-2.27661 1.73811,-4.32153 0.95597,-2.04492 2.56194,-5.54 3.56881,-7.76684 1.00688,-2.22684 2.63836,-5.56059 3.62551,-7.40833 1.66774,-3.12165 1.78822,-3.51319 1.70156,-5.52947 -0.0824,-1.9163 7.1e-4,-2.23587 0.71209,-2.73403 0.91516,-0.641 2.49231,-0.73487 3.47859,-0.20702 0.86425,0.46253 1.24834,2.49044 0.67703,3.57453 -0.5789,1.09848 -1.00115,1.34819 -2.29066,1.35467 -1.03658,0.005 -1.18314,0.21778 -3.95578,5.73804 -2.49457,4.96663 -4.70168,9.68178 -7.59604,16.22777 -0.72984,1.65065 -1.65922,2.25122 -1.65922,1.07221 z m 14.04055,-24.51429 c 0.59028,-0.59028 0.52835,-1.87256 -0.11628,-2.40756 -0.41261,-0.34243 -0.74473,-0.35438 -1.41111,-0.0508 -1.41467,0.64457 -0.99576,2.88165 0.53961,2.88165 0.31045,0 0.75495,-0.1905 0.98778,-0.42333 z m 22.29555,20.97639 c -2.16184,-1.41339 -3.57116,-3.26695 -2.48398,-3.26695 0.61112,0 4.24787,2.91273 4.24787,3.40218 0,0.62942 -0.67326,0.57781 -1.76389,-0.13523 z m -84.30996,-7.2357 c 0.004,-0.45537 4.12374,-2.38125 5.09379,-2.38125 0.75017,0 0.69256,1.03579 -0.0706,1.26971 -0.33955,0.10408 -1.2963,0.49597 -2.12611,0.87087 -1.7315,0.78229 -2.90273,0.87958 -2.89706,0.24067 z m 73.93051,-2.44475 c -1.31577,-1.53717 -1.64035,-2.75872 -0.73304,-2.75872 0.29104,0 0.52916,0.13018 0.52916,0.28928 0,0.1591 0.55563,0.9384 1.23472,1.73177 0.6791,0.79338 1.23473,1.6157 1.23473,1.82739 0,0.82696 -1.06235,0.31598 -2.26557,-1.08972 z m -62.64554,-1.09506 c 0,-0.49722 3.96647,-2.15588 6.1201,-2.55925 1.18189,-0.22137 1.3417,-0.17359 1.23472,0.36917 -0.083,0.42086 -0.72695,0.77786 -1.98196,1.09866 -1.0225,0.26137 -2.3243,0.71579 -2.8929,1.00982 -1.26364,0.65346 -2.47996,0.69348 -2.47996,0.0816 z m 12.7,-4.38666 c 0,-0.56039 0.40262,-0.757 2.24554,-1.09657 2.85053,-0.52524 3.04613,-0.5197 3.04613,0.0862 0,0.31726 -0.6745,0.64459 -1.84595,0.89582 -1.01528,0.21774 -2.20591,0.48623 -2.64584,0.59665 -0.62496,0.15685 -0.79988,0.0514 -0.79988,-0.48207 z m 42.71575,-1.12012 c -1.12877,-1.42519 -1.41021,-2.51238 -0.647,-2.49935 0.24253,0.004 0.88782,0.63915 1.43398,1.41112 0.54616,0.77196 1.14148,1.40357 1.32292,1.40357 0.18145,0 0.3299,0.23813 0.3299,0.52917 0,0.99719 -1.35171,0.52931 -2.4398,-0.84451 z m -32.77564,-2.03081 c 0.13766,-0.70275 1.99593,-1.38818 4.6689,-1.72215 1.6534,-0.20657 1.97155,-0.15786 1.97155,0.30187 0,0.38398 -0.502,0.62255 -1.6757,0.79639 -0.92163,0.1365 -2.29097,0.46372 -3.04296,0.72717 -1.76791,0.61934 -2.06027,0.60363 -1.92179,-0.10328 z m 11.93211,-2.73085 c 0,-0.32027 0.87332,-0.68811 2.51272,-1.05833 3.06161,-0.6914 3.83728,-0.71013 3.83728,-0.0927 0,0.3041 -0.95467,0.68452 -2.65586,1.05833 -3.23265,0.71033 -3.69414,0.7219 -3.69414,0.0927 z"
         id="path41417" />
      <path
         style="fill:#7ab892;fill-opacity:1;stroke-width:0.352778"
         d="m -165.93304,80.015275 c -1.23368,-0.39691 -2.73507,-1.58122 -3.52719,-2.78229 -1.23319,-1.86985 -0.38466,-6.28022 1.36133,-7.07574 1.95145,-0.88914 6.14946,-0.25674 6.83817,1.03013 0.84105,1.57151 -0.0392,4.15195 -1.66985,4.89491 -1.11651,0.50871 -3.03129,0.48693 -3.55871,-0.0405 -0.54684,-0.54684 -0.54684,-2.48706 0,-3.03389 0.53739,-0.53739 1.69334,-0.5519 1.69334,-0.0212 0,0.22114 -0.24677,0.58252 -0.54837,0.80306 -0.71624,0.52373 -0.30161,1.61708 0.61324,1.61708 0.38223,0 1.17006,-0.4751 1.75073,-1.05578 0.8091,-0.8091 0.99772,-1.24183 0.80726,-1.85208 -0.31806,-1.01913 -0.70422,-1.2548 -2.5016,-1.52667 -2.19648,-0.33223 -3.32509,0.35858 -3.96606,2.42759 -0.47995,1.54928 -0.47271,1.7953 0.0831,2.82223 0.85888,1.58691 2.82447,2.77273 4.64153,2.80021 2.23487,0.0338 5.94343,-1.80727 9.52016,-4.72613 11.14322,-9.09362 14.68885,-12.12573 17.46946,-14.93932 3.04148,-3.07755 3.2943,-3.43373 2.73403,-3.85184 -0.72257,-0.53923 -0.80169,-1.384 -0.17639,-1.88356 0.54618,-0.43636 6.73055,-2.90911 7.27568,-2.90911 0.21848,0 0.39724,0.13436 0.39724,0.29858 0,0.3405 -0.81688,2.19513 -1.65539,3.75837 -0.31222,0.58208 -0.79349,1.49489 -1.06948,2.02847 -0.54532,1.05425 -2.05549,1.34034 -2.85497,0.54085 -0.3372,-0.33719 -1.27939,0.41056 -4.39209,3.48567 -2.17954,2.15322 -4.35967,4.23758 -4.84474,4.63192 -0.48507,0.39433 -3.58069,2.9167 -6.87917,5.60526 -3.29847,2.68856 -6.79097,5.45302 -7.76111,6.14324 -3.34958,2.38311 -7.44798,3.56089 -9.78013,2.81057 z"
         id="path37018" />
    </g>
  </g>
</svg>
