<?xml version="1.0" encoding="UTF-8" standalone="no" ?>
<!DOCTYPE svg PUBLIC "-//W3C//DTD SVG 1.1//EN" "http://www.w3.org/Graphics/SVG/1.1/DTD/svg11.dtd">
<svg xmlns="http://www.w3.org/2000/svg" xmlns:xlink="http://www.w3.org/1999/xlink" version="1.1" width="1200" height="628" viewBox="0 0 1200 628" xml:space="preserve">
<desc>Created with Fabric.js 3.6.6</desc>
<defs>
</defs>
<g transform="matrix(0.54 0 0 0.54 599.82 313.6)"  >
<g style=""   >
		<g transform="matrix(3.78 0 0 3.78 0 0)" id="rect1313"  >
<rect style="stroke: none; stroke-width: 1.59794; stroke-dasharray: none; stroke-linecap: butt; stroke-dashoffset: 0; stroke-linejoin: miter; stroke-miterlimit: 4; fill: rgb(255,255,255); fill-rule: nonzero; opacity: 0;"  x="-257.96875" y="-72.760415" rx="3.3306809e-15" ry="10.999999" width="515.9375" height="145.52083" />
</g>
		<g transform="matrix(3.78 0 0 3.78 -19.74 -84.8)" id="rect4526"  >
<rect style="stroke: none; stroke-width: 1.55975; stroke-dasharray: none; stroke-linecap: butt; stroke-dashoffset: 0; stroke-linejoin: miter; stroke-miterlimit: 4; fill: rgb(255,255,255); fill-rule: nonzero; opacity: 0;"  x="-241.16771" y="-49.741665" rx="3.3306809e-15" ry="10.999999" width="482.33542" height="99.48333" />
</g>
		<g transform="matrix(3.78 0 0 3.78 -31.85 -65.82)" id="path1245-5"  >
<path style="stroke: none; stroke-width: 0.352777; stroke-dasharray: none; stroke-linecap: butt; stroke-dashoffset: 0; stroke-linejoin: miter; stroke-miterlimit: 4; fill: rgb(122,184,146); fill-rule: nonzero; opacity: 1;"  transform=" translate(-237.96, -54.76)" d="m 228.90007 80.725571 c -6.428 -1.437476 -10.67956 -3.497177 -14.23972 -6.898536 c -2.83737 -2.710805 -4.81105 -5.815055 -6.28189 -9.880315 c -1.82538 -5.045146 -1.05127 -15.435495 1.59806 -21.449805 c 1.87949 -4.266678 7.80436 -10.602441 11.63237 -12.439099 c 3.55574 -1.70601 4.74322 -1.918039 10.74214 -1.918039 c 5.51177 0 5.71159 0.02667 9.36834 1.250289 c 5.28958 1.770007 7.85823 3.879011 11.58198 9.509432 c 1.91082 2.889234 2.35878 5.001604 2.31918 10.936112 c -0.043 6.437895 -0.53729 8.61473 -2.86893 12.633812 c -3.32915 5.738532 -7.36227 8.017809 -14.15016 7.996809 c -5.51661 -0.01707 -8.08749 -0.917739 -11.54144 -4.043384 c -2.55045 -2.308031 -2.92314 -3.372016 -2.92047 -8.337888 c 0.003 -4.739413 0.34724 -5.862315 2.53405 -8.255011 c 2.4539 -2.684968 3.85066 -3.346217 7.06313 -3.343759 c 3.57634 0.0028 5.12201 0.515258 6.89205 2.28528 c 1.45328 1.453285 1.50048 1.57157 1.50048 3.761447 c 0 3.527446 -1.43378 4.887415 -5.15266 4.887415 c -2.73629 0 -4.37234 -1.168347 -4.37234 -3.122396 c 0 -0.727432 0.1905 -1.513104 0.42333 -1.745938 c 0.66567 -0.665662 2.5654 -0.508328 3.27054 0.27087 c 0.51051 0.564087 0.76467 0.621189 1.35612 0.304657 c 0.70901 -0.379444 0.69911 -0.415255 -0.38158 -1.380847 c -1.65013 -1.474406 -3.38921 -1.682824 -5.34953 -0.641114 c -2.33185 1.239136 -3.5837 3.225403 -3.81005 6.045239 c -0.32533 4.053023 0.95628 6.10652 5.03192 8.062426 c 3.2139 1.542362 5.75646 1.68982 9.2242 0.534956 c 2.08915 -0.695757 3.12721 -1.270982 4.06043 -2.250035 c 1.2452 -1.306357 3.42251 -4.550051 3.96131 -5.901428 c 1.22288 -3.067143 1.65685 -9.545445 0.85799 -12.808366 c -0.80629 -3.293202 -5.27706 -8.869849 -8.21994 -10.25317 c -3.82828 -1.799497 -6.92465 -2.514854 -10.88536 -2.514854 c -3.4535 0 -4.09823 0.106778 -6.53409 1.082141 c -2.95971 1.185127 -3.98196 1.87113 -6.61501 4.439187 c -4.74787 4.630687 -7.07253 9.969396 -7.45359 17.117647 c -0.22075 4.141038 0.0888 5.966862 1.54492 9.111025 c 0.49418 1.067154 1.15305 2.489348 1.46415 3.160432 c 0.949 2.04724 4.57851 5.431335 7.11811 6.636853 c 7.94112 3.769537 13.678 4.636344 22.65386 3.422854 c 4.0458 -0.546971 7.29141 -1.489657 9.36062 -2.71879 c 1.07701 -0.639749 1.11439 -0.726726 0.61737 -1.436328 c -0.6868 -0.980564 -0.67534 -2.701964 0.0246 -3.701359 c 0.30454 -0.434806 1.29672 -1.189006 2.20485 -1.676006 c 2.49619 -1.338625 7.79272 -4.607647 8.4947 -5.242951 c 0.78738 -0.712565 2.63443 -0.726443 3.21726 -0.02416 c 0.59677 0.719045 0.25696 5.394198 -0.56351 7.753083 c -1.93344 5.558684 -2.40864 6.589813 -3.72741 8.088037 c -1.18224 1.343078 -1.62875 1.61335 -2.6655 1.61335 c -0.98115 0 -1.4942 -0.271677 -2.41834 -1.280615 l -1.173 -1.280615 l -1.52041 0.869828 c -2.52875 1.446681 -5.54587 2.350797 -9.73463 2.917098 c -5.47108 0.739661 -13.89292 0.669816 -17.53856 -0.145455 z" stroke-linecap="round" />
</g>
		<g transform="matrix(3.78 0 0 3.78 -24.69 -99.79)" id="path960-6"  >
<path style="stroke: none; stroke-width: 0.352777; stroke-dasharray: none; stroke-linecap: butt; stroke-dashoffset: 0; stroke-linejoin: miter; stroke-miterlimit: 4; fill: rgb(0,0,0); fill-rule: nonzero; opacity: 1;"  transform=" translate(-239.86, -45.77)" d="m 147.42562 77.06237 c -0.92919 -1.119603 -0.84736 -3.595431 0.28295 -8.560173 c 1.31947 -5.79561 1.96209 -8.440258 2.69027 -11.071595 c 0.29531 -1.067155 0.76025 -3.05153 1.03319 -4.409723 c 1.55376 -7.731742 5.52441 -16.447847 9.27455 -20.35887 l 1.25502 -1.308867 l -1.44176 -1.564129 c -1.63501 -1.773775 -1.97952 -3.118808 -2.00812 -7.840041 c -0.0156 -2.58032 0.0746 -2.970125 0.95463 -4.123894 c 0.58605 -0.76836 1.88291 -1.722707 3.26672 -2.403956 c 2.1653 -1.065969 2.45573 -1.118717 5.14483 -0.934403 c 2.67968 0.183671 2.94825 0.278329 4.49438 1.584119 c 2.09777 1.771666 2.66193 3.324487 2.37726 6.54327 c -0.26402 2.985325 -1.42671 5.380924 -3.41196 7.029979 l -1.47505 1.225264 l 0.84235 1.13792 c 0.76398 1.032045 0.85378 1.553787 0.96508 5.607706 l 0.12271 4.469792 l 0.76145 -1.94028 c 1.56912 -3.998372 2.95052 -6.181635 4.95576 -7.83246 c 1.7614 -1.450078 1.9035 -1.665229 1.38384 -2.095251 c -1.26967 -1.050661 -1.86265 -3.174807 -1.87068 -6.701169 c -0.007 -3.25443 0.0412 -3.473029 1.13878 -5.115279 c 1.47728 -2.210467 2.96021 -2.949033 5.92263 -2.949736 c 5.12809 -0.0013 8.45307 3.451987 8.45307 8.779076 c 0 2.019969 -0.15423 2.614318 -1.04137 4.013194 c -0.57275 0.903134 -1.68259 2.106568 -2.46632 2.674295 c -1.19193 0.863428 -1.3421 1.101008 -0.91825 1.452766 c 0.83146 0.690047 1.55188 3.476225 1.96465 7.598177 c 0.6093 6.084321 0.60999 6.085321 1.82468 2.645833 c 0.58245 -1.649237 1.33801 -3.633612 1.67901 -4.409723 c 0.34101 -0.77611 0.71986 -1.826186 0.84188 -2.3335 c 0.35357 -1.470023 2.42917 -4.301628 3.58377 -4.889111 c 0.58208 -0.296175 1.12613 -0.579843 1.209 -0.630373 c 0.0829 -0.05053 -0.26422 -0.526782 -0.7713 -1.058333 c -1.35334 -1.418635 -1.67242 -2.589996 -1.67242 -6.139582 c 0 -3.68907 0.48767 -5.033582 2.55264 -7.037562 c 2.63689 -2.559013 7.77992 -2.808811 11.31192 -0.549421 c 2.76273 1.767301 3.22417 2.782033 3.23574 7.115659 c 0.007 2.772183 -0.12964 3.782807 -0.63984 4.718466 c -0.94804 1.738648 -3.68774 4.277368 -4.61599 4.277368 c -1.12525 0 -1.29923 0.311769 -0.76322 1.367641 c 0.34753 0.684589 0.47117 2.905895 0.47508 8.535744 c 0.009 13.354775 0.99833 26.431439 2.20595 29.166754 l 0.66193 1.499306 h 2.41873 c 2.72522 0 3.26539 0.325493 3.26539 1.967638 c 0 1.669616 -0.65518 1.987841 -4.20334 2.041575 c -3.04752 0.04615 -3.18846 0.01278 -4.26812 -1.010602 c -1.37545 -1.303759 -1.98248 -2.434577 -2.46665 -4.59503 c -0.52622 -2.3481 -1.37673 -16.745053 -1.57371 -26.638704 c -0.0913 -4.586047 -0.26788 -8.60375 -0.39239 -8.928227 c -0.44698 -1.164791 -2.76074 -1.149035 -4.10211 0.02794 c -0.33118 0.290594 -1.02863 1.660877 -1.54988 3.045079 c -0.52125 1.384196 -1.06189 2.675474 -1.20141 2.869501 c -0.13953 0.194027 -0.53969 1.305277 -0.88925 2.469444 c -0.34957 1.164166 -0.74659 2.275416 -0.88227 2.469446 c -0.36926 0.528023 -1.33281 4.999696 -1.59514 7.402708 c -0.12676 1.161074 -0.4567 3.145449 -0.73321 4.409723 c -1.09454 5.004456 -1.51268 7.800766 -1.89944 12.702445 c -0.22185 2.811655 -0.56923 5.311968 -0.77197 5.55625 c -0.5127 0.61777 -2.57208 0.556437 -3.11078 -0.09265 c -0.33733 -0.406466 -0.3838 -1.584177 -0.19137 -4.850693 c 0.66661 -11.315856 -0.29689 -29.861476 -1.79589 -34.56795 c -0.65464 -2.055389 -1.45855 -2.573994 -3.13328 -2.021287 c -2.39968 0.791964 -4.78581 4.648676 -6.8729 11.108671 c -0.62686 1.94028 -1.60538 4.877155 -2.17447 6.52639 c -2.36881 6.864784 -3.31224 10.992569 -3.98829 17.449961 c -0.62893 6.007444 -0.98725 6.891703 -2.79268 6.891703 c -1.73775 0 -2.0875 -0.643546 -1.86727 -3.435763 c 0.18224 -2.310463 1.02276 -8.531003 2.13362 -15.790627 c 1.17596 -7.685045 1.67573 -19.767277 0.90866 -21.967684 c -0.47593 -1.36525 -1.04892 -1.588051 -2.17123 -0.844254 c -3.48953 2.312665 -8.2862 12.257558 -9.98183 20.695271 c -0.27294 1.358194 -0.7436 3.342569 -1.04591 4.409724 c -1.1603 4.095858 -3.02085 12.624395 -3.23234 14.816666 c -0.12167 1.261179 -0.37766 2.491491 -0.56888 2.734027 c -0.46354 0.587957 -2.54253 0.563615 -3.03983 -0.03559 z m 39.33385 -50.015645 c 0.41159 -0.384029 1.02577 -1.213408 1.36486 -1.843061 c 0.60329 -1.120224 0.59727 -1.182838 -0.27987 -2.913806 c -1.09427 -2.159433 -3.16929 -3.347857 -4.65973 -2.668767 c -1.16461 0.53063 -2.28592 2.425655 -2.28756 3.865981 c -0.004 3.752347 3.42443 5.8343 5.8623 3.559653 z m 20.94749 0.06919 c 1.99344 -1.417476 2.82018 -4.576887 1.73048 -6.613014 c -0.26563 -0.49635 -1.25744 -1.257567 -2.20726 -1.694095 c -2.27018 -1.043353 -4.06109 -0.662454 -5.45057 1.159253 c -0.77875 1.020982 -0.95182 1.616567 -0.95182 3.275407 c 0 1.672735 0.15433 2.194679 0.88195 2.982857 c 1.78689 1.935604 4.05338 2.271802 5.99722 0.889592 z m -39.62935 -0.57381 c 1.45207 -1.107543 2.58768 -3.246101 2.58768 -4.87304 c 0 -0.919117 -0.25885 -1.435227 -1.05643 -2.106342 c -1.56351 -1.315607 -2.24348 -1.408097 -4.1914 -0.570125 c -2.63757 1.134653 -2.97655 1.657488 -2.80646 4.328687 c 0.19619 3.081075 0.91036 4.1232 2.82565 4.1232 c 1.02035 0 1.81294 -0.270819 2.64096 -0.90238 z m 125.69513 48.080136 c -1.2678 -1.209222 -3.72843 -3.363553 -5.46806 -4.787402 c -1.73966 -1.423848 -4.51236 -3.828699 -6.16162 -5.344115 c -1.64922 -1.515417 -4.98297 -4.532231 -7.40833 -6.704034 l -4.40971 -3.948726 l -0.28384 5.765067 c -0.26665 5.415735 -0.20257 6.60958 0.70271 13.09184 c 0.23333 1.67088 -0.31938 2.374614 -1.86505 2.374614 c -2.73992 0 -3.15624 -3.071826 -2.682 -19.789029 c 0.33197 -11.701534 0.37774 -12.238132 1.27508 -14.943889 c 2.34098 -7.058816 5.25896 -9.348853 12.29235 -9.647033 c 7.53227 -0.319328 12.40867 1.650145 14.35899 5.799304 c 1.10689 2.35476 1.02365 7.140736 -0.1657 9.527423 c -0.81955 1.644661 -2.51746 3.356007 -4.2371 4.270645 c -0.98268 0.522687 -7.2536 2.190819 -10.08308 2.682216 c -1.28111 0.222491 -2.37736 0.56328 -2.4361 0.757309 c -0.1111 0.366834 5.6006 5.6509 11.99735 11.099149 c 9.75828 8.311335 9.87777 8.430535 9.87777 9.853247 c 0 1.5913 -0.50586 2.156535 -1.92263 2.148274 c -0.83343 -0.0049 -1.59559 -0.501877 -3.38103 -2.20486 z M 275.53398 49.355659 c 3.74219 -0.437632 11.06557 -2.328532 12.57612 -3.247165 c 2.19195 -1.332997 3.28309 -4.295651 2.4792 -6.73145 c -0.9516 -2.883397 -4.7005 -4.700651 -9.68094 -4.692772 c -5.07979 0.008 -7.71348 2.087719 -9.44203 7.455816 c -0.49003 1.521793 -1.00475 3.98781 -1.14382 5.480029 l -0.25286 2.713127 l 1.18602 -0.307978 c 0.6523 -0.169386 2.57754 -0.470712 4.27831 -0.669607 z m 28.47745 26.331193 c -0.38449 -0.630592 -0.70115 -1.30528 -0.70371 -1.499307 c -0.003 -0.194027 -0.23461 -3.924652 -0.51565 -8.290277 c -0.28107 -4.365625 -0.61682 -12.541249 -0.74618 -18.168056 c -0.27117 -11.796313 -0.0539 -13.914445 1.57943 -15.399321 c 1.72435 -1.567603 7.34396 -2.88939 12.38441 -2.912933 c 3.03945 -0.01421 3.57074 0.08749 5.70788 1.092486 c 4.08408 1.920531 7.14002 4.601345 8.31504 7.294298 c 0.2468 0.565626 0.44103 2.42969 0.44111 4.233333 c 0.00013 2.937097 -0.1007 3.419303 -1.1376 5.441283 c -0.77216 1.505696 -2.10416 3.160115 -4.14528 5.148673 c -3.64938 3.555399 -5.75892 4.456655 -10.39617 4.44151 c -2.94108 -0.0096 -7.09493 -0.892612 -8.0921 -1.720176 c -0.69754 -0.578905 -0.69471 -1.491226 -0.0269 8.662281 c 0.29905 4.547085 0.69593 8.667705 0.88193 9.156933 c 0.464 1.220433 0.42429 2.733035 -0.0851 3.242466 c -0.23284 0.232834 -0.94954 0.423334 -1.59269 0.423334 c -0.9407 0 -1.30606 -0.2242 -1.86841 -1.146527 z M 318.1156 52.270968 c 2.10053 -0.778584 2.82371 -1.280631 4.53514 -3.148351 c 2.33106 -2.543951 3.94232 -5.464239 3.94232 -7.145161 c 0 -2.691862 -2.18056 -5.151313 -6.4856 -7.315075 c -2.9823 -1.498949 -4.90799 -1.572914 -9.71521 -0.373155 c -3.55869 0.888156 -4.21833 1.37482 -4.32191 3.188663 c -0.34377 6.019535 -0.009 15.225196 0.53451 14.682049 c 0.53364 -0.533657 2.17562 -0.424902 4.81878 0.319172 c 3.12941 0.880962 3.81092 0.859764 6.69197 -0.208142 z m 93.67329 24.230221 c -3.45424 -0.848506 -7.53377 -4.058518 -9.48057 -7.459917 c -1.05159 -1.837295 -1.2681 -4.537876 -0.42024 -5.241546 c 0.67276 -0.558345 2.71047 -0.333137 3.01887 0.333653 c 2.32386 5.024075 2.82459 5.617943 6.16024 7.306323 c 2.96574 1.501156 5.13755 1.650174 7.02736 0.482192 c 1.34268 -0.829823 2.69018 -3.200908 2.69018 -4.733702 c 0 -1.755934 -5.91336 -12.388443 -8.7248 -15.687598 c -0.87788 -1.030182 -2.24009 -3.173307 -3.02715 -4.7625 c -1.34397 -2.713691 -1.43224 -3.082555 -1.4514 -6.064438 c -0.0296 -4.608854 0.53695 -6.203347 3.12399 -8.792496 c 1.28609 -1.287147 2.70568 -2.337776 3.55299 -2.629572 c 2.17805 -0.75008 5.51264 -0.889251 6.91245 -0.288499 c 3.31168 1.421247 6.08118 5.50413 6.5174 9.608037 c 0.26437 2.487425 -0.15946 3.100514 -2.01874 2.920352 c -1.26572 -0.122651 -1.71443 -0.751391 -2.39845 -3.360873 c -0.49604 -1.892292 -2.34453 -4.342736 -3.84636 -5.098838 c -1.1022 -0.554916 -1.25436 -0.549034 -2.8395 0.109725 c -3.14532 1.307137 -4.94994 3.875643 -4.96488 7.066579 c -0.0103 2.198561 1.65859 5.796113 4.0618 8.755864 c 2.22044 2.734559 7.75353 12.117983 8.67976 14.71966 c 0.80436 2.259341 0.83251 4.30721 0.0938 6.823948 c -0.74954 2.553838 -3.49128 5.313627 -5.87526 5.913914 c -1.78855 0.45036 -5.12328 0.489511 -6.79151 0.07973 z M 357.63575 74.89098 c -0.34912 -0.420667 -0.35758 -1.651016 -0.0407 -5.909027 c 0.22014 -2.957759 0.39913 -6.982447 0.39773 -8.943755 l -0.003 -3.566012 l -3.96875 -0.226865 c -2.18282 -0.124774 -6.53524 -0.329057 -9.67208 -0.453961 l -5.70334 -0.227102 l -0.20293 1.550532 c -0.32605 2.499249 -0.91297 11.703989 -0.91297 14.334278 c 0 2.727598 -0.3252 3.267644 -1.96766 3.267644 c -1.94151 0 -2.04644 -0.417999 -1.79654 -7.157244 c 0.12382 -3.339557 0.32893 -7.436768 0.45577 -9.104913 l 0.23061 -3.032985 l -1.1615 -0.232304 c -1.60543 -0.321085 -2.11068 -0.833615 -2.11068 -2.141027 c 0 -1.499989 0.55507 -1.967637 2.33553 -1.967637 h 1.48886 l 0.21828 -2.38125 c 0.12007 -1.309687 0.38052 -3.96875 0.5788 -5.909029 c 0.19828 -1.940277 0.50747 -5.035902 0.6871 -6.879167 c 0.56436 -5.790819 0.79587 -6.35 2.62893 -6.35 c 2.18445 0 2.20085 0.114573 1.23796 8.643056 c -0.32391 2.868705 -0.85217 8.216667 -1.18841 12.030845 l -0.12761 1.447514 l 6.9182 0.23068 c 3.805 0.126878 8.04521 0.328554 9.42263 0.44817 l 2.50447 0.217485 l 0.25254 -5.194785 c 0.13891 -2.857129 0.14073 -7.397895 0.004 -10.090586 c -0.27845 -5.484733 -0.13335 -5.968489 1.79001 -5.968489 c 2.08849 0 2.11667 0.148661 2.11667 11.166877 c 0 8.796917 0.0658 9.999818 0.54681 9.999802 c 0.85649 -0.000021 1.39348 0.747692 1.39348 1.940264 c 0 1.232011 -0.54086 1.94028 -1.48166 1.94028 c -0.58153 0 -0.63551 0.423497 -0.64077 5.027083 c -0.007 6.259652 -0.5348 12.869862 -1.07974 13.526487 c -0.54599 0.657867 -2.59347 0.635203 -3.1496 -0.03485 z M 47.898625 74.394312 c -3.285567 -1.105845 -4.361289 -1.690034 -5.690931 -3.090577 c -1.598708 -1.683954 -1.908688 -2.289537 -3.006598 -5.873707 c -1.679863 -5.483985 -1.438592 -12.858076 0.637061 -19.470825 c 1.736093 -5.530946 6.383033 -11.36472 10.905932 -13.691317 c 2.188633 -1.125842 2.825967 -1.292101 4.86369 -1.26878 c 4.151976 0.04752 5.679638 1.086691 5.6912 3.871356 c 0.0065 1.555592 -0.510691 2.099027 -1.997501 2.099027 c -0.830376 0 -1.312018 -0.238064 -1.709761 -0.845095 c -0.886963 -1.353677 -1.862275 -1.385766 -4.401426 -0.144801 c -2.859296 1.397426 -5.37664 3.906012 -7.324788 7.299306 c -1.729404 3.01229 -2.653906 5.783816 -3.457109 10.36396 c -0.661385 3.771426 -0.525968 5.596376 0.725511 9.777555 c 1.228519 4.104449 2.092463 5.288764 4.581969 6.281068 c 3.140009 1.251588 4.678379 1.33971 7.425963 0.425368 c 3.351929 -1.115452 6.345086 -2.991329 8.757666 -5.488628 l 2.068356 -2.140987 l -0.05647 -4.677172 c -0.0817 -6.767462 0.67837 -10.127607 3.913084 -17.298987 c 0.941599 -2.087531 4.039148 -5.563981 6.416347 -7.201223 c 3.825912 -2.635004 10.254668 -3.085713 12.750953 -0.893947 c 0.654759 0.574886 1.955718 1.448133 2.89102 1.940544 c 1.954533 1.029009 4.171566 3.041028 4.917758 4.462997 c 1.720712 3.279044 2.886596 14.211762 1.934117 18.13652 c -0.660932 2.723409 -1.823503 5.452467 -3.091225 7.25642 c -0.647986 0.922084 -1.178155 1.820577 -1.178155 1.996657 c 0 0.627893 -6.102236 6.016374 -7.710667 6.80878 c -1.405777 0.692565 -2.187983 0.806944 -5.5185 0.806944 c -5.870241 0 -8.543512 -0.93169 -12.087407 -4.212714 l -2.088322 -1.933416 l -1.202415 1.245105 c -0.661323 0.684805 -2.313662 1.916771 -3.671855 2.737699 c -4.927169 2.978108 -10.419355 4.024792 -14.2875 2.72287 z m 35.879066 -4.900255 c 4.785005 -1.92976 9.505767 -8.173609 11.078432 -14.652739 c 0.693462 -2.856947 -0.142727 -9.476891 -1.683441 -13.327525 c -0.609216 -1.522572 -2.684706 -3.182335 -4.913016 -3.92892 c -0.72064 -0.241445 -1.484495 -0.756494 -1.697453 -1.14455 c -0.560244 -1.020874 -0.944496 -1.223508 -2.327476 -1.227352 c -3.092524 -0.0086 -6.528242 1.908823 -8.947451 4.993447 c -2.768918 3.53052 -5.516438 11.944479 -5.516438 16.893444 c 0 2.419059 0.881186 7.078768 1.602388 8.473419 c 1.047427 2.025504 6.283155 4.367194 10.039278 4.49009 c 0.485069 0.01587 1.5494 -0.240318 2.365177 -0.569314 z m -71.416293 4.440057 c -0.750256 -0.798613 -0.755576 -0.914061 -0.622278 -13.505201 c 0.07395 -6.984836 0.273113 -15.916428 0.442592 -19.847983 c 0.33494 -7.769886 0.416033 -8.064251 2.689132 -9.761363 c 0.89739 -0.669999 1.56367 -0.735327 8.714605 -0.854469 c 5.77905 -0.09628 7.875833 -0.01871 8.26694 0.30589 c 0.637151 0.528788 0.692836 2.596708 0.08304 3.083782 c -0.242535 0.193726 -3.521852 0.465839 -7.287371 0.604703 c -3.76552 0.138861 -7.057859 0.333624 -7.316309 0.4328 c -0.80992 0.310793 -1.111443 2.535454 -1.286187 9.489588 l -0.169262 6.735979 l 8.112697 0.220584 c 5.299514 0.144092 8.282657 0.361635 8.602829 0.627353 c 0.642385 0.533133 0.630172 2.587207 -0.01857 3.125626 c -0.382389 0.317355 -2.550501 0.359746 -8.731249 0.170709 l -8.222539 -0.251481 v 7.98635 v 7.986345 l 1.234722 0.03485 c 0.679097 0.01916 5.567136 0.0051 10.862309 -0.03122 c 7.102059 -0.04874 9.762622 0.04601 10.142362 0.361162 c 0.629733 0.522631 0.679482 2.593702 0.0738 3.072421 c -0.257305 0.203369 -5.516814 0.446529 -12.62775 0.583814 L 13.118132 74.739627 L 12.361406 73.93413 Z m 424.121962 0.469829 c -1.32575 -0.593069 -2.28262 -2.005288 -2.64171 -3.898879 c -0.49138 -2.591041 -0.42048 -8.813535 0.19116 -16.778629 c 0.28311 -3.686529 0.68493 -10.512779 0.89292 -15.169446 c 0.20799 -4.656666 0.50035 -8.702037 0.64971 -8.989713 c 0.1652 -0.318249 1.29394 -0.694389 2.88277 -0.960644 c 3.46257 -0.580263 28.56013 -1.203418 29.15777 -0.723966 c 0.63664 0.510744 0.54353 2.565275 -0.14206 3.134601 c -0.45476 0.377642 -3.15193 0.535895 -12.25902 0.719277 c -10.20254 0.205436 -14.70168 0.538631 -15.71297 1.163664 c -0.15303 0.09458 -0.38528 3.152299 -0.51609 6.794931 c -0.13076 3.642628 -0.332 7.318918 -0.44715 8.169529 l -0.20936 1.546567 l 5.70177 -0.258392 c 4.29228 -0.194514 5.83007 -0.151916 6.22078 0.172325 c 0.66418 0.551225 0.67318 2.599412 0.0137 3.146645 c -0.32004 0.265604 -2.6381 0.494887 -6.32489 0.625602 l -5.81969 0.206335 l -0.25644 2.680788 c -0.3525 3.685172 -0.38198 11.575541 -0.0491 13.140001 c 0.35676 1.676774 0.85497 1.784575 6.29359 1.361732 c 6.44356 -0.500978 18.41251 -0.458216 18.9384 0.06766 c 0.55592 0.5559 0.54414 2.568683 -0.0177 3.017864 c -0.24786 0.198178 -4.14888 0.447442 -8.90765 0.56918 c -4.65666 0.119123 -10.37166 0.298037 -12.69999 0.397592 c -2.32834 0.09955 -4.55084 0.03897 -4.9389 -0.134628 z m -56.97363 -3.098496 c -3.15809 -1.077611 -6.13542 -3.404836 -7.56997 -5.917054 c -1.60049 -2.802777 -2.02374 -9.20182 -0.91141 -13.778624 c 1.77154 -7.289004 4.40013 -13.165826 7.34383 -16.418698 c 3.33581 -3.686201 7.40161 -4.709617 12.06209 -3.036183 c 4.41055 1.58369 7.36166 4.642961 9.11825 9.452332 c 0.9039 2.474785 0.9475 2.902788 0.9475 9.296992 v 6.702777 l -1.01827 1.94028 c -2.43285 4.635722 -6.01327 8.436887 -10.35508 10.993511 c -1.56125 0.919313 -1.94011 0.987364 -5.38361 0.967065 c -2.03729 -0.01199 -3.94229 -0.103089 -4.23333 -0.202398 z m 8.50961 -5.360331 c 1.4316 -0.943822 3.00416 -2.174134 3.49459 -2.73403 c 1.78059 -2.032857 3.09673 -3.90399 4.07442 -5.792666 c 0.88167 -1.703154 1.0147 -2.388822 1.14025 -5.877218 c 0.12621 -3.505615 0.0391 -4.278178 -0.77534 -6.879167 c -1.4692 -4.692163 -3.3574 -6.994448 -6.87297 -8.380148 c -2.32108 -0.914884 -3.18757 -0.90846 -5.20224 0.03857 c -3.28292 1.543143 -6.80471 8.365948 -8.96289 17.363882 c -0.58185 2.425882 -0.61582 3.140704 -0.26659 5.610055 c 0.51022 3.608007 1.76011 5.583079 4.42084 6.985768 c 2.23149 1.176411 2.6225 1.287515 4.71659 1.340077 c 1.39385 0.03499 2.00811 -0.208087 4.23334 -1.675119 z M 137.85545 61.838499 c -0.28082 -0.338359 -0.37927 -1.170217 -0.27138 -2.293056 c 0.14564 -1.515597 0.0818 -1.762064 -0.45642 -1.762064 c -0.42049 0 -0.70616 0.376076 -0.8709 1.146527 c -0.34178 1.598432 -0.78202 2.028473 -2.0766 2.028473 c -1.42961 0 -1.96764 -0.549839 -1.96764 -2.010834 v -1.164166 l -2.38125 -0.06138 c -1.30968 -0.03376 -6.54628 -0.01251 -11.63687 0.04717 c -7.04261 0.0826 -9.3833 0.0024 -9.78959 -0.33459 c -0.65875 -0.546714 -0.70178 -2.600518 -0.0655 -3.128547 c 0.31431 -0.260852 4.50725 -0.432154 12.74536 -0.52071 l 12.27696 -0.131967 l 0.42585 -1.238726 c 0.23422 -0.681294 0.78024 -1.736415 1.21339 -2.344706 c 0.64171 -0.901202 1.03129 -1.105982 2.10406 -1.105982 c 0.72409 0 1.50703 0.1905 1.73987 0.423334 c 0.51129 0.511286 0.56357 2.623354 0.0725 2.926884 c -0.19298 0.119269 -0.51607 0.52551 -0.71797 0.902761 c -0.28228 0.52746 -0.25305 0.685908 0.12653 0.685908 c 0.27569 0 1.22674 -1.518592 2.15411 -3.439583 c 1.98988 -4.121885 2.75465 -5.027083 4.2472 -5.027083 c 2.37292 0 2.53354 1.55367 0.54751 5.295995 c -1.60946 3.032755 -1.64362 3.170671 -0.78539 3.170671 c 0.94081 0 1.48167 0.708269 1.48167 1.94028 c 0 1.466278 -0.56262 1.940277 -2.30302 1.940277 h -1.45636 l -0.4214 1.825622 c -0.23178 1.004089 -0.59598 2.035964 -0.80934 2.293054 c -0.52627 0.634108 -2.58095 0.592325 -3.12528 -0.06356 z" stroke-linecap="round" />
</g>
		<g transform="matrix(3.78 0 0 3.78 -317.73 106.64)" id="path6237-3"  >
<path style="stroke: none; stroke-width: 0.372931; stroke-dasharray: none; stroke-linecap: butt; stroke-dashoffset: 0; stroke-linejoin: miter; stroke-miterlimit: 4; fill: rgb(0,0,0); fill-rule: nonzero; opacity: 1;"  transform=" translate(-173.9, -100.98)" d="m 243.69015 86.562021 c -0.17567 -0.06255 -0.34174 -0.06355 -0.45516 0.01331 c -1.39017 0.937623 -5.0955 3.743632 -5.61425 4.251438 c -0.76244 0.746331 -0.77524 1.160147 -0.0599 1.95992 c 0.63127 0.705813 0.4946 0.77011 3.9569 -1.87847 c 1.33173 -1.018747 2.03183 -1.676028 2.4819 -2.247036 c 0.0877 -0.123062 0.25456 -0.328847 0.34873 -0.458652 c 0.2476 -0.487104 0.21299 -0.883442 -0.14414 -1.282944 c -0.15311 -0.17062 -0.33838 -0.295013 -0.51405 -0.357535 z M 83.518359 89.2232 c -0.84214 0.190938 -1.393011 2.374446 -1.597945 6.420484 l -0.205619 4.059672 l -1.135044 -0.784453 c -1.624394 -1.122468 -2.99694 -0.98515 -4.972077 0.497367 c -2.253022 1.69108 -3.298765 3.7864 -3.29612 6.60474 c 0.0032 3.60087 1.733449 6.68314 4.129965 7.35568 c 1.253542 0.35177 3.999265 -1.22559 5.012891 -2.87956 l 0.849862 -1.38634 l 0.644758 1.40542 c 1.091658 2.37914 3.246553 3.1263 5.911834 2.05003 c 1.102347 -0.44514 1.338079 -0.40373 2.429726 0.42459 c 0.664957 0.50451 1.720215 0.9173 2.344997 0.9173 c 2.084436 0 4.968532 -2.81155 6.973513 -6.79769 c 0.62597 -1.24453 1.24297 -2.26428 1.37115 -2.26723 c 0.51937 -0.0101 1.70697 3.50779 1.70695 5.05723 c 0 1.36609 -0.14872 1.73441 -0.84314 2.08816 c -0.7039 0.35861 -1.06004 0.26461 -2.15798 -0.56956 c -1.346169 -1.02276 -2.086487 -1.03645 -2.427141 -0.0438 c -0.310418 0.90445 0.06469 1.515 1.628943 2.64906 c 1.691998 1.22666 2.361798 1.30662 3.832388 0.45634 c 1.42814 -0.82571 2.43252 -2.78569 2.43438 -4.74877 c 0.001 -1.7374 -1.62772 -5.85543 -2.77588 -7.0172 c -0.51729 -0.52342 -0.62221 -1.04176 -0.48563 -2.39663 c 0.14878 -1.47583 0.0414 -1.877788 -0.73414 -2.744962 c -1.09351 -1.22264 -1.43213 -1.255172 -2.351713 -0.22699 c -0.826602 0.924166 -0.915358 2.739732 -0.208719 4.267582 c 0.450602 0.97427 0.415332 1.26497 -0.380758 3.13776 c -1.241065 2.91958 -4.155147 6.39812 -5.353353 6.39043 c -1.709695 -0.0112 -1.916536 -0.52981 -0.714506 -1.7924 c 3.368651 -3.53835 3.812189 -11.214897 0.647859 -11.214897 c -1.660977 0 -3.429524 1.50529 -4.415146 3.757537 c -0.872107 1.99313 -0.941281 2.46769 -0.74292 5.09133 c 0.208442 2.75708 0.181913 2.90471 -0.566744 3.12909 c -1.612814 0.48339 -2.692114 0.26394 -3.147849 -0.64059 c -0.513981 -1.02028 -0.613894 -8.79712 -0.194768 -15.153842 c 0.221029 -3.35241 0.17562 -4.112819 -0.274851 -4.616515 c -0.343337 -0.383886 -0.656458 -0.541936 -0.937173 -0.47829 z m -44.885091 1.269072 c -0.757918 0.32518 -0.925418 1.24698 -0.344593 1.896393 c 0.580824 0.649413 1.405271 0.462142 1.696107 -0.385276 c 0.103743 -0.302289 -0.04749 -0.813852 -0.335812 -1.136221 c -0.288349 -0.322399 -0.745337 -0.49089 -1.015702 -0.374896 z m 136.843222 0.394533 c -0.75792 0.325181 -0.92543 1.246418 -0.3446 1.895831 c 0.58082 0.649413 1.40475 0.462113 1.69559 -0.385305 c 0.24435 -0.711965 -0.71423 -1.783741 -1.35099 -1.510526 z m 119.56132 1.971485 c -0.75791 0.325179 -0.92543 1.24698 -0.34461 1.896393 c 0.58083 0.649412 1.40477 0.462113 1.6956 -0.385277 c 0.24436 -0.711964 -0.71422 -1.784332 -1.35099 -1.511116 z m -30.50616 1.155297 c -0.82601 0.140334 -1.66297 1.850196 -2.47881 5.084957 l -0.59619 2.364296 l -0.62461 -1.06574 c -1.64696 -2.810413 -4.5378 -3.332504 -7.268 -1.312398 c -1.61986 1.198568 -2.47638 2.865428 -2.62604 5.109208 c -0.30536 4.57754 -5.39475 6.67403 -7.00297 2.88477 c -0.89091 -2.09916 -0.74286 -3.84748 0.48667 -5.74523 c 1.48098 -2.285836 2.61156 -2.724052 4.28599 -1.662449 c 1.19464 0.757419 1.34556 0.772619 1.86711 0.189459 c 0.48989 -0.547733 0.50118 -0.749524 0.0832 -1.475863 c -0.75165 -1.306101 -2.87638 -2.33313 -4.17026 -2.015404 c -1.51524 0.372116 -3.71876 2.704714 -4.79126 5.071117 c -0.73215 1.61546 -0.85815 2.32733 -0.69074 3.90775 c 0.11259 1.06287 0.49661 2.4915 0.85348 3.17472 c 0.70654 1.35262 2.54296 2.90292 3.88405 3.27927 c 1.22785 0.34455 3.43336 -0.51074 4.81605 -1.86812 c 1.15078 -1.12971 1.22004 -1.14794 1.66976 -0.43553 c 0.258 0.4087 0.97663 1.03564 1.59743 1.39326 c 2.18383 1.25805 4.46393 0.6222 6.24196 -1.74041 l 0.93046 -1.2356 l 0.38437 1.23386 c 0.61078 1.95897 1.96581 2.50617 5.41174 2.18522 c 1.60174 -0.14917 3.11382 -0.41089 3.36018 -0.58112 c 0.25866 -0.17876 1.21059 0.0878 2.25252 0.63022 c 2.14623 1.11731 2.38601 1.13642 3.84944 0.30788 c 2.3679 -1.34065 3.57224 -3.3849 3.97031 -6.73993 c 0.45177 -3.80787 -1.64386 -7.041096 -4.50915 -6.957102 c -3.99369 0.117088 -7.21245 4.572832 -6.47549 8.964992 l 0.2237 1.33319 l -2.64 0.2767 c -1.45211 0.15219 -2.80463 0.16297 -3.00577 0.0237 c -0.84281 -0.58239 -0.0442 -7.50297 1.33291 -11.549922 c 0.61518 -1.807815 0.64129 -2.150947 0.19942 -2.645001 c -0.27172 -0.303826 -0.54611 -0.431502 -0.82144 -0.384714 z m -62.4966 0.274369 c -0.3244 -0.133562 -0.71901 0.03277 -1.17276 0.540103 c -0.42686 0.477255 -0.5144 1.047731 -0.34976 2.27531 c 0.28703 2.140093 -0.4222 7.956121 -1.18051 9.681271 c -0.32751 0.74511 -1.00337 1.68726 -1.50185 2.09396 c -1.27353 1.03906 -2.66053 0.31701 -3.1463 -1.6382 c -0.44371 -1.786 -0.4604 -6.92877 -0.0279 -8.614942 c 0.25173 -0.981394 0.20494 -1.415974 -0.20149 -1.870396 c -1.76273 -1.970893 -2.89349 1.710276 -2.49947 8.137798 c 0.22582 3.68374 0.94347 5.29137 2.92156 6.54412 c 1.81173 1.14736 2.19821 1.1208 4.0907 -0.28073 c 2.09562 -1.55203 3.28708 -4.26032 3.8205 -8.68427 c 0.5648 -4.684211 0.22047 -7.783309 -0.75273 -8.184024 z m 112.76345 0.140956 c -0.20519 -0.118213 -0.45214 -0.105137 -0.74602 0.01952 c -0.80318 0.344581 -0.97136 1.771083 -0.77495 6.568928 c 0.29041 7.09503 1.67581 10.35943 4.79539 11.29865 c 2.49224 0.75032 4.12431 -0.70484 5.35748 -4.77768 l 0.58588 -1.93622 l 0.20407 2.21177 c 0.39389 4.26677 1.82918 5.28599 6.52868 4.63501 l 3.00837 -0.41707 l 0.89378 1.18761 c 0.49149 0.65309 1.37733 1.4229 1.96887 1.711 c 2.07931 1.01265 5.31053 0.44158 6.48893 -1.1472 c 0.26166 -0.35277 0.60846 -1.29803 0.77029 -2.10032 c 0.40032 -1.98452 -0.51432 -3.90856 -3.53481 -7.43654 c -1.2998 -1.51818 -2.46716 -3.08466 -2.594 -3.48144 c -0.32736 -1.024012 0.10396 -2.630567 0.70623 -2.630567 c 0.9107 0 2.53441 1.155651 2.76502 1.968027 c 0.34416 1.2124 1.42201 1.7101 2.08875 0.96465 c 0.49787 -0.55669 0.48348 -0.75981 -0.15138 -2.151152 c -0.77535 -1.699274 -3.19626 -3.542076 -4.65332 -3.542076 c -2.22334 0 -4.0053 3.471657 -3.07654 5.993598 c 0.26373 0.7161 1.71505 2.77055 3.22483 4.56567 c 2.64373 3.14341 2.91766 3.68303 2.74901 5.41134 c -0.10388 1.06445 -0.6181 1.36712 -2.33623 1.37422 c -1.07963 0.004 -1.78448 -0.29021 -2.75674 -1.15414 c -0.71843 -0.63832 -1.52941 -1.06497 -1.80255 -0.94792 c -0.27316 0.11736 -0.76267 -0.0839 -1.0875 -0.44709 c -0.49986 -0.55888 -1.03479 -0.61918 -3.48418 -0.39104 l -2.89418 0.26975 l -0.22783 -1.27427 c -0.54863 -3.06725 -0.49226 -3.14701 2.21583 -3.14699 c 1.7512 0 2.60083 -0.17572 2.99803 -0.61983 c 0.30482 -0.3408 0.55434 -0.68328 0.55434 -0.76074 c 0 -0.0774 -0.24952 -0.41934 -0.55434 -0.76017 c -0.3972 -0.44409 -1.24683 -0.6198 -2.99803 -0.6198 H 326.586 v -2.72302 v -2.722993 l 2.78364 0.213149 c 3.11922 0.239026 4.44969 -0.0036 4.74526 -0.864721 c 0.39172 -1.141396 -0.76194 -1.788088 -3.23361 -1.812635 c -1.29549 -0.01301 -3.12105 -0.164113 -4.05712 -0.336182 c -1.29743 -0.238465 -1.82215 -0.178516 -2.20757 0.252425 c -0.27806 0.310924 -0.41556 0.72829 -0.30533 0.927686 c 0.11019 0.199395 0.0324 0.362769 -0.17308 0.362769 c -0.20542 0 -0.37352 -0.15873 -0.37352 -0.352388 c 0 -0.680467 -1.04394 -0.790428 -1.60001 -0.168668 c -0.45094 0.504198 -0.51578 1.112945 -0.32755 3.078248 c 0.27423 2.86288 -0.31205 7.69133 -1.17379 9.66684 c -0.50364 1.15458 -0.77098 1.36672 -1.63719 1.29622 c -0.56951 -0.0463 -1.34012 -0.42453 -1.71214 -0.84046 c -0.99296 -1.11026 -1.64947 -4.83662 -1.65582 -9.398214 c -0.004 -3.134352 -0.24404 -4.661025 -0.85967 -5.015662 z m -97.126 0.156541 c -1.54326 0 -3.80932 1.799801 -4.61818 3.668008 c -1.34043 3.095929 -0.71047 5.332049 2.15591 7.653739 c 2.49492 2.02082 3.10031 2.81846 3.10031 4.08277 c 0 1.59822 -1.2858 2.18017 -3.02334 1.36845 c -1.28909 -0.60222 -2.09751 -0.48418 -2.38322 0.34831 c -0.26892 0.78353 0.19067 1.31098 1.88984 2.1696 c 1.59456 0.80578 2.2045 0.77136 3.95173 -0.22238 c 1.08382 -0.6164 2.04176 -2.4036 2.01952 -3.76853 c -0.0259 -1.58698 -1.15754 -3.37143 -3.3359 -5.26116 c -1.16387 -1.00967 -2.23297 -2.04016 -2.37548 -2.28977 c -1.01615 -1.77978 0.80704 -5.115925 2.68391 -4.911087 c 0.91602 0.09999 1.22276 0.418371 1.86659 1.939128 c 0.86429 2.041459 1.60764 2.570089 2.38736 1.698269 c 0.46726 -0.52242 0.43542 -0.82136 -0.27846 -2.64503 c -0.87621 -2.238342 -2.55555 -3.830317 -4.04059 -3.830317 z m -68.62748 0.235655 c -0.98934 0.424464 -1.39121 2.387727 -1.54784 7.557302 l -0.1586 5.22996 l -0.95319 -1.68094 c -0.52422 -0.92449 -1.67887 -3.3942 -2.56612 -5.48874 c -1.74989 -4.130894 -2.64982 -5.116754 -3.65001 -3.998456 c -0.50167 0.560953 -0.56307 1.148169 -0.37715 3.607376 c 0.12216 1.61573 0.22164 4.93918 0.22164 7.38514 c 0 3.51715 0.11603 4.57697 0.55435 5.06706 c 0.30482 0.34081 0.61113 0.61925 0.6804 0.61925 c 0.0693 0 0.37507 -0.27844 0.67989 -0.61925 c 0.43372 -0.48494 0.55607 -1.53542 0.56107 -4.83081 l 0.006 -4.21098 l 0.97333 1.97148 c 1.45025 2.93782 3.19442 5.66105 3.87682 6.05311 c 1.73197 0.99508 2.26159 -0.61411 2.57696 -7.82705 c 0.14699 -3.36179 0.37071 -6.485262 0.49701 -6.940928 c 0.2656 -0.958237 -0.64179 -2.207996 -1.37477 -1.893524 z m 5.61218 0.636577 c -0.73154 -0.01596 -1.29881 0.677924 -1.60569 2.010761 c -0.20922 0.908698 -0.52016 2.184425 -0.69126 2.835084 c -0.7075 2.69045 -1.81079 10.19513 -1.62223 11.03522 c 0.11174 0.49781 0.43833 1.00559 0.72536 1.12874 c 0.86005 0.36901 1.49946 -0.75453 1.76068 -3.09212 l 0.24695 -2.20545 l 2.33312 0.11555 l 2.33363 0.11611 l 0.81525 2.36602 c 0.44829 1.30131 1.08277 2.58765 1.40989 2.85874 c 0.73248 0.60706 0.65491 0.61306 1.29055 -0.0977 c 0.58126 -0.64991 0.41083 -1.24703 -2.41888 -8.47918 c -2.76471 -7.065994 -3.17391 -7.965051 -3.79467 -8.336515 c -0.27686 -0.165681 -0.53885 -0.249969 -0.7827 -0.255324 z m -95.182948 0.07278 c -1.62629 0.12667 -4.262022 0.702885 -5.152383 1.217671 c -1.618152 0.935612 -2.268777 3.548704 -1.989554 7.989934 c 0.264278 4.20379 0.800252 5.7042 2.43644 6.81963 c 1.421645 0.96921 4.5267 1.05826 5.336305 0.15308 c 0.304829 -0.34083 0.554349 -0.68272 0.554349 -0.76018 c 0 -0.0774 -0.24952 -0.41993 -0.554349 -0.76076 c -0.362519 -0.4053 -1.192042 -0.61981 -2.398209 -0.61981 c -2.145491 0 -2.690627 -0.45519 -2.690627 -2.2476 v -1.30142 h 2.443674 c 1.75123 0 2.600335 -0.17518 2.997506 -0.61925 c 0.304828 -0.34082 0.554349 -0.68327 0.554349 -0.76073 c 0 -0.0774 -0.249521 -0.41935 -0.554349 -0.76018 c -0.404366 -0.45211 -1.262642 -0.6198 -3.174195 -0.6198 h -2.619845 l 0.0052 -1.28179 c 0.0093 -2.440288 0.31013 -2.982254 1.792717 -3.224978 c 0.756886 -0.12392 2.014211 -0.330415 2.793952 -0.458652 c 2.242806 -0.368833 3.141145 -2.10753 1.406792 -2.722991 c -0.215766 -0.07657 -0.645642 -0.08441 -1.187738 -0.04218 z m 149.184038 0.04563 c -1.63693 0.06418 -3.2944 0.229474 -3.68308 0.367384 c -0.94297 0.334643 -1.21395 1.247246 -0.5807 1.955307 c 0.44988 0.502985 0.44792 1.20241 -0.015 5.627954 c -0.70032 6.69388 -0.68423 7.08975 0.33684 8.23137 c 0.94032 1.05137 2.27014 1.20863 5.08471 0.60077 c 2.02058 -0.43638 2.64698 -1.39933 1.64186 -2.52315 c -0.39711 -0.44401 -0.83274 -0.49899 -1.85162 -0.23453 c -0.73278 0.19019 -1.76867 0.35022 -2.30211 0.35526 c -0.86383 0.008 -0.96971 -0.13315 -0.96972 -1.29217 c 0 -1.68535 0.54088 -2.2476 2.16159 -2.2476 c 1.43953 0 2.50801 -0.872 2.19311 -1.78954 c -0.24743 -0.72092 -1.55312 -1.11481 -2.93964 -0.88726 c -0.90419 0.14835 -1.02459 0.0612 -0.89636 -0.6464 c 0.0815 -0.44963 0.24269 -1.63832 0.35854 -2.64154 l 0.21079 -1.823604 l 2.09236 -0.265141 c 1.15084 -0.145569 2.33445 -0.535223 2.63018 -0.865873 c 0.65896 -0.736779 0.65928 -0.746746 0.0212 -1.460277 c -0.39092 -0.437152 -1.24145 -0.549212 -3.49296 -0.46096 z m -76.33979 0.04909 c -0.12894 -0.03212 -0.2655 -0.02573 -0.40504 0.02071 c -0.18605 0.06202 -0.37805 0.195698 -0.56572 0.405506 c -1.10177 1.231866 0.46571 6.822649 2.15385 7.682639 l 0.80388 0.40953 l -1.33498 4.31095 c -1.16619 3.76546 -1.27069 4.3834 -0.82403 4.8828 c 1.22947 1.37466 1.6733 0.58444 4.00959 -7.14022 c 1.17697 -3.89151 2.22171 -7.359684 2.32123 -7.706897 c 0.0995 -0.347214 -0.0809 -0.923397 -0.40039 -1.280636 c -0.87843 -0.982165 -1.78398 -0.205104 -2.47622 2.125157 c -0.33022 1.111646 -0.77321 1.930876 -0.99969 1.849016 c -0.38159 -0.13788 -0.97517 -1.912781 -1.43365 -4.286104 c -0.14189 -0.73447 -0.46203 -1.176177 -0.84883 -1.272533 z M 8.4613745 95.769615 c -3.7327467 0 -5.9796266 7.596455 -3.7207906 12.580445 c 0.475415 1.04898 1.3604438 2.37435 1.9668207 2.94481 c 0.6063505 0.57044 1.5267928 1.03571 2.0453503 1.03571 c 1.2770051 -0.003 3.1463091 -1.33676 3.8731991 -2.76516 c 0.730065 -1.43455 0.983181 -1.47009 1.272984 -0.17908 c 0.25711 1.14539 2.097399 2.54675 3.346233 2.54972 c 1.132288 0.003 3.418356 -2.71569 3.893348 -4.62809 c 0.777201 -3.12911 0.265929 -9.225425 -0.812663 -9.688188 c -1.144905 -0.491215 -1.400272 0.385247 -1.430559 4.916878 c -0.0246 3.67578 -0.146886 4.66428 -0.687636 5.55576 c -1.440666 2.37517 -2.377934 1.01056 -2.660147 -3.87308 c -0.217829 -3.77004 -0.584821 -4.698758 -1.671824 -4.232387 c -0.257771 0.110607 -0.801672 1.469737 -1.208921 3.019927 c -1.413257 5.3797 -3.2681132 7.63523 -4.9116316 5.97221 c -1.0370093 -1.04927 -1.5001295 -3.14715 -1.3499637 -6.11837 c 0.097263 -1.92452 0.3256671 -2.929428 0.7981988 -3.513213 c 0.8348395 -1.031406 1.9834958 -1.046696 2.756756 -0.03697 c 1.0246825 1.338073 2.4248355 -0.0032 1.6635585 -1.593689 C 11.191705 96.81436 9.4951302 95.769615 8.4613745 95.769615 Z M 307.70462 95.938282 c -4.45971 -0.935463 -9.35133 6.080078 -8.215 11.782148 c 0.6714 3.36912 2.86762 5.5555 6.07303 6.04674 c 1.37786 0.21114 1.8327 0.0937 3.01093 -0.77809 l 1.38768 -1.02704 l 1.22339 1.36787 c 0.67285 0.7523 1.38654 1.36785 1.58607 1.36785 c 0.29977 0 1.47137 -1.04954 1.47137 -1.3182 c 0 -0.0434 -0.70621 -0.93916 -1.56954 -1.99053 l -1.57003 -1.91201 l 0.68814 -2.02288 c 0.919 -2.70342 0.87023 -5.1185 -0.15292 -7.575196 c -0.95612 -2.295806 -2.24453 -3.586469 -3.93312 -3.940662 z m -257.785499 0.07566 c -0.657799 0.282206 -0.818254 0.826066 -1.627912 5.517048 c -0.380983 2.20746 -0.899916 4.68377 -1.15364 5.50321 l -0.461353 1.48973 l -0.44999 -2.72935 c -0.247349 -1.5013 -0.562422 -3.67436 -0.700552 -4.8291 c -0.138131 -1.154701 -0.465324 -2.247653 -0.726904 -2.428388 c -1.169188 -0.807936 -2.007953 0.817549 -1.675959 3.247508 c 0.734482 5.37582 1.895494 9.57056 2.833733 10.23752 c 1.839604 1.30787 3.23298 -1.71782 4.82587 -10.47956 c 0.388786 -2.138499 0.706756 -4.033473 0.706756 -4.211013 c 0 -0.618802 -1.082149 -1.526968 -1.570049 -1.317605 z m 186.366129 0.184283 v 0 c -1.51206 0.04075 -2.95142 0.214006 -3.19848 0.384714 c -0.7097 0.490417 -0.96899 4.505221 -0.60963 9.438071 c 0.39436 5.41333 0.68624 6.38556 2.16573 7.20954 c 0.69951 0.38957 2.09454 0.6365 3.68308 0.65217 c 2.09615 0.0207 2.68258 -0.11519 3.25427 -0.7544 c 0.70104 -0.78381 0.63353 -1.94425 -0.1178 -2.02292 c -0.22171 -0.023 -1.5141 -0.018 -2.87196 0.0115 c -1.35785 0.0297 -2.64312 -0.0845 -2.85595 -0.25358 c -0.21283 -0.1691 -0.48283 -1.23893 -0.60033 -2.37758 l -0.21388 -2.07026 h 2.07428 c 1.4155 0 2.25043 -0.19694 2.62863 -0.61981 c 0.68099 -0.76141 0.68099 -0.76008 0 -1.5215 c -0.37669 -0.42115 -1.21062 -0.6198 -2.60383 -0.6198 c -2.32756 0 -2.56649 -0.33683 -2.22875 -3.15218 l 0.1896 -1.579852 h 2.04432 c 1.38838 0 2.22231 -0.197859 2.59866 -0.618655 c 0.68267 -0.763277 0.68287 -0.757836 -0.017 -1.540573 c -0.44254 -0.494793 -1.19226 -0.622765 -3.32092 -0.565507 z m -113.33848 0.190612 c -0.22946 0.0063 -0.54427 0.151662 -1.08648 0.44076 c -1.43314 0.764134 -1.75958 1.46208 -1.05289 2.252212 c 0.38398 0.429343 0.51954 1.654821 0.53523 4.842351 c 0.0264 5.36458 0.39977 7.98858 1.23372 8.67038 c 1.65492 1.35301 5.22188 0.11949 6.73896 -2.3302 c 0.82019 -1.32438 0.99757 -2.0209 0.9878 -3.88231 c -0.0145 -2.76433 -0.93168 -4.4078 -3.74146 -6.704103 c -2.02792 -1.657306 -2.35081 -1.964534 -3.04193 -2.893965 c -0.19972 -0.268602 -0.34349 -0.401454 -0.57295 -0.395125 z m 60.46727 0.08837 c -0.6175 0.0795 -1.19643 0.317046 -1.69249 0.727254 c -1.76574 1.460128 -2.63268 3.792069 -2.82702 7.602919 c -0.14755 2.89332 -0.0606 3.72625 0.55125 5.27271 c 1.26026 3.18549 4.53421 4.43252 6.94665 2.64618 c 0.58193 -0.4309 1.1552 -0.78321 1.27401 -0.78616 c 0.11881 0 0.8041 0.51981 1.52252 1.15816 c 1.3138 1.1674 2.09905 1.22764 2.45556 0.18887 c 0.29488 -0.8592 -0.0389 -1.44481 -1.52562 -2.67736 l -1.36339 -1.13045 l 0.54091 -1.43254 c 0.29747 -0.78797 0.55225 -2.62627 0.56675 -4.08452 c 0.0231 -2.32665 -0.10218 -2.85767 -1.02345 -4.337491 c -1.37146 -2.202939 -3.57321 -3.386008 -5.42568 -3.147572 z M 40.926605 96.787979 c -0.212142 -0.04144 -0.454677 0.0029 -0.710888 0.15598 c -1.086711 0.6503 -1.487498 2.726066 -1.681124 8.702161 c -0.161911 4.99714 -0.110592 5.82199 0.39884 6.39158 c 0.717844 0.80261 1.576061 0.4955 1.782384 -0.6377 c 0.08451 -0.46406 0.224704 -3.23952 0.312047 -6.16747 c 0.08737 -2.92794 0.328606 -5.805407 0.535749 -6.394486 c 0.36244 -1.030784 0 -1.92573 -0.637008 -2.050065 z m 248.601315 0.313083 c -1.19842 -0.07084 -2.5145 0.269696 -3.83705 1.028213 c -2.33428 1.338751 -3.59536 3.543525 -4.06175 7.103255 c -0.32432 2.4753 0.86007 4.9406 2.97321 6.19 c 3.47556 2.05498 7.06753 0.15107 7.06753 -3.74602 c 0 -2.57899 -3.14417 -5.57599 -4.3893 -4.18383 c -0.66288 0.74116 -0.21688 1.94818 0.86121 2.33077 c 0.73681 0.26147 1.20863 1.59638 0.99969 2.82872 c -0.15152 0.89361 -2.0563 1.17759 -3.479 0.51872 c -1.41704 -0.65631 -1.84402 -2.09094 -1.40783 -4.72917 c 0.25917 -1.56749 0.63801 -2.45187 1.37064 -3.19838 c 1.32872 -1.353837 3.83488 -1.809473 5.29807 -0.9635 c 1.80636 1.04442 3.13206 -0.283778 1.73536 -1.738702 c -0.85158 -0.887048 -1.93237 -1.369213 -3.13078 -1.440076 z m -114.5877 0.119573 c -0.17885 0.05734 -0.35963 0.177984 -0.52903 0.367383 c -0.43357 0.484767 -0.53509 1.660176 -0.51819 5.997082 c 0.0238 6.09829 0.35679 9.06004 1.07512 9.56862 c 0.62111 0.43972 0.52961 0.45744 1.13504 -0.2195 c 0.42827 -0.47882 0.49052 -1.72883 0.35751 -7.19684 c -0.0885 -3.63944 -0.22959 -6.996757 -0.31359 -7.460821 c -0.15014 -0.829378 -0.67032 -1.227964 -1.20686 -1.055924 z M 32.56438 97.425118 c -3.840986 -0.05398 -4.548885 0.07926 -4.834136 0.910384 c -0.342604 0.998252 0.780365 1.770458 2.573864 1.770458 c 1.614131 0 1.68182 0.0443 1.519937 0.99122 c -0.329958 1.92981 0.312523 10.0446 0.842111 10.63669 c 0.539771 0.60351 1.490403 0.40832 1.620677 -0.33272 c 0.04357 -0.24789 0.08307 -2.83304 0.08783 -5.74463 l 0.0093 -5.29352 l 1.108696 -0.32577 c 1.2792 -0.375989 1.719924 -1.247068 1.024482 -2.02463 c -0.335563 -0.375192 -1.537144 -0.553588 -3.952758 -0.587482 z m 137.57219 0.103391 c -0.46625 0.0296 -0.99186 0.610433 -1.73589 1.867528 l -0.94493 1.596593 l -1.50391 -1.832279 c -1.66563 -2.028445 -2.33146 -2.076742 -3.01972 -0.218915 c -0.32615 0.880336 -0.33339 2.461044 -0.0315 6.842734 c 0.2159 3.13373 0.48358 5.96366 0.59516 6.28878 c 0.30997 0.90314 1.12305 1.0832 1.74571 0.38702 c 0.55842 -0.62435 0.54281 -3.38003 -0.0496 -8.73971 l -0.18909 -1.70924 l 1.07615 0.88956 c 0.9339 0.772 1.19937 0.82661 2.01125 0.41302 c 0.51448 -0.26209 0.99422 -0.4105 1.06633 -0.32984 c 0.0721 0.0807 0.42149 2.32056 0.77598 4.97753 c 0.38815 2.90922 0.8312 4.95956 1.11387 5.15488 c 0.67328 0.46524 1.39108 0.0512 1.60828 -0.9277 c 0.10296 -0.46406 -0.0574 -2.78213 -0.35596 -5.15141 c -0.29862 -2.36927 -0.54247 -4.99821 -0.54247 -5.84226 c 0 -1.533917 -0.49581 -3.02791 -1.16707 -3.516669 c -0.14824 -0.107923 -0.29716 -0.15947 -0.45257 -0.149622 z M 24.155657 97.739946 c -0.06928 0 -0.37506 0.279012 -0.679889 0.619809 c -0.413412 0.46223 -0.547345 1.389177 -0.526448 3.647805 c 0.05081 5.48582 0.474098 9.54387 1.036882 9.94178 c 0.287238 0.20305 1.252609 0.37219 2.14506 0.37545 c 3.147822 0.0119 5.235394 -1.5367 3.973943 -2.94711 c -0.329428 -0.36839 -0.817112 -0.5315 -1.145376 -0.38297 c -0.314431 0.14229 -1.142081 0.34988 -1.839213 0.46096 l -1.267302 0.20217 l -0.231452 -3.06094 c -0.127285 -1.68339 -0.231452 -4.08606 -0.231452 -5.33913 c 0 -1.545453 -0.178389 -2.477663 -0.554346 -2.898015 c -0.304802 -0.340797 -0.611131 -0.619809 -0.680407 -0.619809 z m 273.173423 0.514668 c -0.76109 0.08284 -1.32369 2.029096 -2.13472 6.780946 c -0.4072 2.38571 -0.81159 4.72414 -0.89843 5.19646 c -0.0869 0.47231 0.085 1.13021 0.38177 1.46199 c 1.09267 1.22169 2.04193 -0.14711 2.46384 -3.55134 c 0.13117 -1.05847 0.44473 -2.90026 0.69642 -4.09315 c 0.85087 -4.0327 0.89091 -4.669392 0.33477 -5.29121 c -0.31438 -0.351502 -0.58995 -0.53129 -0.84365 -0.503696 z m 9.52618 0.318288 c 0.54086 -0.01096 1.05658 0.137318 1.50703 0.467318 c 1.04137 0.762924 1.80813 3.65408 1.54681 5.83244 c -0.10612 0.88457 -0.28092 1.70679 -0.38852 1.82707 c -0.10761 0.12031 -0.66127 -0.33926 -1.23061 -1.0207 c -1.03164 -1.23483 -1.91478 -1.33473 -2.28404 -0.25878 c -0.0983 0.28652 0.39045 1.43052 1.08647 2.54219 c 1.22222 1.95209 1.24267 2.04063 0.59259 2.59073 c -1.3398 1.13365 -4.18464 0.31312 -5.25675 -1.51632 c -0.75559 -1.28936 -0.76112 -4.91584 -0.0103 -6.68503 c 0.96871 -2.28247 2.81485 -3.746385 4.43737 -3.778918 z M 183.7824 99.119926 c 0.50971 -0.04378 1.02838 0.211669 1.56385 0.76653 c 0.5273 0.546374 1.08858 0.903614 1.24767 0.793684 c 0.49658 -0.34316 1.00235 2.55734 0.79199 4.54314 l -0.20097 1.89583 l -1.15209 -0.76018 c -1.04518 -0.68949 -1.20325 -0.703 -1.70385 -0.14326 c -0.70087 0.78362 -0.47509 1.42573 0.90204 2.56415 c 1.03797 0.85801 1.06219 0.93531 0.44482 1.44004 c -0.89195 0.72923 -3.14475 0.67941 -3.70995 -0.082 c -1.02993 -1.38756 -0.80983 -8.54742 0.30689 -9.9874 c 0.49922 -0.643738 0.99989 -0.986722 1.5096 -1.030523 z m -28.68709 0.760763 c 0.17156 0.191821 1.49514 4.130741 1.49513 4.449561 c 0.00001 0.0625 -0.55583 0.11381 -1.23475 0.11381 c -0.67892 0 -1.23424 -0.1687 -1.23424 -0.37489 c 0 -0.95951 0.79679 -4.386457 0.97386 -4.188481 z m -31.1287 0.573581 l 1.88726 1.89639 c 1.66097 1.66917 1.90892 2.11848 2.0717 3.75064 c 0.16706 1.67512 0.0809 1.97001 -0.89016 3.05571 c -0.62594 0.69987 -1.44358 1.20206 -1.95804 1.2021 c -0.80207 0 -0.90434 -0.1908 -1.1087 -2.07028 c -0.12381 -1.13865 -0.17501 -3.36752 -0.11366 -4.95269 z m 132.39862 0.11437 c 1.50528 -0.24613 2.70363 0.78324 3.04762 2.83334 c 0.28337 1.68892 0.018 2.67638 -1.12781 4.19888 c -0.64827 0.86141 -1.19577 1.1807 -2.02417 1.1807 c -1.5438 0 -2.30967 -0.72214 -2.67203 -2.51854 c -0.48668 -2.41269 -0.074 -4.152 1.18929 -5.01332 c 0.54976 -0.37484 1.08534 -0.59899 1.5871 -0.68106 z m 19.58504 0.14787 c 0.25947 0.0246 0.51367 0.0861 0.75686 0.18949 c 1.66963 0.70975 1.36348 6.15467 -0.43655 7.76521 c -1.0882 0.97365 -1.55639 1.04221 -3.02281 0.44307 c -1.1591 -0.47359 -1.8882 -2.7195 -1.54577 -4.76033 c 0.30837 -1.83787 1.87495 -3.3237 3.45988 -3.60277 c 0.26417 -0.0465 0.52893 -0.0592 0.78839 -0.0347 z m -182.738837 0.17852 c 0.599859 0 0.05475 4.30497 -0.685573 5.41362 c -1.273905 1.90776 -1.643709 1.65119 -1.470856 -1.02067 c 0.118739 -1.83537 0.354674 -2.64701 0.988836 -3.40174 c 0.458081 -0.54519 0.983408 -0.99127 1.167593 -0.99121 z m -14.529277 0.0601 c 0.49942 0.0822 0.952494 0.4237 1.485322 1.04552 c 1.496527 1.74648 1.038581 5.1807 -0.993485 7.45272 c -2.295869 2.56701 -4.402939 0.96572 -4.405848 -3.34741 c -0.0016 -2.36442 0.651358 -3.77327 2.14971 -4.63962 c 0.719206 -0.41583 1.264876 -0.59337 1.764301 -0.51121 z" stroke-linecap="round" />
</g>
		<g transform="matrix(3.78 0 0 3.78 652 130.44)" id="path6237-9-4"  >
<path style="stroke: none; stroke-width: 0.372931; stroke-dasharray: none; stroke-linecap: butt; stroke-dashoffset: 0; stroke-linejoin: miter; stroke-miterlimit: 4; fill: rgb(122,184,146); fill-rule: nonzero; opacity: 1;"  transform=" translate(-430.48, -107.27)" d="m 479.15084 93.534971 c -0.76709 0.03656 -1.36215 0.559031 -1.53387 1.429104 c -0.11486 0.581982 -0.38204 1.679104 -0.59413 2.438211 c -0.21207 0.759107 -0.41437 1.646748 -0.44894 1.972075 c -0.13141 1.231959 -1.80897 6.438379 -2.84564 8.831539 c -0.71253 1.64501 -2.41858 3.33789 -2.86368 2.84142 c -0.14866 -0.1658 -0.35987 -2.2259 -0.46962 -4.57781 c -0.12284 -2.63379 -0.37691 -4.5148 -0.66079 -4.89724 c -0.69983 -0.94282 -2.15784 -0.74653 -3.2646 0.43902 c -0.54406 0.58281 -0.98932 0.86179 -0.98935 0.61981 c 0 -0.94446 -1.14374 -1.67979 -2.61365 -1.67979 c -2.13611 0 -4.42012 2.07059 -5.00306 4.53507 c -0.1239 0.52378 -0.88256 2.95376 -1.23114 3.94355 c -0.15279 0.43375 -0.37786 1.18774 -0.5001 1.67574 c -0.20608 0.82251 -1.16284 1.26194 -1.28798 0.59151 c -0.20381 -1.09187 -0.1436 -2.46481 0.10798 -2.46481 c 0.16506 0 0.30017 -1.1621 0.30017 -2.58262 c 0 -4.25032 -1.31002 -6.09238 -4.33198 -6.09238 c -1.56845 0 -1.85979 0.16219 -3.61178 2.01481 c -1.04815 1.10833 -1.88627 2.12904 -1.86193 2.2678 c 0.0241 0.13874 -0.13999 0.75153 -0.36527 1.36208 c -0.22529 0.61056 -0.41038 1.58674 -0.41381 2.16906 c -0.004 1.00017 -0.0492 0.97133 -0.81474 -0.51873 c -0.44574 -0.86753 -1.55258 -2.37607 -2.45918 -3.35205 c -1.2492 -1.34487 -1.64923 -2.06562 -1.65373 -2.97716 c -0.007 -1.43319 -0.55898 -2.148819 -1.65685 -2.148819 c -0.59045 0 -0.86171 0.288359 -1.01931 1.084229 c -0.52327 2.64252 -0.97363 3.68667 -1.91156 4.43338 l -1.00381 0.79948 l -0.23095 -1.17608 c -0.12707 -0.64697 -0.68004 -1.71357 -1.22854 -2.37008 c -0.9015 -1.07899 -1.20583 -1.19398 -3.1711 -1.19398 c -1.19575 0 -2.52113 0.20212 -2.94481 0.44884 c -1.19923 0.69833 -4.34354 4.12761 -4.20641 4.58761 c 0.0676 0.22664 -0.0443 0.5278 -0.24852 0.6689 c -0.2042 0.14114 -0.4042 1.00016 -0.44481 1.90912 c -0.0406 0.90896 -0.15961 -1.00913 -0.26451 -4.26241 l -0.19117 -5.915047 h -1.05806 h -1.05807 l -0.10022 4.276277 l -0.10023 4.27628 l -2.19207 -0.27841 c -1.20564 -0.15323 -2.23929 -0.32658 -2.29695 -0.38471 c -0.0576 -0.0582 -0.13734 -1.92663 -0.1767 -4.1521 c -0.075 -4.244847 -0.4377 -5.179542 -1.78652 -4.600903 c -0.48366 0.207618 -0.57706 0.919671 -0.57706 4.405673 c 0 2.62587 -0.16133 4.44705 -0.43759 4.9417 c -0.33827 0.60531 -0.34321 0.95246 -0.0222 1.52729 c 0.22854 0.40911 0.514 1.87309 0.63441 3.25328 c 0.33001 3.7816 0.47084 4.28379 1.19964 4.28379 c 1.16535 0 1.51303 -0.98004 1.38818 -3.90949 l -0.11779 -2.76343 l 2.11613 0.23684 c 1.16387 0.13035 2.16993 0.28676 2.23548 0.34772 c 0.0655 0.061 0.20574 1.23424 0.31152 2.60691 c 0.21005 2.72604 0.54551 3.48145 1.54578 3.48145 c 0.63939 0 1.27981 -1.55841 0.92271 -2.24529 c -0.091 -0.175 -0.0413 -0.67299 0.11054 -1.10677 c 0.24693 -0.70537 0.32115 -0.65134 0.70211 0.51295 c 0.23425 0.71592 0.50356 1.21495 0.59878 1.10848 c 0.0952 -0.1065 0.51314 0.16837 0.9289 0.61058 c 0.41582 0.44221 1.07362 0.96292 1.46156 1.15701 c 1.39112 0.696 3.95819 0.0826 5.63078 -1.34532 c 0.86706 -0.74023 1.47614 -1.45843 1.35308 -1.59602 c -0.12305 -0.13758 -0.0645 -0.25071 0.1307 -0.25071 c 0.19519 0 0.57247 -0.48778 0.83799 -1.08422 c 0.47557 -1.06799 0.56733 -1.40143 0.64785 -2.35505 c 0.0222 -0.26508 0.83214 -0.86274 1.79942 -1.32798 c 0.96729 -0.46526 1.70158 -0.958 1.63204 -1.09524 c -0.0695 -0.1372 0.13977 -0.5543 0.465 -0.9271 c 0.55865 -0.64044 0.62388 -0.63538 1.18566 0.0982 c 0.32716 0.42705 0.47679 0.78786 0.33321 0.80177 c -0.1435 0.0139 0.0563 0.16919 0.44431 0.34543 c 0.72232 0.3282 2.29283 3.20608 2.29283 4.20176 c 0 0.37936 -0.42526 0.55396 -1.34737 0.55396 c -1.00624 0 -1.54607 -0.25588 -2.13319 -1.01088 c -1.70015 -2.18626 -3.42241 0.0101 -1.8077 2.3048 c 1.91922 2.728 7.69747 1.93534 7.77947 -1.06689 c 0.022 -0.80504 0.0268 -0.80569 0.30843 -0.0301 c 0.15746 0.43378 0.293 0.94452 0.3012 1.13448 c 0.0288 0.66884 2.02641 1.81779 3.16438 1.82074 c 0.81246 0.003 1.52478 -0.37951 2.41887 -1.29566 l 1.26677 -1.29853 l 1.16141 1.29853 c 0.73972 0.8271 1.5069 1.29796 2.11354 1.29796 c 1.29798 0 3.08315 -2.1093 3.67069 -4.3375 c 0.97207 -3.6867 1.88994 -5.89351 2.69836 -6.48576 c 0.45975 -0.33683 0.9212 -0.61229 1.025 -0.61229 c 0.10384 0 0.18857 1.87499 0.18857 4.16653 c 0 4.39405 0.31461 5.69207 1.37993 5.69207 c 0.95871 0 1.43479 -0.85936 1.62222 -2.92865 c 0.0918 -1.01413 0.359 -2.23406 0.59363 -2.71086 c 0.2346 -0.47681 0.45745 -1.07208 0.49544 -1.32278 c 0.038 -0.25074 0.23949 -0.7831 0.4474 -1.18301 c 0.29129 -0.56028 0.38032 0.0239 0.38852 2.54566 c 0.0161 4.90409 1.00866 6.51719 3.89334 6.3269 c 0.77416 -0.051 1.41008 -0.19111 1.41352 -0.31136 c 0.0124 -0.48474 2.02685 -2.74373 2.23701 -2.5087 c 0.12432 0.13898 0.22577 0.0568 0.22577 -0.18195 c 0 -0.23896 0.17143 -0.93407 0.38077 -1.54462 l 0.38074 -1.11022 l 0.60291 1.94087 c 0.81958 2.6385 2.00824 3.57503 4.56912 3.59927 c 1.10108 0.0101 2.38144 0.25149 2.84509 0.53606 c 1.24362 0.76336 3.97507 0.22888 5.93611 -1.16163 c 0.9061 -0.64249 1.52562 -1.16798 1.37683 -1.16798 c -0.14884 0 0.008 -0.31072 0.34771 -0.69028 c 0.34001 -0.37955 1.23381 -1.755 1.98644 -3.05631 c 1.29576 -2.24036 1.95181 -2.85812 2.09341 -1.97149 c 0.0346 0.21691 0.27271 0.62895 0.52903 0.91557 c 0.60931 0.68126 0.59069 1.66744 -0.0506 2.69122 c -0.28414 0.45354 -0.43891 0.91121 -0.34408 1.01724 c 0.0948 0.10605 -0.0569 0.40575 -0.33737 0.666 c -0.39817 0.36949 -0.6707 0.36106 -1.24404 -0.0393 c -0.97422 -0.68029 -1.92677 -0.0234 -2.08153 1.43602 c -0.0684 0.64539 0.0265 0.98859 0.23404 0.84509 c 0.19228 -0.13286 0.40855 -0.0455 0.47996 0.19407 c 0.0714 0.23956 0.86648 0.52833 1.76687 0.64178 c 1.50396 0.18955 1.73194 0.0984 2.80945 -1.12294 c 1.31298 -1.48829 1.45526 -1.98231 1.45949 -5.07572 c 0.003 -2.73491 -0.0985 -3.09636 -1.26936 -4.49405 c -0.69652 -0.8315 -0.95678 -1.5532 -0.9568 -2.65426 c 0 -1.25218 -0.13647 -1.54326 -0.79355 -1.691908 c -1.5684 -0.354873 -2.02778 -0.142849 -2.02778 0.935758 c 0 2.1671 -3.77642 8.94228 -5.72482 10.27047 c -1.05696 0.72056 -3.02199 1.15341 -2.21067 0.48695 c 0.39794 -0.32689 1.69991 -3.07307 1.62275 -3.42252 c -0.0276 -0.125 0.19125 -0.7493 0.48613 -1.38694 c 0.29491 -0.63758 0.53628 -1.87761 0.53628 -2.75591 c 0 -1.99922 -0.95025 -3.17634 -2.55734 -3.16895 c -1.55618 0.007 -2.76684 0.40296 -2.532 0.82778 c 0.10623 0.19221 0.0275 0.34946 -0.17516 0.34946 c -0.20268 0 -0.7908 0.71392 -1.30708 1.58621 c -0.84045 1.41958 -0.93126 1.91278 -0.86534 4.70142 c 0.0707 2.98962 0.0437 3.10656 -0.66751 2.89861 c -1.26981 -0.37129 -1.77165 -2.10658 -1.76636 -6.11029 c 0.007 -5.279007 -0.005 -5.252981 2.39562 -5.281965 c 2.80194 -0.03383 5.00618 -0.784128 5.00618 -1.704035 c 0 -1.362264 -0.82286 -1.666948 -3.71201 -1.374213 l -2.71595 0.274961 l 0.2418 -1.600049 c 0.21137 -1.398819 0.14977 -1.6327 -0.48925 -1.859453 c -0.28462 -0.100998 -0.55959 -0.142731 -0.81527 -0.130545 z m -74.36986 3.917002 c -0.65505 -0.03357 -1.34843 0.07825 -1.90327 0.344847 c -0.38691 0.186412 -0.56157 0.351413 -0.38644 0.366791 c 0.17519 0.01538 -0.0478 0.382644 -0.49543 0.81678 c -0.80353 0.779188 -0.81159 0.868002 -0.60085 6.901079 c 0.17246 4.93738 0.12363 6.11145 -0.25471 6.11145 c -0.25761 0 -0.66158 -0.2604 -0.89792 -0.57878 c -0.23632 -0.31841 -0.5339 -0.56533 -0.66076 -0.54877 c -0.5119 0.0667 -1.79967 -0.55717 -1.66254 -0.80524 c 0.0808 -0.14623 -0.32276 -0.49823 -0.89634 -0.78212 l -1.04256 -0.51582 l 1.22441 -1.51573 c 2.02855 -2.51053 2.17713 -6.47757 0.30584 -8.166136 c -1.39485 -1.258661 -3.71384 -1.221337 -4.87649 0.07858 c -0.47613 0.532353 -0.87642 0.843066 -0.89018 0.690255 c -0.0135 -0.152785 -0.15627 0.07687 -0.31668 0.510641 c -0.16042 0.43378 -0.3017 3.75644 -0.31361 7.38344 c -0.0193 5.81747 0.0494 6.642 0.58123 6.9958 c 0.33157 0.22058 0.92014 0.35819 1.30811 0.30614 c 0.63246 -0.0849 0.69261 -0.33601 0.58172 -2.42784 l -0.12398 -2.33251 l 1.79996 1.44526 c 0.98984 0.79513 1.96297 1.44585 2.1626 1.44585 c 0.1996 0 0.44441 0.23645 0.5435 0.52564 c 0.22817 0.66485 0.4605 0.7148 3.67688 0.79137 c 2.97033 0.0707 2.70381 0.41388 2.78673 -3.58425 l 0.0346 -1.67633 h 1.82064 c 1.5866 0 1.94404 -0.15482 2.78671 -1.21016 c 1.84978 -2.31657 1.73964 -5.61488 -0.27537 -8.246989 c -0.68274 -0.891781 -1.32287 -1.53096 -1.4223 -1.419817 c -0.0994 0.111178 -0.51239 -0.05781 -0.91806 -0.375487 c -0.40301 -0.315627 -1.02031 -0.494409 -1.67544 -0.527947 z m -32.61762 0.389328 c -0.98493 0.03271 -1.54809 0.751298 -2.62501 3.086909 c -0.55601 1.20584 -1.30769 2.68005 -1.67079 3.27638 l -0.66026 1.08422 l -1.8413 -2.75996 c -1.41923 -2.12728 -2.04312 -2.760547 -2.72007 -2.760547 c -0.48777 0 -0.97696 0.287087 -1.09991 0.645217 c -0.12176 0.35478 0.0424 2.46441 0.36424 4.68758 c 0.32183 2.22317 0.58482 5.45183 0.58482 7.17545 c 0 1.72359 0.11337 3.26046 0.2516 3.41502 c 0.13821 0.15453 0.65368 0.22821 1.14589 0.16403 c 0.88425 -0.11529 0.89724 -0.16722 1.0715 -4.39932 c 0.17485 -4.24593 0.18225 -4.2756 0.8483 -3.45025 c 1.36734 1.69431 2.8463 0.75376 5.07956 -3.23017 c 1.06129 -1.89308 1.06158 -1.89373 1.25955 -0.78903 c 0.1089 0.6078 0.37347 2.61355 0.58741 4.45707 c 0.21397 1.84354 0.69044 4.11823 1.0591 5.05493 c 0.58593 1.48862 0.79389 1.68748 1.6496 1.57755 c 1.20958 -0.15536 1.44029 -1.31764 0.68248 -3.43525 c -0.29063 -0.81216 -0.78583 -3.5579 -1.10044 -6.1016 c -0.77932 -6.300889 -1.16038 -7.511876 -2.41578 -7.672824 c -0.16064 -0.02071 -0.3098 -0.02996 -0.45049 -0.02544 z m 12.62702 1.557904 c -0.45124 0.02248 -0.84259 0.09038 -1.09163 0.214302 c -0.31412 0.156157 -0.65061 0.315745 -0.74758 0.354074 c -1.39503 0.551429 -3.11145 1.631809 -3.60662 2.270139 c -0.34406 0.44354 -0.62736 0.64583 -0.6308 0.44998 c -0.006 -0.39154 -0.79497 1.05341 -1.42127 2.6017 c -1.28184 3.16881 -0.63224 6.16268 1.7638 8.12914 c 1.40632 1.15417 1.86116 1.31308 3.7182 1.29622 c 1.47211 -0.0133 2.43812 -0.25147 3.17419 -0.78326 c 0.58194 -0.42045 1.33459 -0.87165 1.67182 -1.00223 c 0.33737 -0.13054 0.52628 -0.39468 0.42003 -0.58689 c -0.10623 -0.19224 -0.0471 -0.34946 0.13175 -0.34946 c 0.56472 0 1.44738 -4.04373 1.42022 -6.50654 c -0.0143 -1.30131 -0.26772 -2.89837 -0.5626 -3.54903 c -0.29489 -0.65065 -0.64889 -1.44919 -0.78683 -1.77451 c -0.20643 -0.486988 -2.09891 -0.830978 -3.45268 -0.763635 z m 19.62226 1.158165 c 0.16501 0 0.77773 0.18588 1.36184 0.41358 c 1.16122 0.45259 1.86452 1.76842 1.86452 3.48722 c 0 1.43153 -0.94041 2.25871 -2.38065 2.09454 l -1.14588 -0.13054 v -2.93212 c 0 -1.61289 0.13511 -2.93268 0.30017 -2.93268 z m -9.3862 0.43783 c 0.21947 -0.004 0.42611 0.18881 0.77289 0.57651 c 0.69663 0.77892 0.42122 2.26203 -0.74498 4.01345 c -0.46936 0.70489 -1.00366 1.28179 -1.18776 1.28179 c -0.1841 0 -0.33477 -1.03771 -0.33477 -2.30539 c 0 -1.73213 0.16006 -2.46708 0.64476 -2.95752 c 0.39799 -0.40267 0.63039 -0.60443 0.84986 -0.60884 z m -10.19575 1.53365 c 0.0927 -0.003 0.19511 0.007 0.30327 0.03 c 0.43262 0.0917 0.95847 0.3867 1.33033 0.83296 c 0.815 0.97811 0.90814 2.44652 0.3048 4.80944 c -0.51596 2.0207 -0.79868 2.44052 -2.1461 3.19201 c -1.48668 0.82927 -2.42572 0.75243 -3.82411 -0.31364 c -1.12234 -0.85552 -1.19516 -1.04534 -1.14797 -2.98583 c 0.0385 -1.58312 0.24677 -2.30636 0.8819 -3.06437 c 0.91908 -1.09674 3.02112 -2.22344 3.51362 -1.88312 c 0.17336 0.11981 0.31514 0.0298 0.31514 -0.19987 c 0 -0.2756 0.19104 -0.40763 0.46912 -0.41763 z m 66.33878 0.84219 c 0.11724 0.003 0.22624 0.0243 0.32396 0.0653 c 1.15815 0.49692 0.54511 3.61338 -1.38252 7.02757 c -0.48891 0.86593 -1.14274 1.529 -1.50753 1.529 c -0.66079 0 -1.46746 -1.48257 -1.45794 -2.68025 c 0.006 -0.74896 1.01011 -4.05384 1.04257 -3.43175 c 0.0114 0.21687 0.21894 -0.0443 0.46134 -0.57998 c 0.40923 -0.90417 1.36519 -1.68951 2.14713 -1.88426 c 0.13033 -0.0324 0.25579 -0.0483 0.37299 -0.0456 z m 35.08199 0.44422 c 0.0718 -0.023 0.1297 -0.0174 0.17358 0.0162 c 0.17556 0.13415 0.12379 0.71826 -0.19167 1.72427 c -0.26015 0.82958 -0.83108 2.21764 -1.26833 3.08517 l -0.79508 1.57754 l 0.0573 -2.06104 c 0.0445 -1.61393 0.26647 -2.34132 1.02447 -3.35203 c 0.44589 -0.59455 0.78437 -0.92086 0.99968 -0.99009 z m -55.8651 0.44883 c 0.45563 0.0524 1.23579 1.02126 1.23579 1.64513 c 0 0.69404 -0.91578 0.74339 -1.29211 0.0699 c -0.40124 -0.71815 -0.45134 -1.44558 -0.11572 -1.67748 c 0.0486 -0.0336 0.10697 -0.045 0.17204 -0.0376 z m -3.17264 0.11377 l 0.1152 1.31992 c 0.11922 1.36161 1.20609 3.30616 1.60106 2.86454 c 0.12277 -0.13723 0.22318 -0.0534 0.22318 0.18656 c 0 0.23991 0.57892 0.49128 1.28589 0.55859 l 1.28539 0.12246 l -1.06272 1.26792 c -0.58458 0.69727 -0.97792 1.36271 -0.87412 1.47876 c 0.10366 0.11606 0.1021 0.21085 -0.004 0.21085 c -0.10594 0.00014 -0.72705 0.24586 -1.38096 0.54643 c -1.51912 0.69833 -2.55346 0.27599 -3.4785 -1.42041 c -0.83957 -1.53957 -0.89411 -2.5983 -0.19217 -3.71885 c 0.28412 -0.45354 0.43619 -0.91422 0.33787 -1.02416 c -0.0984 -0.10997 0.34347 -0.69327 0.98212 -1.29622 z m -50.71685 16.29066 c -0.12916 0 -0.28078 0.14143 -0.43862 0.33734 c 0.17236 0.003 0.34636 0.007 0.51716 0.006 h 0.32548 c -0.0524 -0.21963 -0.18238 -0.34195 -0.40402 -0.34195 z" stroke-linecap="round" />
</g>
		<g transform="matrix(1 0 0 1.12 652.97 218.11)" id="path6237-9-8"  >
<path style="stroke: none; stroke-width: 1.33333; stroke-dasharray: none; stroke-linecap: butt; stroke-dashoffset: 0; stroke-linejoin: miter; stroke-miterlimit: 4; fill: rgb(0,0,0); fill-rule: nonzero; opacity: 1;"  transform=" translate(-1597.77, -1419.4)" d="m 1691.2773 1391.3125 c -3.463 0.011 -7.0596 4.7732 -12.5781 16.6582 c -2.9601 6.3753 -3.8133 10.3819 -4.2031 19.7305 c -0.3052 7.3152 0.124 13.2138 1.1406 15.6679 c 3.8664 9.3343 10.2964 1.8983 11.5781 -13.3906 c 0.6146 -7.3313 1.2445 -9.252 3.2012 -9.7637 c 1.6 -0.4184 2.7185 0.2574 3.2617 1.9688 c 0.4548 1.4331 2.9172 3.6027 5.4707 4.8203 c 4.16 1.9838 5.0097 2.0054 8.1895 0.2207 c 1.9516 -1.0954 5.3803 -5.2709 7.6191 -9.2793 c 5.0688 -9.075 7.9749 -10.0276 9.2715 -3.041 c 2.4148 13.0107 11.9776 12.8686 18.0567 -0.2676 l 1.8515 -4 l 0.7363 5.3223 c 0.5036 3.6373 1.4752 5.4601 3.0704 5.7637 c 1.6707 0.3179 2.3478 -0.4362 2.3808 -2.6543 c 0.026 -1.7038 0.9051 -4.5984 1.9531 -6.4317 c 1.8778 -3.2852 1.9061 -3.2509 1.9532 2.334 c 0.035 4.1792 0.5821 5.666 2.0879 5.666 c 2.1002 0 2.4955 -0.7132 3.873 -7 c 1.1646 -5.3153 2.7708 -4.5546 7 3.3106 c 4.6732 8.6908 9.4858 10.984 14.0664 6.7031 c 2.6843 -2.5086 3.3065 -2.6109 5.6074 -0.918 c 1.5367 1.1314 3.8591 1.7114 5.8946 1.8086 c 0.5723 -1.3532 1.1471 -2.656 1.7539 -3.8711 c -0.5815 -0.2872 -1.2129 -0.5522 -1.9043 -0.7558 c -4.1964 -1.2354 -4.318 -1.4763 -3.8887 -7.6094 c 0.3923 -5.6033 0.1339 -6.334 -2.2383 -6.334 c -3.8656 0 -7.0945 3.7984 -6.6699 7.8457 c 0.2013 1.9197 -0.098 4.2401 -0.6641 5.1563 c -2.0273 3.2803 -4.7619 1.5526 -8.4531 -5.336 l -3.7519 -7 l -13.1348 -0.1972 l -13.1348 -0.1993 l -2.5156 5.6895 c -4.5235 10.2261 -7.8623 10.5211 -9.6973 0.8574 c -0.7681 -4.0456 -6.1538 -10.8164 -8.6035 -10.8164 c -0.5216 0 -1.5398 1.35 -2.2636 3 c -1.1482 2.6166 -2.1313 2.942 -7.6973 2.543 c -7.402 -0.5306 -10.2871 1.2508 -10.2871 6.3535 c 0 4.241 2.1924 6.7695 5.8672 6.7695 c 1.9778 0 2.2783 0.3896 1.164 1.5039 c -2.6202 2.6203 -7.9756 0.1978 -9.5508 -4.3203 c -1.2251 -3.5146 -1.9228 -4.0184 -4.4648 -3.2168 c -1.6576 0.5228 -4.8156 1.1933 -7.0156 1.4903 l -4 0.539 l 3.5156 -1.3906 c 4.0994 -1.6231 9.1523 -12.3614 9.1523 -19.4492 c 0 -3.7689 -0.4811 -4.4905 -3 -4.4805 z m -201.5 2.6582 c -2.1822 0 -3.5 5.7414 -3.5 15.2461 c 0 7.7885 -2.5159 12.8689 -4.8906 9.875 c -0.7797 -0.9829 -2.0016 -3.5871 -2.7148 -5.7871 c -1.0261 -3.1652 -2.1077 -4.0337 -5.1797 -4.1621 c -2.1352 -0.089 -4.8961 -0.5906 -6.1367 -1.1133 c -5.0444 -2.1257 -7.8826 0.2117 -11.2598 9.2754 c -0.8559 2.2967 -1.0642 2.1111 -1.5117 -1.334 c -0.6197 -4.7704 -5.1171 -10 -8.5996 -10 c -1.3721 0 -3.8531 1.3589 -5.5137 3.0195 l -3.0195 3.0196 l -3.92 -4.9571 c -2.156 -2.7267 -4.6222 -4.9855 -5.4785 -5.0195 c -0.8563 -0.034 -2.6563 2.1552 -4 4.8652 c -2.8644 5.7769 -5.1512 6.9399 -6.1484 3.127 c -0.5898 -2.2559 -1.7897 -2.721 -7.0215 -2.7207 c -4.4471 0 -6.8358 0.6879 -8.084 2.332 c -1.2673 1.6696 -1.8478 5.94 -1.7558 9.5879 c 0.836 1.808 1.5577 3.82 2.1425 6.041 c 3.977 1.3246 9.5363 0.4483 11.8575 -1.9785 c 1.4121 -1.4756 3.3844 -3.4243 4.3828 -4.332 c 0.9984 -0.9077 3.4971 -3.204 5.5527 -5.1016 c 4.0896 -3.7752 7.9649 -3.1055 7.9649 1.375 c 0 2.9364 -2.651 4.1785 -6.6719 3.127 c -2.3471 -0.6137 -2.8346 -0.2648 -2.4512 1.7578 c 0.6275 3.308 8.4549 4.2087 11.627 1.3379 c 2.037 -1.8434 2.4123 -1.7868 3.8867 0.5742 c 1.842 2.9494 6.8913 3.4552 9.4258 0.9453 c 1.348 -1.3349 1.9455 -1.2009 3 0.668 c 0.724 1.2833 2.1184 2.332 3.0976 2.332 c 2.0001 0 6.086 -5.6166 6.086 -8.3652 c 0 -0.9857 0.8363 -2.937 1.8593 -4.336 c 1.7371 -2.3757 1.9717 -2.1709 3.545 3.0801 c 1.7843 5.9554 5.2482 7.6739 5.2832 2.6211 c 0.022 -3.3124 2.589 -8.397 2.625 -5.2012 c 0.011 0.9892 0.9904 3.8399 2.1738 6.334 c 1.6992 3.5807 2.9436 4.5352 5.9199 4.5352 c 2.0732 0 4.1055 -0.5435 4.5156 -1.2071 c 0.41 -0.6635 3.1333 -0.8874 6.0508 -0.4961 c 5.8062 0.7788 12.0274 -2.1499 12.0274 -5.6621 c 0 -2.5009 -1.2382 -2.4785 -6.4454 0.1192 c -5.3933 2.6905 -6.8886 1.6417 -6.8886 -4.834 v -5.2539 h 6.6679 c 5.037 0 6.6661 -0.489 6.6661 -2 c 0 -1.5111 -1.6291 -2.0003 -6.6661 -2 h -6.6679 v -4.668 c 0 -3.0707 -0.6257 -4.666 -1.8321 -4.666 z m 54.7774 1.334 c -2.4068 0 -3.6113 2.7925 -3.6113 8.375 c 0 3.2336 -0.3553 3.8031 -1.5996 2.5586 c -0.8801 -0.8804 -3.5657 -1.6016 -5.9688 -1.6016 c -8.2257 0 -10.721 9.4599 -4.4844 17 c 3.0782 3.7217 6.346 3.8154 10.0996 0.2891 c 2.5653 -2.4103 3.0756 -2.4834 4.584 -0.666 c 2.2784 2.7453 7.5954 2.5936 9.1934 -0.2618 c 1.223 -2.1852 1.4231 -2.1852 3.8379 0 c 4.076 3.689 9.2623 2.9647 11.6367 -1.6269 c 1.1188 -2.1636 2.0351 -5.4642 2.0351 -7.334 c 0 -2.1329 0.7452 -3.4004 2 -3.4004 c 1.5353 0 2 1.7044 2 7.334 c 0 5.6297 0.4646 7.334 2 7.334 c 1.1 0 2.0079 -0.7513 2.0079 -1.668 c 0 -0.9167 0.6308 -3.916 1.3945 -6.666 c 1.4262 -5.1355 3.9245 -6.8268 3.9375 -2.666 c 0 1.2833 0.6327 4.582 1.3965 7.332 c 1.7633 6.3495 5.304 6.6099 9.1093 0.668 c 2.4903 -3.8887 2.7789 -4.0261 2.7989 -1.334 c 0.035 4.7387 3.6251 3.5359 4.5761 -1.5332 c 0.4676 -2.4929 1.6557 -5.2002 2.6407 -6.0176 c 1.4274 -1.1848 2.3017 -0.063 4.3105 5.5313 l 2.5215 7.0195 l 8.6152 0.293 c 10.2608 0.3495 13.4077 -1.3113 17.6504 -9.3125 l 2.9961 -5.6465 l 0.3867 4 c 0.7553 7.7787 1.7315 9.9531 5.3418 11.9121 c 2.0073 1.0892 5.8985 2.0042 8.6485 2.0332 c 4.2137 0.045 5 -0.3884 5 -2.7578 c 0 -2.3387 -0.5632 -2.6686 -3.3594 -1.9668 c -3.3708 0.846 -8.4556 -1.0096 -10.2852 -3.7539 c -0.5377 -0.8069 -0.6276 -3.3749 -0.2011 -5.707 c 0.6164 -3.3697 0.2017 -4.5999 -2.0215 -5.9883 c -1.5386 -0.9609 -2.7988 -2.5022 -2.7988 -3.4258 c 0 -2.5475 -3.9805 -2.0074 -4.8223 0.6543 c -2.1761 6.8812 -5.312 12.7426 -7.7207 14.4297 c -4.2832 3.0001 -5.1167 2.2358 -2.0645 -1.8926 c 1.5434 -2.0875 3.1481 -6.3349 3.5645 -9.4395 c 0.7472 -5.5707 0.7068 -5.6395 -3.0566 -5.205 c -4.8092 0.5551 -9.9004 7.739 -9.9004 13.9707 c 0 6.5048 -1.9686 5.4779 -4.8555 -2.5313 c -2.2472 -6.2342 -2.9579 -7.0176 -6.5 -7.1621 c -2.1875 -0.089 -5.0678 -0.6177 -6.4004 -1.1758 c -2.9828 -1.2492 -4.1385 -0.067 -6.1797 6.3203 c -1.6213 5.0745 -4.0593 7.9251 -4.0723 4.7637 c 0 -0.96 -0.6519 -4.0659 -1.4394 -6.9023 c -1.3684 -4.9283 -1.6321 -5.1253 -5.9668 -4.4219 c -2.5163 0.4084 -4.9156 0.1228 -5.3887 -0.6426 c -0.4749 -0.7686 -2.6378 -1.0231 -4.8828 -0.5742 c -2.2162 0.4432 -4.8109 0.1575 -5.7656 -0.6348 c -2.688 -2.2309 -7.7377 -0.8972 -9.1973 2.4297 c -0.7239 1.65 -2.0739 3 -3 3 c -0.9262 0 -1.7074 1.0507 -1.7324 2.334 c -0.026 1.2834 -0.8501 3.7836 -1.832 5.5566 l -1.7871 3.2247 l -1.6211 -3.0293 c -1.11 -2.0739 -1.3294 -5.9306 -0.6973 -12.2247 c 0.7713 -7.6806 0.5942 -9.1933 -1.0703 -9.1933 z m 144.8789 2.8887 c 0.5169 -0.3983 0.153 1.1292 -1.3418 4.7773 c -1.1268 2.75 -2.9558 5.9 -4.0664 7 c -1.1105 1.1 -0.4497 -1.15 1.4707 -5 c 2.0227 -4.055 3.4206 -6.379 3.9375 -6.7773 z m -64.6172 10.5039 c 0.088 0.1035 0.127 0.3733 0.127 0.7968 c 0 0.7154 -0.9337 2.4652 -2.0743 3.8887 c -1.955 2.4404 -1.9812 2.3969 -0.4843 -0.7461 c 0.9719 -2.0407 1.6109 -3.2488 2.0078 -3.7363 c 0.1985 -0.2438 0.3357 -0.3066 0.4238 -0.2031 z m -91.543 0.1894 c 3.076 -0.5862 5.7519 5.909 3.5352 8.5801 c -1.9413 2.3389 -3.1389 2.3208 -5.1367 -0.09 c -2.2142 -2.668 -1.2174 -7.953 1.6015 -8.4903 z m 175.5684 2.5488 c 1.0758 0.049 1.4451 0.5175 1.1465 1.4239 c -0.3226 0.9784 -1.9567 1.9796 -3.6309 2.2246 c -2.0684 0.3028 -2.8553 -0.1253 -2.457 -1.334 c 0.3225 -0.9784 1.9546 -1.9796 3.6289 -2.2246 c 0.5171 -0.076 0.9539 -0.104 1.3125 -0.09 z m -263.2188 0.086 c 0.3824 -0.01 0.7772 0.057 1.1739 0.209 c 2.0565 0.7892 2.0692 1.1872 0.1582 4.8828 c -2.4373 4.7137 -2.8145 4.84 -4.5801 1.541 c -1.5355 -2.8692 0.5711 -6.5688 3.248 -6.6328 z m -37.0664 0.1836 c 0.2958 0.065 0.3868 0.5126 0.3868 1.3691 c 0 1.1533 1.0226 2.6684 2.2714 3.3672 c 1.9145 1.0714 1.992 1.6052 0.502 3.4004 c -1.846 2.2242 -4.3691 2.7561 -5.8848 1.2402 c -1.606 -1.606 -0.9287 -6.7522 1.1114 -8.4453 c 0.8168 -0.6779 1.3174 -0.9962 1.6132 -0.9316 z m 157.045 0.1894 c 0.1856 0.01 0.3151 0.053 0.3925 0.1504 c 0.3094 0.3873 -0.2101 1.551 -1.2636 3.8633 c -1.7356 3.8085 -2.5426 4.1078 -4.8535 1.7969 c -2.4254 -2.4254 -1.9728 -3.3427 2.4003 -4.8672 c 1.1344 -0.3955 1.9868 -0.6901 2.5938 -0.8379 c 0.3035 -0.074 0.5449 -0.111 0.7305 -0.1055 z m 114.4668 5.5137 v 0 c 0.3464 0.084 0.8337 1.0063 1.7949 2.8496 c 1.3445 2.5781 1.6831 5.7536 1.1094 10.3906 c -0.8827 7.1328 -2.329 10.5987 -3.8066 9.1211 c -1.1253 -1.1257 -1.164 -16.0305 -0.059 -20.1777 c 0.4051 -1.5124 0.6125 -2.2675 0.959 -2.1836 z" stroke-linecap="round" />
</g>
		<g transform="matrix(1 0 0 1.12 701.35 181.99)" id="path6237-9-8-1"  >
<path style="stroke: none; stroke-width: 1.33333; stroke-dasharray: none; stroke-linecap: butt; stroke-dashoffset: 0; stroke-linejoin: miter; stroke-miterlimit: 4; fill: rgb(231,115,100); fill-rule: nonzero; opacity: 1;"  transform=" translate(-1646.16, -1387.09)" d="m 1891.1191 1338.3398 c -2.0286 0.1879 -4.6794 0.6184 -8.1074 1.2344 c -9.6535 1.7345 -12.2656 2.6761 -12.2656 4.418 c 0 2.6575 4.4225 6.9023 10.2676 9.8554 c 5.2736 2.6646 7.6501 2.7131 10.1504 0.2129 c 1.6997 -1.6998 2.226 -1.6261 4.2226 0.5801 c 2.9798 3.2927 5.8958 11.584 5.9688 16.9785 c 0.1056 7.726 -5.194 19.0965 -12.1367 26.0391 c -12.2807 12.2806 -37.4609 20.8213 -56.1387 19.041 c -7.4705 -0.712 -9 -0.5192 -9 1.1309 c 0 1.0934 1.3501 2.2465 3 2.5644 c 6.7618 1.3023 19.0515 0.82 28.7226 -1.1289 c 30.2367 -6.0934 49.6691 -25.0302 49.5801 -48.3125 c -0.031 -7.9745 -3.175 -16.8726 -7.1172 -20.1348 c -1.5752 -1.3032 -2.025 -3.0797 -1.5176 -6 c 0.9405 -5.4145 0.4569 -7.0422 -5.6289 -6.4785 z m -90.6054 44.3301 c -3.946 0 -4.026 2.9583 -0.127 4.6836 c 1.636 0.7238 4.3633 3.7151 6.0586 6.6484 c 2.7115 4.6916 2.9827 6.4573 2.2578 14.668 c -0.8688 9.8413 -4.0355 18.7719 -7.7402 21.8301 c -1.2192 1.0065 -2.2168 2.656 -2.2168 3.666 c 0 2.7907 3.1964 2.1975 6.3711 -1.1816 c 4.533 -4.8253 6.873 -12.0249 7.791 -23.9668 c 0.7029 -9.1484 0.441 -11.9573 -1.4746 -15.7422 c -3.4088 -6.7351 -7.3955 -10.6056 -10.9199 -10.6055 z m -404.834 4 c -2.7601 0 -7.8381 11.964 -8.5957 20.2539 c -0.6962 7.6169 1.3131 18.9148 3.9238 22.0606 c 1.7112 2.0618 7.7383 2.2431 7.7383 0.2324 c 0 -0.7991 -1.2289 -2.4485 -2.7324 -3.666 c -5.7754 -4.6771 -6.3274 -19.5278 -1.1075 -29.8282 c 2.9303 -5.7817 3.2101 -9.0527 0.7735 -9.0527 z m 393.832 18.8418 c 0.2582 0.3435 0.6908 0.8702 0.9707 1.2383 c -0.164 -0.6637 -0.4739 -1.0693 -0.9707 -1.2383 z m 8.7285 15.8555 c 0.001 0.3038 0.01 0.8154 0.01 0.9394 c -0.01 0.2871 0.0004 0.5741 -0.01 0.8613 c 0.2921 -0.2452 0.502 -0.5288 0.502 -0.8925 c 0 -0.2772 -0.2064 -0.5887 -0.502 -0.9082 z" stroke-linecap="round" />
</g>
</g>
</g>
</svg>