<?xml version="1.0" encoding="UTF-8" standalone="no"?>
<!-- Created with Inkscape (http://www.inkscape.org/) -->

<svg
   width="1903"
   height="445"
   viewBox="0 0 503.50224 117.74006"
   version="1.1"
   id="svg5"
   inkscape:version="1.1.1 (1:1.1+202109281943+c3084ef5ed)"
   sodipodi:docname="logoNomCompletSansFond.svg"
   inkscape:export-filename="/home/aro/Documents/Ecomorphose/logo/Kit logo/PNG/logoNomCompletSansFond.png"
   inkscape:export-xdpi="96"
   inkscape:export-ydpi="96"
   xmlns:inkscape="http://www.inkscape.org/namespaces/inkscape"
   xmlns:sodipodi="http://sodipodi.sourceforge.net/DTD/sodipodi-0.dtd"
   xmlns="http://www.w3.org/2000/svg"
   xmlns:svg="http://www.w3.org/2000/svg">
  <sodipodi:namedview
     id="namedview7"
     pagecolor="#ffffff"
     bordercolor="#eeeeee"
     borderopacity="1"
     inkscape:pageshadow="0"
     inkscape:pageopacity="0.18823529"
     inkscape:pagecheckerboard="false"
     inkscape:document-units="mm"
     showgrid="false"
     inkscape:zoom="0.32103575"
     inkscape:cx="1208.5881"
     inkscape:cy="331.73875"
     inkscape:window-width="1854"
     inkscape:window-height="1098"
     inkscape:window-x="66"
     inkscape:window-y="29"
     inkscape:window-maximized="1"
     inkscape:current-layer="layer1"
     units="px"
     height="1122.5196px"
     showguides="true" />
  <defs
     id="defs2">
    <rect
       x="-14.189957"
       y="459.73044"
       width="1817.7028"
       height="323.90045"
       id="rect2191" />
  </defs>
  <g
     inkscape:label="Calque 1"
     inkscape:groupmode="layer"
     id="layer1">
    <rect
       style="opacity:0;fill:#ffffff;stroke:none;stroke-width:1.59794"
       id="rect1313"
       width="515.9375"
       height="145.52083"
       x="23.347525"
       y="-158.48119"
       rx="3.3306809e-15"
       ry="10.999999"
       inkscape:export-filename="/home/aro/Documents/Ecomorphose/logo/Kit logo/PNG/logoNomCompletAvecFond.png"
       inkscape:export-xdpi="96"
       inkscape:export-ydpi="96" />
    <g
       id="g11732">
      <g
         id="g1139"
         transform="translate(12.764141,0.26886303)">
        <rect
           style="opacity:0;fill:#ffffff;fill-opacity:1;stroke:none;stroke-width:1.55975"
           id="rect4526"
           width="482.33542"
           height="99.48333"
           x="3.8502676e-06"
           y="3.4387938e-07"
           rx="3.3306809e-15"
           ry="10.999999" />
        <path
           style="fill:#7ab892;fill-opacity:1;stroke-width:0.352777"
           d="m 228.90007,80.725571 c -6.428,-1.437476 -10.67956,-3.497177 -14.23972,-6.898536 -2.83737,-2.710805 -4.81105,-5.815055 -6.28189,-9.880315 -1.82538,-5.045146 -1.05127,-15.435495 1.59806,-21.449805 1.87949,-4.266678 7.80436,-10.602441 11.63237,-12.439099 3.55574,-1.70601 4.74322,-1.918039 10.74214,-1.918039 5.51177,0 5.71159,0.02667 9.36834,1.250289 5.28958,1.770007 7.85823,3.879011 11.58198,9.509432 1.91082,2.889234 2.35878,5.001604 2.31918,10.936112 -0.043,6.437895 -0.53729,8.61473 -2.86893,12.633812 -3.32915,5.738532 -7.36227,8.017809 -14.15016,7.996809 -5.51661,-0.01707 -8.08749,-0.917739 -11.54144,-4.043384 -2.55045,-2.308031 -2.92314,-3.372016 -2.92047,-8.337888 0.003,-4.739413 0.34724,-5.862315 2.53405,-8.255011 2.4539,-2.684968 3.85066,-3.346217 7.06313,-3.343759 3.57634,0.0028 5.12201,0.515258 6.89205,2.28528 1.45328,1.453285 1.50048,1.57157 1.50048,3.761447 0,3.527446 -1.43378,4.887415 -5.15266,4.887415 -2.73629,0 -4.37234,-1.168347 -4.37234,-3.122396 0,-0.727432 0.1905,-1.513104 0.42333,-1.745938 0.66567,-0.665662 2.5654,-0.508328 3.27054,0.27087 0.51051,0.564087 0.76467,0.621189 1.35612,0.304657 0.70901,-0.379444 0.69911,-0.415255 -0.38158,-1.380847 -1.65013,-1.474406 -3.38921,-1.682824 -5.34953,-0.641114 -2.33185,1.239136 -3.5837,3.225403 -3.81005,6.045239 -0.32533,4.053023 0.95628,6.10652 5.03192,8.062426 3.2139,1.542362 5.75646,1.68982 9.2242,0.534956 2.08915,-0.695757 3.12721,-1.270982 4.06043,-2.250035 1.2452,-1.306357 3.42251,-4.550051 3.96131,-5.901428 1.22288,-3.067143 1.65685,-9.545445 0.85799,-12.808366 -0.80629,-3.293202 -5.27706,-8.869849 -8.21994,-10.25317 -3.82828,-1.799497 -6.92465,-2.514854 -10.88536,-2.514854 -3.4535,0 -4.09823,0.106778 -6.53409,1.082141 -2.95971,1.185127 -3.98196,1.87113 -6.61501,4.439187 -4.74787,4.630687 -7.07253,9.969396 -7.45359,17.117647 -0.22075,4.141038 0.0888,5.966862 1.54492,9.111025 0.49418,1.067154 1.15305,2.489348 1.46415,3.160432 0.949,2.04724 4.57851,5.431335 7.11811,6.636853 7.94112,3.769537 13.678,4.636344 22.65386,3.422854 4.0458,-0.546971 7.29141,-1.489657 9.36062,-2.71879 1.07701,-0.639749 1.11439,-0.726726 0.61737,-1.436328 -0.6868,-0.980564 -0.67534,-2.701964 0.0246,-3.701359 0.30454,-0.434806 1.29672,-1.189006 2.20485,-1.676006 2.49619,-1.338625 7.79272,-4.607647 8.4947,-5.242951 0.78738,-0.712565 2.63443,-0.726443 3.21726,-0.02416 0.59677,0.719045 0.25696,5.394198 -0.56351,7.753083 -1.93344,5.558684 -2.40864,6.589813 -3.72741,8.088037 -1.18224,1.343078 -1.62875,1.61335 -2.6655,1.61335 -0.98115,0 -1.4942,-0.271677 -2.41834,-1.280615 l -1.173,-1.280615 -1.52041,0.869828 c -2.52875,1.446681 -5.54587,2.350797 -9.73463,2.917098 -5.47108,0.739661 -13.89292,0.669816 -17.53856,-0.145455 z"
           id="path1245-5" />
        <path
           style="fill:#000000;stroke-width:0.352777"
           d="m 147.42562,77.06237 c -0.92919,-1.119603 -0.84736,-3.595431 0.28295,-8.560173 1.31947,-5.79561 1.96209,-8.440258 2.69027,-11.071595 0.29531,-1.067155 0.76025,-3.05153 1.03319,-4.409723 1.55376,-7.731742 5.52441,-16.447847 9.27455,-20.35887 l 1.25502,-1.308867 -1.44176,-1.564129 c -1.63501,-1.773775 -1.97952,-3.118808 -2.00812,-7.840041 -0.0156,-2.58032 0.0746,-2.970125 0.95463,-4.123894 0.58605,-0.76836 1.88291,-1.722707 3.26672,-2.403956 2.1653,-1.065969 2.45573,-1.118717 5.14483,-0.934403 2.67968,0.183671 2.94825,0.278329 4.49438,1.584119 2.09777,1.771666 2.66193,3.324487 2.37726,6.54327 -0.26402,2.985325 -1.42671,5.380924 -3.41196,7.029979 l -1.47505,1.225264 0.84235,1.13792 c 0.76398,1.032045 0.85378,1.553787 0.96508,5.607706 l 0.12271,4.469792 0.76145,-1.94028 c 1.56912,-3.998372 2.95052,-6.181635 4.95576,-7.83246 1.7614,-1.450078 1.9035,-1.665229 1.38384,-2.095251 -1.26967,-1.050661 -1.86265,-3.174807 -1.87068,-6.701169 -0.007,-3.25443 0.0412,-3.473029 1.13878,-5.115279 1.47728,-2.210467 2.96021,-2.949033 5.92263,-2.949736 5.12809,-0.0013 8.45307,3.451987 8.45307,8.779076 0,2.019969 -0.15423,2.614318 -1.04137,4.013194 -0.57275,0.903134 -1.68259,2.106568 -2.46632,2.674295 -1.19193,0.863428 -1.3421,1.101008 -0.91825,1.452766 0.83146,0.690047 1.55188,3.476225 1.96465,7.598177 0.6093,6.084321 0.60999,6.085321 1.82468,2.645833 0.58245,-1.649237 1.33801,-3.633612 1.67901,-4.409723 0.34101,-0.77611 0.71986,-1.826186 0.84188,-2.3335 0.35357,-1.470023 2.42917,-4.301628 3.58377,-4.889111 0.58208,-0.296175 1.12613,-0.579843 1.209,-0.630373 0.0829,-0.05053 -0.26422,-0.526782 -0.7713,-1.058333 -1.35334,-1.418635 -1.67242,-2.589996 -1.67242,-6.139582 0,-3.68907 0.48767,-5.033582 2.55264,-7.037562 2.63689,-2.559013 7.77992,-2.808811 11.31192,-0.549421 2.76273,1.767301 3.22417,2.782033 3.23574,7.115659 0.007,2.772183 -0.12964,3.782807 -0.63984,4.718466 -0.94804,1.738648 -3.68774,4.277368 -4.61599,4.277368 -1.12525,0 -1.29923,0.311769 -0.76322,1.367641 0.34753,0.684589 0.47117,2.905895 0.47508,8.535744 0.009,13.354775 0.99833,26.431439 2.20595,29.166754 l 0.66193,1.499306 h 2.41873 c 2.72522,0 3.26539,0.325493 3.26539,1.967638 0,1.669616 -0.65518,1.987841 -4.20334,2.041575 -3.04752,0.04615 -3.18846,0.01278 -4.26812,-1.010602 -1.37545,-1.303759 -1.98248,-2.434577 -2.46665,-4.59503 -0.52622,-2.3481 -1.37673,-16.745053 -1.57371,-26.638704 -0.0913,-4.586047 -0.26788,-8.60375 -0.39239,-8.928227 -0.44698,-1.164791 -2.76074,-1.149035 -4.10211,0.02794 -0.33118,0.290594 -1.02863,1.660877 -1.54988,3.045079 -0.52125,1.384196 -1.06189,2.675474 -1.20141,2.869501 -0.13953,0.194027 -0.53969,1.305277 -0.88925,2.469444 -0.34957,1.164166 -0.74659,2.275416 -0.88227,2.469446 -0.36926,0.528023 -1.33281,4.999696 -1.59514,7.402708 -0.12676,1.161074 -0.4567,3.145449 -0.73321,4.409723 -1.09454,5.004456 -1.51268,7.800766 -1.89944,12.702445 -0.22185,2.811655 -0.56923,5.311968 -0.77197,5.55625 -0.5127,0.61777 -2.57208,0.556437 -3.11078,-0.09265 -0.33733,-0.406466 -0.3838,-1.584177 -0.19137,-4.850693 0.66661,-11.315856 -0.29689,-29.861476 -1.79589,-34.56795 -0.65464,-2.055389 -1.45855,-2.573994 -3.13328,-2.021287 -2.39968,0.791964 -4.78581,4.648676 -6.8729,11.108671 -0.62686,1.94028 -1.60538,4.877155 -2.17447,6.52639 -2.36881,6.864784 -3.31224,10.992569 -3.98829,17.449961 -0.62893,6.007444 -0.98725,6.891703 -2.79268,6.891703 -1.73775,0 -2.0875,-0.643546 -1.86727,-3.435763 0.18224,-2.310463 1.02276,-8.531003 2.13362,-15.790627 1.17596,-7.685045 1.67573,-19.767277 0.90866,-21.967684 -0.47593,-1.36525 -1.04892,-1.588051 -2.17123,-0.844254 -3.48953,2.312665 -8.2862,12.257558 -9.98183,20.695271 -0.27294,1.358194 -0.7436,3.342569 -1.04591,4.409724 -1.1603,4.095858 -3.02085,12.624395 -3.23234,14.816666 -0.12167,1.261179 -0.37766,2.491491 -0.56888,2.734027 -0.46354,0.587957 -2.54253,0.563615 -3.03983,-0.03559 z m 39.33385,-50.015645 c 0.41159,-0.384029 1.02577,-1.213408 1.36486,-1.843061 0.60329,-1.120224 0.59727,-1.182838 -0.27987,-2.913806 -1.09427,-2.159433 -3.16929,-3.347857 -4.65973,-2.668767 -1.16461,0.53063 -2.28592,2.425655 -2.28756,3.865981 -0.004,3.752347 3.42443,5.8343 5.8623,3.559653 z m 20.94749,0.06919 c 1.99344,-1.417476 2.82018,-4.576887 1.73048,-6.613014 -0.26563,-0.49635 -1.25744,-1.257567 -2.20726,-1.694095 -2.27018,-1.043353 -4.06109,-0.662454 -5.45057,1.159253 -0.77875,1.020982 -0.95182,1.616567 -0.95182,3.275407 0,1.672735 0.15433,2.194679 0.88195,2.982857 1.78689,1.935604 4.05338,2.271802 5.99722,0.889592 z m -39.62935,-0.57381 c 1.45207,-1.107543 2.58768,-3.246101 2.58768,-4.87304 0,-0.919117 -0.25885,-1.435227 -1.05643,-2.106342 -1.56351,-1.315607 -2.24348,-1.408097 -4.1914,-0.570125 -2.63757,1.134653 -2.97655,1.657488 -2.80646,4.328687 0.19619,3.081075 0.91036,4.1232 2.82565,4.1232 1.02035,0 1.81294,-0.270819 2.64096,-0.90238 z m 125.69513,48.080136 c -1.2678,-1.209222 -3.72843,-3.363553 -5.46806,-4.787402 -1.73966,-1.423848 -4.51236,-3.828699 -6.16162,-5.344115 -1.64922,-1.515417 -4.98297,-4.532231 -7.40833,-6.704034 l -4.40971,-3.948726 -0.28384,5.765067 c -0.26665,5.415735 -0.20257,6.60958 0.70271,13.09184 0.23333,1.67088 -0.31938,2.374614 -1.86505,2.374614 -2.73992,0 -3.15624,-3.071826 -2.682,-19.789029 0.33197,-11.701534 0.37774,-12.238132 1.27508,-14.943889 2.34098,-7.058816 5.25896,-9.348853 12.29235,-9.647033 7.53227,-0.319328 12.40867,1.650145 14.35899,5.799304 1.10689,2.35476 1.02365,7.140736 -0.1657,9.527423 -0.81955,1.644661 -2.51746,3.356007 -4.2371,4.270645 -0.98268,0.522687 -7.2536,2.190819 -10.08308,2.682216 -1.28111,0.222491 -2.37736,0.56328 -2.4361,0.757309 -0.1111,0.366834 5.6006,5.6509 11.99735,11.099149 9.75828,8.311335 9.87777,8.430535 9.87777,9.853247 0,1.5913 -0.50586,2.156535 -1.92263,2.148274 -0.83343,-0.0049 -1.59559,-0.501877 -3.38103,-2.20486 z M 275.53398,49.355659 c 3.74219,-0.437632 11.06557,-2.328532 12.57612,-3.247165 2.19195,-1.332997 3.28309,-4.295651 2.4792,-6.73145 -0.9516,-2.883397 -4.7005,-4.700651 -9.68094,-4.692772 -5.07979,0.008 -7.71348,2.087719 -9.44203,7.455816 -0.49003,1.521793 -1.00475,3.98781 -1.14382,5.480029 l -0.25286,2.713127 1.18602,-0.307978 c 0.6523,-0.169386 2.57754,-0.470712 4.27831,-0.669607 z m 28.47745,26.331193 c -0.38449,-0.630592 -0.70115,-1.30528 -0.70371,-1.499307 -0.003,-0.194027 -0.23461,-3.924652 -0.51565,-8.290277 -0.28107,-4.365625 -0.61682,-12.541249 -0.74618,-18.168056 -0.27117,-11.796313 -0.0539,-13.914445 1.57943,-15.399321 1.72435,-1.567603 7.34396,-2.88939 12.38441,-2.912933 3.03945,-0.01421 3.57074,0.08749 5.70788,1.092486 4.08408,1.920531 7.14002,4.601345 8.31504,7.294298 0.2468,0.565626 0.44103,2.42969 0.44111,4.233333 1.3e-4,2.937097 -0.1007,3.419303 -1.1376,5.441283 -0.77216,1.505696 -2.10416,3.160115 -4.14528,5.148673 -3.64938,3.555399 -5.75892,4.456655 -10.39617,4.44151 -2.94108,-0.0096 -7.09493,-0.892612 -8.0921,-1.720176 -0.69754,-0.578905 -0.69471,-1.491226 -0.0269,8.662281 0.29905,4.547085 0.69593,8.667705 0.88193,9.156933 0.464,1.220433 0.42429,2.733035 -0.0851,3.242466 -0.23284,0.232834 -0.94954,0.423334 -1.59269,0.423334 -0.9407,0 -1.30606,-0.2242 -1.86841,-1.146527 z M 318.1156,52.270968 c 2.10053,-0.778584 2.82371,-1.280631 4.53514,-3.148351 2.33106,-2.543951 3.94232,-5.464239 3.94232,-7.145161 0,-2.691862 -2.18056,-5.151313 -6.4856,-7.315075 -2.9823,-1.498949 -4.90799,-1.572914 -9.71521,-0.373155 -3.55869,0.888156 -4.21833,1.37482 -4.32191,3.188663 -0.34377,6.019535 -0.009,15.225196 0.53451,14.682049 0.53364,-0.533657 2.17562,-0.424902 4.81878,0.319172 3.12941,0.880962 3.81092,0.859764 6.69197,-0.208142 z m 93.67329,24.230221 c -3.45424,-0.848506 -7.53377,-4.058518 -9.48057,-7.459917 -1.05159,-1.837295 -1.2681,-4.537876 -0.42024,-5.241546 0.67276,-0.558345 2.71047,-0.333137 3.01887,0.333653 2.32386,5.024075 2.82459,5.617943 6.16024,7.306323 2.96574,1.501156 5.13755,1.650174 7.02736,0.482192 1.34268,-0.829823 2.69018,-3.200908 2.69018,-4.733702 0,-1.755934 -5.91336,-12.388443 -8.7248,-15.687598 -0.87788,-1.030182 -2.24009,-3.173307 -3.02715,-4.7625 -1.34397,-2.713691 -1.43224,-3.082555 -1.4514,-6.064438 -0.0296,-4.608854 0.53695,-6.203347 3.12399,-8.792496 1.28609,-1.287147 2.70568,-2.337776 3.55299,-2.629572 2.17805,-0.75008 5.51264,-0.889251 6.91245,-0.288499 3.31168,1.421247 6.08118,5.50413 6.5174,9.608037 0.26437,2.487425 -0.15946,3.100514 -2.01874,2.920352 -1.26572,-0.122651 -1.71443,-0.751391 -2.39845,-3.360873 -0.49604,-1.892292 -2.34453,-4.342736 -3.84636,-5.098838 -1.1022,-0.554916 -1.25436,-0.549034 -2.8395,0.109725 -3.14532,1.307137 -4.94994,3.875643 -4.96488,7.066579 -0.0103,2.198561 1.65859,5.796113 4.0618,8.755864 2.22044,2.734559 7.75353,12.117983 8.67976,14.71966 0.80436,2.259341 0.83251,4.30721 0.0938,6.823948 -0.74954,2.553838 -3.49128,5.313627 -5.87526,5.913914 -1.78855,0.45036 -5.12328,0.489511 -6.79151,0.07973 z M 357.63575,74.89098 c -0.34912,-0.420667 -0.35758,-1.651016 -0.0407,-5.909027 0.22014,-2.957759 0.39913,-6.982447 0.39773,-8.943755 l -0.003,-3.566012 -3.96875,-0.226865 c -2.18282,-0.124774 -6.53524,-0.329057 -9.67208,-0.453961 l -5.70334,-0.227102 -0.20293,1.550532 c -0.32605,2.499249 -0.91297,11.703989 -0.91297,14.334278 0,2.727598 -0.3252,3.267644 -1.96766,3.267644 -1.94151,0 -2.04644,-0.417999 -1.79654,-7.157244 0.12382,-3.339557 0.32893,-7.436768 0.45577,-9.104913 l 0.23061,-3.032985 -1.1615,-0.232304 c -1.60543,-0.321085 -2.11068,-0.833615 -2.11068,-2.141027 0,-1.499989 0.55507,-1.967637 2.33553,-1.967637 h 1.48886 l 0.21828,-2.38125 c 0.12007,-1.309687 0.38052,-3.96875 0.5788,-5.909029 0.19828,-1.940277 0.50747,-5.035902 0.6871,-6.879167 0.56436,-5.790819 0.79587,-6.35 2.62893,-6.35 2.18445,0 2.20085,0.114573 1.23796,8.643056 -0.32391,2.868705 -0.85217,8.216667 -1.18841,12.030845 l -0.12761,1.447514 6.9182,0.23068 c 3.805,0.126878 8.04521,0.328554 9.42263,0.44817 l 2.50447,0.217485 0.25254,-5.194785 c 0.13891,-2.857129 0.14073,-7.397895 0.004,-10.090586 -0.27845,-5.484733 -0.13335,-5.968489 1.79001,-5.968489 2.08849,0 2.11667,0.148661 2.11667,11.166877 0,8.796917 0.0658,9.999818 0.54681,9.999802 0.85649,-2.1e-5 1.39348,0.747692 1.39348,1.940264 0,1.232011 -0.54086,1.94028 -1.48166,1.94028 -0.58153,0 -0.63551,0.423497 -0.64077,5.027083 -0.007,6.259652 -0.5348,12.869862 -1.07974,13.526487 -0.54599,0.657867 -2.59347,0.635203 -3.1496,-0.03485 z M 47.898625,74.394312 c -3.285567,-1.105845 -4.361289,-1.690034 -5.690931,-3.090577 -1.598708,-1.683954 -1.908688,-2.289537 -3.006598,-5.873707 -1.679863,-5.483985 -1.438592,-12.858076 0.637061,-19.470825 1.736093,-5.530946 6.383033,-11.36472 10.905932,-13.691317 2.188633,-1.125842 2.825967,-1.292101 4.86369,-1.26878 4.151976,0.04752 5.679638,1.086691 5.6912,3.871356 0.0065,1.555592 -0.510691,2.099027 -1.997501,2.099027 -0.830376,0 -1.312018,-0.238064 -1.709761,-0.845095 -0.886963,-1.353677 -1.862275,-1.385766 -4.401426,-0.144801 -2.859296,1.397426 -5.37664,3.906012 -7.324788,7.299306 -1.729404,3.01229 -2.653906,5.783816 -3.457109,10.36396 -0.661385,3.771426 -0.525968,5.596376 0.725511,9.777555 1.228519,4.104449 2.092463,5.288764 4.581969,6.281068 3.140009,1.251588 4.678379,1.33971 7.425963,0.425368 3.351929,-1.115452 6.345086,-2.991329 8.757666,-5.488628 l 2.068356,-2.140987 -0.05647,-4.677172 c -0.0817,-6.767462 0.67837,-10.127607 3.913084,-17.298987 0.941599,-2.087531 4.039148,-5.563981 6.416347,-7.201223 3.825912,-2.635004 10.254668,-3.085713 12.750953,-0.893947 0.654759,0.574886 1.955718,1.448133 2.89102,1.940544 1.954533,1.029009 4.171566,3.041028 4.917758,4.462997 1.720712,3.279044 2.886596,14.211762 1.934117,18.13652 -0.660932,2.723409 -1.823503,5.452467 -3.091225,7.25642 -0.647986,0.922084 -1.178155,1.820577 -1.178155,1.996657 0,0.627893 -6.102236,6.016374 -7.710667,6.80878 -1.405777,0.692565 -2.187983,0.806944 -5.5185,0.806944 -5.870241,0 -8.543512,-0.93169 -12.087407,-4.212714 l -2.088322,-1.933416 -1.202415,1.245105 c -0.661323,0.684805 -2.313662,1.916771 -3.671855,2.737699 -4.927169,2.978108 -10.419355,4.024792 -14.2875,2.72287 z m 35.879066,-4.900255 c 4.785005,-1.92976 9.505767,-8.173609 11.078432,-14.652739 0.693462,-2.856947 -0.142727,-9.476891 -1.683441,-13.327525 -0.609216,-1.522572 -2.684706,-3.182335 -4.913016,-3.92892 -0.72064,-0.241445 -1.484495,-0.756494 -1.697453,-1.14455 -0.560244,-1.020874 -0.944496,-1.223508 -2.327476,-1.227352 -3.092524,-0.0086 -6.528242,1.908823 -8.947451,4.993447 -2.768918,3.53052 -5.516438,11.944479 -5.516438,16.893444 0,2.419059 0.881186,7.078768 1.602388,8.473419 1.047427,2.025504 6.283155,4.367194 10.039278,4.49009 0.485069,0.01587 1.5494,-0.240318 2.365177,-0.569314 z m -71.416293,4.440057 c -0.750256,-0.798613 -0.755576,-0.914061 -0.622278,-13.505201 0.07395,-6.984836 0.273113,-15.916428 0.442592,-19.847983 0.33494,-7.769886 0.416033,-8.064251 2.689132,-9.761363 0.89739,-0.669999 1.56367,-0.735327 8.714605,-0.854469 5.77905,-0.09628 7.875833,-0.01871 8.26694,0.30589 0.637151,0.528788 0.692836,2.596708 0.08304,3.083782 -0.242535,0.193726 -3.521852,0.465839 -7.287371,0.604703 -3.76552,0.138861 -7.057859,0.333624 -7.316309,0.4328 -0.80992,0.310793 -1.111443,2.535454 -1.286187,9.489588 l -0.169262,6.735979 8.112697,0.220584 c 5.299514,0.144092 8.282657,0.361635 8.602829,0.627353 0.642385,0.533133 0.630172,2.587207 -0.01857,3.125626 -0.382389,0.317355 -2.550501,0.359746 -8.731249,0.170709 l -8.222539,-0.251481 v 7.98635 7.986345 l 1.234722,0.03485 c 0.679097,0.01916 5.567136,0.0051 10.862309,-0.03122 7.102059,-0.04874 9.762622,0.04601 10.142362,0.361162 0.629733,0.522631 0.679482,2.593702 0.0738,3.072421 -0.257305,0.203369 -5.516814,0.446529 -12.62775,0.583814 L 13.118132,74.739627 12.361406,73.93413 Z m 424.121962,0.469829 c -1.32575,-0.593069 -2.28262,-2.005288 -2.64171,-3.898879 -0.49138,-2.591041 -0.42048,-8.813535 0.19116,-16.778629 0.28311,-3.686529 0.68493,-10.512779 0.89292,-15.169446 0.20799,-4.656666 0.50035,-8.702037 0.64971,-8.989713 0.1652,-0.318249 1.29394,-0.694389 2.88277,-0.960644 3.46257,-0.580263 28.56013,-1.203418 29.15777,-0.723966 0.63664,0.510744 0.54353,2.565275 -0.14206,3.134601 -0.45476,0.377642 -3.15193,0.535895 -12.25902,0.719277 -10.20254,0.205436 -14.70168,0.538631 -15.71297,1.163664 -0.15303,0.09458 -0.38528,3.152299 -0.51609,6.794931 -0.13076,3.642628 -0.332,7.318918 -0.44715,8.169529 l -0.20936,1.546567 5.70177,-0.258392 c 4.29228,-0.194514 5.83007,-0.151916 6.22078,0.172325 0.66418,0.551225 0.67318,2.599412 0.0137,3.146645 -0.32004,0.265604 -2.6381,0.494887 -6.32489,0.625602 l -5.81969,0.206335 -0.25644,2.680788 c -0.3525,3.685172 -0.38198,11.575541 -0.0491,13.140001 0.35676,1.676774 0.85497,1.784575 6.29359,1.361732 6.44356,-0.500978 18.41251,-0.458216 18.9384,0.06766 0.55592,0.5559 0.54414,2.568683 -0.0177,3.017864 -0.24786,0.198178 -4.14888,0.447442 -8.90765,0.56918 -4.65666,0.119123 -10.37166,0.298037 -12.69999,0.397592 -2.32834,0.09955 -4.55084,0.03897 -4.9389,-0.134628 z m -56.97363,-3.098496 c -3.15809,-1.077611 -6.13542,-3.404836 -7.56997,-5.917054 -1.60049,-2.802777 -2.02374,-9.20182 -0.91141,-13.778624 1.77154,-7.289004 4.40013,-13.165826 7.34383,-16.418698 3.33581,-3.686201 7.40161,-4.709617 12.06209,-3.036183 4.41055,1.58369 7.36166,4.642961 9.11825,9.452332 0.9039,2.474785 0.9475,2.902788 0.9475,9.296992 v 6.702777 l -1.01827,1.94028 c -2.43285,4.635722 -6.01327,8.436887 -10.35508,10.993511 -1.56125,0.919313 -1.94011,0.987364 -5.38361,0.967065 -2.03729,-0.01199 -3.94229,-0.103089 -4.23333,-0.202398 z m 8.50961,-5.360331 c 1.4316,-0.943822 3.00416,-2.174134 3.49459,-2.73403 1.78059,-2.032857 3.09673,-3.90399 4.07442,-5.792666 0.88167,-1.703154 1.0147,-2.388822 1.14025,-5.877218 0.12621,-3.505615 0.0391,-4.278178 -0.77534,-6.879167 -1.4692,-4.692163 -3.3574,-6.994448 -6.87297,-8.380148 -2.32108,-0.914884 -3.18757,-0.90846 -5.20224,0.03857 -3.28292,1.543143 -6.80471,8.365948 -8.96289,17.363882 -0.58185,2.425882 -0.61582,3.140704 -0.26659,5.610055 0.51022,3.608007 1.76011,5.583079 4.42084,6.985768 2.23149,1.176411 2.6225,1.287515 4.71659,1.340077 1.39385,0.03499 2.00811,-0.208087 4.23334,-1.675119 z M 137.85545,61.838499 c -0.28082,-0.338359 -0.37927,-1.170217 -0.27138,-2.293056 0.14564,-1.515597 0.0818,-1.762064 -0.45642,-1.762064 -0.42049,0 -0.70616,0.376076 -0.8709,1.146527 -0.34178,1.598432 -0.78202,2.028473 -2.0766,2.028473 -1.42961,0 -1.96764,-0.549839 -1.96764,-2.010834 v -1.164166 l -2.38125,-0.06138 c -1.30968,-0.03376 -6.54628,-0.01251 -11.63687,0.04717 -7.04261,0.0826 -9.3833,0.0024 -9.78959,-0.33459 -0.65875,-0.546714 -0.70178,-2.600518 -0.0655,-3.128547 0.31431,-0.260852 4.50725,-0.432154 12.74536,-0.52071 l 12.27696,-0.131967 0.42585,-1.238726 c 0.23422,-0.681294 0.78024,-1.736415 1.21339,-2.344706 0.64171,-0.901202 1.03129,-1.105982 2.10406,-1.105982 0.72409,0 1.50703,0.1905 1.73987,0.423334 0.51129,0.511286 0.56357,2.623354 0.0725,2.926884 -0.19298,0.119269 -0.51607,0.52551 -0.71797,0.902761 -0.28228,0.52746 -0.25305,0.685908 0.12653,0.685908 0.27569,0 1.22674,-1.518592 2.15411,-3.439583 1.98988,-4.121885 2.75465,-5.027083 4.2472,-5.027083 2.37292,0 2.53354,1.55367 0.54751,5.295995 -1.60946,3.032755 -1.64362,3.170671 -0.78539,3.170671 0.94081,0 1.48167,0.708269 1.48167,1.94028 0,1.466278 -0.56262,1.940277 -2.30302,1.940277 h -1.45636 l -0.4214,1.825622 c -0.23178,1.004089 -0.59598,2.035964 -0.80934,2.293054 -0.52627,0.634108 -2.58095,0.592325 -3.12528,-0.06356 z"
           id="path960-6" />
      </g>
      <text
         xml:space="preserve"
         transform="matrix(0.26458333,0,0,0.26458333,27.471533,-48.043435)"
         id="text2189"
         style="font-style:normal;font-weight:normal;font-size:130.394px;line-height:1.25;font-family:sans-serif;white-space:pre;shape-inside:url(#rect2191);fill:#000000;fill-opacity:1;stroke:none"><tspan
           x="-14.189453"
           y="580.34492"
           id="tspan11749"><tspan
             style="font-family:Axelle;-inkscape-font-specification:Axelle;fill:#7ab892"
             id="tspan11747">l'éco-ingénierie au service de la transition</tspan></tspan></text>
    </g>
  </g>
</svg>
