<?xml version="1.0" encoding="UTF-8" standalone="no"?>
<!-- Created with Inkscape (http://www.inkscape.org/) -->

<svg
   width="1903"
   height="445"
   viewBox="0 0 503.50224 117.74006"
   version="1.1"
   id="svg5"
   inkscape:version="1.1.1 (1:1.1+202109281943+c3084ef5ed)"
   sodipodi:docname="logoNomCompletSansFond.svg"
   inkscape:export-filename="/home/aro/Documents/Ecomorphose/logo/Kit logo/PNG/logoNomCompletSansFond.png"
   inkscape:export-xdpi="96"
   inkscape:export-ydpi="96"
   xmlns:inkscape="http://www.inkscape.org/namespaces/inkscape"
   xmlns:sodipodi="http://sodipodi.sourceforge.net/DTD/sodipodi-0.dtd"
   xmlns="http://www.w3.org/2000/svg"
   xmlns:svg="http://www.w3.org/2000/svg">
  <sodipodi:namedview
     id="namedview7"
     pagecolor="#ffffff"
     bordercolor="#eeeeee"
     borderopacity="1"
     inkscape:pageshadow="0"
     inkscape:pageopacity="0.18823529"
     inkscape:pagecheckerboard="false"
     inkscape:document-units="mm"
     showgrid="false"
     inkscape:zoom="0.32103575"
     inkscape:cx="1208.5881"
     inkscape:cy="331.73875"
     inkscape:window-width="1854"
     inkscape:window-height="1098"
     inkscape:window-x="66"
     inkscape:window-y="29"
     inkscape:window-maximized="1"
     inkscape:current-layer="layer1"
     units="px"
     height="1122.5196px"
     showguides="true"
     inkscape:guide-bbox="true">
    <sodipodi:guide
       position="-13.18649,-94.892883"
       orientation="1,0"
       id="guide9694" />
  </sodipodi:namedview>
  <defs
     id="defs2">
    <rect
       x="-14.189957"
       y="459.73044"
       width="1817.7028"
       height="323.90045"
       id="rect2191" />
  </defs>
  <g
     inkscape:label="Calque 1"
     inkscape:groupmode="layer"
     id="layer1">
    <rect
       style="opacity:0;fill:#ffffff;stroke:none;stroke-width:1.59794"
       id="rect1313"
       width="515.9375"
       height="145.52083"
       x="23.347525"
       y="-158.48119"
       rx="3.3306809e-15"
       ry="10.999999"
       inkscape:export-filename="/home/aro/Documents/Ecomorphose/logo/Kit logo/PNG/logoNomCompletAvecFond.png"
       inkscape:export-xdpi="96"
       inkscape:export-ydpi="96" />
    <g
       id="g9701">
      <g
         id="g1139"
         transform="translate(12.764141,0.26886303)">
        <rect
           style="opacity:0;fill:#ffffff;fill-opacity:1;stroke:none;stroke-width:1.55975"
           id="rect4526"
           width="482.33542"
           height="99.48333"
           x="3.8502676e-06"
           y="3.4387938e-07"
           rx="3.3306809e-15"
           ry="10.999999" />
        <path
           style="fill:#7ab892;fill-opacity:1;stroke-width:0.352777"
           d="m 228.90007,80.725571 c -6.428,-1.437476 -10.67956,-3.497177 -14.23972,-6.898536 -2.83737,-2.710805 -4.81105,-5.815055 -6.28189,-9.880315 -1.82538,-5.045146 -1.05127,-15.435495 1.59806,-21.449805 1.87949,-4.266678 7.80436,-10.602441 11.63237,-12.439099 3.55574,-1.70601 4.74322,-1.918039 10.74214,-1.918039 5.51177,0 5.71159,0.02667 9.36834,1.250289 5.28958,1.770007 7.85823,3.879011 11.58198,9.509432 1.91082,2.889234 2.35878,5.001604 2.31918,10.936112 -0.043,6.437895 -0.53729,8.61473 -2.86893,12.633812 -3.32915,5.738532 -7.36227,8.017809 -14.15016,7.996809 -5.51661,-0.01707 -8.08749,-0.917739 -11.54144,-4.043384 -2.55045,-2.308031 -2.92314,-3.372016 -2.92047,-8.337888 0.003,-4.739413 0.34724,-5.862315 2.53405,-8.255011 2.4539,-2.684968 3.85066,-3.346217 7.06313,-3.343759 3.57634,0.0028 5.12201,0.515258 6.89205,2.28528 1.45328,1.453285 1.50048,1.57157 1.50048,3.761447 0,3.527446 -1.43378,4.887415 -5.15266,4.887415 -2.73629,0 -4.37234,-1.168347 -4.37234,-3.122396 0,-0.727432 0.1905,-1.513104 0.42333,-1.745938 0.66567,-0.665662 2.5654,-0.508328 3.27054,0.27087 0.51051,0.564087 0.76467,0.621189 1.35612,0.304657 0.70901,-0.379444 0.69911,-0.415255 -0.38158,-1.380847 -1.65013,-1.474406 -3.38921,-1.682824 -5.34953,-0.641114 -2.33185,1.239136 -3.5837,3.225403 -3.81005,6.045239 -0.32533,4.053023 0.95628,6.10652 5.03192,8.062426 3.2139,1.542362 5.75646,1.68982 9.2242,0.534956 2.08915,-0.695757 3.12721,-1.270982 4.06043,-2.250035 1.2452,-1.306357 3.42251,-4.550051 3.96131,-5.901428 1.22288,-3.067143 1.65685,-9.545445 0.85799,-12.808366 -0.80629,-3.293202 -5.27706,-8.869849 -8.21994,-10.25317 -3.82828,-1.799497 -6.92465,-2.514854 -10.88536,-2.514854 -3.4535,0 -4.09823,0.106778 -6.53409,1.082141 -2.95971,1.185127 -3.98196,1.87113 -6.61501,4.439187 -4.74787,4.630687 -7.07253,9.969396 -7.45359,17.117647 -0.22075,4.141038 0.0888,5.966862 1.54492,9.111025 0.49418,1.067154 1.15305,2.489348 1.46415,3.160432 0.949,2.04724 4.57851,5.431335 7.11811,6.636853 7.94112,3.769537 13.678,4.636344 22.65386,3.422854 4.0458,-0.546971 7.29141,-1.489657 9.36062,-2.71879 1.07701,-0.639749 1.11439,-0.726726 0.61737,-1.436328 -0.6868,-0.980564 -0.67534,-2.701964 0.0246,-3.701359 0.30454,-0.434806 1.29672,-1.189006 2.20485,-1.676006 2.49619,-1.338625 7.79272,-4.607647 8.4947,-5.242951 0.78738,-0.712565 2.63443,-0.726443 3.21726,-0.02416 0.59677,0.719045 0.25696,5.394198 -0.56351,7.753083 -1.93344,5.558684 -2.40864,6.589813 -3.72741,8.088037 -1.18224,1.343078 -1.62875,1.61335 -2.6655,1.61335 -0.98115,0 -1.4942,-0.271677 -2.41834,-1.280615 l -1.173,-1.280615 -1.52041,0.869828 c -2.52875,1.446681 -5.54587,2.350797 -9.73463,2.917098 -5.47108,0.739661 -13.89292,0.669816 -17.53856,-0.145455 z"
           id="path1245-5" />
        <path
           style="fill:#000000;stroke-width:0.352777"
           d="m 147.42562,77.06237 c -0.92919,-1.119603 -0.84736,-3.595431 0.28295,-8.560173 1.31947,-5.79561 1.96209,-8.440258 2.69027,-11.071595 0.29531,-1.067155 0.76025,-3.05153 1.03319,-4.409723 1.55376,-7.731742 5.52441,-16.447847 9.27455,-20.35887 l 1.25502,-1.308867 -1.44176,-1.564129 c -1.63501,-1.773775 -1.97952,-3.118808 -2.00812,-7.840041 -0.0156,-2.58032 0.0746,-2.970125 0.95463,-4.123894 0.58605,-0.76836 1.88291,-1.722707 3.26672,-2.403956 2.1653,-1.065969 2.45573,-1.118717 5.14483,-0.934403 2.67968,0.183671 2.94825,0.278329 4.49438,1.584119 2.09777,1.771666 2.66193,3.324487 2.37726,6.54327 -0.26402,2.985325 -1.42671,5.380924 -3.41196,7.029979 l -1.47505,1.225264 0.84235,1.13792 c 0.76398,1.032045 0.85378,1.553787 0.96508,5.607706 l 0.12271,4.469792 0.76145,-1.94028 c 1.56912,-3.998372 2.95052,-6.181635 4.95576,-7.83246 1.7614,-1.450078 1.9035,-1.665229 1.38384,-2.095251 -1.26967,-1.050661 -1.86265,-3.174807 -1.87068,-6.701169 -0.007,-3.25443 0.0412,-3.473029 1.13878,-5.115279 1.47728,-2.210467 2.96021,-2.949033 5.92263,-2.949736 5.12809,-0.0013 8.45307,3.451987 8.45307,8.779076 0,2.019969 -0.15423,2.614318 -1.04137,4.013194 -0.57275,0.903134 -1.68259,2.106568 -2.46632,2.674295 -1.19193,0.863428 -1.3421,1.101008 -0.91825,1.452766 0.83146,0.690047 1.55188,3.476225 1.96465,7.598177 0.6093,6.084321 0.60999,6.085321 1.82468,2.645833 0.58245,-1.649237 1.33801,-3.633612 1.67901,-4.409723 0.34101,-0.77611 0.71986,-1.826186 0.84188,-2.3335 0.35357,-1.470023 2.42917,-4.301628 3.58377,-4.889111 0.58208,-0.296175 1.12613,-0.579843 1.209,-0.630373 0.0829,-0.05053 -0.26422,-0.526782 -0.7713,-1.058333 -1.35334,-1.418635 -1.67242,-2.589996 -1.67242,-6.139582 0,-3.68907 0.48767,-5.033582 2.55264,-7.037562 2.63689,-2.559013 7.77992,-2.808811 11.31192,-0.549421 2.76273,1.767301 3.22417,2.782033 3.23574,7.115659 0.007,2.772183 -0.12964,3.782807 -0.63984,4.718466 -0.94804,1.738648 -3.68774,4.277368 -4.61599,4.277368 -1.12525,0 -1.29923,0.311769 -0.76322,1.367641 0.34753,0.684589 0.47117,2.905895 0.47508,8.535744 0.009,13.354775 0.99833,26.431439 2.20595,29.166754 l 0.66193,1.499306 h 2.41873 c 2.72522,0 3.26539,0.325493 3.26539,1.967638 0,1.669616 -0.65518,1.987841 -4.20334,2.041575 -3.04752,0.04615 -3.18846,0.01278 -4.26812,-1.010602 -1.37545,-1.303759 -1.98248,-2.434577 -2.46665,-4.59503 -0.52622,-2.3481 -1.37673,-16.745053 -1.57371,-26.638704 -0.0913,-4.586047 -0.26788,-8.60375 -0.39239,-8.928227 -0.44698,-1.164791 -2.76074,-1.149035 -4.10211,0.02794 -0.33118,0.290594 -1.02863,1.660877 -1.54988,3.045079 -0.52125,1.384196 -1.06189,2.675474 -1.20141,2.869501 -0.13953,0.194027 -0.53969,1.305277 -0.88925,2.469444 -0.34957,1.164166 -0.74659,2.275416 -0.88227,2.469446 -0.36926,0.528023 -1.33281,4.999696 -1.59514,7.402708 -0.12676,1.161074 -0.4567,3.145449 -0.73321,4.409723 -1.09454,5.004456 -1.51268,7.800766 -1.89944,12.702445 -0.22185,2.811655 -0.56923,5.311968 -0.77197,5.55625 -0.5127,0.61777 -2.57208,0.556437 -3.11078,-0.09265 -0.33733,-0.406466 -0.3838,-1.584177 -0.19137,-4.850693 0.66661,-11.315856 -0.29689,-29.861476 -1.79589,-34.56795 -0.65464,-2.055389 -1.45855,-2.573994 -3.13328,-2.021287 -2.39968,0.791964 -4.78581,4.648676 -6.8729,11.108671 -0.62686,1.94028 -1.60538,4.877155 -2.17447,6.52639 -2.36881,6.864784 -3.31224,10.992569 -3.98829,17.449961 -0.62893,6.007444 -0.98725,6.891703 -2.79268,6.891703 -1.73775,0 -2.0875,-0.643546 -1.86727,-3.435763 0.18224,-2.310463 1.02276,-8.531003 2.13362,-15.790627 1.17596,-7.685045 1.67573,-19.767277 0.90866,-21.967684 -0.47593,-1.36525 -1.04892,-1.588051 -2.17123,-0.844254 -3.48953,2.312665 -8.2862,12.257558 -9.98183,20.695271 -0.27294,1.358194 -0.7436,3.342569 -1.04591,4.409724 -1.1603,4.095858 -3.02085,12.624395 -3.23234,14.816666 -0.12167,1.261179 -0.37766,2.491491 -0.56888,2.734027 -0.46354,0.587957 -2.54253,0.563615 -3.03983,-0.03559 z m 39.33385,-50.015645 c 0.41159,-0.384029 1.02577,-1.213408 1.36486,-1.843061 0.60329,-1.120224 0.59727,-1.182838 -0.27987,-2.913806 -1.09427,-2.159433 -3.16929,-3.347857 -4.65973,-2.668767 -1.16461,0.53063 -2.28592,2.425655 -2.28756,3.865981 -0.004,3.752347 3.42443,5.8343 5.8623,3.559653 z m 20.94749,0.06919 c 1.99344,-1.417476 2.82018,-4.576887 1.73048,-6.613014 -0.26563,-0.49635 -1.25744,-1.257567 -2.20726,-1.694095 -2.27018,-1.043353 -4.06109,-0.662454 -5.45057,1.159253 -0.77875,1.020982 -0.95182,1.616567 -0.95182,3.275407 0,1.672735 0.15433,2.194679 0.88195,2.982857 1.78689,1.935604 4.05338,2.271802 5.99722,0.889592 z m -39.62935,-0.57381 c 1.45207,-1.107543 2.58768,-3.246101 2.58768,-4.87304 0,-0.919117 -0.25885,-1.435227 -1.05643,-2.106342 -1.56351,-1.315607 -2.24348,-1.408097 -4.1914,-0.570125 -2.63757,1.134653 -2.97655,1.657488 -2.80646,4.328687 0.19619,3.081075 0.91036,4.1232 2.82565,4.1232 1.02035,0 1.81294,-0.270819 2.64096,-0.90238 z m 125.69513,48.080136 c -1.2678,-1.209222 -3.72843,-3.363553 -5.46806,-4.787402 -1.73966,-1.423848 -4.51236,-3.828699 -6.16162,-5.344115 -1.64922,-1.515417 -4.98297,-4.532231 -7.40833,-6.704034 l -4.40971,-3.948726 -0.28384,5.765067 c -0.26665,5.415735 -0.20257,6.60958 0.70271,13.09184 0.23333,1.67088 -0.31938,2.374614 -1.86505,2.374614 -2.73992,0 -3.15624,-3.071826 -2.682,-19.789029 0.33197,-11.701534 0.37774,-12.238132 1.27508,-14.943889 2.34098,-7.058816 5.25896,-9.348853 12.29235,-9.647033 7.53227,-0.319328 12.40867,1.650145 14.35899,5.799304 1.10689,2.35476 1.02365,7.140736 -0.1657,9.527423 -0.81955,1.644661 -2.51746,3.356007 -4.2371,4.270645 -0.98268,0.522687 -7.2536,2.190819 -10.08308,2.682216 -1.28111,0.222491 -2.37736,0.56328 -2.4361,0.757309 -0.1111,0.366834 5.6006,5.6509 11.99735,11.099149 9.75828,8.311335 9.87777,8.430535 9.87777,9.853247 0,1.5913 -0.50586,2.156535 -1.92263,2.148274 -0.83343,-0.0049 -1.59559,-0.501877 -3.38103,-2.20486 z M 275.53398,49.355659 c 3.74219,-0.437632 11.06557,-2.328532 12.57612,-3.247165 2.19195,-1.332997 3.28309,-4.295651 2.4792,-6.73145 -0.9516,-2.883397 -4.7005,-4.700651 -9.68094,-4.692772 -5.07979,0.008 -7.71348,2.087719 -9.44203,7.455816 -0.49003,1.521793 -1.00475,3.98781 -1.14382,5.480029 l -0.25286,2.713127 1.18602,-0.307978 c 0.6523,-0.169386 2.57754,-0.470712 4.27831,-0.669607 z m 28.47745,26.331193 c -0.38449,-0.630592 -0.70115,-1.30528 -0.70371,-1.499307 -0.003,-0.194027 -0.23461,-3.924652 -0.51565,-8.290277 -0.28107,-4.365625 -0.61682,-12.541249 -0.74618,-18.168056 -0.27117,-11.796313 -0.0539,-13.914445 1.57943,-15.399321 1.72435,-1.567603 7.34396,-2.88939 12.38441,-2.912933 3.03945,-0.01421 3.57074,0.08749 5.70788,1.092486 4.08408,1.920531 7.14002,4.601345 8.31504,7.294298 0.2468,0.565626 0.44103,2.42969 0.44111,4.233333 1.3e-4,2.937097 -0.1007,3.419303 -1.1376,5.441283 -0.77216,1.505696 -2.10416,3.160115 -4.14528,5.148673 -3.64938,3.555399 -5.75892,4.456655 -10.39617,4.44151 -2.94108,-0.0096 -7.09493,-0.892612 -8.0921,-1.720176 -0.69754,-0.578905 -0.69471,-1.491226 -0.0269,8.662281 0.29905,4.547085 0.69593,8.667705 0.88193,9.156933 0.464,1.220433 0.42429,2.733035 -0.0851,3.242466 -0.23284,0.232834 -0.94954,0.423334 -1.59269,0.423334 -0.9407,0 -1.30606,-0.2242 -1.86841,-1.146527 z M 318.1156,52.270968 c 2.10053,-0.778584 2.82371,-1.280631 4.53514,-3.148351 2.33106,-2.543951 3.94232,-5.464239 3.94232,-7.145161 0,-2.691862 -2.18056,-5.151313 -6.4856,-7.315075 -2.9823,-1.498949 -4.90799,-1.572914 -9.71521,-0.373155 -3.55869,0.888156 -4.21833,1.37482 -4.32191,3.188663 -0.34377,6.019535 -0.009,15.225196 0.53451,14.682049 0.53364,-0.533657 2.17562,-0.424902 4.81878,0.319172 3.12941,0.880962 3.81092,0.859764 6.69197,-0.208142 z m 93.67329,24.230221 c -3.45424,-0.848506 -7.53377,-4.058518 -9.48057,-7.459917 -1.05159,-1.837295 -1.2681,-4.537876 -0.42024,-5.241546 0.67276,-0.558345 2.71047,-0.333137 3.01887,0.333653 2.32386,5.024075 2.82459,5.617943 6.16024,7.306323 2.96574,1.501156 5.13755,1.650174 7.02736,0.482192 1.34268,-0.829823 2.69018,-3.200908 2.69018,-4.733702 0,-1.755934 -5.91336,-12.388443 -8.7248,-15.687598 -0.87788,-1.030182 -2.24009,-3.173307 -3.02715,-4.7625 -1.34397,-2.713691 -1.43224,-3.082555 -1.4514,-6.064438 -0.0296,-4.608854 0.53695,-6.203347 3.12399,-8.792496 1.28609,-1.287147 2.70568,-2.337776 3.55299,-2.629572 2.17805,-0.75008 5.51264,-0.889251 6.91245,-0.288499 3.31168,1.421247 6.08118,5.50413 6.5174,9.608037 0.26437,2.487425 -0.15946,3.100514 -2.01874,2.920352 -1.26572,-0.122651 -1.71443,-0.751391 -2.39845,-3.360873 -0.49604,-1.892292 -2.34453,-4.342736 -3.84636,-5.098838 -1.1022,-0.554916 -1.25436,-0.549034 -2.8395,0.109725 -3.14532,1.307137 -4.94994,3.875643 -4.96488,7.066579 -0.0103,2.198561 1.65859,5.796113 4.0618,8.755864 2.22044,2.734559 7.75353,12.117983 8.67976,14.71966 0.80436,2.259341 0.83251,4.30721 0.0938,6.823948 -0.74954,2.553838 -3.49128,5.313627 -5.87526,5.913914 -1.78855,0.45036 -5.12328,0.489511 -6.79151,0.07973 z M 357.63575,74.89098 c -0.34912,-0.420667 -0.35758,-1.651016 -0.0407,-5.909027 0.22014,-2.957759 0.39913,-6.982447 0.39773,-8.943755 l -0.003,-3.566012 -3.96875,-0.226865 c -2.18282,-0.124774 -6.53524,-0.329057 -9.67208,-0.453961 l -5.70334,-0.227102 -0.20293,1.550532 c -0.32605,2.499249 -0.91297,11.703989 -0.91297,14.334278 0,2.727598 -0.3252,3.267644 -1.96766,3.267644 -1.94151,0 -2.04644,-0.417999 -1.79654,-7.157244 0.12382,-3.339557 0.32893,-7.436768 0.45577,-9.104913 l 0.23061,-3.032985 -1.1615,-0.232304 c -1.60543,-0.321085 -2.11068,-0.833615 -2.11068,-2.141027 0,-1.499989 0.55507,-1.967637 2.33553,-1.967637 h 1.48886 l 0.21828,-2.38125 c 0.12007,-1.309687 0.38052,-3.96875 0.5788,-5.909029 0.19828,-1.940277 0.50747,-5.035902 0.6871,-6.879167 0.56436,-5.790819 0.79587,-6.35 2.62893,-6.35 2.18445,0 2.20085,0.114573 1.23796,8.643056 -0.32391,2.868705 -0.85217,8.216667 -1.18841,12.030845 l -0.12761,1.447514 6.9182,0.23068 c 3.805,0.126878 8.04521,0.328554 9.42263,0.44817 l 2.50447,0.217485 0.25254,-5.194785 c 0.13891,-2.857129 0.14073,-7.397895 0.004,-10.090586 -0.27845,-5.484733 -0.13335,-5.968489 1.79001,-5.968489 2.08849,0 2.11667,0.148661 2.11667,11.166877 0,8.796917 0.0658,9.999818 0.54681,9.999802 0.85649,-2.1e-5 1.39348,0.747692 1.39348,1.940264 0,1.232011 -0.54086,1.94028 -1.48166,1.94028 -0.58153,0 -0.63551,0.423497 -0.64077,5.027083 -0.007,6.259652 -0.5348,12.869862 -1.07974,13.526487 -0.54599,0.657867 -2.59347,0.635203 -3.1496,-0.03485 z M 47.898625,74.394312 c -3.285567,-1.105845 -4.361289,-1.690034 -5.690931,-3.090577 -1.598708,-1.683954 -1.908688,-2.289537 -3.006598,-5.873707 -1.679863,-5.483985 -1.438592,-12.858076 0.637061,-19.470825 1.736093,-5.530946 6.383033,-11.36472 10.905932,-13.691317 2.188633,-1.125842 2.825967,-1.292101 4.86369,-1.26878 4.151976,0.04752 5.679638,1.086691 5.6912,3.871356 0.0065,1.555592 -0.510691,2.099027 -1.997501,2.099027 -0.830376,0 -1.312018,-0.238064 -1.709761,-0.845095 -0.886963,-1.353677 -1.862275,-1.385766 -4.401426,-0.144801 -2.859296,1.397426 -5.37664,3.906012 -7.324788,7.299306 -1.729404,3.01229 -2.653906,5.783816 -3.457109,10.36396 -0.661385,3.771426 -0.525968,5.596376 0.725511,9.777555 1.228519,4.104449 2.092463,5.288764 4.581969,6.281068 3.140009,1.251588 4.678379,1.33971 7.425963,0.425368 3.351929,-1.115452 6.345086,-2.991329 8.757666,-5.488628 l 2.068356,-2.140987 -0.05647,-4.677172 c -0.0817,-6.767462 0.67837,-10.127607 3.913084,-17.298987 0.941599,-2.087531 4.039148,-5.563981 6.416347,-7.201223 3.825912,-2.635004 10.254668,-3.085713 12.750953,-0.893947 0.654759,0.574886 1.955718,1.448133 2.89102,1.940544 1.954533,1.029009 4.171566,3.041028 4.917758,4.462997 1.720712,3.279044 2.886596,14.211762 1.934117,18.13652 -0.660932,2.723409 -1.823503,5.452467 -3.091225,7.25642 -0.647986,0.922084 -1.178155,1.820577 -1.178155,1.996657 0,0.627893 -6.102236,6.016374 -7.710667,6.80878 -1.405777,0.692565 -2.187983,0.806944 -5.5185,0.806944 -5.870241,0 -8.543512,-0.93169 -12.087407,-4.212714 l -2.088322,-1.933416 -1.202415,1.245105 c -0.661323,0.684805 -2.313662,1.916771 -3.671855,2.737699 -4.927169,2.978108 -10.419355,4.024792 -14.2875,2.72287 z m 35.879066,-4.900255 c 4.785005,-1.92976 9.505767,-8.173609 11.078432,-14.652739 0.693462,-2.856947 -0.142727,-9.476891 -1.683441,-13.327525 -0.609216,-1.522572 -2.684706,-3.182335 -4.913016,-3.92892 -0.72064,-0.241445 -1.484495,-0.756494 -1.697453,-1.14455 -0.560244,-1.020874 -0.944496,-1.223508 -2.327476,-1.227352 -3.092524,-0.0086 -6.528242,1.908823 -8.947451,4.993447 -2.768918,3.53052 -5.516438,11.944479 -5.516438,16.893444 0,2.419059 0.881186,7.078768 1.602388,8.473419 1.047427,2.025504 6.283155,4.367194 10.039278,4.49009 0.485069,0.01587 1.5494,-0.240318 2.365177,-0.569314 z m -71.416293,4.440057 c -0.750256,-0.798613 -0.755576,-0.914061 -0.622278,-13.505201 0.07395,-6.984836 0.273113,-15.916428 0.442592,-19.847983 0.33494,-7.769886 0.416033,-8.064251 2.689132,-9.761363 0.89739,-0.669999 1.56367,-0.735327 8.714605,-0.854469 5.77905,-0.09628 7.875833,-0.01871 8.26694,0.30589 0.637151,0.528788 0.692836,2.596708 0.08304,3.083782 -0.242535,0.193726 -3.521852,0.465839 -7.287371,0.604703 -3.76552,0.138861 -7.057859,0.333624 -7.316309,0.4328 -0.80992,0.310793 -1.111443,2.535454 -1.286187,9.489588 l -0.169262,6.735979 8.112697,0.220584 c 5.299514,0.144092 8.282657,0.361635 8.602829,0.627353 0.642385,0.533133 0.630172,2.587207 -0.01857,3.125626 -0.382389,0.317355 -2.550501,0.359746 -8.731249,0.170709 l -8.222539,-0.251481 v 7.98635 7.986345 l 1.234722,0.03485 c 0.679097,0.01916 5.567136,0.0051 10.862309,-0.03122 7.102059,-0.04874 9.762622,0.04601 10.142362,0.361162 0.629733,0.522631 0.679482,2.593702 0.0738,3.072421 -0.257305,0.203369 -5.516814,0.446529 -12.62775,0.583814 L 13.118132,74.739627 12.361406,73.93413 Z m 424.121962,0.469829 c -1.32575,-0.593069 -2.28262,-2.005288 -2.64171,-3.898879 -0.49138,-2.591041 -0.42048,-8.813535 0.19116,-16.778629 0.28311,-3.686529 0.68493,-10.512779 0.89292,-15.169446 0.20799,-4.656666 0.50035,-8.702037 0.64971,-8.989713 0.1652,-0.318249 1.29394,-0.694389 2.88277,-0.960644 3.46257,-0.580263 28.56013,-1.203418 29.15777,-0.723966 0.63664,0.510744 0.54353,2.565275 -0.14206,3.134601 -0.45476,0.377642 -3.15193,0.535895 -12.25902,0.719277 -10.20254,0.205436 -14.70168,0.538631 -15.71297,1.163664 -0.15303,0.09458 -0.38528,3.152299 -0.51609,6.794931 -0.13076,3.642628 -0.332,7.318918 -0.44715,8.169529 l -0.20936,1.546567 5.70177,-0.258392 c 4.29228,-0.194514 5.83007,-0.151916 6.22078,0.172325 0.66418,0.551225 0.67318,2.599412 0.0137,3.146645 -0.32004,0.265604 -2.6381,0.494887 -6.32489,0.625602 l -5.81969,0.206335 -0.25644,2.680788 c -0.3525,3.685172 -0.38198,11.575541 -0.0491,13.140001 0.35676,1.676774 0.85497,1.784575 6.29359,1.361732 6.44356,-0.500978 18.41251,-0.458216 18.9384,0.06766 0.55592,0.5559 0.54414,2.568683 -0.0177,3.017864 -0.24786,0.198178 -4.14888,0.447442 -8.90765,0.56918 -4.65666,0.119123 -10.37166,0.298037 -12.69999,0.397592 -2.32834,0.09955 -4.55084,0.03897 -4.9389,-0.134628 z m -56.97363,-3.098496 c -3.15809,-1.077611 -6.13542,-3.404836 -7.56997,-5.917054 -1.60049,-2.802777 -2.02374,-9.20182 -0.91141,-13.778624 1.77154,-7.289004 4.40013,-13.165826 7.34383,-16.418698 3.33581,-3.686201 7.40161,-4.709617 12.06209,-3.036183 4.41055,1.58369 7.36166,4.642961 9.11825,9.452332 0.9039,2.474785 0.9475,2.902788 0.9475,9.296992 v 6.702777 l -1.01827,1.94028 c -2.43285,4.635722 -6.01327,8.436887 -10.35508,10.993511 -1.56125,0.919313 -1.94011,0.987364 -5.38361,0.967065 -2.03729,-0.01199 -3.94229,-0.103089 -4.23333,-0.202398 z m 8.50961,-5.360331 c 1.4316,-0.943822 3.00416,-2.174134 3.49459,-2.73403 1.78059,-2.032857 3.09673,-3.90399 4.07442,-5.792666 0.88167,-1.703154 1.0147,-2.388822 1.14025,-5.877218 0.12621,-3.505615 0.0391,-4.278178 -0.77534,-6.879167 -1.4692,-4.692163 -3.3574,-6.994448 -6.87297,-8.380148 -2.32108,-0.914884 -3.18757,-0.90846 -5.20224,0.03857 -3.28292,1.543143 -6.80471,8.365948 -8.96289,17.363882 -0.58185,2.425882 -0.61582,3.140704 -0.26659,5.610055 0.51022,3.608007 1.76011,5.583079 4.42084,6.985768 2.23149,1.176411 2.6225,1.287515 4.71659,1.340077 1.39385,0.03499 2.00811,-0.208087 4.23334,-1.675119 z M 137.85545,61.838499 c -0.28082,-0.338359 -0.37927,-1.170217 -0.27138,-2.293056 0.14564,-1.515597 0.0818,-1.762064 -0.45642,-1.762064 -0.42049,0 -0.70616,0.376076 -0.8709,1.146527 -0.34178,1.598432 -0.78202,2.028473 -2.0766,2.028473 -1.42961,0 -1.96764,-0.549839 -1.96764,-2.010834 v -1.164166 l -2.38125,-0.06138 c -1.30968,-0.03376 -6.54628,-0.01251 -11.63687,0.04717 -7.04261,0.0826 -9.3833,0.0024 -9.78959,-0.33459 -0.65875,-0.546714 -0.70178,-2.600518 -0.0655,-3.128547 0.31431,-0.260852 4.50725,-0.432154 12.74536,-0.52071 l 12.27696,-0.131967 0.42585,-1.238726 c 0.23422,-0.681294 0.78024,-1.736415 1.21339,-2.344706 0.64171,-0.901202 1.03129,-1.105982 2.10406,-1.105982 0.72409,0 1.50703,0.1905 1.73987,0.423334 0.51129,0.511286 0.56357,2.623354 0.0725,2.926884 -0.19298,0.119269 -0.51607,0.52551 -0.71797,0.902761 -0.28228,0.52746 -0.25305,0.685908 0.12653,0.685908 0.27569,0 1.22674,-1.518592 2.15411,-3.439583 1.98988,-4.121885 2.75465,-5.027083 4.2472,-5.027083 2.37292,0 2.53354,1.55367 0.54751,5.295995 -1.60946,3.032755 -1.64362,3.170671 -0.78539,3.170671 0.94081,0 1.48167,0.708269 1.48167,1.94028 0,1.466278 -0.56262,1.940277 -2.30302,1.940277 h -1.45636 l -0.4214,1.825622 c -0.23178,1.004089 -0.59598,2.035964 -0.80934,2.293054 -0.52627,0.634108 -2.58095,0.592325 -3.12528,-0.06356 z"
           id="path960-6" />
      </g>
      <path
         style="fill:#7ab892;fill-opacity:1;stroke-width:0.264584"
         d="m 312.40601,102.73832 c -0.14552,-0.0441 -1.01577,-0.29381 -1.93388,-0.55491 -1.0069,-0.28636 -1.77462,-0.67154 -1.93474,-0.9707 -0.14598,-0.27278 -0.36815,-2.780019 -0.49367,-5.571649 l -0.22825,-5.07568 -0.71438,-0.56962 c -0.78216,-0.62368 -0.94573,-1.67184 -0.36928,-2.36641 0.66807,-0.80498 6.12971,0.023 8.64672,1.31086 1.5406,0.78827 3.07971,2.33999 3.62918,3.65891 0.59512,1.42861 0.54104,5.05172 -0.0964,6.45538 -0.9043,1.991299 -4.80367,4.199429 -6.50531,3.683819 z m 2.88717,-3.159499 c 1.95401,-1.14829 2.93617,-3.29348 2.43044,-5.30847 -0.4717,-1.87936 -3.13257,-3.59012 -6.2213,-3.99985 l -1.34528,-0.17846 v 4.8848 c 0,2.68664 0.0794,4.96418 0.1764,5.061189 0.097,0.097 1.00928,0.17639 2.02727,0.17639 1.47765,0 2.069,-0.12817 2.93247,-0.635599 z m -54.72058,1.986289 c -0.24957,-0.27576 -1.28611,-2.984449 -2.30341,-6.019289 -1.85066,-5.52089 -2.09872,-7.00824 -1.21909,-7.30964 0.84655,-0.29006 2.30673,1.75502 2.30673,3.23073 0,0.64988 1.80923,6.42811 2.10576,6.72526 0.41045,0.41133 1.11196,-1.09696 2.23558,-4.80666 1.11724,-3.68862 1.99744,-5.56464 3.0635,-6.52941 0.57239,-0.51801 0.58569,-0.51822 0.95347,-0.0153 0.58447,0.79932 0.44227,1.86899 -0.43124,3.24404 -0.44233,0.69628 -1.22847,2.63519 -1.74699,4.30868 -1.19498,3.85672 -2.26315,6.123979 -3.29377,6.991189 -0.96873,0.81513 -1.08475,0.82766 -1.67054,0.18037 z m -60.08049,-1.54913 c -0.94762,-3.359559 -1.07569,-3.633759 -1.74266,-3.730839 -0.9621,-0.14003 -4.4766,0.5237 -4.87324,0.92034 -0.19149,0.19149 -0.50135,0.94588 -0.68859,1.67643 -0.23286,0.90856 -0.50652,1.380969 -0.8661,1.495099 -0.69715,0.22127 -1.2649,-0.560519 -1.06183,-1.462149 0.29698,-1.31865 1.45293,-4.93592 2.20581,-6.90256 0.41782,-1.09141 1.08895,-2.87735 1.4914,-3.96876 0.40244,-1.09141 0.8383,-2.10345 0.96858,-2.24897 0.37919,-0.42356 1.9718,1.66763 2.15831,2.83398 0.0896,0.56041 0.67994,2.1761 1.31183,3.59041 0.6319,1.41432 1.42002,3.40492 1.75139,4.42357 0.33136,1.01865 0.77242,2.1882 0.98011,2.59901 0.54106,1.070169 0.22917,2.295799 -0.58423,2.295799 -0.53066,0 -0.68447,-0.22269 -1.05078,-1.52136 z m -2.81259,-6.127969 c 0.30603,-0.1938 0.27534,-0.42618 -0.18292,-1.38502 -0.30285,-0.63368 -0.63136,-1.48476 -0.73003,-1.89128 -0.0987,-0.40652 -0.31232,-0.69482 -0.47479,-0.64066 -0.2772,0.0924 -1.43932,3.10465 -1.47651,3.8272 -0.0199,0.38733 2.28051,0.45942 2.86425,0.0898 z m 161.81066,6.127969 c -0.98058,-3.522629 -1.03487,-3.631919 -1.85196,-3.727299 -0.67832,-0.0792 -3.16996,0.28715 -4.41128,0.64856 -0.27665,0.0805 -0.63591,0.7212 -0.91885,1.63857 -0.25551,0.82847 -0.5869,1.593789 -0.73639,1.700699 -0.49528,0.35423 -0.94116,0.21005 -1.21479,-0.392819 -0.29038,-0.63975 0.5742,-3.84891 2.12062,-7.87139 0.41957,-1.09141 1.09215,-2.87735 1.49458,-3.96876 0.40246,-1.09141 0.83831,-2.10345 0.96859,-2.24897 0.3792,-0.42356 1.97182,1.66763 2.15832,2.83398 0.0896,0.56041 0.67993,2.1761 1.31184,3.59041 0.63188,1.41432 1.42,3.40492 1.75136,4.42357 0.33139,1.01865 0.76359,2.1711 0.96047,2.561 0.52959,1.048779 0.20582,2.333809 -0.58801,2.333809 -0.53049,0 -0.68271,-0.22169 -1.0445,-1.52136 z m -2.79544,-6.127969 c 0.30604,-0.1938 0.27535,-0.42618 -0.18291,-1.38502 -0.30284,-0.63368 -0.63138,-1.48476 -0.73004,-1.89128 -0.0987,-0.40652 -0.31232,-0.69482 -0.47477,-0.64066 -0.27721,0.0924 -1.43934,3.10465 -1.47654,3.8272 -0.0198,0.38733 2.28053,0.45942 2.86426,0.0898 z m 45.99723,7.466019 c -0.0657,-0.11746 -0.45292,-1.3149 -0.8604,-2.660969 l -0.74089,-2.44741 -1.08279,0.017 c -1.40441,0.022 -4.03465,0.58007 -4.38488,0.9303 -0.15025,0.15025 -0.48077,0.92131 -0.73451,1.71348 -0.39619,1.236899 -0.55473,1.440289 -1.12279,1.440289 -0.62373,0 -0.65874,-0.0755 -0.61376,-1.322919 0.0474,-1.31397 0.61979,-3.14933 2.72319,-8.73129 0.6032,-1.60073 1.16644,-3.14855 1.25164,-3.43959 0.19161,-0.65431 0.59762,-1.19063 0.90136,-1.19063 0.41712,0 1.59722,2.15446 1.97541,3.60643 0.20479,0.78626 0.69163,2.05264 1.08184,2.81418 1.10083,2.14842 2.79398,7.0885 2.83232,8.263819 0.0292,0.89535 -0.0533,1.07086 -0.53584,1.13962 -0.31369,0.0447 -0.62415,-0.0148 -0.6899,-0.1323 z m -2.96107,-7.545769 c 0.0894,-0.0894 -0.0122,-0.44076 -0.22598,-0.78081 -0.21371,-0.34005 -0.53526,-1.09452 -0.71459,-1.67661 -0.40368,-1.31041 -0.63127,-1.57507 -0.97666,-1.1357 -0.37431,0.4762 -1.13753,2.83245 -1.13753,3.51189 0,0.52396 0.0982,0.55132 1.44611,0.40295 0.79534,-0.0875 1.51925,-0.23232 1.60865,-0.32172 z M 64.816489,100.72319 c -1.97988,-1.045079 -3.371308,-4.023969 -2.990868,-6.403109 0.352525,-2.20457 2.982494,-6.80571 3.890082,-6.80571 0.254797,0 0.54611,-0.13404 0.647361,-0.29787 0.274401,-0.44399 2.992463,-0.0893 3.80034,0.49592 0.372365,0.26974 1.004449,1.13079 1.404633,1.91343 0.609546,1.1921 0.727606,1.75715 0.727606,3.48231 0,2.57805 -0.666214,4.46961 -2.179862,6.1892 -1.747858,1.985669 -3.397703,2.429579 -5.299292,1.425829 z m 2.716636,-2.493149 c 0.181158,-0.21829 0.47264,-0.39688 0.647737,-0.39688 0.418689,0 1.299782,-0.97834 1.834866,-2.03739 0.240404,-0.47581 0.427825,-1.48781 0.427825,-2.31007 0,-1.34021 -0.05565,-1.47728 -0.661461,-1.62933 -0.363803,-0.0913 -0.661461,-0.26304 -0.661461,-0.38162 0,-0.45705 -1.393925,-1.84371 -1.853376,-1.84371 -1.108757,0 -3.209248,3.68471 -3.23945,5.68269 -0.0332,2.19611 2.413592,4.23176 3.50532,2.91631 z m 28.335965,2.105219 c -0.45272,-0.515629 -1.16815,-1.616959 -1.58983,-2.447409 -0.42168,-0.83045 -1.29205,-2.42793 -1.93416,-3.54997 l -1.16748,-2.04006 -0.29243,3.1082 c -0.16083,1.70951 -0.49569,3.61622 -0.74413,4.23714 -0.38886,0.971849 -0.54816,1.117749 -1.14489,1.048529 -0.56285,-0.0653 -0.70838,-0.23702 -0.77408,-0.913459 -0.0445,-0.45819 0.11939,-1.29163 0.36421,-1.85209 0.33261,-0.76145 0.49284,-2.22863 0.63394,-5.80454 0.10385,-2.63203 0.2744,-4.92399 0.37901,-5.09325 0.2756,-0.44593 1.09433,-0.37737 1.51563,0.12691 0.19972,0.23905 1.49423,2.70961 2.87668,5.49013 1.53971,3.09679 2.68034,5.08619 2.94405,5.13476 0.52866,0.0974 1.42293,-3.05638 1.67303,-5.90014 0.36446,-4.14403 0.46149,-4.63915 0.96159,-4.9068 0.38853,-0.20793 0.57363,-0.13194 0.903,0.37073 0.88625,1.35259 -0.64445,10.69423 -2.11692,12.919289 -0.834,1.26025 -1.42882,1.27748 -2.48722,0.072 z m 12.27775,0.79676 c -0.14552,-0.0427 -1.12743,-0.32944 -2.18201,-0.63726 -3.58614,-1.046729 -4.63403,-2.682489 -3.91809,-6.116129 0.43225,-2.0731 1.27403,-3.70655 2.75712,-5.35017 1.23111,-1.36437 2.24993,-1.77868 4.37393,-1.77868 1.93441,0 2.54095,0.37573 2.54095,1.57401 0,1.06379 -0.47244,1.35441 -1.72885,1.06349 -1.50628,-0.34878 -2.58207,-0.0702 -3.81962,0.98909 -1.17412,1.005 -1.89675,2.21802 -2.37137,3.9806 -0.40597,1.50769 -0.12061,1.9575 1.87427,2.95435 2.97496,1.4866 5.25181,0.90809 5.25181,-1.33439 0,-1.15638 -0.71421,-1.95902 -2.11724,-2.37938 -0.95409,-0.28585 -1.05778,-0.40184 -1.05778,-1.18325 0,-0.62751 0.14269,-0.91163 0.51761,-1.03062 0.75506,-0.23964 2.30038,0.11204 3.03644,0.69102 1.37157,1.07888 1.87462,4.72637 0.92594,6.71367 -0.49808,1.043359 -2.98421,2.165929 -4.08311,1.843649 z m 25.09679,-0.71961 c -0.41526,-0.473179 -1.64799,-2.487059 -2.7394,-4.475279 -1.09141,-1.98822 -2.00069,-3.59537 -2.02061,-3.57145 -0.0199,0.0239 -0.1736,1.47226 -0.3415,3.21851 -0.3539,3.68086 -0.85501,5.027109 -1.87124,5.027109 -0.54837,0 -0.67529,-0.14243 -0.74237,-0.833069 -0.0445,-0.45819 0.11773,-1.29163 0.36051,-1.85209 0.32802,-0.75724 0.48901,-2.24538 0.62666,-5.79276 0.10188,-2.62556 0.27411,-4.91752 0.38271,-5.09325 0.29095,-0.47076 1.07998,-0.38868 1.58053,0.16443 0.24088,0.26616 1.07822,1.90328 1.86077,3.63803 1.76539,3.91354 3.41702,6.83395 3.922,6.93491 0.56336,0.11263 1.25069,-2.61155 1.68826,-6.69124 0.20291,-1.89178 0.37032,-3.52471 0.37203,-3.62873 0.002,-0.10402 0.23717,-0.31439 0.52324,-0.4675 0.42639,-0.2282 0.59331,-0.1667 0.92609,0.34119 0.34733,0.53009 0.36616,1.03702 0.13044,3.51022 -0.58746,6.16352 -1.98643,10.431319 -3.41936,10.431319 -0.26606,0 -0.8235,-0.38716 -1.23876,-0.86035 z m 94.16507,0.30354 c -2.06228,-1.020819 -3.07862,-2.959909 -2.42993,-4.636089 l 0.29423,-0.76025 1.233,1.37678 c 0.67815,0.75722 1.56817,1.50137 1.97783,1.65365 0.89193,0.33155 2.47684,0.3649 2.66768,0.0561 0.22598,-0.36566 -1.95715,-2.26543 -4.14471,-3.60674 -2.62445,-1.60919 -3.10428,-2.21376 -3.10428,-3.91126 0,-1.88031 0.78709,-3.15002 2.48531,-4.00924 1.6695,-0.84469 2.46677,-0.8636 3.62086,-0.0859 1.83133,1.23413 2.76913,3.78201 1.61867,4.39772 -0.60276,0.32259 -0.92468,0.11353 -1.47292,-0.95658 -0.77364,-1.51004 -2.14709,-1.82073 -3.44781,-0.77992 -1.21539,0.97252 -0.84114,1.70233 1.7587,3.42961 2.47113,1.64176 4.34672,3.36479 4.71385,4.33043 0.33125,0.87124 0.3144,2.11777 -0.0375,2.77531 -0.69376,1.296299 -3.78921,1.688469 -5.73298,0.726319 z m 185.50064,-0.31497 c -0.41526,-0.479479 -1.64732,-2.508689 -2.73789,-4.509349 l -1.9829,-3.63757 -0.32359,3.25257 c -0.38849,3.90503 -0.90236,5.300949 -1.90831,5.183939 -0.55002,-0.064 -0.69713,-0.24 -0.76243,-0.912339 -0.0445,-0.45819 0.12253,-1.29163 0.37116,-1.85209 0.33933,-0.7649 0.49856,-2.17373 0.63844,-5.64925 0.1025,-2.54663 0.27565,-4.83859 0.38476,-5.09325 0.10912,-0.25467 0.40532,-0.46303 0.65824,-0.46303 0.73051,0 1.18377,0.68868 3.04756,4.63023 2.02208,4.27627 3.2945,6.48232 3.73895,6.48232 0.49366,0 1.37562,-3.80678 1.68574,-7.27607 0.28938,-3.23714 0.59971,-3.9986 1.49035,-3.65683 0.6244,0.2396 0.67028,1.11797 0.26009,4.97975 -0.42709,4.02091 -1.15446,6.84287 -2.16528,8.400559 -0.79603,1.22667 -1.41005,1.25754 -2.39489,0.12041 z m 9.49806,0.31497 c -2.08646,-1.032789 -3.17563,-3.110949 -2.45701,-4.688119 l 0.32192,-0.7065 1.23269,1.38154 c 0.67798,0.75985 1.56788,1.5036 1.97753,1.65279 0.9124,0.33228 2.47945,0.35505 2.67487,0.0389 0.22067,-0.35706 -2.16657,-2.40461 -4.41035,-3.78278 -2.36684,-1.45376 -2.99132,-2.26543 -2.93152,-3.8103 0.0699,-1.80585 0.91475,-3.12549 2.50993,-3.9204 1.79078,-0.89239 2.54003,-0.86927 3.90645,0.12055 1.6536,1.19787 2.46463,3.59409 1.41524,4.18137 -0.53623,0.3001 -1.3959,-0.0673 -1.3959,-0.59656 0,-0.67414 -1.27116,-1.74912 -2.06836,-1.74912 -1.11324,0 -2.21444,0.94558 -2.11344,1.81476 0.0627,0.53949 0.57057,1.02315 2.26963,2.16133 3.09968,2.07645 4.82525,3.86342 4.9967,5.17454 0.0745,0.56973 0.007,1.36905 -0.14991,1.77627 -0.57394,1.488969 -3.66471,1.998039 -5.77847,0.951759 z m 31.26559,0.0579 c -1.83016,-1.116019 -3.02163,-3.346179 -3.02163,-5.655719 0,-1.52293 0.73726,-3.47604 2.08212,-5.51577 1.52345,-2.31063 2.39618,-2.77857 4.61406,-2.47395 1.76435,0.24233 2.904,1.3726 3.51979,3.49086 1.67318,5.75556 -3.17845,12.603469 -7.19434,10.154579 z m 3.19941,-2.824359 c 1.45352,-0.85182 2.51024,-2.80408 2.51024,-4.63757 0,-1.10202 -0.0741,-1.2609 -0.65664,-1.4071 -0.36116,-0.0906 -0.84315,-0.52543 -1.07107,-0.9662 -0.22794,-0.44076 -0.70858,-0.93542 -1.06812,-1.09924 -0.56838,-0.25897 -0.75209,-0.20361 -1.40728,0.42411 -0.92461,0.88584 -2.16464,3.35755 -2.33987,4.66402 -0.15248,1.13683 0.38809,2.33986 1.41399,3.14683 0.90384,0.71097 1.21809,0.69599 2.61875,-0.12485 z m 13.06018,2.306089 c -0.49094,-0.574949 -1.72602,-2.598319 -2.74467,-4.496369 -1.28162,-2.38812 -1.9012,-3.31322 -2.01169,-3.00366 -0.0878,0.24604 -0.23236,1.67931 -0.32126,3.18506 -0.17947,3.03973 -0.73036,4.616879 -1.65899,4.749559 -1.06808,0.1526 -1.24511,-0.52931 -0.61498,-2.368669 0.46768,-1.36518 0.59413,-2.44556 0.67641,-5.78007 0.11536,-4.67487 0.29409,-5.65419 1.05247,-5.76636 0.7843,-0.116 1.23598,0.5422 2.86772,4.17886 1.70649,3.80323 3.46158,6.87936 3.92474,6.87882 0.52078,-6.1e-4 1.24008,-2.97763 1.64251,-6.7979 0.44326,-4.2077 0.90361,-5.13648 1.8386,-3.70948 0.35036,0.53472 0.35211,1.0176 0.0151,4.16721 -0.44527,4.16128 -0.92189,6.18277 -1.9317,8.19263 -0.93846,1.867869 -1.5224,1.989669 -2.73427,0.570369 z m -443.939206,0.55499 c -0.363804,-0.0615 -0.780524,-0.22651 -0.926046,-0.36668 -0.145521,-0.14017 -0.342621,-2.422049 -0.438,-5.070849 -0.09538,-2.64879 -0.251908,-5.11365 -0.34784,-5.47745 -0.125733,-0.47681 -0.01905,-0.82765 0.382161,-1.25678 0.662009,-0.70807 0.888338,-0.73432 1.454044,-0.16861 0.359337,0.35933 0.423126,1.10077 0.404056,4.69637 -0.01246,2.34832 -0.01737,4.4185 -0.01093,4.6004 0.01505,0.42473 3.286908,0.45275 4.4757,0.0383 1.089333,-0.37974 1.621461,0.0352 1.621461,1.26434 0,0.77559 -0.124701,0.957669 -0.859899,1.255539 -0.899629,0.36449 -4.615798,0.67793 -5.754711,0.48538 z m 179.284466,-0.0207 c -1.61637,-0.68416 -2.6677,-9.598569 -1.33642,-11.331769 0.35993,-0.46859 0.39584,-0.46221 0.88002,0.15625 0.44226,0.56492 0.48765,0.95816 0.3665,3.17501 -0.1691,3.09435 0.24837,5.44201 1.04338,5.86749 0.30099,0.16108 1.21521,0.24249 2.0316,0.1809 3.38078,-0.25506 4.54025,-1.73004 4.22153,-5.37024 -0.2161,-2.46803 -0.0382,-4.68538 0.42683,-5.32141 0.82635,-1.13009 1.17813,0.40077 1.23579,5.37783 0.0348,3.00635 -0.0118,3.33218 -0.67019,4.67779 -0.95792,1.957909 -2.27891,2.618879 -5.44563,2.724749 -1.23902,0.0414 -2.47805,-0.02 -2.75341,-0.1366 z m 137.11473,0.0286 c -0.38785,-0.0582 -0.79928,-0.30716 -0.91424,-0.55335 -0.11499,-0.24618 -0.22574,-2.174019 -0.24617,-4.284079 -0.0204,-2.11006 -0.12364,-4.55435 -0.22939,-5.43174 -0.16884,-1.40017 -0.12796,-1.65353 0.33401,-2.07162 1.45368,-1.31556 2.09019,1.1372 1.73829,6.69844 l -0.18489,2.92159 h 2.0096 c 1.10527,0 2.31236,-0.13795 2.68243,-0.30656 0.5606,-0.25543 0.76129,-0.22652 1.20307,0.1733 1.07236,0.97046 0.46342,2.381249 -1.13189,2.622469 -1.37931,0.20856 -4.49852,0.34585 -5.26082,0.23155 z m -288.16341,-0.3475 c -1.512171,-0.38054 -2.379548,-0.906439 -3.450882,-2.092279 -1.00682,-1.11442 -1.092678,-1.49695 -0.983547,-4.382 0.118841,-3.14178 4.296027,-7.80524 6.991365,-7.80524 1.020301,0 1.614176,0.37735 2.273962,1.44491 0.745726,1.20661 0.654458,2.62039 -0.176798,2.73869 -0.420842,0.0599 -0.692359,-0.13466 -0.989289,-0.70886 -0.81179,-1.56983 -2.072759,-1.27872 -4.169159,0.96251 -1.491299,1.59431 -2.331336,3.17555 -2.331336,4.38837 0,0.7087 0.205268,1.08941 0.930898,1.72652 1.388613,1.21922 3.120014,1.4755 6.662662,0.9862 l 1.64041,-0.22657 0.184494,0.73509 c 0.101474,0.4043 0.07073,0.91544 -0.06831,1.13587 -0.592267,0.938939 -4.51639,1.599609 -6.514473,1.096789 z m 90.04618,-0.10893 c -0.22943,-0.27645 -0.29302,-1.861679 -0.23084,-5.754709 0.0782,-4.89781 0.13811,-5.48646 0.67681,-6.65377 l 0.59097,-1.2806 4.12914,0.09 c 3.96785,0.0865 4.14889,0.11438 4.63457,0.7146 0.27798,0.34355 0.50542,0.9091 0.50542,1.25678 v 0.63215 h -3.42237 c -4.12022,0 -4.65231,0.1597 -5.02694,1.50876 -0.64873,2.33614 -0.24512,2.72643 2.6167,2.53028 2.39213,-0.16396 2.92218,0.0674 2.92218,1.27573 0,0.95807 -0.45983,1.19639 -2.77813,1.43988 -2.62931,0.27616 -3.09652,0.49172 -2.99414,1.38145 l 0.0837,0.72748 3.18659,0.0168 c 1.75262,0.009 3.3302,0.10557 3.50574,0.21405 0.17554,0.10849 0.31915,0.58948 0.31915,1.06886 v 0.871609 l -2.0243,0.17111 c -3.55968,0.30091 -6.34249,0.21343 -6.69426,-0.21043 z m 11.74355,-0.0709 c -0.40028,-0.400279 -0.43157,-0.847309 -0.2715,-3.879349 0.36683,-6.94863 1.17751,-8.51495 4.67349,-9.02979 1.06495,-0.15683 1.30955,-0.0937 2.0498,0.52919 0.94602,0.79603 1.79471,3.16902 1.48983,4.16567 -0.10043,0.32827 -0.89888,1.26532 -1.77434,2.08231 l -1.59174,1.48545 1.42528,1.06768 c 0.7839,0.58722 1.6625,1.11085 1.95243,1.16363 0.64316,0.11707 1.28554,1.36437 1.0633,2.06459 -0.45018,1.418369 -2.95703,0.391449 -5.59133,-2.29047 -0.8908,-0.90689 -1.69447,-1.57404 -1.78595,-1.48257 -0.0915,0.0915 -0.16632,1.01564 -0.16632,2.0537 0,2.356619 -0.49319,3.049709 -1.47295,2.069959 z m 4.30428,-7.738549 c 1.48278,-0.81419 1.91606,-1.40723 1.50627,-2.06169 -0.37021,-0.59125 -1.52277,-0.72951 -2.5465,-0.30547 -0.94814,0.39274 -1.52652,1.60038 -1.52652,3.18738 v 1.11295 l 0.6709,-0.63027 c 0.36899,-0.34665 1.22213,-0.93295 1.89585,-1.3029 z m 10.93619,7.805079 c -0.23461,-0.28268 -0.29634,-1.857059 -0.23084,-5.886999 0.079,-4.86176 0.15092,-5.62413 0.61858,-6.55947 l 0.52917,-1.05833 h 4.191 c 4.0854,0 4.20374,0.0157 4.69638,0.62462 0.27795,0.34355 0.50537,0.90031 0.50537,1.23726 0,0.60853 -0.0258,0.6132 -3.85837,0.6983 -4.36676,0.097 -4.4442,0.1334 -4.76017,2.24047 -0.26395,1.76013 0.0222,1.94831 2.67823,1.76087 2.50509,-0.17679 3.02988,0.0426 3.02988,1.2668 0,0.95807 -0.45983,1.19639 -2.77813,1.43988 -2.62931,0.27616 -3.09652,0.49172 -2.99414,1.38145 l 0.0837,0.72748 3.18658,0.0168 c 1.75263,0.009 3.33021,0.10557 3.50575,0.21405 0.17553,0.10849 0.31915,0.58948 0.31915,1.06886 v 0.871609 l -2.0243,0.17111 c -3.57768,0.30243 -6.34219,0.21378 -6.69785,-0.21476 z m 63.50025,0 c -0.2346,-0.28268 -0.29634,-1.857059 -0.23083,-5.886999 0.079,-4.86176 0.15092,-5.62413 0.61858,-6.55947 l 0.52917,-1.05833 h 4.191 c 4.08539,0 4.20374,0.0157 4.69637,0.62462 0.27796,0.34355 0.50538,0.90031 0.50538,1.23726 0,0.60853 -0.0258,0.6132 -3.85837,0.6983 -4.36676,0.097 -4.4442,0.1334 -4.76017,2.24047 -0.26395,1.76013 0.0222,1.94831 2.67823,1.76087 2.50509,-0.17679 3.02988,0.0426 3.02988,1.2668 0,0.95807 -0.45983,1.19639 -2.77814,1.43988 -2.6293,0.27616 -3.09651,0.49172 -2.99414,1.38145 l 0.0837,0.72748 3.18659,0.0168 c 1.75262,0.009 3.33021,0.10557 3.50574,0.21405 0.17554,0.10849 0.31916,0.58948 0.31916,1.06886 v 0.871609 l -2.0243,0.17111 c -3.57768,0.30243 -6.3422,0.21378 -6.69786,-0.21476 z m 11.7459,-0.0678 c -0.4003,-0.400309 -0.43358,-0.850229 -0.28298,-3.825779 0.35264,-6.96754 1.18629,-8.56644 4.73951,-9.09011 1.20733,-0.17794 1.30178,-0.14446 2.16032,0.76586 1.05106,1.11444 1.57183,2.97777 1.16134,4.15529 -0.1432,0.41078 -0.92334,1.31328 -1.73364,2.00554 l -1.47328,1.25866 0.98776,0.85385 c 0.54326,0.46961 1.49884,1.09408 2.12351,1.38771 0.75376,0.35431 1.19097,0.75389 1.29994,1.18806 0.65759,2.620029 -2.34859,1.902639 -5.5671,-1.32853 -0.89689,-0.90041 -1.70057,-1.56726 -1.78595,-1.48188 -0.0854,0.0854 -0.15524,1.00455 -0.15524,2.04261 0,2.357779 -0.49312,3.049779 -1.47419,2.068719 z m 4.27003,-7.700019 c 1.51506,-0.75883 1.85369,-1.22508 1.48209,-2.04067 -0.22261,-0.48857 -0.503,-0.65362 -1.11038,-0.65362 -1.88447,0 -2.90296,1.23798 -2.90296,3.52858 v 1.06836 l 0.72761,-0.68186 c 0.40018,-0.37502 1.21182,-0.92437 1.80364,-1.22079 z m 27.54737,7.879539 c -1.18907,-0.29924 -3.19883,-1.621909 -3.75558,-2.471619 -0.63956,-0.97608 -0.786,-3.55893 -0.29715,-5.24054 0.91128,-3.13467 4.49191,-6.56585 6.85184,-6.56585 1.42651,0 2.96687,1.87032 2.7909,3.38875 -0.12904,1.11341 -0.95146,1.06968 -1.93592,-0.10292 -0.81072,-0.96565 -0.87234,-0.99028 -1.66089,-0.66365 -1.80956,0.74955 -4.79702,4.6449 -4.81382,6.27675 -0.007,0.6915 1.8101,2.39218 2.8318,2.6502 1.03175,0.26055 3.09193,0.25553 5.03378,-0.0123 l 1.65365,-0.22807 v 1.06379 c 0,1.00294 -0.0637,1.08927 -1.11378,1.509429 -1.35135,0.5407 -4.20567,0.7431 -5.58483,0.39602 z m 8.03026,-0.11223 c -0.235,-0.28316 -0.29574,-1.820259 -0.22741,-5.754709 0.0846,-4.8708 0.14768,-5.48704 0.68079,-6.64896 l 0.58756,-1.2806 4.12915,0.09 c 3.96784,0.0865 4.14887,0.11438 4.63454,0.7146 0.278,0.34355 0.50543,0.9091 0.50543,1.25678 v 0.63215 h -3.42237 c -3.62885,0 -4.64768,0.20418 -4.87529,0.97703 -0.8089,2.74667 -0.42148,3.29106 2.18651,3.07241 2.38316,-0.19979 3.10241,-0.008 3.27084,0.87334 0.21349,1.11683 -0.51999,1.60371 -2.75226,1.82692 -2.71375,0.27136 -3.19365,0.48667 -3.09013,1.3864 l 0.0837,0.72748 3.18658,0.0168 c 1.75263,0.009 3.33022,0.10557 3.50574,0.21405 0.17555,0.10849 0.31917,0.58947 0.31917,1.06886 v 0.871599 l -2.02431,0.17112 c -3.57964,0.30259 -6.34216,0.21382 -6.69825,-0.21524 z m 34.39598,0 c -0.23474,-0.28285 -0.2966,-1.824519 -0.23083,-5.754709 0.084,-5.0226 0.13039,-5.45078 0.71988,-6.64822 l 0.63011,-1.27986 4.03904,0.0892 c 3.52416,0.0779 4.10998,0.15349 4.59544,0.59327 0.31699,0.28715 0.55642,0.82792 0.55642,1.25677 v 0.75275 h -3.42238 c -4.35307,0 -4.64552,0.10773 -5.01892,1.84891 -0.3556,1.65816 -0.36428,1.47861 0.0933,1.93622 0.30017,0.30016 0.90134,0.35379 2.77089,0.2472 2.3644,-0.13482 2.39002,-0.12965 2.64206,0.53321 0.34629,0.91087 0.0925,1.71103 -0.59574,1.87817 -0.31366,0.0762 -1.34422,0.2187 -2.29011,0.31673 -2.05156,0.21261 -2.97702,0.70585 -2.8605,1.52454 0.0718,0.5046 0.23463,0.57331 1.27299,0.53725 0.65485,-0.0227 2.23243,0.0197 3.50575,0.0942 l 2.31511,0.13559 v 0.99142 0.991429 l -2.02431,0.17111 c -3.57964,0.30259 -6.34217,0.21382 -6.69824,-0.21524 z m 54.62186,0.0556 c -0.067,-0.1819 -0.15253,-2.354799 -0.19013,-4.828669 l -0.0684,-4.49793 h -1.98438 -1.98439 l -0.0797,-0.81629 c -0.12438,-1.2747 0.40632,-1.51161 3.68926,-1.64688 2.19623,-0.0905 3.39943,-0.005 4.89132,0.34595 1.97192,0.46437 1.97832,0.46873 1.89823,1.29158 l -0.0804,0.82564 -2.05053,-0.0132 c -2.02436,-0.013 -2.05056,-0.005 -2.05286,0.66146 -0.005,1.3805 -0.54018,8.09977 -0.68099,8.545999 -0.16745,0.53072 -1.12477,0.62761 -1.30715,0.1323 z m 7.41228,-0.29689 c -0.35806,-0.546479 -0.37455,-1.102329 -0.12761,-4.299499 0.47921,-6.20411 1.20986,-7.70242 4.0429,-8.29055 1.19838,-0.24878 1.64143,-0.24135 2.21352,0.0371 0.95811,0.46641 1.94318,2.39324 1.94318,3.8009 0,1.03412 -0.12679,1.23789 -1.64426,2.64281 l -1.64426,1.52229 1.13245,1.00497 c 0.62286,0.55273 1.54142,1.13994 2.04127,1.3049 0.9148,0.30191 1.32205,1.02083 1.13044,1.99547 -0.30697,1.561169 -2.59214,0.684119 -5.34249,-2.05043 -0.99733,-0.9916 -1.86053,-1.8029 -1.91824,-1.8029 -0.0577,0 -0.10493,0.84127 -0.10493,1.86948 0,2.717599 -0.76566,3.724909 -1.72197,2.265419 z m 4.60329,-7.649559 c 1.27601,-0.67893 1.3778,-0.80305 1.30197,-1.5875 -0.0692,-0.71573 -0.20241,-0.86473 -0.83829,-0.93746 -0.96237,-0.11006 -2.19647,0.39742 -2.69407,1.10785 -0.22344,0.319 -0.38635,1.15664 -0.38635,1.98656 v 1.43497 l 0.61627,-0.63395 c 0.33893,-0.34867 1.23916,-0.96538 2.00047,-1.37047 z m 51.2201,7.946449 c -0.067,-0.1819 -0.15253,-2.354799 -0.19013,-4.828669 l -0.0684,-4.49793 h -1.98438 -1.98438 l -0.0797,-0.81629 c -0.12438,-1.2747 0.40632,-1.51161 3.68926,-1.64688 2.19624,-0.0905 3.39943,-0.005 4.89132,0.34595 1.97192,0.46437 1.97832,0.46873 1.89823,1.29158 l -0.0803,0.82564 -2.05053,-0.0132 -2.05053,-0.0132 -0.008,1.0715 c -0.0138,1.89934 -0.48755,7.68676 -0.66784,8.156629 -0.20183,0.5259 -1.13462,0.61442 -1.31491,0.12479 z M 40.304928,99.618901 c -1.262123,-0.46246 -1.52439,-1.42761 -1.863752,-6.85861 -0.244384,-3.91103 -0.229908,-4.61257 0.102027,-4.94451 0.285121,-0.28512 1.293961,-0.41957 3.837267,-0.51141 3.629619,-0.13107 4.250487,0.0189 4.250487,1.02684 0,0.70356 -0.652566,0.94255 -3.054774,1.11877 -2.932797,0.21514 -3.030667,0.26948 -3.030667,1.68277 v 1.1805 l 2.090313,-0.18234 c 1.93692,-0.16896 2.111662,-0.14244 2.381259,0.3613 0.428129,0.79997 0.354641,1.55449 -0.172075,1.76673 -0.254663,0.10262 -1.211468,0.28294 -2.126234,0.40072 -1.848543,0.238 -2.43982,0.58297 -2.433796,1.41995 0.0088,1.21779 0.339204,1.35667 3.227866,1.35667 2.026305,0 2.941061,-0.11318 3.582052,-0.4432 0.764283,-0.3935 0.905224,-0.3988 1.256776,-0.0472 0.217775,0.21778 0.395955,0.69181 0.395955,1.0534 0,0.52854 -0.246409,0.76834 -1.256775,1.22306 -1.530777,0.68894 -5.752257,0.921939 -7.185929,0.39661 z m 45.113312,-0.24188 c -0.33191,-0.47386 -0.42255,-1.3077 -0.42255,-3.88715 0,-1.80613 -0.13801,-3.74453 -0.3067,-4.30755 -0.23324,-0.7785 -0.23254,-1.18642 0.003,-1.70319 0.43114,-0.94623 1.11877,-0.73169 1.75901,0.54879 0.46034,0.92068 0.52917,1.58751 0.52917,5.1267 0,3.87109 -0.0276,4.08673 -0.56965,4.44702 -0.51677,0.3435 -0.60887,0.32265 -0.99219,-0.22462 z m 30.68869,0.31123 c -1.3829,-0.43957 -1.63902,-1.35081 -2.00641,-7.13853 -0.23629,-3.72246 -0.2202,-4.3999 0.11244,-4.73254 0.28684,-0.28684 1.28928,-0.42075 3.83867,-0.51281 3.62961,-0.13107 4.25048,0.0189 4.25048,1.02684 0,0.66584 -0.79164,1.03525 -2.21855,1.03525 -0.65725,0 -1.79617,0.12893 -2.53094,0.28651 l -1.33595,0.28651 v 1.18689 1.18688 l 2.09031,-0.18234 c 1.93693,-0.16896 2.11167,-0.14244 2.38126,0.3613 0.42813,0.79997 0.35464,1.55449 -0.17207,1.76673 -0.25466,0.10262 -1.21147,0.28294 -2.12623,0.40072 -1.84855,0.238 -2.43983,0.58297 -2.4338,1.41995 0.009,1.21779 0.3392,1.35667 3.22786,1.35667 2.02631,0 2.94107,-0.11318 3.58206,-0.4432 0.76428,-0.3935 0.90522,-0.3988 1.25677,-0.0472 0.21778,0.21778 0.39596,0.69181 0.39596,1.0534 0,1.06254 -1.91425,1.77134 -5.0271,1.86142 -1.38246,0.04 -2.8606,-0.0376 -3.28476,-0.1724 z m 25.1332,-0.33187 c -0.32385,-0.49426 -0.40683,-1.32399 -0.37902,-3.79 0.0196,-1.73646 -0.10151,-3.65162 -0.26909,-4.2559 -0.21235,-0.76577 -0.22328,-1.31278 -0.0361,-1.8052 0.37434,-0.98458 1.07498,-0.77197 1.72229,0.52264 0.46033,0.92067 0.52916,1.58751 0.52916,5.12646 0,3.88539 -0.0259,4.08535 -0.57633,4.45146 -0.52762,0.35093 -0.61136,0.32985 -0.99094,-0.24946 z m 26.99305,0.0206 c -0.33156,-0.47337 -0.42255,-1.30599 -0.42255,-3.86683 0,-1.79496 -0.13001,-3.7799 -0.28892,-4.41098 -0.56558,-2.24612 0.75206,-3.05544 1.74413,-1.07129 0.46034,0.92068 0.52917,1.58751 0.52917,5.1267 0,3.87109 -0.0276,4.08673 -0.56964,4.44702 -0.51677,0.3435 -0.60887,0.32265 -0.99219,-0.22462 z m 103.17526,0.15116 c -0.3216,-0.32161 -0.40989,-1.05171 -0.40989,-3.38959 0,-1.63883 -0.13393,-3.64659 -0.29763,-4.46168 -0.36243,-1.80466 -0.15816,-2.83962 0.56046,-2.83962 0.73831,0 1.29931,1.25918 1.56156,3.50497 0.17135,1.46737 0.19287,5.13774 0.04,6.81632 -0.007,0.0741 -0.24455,0.27985 -0.52844,0.45714 -0.4197,0.26211 -0.59274,0.24575 -0.92604,-0.0875 z m 160.18374,0.0138 c -0.24276,-0.29253 -0.36164,-1.40916 -0.38801,-3.64498 -0.0209,-1.77279 -0.13439,-4.01023 -0.25213,-4.97208 -0.22995,-1.87832 -0.0509,-2.26154 0.91377,-1.95538 0.92922,0.29493 1.34817,2.48513 1.26456,6.61093 -0.0683,3.36853 -0.11602,3.67224 -0.63104,4.01375 -0.48403,0.32099 -0.60309,0.31413 -0.90715,-0.0522 z m 16.38534,-0.0229 c -0.27022,-0.32573 -0.37322,-1.33588 -0.38516,-3.77727 -0.009,-1.83294 -0.15922,-3.82704 -0.33398,-4.43132 -0.22363,-0.77331 -0.23815,-1.30793 -0.0491,-1.8052 0.35629,-0.93712 1.01648,-0.7859 1.70797,0.39121 0.48658,0.82829 0.54349,1.36494 0.54349,5.12445 0,3.97551 -0.0297,4.21908 -0.55716,4.57102 -0.48779,0.32547 -0.60307,0.3164 -0.92605,-0.0729 z M 73.459333,94.551011 c -0.0784,-0.20443 -0.10448,-0.76998 -0.0579,-1.25677 0.0836,-0.87244 0.10747,-0.88768 1.672297,-1.06647 5.81277,-0.66415 6.59779,-0.71362 6.93136,-0.43679 0.47797,0.39668 0.43194,1.67161 -0.0756,2.0928 -0.23115,0.19183 -1.7492,0.49712 -3.37345,0.67843 -3.969937,0.44313 -4.923267,0.44104 -5.096797,-0.0112 z m -39.616622,-4.8318 c -0.36377,-0.36377 -0.150935,-1.15232 0.665513,-2.46571 0.768147,-1.23569 0.814505,-1.4301 0.529169,-2.21919 -0.386696,-1.06939 -0.403688,-2.19505 -0.03656,-2.42195 0.724795,-0.44795 2.089476,1.94627 2.099274,3.683 0.005,0.88273 -0.177921,1.21372 -1.279314,2.31511 -1.259276,1.25928 -1.62343,1.46339 -1.978082,1.10874 z m 49.701019,-4.41875 c -0.50341,-0.3681 -0.50586,-0.41577 -0.0685,-1.3329 0.7203,-1.51048 1.90294,-1.04393 1.73696,0.68521 -0.0966,1.00589 -0.80336,1.28027 -1.66845,0.64769 z m 55.86328,0.0263 c -0.45318,-0.33137 -0.45845,-0.42171 -0.0777,-1.3329 0.64911,-1.55354 1.87719,-1.08038 1.71023,0.65892 -0.0951,0.99085 -0.80075,1.28217 -1.6325,0.67398 z m 26.95166,-0.0263 c -0.50341,-0.3681 -0.50586,-0.41577 -0.0685,-1.3329 0.72029,-1.51048 1.90294,-1.04393 1.73696,0.68521 -0.0966,1.00589 -0.80336,1.28027 -1.66845,0.64769 z m 103.11852,0.18656 c -0.48782,-0.19684 -0.40191,-1.26575 0.15722,-1.95626 0.58402,-0.72122 1.24327,-0.55934 1.41669,0.34786 0.25718,1.34532 -0.44573,2.06363 -1.57391,1.6084 z m 160.23858,-0.14552 c -0.33687,-0.26914 -0.37589,-0.52398 -0.18574,-1.21306 0.46001,-1.6669 1.90041,-1.29501 1.75391,0.45282 -0.0879,1.04842 -0.78468,1.38621 -1.56817,0.76024 z m 16.34457,-0.0147 c -0.45318,-0.33137 -0.45847,-0.42171 -0.0777,-1.33291 0.6491,-1.55353 1.87717,-1.08037 1.71022,0.65893 -0.0951,0.99084 -0.80074,1.28217 -1.63249,0.67398 z m -404.544681,-1.4284 c -0.277857,-0.27786 -0.206203,-1.38975 0.130422,-2.02383 0.59929,-1.12884 3.444511,-4.11511 3.793244,-3.98129 0.192186,0.0737 0.49757,0.49173 0.67863,0.92885 0.324664,0.78381 0.29865,0.82547 -1.888171,3.02371 -2.240983,2.25269 -2.396438,2.37025 -2.714125,2.05256 z m 75.671161,0 c -0.27786,-0.27786 -0.20621,-1.38975 0.13042,-2.02383 0.59929,-1.12884 3.44451,-4.11511 3.79324,-3.98129 0.19219,0.0737 0.49757,0.49173 0.67863,0.92885 0.32466,0.78381 0.29865,0.82547 -1.88817,3.02371 -2.24098,2.25269 -2.39644,2.37025 -2.71412,2.05256 z"
         id="path1066" />
    </g>
    <path
       style="fill:#000000;stroke-width:0.264584"
       id="path1046"
       d="" />
  </g>
</svg>
