<?xml version="1.0" encoding="UTF-8" standalone="no"?>
<!-- Created with Inkscape (http://www.inkscape.org/) -->

<svg
   width="750"
   height="750"
   viewBox="0 0 198.4375 198.43768"
   version="1.1"
   id="svg5"
   inkscape:version="1.1.1 (1:1.1+202109281943+c3084ef5ed)"
   sodipodi:docname="logoSimpleSansFond.svg"
   inkscape:export-filename="/home/aro/Documents/Ecomorphose/logo/Kit logo/logoSimpleAvecFond.png"
   inkscape:export-xdpi="96"
   inkscape:export-ydpi="96"
   xmlns:inkscape="http://www.inkscape.org/namespaces/inkscape"
   xmlns:sodipodi="http://sodipodi.sourceforge.net/DTD/sodipodi-0.dtd"
   xmlns="http://www.w3.org/2000/svg"
   xmlns:svg="http://www.w3.org/2000/svg">
  <sodipodi:namedview
     id="namedview7"
     pagecolor="#ffffff"
     bordercolor="#eeeeee"
     borderopacity="1"
     inkscape:pageshadow="0"
     inkscape:pageopacity="0.18823529"
     inkscape:pagecheckerboard="false"
     inkscape:document-units="mm"
     showgrid="false"
     inkscape:zoom="0.32103575"
     inkscape:cx="-457.89293"
     inkscape:cy="32.706638"
     inkscape:window-width="1854"
     inkscape:window-height="1098"
     inkscape:window-x="66"
     inkscape:window-y="29"
     inkscape:window-maximized="1"
     inkscape:current-layer="layer1"
     units="px"
     height="1122.5196px"
     showguides="true" />
  <defs
     id="defs2" />
  <g
     inkscape:label="Calque 1"
     inkscape:groupmode="layer"
     id="layer1">
    <g
       id="g5977"
       transform="matrix(0.26452743,0,0,0.2658242,-88.497241,-59.727013)"
       inkscape:export-filename="/home/aro/Documents/Ecomorphose/logo/Kit logo/logoSimpleSansFond.png"
       inkscape:export-xdpi="96"
       inkscape:export-ydpi="96">
      <path
         style="fill:#7ab892;fill-opacity:1;stroke-width:1.33333"
         d="m 860.51404,723.18094 c -24.2948,-5.43298 -40.3637,-13.21768 -53.8194,-26.07321 -10.72395,-10.24556 -18.18351,-21.97816 -23.7426,-37.34292 -6.89906,-19.06827 -3.97331,-58.33888 6.03992,-81.07013 7.10357,-16.12603 29.49678,-40.07222 43.96488,-47.01392 13.439,-6.44791 17.9271,-7.24928 40.6002,-7.24928 20.8319,0 21.5871,0.10078 35.4079,4.7255 19.9921,6.68979 29.7004,14.66083 43.7744,35.94116 7.222,10.91994 8.9151,18.9037 8.7654,41.33334 -0.1624,24.3322 -2.0307,32.55961 -10.8432,47.74984 -12.5826,21.68894 -27.8259,30.30353 -53.4809,30.22416 -20.8502,-0.0645 -30.5669,-3.46862 -43.6212,-15.28208 -9.6395,-8.72327 -11.0481,-12.74463 -11.038,-31.51328 0.01,-17.91274 1.3124,-22.15678 9.5775,-31.20004 9.2746,-10.14791 14.5537,-12.64712 26.6953,-12.63783 13.5169,0.0107 19.3588,1.94743 26.0487,8.63728 5.4927,5.49273 5.6711,5.93979 5.6711,14.21649 0,13.33208 -5.419,18.47212 -19.4746,18.47212 -10.3419,0 -16.5254,-4.4158 -16.5254,-11.80118 0,-2.74935 0.72,-5.71882 1.6,-6.59882 2.5159,-2.51589 9.696,-1.92124 12.3611,1.02376 1.9295,2.13198 2.8901,2.3478 5.1255,1.15146 2.6797,-1.43412 2.6423,-1.56947 -1.4422,-5.21895 -6.2367,-5.57256 -12.8096,-6.36028 -20.2187,-2.42311 -8.8133,4.68335 -13.5447,12.1905 -14.4002,22.84815 -1.2296,15.31851 3.6143,23.07976 19.0183,30.47216 12.147,5.8294 21.7567,6.38672 34.8631,2.02188 7.896,-2.62963 11.8194,-4.80371 15.3465,-8.50407 4.7063,-4.93741 12.9355,-17.19704 14.9719,-22.30461 4.6219,-11.59235 6.2621,-36.07727 3.2428,-48.40957 -3.0474,-12.44675 -19.9448,-33.52384 -31.0675,-38.75214 -14.4691,-6.80125 -26.1719,-9.50496 -41.1415,-9.50496 -13.0526,0 -15.4894,0.40357 -24.6958,4.08998 -11.1863,4.47922 -15.0499,7.07199 -25.0016,16.77803 -17.9447,17.50181 -26.73081,37.67961 -28.17105,64.69662 -0.83433,15.65117 0.33579,22.55192 5.83905,34.43537 1.8678,4.03334 4.358,9.40856 5.5338,11.94494 3.5868,7.7376 17.3046,20.52788 26.9031,25.08417 30.0137,14.24707 51.6964,17.52319 85.6209,12.93677 15.2912,-2.06729 27.5581,-5.6302 35.3787,-10.27574 4.0706,-2.41795 4.2119,-2.74668 2.3334,-5.42864 -2.5958,-3.70607 -2.5525,-10.21215 0.093,-13.98939 1.151,-1.64336 4.901,-4.49388 8.3333,-6.33451 9.4344,-5.05937 29.4528,-17.41473 32.10596,-19.81588 2.9759,-2.69316 9.9569,-2.74561 12.1597,-0.0913 2.2555,2.71765 0.9712,20.38752 -2.1298,29.30299 -7.3075,21.0092 -9.1035,24.90638 -14.08786,30.56896 -4.4683,5.0762 -6.1559,6.0977 -10.0743,6.0977 -3.7083,0 -5.6474,-1.02681 -9.1402,-4.84012 l -4.4334,-4.84012 -5.7464,3.28754 c -9.5575,5.46777 -20.9608,8.8849 -36.7923,11.02525 -20.6781,2.79557 -52.5087,2.53159 -66.2875,-0.54975 z"
         id="path1245" />
      <path
         id="path960"
         style="fill:#000000;stroke-width:1.33333"
         d="m 768.83594,471.11914 c -7.774,0.37758 -15.12433,3.03126 -20.10742,7.86719 -7.8046,7.5741 -9.64844,12.65667 -9.64844,26.59961 0,13.41576 1.20726,17.84135 6.32226,23.20312 1.91654,2.00901 3.22727,3.80901 2.91407,4 -0.31321,0.19098 -2.36836,1.26328 -4.56836,2.38282 -4.36384,2.22041 -12.20857,12.92252 -13.54493,18.47851 -0.46117,1.91741 -1.89279,5.88698 -3.18164,8.82031 -1.28885,2.93333 -4.14627,10.43268 -6.34765,16.66602 -4.59098,12.99964 -4.59365,12.99586 -6.89649,-10 -1.56011,-15.57903 -4.28131,-26.10875 -7.42382,-28.7168 -1.60194,-1.32948 -1.03422,-2.22884 3.4707,-5.49219 2.96212,-2.14574 7.15558,-6.694 9.32031,-10.10742 3.35297,-5.28709 3.93555,-7.53344 3.93555,-15.16797 0,-20.13388 -12.5655,-33.18468 -31.94727,-33.17968 -11.19656,0.003 -16.80134,2.79391 -22.38476,11.14843 -4.14814,6.20693 -4.33269,7.03378 -4.30469,19.33399 0.0304,13.32798 2.27156,21.35517 7.07031,25.32617 1.96408,1.62528 1.42678,2.43931 -5.23047,7.91992 -7.57887,6.23934 -12.79993,14.4896 -18.73047,29.60156 l -2.87695,7.33399 -0.46484,-16.89258 c -0.42066,-15.3219 -0.759,-17.29467 -3.64649,-21.19531 l -3.18359,-4.30078 5.57422,-4.63086 c 7.50331,-6.23265 11.89861,-15.28719 12.89648,-26.57031 1.07592,-12.16549 -1.05777,-18.03441 -8.98633,-24.73047 -5.84366,-4.93527 -6.85839,-5.29214 -16.98632,-5.98633 -10.16352,-0.69662 -11.26154,-0.49761 -19.44532,3.53125 -5.23015,2.5748 -10.13069,6.1819 -12.3457,9.08594 -3.32607,4.3607 -3.66847,5.83354 -3.60937,15.58593 0.10809,17.84403 1.41028,22.92683 7.58984,29.63086 l 5.44922,5.91211 -4.74219,4.94727 c -14.17376,14.78182 -29.18221,47.72493 -35.05469,76.94726 -1.03158,5.13333 -2.78814,12.63268 -3.90429,16.66602 -2.75216,9.94521 -5.181,19.94103 -10.16797,41.8457 -4.27204,18.76438 -4.5822,28.12195 -1.07032,32.35352 1.87957,2.26472 9.73826,2.35696 11.49024,0.13476 0.72271,-0.91667 1.69053,-5.56732 2.15039,-10.33398 0.79933,-8.28575 7.83141,-40.51959 12.2168,-56 1.14259,-4.03334 2.92153,-11.53269 3.95312,-16.66602 6.40868,-31.89057 24.53776,-69.47797 37.72656,-78.21875 4.24178,-2.8112 6.4063,-1.96859 8.20508,3.19141 2.89914,8.3165 1.01099,53.9815 -3.43359,83.02734 -4.19855,27.43795 -7.37567,50.94918 -8.06445,59.68164 -0.8324,10.55326 0.49071,12.98438 7.05859,12.98438 6.82366,0 8.17761,-3.34158 10.55469,-26.04688 2.55512,-24.40589 6.11928,-40.00748 15.07226,-65.95312 2.15092,-6.23333 5.84951,-17.33268 8.21875,-24.66602 7.88823,-24.41573 16.90705,-38.99308 25.97656,-41.98632 6.32971,-2.08898 9.36757,-0.12778 11.8418,7.64062 5.66554,17.78825 9.30851,87.8818 6.78906,130.65039 -0.7273,12.34589 -0.55232,16.79578 0.72266,18.33203 2.036,2.45323 9.82002,2.68644 11.75781,0.35156 0.76624,-0.92327 2.07948,-10.37327 2.91797,-21 1.46176,-18.52603 3.04092,-29.09528 7.17774,-48.00976 1.04508,-4.77836 2.29241,-12.27771 2.77148,-16.66602 0.99149,-9.08225 4.6337,-25.98479 6.0293,-27.98047 0.51281,-0.73334 2.01278,-4.93203 3.33398,-9.33203 1.32119,-4.4 2.83399,-8.60065 3.36133,-9.33398 0.52733,-0.73333 2.57094,-5.61409 4.54102,-10.8457 1.97008,-5.23163 4.6057,-10.40951 5.85742,-11.50782 5.06974,-4.44841 13.81455,-4.50783 15.5039,-0.10547 0.4706,1.22637 1.1393,16.41105 1.48438,33.74415 0.74446,37.39332 3.95841,91.80693 5.94726,100.68164 1.82994,8.16549 4.12371,12.43959 9.32227,17.36718 4.0806,3.8679 4.61268,3.9928 16.13086,3.81836 13.41037,-0.20309 15.88672,-1.40448 15.88672,-7.71484 0,-6.20653 -2.04177,-7.4375 -12.3418,-7.4375 h -9.14062 l -2.50196,-5.66602 c -4.56424,-10.3382 -8.30269,-59.76163 -8.33789,-110.23632 -0.0148,-21.27819 -0.48142,-29.6743 -1.79492,-32.26172 -2.02586,-3.9907 -1.36814,-5.16993 2.88477,-5.16993 3.50832,0 13.86214,-9.59474 17.44531,-16.16601 1.9283,-3.53635 2.44597,-7.35645 2.41797,-17.83399 -0.0437,-16.37906 -1.78668,-20.21301 -12.22852,-26.89257 -6.67463,-4.26972 -14.87249,-6.1686 -22.64648,-5.79102 z m -0.47071,15.96484 c 1.32212,-0.14614 2.70407,-0.10118 4.14649,0.13282 1.92322,0.31199 3.95456,0.96142 6.09961,1.94726 3.58987,1.64987 7.33977,4.52833 8.34375,6.4043 4.11856,7.6956 0.99323,19.63675 -6.54102,24.99414 -7.3468,5.2241 -15.91241,3.95239 -22.66601,-3.36328 -2.75006,-2.97894 -3.33399,-4.95129 -3.33399,-11.27344 0,-6.26963 0.65438,-8.52008 3.59766,-12.3789 2.95402,-3.87293 6.38716,-6.02447 10.35351,-6.4629 z m -139.32031,0.80079 c 2.30144,0.31304 4.42224,1.64272 7.37696,4.1289 3.01444,2.5365 3.99218,4.48711 3.99218,7.96094 0,6.14906 -4.29117,14.23198 -9.77929,18.41797 -3.12952,2.387 -6.12601,3.41015 -9.98243,3.41015 -7.23889,0 -9.93818,-3.93702 -10.67968,-15.58203 -0.64285,-10.09587 0.63863,-12.07287 10.60742,-16.36132 3.6811,-1.58358 6.1634,-2.28766 8.46484,-1.97461 z m 63.23438,3.69531 c 4.77608,0.56306 9.96259,4.62096 13.06445,10.74219 3.3152,6.54224 3.33676,6.77779 1.05664,11.01171 -1.2816,2.37979 -3.60258,5.51535 -5.1582,6.9668 -9.21397,8.59709 -22.17235,0.72702 -22.15625,-13.45508 0.006,-5.44375 4.24481,-12.60583 8.64648,-14.61132 1.40829,-0.64167 2.95485,-0.84199 4.54688,-0.6543 z m -149.90039,98.22265 c -5.64114,0 -8.5299,3.42122 -16.05079,19 -3.50504,7.26044 -7.10061,13 -8.14257,13 -1.43466,0 -1.54542,-0.59824 -0.47852,-2.59179 0.76308,-1.42583 1.9854,-2.96133 2.71485,-3.41211 1.85617,-1.1472 1.65703,-9.13008 -0.2754,-11.0625 -0.88,-0.88 -3.83748,-1.59961 -6.57421,-1.59961 -4.05455,0 -5.52776,0.77357 -7.95313,4.17969 -1.63707,2.29905 -3.7007,6.28831 -4.58594,8.86328 l -1.60937,4.68164 -46.40039,0.49805 c -31.13619,0.33469 -46.98394,0.98285 -48.17188,1.96874 -2.40466,1.99573 -2.24171,9.7579 0.24805,11.82422 1.53558,1.27359 10.38229,1.57586 37,1.26368 19.24005,-0.22557 39.03047,-0.30534 43.98047,-0.17774 l 9,0.23242 v 4.40039 c 0,5.52187 2.03425,7.59961 7.4375,7.59961 4.89288,0 6.55588,-1.62665 7.84765,-7.66797 0.62265,-2.91194 1.70372,-4.33203 3.29297,-4.33203 2.0342,0 2.27503,0.93192 1.72461,6.66016 -0.40777,4.2438 -0.036,7.38714 1.02539,8.66602 2.05732,2.47892 9.82347,2.63686 11.8125,0.24023 0.80642,-0.97168 2.1826,-4.87104 3.0586,-8.66602 l 1.59375,-6.90039 h 5.5039 c 6.57791,0 8.70313,-1.79214 8.70313,-7.33398 0,-4.65642 -2.04381,-7.33399 -5.59961,-7.33399 -3.24372,0 -3.11427,-0.52004 2.96875,-11.98242 7.50624,-14.14422 6.8982,-20.01758 -2.07031,-20.01758 z" />
    </g>
  </g>
</svg>
